<svg width="145" height="24" viewBox="0 0 145 24" fill="none" xmlns="http://www.w3.org/2000/svg">
<g clip-path="url(#clip0_1119_6638)">
<path fill-rule="evenodd" clip-rule="evenodd" d="M7.48537 1.22091C7.92652 0.779771 8.51264 0.537146 9.13617 0.536865C9.75933 0.537193 10.3458 0.779772 10.787 1.22096C11.2274 1.66172 11.47 2.24822 11.4704 2.87138V11.4848C11.2362 11.4211 10.9959 11.3895 10.752 11.3895C10.4693 11.3895 10.1887 11.4323 9.90164 11.5224C9.56011 11.6408 9.22805 11.7011 8.91511 11.7011C8.37033 11.7004 7.89891 11.5217 7.55166 11.1842C7.24111 10.8811 7.06313 10.4665 7.06313 10.0476C7.06345 9.66802 7.19803 9.3144 7.4625 8.99677C7.64925 8.77266 7.6193 8.43854 7.39519 8.25108C7.30031 8.17172 7.17984 8.12794 7.056 8.12794C6.89855 8.12794 6.75047 8.1969 6.64955 8.31807C6.22622 8.8238 6.00319 9.42174 6.00352 10.0472C6.0038 10.7508 6.29855 11.4413 6.81173 11.942C7.35145 12.4696 8.09677 12.7603 8.91473 12.7603C9.34444 12.7603 9.79092 12.6809 10.2338 12.5278C10.403 12.4753 10.5773 12.4484 10.7516 12.4484C10.9999 12.4487 11.2455 12.5033 11.4704 12.6068V15.8257H9.49383C9.20213 15.8257 8.96456 16.0633 8.96456 16.3553C8.96456 16.6474 9.20213 16.8846 9.49383 16.8846H11.4704V21.1287C11.47 21.7518 11.2274 22.3383 10.787 22.7795C10.3458 23.2203 9.75933 23.4629 9.13617 23.4632C8.51269 23.4629 7.92652 23.2203 7.48537 22.7795C7.04456 22.338 6.80166 21.7518 6.80166 21.1287C6.80133 20.851 6.86391 20.5492 6.9773 20.279C7.10213 19.9813 7.28583 19.7262 7.50895 19.5405C7.73269 19.3533 7.76264 19.0189 7.57622 18.7948C7.47525 18.6736 7.32727 18.6043 7.16939 18.6043C7.04592 18.6043 6.92545 18.6481 6.83025 18.7275C6.47756 19.0215 6.19092 19.4162 6.00112 19.8691C5.83223 20.2719 5.7427 20.7069 5.7427 21.1286C5.7427 21.3924 5.77266 21.6535 5.83256 21.9079C5.5883 21.9913 5.32955 22.0351 5.0738 22.0351C4.50248 22.0347 3.95198 21.8251 3.5243 21.4448C3.02733 21.0021 2.74195 20.3661 2.74167 19.6999C2.74167 19.4176 2.79183 19.1413 2.89073 18.8778C2.99105 18.611 3.13973 18.3653 3.33155 18.149C3.42572 18.0434 3.47283 17.9074 3.46477 17.7664C3.45638 17.6248 3.39342 17.4952 3.28777 17.4014C3.19055 17.3149 3.06572 17.2678 2.93616 17.2678C2.78475 17.2678 2.64038 17.3324 2.53978 17.4458L2.50041 17.4905L2.47955 17.4932C2.44861 17.4966 2.41158 17.4969 2.33452 17.4969C1.71131 17.4966 1.12486 17.254 0.683719 16.8132C0.242953 16.3718 0.000375 15.7856 0 15.1628C0.000375 14.7267 0.121125 14.3017 0.348938 13.9339C0.571359 13.5759 0.886641 13.2839 1.26047 13.09C1.59459 12.9161 1.956 12.8282 2.33452 12.8282C2.85975 12.8282 3.35475 12.9985 3.76758 13.3201C3.87792 13.441 4.20703 13.7819 4.68652 14.1213C5.0317 14.3653 5.38669 14.5605 5.74205 14.7018C6.19899 14.8835 6.65827 14.9756 7.10752 14.976C7.39955 14.976 7.63711 14.7384 7.63711 14.4464C7.63711 14.1543 7.39955 13.9168 7.10752 13.9168C6.7942 13.9168 6.46613 13.8498 6.1327 13.7176C5.64375 13.5234 5.23158 13.2229 4.97147 13.0049C4.85405 12.9063 4.74164 12.8033 4.63767 12.6983C4.60097 12.6613 4.57308 12.632 4.55489 12.6122L4.51481 12.5671L4.46231 12.5193C3.86302 12.0354 3.10763 11.769 2.33438 11.769C2.12203 11.769 1.90805 11.7895 1.69673 11.8298C1.23609 11.4076 0.961828 10.8174 0.939656 10.1918C0.938953 10.1636 0.938625 10.1353 0.938625 10.1074C0.938625 9.50171 1.17047 8.92702 1.59173 8.48958C2.01436 8.05116 2.58234 7.7978 3.19003 7.77591C3.21834 7.77526 3.24591 7.77493 3.27384 7.77493C3.39497 7.77493 3.51614 7.78402 3.63323 7.80249C3.6608 7.80652 3.68841 7.80858 3.71531 7.80858C3.97777 7.80858 4.19747 7.61982 4.2382 7.35971C4.28264 7.07133 4.08445 6.80049 3.79542 6.7554C3.62414 6.72882 3.4485 6.71569 3.27384 6.71569H3.26747C3.08241 6.37416 2.98519 5.99255 2.98519 5.60293C2.98552 5.02922 3.1958 4.47708 3.57839 4.0494C4.02052 3.55412 4.65544 3.2701 5.32003 3.26977C5.88361 3.26977 6.42708 3.47368 6.8527 3.84413C6.94627 3.94979 7.31002 4.35291 7.78542 4.77418C8.11013 5.06152 8.42072 5.29843 8.70839 5.47777C8.89181 5.59187 9.06141 5.68065 9.22762 5.74965C9.4275 5.83276 9.61256 5.88324 9.79359 5.90344L9.85214 5.90677C10.122 5.90677 10.3481 5.70418 10.378 5.43568C10.3939 5.29501 10.3538 5.15672 10.2653 5.04633C10.1772 4.93599 10.051 4.86633 9.91003 4.85054C9.85622 4.84444 9.76472 4.82597 9.63347 4.77146C9.44438 4.69304 9.21591 4.55644 8.97197 4.37607C8.60419 4.10457 8.25727 3.77682 8.03081 3.54933C7.90566 3.42418 7.80338 3.31515 7.73306 3.23912L7.65534 3.15366L7.61663 3.10927L7.57927 3.07257C7.34944 2.8673 7.09542 2.69607 6.82252 2.56079C6.88978 2.05576 7.1213 1.58499 7.48537 1.22091ZM22.7395 13.0899C23.1137 13.2838 23.4286 13.5758 23.6511 13.9338C23.8789 14.3016 23.9997 14.7266 24 15.1623C23.9997 15.7855 23.757 16.3717 23.3163 16.8131C22.8751 17.2539 22.2886 17.4965 21.6654 17.4969C21.624 17.4969 21.5941 17.4965 21.5726 17.4962C21.548 17.4952 21.5376 17.4942 21.5211 17.4918L21.4969 17.4878L21.4602 17.4457C21.3596 17.3323 21.2152 17.2677 21.0638 17.2677C20.9343 17.2677 20.8094 17.3148 20.7118 17.4013C20.4941 17.5954 20.4743 17.9306 20.6681 18.149C20.8603 18.3653 21.009 18.6106 21.1093 18.8775C21.2078 19.1409 21.2583 19.4175 21.2583 19.6998C21.258 20.3664 20.9727 21.0023 20.4753 21.4448C20.048 21.825 19.4975 22.0347 18.9261 22.035C18.6704 22.035 18.4117 21.9913 18.1674 21.9078C18.2272 21.6527 18.2575 21.3916 18.2572 21.1285C18.2572 20.7988 18.2007 20.4505 18.093 20.1211C17.9093 19.5606 17.5899 19.0784 17.1693 18.7268C16.9284 18.5262 16.6565 18.3704 16.3614 18.2644C16.0461 18.1507 15.7029 18.0931 15.3412 18.0931C15.0492 18.0931 14.8116 18.3307 14.8116 18.6231C14.8116 18.9148 15.0492 19.1521 15.3409 19.1521C15.6582 19.1528 15.9331 19.2133 16.1814 19.3371C16.5028 19.4986 16.7595 19.759 16.9439 20.1121C17.1061 20.4206 17.1986 20.7911 17.1983 21.1286C17.1983 21.7517 16.9554 22.3379 16.5146 22.7794C16.0734 23.2202 15.4873 23.4628 14.8641 23.4631C14.2406 23.4628 13.6544 23.2202 13.213 22.7794C12.7725 22.3382 12.5299 21.7517 12.5296 21.1286V11.4092C12.9707 11.4324 13.3583 11.4877 13.6851 11.5728C14.0235 11.661 14.2951 11.7784 14.5152 11.9318C14.6774 12.0452 14.8089 12.1764 14.9179 12.3329C15.0787 12.5624 15.1935 12.8535 15.2904 13.2767C15.323 13.4168 15.3514 13.5603 15.3801 13.7048L15.383 13.7192L15.3888 13.7486C15.4158 13.8857 15.4431 14.0239 15.4742 14.162C15.5394 14.4484 15.6057 14.6661 15.6895 14.868C15.7706 15.0635 15.8648 15.2341 15.9779 15.3882C16.1717 15.655 16.4224 15.8717 16.7225 16.0312C17.0378 16.1994 17.4062 16.3091 17.8494 16.366L17.9181 16.3707C18.1828 16.3707 18.4086 16.1722 18.443 15.9084C18.4608 15.7684 18.4231 15.6291 18.3363 15.5167C18.2495 15.405 18.1247 15.3337 17.9854 15.3162C17.6229 15.2691 17.3437 15.1802 17.132 15.045C16.9833 14.9487 16.8699 14.8323 16.776 14.6775C16.7 14.5533 16.6361 14.4006 16.5799 14.2102C16.5195 14.0063 16.4739 13.7766 16.4256 13.5334L16.4234 13.5224C16.3948 13.3764 16.3652 13.2267 16.3312 13.0752C16.2693 12.802 16.1761 12.4433 16.0021 12.091C15.8682 11.8215 15.6986 11.5819 15.4977 11.379C15.1575 11.0355 14.7056 10.775 14.1555 10.6058C13.6942 10.4631 13.1605 10.3786 12.5296 10.349V7.73621H14.7046C14.9967 7.73621 15.2342 7.4986 15.2342 7.20657C15.2342 6.91487 14.9967 6.67697 14.7046 6.67697H12.5296V2.87133C12.53 2.24822 12.7725 1.66172 13.2134 1.22091C13.6544 0.779771 14.2406 0.537146 14.8641 0.536865C15.4873 0.537146 16.0734 0.779771 16.5146 1.22091C16.8786 1.58499 17.1101 2.05538 17.1774 2.56112C16.9039 2.69635 16.6498 2.86801 16.4204 3.0729C16.3151 3.16712 16.2525 3.29668 16.2444 3.43801C16.2367 3.57901 16.2841 3.71494 16.378 3.82027C16.4782 3.93296 16.6223 3.99755 16.7734 3.99755C16.9036 3.99755 17.0288 3.94979 17.126 3.86297C17.554 3.48071 18.1058 3.2701 18.6795 3.2701C19.3445 3.2701 19.9794 3.55444 20.4219 4.04972C20.7943 4.46766 20.9916 4.98347 20.9922 5.54204C20.9925 6.08279 20.8011 6.63226 20.4704 7.06932L20.436 7.11174C20.364 7.20427 20.2887 7.29038 20.2116 7.36847C20.077 7.50436 19.8842 7.64536 19.6547 7.77558C19.3068 7.97344 18.9249 8.12049 18.6658 8.20899C18.5225 8.25741 18.4013 8.29407 18.3159 8.3183L18.2206 8.34422L18.2869 8.60232L18.1907 8.35229L18.1803 8.35463C18.047 8.38965 17.935 8.47308 17.8633 8.59116C17.7896 8.71163 17.7671 8.85366 17.8004 8.99157C17.8586 9.22983 18.0699 9.39605 18.3152 9.39605C18.3569 9.39605 18.3986 9.39132 18.4377 9.3819C18.4417 9.38119 18.8468 9.28397 19.364 9.0804C19.6624 8.9626 19.9363 8.83341 20.1779 8.69644C20.4986 8.51372 20.7556 8.32327 20.9643 8.11332C21.0157 8.06147 21.0655 8.00799 21.1133 7.9538C21.1783 7.95586 21.2436 7.96121 21.3081 7.96927C21.8401 8.03527 22.3277 8.29369 22.6813 8.69612C23.0323 9.09587 23.2254 9.60732 23.2254 10.1349C23.2254 10.2254 23.2197 10.317 23.2083 10.4078C23.1369 10.9838 22.8509 11.4916 22.3987 11.8496C22.1571 11.7958 21.9108 11.7689 21.6645 11.7689C20.8923 11.7689 20.1369 12.0353 19.5373 12.5192C19.4272 12.6083 19.3582 12.7345 19.3435 12.8755C19.3283 13.0162 19.369 13.1542 19.4579 13.2642C19.5588 13.3894 19.7092 13.4611 19.8704 13.4611C19.9908 13.4611 20.1086 13.4193 20.2025 13.3436C20.6207 13.0065 21.1265 12.8281 21.6655 12.8281C21.8347 12.8281 22.0033 12.8463 22.1676 12.8823C22.2554 12.9433 22.3596 12.9762 22.4687 12.9762H22.4818C22.574 13.0105 22.6604 13.0482 22.7395 13.0899Z" fill="#0070F3"/>
</g>
<path d="M32.77 12.3C32.77 10.7893 33.1073 9.44 33.782 8.252C34.4713 7.04933 35.4027 6.118 36.576 5.458C37.764 4.78333 39.0913 4.446 40.558 4.446C42.274 4.446 43.7773 4.886 45.068 5.766C46.3587 6.646 47.2607 7.86333 47.774 9.418H44.232C43.88 8.68467 43.3813 8.13467 42.736 7.768C42.1053 7.40133 41.372 7.218 40.536 7.218C39.6413 7.218 38.842 7.43067 38.138 7.856C37.4487 8.26667 36.906 8.85333 36.51 9.616C36.1287 10.3787 35.938 11.2733 35.938 12.3C35.938 13.312 36.1287 14.2067 36.51 14.984C36.906 15.7467 37.4487 16.3407 38.138 16.766C38.842 17.1767 39.6413 17.382 40.536 17.382C41.372 17.382 42.1053 17.1987 42.736 16.832C43.3813 16.4507 43.88 15.8933 44.232 15.16H47.774C47.2607 16.7293 46.3587 17.954 45.068 18.834C43.792 19.6993 42.2887 20.132 40.558 20.132C39.0913 20.132 37.764 19.802 36.576 19.142C35.4027 18.4673 34.4713 17.536 33.782 16.348C33.1073 15.16 32.77 13.8107 32.77 12.3ZM61.5147 13.642C61.5147 14.082 61.4854 14.478 61.4267 14.83H52.5167C52.5901 15.71 52.8981 16.3993 53.4407 16.898C53.9834 17.3967 54.6507 17.646 55.4427 17.646C56.5867 17.646 57.4007 17.1547 57.8847 16.172H61.2067C60.8547 17.3453 60.1801 18.3133 59.1827 19.076C58.1854 19.824 56.9607 20.198 55.5087 20.198C54.3354 20.198 53.2794 19.9413 52.3407 19.428C51.4167 18.9 50.6907 18.1593 50.1627 17.206C49.6494 16.2527 49.3927 15.1527 49.3927 13.906C49.3927 12.6447 49.6494 11.5373 50.1627 10.584C50.6761 9.63067 51.3947 8.89733 52.3187 8.384C53.2427 7.87067 54.3061 7.614 55.5087 7.614C56.6674 7.614 57.7014 7.86333 58.6107 8.362C59.5347 8.86067 60.2461 9.572 60.7447 10.496C61.2581 11.4053 61.5147 12.454 61.5147 13.642ZM58.3247 12.762C58.3101 11.97 58.0241 11.3393 57.4667 10.87C56.9094 10.386 56.2274 10.144 55.4207 10.144C54.6581 10.144 54.0127 10.3787 53.4847 10.848C52.9714 11.3027 52.6561 11.9407 52.5387 12.762H58.3247ZM66.6228 9.704C67.0188 9.05867 67.5322 8.55267 68.1628 8.186C68.8082 7.81933 69.5415 7.636 70.3628 7.636V10.87H69.5488C68.5808 10.87 67.8475 11.0973 67.3488 11.552C66.8648 12.0067 66.6228 12.7987 66.6228 13.928V20H63.5428V7.812H66.6228V9.704ZM83.5474 13.642C83.5474 14.082 83.518 14.478 83.4594 14.83H74.5494C74.6227 15.71 74.9307 16.3993 75.4734 16.898C76.016 17.3967 76.6834 17.646 77.4754 17.646C78.6194 17.646 79.4334 17.1547 79.9174 16.172H83.2394C82.8874 17.3453 82.2127 18.3133 81.2154 19.076C80.218 19.824 78.9934 20.198 77.5414 20.198C76.368 20.198 75.312 19.9413 74.3734 19.428C73.4494 18.9 72.7234 18.1593 72.1954 17.206C71.682 16.2527 71.4254 15.1527 71.4254 13.906C71.4254 12.6447 71.682 11.5373 72.1954 10.584C72.7087 9.63067 73.4274 8.89733 74.3514 8.384C75.2754 7.87067 76.3387 7.614 77.5414 7.614C78.7 7.614 79.734 7.86333 80.6434 8.362C81.5674 8.86067 82.2787 9.572 82.7774 10.496C83.2907 11.4053 83.5474 12.454 83.5474 13.642ZM80.3574 12.762C80.3427 11.97 80.0567 11.3393 79.4994 10.87C78.942 10.386 78.26 10.144 77.4534 10.144C76.6907 10.144 76.0454 10.3787 75.5174 10.848C75.004 11.3027 74.6887 11.9407 74.5714 12.762H80.3574ZM88.6555 9.594C89.0515 9.00733 89.5942 8.53067 90.2835 8.164C90.9875 7.79733 91.7868 7.614 92.6815 7.614C93.7228 7.614 94.6615 7.87067 95.4975 8.384C96.3482 8.89733 97.0155 9.63067 97.4995 10.584C97.9982 11.5227 98.2475 12.6153 98.2475 13.862C98.2475 15.1087 97.9982 16.216 97.4995 17.184C97.0155 18.1373 96.3482 18.878 95.4975 19.406C94.6615 19.934 93.7228 20.198 92.6815 20.198C91.7722 20.198 90.9728 20.022 90.2835 19.67C89.6088 19.3033 89.0662 18.834 88.6555 18.262V20H85.5755V3.72H88.6555V9.594ZM95.1015 13.862C95.1015 13.1287 94.9475 12.498 94.6395 11.97C94.3462 11.4273 93.9502 11.0167 93.4515 10.738C92.9675 10.4593 92.4395 10.32 91.8675 10.32C91.3102 10.32 90.7822 10.4667 90.2835 10.76C89.7995 11.0387 89.4035 11.4493 89.0955 11.992C88.8022 12.5347 88.6555 13.1727 88.6555 13.906C88.6555 14.6393 88.8022 15.2773 89.0955 15.82C89.4035 16.3627 89.7995 16.7807 90.2835 17.074C90.7822 17.3527 91.3102 17.492 91.8675 17.492C92.4395 17.492 92.9675 17.3453 93.4515 17.052C93.9502 16.7587 94.3462 16.3407 94.6395 15.798C94.9475 15.2553 95.1015 14.61 95.1015 13.862ZM103.346 9.704C103.742 9.05867 104.255 8.55267 104.886 8.186C105.531 7.81933 106.264 7.636 107.086 7.636V10.87H106.272C105.304 10.87 104.57 11.0973 104.072 11.552C103.588 12.0067 103.346 12.7987 103.346 13.928V20H100.266V7.812H103.346V9.704ZM120.446 7.812V20H117.344V18.46C116.948 18.988 116.428 19.406 115.782 19.714C115.152 20.0073 114.462 20.154 113.714 20.154C112.761 20.154 111.918 19.956 111.184 19.56C110.451 19.1493 109.872 18.5553 109.446 17.778C109.036 16.986 108.83 16.0473 108.83 14.962V7.812H111.91V14.522C111.91 15.49 112.152 16.238 112.636 16.766C113.12 17.2793 113.78 17.536 114.616 17.536C115.467 17.536 116.134 17.2793 116.618 16.766C117.102 16.238 117.344 15.49 117.344 14.522V7.812H120.446ZM138.401 7.636C139.897 7.636 141.1 8.098 142.009 9.022C142.933 9.93133 143.395 11.2073 143.395 12.85V20H140.315V13.268C140.315 12.3147 140.073 11.5887 139.589 11.09C139.105 10.5767 138.445 10.32 137.609 10.32C136.773 10.32 136.106 10.5767 135.607 11.09C135.123 11.5887 134.881 12.3147 134.881 13.268V20H131.801V13.268C131.801 12.3147 131.559 11.5887 131.075 11.09C130.591 10.5767 129.931 10.32 129.095 10.32C128.244 10.32 127.57 10.5767 127.071 11.09C126.587 11.5887 126.345 12.3147 126.345 13.268V20H123.265V7.812H126.345V9.286C126.741 8.77267 127.247 8.36933 127.863 8.076C128.494 7.78267 129.183 7.636 129.931 7.636C130.884 7.636 131.735 7.84133 132.483 8.252C133.231 8.648 133.81 9.22 134.221 9.968C134.617 9.264 135.189 8.69933 135.937 8.274C136.7 7.84867 137.521 7.636 138.401 7.636Z" fill="#151B28"/>
<defs>
<clipPath id="clip0_1119_6638">
<rect width="24" height="24" fill="white"/>
</clipPath>
</defs>
</svg>
