<svg width="464" height="352" viewBox="0 0 464 352" fill="none" xmlns="http://www.w3.org/2000/svg">
<path fill-rule="evenodd" clip-rule="evenodd" d="M109.713 57.3964C100.45 59.8071 92.8538 68.4528 88.6989 75.8337L88.3666 76.424L87.6913 76.3481C79.3338 75.4084 73.4325 76.2283 69.3568 78.0764C65.3171 79.9083 63.0034 82.7792 61.8375 86.1336C60.6593 89.523 60.6383 93.4578 61.3139 97.3707C61.9882 101.276 63.3448 105.09 64.8457 108.19L63.2 109.353C62.0728 108.231 61.0289 107.658 60.1081 107.416C59.1922 107.176 58.3348 107.246 57.5449 107.509C55.9241 108.051 54.5885 109.413 53.8693 110.539L53.5379 111.058L52.9226 111.008C39.7689 109.938 33.6158 113.846 30.9995 118.744C28.4421 123.531 29.0389 129.642 30.5326 134.115H222.17C220.852 130.697 218.873 129.212 216.99 128.653C214.804 128.005 212.518 128.539 211.087 129.251L209.797 127.747C210.409 126.893 210.646 126.227 210.7 125.732C210.752 125.253 210.641 124.878 210.444 124.564C210.016 123.883 209.116 123.407 208.334 123.212L207.508 123.007L207.561 122.16C207.828 117.908 207.283 115.029 206.327 113.133C205.39 111.277 204.035 110.31 202.494 109.887C200.911 109.453 199.063 109.577 197.191 110.061C195.327 110.543 193.514 111.361 192.046 112.228L188.713 114.194L190.635 110.845C191.589 109.183 191.393 108.163 191.033 107.551C190.622 106.851 189.83 106.396 189.196 106.215L188.283 105.956L188.474 105.03C189.546 99.826 189.413 96.0762 188.583 93.4189C187.762 90.7957 186.25 89.1927 184.419 88.2521C182.556 87.2953 180.292 86.9899 177.962 87.1216C175.639 87.2529 173.321 87.8156 171.41 88.5226L170.508 88.8559L170.118 87.981C169.636 86.9012 169.049 86.238 168.456 85.8349C167.864 85.4319 167.208 85.2493 166.525 85.2218C165.121 85.1653 163.661 85.7718 162.75 86.3766L161.468 87.2276L161.177 85.7209C160.521 82.3218 159.348 79.9698 157.937 78.369C156.533 76.7747 154.848 75.8734 153.07 75.4424C149.466 74.5685 145.458 75.6292 142.852 76.9266L142.03 77.3361L141.533 76.5655C135.723 67.5503 130.021 62.1711 124.666 59.3407C119.336 56.5235 114.299 56.2028 109.713 57.3964ZM142.768 74.7157C137.004 65.9583 131.234 60.5041 125.626 57.54C119.835 54.4792 114.27 54.1034 109.195 55.424C99.3945 57.9746 91.5848 66.7979 87.2492 74.25C79.025 73.4026 72.9239 74.2189 68.5085 76.2211C63.9378 78.2937 61.2447 81.6067 59.903 85.4667C58.5735 89.2917 58.5861 93.602 59.2964 97.7162C59.781 100.523 60.5958 103.27 61.5618 105.761C61.2509 105.631 60.9402 105.526 60.6301 105.445C59.2871 105.092 58.0207 105.2 56.8942 105.577C54.9515 106.225 53.4293 107.664 52.496 108.93C39.2859 107.989 32.2957 111.977 29.1922 117.786C26.1137 123.549 27.0922 130.715 28.8446 135.485L29.0904 136.154H224.962L224.576 134.847C223.133 129.962 220.471 127.558 217.574 126.7C215.844 126.187 214.11 126.249 212.622 126.575C212.675 126.365 212.712 126.157 212.735 125.952C212.839 124.998 212.609 124.167 212.18 123.484C211.555 122.489 210.549 121.858 209.646 121.498C209.815 117.45 209.265 114.418 208.156 112.218C206.956 109.839 205.129 108.496 203.037 107.922C200.987 107.359 198.749 107.552 196.676 108.088C195.519 108.387 194.39 108.799 193.339 109.268C193.469 108.226 193.26 107.304 192.799 106.521C192.256 105.596 191.425 104.975 190.645 104.596C191.58 99.6107 191.456 95.7524 190.537 92.8129C189.556 89.6756 187.682 87.6346 185.357 86.4403C183.063 85.2622 180.4 84.9419 177.846 85.0863C175.632 85.2114 173.448 85.6885 171.56 86.3102C171.016 85.3715 170.358 84.6596 169.611 84.1517C168.656 83.5015 167.614 83.2254 166.608 83.1849C165.255 83.1304 163.945 83.4989 162.888 83.979C162.141 80.9893 160.962 78.7109 159.476 77.0245C157.768 75.0853 155.7 73.9819 153.554 73.4616C149.703 72.5278 145.623 73.4711 142.768 74.7157Z" fill="black"/>
<path fill-rule="evenodd" clip-rule="evenodd" d="M321.33 57.3964C312.067 59.8071 304.471 68.4528 300.316 75.8337L299.984 76.424L299.308 76.3481C290.951 75.4084 285.05 76.2283 280.974 78.0764C276.934 79.9083 274.621 82.7792 273.455 86.1336C272.277 89.523 272.255 93.4578 272.931 97.3707C273.605 101.276 274.962 105.09 276.463 108.19L274.817 109.353C273.69 108.231 272.646 107.658 271.725 107.416C270.809 107.176 269.952 107.246 269.162 107.509C267.541 108.051 266.206 109.413 265.487 110.539L265.155 111.058L264.54 111.008C251.386 109.938 245.233 113.846 242.617 118.744C240.059 123.531 240.656 129.642 242.15 134.115H433.787C432.469 130.697 430.49 129.212 428.607 128.653C426.422 128.005 424.135 128.539 422.705 129.251L421.414 127.747C422.026 126.893 422.263 126.227 422.317 125.732C422.369 125.253 422.258 124.878 422.061 124.564C421.633 123.883 420.733 123.407 419.952 123.212L419.125 123.007L419.178 122.16C419.445 117.908 418.9 115.029 417.944 113.133C417.008 111.277 415.653 110.31 414.111 109.887C412.528 109.453 410.68 109.577 408.808 110.061C406.944 110.543 405.131 111.361 403.663 112.228L400.331 114.194L402.252 110.845C403.206 109.183 403.01 108.163 402.65 107.551C402.239 106.851 401.448 106.396 400.813 106.215L399.901 105.956L400.091 105.03C401.163 99.826 401.031 96.0762 400.2 93.4189C399.38 90.7957 397.867 89.1927 396.036 88.2521C394.173 87.2953 391.909 86.9899 389.58 87.1216C387.257 87.2529 384.938 87.8156 383.027 88.5226L382.126 88.8559L381.735 87.981C381.253 86.9012 380.666 86.238 380.074 85.8349C379.481 85.4319 378.825 85.2493 378.143 85.2218C376.738 85.1653 375.278 85.7718 374.368 86.3766L373.086 87.2276L372.795 85.7209C372.138 82.3218 370.965 79.9698 369.555 78.369C368.15 76.7747 366.465 75.8734 364.687 75.4424C361.083 74.5685 357.075 75.6292 354.469 76.9266L353.647 77.3361L353.15 76.5655C347.34 67.5503 341.638 62.1711 336.283 59.3407C330.953 56.5235 325.916 56.2028 321.33 57.3964ZM354.385 74.7157C348.621 65.9583 342.851 60.5041 337.243 57.54C331.452 54.4792 325.887 54.1034 320.812 55.424C311.012 57.9746 303.202 66.7979 298.866 74.25C290.642 73.4026 284.541 74.2189 280.126 76.2211C275.555 78.2937 272.862 81.6067 271.52 85.4667C270.191 89.2917 270.203 93.602 270.914 97.7162C271.398 100.523 272.213 103.27 273.179 105.761C272.868 105.631 272.557 105.526 272.247 105.445C270.904 105.092 269.638 105.2 268.511 105.577C266.569 106.225 265.046 107.664 264.113 108.93C250.903 107.989 243.913 111.977 240.809 117.786C237.731 123.549 238.709 130.715 240.462 135.485L240.708 136.154H436.579L436.193 134.847C434.751 129.962 432.088 127.558 429.192 126.7C427.462 126.187 425.727 126.249 424.239 126.575C424.292 126.365 424.329 126.157 424.352 125.952C424.456 124.998 424.226 124.167 423.797 123.484C423.173 122.489 422.166 121.858 421.263 121.498C421.432 117.45 420.883 114.418 419.773 112.218C418.573 109.839 416.746 108.496 414.655 107.922C412.604 107.359 410.366 107.552 408.294 108.088C407.136 108.387 406.007 108.799 404.957 109.268C405.086 108.226 404.877 107.304 404.417 106.521C403.873 105.596 403.042 104.975 402.263 104.596C403.197 99.6107 403.073 95.7524 402.154 92.8129C401.173 89.6756 399.299 87.6346 396.974 86.4403C394.681 85.2622 392.017 84.9419 389.464 85.0863C387.25 85.2114 385.065 85.6885 383.177 86.3102C382.634 85.3715 381.975 84.6596 381.228 84.1517C380.273 83.5015 379.231 83.2254 378.225 83.1849C376.872 83.1304 375.562 83.4989 374.505 83.979C373.758 80.9893 372.579 78.7109 371.093 77.0245C369.385 75.0853 367.317 73.9819 365.171 73.4616C361.32 72.5278 357.24 73.4711 354.385 74.7157ZM277.866 161.096L288.102 144.787L289.837 145.868L279.602 162.177L277.866 161.096ZM288.101 180.804L310.618 144.789L312.356 145.866L289.838 181.882L288.101 180.804ZM344.733 162.461L355.651 144.793L357.394 145.862L346.476 163.53L344.733 162.461ZM314.712 174.69L326.994 154.983L328.733 156.058L316.451 175.765L314.712 174.69ZM356.359 179.41L366.594 164.46L368.286 165.608L358.05 180.558L356.359 179.41Z" fill="black"/>
<path d="M29.8056 296.223H223.594C220.864 286.981 213.814 287.842 210.629 289.427C213.359 285.622 210.402 283.765 208.582 283.312C209.674 265.915 197.665 268.815 191.524 272.439C193.707 268.634 191.069 266.776 189.477 266.323C193.844 245.122 179.014 245.711 171.053 248.655C168.869 243.763 164.229 245.258 162.182 246.617C159.453 232.482 147.853 234.385 142.394 237.103C118.921 200.68 96.2216 221.474 87.8059 236.423C53.9612 232.618 57.7824 257.036 63.9236 269.721C59.0106 264.828 54.5979 268.588 53.0057 271.08C26.2574 268.905 26.3939 286.936 29.8056 296.223Z" fill="black"/>
<path fill-rule="evenodd" clip-rule="evenodd" d="M109.713 218.484C100.45 220.895 92.8538 229.541 88.6989 236.922L88.3666 237.512L87.6913 237.436C79.3338 236.496 73.4325 237.316 69.3568 239.164C65.3171 240.996 63.0034 243.867 61.8375 247.221C60.6593 250.611 60.6383 254.546 61.3139 258.459C61.9882 262.364 63.3448 266.178 64.8457 269.278L63.2 270.441C62.0728 269.319 61.0289 268.746 60.1081 268.504C59.1922 268.264 58.3348 268.334 57.5449 268.597C55.9241 269.139 54.5885 270.501 53.8693 271.627L53.5379 272.145L52.9226 272.095C39.7689 271.026 33.6158 274.934 30.9995 279.832C28.4421 284.619 29.0389 290.73 30.5326 295.203H222.17C220.852 291.785 218.873 290.299 216.99 289.741C214.804 289.093 212.518 289.626 211.087 290.339L209.797 288.835C210.409 287.981 210.646 287.315 210.7 286.82C210.752 286.341 210.641 285.966 210.444 285.652C210.016 284.971 209.116 284.495 208.334 284.3L207.508 284.094L207.561 283.248C207.828 278.996 207.283 276.117 206.327 274.221C205.39 272.365 204.036 271.398 202.494 270.975C200.911 270.541 199.063 270.665 197.191 271.149C195.327 271.63 193.514 272.449 192.046 273.316L188.713 275.282L190.635 271.933C191.589 270.271 191.393 269.251 191.033 268.639C190.622 267.939 189.83 267.484 189.196 267.303L188.283 267.043L188.474 266.118C189.546 260.914 189.413 257.164 188.583 254.507C187.762 251.884 186.25 250.281 184.419 249.34C182.556 248.383 180.292 248.078 177.962 248.209C175.639 248.341 173.321 248.903 171.41 249.61L170.508 249.944L170.118 249.069C169.636 247.989 169.049 247.326 168.456 246.923C167.864 246.52 167.208 246.337 166.525 246.31C165.121 246.253 163.661 246.86 162.75 247.464L161.468 248.316L161.177 246.809C160.521 243.41 159.348 241.058 157.937 239.457C156.533 237.863 154.848 236.961 153.07 236.53C149.466 235.656 145.458 236.717 142.852 238.014L142.03 238.424L141.533 237.653C135.723 228.638 130.021 223.259 124.666 220.429C119.336 217.611 114.299 217.291 109.713 218.484ZM142.768 235.804C137.004 227.046 131.234 221.592 125.626 218.628C119.835 215.567 114.27 215.191 109.195 216.512C99.3945 219.062 91.5848 227.886 87.2492 235.338C79.025 234.491 72.9239 235.307 68.5085 237.309C63.9378 239.382 61.2447 242.695 59.903 246.555C58.5735 250.38 58.5861 254.69 59.2964 258.804C59.781 261.61 60.5958 264.358 61.5618 266.849C61.2509 266.719 60.9402 266.614 60.6301 266.533C59.2871 266.18 58.0207 266.288 56.8942 266.665C54.9515 267.313 53.4293 268.752 52.496 270.018C39.2859 269.077 32.2957 273.065 29.1922 278.874C26.1137 284.637 27.0922 291.802 28.8446 296.573L29.0904 297.242H224.962L224.576 295.935C223.133 291.05 220.471 288.646 217.574 287.787C215.844 287.275 214.11 287.337 212.622 287.663C212.675 287.453 212.712 287.245 212.735 287.04C212.839 286.086 212.609 285.255 212.18 284.572C211.555 283.577 210.549 282.946 209.646 282.586C209.815 278.538 209.265 275.506 208.156 273.306C206.956 270.927 205.129 269.583 203.037 269.01C200.987 268.447 198.749 268.64 196.677 269.176C195.519 269.475 194.39 269.887 193.339 270.356C193.469 269.314 193.26 268.392 192.8 267.609C192.256 266.684 191.425 266.063 190.645 265.684C191.58 260.699 191.456 256.84 190.537 253.901C189.556 250.764 187.682 248.722 185.357 247.528C183.063 246.35 180.4 246.03 177.846 246.174C175.632 246.299 173.448 246.776 171.56 247.398C171.016 246.459 170.358 245.747 169.611 245.24C168.656 244.589 167.614 244.313 166.608 244.273C165.255 244.218 163.945 244.587 162.888 245.067C162.141 242.077 160.962 239.799 159.476 238.112C157.768 236.173 155.7 235.07 153.554 234.55C149.703 233.616 145.623 234.559 142.768 235.804Z" fill="black"/>
<path d="M441.15 218.016H293.121V329.453H441.15V218.016Z" fill="white"/>
<path fill-rule="evenodd" clip-rule="evenodd" d="M437.638 221.325H296.391V326.112H437.638V221.325ZM441.029 218V329.438H293V218H441.029Z" fill="#0070F3"/>
<path d="M357.954 285.857C357.988 274.129 360.97 270.494 366.476 266.96C370.81 264.195 374.104 261.497 374.104 257.272C374.104 253.047 370.843 250.416 366.755 250.416C362.667 250.416 358.959 253.326 358.848 258.131H342.898C343.111 243.593 353.855 237.127 366.889 237.127C381.174 237.127 391.539 243.905 391.539 256.47C391.539 264.742 387.138 269.758 380.482 273.66C375.244 276.771 372.719 279.714 372.719 285.835V287.25H357.954V285.835V285.857ZM356.603 300.974C356.536 296.058 360.623 292.078 365.616 292.078C370.608 292.078 374.562 296.058 374.629 300.974C374.562 305.958 370.363 309.971 365.616 309.971C360.623 309.971 356.536 305.958 356.603 300.974Z" fill="#0070F3"/>
</svg>
