<svg width="60" height="42" viewBox="0 0 60 42" fill="none" xmlns="http://www.w3.org/2000/svg">
<path d="M26.4711 27.3719C25.8265 27.7147 25.3097 28.0422 24.7521 28.2673C24.1688 28.5026 23.5497 28.6817 22.9307 28.7994C22.2297 28.9324 21.5083 29.0552 20.7972 29.0398C19.426 29.0143 18.0548 28.9068 16.6837 28.8096C16.3716 28.7891 16.0544 28.7022 15.7576 28.5947C15.3739 28.4566 15.1232 28.4361 15.466 27.8068C16.5251 25.8626 17.9474 24.2203 19.426 22.624C19.953 22.0561 20.7358 21.7184 21.4009 21.2836C21.6414 21.125 21.8921 20.9817 22.2348 20.7719C21.6925 20.5315 21.2116 20.3882 20.8074 20.1273C19.5744 19.324 18.3925 18.4389 17.4511 17.2878C16.8474 16.5459 16.2335 15.8091 15.6297 15.0673C15.3637 14.7398 15.0823 14.4226 14.8725 14.0594C14.7702 13.8854 14.7293 13.5836 14.8111 13.4147C14.8725 13.2817 15.1693 13.2459 15.3688 13.205C15.6502 13.1436 15.9572 13.1589 16.2283 13.0719C18.1981 12.4478 20.2241 12.3454 22.2502 12.5296C23.4883 12.6422 24.7469 12.9031 25.7344 13.8087C25.9493 14.0031 26.2307 14.1259 26.5479 14.3254C26.5069 13.9571 26.4609 13.6398 26.4353 13.3175C26.3074 11.6752 26.7065 10.1147 27.4125 8.67194C28.139 7.17799 29.0446 5.7659 29.8683 4.31799C30.0883 3.92915 30.3697 3.8831 30.5846 4.25659C31.439 5.70961 32.273 7.17799 33.0916 8.65148C34.0739 10.4166 34.0944 12.3352 33.9716 14.2743C33.9716 14.3305 34.0023 14.3919 34.0432 14.5505C34.3093 14.3305 34.5241 14.1259 34.7646 13.9622C36.1153 13.0412 37.6144 12.545 39.2516 12.4478C39.8144 12.4171 40.3721 12.2278 40.9246 12.2431C42.1269 12.2789 43.3293 12.3915 44.5316 12.4938C45.033 12.5347 45.1967 12.8775 44.9562 13.3482C44.0762 15.0878 42.9967 16.6943 41.7381 18.1831C40.8172 19.278 39.666 20.0352 38.3818 20.6287C38.2539 20.685 38.1516 20.8282 38.0902 20.9561C38.0697 20.9919 38.2283 21.1812 38.3204 21.1966C39.6609 21.4064 40.3874 22.4705 41.2367 23.325C42.8125 24.911 43.9995 26.7785 44.9255 28.8096C45.166 29.3417 44.9818 29.6947 44.4037 29.6896C42.3009 29.6743 40.193 29.8636 38.1107 29.3571C36.8214 29.0398 35.6548 28.5026 34.5446 27.8119C34.4372 27.7454 34.299 27.7301 34.1762 27.6943C34.1404 27.8426 34.0483 28.0115 34.0842 28.1394C34.4065 29.2292 33.9869 30.2166 33.7465 31.2501C33.3525 32.9487 32.4162 34.3761 31.6181 35.8701C31.3674 36.3357 31.0655 36.7757 30.7381 37.1901C30.2828 37.758 29.7711 37.7682 29.4283 37.1338C28.6609 35.7115 27.9651 34.2533 27.2642 32.7952C26.4507 31.1017 26.2051 29.311 26.466 27.3617L26.4711 27.3719ZM30.1907 4.91659C30.0628 5.17241 29.9962 5.35659 29.8939 5.5152C28.8758 7.12171 27.9497 8.77427 27.4841 10.6417C26.9214 12.9133 27.0237 15.0008 29.0497 16.6022C29.679 17.0985 30.339 17.298 30.8507 17.0064C32.4367 16.111 33.3628 14.7552 33.3321 12.9236C33.3167 11.9105 33.0916 10.8771 32.8 9.89984C32.2883 8.17566 31.3879 6.62542 30.1907 4.91147V4.91659ZM44.1683 13.3636C43.5186 13.2766 42.9916 13.164 42.4595 13.1384C40.4335 13.0412 38.4637 13.2357 36.5297 13.9571C34.8414 14.5812 33.8488 15.7017 33.4702 17.4208C33.3014 18.1831 33.2604 18.9966 34.0074 19.411C34.693 19.7896 35.5014 20.0557 36.279 20.1375C37.9776 20.3166 39.3079 19.4519 40.5153 18.3571C42.04 16.9705 43.0939 15.2464 44.1683 13.3585V13.3636ZM30.0167 36.4073C30.1804 36.2692 30.3288 36.1975 30.3953 36.0798C30.9223 35.1947 31.4339 34.3045 31.9455 33.4143C32.1502 33.051 32.406 32.7031 32.5288 32.3143C32.7795 31.5315 32.9074 30.7078 33.1735 29.9301C33.5214 28.9171 33.3372 27.9194 33.0097 27.0087C32.6209 25.924 31.6539 25.2282 30.7432 24.5631C30.5641 24.4301 30.1651 24.425 29.9604 24.5324C28.3693 25.3817 27.4125 26.6761 27.2897 28.5282C27.1721 30.3752 27.8474 32.0226 28.5637 33.6496C28.973 34.5705 29.5 35.4403 30.0167 36.4073ZM16.3921 27.8887C17.5637 27.9961 18.5511 28.1547 19.5335 28.165C20.4288 28.1752 21.3241 28.0575 22.2144 27.9398C22.9102 27.8478 23.6162 27.7403 24.2865 27.5254C25.5144 27.1366 26.3535 26.2566 26.9521 25.1464C27.8372 23.4887 27.2386 21.9487 25.5655 21.565C23.7186 21.1403 22.0609 21.6366 20.6232 22.7724C19.8404 23.3915 19.1855 24.1896 18.546 24.9673C17.8144 25.8626 17.1646 26.8245 16.3869 27.8887H16.3921ZM43.8869 28.8505C43.5851 28.2366 43.3651 27.771 43.1297 27.3157C42.3469 25.8064 41.1753 24.6091 40.06 23.3454C38.8372 21.9538 35.8544 21.1608 34.0893 22.3273C33.6493 22.6189 33.46 22.8952 33.4344 23.3505C33.3269 25.4073 34.7442 27.1622 36.3865 27.9143C37.6604 28.4975 39.0316 28.7943 40.4386 28.8454C41.5539 28.8864 42.6744 28.8557 43.8869 28.8557V28.8505ZM16.1976 14.1054C16.6172 14.7296 16.9651 15.364 17.4307 15.8961C18.0241 16.5766 18.7097 17.1854 19.3748 17.7994C19.6255 18.0347 20.0041 18.1524 20.1986 18.4185C20.8841 19.365 21.9535 19.6054 22.9511 19.7692C24.2302 19.9789 25.5297 19.8561 26.6297 18.9352C27.1721 18.4798 27.3716 18.0808 27.0953 17.431C27.0288 17.2826 27.0032 17.1138 26.9725 16.9501C26.7781 15.9319 26.2102 15.098 25.3507 14.6171C24.2762 14.0133 23.0995 13.5426 21.846 13.4301C19.9632 13.2612 18.1162 13.5171 16.1976 14.1105V14.1054ZM30.4004 23.5961C32.2372 23.7496 33.3321 22.0561 33.2604 20.8078C33.1786 19.3905 32.2986 17.9989 30.4925 17.9682C28.7735 17.9375 27.5762 19.278 27.5762 20.8487C27.5762 22.3375 28.8604 23.5961 30.4004 23.6012V23.5961ZM32.5083 17.8198C32.6311 17.3287 32.7232 16.9705 32.8153 16.6124C32.7641 16.6022 32.713 16.5971 32.6669 16.5868C32.406 16.8171 32.1451 17.0473 31.8535 17.3031C32.0581 17.4617 32.2167 17.5845 32.5135 17.8198H32.5083ZM26.6707 21.1864V19.984C26.3125 20.1785 26.0414 20.3268 25.6679 20.5315C26.0362 20.7719 26.2869 20.9357 26.6707 21.1864ZM35.0204 20.9203C34.9897 20.8129 34.959 20.7054 34.9283 20.598C34.6316 20.6645 34.3348 20.7259 34.0432 20.818C34.0228 20.8231 34.079 21.0738 34.0995 21.2068L35.0204 20.9203ZM27.8525 17.0473C28.139 17.2519 27.8986 17.9068 28.5228 17.6817C28.6251 17.6459 28.7581 17.3594 28.7223 17.3082C28.5381 17.0575 28.3488 16.7045 27.8525 17.0524V17.0473ZM28.1953 24.5324C28.2567 24.5682 28.3181 24.604 28.3795 24.6347C28.5023 24.4659 28.62 24.2919 28.7428 24.1231C28.5893 24.0208 28.4409 23.9185 28.1953 23.7496V24.5324ZM32.3753 24.7012C32.4367 24.691 32.4981 24.6808 32.5595 24.6705C32.5288 24.4198 32.5032 24.1692 32.4674 23.9185C32.4674 23.9031 32.3907 23.898 32.3088 23.8775C32.2065 24.0003 32.0939 24.1384 31.9762 24.2817C32.1246 24.4403 32.2474 24.5733 32.3702 24.7064L32.3753 24.7012Z" fill="black"/>
<path d="M32.1628 17.814L38.814 6.30237M33.9535 20.6279L47 21.1396M32.1628 23.4419L38.3023 35.2093M28.8372 23.4419L21.4186 34.4419M26.7907 20.6279H14M28.3256 17.814L22.186 6.30237" stroke="black" stroke-width="0.767442"/>
</svg>
