<svg width="60" height="42" viewBox="0 0 60 42" fill="none" xmlns="http://www.w3.org/2000/svg">
<path d="M44.9853 36H44.166C34.7252 36 25.2844 36 15.8436 36C15.0146 36 15.0146 36 15.0146 35.1408C15.0146 25.3589 15.0195 15.572 15 5.79006C15 5.14319 15.2146 5 15.8046 5C25.2844 5.01481 34.7691 5.01481 44.2489 5C44.8244 5 45.0048 5.14319 44.9999 5.75055C44.9804 15.5769 44.9853 25.3984 44.9853 35.2248V36ZM30.312 20.6037V35.1211H44.1075V20.6037H30.312ZM30.2682 12.8216C30.2682 14.935 30.2877 17.0534 30.2584 19.1668C30.2487 19.7593 30.4242 19.9568 31.0191 19.9519C35.1592 19.9321 39.2993 19.9321 43.4346 19.9519C43.9807 19.9519 44.1807 19.8136 44.1758 19.226C44.1514 14.9548 44.1563 10.6835 44.1758 6.40729C44.1758 5.85425 44.0344 5.67155 43.4638 5.67649C39.3042 5.70611 35.1446 5.70612 30.985 5.68636C30.4193 5.68636 30.2535 5.84437 30.2584 6.40729C30.2828 8.54539 30.2682 10.6786 30.2682 12.8167V12.8216ZM29.4148 20.6136H15.868V35.126H29.4148V20.6136ZM29.444 12.8315C29.444 10.6934 29.4294 8.55527 29.4538 6.4221C29.4587 5.88881 29.3514 5.67648 28.7516 5.68142C24.7139 5.71105 20.6713 5.69624 16.6336 5.69624C15.8485 5.69624 15.8144 5.73081 15.8144 6.53568C15.8144 10.7279 15.8144 14.9202 15.8144 19.1125C15.8144 19.8729 15.8924 19.947 16.6629 19.9519C20.6811 19.9519 24.6993 19.9371 28.7223 19.9667C29.3368 19.9667 29.4684 19.7544 29.4587 19.1865C29.4294 17.0682 29.4489 14.9548 29.4489 12.8364L29.444 12.8315Z" fill="black"/>
</svg>
