<svg width="60" height="42" viewBox="0 0 60 42" fill="none" xmlns="http://www.w3.org/2000/svg">
<path d="M15.0143 20.1447C15.0143 17.3913 15.0143 14.6332 15.0143 11.8799C15.0143 10.5884 15.0994 10.508 16.2869 10.0869C17.3844 9.69899 18.4678 9.26848 19.5511 8.85217C21.2873 8.18039 23.0283 7.50862 24.7598 6.82738C26.2169 6.25495 27.6692 5.66359 29.1311 5.10063C29.3392 5.0202 29.6136 4.9587 29.8076 5.0344C31.2741 5.58317 32.7312 6.16979 34.193 6.73749C35.688 7.31465 37.1924 7.86816 38.6873 8.45005C39.9126 8.92786 41.1332 9.4246 42.349 9.92134C42.8694 10.1342 43.385 10.3566 43.9007 10.5837C44.265 10.7398 44.3974 11.0094 44.3974 11.421C44.388 17.2494 44.388 23.073 44.3974 28.9014C44.3974 29.2988 44.2792 29.5401 43.9149 29.7388C41.9327 30.7985 39.9694 31.8866 37.9919 32.9557C36.7335 33.637 35.4656 34.2898 34.2025 34.9616C32.8116 35.7091 31.4255 36.4707 30.0299 37.2135C29.5001 37.4926 29.0317 37.1709 28.6012 36.9438C26.4818 35.8179 24.386 34.6494 22.2714 33.514C20.0573 32.3265 17.8338 31.1627 15.6151 29.9848C15.2082 29.7672 14.9953 29.4786 15.0001 28.9582C15.0285 26.0251 15.0143 23.092 15.0143 20.1588V20.1447ZM20.6581 22.6C20.625 23.4042 20.89 24.0854 21.4766 24.6342C21.926 25.06 22.5363 24.9843 22.8532 24.4686C23.3547 23.6597 23.1844 22.0323 22.4795 21.4172C21.7604 20.7928 21.1454 20.9347 20.7291 21.8383C20.6298 22.0559 20.6771 22.3398 20.6581 22.5952V22.6ZM20.6629 28.4946C20.6392 29.2988 20.8568 30.0084 21.505 30.5288C22.0159 30.9451 22.4511 30.8694 22.8438 30.3349C23.3878 29.5968 23.1655 27.8512 22.3944 27.274C22.1342 27.08 21.6658 26.9097 21.4245 27.0233C21.1123 27.1652 20.9041 27.5815 20.7055 27.9174C20.6156 28.0688 20.6676 28.3006 20.6581 28.4993L20.6629 28.4946ZM16.5613 15.0685C16.8546 15.6504 17.0911 16.36 17.5263 16.9182C17.9852 17.5001 18.728 17.3156 19.0165 16.6533C19.4754 15.5983 19.1632 14.4629 18.5104 13.7155C18.0089 13.1478 17.4175 13.1998 17.0249 13.8479C16.8309 14.1696 16.7505 14.5575 16.5613 15.0685ZM16.6275 26.465C16.8593 27.3071 16.9539 28.1066 17.6966 28.6554C18.2076 29.0339 18.7753 28.7548 18.9976 28.258C19.466 27.1983 19.2578 26.2001 18.5198 25.3154C18.0278 24.7288 17.4223 24.7761 17.0249 25.429C16.8309 25.7507 16.7458 26.1386 16.6275 26.465ZM26.179 32.7618C26.3399 32.6151 26.671 32.4211 26.8224 32.1373C27.2766 31.2858 27.0164 29.9233 26.3304 29.2136C25.7674 28.6318 25.0389 28.8305 24.6983 29.5779C24.3908 30.2497 24.5043 30.8884 24.7503 31.4844C24.9774 32.0332 25.2187 32.6672 26.1743 32.7618H26.179Z" fill="black"/>
</svg>
