<svg width="30" height="26" viewBox="0 0 30 26" fill="none" xmlns="http://www.w3.org/2000/svg">
<path d="M15 26C14.8482 26 14.6965 25.9607 14.5606 25.882C14.4129 25.7967 10.9049 23.7556 7.34649 20.6802C5.23748 18.8575 3.55397 17.0496 2.34284 15.307C0.775578 13.0519 -0.0125634 10.8829 0.000151411 8.85994C0.0150342 6.50603 0.856379 4.29234 2.36938 2.62658C3.90793 0.932755 5.96117 0 8.15098 0C10.9574 0 13.5233 1.57534 15 4.07086C16.4768 1.5754 19.0426 0 21.8491 0C23.9179 0 25.8918 0.841628 27.4072 2.36988C29.0703 4.04697 30.0153 6.41661 29.9998 8.87109C29.987 10.8905 29.1841 13.0563 27.6134 15.3082C26.3985 17.05 24.7174 18.857 22.6166 20.6792C19.0712 23.7543 15.5884 25.7953 15.4418 25.8807C15.3053 25.9602 15.1526 26 15 26Z" fill="black"/>
</svg>
