<svg width="41" height="26" viewBox="0 0 41 26" fill="none" xmlns="http://www.w3.org/2000/svg">
<path fill-rule="evenodd" clip-rule="evenodd" d="M27.1286 25.8044C25.3208 25.8044 23.513 25.8948 21.7051 25.8044C15.92 25.5333 10.0445 25.714 4.25944 25.6237C3.71708 25.6237 3.35552 25.5333 3.26512 24.9005C2.99395 23.3638 2.63238 21.8272 2.45159 20.2905C2.27081 19.3866 2.09003 18.4827 1.90924 17.5788C1.90924 17.3076 1.63806 17.2172 1.45728 17.1268C0.553359 17.0364 0.643751 17.0364 0.553359 16.1325C0.372575 14.9574 0.282183 13.6919 0.0110064 12.5168C-0.0793857 11.7937 0.0110064 11.3417 0.553359 10.7993C2.45159 8.9915 4.25944 7.09326 6.06728 5.19503C7.60395 3.56797 9.231 2.0313 10.7677 0.404246C11.0388 0.13307 11.4004 -0.0477145 11.8524 -0.0477145C14.8353 -0.0477145 17.9086 -0.138107 20.982 0.0426777C24.2361 0.313854 27.4902 0.223462 30.7443 0.313854C33.8177 0.404246 36.891 0.58503 39.8739 0.494638C40.3259 0.494638 40.5971 0.675423 40.5971 1.21778C40.5067 2.30248 40.7779 3.29679 40.9586 4.3815C41.049 5.28542 40.8682 6.00856 40.2355 6.6413C39.8739 7.09326 39.7835 7.45483 39.9643 7.99719C40.1451 8.53954 40.2355 9.17229 40.2355 9.71464C40.3259 10.6186 40.5067 11.4321 40.6875 12.336C40.8683 13.0591 40.5067 13.6015 40.1451 14.2342C39.1508 15.9517 38.0661 17.7595 36.9814 19.5674C35.8063 21.556 34.5408 23.5446 33.3657 25.6237C33.1849 25.8948 32.9137 25.8948 32.6426 25.8948C30.8347 25.8948 29.0269 25.8948 27.1286 25.8948V25.8044ZM35.0832 14.5958H35.1735L38.1565 9.71464C38.4277 9.26268 38.7892 8.81072 39.0604 8.44915C39.6932 9.44346 38.8796 9.98581 38.5181 10.7993C38.4277 10.8897 38.3373 11.0705 38.2469 11.2513L35.3543 15.6805V15.7709C35.3543 15.7709 35.2639 15.8613 35.2639 15.9517C34.9024 16.494 34.5408 17.0364 34.2696 17.4884L34.1792 17.5788C33.7273 18.2115 33.3657 18.9346 33.0041 19.5674C32.9137 19.7482 32.733 20.1097 32.4618 19.9289C32.1906 19.7482 32.1906 19.3866 32.3714 19.1154C32.6426 18.5731 33.0041 18.0307 33.3657 17.4884L33.4561 17.398V17.3076C33.9081 16.494 34.4504 15.6805 34.9928 14.867C34.9928 14.7766 35.0832 14.6862 35.0832 14.5958ZM35.8063 17.4884V17.5788C35.8063 17.5788 35.8063 17.6691 35.7159 17.7595C34.9024 19.025 34.0888 20.2905 33.3657 21.556C33.1849 21.7368 33.1849 22.008 32.9137 21.9176C32.733 21.9176 32.733 21.6464 32.733 21.4656C32.733 20.9233 33.1849 20.5617 33.4561 20.1097C33.7273 19.5674 34.0888 19.025 34.36 18.5731L38.6084 11.7033C38.7892 11.4321 38.97 11.2513 39.1508 10.9801C39.2412 10.8897 39.2412 10.6186 39.422 10.709C39.6932 10.7993 39.6931 10.9801 39.6931 11.1609C39.5124 11.6129 39.2412 12.0648 39.0604 12.4264C38.97 12.5168 38.97 12.5168 38.97 12.6072L38.3373 13.5111L35.8063 17.4884ZM38.97 13.7823C39.1508 13.5111 39.2412 13.2399 39.422 12.9688C39.6028 12.788 39.6932 12.6072 39.9643 12.6976C40.1451 12.788 39.9643 13.0591 39.8739 13.2399C39.5124 13.7823 39.2412 14.3246 38.8796 14.867L35.9871 19.6578C35.9871 19.6578 35.9871 19.7482 35.8967 19.8386L35.3543 20.8329C35.1735 21.104 35.0832 21.2848 34.9024 21.556C34.4504 22.2791 33.9984 23.0023 33.6369 23.7254C33.5465 23.9062 33.3657 23.9966 33.1849 24.087C33.0041 23.5446 33.0945 23.0927 33.3657 22.6407C33.8177 22.008 34.1792 21.2848 34.6312 20.6521L38.97 13.7823ZM8.50787 9.35307H8.59826L9.231 8.62993L9.41179 8.44915L10.2253 7.54523L10.7677 7.00287L12.3043 5.28542L13.0275 4.47189L14.1122 3.29679C14.7449 2.57366 15.4681 1.85052 16.1008 1.12738C16.6432 0.58503 17.3663 0.946599 17.999 0.946599C17.2759 2.0313 16.2816 2.93523 15.4681 3.83915C15.3777 4.01993 15.1969 4.11032 15.1065 4.20072C15.0161 4.47189 14.7449 4.65268 14.5641 4.74307L13.841 5.46621C13.841 5.5566 13.6602 5.5566 13.5698 5.5566C12.9371 5.5566 12.4851 5.91817 12.1236 6.55091C12.0332 6.6413 11.9428 6.82209 11.8524 6.91248C11.762 7.00287 11.6716 7.18366 11.6716 7.63562C11.6716 7.72601 11.6716 7.72601 11.6716 7.8164C11.6716 7.99719 11.5812 8.08758 11.4004 8.17797C10.8581 8.72032 10.3157 9.35307 9.77336 9.98581C9.50218 10.3474 9.14061 10.6186 8.86944 10.9801C8.59826 11.3417 8.23669 11.4321 7.78473 11.3417C7.51355 11.3417 7.15198 11.5225 6.9712 11.2513C6.79042 10.8897 7.24238 10.7993 7.42316 10.5282C7.78473 10.0762 8.1463 9.71464 8.50787 9.35307ZM13.2987 3.29679H13.2083L7.96551 8.9915H7.87512C7.33277 9.71464 6.70002 10.4378 6.06728 11.0705C5.7961 11.3417 5.43453 11.3417 5.07297 11.3417C4.89218 11.3417 4.7114 11.3417 4.62101 11.3417C4.25944 11.2513 4.16904 11.0705 4.44022 10.7993C4.89218 10.3474 5.34414 9.80503 5.7961 9.35307H5.88649V9.26268L6.06728 8.9915L11.4908 3.11601C12.1236 2.57366 12.6659 1.94091 13.2083 1.30817C13.6602 0.856207 14.5641 0.675423 15.1065 0.856207C15.3777 0.946599 15.1969 1.03699 15.1065 1.21778C14.5641 1.94091 13.9314 2.48327 13.389 3.11601L13.2987 3.29679ZM10.6773 3.11601H10.5869L10.3157 3.56797C10.1349 3.65836 9.95414 3.83915 9.86375 3.92954L9.14061 4.74307L8.68865 5.28542L7.15198 7.00287H7.06159L5.61532 8.62993H5.52493V8.72032C4.7114 9.53385 3.98826 10.3474 3.17473 11.0705C2.72277 11.5225 1.99963 11.2513 1.45728 11.0705C1.36689 11.0705 1.36689 10.9801 1.36689 10.8897C2.09003 10.257 2.72277 9.53385 3.44591 8.90111L9.50218 2.75444C9.95414 2.21209 10.4965 1.76013 10.9485 1.21778C11.31 0.856207 11.6716 0.765815 12.0332 0.765815C12.2139 0.765815 12.3947 0.765815 12.4851 0.946599C12.5755 1.12738 12.3947 1.21778 12.3043 1.30817C11.8524 1.85052 11.4908 2.30248 11.0388 2.75444C10.9485 2.93523 10.7677 3.02562 10.6773 3.11601ZM22.5186 9.35307L28.0326 3.29679C28.5749 2.84483 29.0269 2.39287 29.3884 1.85052C29.9308 1.21778 30.4732 1.03699 31.1963 1.12738C31.7386 1.12738 31.7386 1.30817 31.4675 1.66974C30.9251 2.21209 30.3828 2.75444 29.9308 3.29679H29.8404V3.38719L29.75 3.47758L29.6596 3.56797L29.5692 3.65836L29.2077 4.11032L28.5749 4.74307L27.8518 5.5566L26.5863 6.91248H26.4959L25.3208 8.26836C25.2304 8.35876 25.14 8.44915 25.0496 8.62993L24.4169 9.35307C23.8745 9.80503 23.4226 10.3474 22.9706 10.7993C22.8802 10.8897 22.6994 10.9801 22.6994 11.1609C22.3379 11.5225 21.9763 11.884 21.3435 11.7033C21.1628 11.6129 20.7108 11.884 20.6204 11.5225C20.53 11.3417 20.8916 11.0705 21.0724 10.7993C21.6147 10.3474 22.0667 9.80503 22.5186 9.35307ZM25.14 5.5566L23.9649 6.82209L23.7841 6.91248L22.7898 7.99719C21.7051 9.17228 20.7108 10.3474 19.6261 11.4321C19.5357 11.6129 19.3549 11.7033 19.0837 11.7033C18.903 11.6129 18.7222 11.7937 18.6318 11.5225C18.5414 11.3417 18.6318 11.2513 18.7222 11.0705C19.5357 10.0762 20.2588 9.08189 21.0724 8.08758C21.2532 7.8164 21.4339 7.63562 21.6147 7.45483C21.7051 7.45483 21.7955 7.36444 21.7955 7.36444C22.0667 7.18366 22.2475 7.00287 22.2475 6.82209V6.7317C22.2475 6.55091 22.5186 6.55091 22.6994 6.46052C23.1514 6.27974 23.513 6.09895 23.9649 5.82777C24.3265 5.64699 24.6881 5.5566 25.14 5.5566ZM25.2304 9.35307L27.219 7.18366L27.4902 6.91248L28.7557 5.5566L29.4788 4.74307L29.9308 4.29111V4.20072L30.3828 3.74876L30.4732 3.65836L30.5635 3.56797L30.6539 3.47758L30.7443 3.38719L30.8347 3.29679C31.3771 2.66405 32.0098 2.0313 32.6426 1.39856C32.8233 1.12738 33.9984 0.946599 34.2696 1.12738C34.6312 1.39856 34.2696 1.57934 34.1792 1.57934C33.6369 2.30248 33.0041 2.93523 32.3714 3.56797L27.0383 9.35307H27.1286L27.0383 9.44346H26.9479C26.3151 10.1666 25.6824 10.7993 25.0496 11.5225C24.7785 11.884 24.4169 11.7033 24.1457 11.7033C24.0553 11.7033 24.0553 11.7033 23.9649 11.7033C23.7841 11.7033 23.513 11.884 23.3322 11.6129C23.2418 11.3417 23.513 11.1609 23.6937 10.9801C24.1457 10.4378 24.6881 9.98581 25.14 9.44346L25.2304 9.35307ZM30.202 6.91248L31.4675 5.5566L32.1906 4.74307C32.281 4.74307 32.281 4.65268 32.3714 4.65268L33.2753 3.65836V3.56797L33.3657 3.47758C34.0888 2.75444 34.7216 2.0313 35.3543 1.30817C35.6255 1.03699 35.9871 1.12738 36.2583 1.12738C36.439 1.12738 36.5294 1.12738 36.6198 1.12738C37.0718 1.12738 37.1622 1.39856 36.891 1.66974C36.3486 2.21209 35.8063 2.84483 35.3543 3.38719L29.8404 9.26268C29.2077 9.98581 28.6653 10.6186 28.0326 11.3417C27.671 11.7033 27.3094 11.7937 26.8575 11.7937V11.7033C26.5863 11.7033 26.2247 11.884 26.0439 11.6129C25.9536 11.3417 26.3151 11.1609 26.4055 10.9801C26.9479 10.4378 27.3998 9.89542 27.9422 9.35307C28.4845 8.81072 28.9365 8.26836 29.4788 7.72601L29.5692 7.63562L30.202 6.91248ZM32.9137 6.91248L34.1792 5.5566L35.8063 3.83915L35.8967 3.74876V3.65836H35.9871V3.56797H36.0775V3.47758H36.1679V3.38719H36.2583C36.8006 2.75444 37.4333 2.0313 38.0661 1.39856C38.1565 1.30817 38.3373 1.21778 38.5181 1.21778C38.6988 1.21778 39.0604 1.12738 39.1508 1.39856C39.3316 1.66974 39.1508 1.76013 38.97 2.0313C38.6988 2.30248 38.4277 2.66405 38.1565 3.02562L38.0661 3.11601L37.5237 3.74876V3.83915L37.4333 3.92954V4.01993H37.343V4.11032H37.2526V4.20072L37.1622 4.29111L37.0718 4.3815L34.4504 7.8164C34.4504 7.8164 34.4504 7.8164 34.36 7.90679C33.9984 8.35875 33.5465 8.90111 33.1849 9.44346L33.0945 9.53385C32.5522 10.257 31.9194 10.9801 31.3771 11.7033C31.0155 12.1552 30.4732 11.884 30.0212 11.884C29.75 11.884 29.3885 11.9744 29.1173 11.884C28.7557 11.884 28.4845 11.7033 28.8461 11.3417C29.9308 10.257 30.9251 9.17228 31.9194 8.08758L32.9137 6.91248ZM25.2304 16.2229C25.2304 16.1325 25.2304 16.1325 25.2304 16.1325C27.219 16.1325 29.2077 16.1325 31.1963 16.1325C31.9194 16.1325 31.9194 16.0421 31.829 15.4093C31.6483 14.867 31.4675 14.3246 31.3771 13.7823C31.1059 12.8784 31.2867 12.6072 30.1116 12.6072C28.5749 12.6072 27.1286 12.6072 25.592 12.5168C23.3322 12.5168 21.1628 12.5168 18.903 12.4264C18.0894 12.336 18.0894 12.4264 18.0894 13.3303C18.0894 13.9631 18.3606 14.6862 18.3606 15.4093C18.3606 16.1325 18.451 16.2229 19.1741 16.2229C21.1628 16.2229 23.2418 16.2229 25.2304 16.2229ZM15.92 16.946V17.0364C15.1065 17.0364 14.3834 17.0364 13.5698 17.0364C13.2083 17.0364 13.0275 17.2172 13.1179 17.4884C13.389 18.4827 13.4794 19.477 13.6602 20.4713C13.9314 21.6464 14.3834 22.8215 14.4737 24.087C14.4737 24.8101 14.7449 24.9909 15.3777 24.9909C16.6432 24.9909 17.9086 24.9909 19.0837 24.9909C20.3492 24.9909 20.3492 24.9909 20.0781 23.8158C19.6261 21.7368 19.2645 19.6578 18.903 17.5788C18.8126 17.1268 18.6318 16.946 18.1798 16.946C17.4567 17.0364 16.6432 16.946 15.92 16.946ZM6.60963 16.4037C6.60963 16.3133 6.60963 16.3133 6.60963 16.3133C8.23669 16.3133 9.77336 16.3133 11.4004 16.3133C12.0332 16.3133 12.1236 16.1325 12.0332 15.4997C11.8524 14.5958 11.8524 13.7823 11.6716 12.8784C11.5812 12.336 11.4004 12.2456 10.9485 12.2456C9.86375 12.2456 8.86944 12.2456 7.78473 12.1552C5.61532 12.0648 3.5363 11.9744 1.45728 11.9744C1.00532 11.9744 0.734143 12.1552 0.824536 12.6072C1.00532 13.6015 1.09571 14.6862 1.1861 15.7709C1.2765 16.2229 1.54767 16.4037 1.99963 16.4037C3.5363 16.4037 5.07297 16.4037 6.60963 16.4037ZM25.592 18.9346C27.1286 18.9346 28.6653 18.9346 30.202 18.9346C31.4675 18.9346 31.3771 18.9346 31.1963 17.6691C31.1059 17.0364 30.8347 16.946 30.2924 16.946C26.9479 16.946 23.6034 16.946 20.2588 16.946C19.5357 16.946 19.2645 17.3076 19.4453 17.9403C19.4453 18.0307 19.4453 18.0307 19.4453 18.0307C19.5357 18.8442 19.5357 18.9346 20.3492 18.9346C22.0667 18.9346 23.7841 18.9346 25.592 18.9346ZM15.2873 16.2229C16.0104 16.2229 16.8239 16.2229 17.5471 16.2229C17.999 16.2229 18.0894 16.0421 18.0894 15.5901C17.9086 14.7766 17.8183 13.9631 17.7279 13.1495C17.6375 12.6072 17.3663 12.336 16.6432 12.336C15.3777 12.336 14.0218 12.336 12.7563 12.2456C12.3043 12.2456 12.2139 12.336 12.2139 12.788C12.2139 13.7823 12.4851 14.6862 12.4851 15.5901C12.4851 16.1325 12.7563 16.2229 13.2083 16.2229C13.841 16.2229 14.5641 16.2229 15.2873 16.2229ZM26.6767 24.9909V25.0813C28.4845 25.0813 30.202 25.0813 32.0098 25.0813C32.1906 25.0813 32.4618 25.1717 32.4618 24.7197C32.5522 24.087 32.1906 23.635 31.4675 23.635C31.2867 23.635 31.1059 23.635 30.9251 23.635C28.8461 23.635 26.8575 23.7254 24.7785 23.5446C23.6034 23.4542 22.4283 23.5446 21.1628 23.4542C20.982 23.4542 20.7108 23.4542 20.53 23.7254C20.3492 24.3582 20.7108 24.9909 21.4339 24.9909C23.1514 24.9909 24.9592 24.9909 26.6767 24.9909ZM16.6432 11.7033C17.1855 11.6129 17.7279 11.884 18.0894 11.3417C18.903 10.257 19.8069 9.17228 20.6204 7.99719C20.7108 7.8164 20.8916 7.72601 20.8012 7.54523C20.6204 7.27405 20.3492 7.45483 20.2588 7.45483C18.6318 8.08758 17.0951 8.72032 15.4681 9.35307C14.8353 9.62424 14.0218 9.62424 13.4794 10.3474C13.389 10.6186 13.1179 10.7993 12.9371 11.0705C12.9371 11.1609 12.7563 11.1609 12.8467 11.3417C12.9371 11.4321 13.0275 11.5225 13.1179 11.5225C14.3834 11.5225 15.5585 11.5225 16.6432 11.7033ZM7.87512 18.6635V18.7539C9.3214 18.7539 10.8581 18.7539 12.3043 18.7539C12.4851 18.7539 12.6659 18.7539 12.7563 18.5731C13.1179 17.9403 12.5755 17.0364 11.8524 17.0364C11.4908 17.0364 11.2196 17.0364 10.9485 17.0364C8.41748 17.0364 5.8865 17.0364 3.35552 17.1268C3.08434 17.1268 2.90355 17.1268 2.72277 17.3076C2.45159 17.7595 2.90355 18.6635 3.44591 18.6635C4.98257 18.6635 6.42885 18.6635 7.87512 18.6635ZM25.592 19.5674C23.7841 19.5674 22.0667 19.5674 20.2588 19.477C19.8069 19.477 19.6261 19.7482 19.7165 20.1097C19.8069 20.7425 20.2588 20.8329 20.8012 20.8329C22.2475 20.8329 23.7841 20.9233 25.3208 20.9233C27.219 20.9233 29.2077 20.9233 31.1059 20.9233C31.5579 20.9233 31.7386 20.7425 31.7386 20.2905C31.6483 19.7482 31.4675 19.5674 30.6539 19.5674C28.9365 19.5674 27.3094 19.5674 25.592 19.5674ZM24.2361 21.556V21.4656C23.061 21.4656 21.7955 21.4656 20.6204 21.4656C20.4396 21.4656 20.2588 21.4656 20.1685 21.6464C19.9877 22.008 20.4396 22.8215 20.8916 22.8215C23.513 22.8215 26.0439 22.9119 28.5749 22.9119C29.5692 22.9119 30.5635 22.9119 31.5579 22.9119C31.829 22.9119 32.1002 22.8215 32.0098 22.4599C31.9194 22.1888 32.1906 21.6464 31.5579 21.6464C30.9251 21.6464 30.3828 21.6464 29.75 21.556C27.9422 21.556 26.0439 21.556 24.2361 21.556ZM8.95983 23.4542C8.95983 23.4542 8.95983 23.4542 8.95983 23.3638C7.42316 23.3638 5.97689 23.3638 4.44022 23.3638C4.16904 23.3638 3.80748 23.2735 3.80748 23.8158C3.80748 24.5389 3.98826 24.8101 4.53061 24.8101C7.60395 24.9005 10.5869 24.7197 13.6602 24.9909C13.841 24.9909 14.0218 24.9909 14.1122 24.8101C14.3834 24.2678 13.841 23.4542 13.2987 23.4542C11.8524 23.4542 10.4061 23.4542 8.95983 23.4542ZM8.50787 21.4656C7.06159 21.4656 5.52493 21.4656 3.98826 21.4656C3.80748 21.4656 3.62669 21.3752 3.5363 21.556C3.26512 22.008 3.71708 22.7311 4.25944 22.8215C4.80179 22.8215 5.43453 22.8215 5.97689 22.8215C8.32708 22.8215 10.7677 22.8215 13.1179 22.8215C13.2987 22.8215 13.4794 22.9119 13.6602 22.6407C13.9314 22.0984 13.4794 21.4656 12.8467 21.4656C11.4004 21.4656 9.95414 21.4656 8.50787 21.4656ZM23.061 2.21209C22.6994 2.21209 22.5186 2.30248 22.3379 2.39287C21.0724 3.11601 20.0781 4.11032 18.9934 5.01425C18.8126 5.19503 18.8126 5.46621 18.9934 5.5566C19.4453 5.82777 19.7165 6.27974 20.1685 6.55091C20.4396 6.6413 20.53 6.6413 20.8012 6.46052C21.2532 6.09895 21.7955 5.64699 22.3379 5.28542C23.1514 4.74307 23.9649 4.11032 25.0496 3.92954C25.14 3.83915 25.2304 3.83915 25.2304 3.74876C25.3208 3.56797 25.2304 3.47758 25.14 3.38719C24.5073 3.02562 24.0553 2.57366 23.3322 2.30248C23.2418 2.30248 23.061 2.30248 23.061 2.30248V2.21209ZM32.0098 12.0648C31.9194 12.2456 31.829 12.5168 31.9194 12.6976C32.1002 13.4207 32.1906 14.2342 32.4618 14.9574C32.5522 15.1382 32.4618 15.319 32.733 15.319C32.8233 15.319 33.0041 15.2286 33.0945 15.1382C33.8177 14.1439 34.5408 13.0591 35.3543 12.0648C36.1679 10.9801 36.9814 9.80503 38.2469 8.08758C38.8796 7.27405 39.5124 6.37013 40.1451 5.5566C40.2355 5.37581 40.3259 5.19503 40.3259 4.92385C40.0547 4.29111 40.0547 3.56797 40.0547 2.84483C39.9643 2.66405 40.0547 2.48327 39.7835 2.39287C39.6028 2.39287 39.5124 2.48327 39.422 2.66405C35.8063 7.36444 35.6255 7.54523 32.0098 12.0648ZM10.4061 20.8329C11.1292 20.8329 11.9428 20.8329 12.7563 20.8329C13.0275 20.8329 13.2083 20.9233 13.2987 20.6521C13.4794 20.1097 13.1179 19.477 12.5755 19.477C12.3043 19.477 12.0332 19.477 11.6716 19.477C9.05022 19.477 6.33846 19.6578 3.71708 19.3866C3.44591 19.2962 3.17473 19.2962 3.08434 19.5674C2.90355 20.1097 3.26512 20.6521 3.80748 20.6521C5.97689 20.6521 8.1463 20.9233 10.4061 20.8329ZM12.2139 7.36444C12.3947 7.72601 12.3947 8.17797 12.5755 8.53954C12.8467 9.08189 13.2986 9.08189 13.6602 8.44915C13.7506 8.26836 14.0218 7.99719 14.293 7.90679C15.3777 7.45483 16.5528 7.00287 17.8183 7.00287C18.3606 7.00287 18.8126 6.91248 19.3549 6.91248C19.6261 6.91248 19.8069 6.7317 19.6261 6.6413C19.1741 6.18934 18.7222 5.64699 17.999 5.5566C16.5528 5.5566 15.1969 5.82778 13.7506 5.91817C13.0275 5.91817 12.3043 6.6413 12.2139 7.36444ZM25.7728 1.21778C25.6824 0.946599 25.4112 0.856207 25.2304 0.856207C24.5073 0.856207 23.8745 0.946599 23.2418 0.856207C21.8859 0.675423 20.8012 1.03699 20.1685 2.30248C20.1685 2.39287 19.9877 2.48327 19.8973 2.57366C19.3549 3.2064 18.8126 3.92954 18.3606 4.56228C18.2702 4.65268 18.0894 4.74307 18.2702 4.92385C18.3606 5.01425 18.5414 5.01425 18.6318 4.92385C18.7222 4.83346 18.8126 4.74307 18.903 4.65268C19.8069 3.92954 20.6204 3.2064 21.5243 2.48327C22.4283 1.76013 23.3322 1.76013 24.2361 2.39287C24.4169 2.48327 24.5977 2.66405 24.7785 2.48327C25.2304 2.21209 25.5016 1.66974 25.7728 1.21778ZM16.6432 4.92385C17.2759 5.10464 17.6375 4.83346 17.999 4.3815C18.451 3.74876 18.903 3.2064 19.3549 2.75444C19.7165 2.30248 20.0781 1.85052 20.4396 1.39856C20.53 1.21778 20.7108 0.946599 20.3492 0.856207C19.7165 0.856207 19.0837 0.765815 18.5414 1.39856C17.8183 2.30248 17.0047 3.11601 16.1912 4.01993C16.0104 4.20072 15.6488 4.47189 15.7392 4.74307C15.8296 5.10464 16.2816 4.92385 16.6432 4.92385ZM10.9485 11.4321C11.4908 11.4321 12.1236 11.5225 12.5755 10.8897C13.7506 9.53385 13.4794 9.89542 12.3947 8.90111C12.2139 8.62993 12.0332 8.53954 11.762 8.81072C10.9485 9.53385 10.4061 10.3474 9.68297 11.0705C9.41179 11.3417 9.68297 11.4321 9.86375 11.4321C10.2253 11.4321 10.5869 11.4321 10.8581 11.4321H10.9485ZM27.5806 1.03699C26.8575 0.856207 26.2247 1.12738 25.7728 1.94091C25.14 2.84483 24.9592 2.84483 25.9535 3.47758C26.0439 3.56797 26.2247 3.56797 26.3151 3.74876C26.4959 3.92954 26.5863 3.83915 26.7671 3.65836C27.3998 2.93523 28.123 2.30248 28.8461 1.48895C29.0269 1.30817 28.9365 1.03699 28.5749 1.03699C28.3037 1.03699 27.9422 1.03699 27.5806 1.03699ZM18.8126 7.27405C17.5471 7.36444 16.2816 7.63562 15.1065 7.90679C14.7449 7.99719 14.3834 8.26836 14.0218 8.53954C13.841 8.72032 13.841 8.9915 13.9314 9.17228C14.0218 9.44346 14.293 9.26268 14.4737 9.26268C15.8296 8.90111 17.0951 8.17797 18.5414 7.72601C18.6318 7.72601 18.7222 7.54523 18.8126 7.27405ZM26.1343 4.29111C25.7728 4.11032 25.5016 4.11032 25.2304 4.20072C23.8745 4.47189 22.8802 5.37581 21.7955 6.09895C21.7051 6.09895 21.6147 6.18934 21.7051 6.27974C21.7955 6.37013 21.8859 6.37013 21.9763 6.27974C23.061 5.82777 24.1457 5.37581 25.2304 4.92385C25.5016 4.74307 25.9536 4.65268 26.1343 4.29111Z" fill="black"/>
</svg>
