<svg width="36" height="36" viewBox="0 0 36 36" fill="none" xmlns="http://www.w3.org/2000/svg">
<path d="M0 35.9447C0 35.6133 0 35.3647 0 35.1107C0 23.7219 0 12.3332 0 0.944458C0 0.314819 0.309009 0 0.927035 0C12.2612 0 23.5898 0 34.924 0C35.6303 0 35.9834 0.360845 35.9834 1.08254C35.9834 12.4271 35.9779 23.7661 36 35.1107C36 35.8232 35.8013 36.0054 35.1171 35.9999C23.6726 35.9833 12.2226 35.9888 0.778052 35.9833C0.551811 35.9833 0.325567 35.9612 0 35.9447ZM35.0123 17.9944H18.6235V35.0278H35.0123V17.9944ZM1.00429 34.3761C1.73819 33.647 2.36726 33.0174 3.00184 32.3877C5.38566 29.9962 7.77499 27.6047 10.1588 25.2187C12.4378 22.9376 14.7167 20.6676 16.9957 18.3866C17.5641 17.8177 17.5641 17.5747 17.0619 17.0776C14.9761 15.023 12.8903 12.9684 10.8155 10.9027C8.27713 8.38414 5.74985 5.85454 3.21705 3.32493C2.51625 2.62349 1.81545 1.92205 1.00981 1.11567V19.6875V34.3816L1.00429 34.3761ZM17.6082 19.3145C12.3881 24.5283 7.15696 29.7477 1.8927 35.0002H17.6082V19.3145Z" fill="black"/>
<path d="M1 20L11 9" stroke="black"/>
</svg>
