<svg width="60" height="42" viewBox="0 0 60 42" fill="none" xmlns="http://www.w3.org/2000/svg">
<path d="M38.7299 9.68414C38.7299 10.883 38.7551 12.082 38.7236 13.2776C38.7046 14.0608 39.0328 14.4991 39.7554 14.7279C40.2382 14.8794 40.7336 15.0663 41.1502 15.3499C41.3837 15.5079 41.5793 15.8914 41.5951 16.1847C41.6487 17.3352 41.6235 18.4922 41.6267 19.646C41.6267 21.0673 41.614 22.4854 41.633 23.9067C41.6424 24.7607 41.8791 25.0669 42.6522 25.3537C43.1697 25.5471 43.7156 25.6889 44.1984 25.9467C44.656 26.1917 45.0062 26.5591 44.9999 27.1875C44.981 29.8496 44.9747 32.5117 44.9999 35.1738C45.0062 35.8925 44.5581 36.2245 44.0596 36.4404C42.6522 37.0528 41.2133 37.591 39.787 38.1646C39.4272 38.3097 39.0454 38.4192 38.7173 38.6223C37.9378 39.1089 37.1111 39.0896 36.338 38.7673C34.3279 37.9326 32.3652 36.9851 30.3583 36.1439C28.629 35.4188 26.8462 34.8257 25.1201 34.0942C23.5833 33.4431 22.1002 32.6535 20.573 31.98C19.4811 31.4997 18.3515 31.113 17.2376 30.6876C17.1587 30.6586 17.0577 30.6779 16.982 30.6392C14.9277 29.5821 15.0066 30.043 15.0066 27.7806C15.0066 25.5632 15.0161 23.3427 15.0003 21.1253C14.994 20.4904 15.0823 20.1133 15.8302 19.9071C16.7611 19.6493 17.6099 19.0852 18.5029 18.6824C18.97 18.4697 19.1214 18.128 19.1151 17.6317C19.0962 16.5231 19.1088 15.4144 19.112 14.3025C19.112 12.6782 19.4338 12.2721 20.9863 11.8112C21.6332 11.6211 22.2769 11.4051 22.8986 11.1409C23.4382 10.912 23.6117 10.4222 23.6023 9.83883C23.5865 8.68504 23.618 7.53125 23.596 6.37747C23.5802 5.51696 23.7127 4.89172 24.7004 4.5791C26.0289 4.16013 27.2911 3.522 28.5817 2.97412C29.2822 2.67439 29.9638 2.32954 30.6801 2.07816C30.9704 1.97503 31.3586 1.9718 31.6426 2.08137C33.3402 2.73562 35.0253 3.42854 36.7072 4.1279C37.2657 4.35995 37.8558 4.57911 38.3291 4.94007C38.5753 5.127 38.7015 5.6072 38.7141 5.96494C38.7583 7.20575 38.733 8.44977 38.733 9.69058L38.7299 9.68414ZM27.9159 16.7197C27.3826 17.0548 27.2848 17.535 27.2942 18.1055C27.3163 19.8297 27.3005 21.5507 27.3037 23.275C27.3037 24.3965 27.6287 24.8832 28.5943 25.2635C29.9764 25.8049 31.3554 26.356 32.7344 26.8975C33.4948 27.1972 33.883 26.9523 33.8924 26.1014C33.9145 24.2032 33.8924 22.3017 33.9019 20.4002C33.9082 19.5977 33.5737 19.1078 32.8322 18.8081C31.1755 18.1377 29.541 17.4126 27.9159 16.7164V16.7197ZM21.9393 31.6963C22.1002 31.0099 22.3464 30.3814 22.3748 29.7433C22.4379 28.2382 22.3653 26.7267 22.4032 25.2184C22.4316 24.1258 21.8257 23.4845 20.9706 23.1042C19.5663 22.4822 18.118 21.9568 16.6822 21.4057C16.1552 21.2027 15.7986 21.3993 15.7923 21.9536C15.7671 24.0839 15.7576 26.2142 15.805 28.3413C15.8113 28.6765 16.0637 29.1664 16.3382 29.305C17.3669 29.8238 18.4524 30.2235 19.519 30.6682C20.2606 30.9809 20.999 31.2935 21.9425 31.6931L21.9393 31.6963ZM23.2583 24.2193C23.2047 24.7929 23.1289 25.2151 23.1258 25.6406C23.1132 27.455 23.1952 29.2727 23.0911 31.0775C23.0343 32.0347 23.4697 32.4312 24.1955 32.7405C25.6407 33.3593 27.0765 33.9975 28.5312 34.5905C28.7742 34.6904 29.0866 34.6034 29.4684 34.6034C29.4684 32.1572 29.4716 29.8206 29.4652 27.484C29.4652 26.949 29.2412 26.6429 28.6858 26.4334C26.9345 25.7759 25.2147 25.025 23.2583 24.2128V24.2193ZM36.8776 37.8875C36.8776 35.2608 36.8807 32.8824 36.8776 30.5007C36.8776 29.9173 36.4484 29.6756 36.0035 29.4726C35.2304 29.1213 34.4699 28.7345 33.6747 28.438C32.7344 28.0867 31.7656 27.816 30.8253 27.5131C30.7275 27.7387 30.6612 27.816 30.6612 27.8966C30.6454 30.1526 30.6391 32.4118 30.6296 34.6678C30.6296 35.3736 31.1093 35.6379 31.6489 35.87C32.5103 36.2374 33.356 36.6467 34.2301 36.9883C35.019 37.2977 35.8331 37.5362 36.8839 37.8875H36.8776ZM20.2038 13.6934C20.1596 14.3251 20.1059 14.7569 20.1059 15.1888C20.0965 16.9614 20.1754 18.7372 20.0744 20.5033C20.0176 21.5024 20.4657 21.9762 21.2419 22.292C22.2959 22.7239 23.3656 23.1203 24.4259 23.5425C24.7824 23.6843 25.1106 23.9131 25.4735 24.0033C25.9658 24.1258 26.335 23.9647 26.335 23.3491C26.335 21.2671 26.3476 19.1852 26.3255 17.1032C26.3192 16.5392 26.0604 16.1492 25.4767 15.9172C23.779 15.2436 22.1097 14.5023 20.2069 13.6934H20.2038ZM30.5981 16.6488C30.5981 13.9254 30.6107 11.4954 30.5791 9.06857C30.5791 8.83652 30.3425 8.482 30.1311 8.39176C28.263 7.59893 26.3728 6.85123 24.3564 6.03584C24.3564 8.59158 24.3627 11.0216 24.3501 13.4549C24.3501 13.8674 24.5079 14.0672 24.8897 14.2284C26.0257 14.7118 27.1302 15.2726 28.263 15.7689C28.954 16.0686 29.6704 16.3007 30.5981 16.6488ZM31.1314 7.76008C31.469 7.6634 31.854 7.58927 32.2106 7.44424C33.4349 6.94147 34.6561 6.42258 35.8647 5.88114C36.0571 5.79412 36.3064 5.55885 36.3096 5.38482C36.3127 5.20756 36.0887 4.94329 35.8994 4.85305C34.6655 4.25681 33.4412 3.61869 32.1601 3.15782C31.5889 2.95156 30.8316 2.94511 30.2573 3.14493C28.8878 3.62514 27.5751 4.27293 26.2498 4.87561C26.0888 4.94973 25.8711 5.20756 25.8995 5.32681C25.9468 5.53307 26.133 5.78124 26.3223 5.86503C27.6477 6.44515 28.9888 6.99303 30.3299 7.54092C30.5665 7.6376 30.8253 7.67951 31.1314 7.76008ZM43.0782 26.7782C42.6617 26.4302 42.3966 26.0273 42.0937 25.9919C41.33 25.9048 40.4812 25.7888 39.7901 26.0402C38.2849 26.5849 36.8523 27.3487 35.3819 28.0287C36.4421 29.0052 37.4771 29.1019 38.7677 28.5186C40.0931 27.9191 41.4626 27.426 43.0813 26.7815L43.0782 26.7782ZM32.4251 17.3449C33.5895 18.4052 34.0723 18.4665 35.3629 17.8509C35.6311 17.722 35.9467 17.7091 36.2275 17.6027C37.2152 17.2192 38.2029 16.8325 39.1717 16.4038C39.3641 16.3168 39.5251 16.0429 39.585 15.8205C39.6071 15.7335 39.3389 15.5046 39.1653 15.4273C38.266 15.0341 37.3856 15.2339 36.5273 15.5949C35.1957 16.1589 33.864 16.7293 32.4283 17.3417L32.4251 17.3449ZM23.495 11.7693C22.8576 12.0175 22.3495 12.1947 21.8636 12.4204C21.6995 12.4977 21.4597 12.7265 21.4818 12.8393C21.5259 13.0617 21.6805 13.3421 21.8699 13.442C22.3527 13.6966 22.8765 13.8674 23.4981 14.1156V11.7693H23.495ZM19.0362 19.4398C18.2473 19.7363 17.5657 19.9876 16.8557 20.2519C17.7035 20.8234 18.4304 21.0705 19.0362 20.9932V19.4365V19.4398Z" fill="black"/>
</svg>
