<svg width="60" height="42" viewBox="0 0 60 42" fill="none" xmlns="http://www.w3.org/2000/svg">
<path d="M6.51221 26.4526V23.439L21.622 32.4024L52.8659 14.2195V17.1872C52.8659 17.729 52.5806 18.2307 52.115 18.5077L22.4114 36.1826C22.0836 36.3777 21.6745 36.3745 21.3498 36.1742L6.99891 27.3245C6.69641 27.138 6.51221 26.808 6.51221 26.4526Z" fill="#383838"/>
<path d="M37.2423 5.15085L6.75206 22.9988C6.41483 23.1962 6.41396 23.6833 6.75048 23.8819L21.3637 32.5061C21.5232 32.6003 21.7211 32.601 21.8812 32.508L52.6152 14.6625C52.9552 14.465 52.9552 13.974 52.6152 13.7766L37.7582 5.14994C37.5986 5.05728 37.4016 5.05763 37.2423 5.15085Z" fill="black"/>
<path d="M22.9023 14.9878L35.9633 22.4146" stroke="white" stroke-width="0.512195" stroke-linecap="round"/>
<ellipse cx="18.6342" cy="25.5854" rx="1.53659" ry="1.02439" fill="white"/>
<ellipse cx="34.6342" cy="16.5854" rx="1.53659" ry="1.02439" fill="white"/>
<ellipse cx="23.6342" cy="22.5854" rx="1.53659" ry="1.02439" fill="white"/>
<ellipse cx="39.6342" cy="13.5854" rx="1.53659" ry="1.02439" fill="white"/>
<ellipse cx="14.5366" cy="23.0244" rx="1.53659" ry="1.02439" fill="white"/>
<ellipse cx="30.5366" cy="14.0244" rx="1.53659" ry="1.02439" fill="white"/>
<ellipse cx="35.5366" cy="11.0244" rx="1.53659" ry="1.02439" fill="white"/>
<ellipse cx="23.2439" cy="28.6587" rx="1.53659" ry="1.02439" fill="white"/>
<ellipse cx="28.2439" cy="25.6587" rx="1.53659" ry="1.02439" fill="white"/>
<ellipse cx="43.5366" cy="16.0244" rx="1.53659" ry="1.02439" fill="white"/>
</svg>
