<svg width="60" height="42" viewBox="0 0 60 42" fill="none" xmlns="http://www.w3.org/2000/svg">
<path d="M15.6562 28.6367C15.6562 26.5698 15.6516 24.4983 15.6609 22.4314C15.6609 22.0598 15.6096 21.7811 15.2691 21.5535C14.9239 21.3259 14.9052 20.671 15.2457 20.4853C15.6282 20.2716 15.6609 19.979 15.6609 19.6167C15.6562 15.5386 15.6609 11.4606 15.6609 7.3825C15.6609 6.76321 15.975 6.45356 16.6032 6.45356C20.5637 6.45356 24.5195 6.46285 28.4799 6.44892C28.7972 6.44892 29.147 6.3328 29.4222 6.17023C29.8048 5.94729 30.1173 5.94729 30.5092 6.14701C30.831 6.30957 31.2135 6.44427 31.5681 6.44892C35.5845 6.47214 39.601 6.47678 43.6221 6.44892C44.1865 6.44892 44.3498 6.59755 44.3498 7.15956C44.3311 11.298 44.3405 15.4318 44.3405 19.5702C44.3405 19.9465 44.2612 20.3227 44.7836 20.5085C45.0775 20.6153 45.0682 21.3631 44.779 21.521C44.3638 21.7486 44.3358 22.0737 44.3358 22.4732C44.3451 26.6116 44.3405 30.7454 44.3405 34.8839C44.3405 35.4474 44.0621 35.7292 43.5055 35.7292C39.4657 35.7292 35.4259 35.7246 31.3908 35.7385C31.0596 35.7385 30.7331 35.8964 30.4019 35.9522C30.1593 35.994 29.9027 36.0172 29.6602 35.9847C29.175 35.9243 28.6992 35.7432 28.214 35.7432C24.3515 35.7246 20.4844 35.7339 16.6219 35.7292C15.7076 35.7292 15.6656 35.6874 15.6656 34.7863C15.6656 32.738 15.6656 30.6897 15.6656 28.6414L15.6562 28.6367ZM16.4213 21.038C16.4446 21.1216 16.4679 21.2098 16.4912 21.2934C17.0324 21.3863 17.5828 21.4514 18.1193 21.5814C19.0336 21.7997 19.9386 22.0505 20.8436 22.306C22.5136 22.7844 24.1276 23.3929 25.4804 24.5262C27.7942 26.4584 28.5126 29.1941 29.1983 31.9391C29.4129 32.7938 29.5529 33.6623 29.7441 34.5216C29.7674 34.6145 29.9074 34.712 30.01 34.7445C30.0567 34.7585 30.2013 34.6331 30.2199 34.5495C30.4998 33.379 30.7144 32.1853 31.0456 31.0288C31.4001 29.7886 31.7687 28.5346 32.3051 27.3687C33.1728 25.483 34.5956 24.136 36.5315 23.2674C38.1175 22.5568 39.7596 22.0923 41.4436 21.7347C42.0594 21.6046 42.6705 21.4606 43.2815 21.2981C43.3748 21.2749 43.5148 21.1076 43.4961 21.0426C43.4635 20.9219 43.3515 20.7639 43.2396 20.7361C42.7964 20.62 42.3392 20.5642 41.8914 20.4574C40.6926 20.1741 39.4657 19.9743 38.3135 19.5656C37.1193 19.1429 35.9624 18.6227 34.8988 17.861C33.392 16.7788 32.4731 15.3343 31.848 13.6668C31.4934 12.7239 31.2369 11.7392 30.9803 10.7592C30.7097 9.74202 30.4952 8.71089 30.2433 7.68906C30.2059 7.54507 30.1033 7.41502 30.0333 7.27568C29.9261 7.40573 29.7628 7.52185 29.7255 7.67048C29.2683 9.44476 28.8811 11.2423 28.368 13.0026C27.9621 14.3867 27.2811 15.6547 26.3154 16.7602C24.7387 18.5577 22.6022 19.3009 20.4004 19.9047C19.2342 20.2252 18.0353 20.4342 16.8598 20.7175C16.6965 20.7546 16.5659 20.9265 16.4166 21.038H16.4213ZM29.147 34.9257C29.147 34.7724 29.1703 34.6516 29.147 34.5495C28.7272 32.9238 28.312 31.2935 27.8782 29.6679C27.4863 28.1955 26.8426 26.8485 25.821 25.7013C24.3889 24.0896 22.4296 23.4347 20.4564 22.8355C19.5234 22.5522 18.5578 22.3524 17.6062 22.1388C17.2423 22.0598 16.8598 22.0505 16.4586 22.0087C16.4399 22.2456 16.4259 22.3757 16.4259 22.5104C16.4259 26.4351 16.4306 30.3599 16.4166 34.2801C16.4166 34.8096 16.5939 34.9768 17.1303 34.9721C20.9182 34.9536 24.7014 34.9628 28.4893 34.9582C28.6992 34.9582 28.9091 34.935 29.1517 34.921L29.147 34.9257ZM30.8544 34.9257C31.1156 34.9396 31.3255 34.9582 31.5354 34.9582C35.3 34.9582 39.0645 34.9443 42.8244 34.9768C43.4448 34.9814 43.5568 34.7724 43.5521 34.215C43.5335 30.3739 43.5428 26.528 43.5428 22.6869V21.9994C43.1649 22.0366 42.8524 22.0319 42.5632 22.1063C41.0238 22.5104 39.489 22.9052 37.9636 23.3557C36.6201 23.7505 35.4306 24.4518 34.4183 25.4272C33.0328 26.7603 32.4218 28.5067 31.8713 30.2717C31.5821 31.2006 31.3348 32.1435 31.1203 33.091C30.985 33.6763 30.9477 34.2847 30.859 34.9303L30.8544 34.9257ZM29.1657 7.28032C28.9138 7.26174 28.7039 7.22923 28.4939 7.22923C24.7061 7.22923 20.9229 7.24316 17.135 7.21529C16.5612 7.21529 16.4073 7.39179 16.4119 7.93987C16.4353 10.4527 16.4213 12.9655 16.4213 15.4782C16.4213 16.8299 16.4259 18.1861 16.4213 19.5377C16.4213 19.979 16.5192 20.1741 17.037 20.0301C17.9047 19.7885 18.8097 19.6864 19.668 19.4216C21.0022 19.0082 22.341 18.5902 23.6145 18.0236C25.1865 17.3268 26.3015 16.0914 27.0665 14.5679C27.9855 12.7425 28.4006 10.7499 28.8765 8.78056C28.9931 8.30216 29.0631 7.80982 29.1657 7.27568V7.28032ZM43.5008 7.28961H30.9103C30.9756 7.88413 30.971 8.43221 31.1063 8.94777C31.5028 10.4387 31.8853 11.9343 32.4031 13.3881C32.8323 14.5865 33.4527 15.7012 34.395 16.6209C35.3933 17.5962 36.5408 18.2744 37.8656 18.6645C39.2931 19.0872 40.7252 19.4959 42.1573 19.8907C42.5772 20.0069 43.0157 20.0487 43.4961 20.1323V7.29425L43.5008 7.28961Z" fill="black"/>
</svg>
