<svg width="60" height="42" viewBox="0 0 60 42" fill="none" xmlns="http://www.w3.org/2000/svg">
<path d="M18.0554 23.0875C18.0554 21.9927 18.1713 20.882 18.0232 19.8063C17.8784 18.7624 18.4288 18.2945 19.1917 17.9317C19.8129 17.6357 20.4824 17.4384 21.1423 17.2251C22.0436 16.9323 22.2753 16.6809 22.3011 15.7293C22.33 14.7236 22.33 13.7147 22.3011 12.709C22.2625 11.14 22.5972 10.8854 24.0135 10.2807C25.7968 9.52004 27.6122 8.82941 29.4244 8.14197C29.7302 8.02739 30.1455 7.94146 30.4255 8.04967C32.0349 8.68301 33.6186 9.38636 35.2152 10.0547C35.7753 10.287 36.3482 10.4971 36.9212 10.6944C37.7162 10.9649 37.9576 11.5219 37.9448 12.3176C37.9126 14.5072 37.9319 16.6968 37.9351 18.8865C37.9351 20.2486 37.9931 20.3027 39.2678 20.7229C39.7152 20.8724 40.1561 21.057 40.5746 21.2766C40.7388 21.3626 40.9029 21.5662 40.9383 21.7413C41.0059 22.0818 40.9963 22.4383 40.9963 22.7884C40.9995 25.0671 41.0027 27.3427 40.9963 29.6214C40.9963 31.1682 40.9802 31.1459 39.5542 31.6901C37.6808 32.4062 35.8332 33.186 33.9534 33.883C33.5832 34.0198 33.065 34.0485 32.7077 33.9052C31.1787 33.2815 29.7045 32.5399 28.1787 31.9066C26.1026 31.0473 24.0006 30.2484 21.9084 29.4209C20.9492 29.0422 19.9835 28.673 19.0339 28.272C18.3805 27.9951 17.9975 27.5591 18.0361 26.7666C18.094 25.5445 18.0522 24.316 18.0522 23.0875H18.0554ZM25.3397 29.9015C25.4684 29.6183 25.5682 29.5005 25.5682 29.3827C25.594 27.1104 25.6294 24.838 25.6004 22.5656C25.6004 22.3173 25.2657 21.9641 25.0017 21.8431C23.3215 21.0888 21.6251 20.3696 19.9191 19.679C19.388 19.4625 19.1144 19.6789 19.1047 20.3282C19.079 22.4255 19.0951 24.5261 19.0919 26.6234C19.0919 27.1613 19.3011 27.4668 19.858 27.6769C21.6766 28.3643 23.4631 29.1313 25.3397 29.8983V29.9015ZM32.492 32.8295C32.5918 32.6418 32.6691 32.5654 32.6691 32.489C32.6884 30.1689 32.698 27.8455 32.7141 25.5254C32.7173 25.0735 32.5081 24.8252 32.0736 24.6566C30.3772 23.9914 28.7002 23.2817 27.0071 22.6133C26.8429 22.5497 26.6079 22.6611 26.344 22.6993C26.344 25.0608 26.3536 27.3331 26.3343 29.6087C26.3311 30.1179 26.5275 30.4171 26.9974 30.6049C28.8032 31.3273 30.6025 32.0657 32.4888 32.8295H32.492ZM29.6916 22.521C29.6916 19.9081 29.7045 17.4702 29.6691 15.0355C29.6691 14.8255 29.3794 14.5199 29.1541 14.4244C27.2871 13.6288 25.4041 12.8745 23.3408 12.0311C23.3408 14.66 23.3311 17.1392 23.3601 19.6217C23.3601 19.8063 23.608 20.0672 23.8043 20.1563C25.0564 20.7165 26.3247 21.248 27.5961 21.7667C28.227 22.0245 28.8804 22.2346 29.6884 22.5274L29.6916 22.521ZM24.4095 11.1495C24.815 11.506 25.0339 11.8179 25.3333 11.942C26.727 12.5149 28.1305 13.0687 29.5564 13.5556C29.9362 13.6861 30.4416 13.632 30.8343 13.5079C31.7002 13.231 32.5918 12.9445 33.3643 12.4831C34.1208 12.0311 35.2023 12.1298 35.698 11.0986C34.1884 10.4653 32.7045 9.79374 31.1787 9.22087C30.4319 8.9408 29.5983 8.96944 28.845 9.26861C27.4094 9.83829 25.9996 10.4716 24.4095 11.1495ZM39.1551 21.6076C38.566 21.3085 38.2087 21.0793 37.8193 20.9456C37.5521 20.8533 37.2077 20.8056 36.9566 20.8947C36.0682 21.213 35.1508 21.5153 34.3461 21.9895C33.4738 22.5019 32.286 22.4033 31.6197 23.3485C32.0124 23.5872 32.344 23.88 32.7302 24.0009C33.0811 24.1092 33.5317 24.141 33.8697 24.0169C35.1959 23.5299 36.5059 22.9857 37.8032 22.4256C38.2313 22.241 38.6079 21.945 39.1583 21.6076H39.1551ZM19.9706 18.6605C20.5822 18.9565 21.0007 19.2079 21.4577 19.3543C21.6573 19.418 22.1047 19.3129 22.1305 19.2079C22.2238 18.8451 22.2335 18.4377 22.1562 18.0717C22.1337 17.9699 21.6766 17.8394 21.4835 17.9062C21.0039 18.0781 20.5661 18.355 19.9674 18.6605H19.9706Z" fill="black"/>
</svg>
