<svg width="60" height="42" viewBox="0 0 60 42" fill="none" xmlns="http://www.w3.org/2000/svg">
<path d="M29.1719 21.3173C29.4424 21.298 29.5487 21.1047 29.399 20.7666C28.6067 19.0081 27.8289 17.24 27.0028 15.496C26.7806 15.0274 26.4038 14.6312 26.0994 14.1964C25.9496 13.979 25.8144 13.7568 25.7806 13.4766C27.8434 15.2689 28.5922 17.81 29.684 20.3704C29.9207 19.9308 30.1526 19.5926 30.2879 19.2207C30.94 17.3945 31.7227 15.6409 32.9062 14.0902C33.0898 13.8534 33.3217 13.6505 33.5294 13.4283C33.5826 13.4573 33.6357 13.4863 33.6889 13.5153C33.6261 13.6989 33.6116 13.9259 33.4908 14.0563C32.428 15.2061 31.8048 16.6119 31.1912 18.0129C30.7951 18.9163 30.4424 19.839 30.0946 20.7617C30.0318 20.9212 30.085 21.1289 30.085 21.3125C30.1622 21.3318 30.2347 21.3511 30.312 21.3704C30.4908 20.9212 30.6453 20.4574 30.8579 20.0226C31.2685 19.1772 31.6212 18.2786 32.1623 17.525C34.4811 14.322 37.515 11.9259 41.0126 10.1336C42.0803 9.58286 43.3025 9.27368 44.4909 9.03213C45.2687 8.87271 46.8629 9.31233 47.3122 10.2206C47.7373 11.0756 47.3895 11.781 47.0755 12.5008C46.4523 13.9259 45.7808 15.3269 45.1431 16.7472C45.0513 16.9598 45.0175 17.2061 45.0078 17.4429C44.8919 19.6361 43.9982 21.269 41.7904 21.984C41.6551 22.0274 41.5682 22.2062 41.4232 22.356C42.346 22.7666 43.1672 23.2014 43.4136 24.1724C43.5537 24.7183 43.6503 25.3318 43.544 25.8777C43.1479 27.9116 42.3508 29.786 41.0996 31.4672C40.0947 32.815 38.085 33.3029 36.5729 32.5686C34.3169 31.472 32.8628 29.6266 31.7033 27.4961C31.2251 26.6169 30.8531 25.6845 30.3796 24.6652C30.3796 25.1193 30.399 25.4913 30.3796 25.8536C30.2637 28.0179 30.1429 30.1773 30.0028 32.3416C29.9932 32.5251 29.8289 32.6991 29.7371 32.8778C29.655 32.8681 29.5729 32.8585 29.4907 32.8537C29.2782 30.3512 29.0656 27.8439 28.8531 25.3222C28.4183 26.2062 28.0511 27.1145 27.5487 27.9357C26.4955 29.6604 25.2492 31.2063 23.4714 32.2836C21.51 33.4624 19.9882 33.1773 18.4616 31.4962C17.5003 30.4382 16.8529 29.1725 16.4761 27.7811C16.3263 27.2256 16.0413 26.699 15.9689 26.1386C15.737 24.3511 15.9302 23.3463 18.0317 22.3608C17.8771 22.2207 17.766 22.0516 17.6162 21.9985C15.7949 21.3511 14.7998 20.0564 14.5582 18.153C14.3601 16.5926 13.8336 15.1578 13.0509 13.7906C12.5775 12.9597 12.0509 12.1384 12.0026 11.1095C11.9495 10.0515 12.7128 9.53456 13.4036 9.25919C14.5244 8.81474 15.6162 9.10943 16.7225 9.43794C18.9882 10.1094 20.8578 11.4669 22.6936 12.8631C24.7709 14.438 26.6646 16.2158 27.9352 18.5298C28.4134 19.4042 28.7468 20.3559 29.1719 21.3366V21.3173ZM28.6646 21.9791C28.6646 21.7086 28.6646 21.5733 28.6646 21.4332C28.6646 21.3511 28.6502 21.2738 28.6308 21.1965C28.1187 19.3414 27.1429 17.7424 25.8723 16.3221C23.795 13.9984 21.3361 12.1384 18.6114 10.636C17.1911 9.84857 15.679 9.32682 13.9978 9.51523C12.8625 9.64084 12.2104 10.665 12.3939 11.2834C12.5534 11.8099 12.7079 12.3607 12.9881 12.8293C14.0461 14.5926 14.8674 16.4428 15.0558 18.5105C15.249 20.6506 17.9592 22.2207 19.7805 21.9405C20.6694 21.8052 21.5535 21.554 22.4424 21.5347C24.0414 21.496 25.6405 21.5685 27.2395 21.6458C27.6985 21.6651 28.1477 21.8584 28.6646 21.984V21.9791ZM30.9062 21.9743C31.2879 21.868 31.6405 21.7569 31.9932 21.6748C34.3555 21.1096 36.7179 21.4284 39.0609 21.7859C39.9305 21.9212 40.7276 22.0274 41.5682 21.6844C42.6213 21.2545 43.6262 20.7376 44.061 19.6409C44.3943 18.7955 44.5102 17.868 44.7373 16.9791C44.8677 16.467 44.9547 15.9356 45.1721 15.4622C45.6987 14.3317 46.288 13.2302 46.8484 12.1143C47.404 10.9983 46.9499 9.80992 45.7808 9.57803C44.6552 9.35581 43.5054 9.46692 42.4281 9.91137C40.8 10.5877 39.3024 11.4911 37.8773 12.5394C35.3555 14.3993 33.0222 16.4332 31.5922 19.2931C31.1912 20.0951 30.713 20.9163 30.9062 21.9743ZM38.0899 32.5203C38.428 32.4913 38.8097 32.5445 39.0995 32.414C40.457 31.8005 41.3218 30.6556 41.945 29.3705C42.5054 28.2208 42.9933 27.0323 43.1334 25.7231C43.2252 24.8826 43.201 24.1096 42.5247 23.5202C41.7952 22.8825 40.9836 22.4091 39.9498 22.5782C38.4425 22.8246 36.9401 23.1386 35.4232 23.2883C34.0029 23.4284 32.6116 23.1192 31.2782 22.6023C30.8531 22.4381 30.597 22.5927 30.6598 23.0661C30.7613 23.7859 30.9014 24.5057 31.1236 25.1966C31.9594 27.7666 33.4908 29.8729 35.5874 31.5493C36.2928 32.1145 37.0899 32.6121 38.085 32.53L38.0899 32.5203ZM28.6743 22.5782C27.7806 22.7618 26.911 22.9019 26.0559 23.1192C24.3699 23.5492 22.737 23.1337 21.08 22.9115C20.0897 22.7762 19.1042 22.1917 18.0558 22.7907C17.3698 23.182 16.7756 23.554 16.423 24.3608C16.0123 25.3028 16.3843 26.1241 16.5872 26.9212C16.9495 28.3415 17.5824 29.6845 18.481 30.8778C19.3892 32.0855 20.5341 32.786 22.08 32.4479C23.2105 32.2015 24.0704 31.4575 24.8868 30.6749C26.4424 29.1773 27.5632 27.3947 28.3168 25.3898C28.6502 24.4961 28.8965 23.5589 28.6743 22.5782ZM31.6647 22.2883C33.5004 23.1386 37.887 22.8535 38.9884 22.298C38.6406 22.182 38.3266 21.9985 38.0126 21.9888C36.1382 21.9212 34.2637 21.641 32.3893 21.9695C32.1719 22.0081 31.9739 22.1482 31.6695 22.2835L31.6647 22.2883ZM20.5196 22.3753C22.5921 22.955 26.0656 23.0371 27.6212 22.3753C27.2395 21.5975 22.2443 21.5782 20.5196 22.3753ZM29.8096 24.2449C29.7323 24.2449 29.6598 24.2449 29.5825 24.2449V29.7522C29.6453 29.7522 29.7033 29.7522 29.7661 29.7522C30.1333 27.9164 30.2057 26.0806 29.8096 24.2449ZM29.7178 22.9357C29.969 22.6265 30.254 22.4284 30.254 22.2255C30.254 22.0419 29.9593 21.7183 29.7806 21.7086C29.6067 21.6989 29.2782 21.9936 29.2589 22.1772C29.2395 22.3801 29.5004 22.6072 29.713 22.9405L29.7178 22.9357Z" fill="black"/>
<path d="M14.5195 12.2591C14.5195 11.3943 15.0316 10.9064 15.8625 10.8677C16.7128 10.8243 17.2587 11.718 17.2442 12.2929C17.2297 12.8726 16.6403 13.6939 15.8625 13.6504C15.0461 13.6069 14.5195 13.1045 14.5195 12.2591Z" fill="black"/>
<path d="M17.307 19.6265C17.2829 18.9647 17.8384 18.2255 18.7322 18.3173C19.4858 18.3946 20.0993 18.9888 20.0752 19.7183C20.051 20.443 19.2829 21.1483 18.5534 21.1C17.9302 21.0565 17.2249 20.4526 17.307 19.6265ZM17.8433 19.67C17.8433 20.1048 18.2781 20.5637 18.679 20.5009C19.1138 20.4285 19.4472 20.1676 19.4955 19.7038C19.5389 19.2835 19.1042 18.9115 18.6404 18.9164C18.1283 18.9212 17.8433 19.1917 17.8433 19.67Z" fill="black"/>
<path d="M17.8433 19.67C17.8433 20.1048 18.2781 20.5637 18.679 20.5009C19.1138 20.4285 19.4472 20.1676 19.4955 19.7038C19.5389 19.2835 19.1042 18.9115 18.6404 18.9164C18.1283 18.9212 17.8433 19.1917 17.8433 19.67Z" fill="black"/>
<path d="M15.65 16.1915C15.6548 15.4572 16.3505 14.7326 17.0316 14.7857C17.5727 14.8244 18.4906 15.4476 18.4326 16.2302C18.3747 17.0031 17.8046 17.5684 16.9833 17.5539C16.1089 17.5442 15.6403 17.0659 15.65 16.1867V16.1915ZM17.0075 16.9983C17.4858 16.9983 17.8094 16.7036 17.8239 16.235C17.8384 15.8437 17.365 15.2978 17.022 15.3799C16.6258 15.4765 16.2104 15.6166 16.2007 16.1674C16.1959 16.6746 16.4906 16.9935 17.0075 16.9983Z" fill="black"/>
<path d="M17.0075 16.9983C17.4858 16.9983 17.8094 16.7036 17.8239 16.235C17.8384 15.8437 17.365 15.2978 17.022 15.3799C16.6258 15.4765 16.2104 15.6166 16.2007 16.1674C16.1959 16.6746 16.4906 16.9935 17.0075 16.9983Z" fill="black"/>
<path d="M44.0899 10.5876C44.8194 10.5876 45.5296 11.235 45.4861 11.9065C45.4329 12.7471 44.7808 13.3896 44.0416 13.3413C43.3894 13.2978 42.7421 12.921 42.7469 11.9403C42.7566 11.0659 43.2107 10.5876 44.0899 10.5876Z" fill="black"/>
<path d="M42.8097 19.5344C42.8097 20.317 42.2107 20.8629 41.3991 20.8968C40.7034 20.9257 40.0319 20.2253 40.0319 19.5441C40.0319 18.7711 40.6841 18.1045 41.4522 18.1141C42.23 18.1238 42.8097 18.7277 42.8146 19.5344H42.8097ZM42.23 19.5248C42.23 19.1045 41.8532 18.7035 41.4474 18.6938C41.0802 18.6842 40.5923 19.1818 40.602 19.5537C40.6116 19.9595 41.0029 20.2977 41.4522 20.2929C41.9643 20.2929 42.2252 20.0368 42.23 19.5248Z" fill="black"/>
<path d="M42.23 19.5248C42.23 19.1045 41.8532 18.7035 41.4474 18.6938C41.0802 18.6842 40.5923 19.1818 40.602 19.5537C40.6116 19.9595 41.0029 20.2977 41.4522 20.2929C41.9643 20.2929 42.2252 20.0368 42.23 19.5248Z" fill="black"/>
<path d="M41.3798 15.5298C41.3798 14.7472 41.9305 14.24 42.7421 14.1965C43.5489 14.1578 44.1479 14.7955 44.1479 15.5443C44.1479 16.2835 43.4812 16.9695 42.7566 16.9646C42.003 16.9598 41.3798 16.3125 41.3798 15.5298ZM41.974 15.6651C41.974 16.0081 42.3701 16.4187 42.7856 16.3994C43.1479 16.3849 43.6117 15.868 43.5923 15.5009C43.5779 15.1385 43.1044 14.7037 42.7276 14.7472C42.259 14.8004 41.9546 15.0371 41.9691 15.6651H41.974Z" fill="black"/>
<path d="M41.974 15.6651C41.974 16.0081 42.3701 16.4187 42.7856 16.3994C43.1479 16.3849 43.6117 15.868 43.5923 15.5009C43.5779 15.1385 43.1044 14.7037 42.7276 14.7472C42.259 14.8004 41.9546 15.0371 41.9691 15.6651H41.974Z" fill="black"/>
<path d="M38.2782 31.9599C37.5053 31.9503 36.9062 31.3174 36.9207 30.5348C36.9352 29.8053 37.5729 29.1724 38.2976 29.1773C39.0174 29.1773 39.7179 29.8729 39.7082 30.5831C39.6985 31.3609 39.0657 31.9696 38.2782 31.9599Z" fill="black"/>
<path d="M20.3215 30.3754C20.2249 29.5444 21.0655 28.9937 21.7273 29.042C22.394 29.0903 23.1042 29.7763 23.0897 30.4043C23.0752 31.0758 22.2926 31.8778 21.6404 31.8102C20.8336 31.7232 20.2442 31.3174 20.3167 30.3754H20.3215Z" fill="black"/>
<path fill-rule="evenodd" clip-rule="evenodd" d="M19.5969 26.0661C20.3409 26.0999 20.9979 25.4622 21.0124 24.6844C21.0752 24.0226 20.4327 23.2399 19.7032 23.2738C18.9109 23.3124 18.2491 23.8728 18.2298 24.6264C18.2104 25.3028 18.9013 26.0322 19.5969 26.0661ZM18.8626 24.6699C18.824 24.2061 19.138 23.8873 19.6163 23.8776C20.1332 23.8486 20.3989 24.0854 20.4037 24.6071C20.4134 25.0902 20.0655 25.496 19.6211 25.4574C19.1621 25.4139 18.9013 25.1289 18.8626 24.6699ZM41.4522 24.5975C41.4764 23.9067 40.8483 23.2062 40.1672 23.2883C39.428 23.2835 38.6744 23.9405 38.6599 24.6168C38.6454 25.2497 39.4522 26.0565 40.1092 26.0661C40.9063 26.0758 41.4184 25.4864 41.4522 24.5975ZM40.114 23.8777C40.6261 23.8825 40.9015 24.1531 40.9015 24.6362H40.9063C40.9015 25.0758 40.5343 25.4623 40.1189 25.4623C39.7469 25.4623 39.2541 24.9743 39.259 24.612C39.2638 24.2207 39.6696 23.8777 40.114 23.8777ZM40.5778 29.4575C41.4136 29.4623 41.9836 28.9309 41.9884 28.1483H41.9836C41.9884 27.385 41.3701 26.6942 40.6647 26.6797C39.9304 26.6652 39.201 27.356 39.1961 28.0806C39.1913 28.8391 39.8097 29.4575 40.5778 29.4575ZM19.1476 29.4576C18.3505 29.4576 17.8191 28.9407 17.8094 28.1436C17.7998 27.3416 18.3892 26.6894 19.138 26.6798C19.8143 26.6701 20.5679 27.4093 20.5776 28.0856C20.5873 28.8054 19.9109 29.4528 19.1476 29.4576Z" fill="black"/>
</svg>
