<svg width="464" height="352" viewBox="0 0 464 352" fill="none" xmlns="http://www.w3.org/2000/svg">
<path d="M359.095 33.9871C372.253 33.9871 385.41 33.9871 398.581 33.9871C401.797 33.9871 403.282 35.3703 403.553 38.5978C403.593 39.0996 403.593 39.6149 403.593 40.1166C403.593 65.0689 403.593 90.0211 403.593 114.96C403.593 117.455 403.215 119.665 400.554 120.669C399.892 120.913 399.149 121.089 398.446 121.089C372.185 121.117 345.911 121.117 319.65 121.089C316.394 121.089 314.624 119.272 314.624 116.004C314.624 90.3195 314.665 64.6349 314.57 38.9504C314.557 35.5601 316.637 33.9328 319.623 33.9464C332.78 33.9871 345.938 33.9599 359.109 33.9599L359.095 33.9871ZM358.96 118.987C372.01 118.987 385.059 118.96 398.109 119.015C401.31 119.015 401.878 118.133 401.878 115.312C401.851 90.0889 401.864 64.8519 401.864 39.6149C401.864 36.6179 400.986 35.7364 398.001 35.7364C372.023 35.7364 346.032 35.7364 320.055 35.7364C317.083 35.7364 316.286 36.5636 316.286 39.4793C316.286 64.7163 316.286 89.9398 316.272 115.177C316.272 118.513 316.988 119.015 320.001 119.001C332.996 118.96 345.978 118.987 358.974 118.987H358.96Z" fill="black"/>
<path d="M402.487 175.754C402.487 188.962 402.487 202.171 402.487 215.366C402.487 218.715 400.461 220.763 397.151 220.763C371.728 220.763 346.318 220.722 320.908 220.831C318.071 220.831 315.518 218.078 315.531 215.42C315.612 188.949 315.572 162.478 315.585 136.02C315.585 132.928 317.382 131.192 320.489 131.192C346.183 131.192 371.89 131.192 397.584 131.192C400.745 131.192 402.487 132.942 402.487 136.142C402.487 149.351 402.487 162.559 402.487 175.754ZM400.623 175.767C400.623 162.898 400.623 150.029 400.623 137.159C400.623 133.525 399.84 132.752 396.192 132.752C371.336 132.752 346.48 132.752 321.61 132.752C321.11 132.752 320.516 132.589 320.111 132.793C319.287 133.227 318.341 133.715 317.855 134.447C317.382 135.179 317.247 136.251 317.247 137.173C317.22 162.857 317.22 188.542 317.22 214.226C317.22 214.62 317.193 215.027 317.247 215.406C317.598 217.807 318.341 218.607 320.34 218.607C346.102 218.607 371.863 218.607 397.611 218.634C399.259 218.634 400.11 217.888 400.42 216.383C400.569 215.677 400.583 214.932 400.583 214.199C400.583 201.384 400.583 188.569 400.583 175.754L400.623 175.767Z" fill="black"/>
<path d="M359.108 231.585C372.427 231.585 385.76 231.653 399.08 231.531C402.052 231.503 403.403 233.294 403.565 235.748C403.592 236.141 403.578 236.535 403.578 236.928C403.578 262.097 403.578 287.266 403.578 312.422C403.578 312.992 403.578 313.548 403.497 314.104C403.119 316.965 401.822 318.104 398.945 318.118C375.494 318.118 352.056 318.118 328.605 318.118C325.349 318.118 322.08 318.131 318.824 318.118C316.163 318.104 314.623 316.599 314.623 313.981C314.623 287.849 314.61 261.731 314.623 235.599C314.623 232.805 315.934 231.585 318.784 231.585C332.225 231.585 345.653 231.585 359.094 231.585H359.108ZM358.959 233.049C345.855 233.049 332.765 233.049 319.662 233.049C317.001 233.049 316.271 233.768 316.271 236.467C316.271 262.029 316.271 287.592 316.271 313.154C316.271 315.622 317.055 316.422 319.473 316.422C345.734 316.422 371.981 316.422 398.243 316.422C401.147 316.422 401.849 315.704 401.849 312.842C401.849 287.456 401.822 262.056 401.89 236.67C401.89 234.392 400.755 232.995 398.256 233.022C385.153 233.131 372.062 233.077 358.959 233.077V233.049Z" fill="black"/>
<path d="M232.05 131.351C256.366 131.311 276.372 151.449 276.102 176.048C275.832 200.404 256.339 220.42 231.037 220.027C207.437 219.661 187.755 200.675 187.633 175.682C187.525 151.232 207.613 131.08 232.05 131.351ZM231.793 218.047C255.65 218.359 274.157 198.682 274.306 176.157C274.454 151.978 255.339 133.074 231.793 133.114C208.275 133.169 189.362 151.883 189.376 175.777C189.389 198.777 207.856 218.25 231.793 218.06V218.047Z" fill="black"/>
<path d="M232.009 230.293C256.487 230.008 276.305 250.458 276.102 274.624C275.886 299.549 256.312 318.846 231.807 318.86C207.626 318.873 187.552 299.617 187.633 274.054C187.701 250.444 207.207 229.845 232.009 230.279V230.293ZM230.375 316.92C253.313 317.219 273.157 300.281 274.251 276.468C275.318 253.102 257.838 232.978 233.428 231.974C210.733 231.039 190.551 248.071 189.389 273.173C188.889 283.94 192.334 293.812 199.44 301.976C207.95 311.727 218.73 317.029 230.375 316.92Z" fill="black"/>
<path d="M231.872 120.651C219.769 121.411 209.651 116.787 201.1 108.636C192.143 100.093 187.685 89.3662 187.618 76.9579C187.496 52.3853 207.395 32.532 231.791 32.5049C256.283 32.4778 276.289 52.5616 276.1 77.2291C276.006 89.4883 271.413 100.107 262.618 108.569C254.108 116.759 243.976 121.424 231.872 120.651ZM232.399 119.295C256.296 118.983 275.047 99.1979 274.263 75.4526C273.507 52.1819 254.5 33.4406 230.319 34.2814C207.246 35.0679 189.158 53.7008 189.36 77.1884C189.577 101.327 209.151 119.634 232.386 119.295H232.399Z" fill="black"/>
<path d="M94.8072 137.59C99.4677 137.59 104.128 137.59 108.802 137.59C110.639 137.59 112.274 139.055 112.274 140.913C112.315 150.216 112.328 159.518 112.274 168.821C112.274 170.828 109.775 173.093 107.681 171.574C106.871 170.991 106.29 169.567 106.263 168.509C106.141 160.956 106.195 153.402 106.195 145.835C106.195 144.298 105.425 143.53 103.885 143.53C96.5769 143.53 89.2821 143.53 81.9739 143.516C81.2174 143.516 80.4339 143.354 79.7179 143.11C78.0293 142.526 77.3674 141.469 77.7862 139.814C78.1509 138.417 78.9884 137.536 80.65 137.563C85.3646 137.631 90.0927 137.59 94.8072 137.59Z" fill="black"/>
<path d="M84.4823 76.8908C84.4823 72.2665 84.4688 67.6422 84.4823 63.0179C84.4958 60.5226 85.4684 59.6005 87.9405 59.5869C97.0454 59.5869 106.15 59.5869 115.255 59.5869C117.538 59.5869 118.619 60.5633 118.632 62.5839C118.646 64.3061 117.201 65.5944 115.147 65.608C107.555 65.6216 99.9768 65.608 92.3849 65.608C90.1424 65.608 90.0884 65.6758 90.0749 67.8591C90.0749 75.4126 90.1019 82.9796 90.0344 90.5331C90.0344 91.5095 89.6966 92.7164 89.0617 93.3674C88.4944 93.9505 87.184 94.2895 86.4005 94.059C85.3468 93.7471 84.4688 92.8249 84.4688 91.4417C84.4823 86.5869 84.4688 81.7456 84.4688 76.8908H84.4823Z" fill="black"/>
<path d="M360.095 75.5787C360.041 76.5415 359.973 77.328 359.973 78.101C359.973 85.4375 360.014 92.7605 359.919 100.097C359.906 101.236 359.5 102.633 358.757 103.406C358.15 104.03 356.623 104.287 355.758 103.975C354.975 103.691 354.475 102.457 354.029 101.562C353.8 101.1 353.962 100.45 353.962 99.8936C353.962 91.1467 353.989 82.4134 353.948 73.6666C353.948 70.8866 355.313 69.6254 357.906 69.6118C366.89 69.5305 375.887 69.5712 384.883 69.5847C386.369 69.5847 388.18 70.8323 388.504 72.1071C388.841 73.4225 388.153 74.4396 387.139 75.0905C386.545 75.4702 385.694 75.5787 384.951 75.5787C377.305 75.6058 369.673 75.6058 362.027 75.6058C361.473 75.6058 360.905 75.6058 360.108 75.6058L360.095 75.5787Z" fill="black"/>
<path d="M349.385 170.655C353.829 170.655 358.274 170.655 362.705 170.655C365.339 170.655 366.865 172.133 366.865 174.791C366.892 183.701 366.879 192.624 366.865 201.533C366.865 203.106 366.23 204.53 364.744 205.005C363.893 205.276 362.596 205.005 361.867 204.462C361.259 204.015 360.948 202.835 360.935 201.981C360.867 194.251 360.854 186.521 360.935 178.805C360.948 177.164 360.489 176.69 358.868 176.717C351.168 176.798 343.468 176.744 335.768 176.757C334.309 176.757 333.093 176.296 332.512 174.886C331.621 172.716 333.161 170.696 335.728 170.668C340.28 170.628 344.832 170.668 349.385 170.668V170.655Z" fill="black"/>
<path d="M364.082 265.202C364.082 269.663 364.096 274.111 364.082 278.573C364.069 281.448 362.988 282.506 360.138 282.506C351.195 282.506 342.252 282.465 333.323 282.533C330.932 282.56 329.689 280.933 329.635 279.522C329.567 277.773 331.134 276.444 333.269 276.444C340.753 276.444 348.223 276.444 355.707 276.444C357.256 276.444 358.03 275.639 358.03 274.03C358.03 266.694 357.963 259.357 358.098 252.021C358.111 250.827 358.638 249.268 359.489 248.549C361.421 246.908 364.015 248.251 364.055 250.814C364.136 255.614 364.082 260.401 364.082 265.202C364.082 265.202 364.096 265.202 364.109 265.202H364.082Z" fill="black"/>
<path d="M237.697 187.467C237.697 192.2 237.657 196.933 237.724 201.679C237.738 203.089 237.008 204.052 235.901 204.364C235.009 204.608 233.888 204.256 232.956 203.944C232.577 203.822 232.253 203.116 232.159 202.628C231.997 201.747 231.983 200.838 231.983 199.93C231.983 193 231.983 186.057 231.983 179.127C231.983 177.129 230.961 176.13 228.917 176.13C221.554 176.13 214.192 176.13 206.843 176.13C205.506 176.13 204.304 175.805 203.682 174.516C202.656 172.374 204.074 170.15 206.465 170.055C206.803 170.055 207.14 170.055 207.478 170.055C216.191 170.055 224.891 170.055 233.604 170.055C236.644 170.055 237.724 171.126 237.724 174.137C237.724 178.585 237.724 183.046 237.724 187.494L237.697 187.467Z" fill="black"/>
<path d="M219.942 280.455C215.444 280.455 210.959 280.455 206.461 280.455C204.299 280.455 202.867 279.234 202.867 277.403C202.867 275.586 204.272 274.393 206.515 274.393C214.215 274.379 221.901 274.339 229.601 274.406C231.114 274.406 231.506 273.918 231.492 272.467C231.438 264.968 231.452 257.469 231.465 249.97C231.465 249.129 231.411 248.193 231.776 247.488C232.37 246.308 233.383 245.467 234.883 245.752C236.18 245.996 237.531 247.773 237.531 249.251C237.531 258.445 237.558 267.626 237.504 276.82C237.504 277.485 237.152 278.19 236.801 278.8C236.139 279.953 235.14 280.482 233.748 280.468C229.142 280.414 224.535 280.455 219.929 280.455H219.942Z" fill="black"/>
<path d="M243.625 71.0195C248.394 71.0195 253.176 71.0195 257.945 71.0195C259.228 71.0195 260.309 71.6027 260.471 72.7554C260.619 73.786 260.309 75.0878 259.741 75.9557C259.403 76.4846 258.174 76.5931 257.337 76.5931C249.758 76.6338 242.166 76.6202 234.588 76.6202C233.003 76.6202 232.21 77.4339 232.21 79.0612C232.21 86.6147 232.156 94.1682 232.237 101.722C232.264 104.122 230.886 105.437 229.292 105.397C227.455 105.342 226.145 103.796 226.145 101.613C226.145 92.7036 226.104 83.794 226.172 74.8844C226.199 72.1858 227.374 70.8839 229.968 70.9517C234.52 71.0738 239.073 70.9924 243.612 70.9924L243.625 71.0195Z" fill="black"/>
<path d="M170.146 218.016H22.1172V329.454H170.146V218.016Z" fill="white"/>
<path fill-rule="evenodd" clip-rule="evenodd" d="M166.638 221.325H25.3914V326.112H166.638V221.325ZM170.029 218V329.438H22V218H170.029Z" fill="#0070F3"/>
<path d="M86.9541 285.857C86.9876 274.129 89.9697 270.495 95.476 266.96C99.8095 264.196 103.104 261.498 103.104 257.272C103.104 253.047 99.843 250.416 95.7552 250.416C91.6674 250.416 87.9593 253.326 87.8476 258.131H71.8984C72.1106 243.593 82.8551 237.127 95.8892 237.127C110.174 237.127 120.539 243.905 120.539 256.47C120.539 264.742 116.138 269.759 109.482 273.661C104.244 276.771 101.719 279.714 101.719 285.835V287.251H86.9541V285.835V285.857ZM85.6027 300.974C85.5357 296.058 89.6235 292.078 94.616 292.078C99.6085 292.078 103.562 296.058 103.629 300.974C103.562 305.958 99.3628 309.971 94.616 309.971C89.6235 309.971 85.5357 305.958 85.6027 300.974Z" fill="#0070F3"/>
</svg>
