<svg width="60" height="42" viewBox="0 0 60 42" fill="none" xmlns="http://www.w3.org/2000/svg">
<path d="M26.816 26.5994C26.2202 26.9162 25.7426 27.2188 25.2273 27.4269C24.6882 27.6444 24.1161 27.8098 23.544 27.9186C22.8962 28.0415 22.2295 28.155 21.5723 28.1408C20.3051 28.1172 19.038 28.0179 17.7708 27.9281C17.4824 27.9091 17.1892 27.8288 16.915 27.7295C16.5604 27.6018 16.3287 27.5829 16.6455 27.0013C17.6242 25.2046 18.9387 23.6868 20.3051 22.2116C20.7921 21.6868 21.5156 21.3747 22.1302 20.9728C22.3525 20.8262 22.5842 20.6938 22.901 20.5C22.3998 20.2777 21.9553 20.1453 21.5818 19.9042C20.4423 19.1619 19.35 18.3439 18.48 17.28C17.9221 16.5944 17.3547 15.9135 16.7968 15.2279C16.5509 14.9253 16.2908 14.6322 16.097 14.2965C16.0024 14.1357 15.9646 13.8568 16.0402 13.7007C16.097 13.5778 16.3712 13.5447 16.5556 13.5069C16.8157 13.4501 17.0994 13.4643 17.35 13.3839C19.1704 12.8071 21.0427 12.7125 22.9151 12.8827C24.0594 12.9867 25.2225 13.2279 26.1351 14.0648C26.3337 14.2445 26.5937 14.3579 26.8869 14.5424C26.8491 14.2019 26.8065 13.9088 26.7829 13.6109C26.6646 12.0931 27.0335 10.651 27.686 9.31762C28.3574 7.93697 29.1943 6.63197 29.9555 5.29387C30.1588 4.93452 30.4189 4.89197 30.6175 5.23713C31.4071 6.57995 32.1778 7.93697 32.9343 9.29871C33.8421 10.93 33.8611 12.7031 33.7476 14.4951C33.7476 14.5471 33.776 14.6038 33.8138 14.7504C34.0596 14.5471 34.2582 14.3579 34.4805 14.2066C35.7287 13.3556 37.1141 12.8969 38.6271 12.8071C39.1473 12.7787 39.6626 12.6038 40.1733 12.6179C41.2844 12.651 42.3956 12.7551 43.5067 12.8496C43.9701 12.8875 44.1214 13.2043 43.8992 13.6393C43.0859 15.2469 42.0882 16.7315 40.9251 18.1075C40.074 19.1193 39.0101 19.8191 37.8233 20.3676C37.7051 20.4196 37.6106 20.552 37.5538 20.6702C37.5349 20.7033 37.6815 20.8782 37.7666 20.8924C39.0054 21.0863 39.6768 22.0697 40.4617 22.8594C41.918 24.3251 43.015 26.0509 43.8708 27.9281C44.093 28.4198 43.9228 28.746 43.3885 28.7413C41.4452 28.7271 39.4971 28.9021 37.5727 28.434C36.3812 28.1408 35.3032 27.6444 34.2771 27.006C34.1779 26.9446 34.0502 26.9304 33.9367 26.8973C33.9036 27.0344 33.8185 27.1904 33.8516 27.3087C34.1495 28.3158 33.7618 29.2283 33.5395 30.1834C33.1755 31.7532 32.3102 33.0724 31.5726 34.4531C31.3409 34.8833 31.0619 35.29 30.7593 35.6729C30.3385 36.1978 29.8657 36.2072 29.5489 35.6209C28.8396 34.3065 28.1966 32.9589 27.5488 31.6114C26.797 30.0463 26.5701 28.3914 26.8112 26.59L26.816 26.5994ZM30.2534 5.84708C30.1352 6.08349 30.0737 6.25371 29.9792 6.40028C29.0382 7.88496 28.1824 9.41219 27.7521 11.138C27.232 13.2374 27.3266 15.1665 29.199 16.6464C29.7806 17.1051 30.3905 17.2895 30.8633 17.02C32.3291 16.1925 33.1849 14.9395 33.1565 13.2468C33.1424 12.3106 32.9343 11.3555 32.6648 10.4524C32.192 8.85898 31.3598 7.42631 30.2534 5.84235V5.84708ZM43.171 13.6534C42.5705 13.5731 42.0835 13.469 41.5918 13.4454C39.7194 13.3556 37.899 13.5352 36.1117 14.2019C34.5514 14.7788 33.6341 15.8143 33.2842 17.4029C33.1282 18.1075 33.0904 18.8593 33.7807 19.2422C34.4143 19.5921 35.1613 19.838 35.88 19.9137C37.4498 20.0791 38.6792 19.2801 39.795 18.2682C41.2041 16.9869 42.1781 15.3934 43.171 13.6487V13.6534ZM30.0926 34.9495C30.2439 34.8219 30.3811 34.7557 30.4425 34.6469C30.9295 33.8289 31.4024 33.0062 31.8752 32.1835C32.0643 31.8478 32.3007 31.5263 32.4142 31.1669C32.6459 30.4435 32.7641 29.6822 33.01 28.9635C33.3315 28.0274 33.1613 27.1053 32.8587 26.2637C32.4993 25.2613 31.6057 24.6183 30.7641 24.0036C30.5986 23.8807 30.2298 23.8759 30.0406 23.9752C28.5701 24.7601 27.686 25.9564 27.5725 27.668C27.4637 29.3749 28.0879 30.8974 28.7498 32.401C29.1281 33.2521 29.6151 34.0559 30.0926 34.9495ZM17.5013 27.077C18.584 27.1763 19.4966 27.3228 20.4044 27.3323C21.2319 27.3418 22.0593 27.233 22.882 27.1243C23.5251 27.0391 24.1776 26.9399 24.797 26.7413C25.9318 26.3819 26.7072 25.5687 27.2604 24.5426C28.0784 23.0107 27.5252 21.5875 25.979 21.2328C24.2721 20.8404 22.7402 21.299 21.4115 22.3487C20.6881 22.9208 20.0829 23.6584 19.4919 24.3771C18.8157 25.2046 18.2152 26.0935 17.4965 27.077H17.5013ZM42.911 27.9659C42.632 27.3985 42.4287 26.9682 42.2112 26.5474C41.4877 25.1526 40.405 24.0461 39.3742 22.8783C38.2442 21.5922 35.4876 20.8593 33.8563 21.9374C33.4497 22.2069 33.2748 22.4622 33.2511 22.883C33.1518 24.7838 34.4616 26.4056 35.9793 27.1006C37.1567 27.6396 38.4238 27.9139 39.7241 27.9612C40.7549 27.999 41.7904 27.9706 42.911 27.9706V27.9659ZM17.3216 14.339C17.7093 14.9159 18.0308 15.5022 18.4611 15.9939C19.0096 16.6228 19.6432 17.1854 20.2579 17.7528C20.4895 17.9703 20.8394 18.0791 21.0191 18.325C21.6527 19.1997 22.6409 19.4219 23.5629 19.5732C24.745 19.7671 25.946 19.6536 26.9625 18.8025C27.4637 18.3817 27.6481 18.0129 27.3928 17.4124C27.3313 17.2753 27.3077 17.1192 27.2793 16.9679C27.0996 16.027 26.5748 15.2563 25.7805 14.8119C24.7875 14.2539 23.7 13.8189 22.5416 13.7149C20.8016 13.5589 19.0947 13.7953 17.3216 14.3438V14.339ZM30.4473 23.11C32.1447 23.2518 33.1566 21.6868 33.0904 20.5331C33.0147 19.2233 32.2014 17.9372 30.5324 17.9089C28.9437 17.8805 27.8373 19.1193 27.8373 20.5709C27.8373 21.9468 29.024 23.11 30.4473 23.1147V23.11ZM32.3953 17.7718C32.5088 17.3178 32.5939 16.9869 32.679 16.6559C32.6317 16.6464 32.5844 16.6417 32.5419 16.6322C32.3007 16.845 32.0596 17.0578 31.7901 17.2942C31.9792 17.4408 32.1258 17.5543 32.4 17.7718H32.3953ZM27.0004 20.883V19.7718C26.6694 19.9515 26.4188 20.0886 26.0736 20.2777C26.414 20.5 26.6457 20.6513 27.0004 20.883ZM34.7169 20.6371C34.6885 20.5378 34.6601 20.4385 34.6318 20.3392C34.3575 20.4007 34.0833 20.4574 33.8138 20.5425C33.7949 20.5472 33.8469 20.7789 33.8658 20.9019L34.7169 20.6371ZM28.0926 17.0578C28.3574 17.2469 28.1351 17.8521 28.712 17.6441C28.8066 17.611 28.9295 17.3462 28.8964 17.2989C28.7262 17.0672 28.5512 16.741 28.0926 17.0625V17.0578ZM28.4094 23.9752C28.4661 24.0083 28.5229 24.0414 28.5796 24.0698C28.6931 23.9138 28.8018 23.753 28.9153 23.597C28.7735 23.5024 28.6363 23.4078 28.4094 23.2518V23.9752ZM32.2724 24.1313C32.3291 24.1218 32.3858 24.1124 32.4426 24.1029C32.4142 23.8712 32.3906 23.6395 32.3575 23.4078C32.3575 23.3937 32.2865 23.3889 32.2109 23.37C32.1163 23.4835 32.0123 23.6112 31.9036 23.7435C32.0407 23.8901 32.1542 24.0131 32.2676 24.136L32.2724 24.1313Z" fill="black"/>
<path d="M30.4213 17.5298V5.70911M30.4213 23.4401V35.4972M17.1821 27.4591L27.8207 21.7852M33.2582 18.9482L43.424 13.5107M17.1821 14.22L27.8207 18.9482M33.2582 22.258L43.424 28.1683" stroke="black" stroke-width="0.709239"/>
</svg>
