<svg width="60" height="42" viewBox="0 0 60 42" fill="none" xmlns="http://www.w3.org/2000/svg">
<path fill-rule="evenodd" clip-rule="evenodd" d="M24.2115 17.7767H24.2213C24.0575 17.7767 23.9154 17.7779 23.7874 17.779C23.5659 17.781 23.3864 17.7825 23.2088 17.7767C22.273 17.7474 21.3367 17.7193 20.4002 17.6913C18.2282 17.6263 16.0553 17.5613 13.8847 17.4804C13.3293 17.4619 13.0442 17.6285 13 18.1747C13.048 18.2016 13.0956 18.2297 13.1431 18.2578C13.2512 18.3218 13.3592 18.3857 13.4719 18.4339C14.1748 18.739 14.8778 19.0445 15.5808 19.3501C18.0141 20.4076 20.4488 21.4658 22.8893 22.5072C23.5271 22.7783 23.8429 22.9066 23.9992 23.1377C24.1525 23.3642 24.1525 23.6894 24.1525 24.3448C24.1488 25.2405 24.1493 26.1368 24.1498 27.0332C24.1505 28.5274 24.1513 30.0219 24.1329 31.5147C24.123 31.9915 24.3147 32.2784 24.7227 32.4775C25.2162 32.721 25.7112 32.962 26.2062 33.2031C27.0471 33.6126 27.8883 34.0222 28.7236 34.4447C30.8863 35.5417 33.0391 36.648 35.1871 37.7681C35.6491 38.0088 36.062 38.1153 36.5584 37.8236C37.0835 37.5164 37.6344 37.2426 38.1824 36.9702C38.3114 36.9061 38.4403 36.842 38.5687 36.7776C39.3517 36.385 40.1334 35.9903 40.915 35.5957C42.7782 34.6551 44.6413 33.7145 46.5215 32.8015C47.3865 32.3849 47.6962 31.848 47.6863 30.9222C47.6355 27.0411 47.6542 23.16 47.673 19.2789C47.6742 19.0358 47.6754 18.7928 47.6765 18.5497C47.5861 17.8763 47.324 17.6075 46.5313 17.2953C45.6602 16.9661 44.7815 16.6513 43.9029 16.3364C43.2 16.0845 42.497 15.8326 41.798 15.5734C41.1845 15.3471 40.576 15.1086 39.9677 14.8701C39.5182 14.694 39.0689 14.5179 38.6179 14.3468C38.2358 14.2022 37.8471 14.0699 37.4347 13.9296C37.2264 13.8586 37.0121 13.7857 36.7894 13.708L36.7796 13.7126C36.18 13.3689 35.821 13.4465 35.1723 13.6802C34.78 13.8287 34.3877 13.9774 33.9956 14.126C32.2606 14.7835 30.5265 15.4407 28.7826 16.0826C27.9909 16.3735 27.1887 16.6426 26.3469 16.925C25.9031 17.0739 25.4483 17.2264 24.9783 17.3878L24.9734 17.3971C24.9727 17.3952 24.972 17.3933 24.9714 17.3913L24.2115 17.7767ZM24.7723 16.8115L24.773 16.8136C24.8332 16.9887 24.8935 17.164 24.9536 17.3394M45.89 19.1688C46.2029 19.0233 46.5268 18.8726 46.8704 18.7163V18.7255C46.8795 18.8632 46.8891 18.9809 46.8978 19.0859C46.9127 19.267 46.9245 19.4106 46.9245 19.5541C46.9245 20.5168 46.9239 21.4799 46.9233 22.4431C46.9214 25.333 46.9196 28.2248 46.9343 31.1166C46.9392 31.6027 46.7475 31.8619 46.2953 32.0887C45.1418 32.6614 43.9966 33.2497 42.851 33.8383C42.0245 34.2629 41.1978 34.6876 40.3677 35.1066C39.4549 35.5654 38.535 36.0108 37.5845 36.4709C37.1734 36.6699 36.7567 36.8716 36.3323 37.0784C36.3238 36.9959 36.3145 36.9176 36.3056 36.8423C36.2835 36.6557 36.2635 36.4875 36.2635 36.3193C36.262 35.0633 36.2623 33.8068 36.2627 32.5501C36.2635 29.7219 36.2643 26.8922 36.2438 24.0625C36.2389 23.5209 36.465 23.2571 36.9221 23.0627C37.6058 22.769 38.2899 22.4756 38.974 22.1822C40.813 21.3936 42.6524 20.6048 44.4866 19.8087C44.9492 19.6063 45.4064 19.3937 45.89 19.1688ZM35.4426 36.796C35.4346 36.8789 35.4261 36.9663 35.4181 37.0599L35.4132 37.0553C33.2338 35.9598 31.1771 34.9243 29.1205 33.8889L29.1119 33.8846C28.8351 33.7465 28.5578 33.6092 28.2805 33.4718C27.3119 32.9919 26.3426 32.5117 25.3911 32.0007C25.1847 31.8896 24.9832 31.561 24.9832 31.3296C24.9675 29.6889 24.9658 28.0463 24.9641 26.403C24.9632 25.4641 24.9622 24.5249 24.9586 23.5857C24.9586 23.2015 25.0716 23.0256 25.514 23.0395C28.6646 23.1414 31.8103 23.2386 34.961 23.3265C35.3247 23.3358 35.482 23.5116 35.482 23.831V24.2337V36.199C35.482 36.3873 35.4638 36.5757 35.4426 36.796ZM25.5337 18.2025C25.5288 18.147 25.5239 18.0868 25.5239 18.0312C25.8514 17.9042 26.179 17.7754 26.5067 17.6466C27.0987 17.4138 27.6914 17.1808 28.2862 16.9574C28.8834 16.7314 29.4822 16.5136 30.0807 16.2958C30.5856 16.1121 31.0904 15.9285 31.5941 15.74C32.0486 15.5705 32.5006 15.3948 32.9523 15.2193C33.7462 14.9108 34.5393 14.6026 35.3443 14.3283C35.6835 14.2125 36.1504 14.2125 36.4896 14.3329C37.4133 14.664 38.3261 15.024 39.2391 15.3841C39.8321 15.618 40.4252 15.8519 41.0214 16.0779C42 16.4478 42.9849 16.8057 43.9692 17.1634C44.4879 17.3519 45.0064 17.5403 45.5237 17.7304C45.6991 17.7953 45.8725 17.8677 46.0782 17.9536C46.1954 18.0025 46.323 18.0558 46.4674 18.1146C45.2877 18.6376 44.2211 19.1097 43.1546 19.5819C42.3829 19.9221 41.61 20.2623 40.8371 20.6025C40.0641 20.9427 39.2912 21.2829 38.5196 21.6231C38.3035 21.7178 38.0886 21.8157 37.8735 21.9136C37.3107 22.1699 36.7471 22.4266 36.1603 22.6276C35.8949 22.7155 35.4918 22.5859 35.2018 22.4563C33.406 21.6663 31.6146 20.8639 29.8232 20.0615C28.9276 19.6604 28.0321 19.2593 27.136 18.8598C26.7567 18.6928 26.3697 18.538 25.9823 18.3829C25.8327 18.323 25.683 18.2631 25.5337 18.2025ZM15.4527 18.508L15.5117 18.3136C15.5995 18.3089 15.6868 18.3016 15.7737 18.2943C15.9446 18.28 16.1139 18.2658 16.2833 18.2719C16.5817 18.2821 16.8799 18.2921 17.1781 18.3022C19.3315 18.3749 21.4821 18.4474 23.6364 18.545C23.8085 18.5497 24.1132 18.7579 24.1132 18.8829C24.1395 19.7025 24.1371 20.5221 24.1345 21.4198C24.1337 21.6984 24.1329 21.9845 24.1329 22.2804C21.1592 20.989 18.3035 19.7485 15.4527 18.508ZM24.9668 19.523C24.9676 19.2685 24.9684 19.0094 24.9684 18.7441L24.9734 18.7394C27.7848 19.9707 30.4636 21.1417 33.1424 22.3128V22.4609C33.0967 22.4671 33.0506 22.4742 33.0044 22.4814C32.8767 22.5011 32.7477 22.5211 32.6214 22.5211C32.2522 22.517 31.8827 22.5133 31.5132 22.5096C30.2246 22.4968 28.9344 22.484 27.6472 22.4517C26.8952 22.4332 26.1432 22.3545 25.3961 22.2619C25.2388 22.2434 24.9881 22.0351 24.9881 21.9101C24.9618 21.131 24.9642 20.3519 24.9668 19.523Z" fill="black"/>
<path d="M23.8134 16.2399C23.9657 16.7028 24.0591 17.1888 24.2115 17.7767L24.9714 17.3913L24.9536 17.3394C24.8935 17.164 24.8332 16.9887 24.773 16.8136L24.7723 16.8115C24.5533 16.175 24.3349 15.54 24.1279 14.9022C23.892 14.1709 23.6905 13.4349 23.4644 12.7036C23.2334 11.9584 22.9876 11.2178 22.7419 10.4772C22.5748 9.968 22.4224 9.45422 22.2209 8.95894C21.9702 8.32944 22.1324 7.93137 22.7615 7.71845C23.9166 7.32038 25.0667 6.91305 26.2218 6.51035C28.1928 5.8253 30.1589 5.14025 32.1249 4.45057C32.3314 4.38114 32.528 4.27468 32.7246 4.17747C33.3439 3.87661 33.5257 3.96455 33.6732 4.59869C34.0664 6.29743 34.4596 7.99617 34.8676 9.69028C35.1281 10.7688 35.4033 11.8473 35.6884 12.9211C35.8064 13.3701 35.5262 13.546 35.1723 13.6802C35.821 13.4465 36.18 13.3689 36.7796 13.7126C36.7823 13.7088 36.7851 13.705 36.7879 13.7011L36.5682 12.7175C36.4208 12.3749 36.3028 12.1666 36.2438 11.9445C35.9735 10.9076 35.7179 9.86617 35.4574 8.82934C35.251 8.01006 35.0347 7.1954 34.8381 6.37149C34.6022 5.38557 34.3957 4.39503 34.15 3.40911C34.0762 3.11287 33.914 2.89532 33.4864 3.05269C32.0807 3.56648 30.6553 4.02473 29.2495 4.53851C26.7231 5.455 24.2164 6.41315 21.69 7.31575C21.2329 7.48238 21.1395 7.6953 21.2526 8.08875C21.5721 9.19501 21.8571 10.3059 22.2061 11.3983C22.7222 13.0183 23.2874 14.6245 23.8134 16.2399Z" fill="black"/>
</svg>
