<svg width="60" height="42" viewBox="0 0 60 42" fill="none" xmlns="http://www.w3.org/2000/svg">
<path d="M26.259 13.252C27.8274 14.3683 28.8074 15.8428 29.5246 17.5156C30.1916 19.0659 30.4614 20.7106 30.3574 22.3752C30.2549 23.9844 29.8907 25.561 29.0059 26.9617C28.7202 27.4174 28.4795 27.9099 28.1675 28.344C27.7277 28.9493 27.6817 28.9367 27.0815 28.4447C25.5512 27.1902 24.0208 25.9357 22.4904 24.6812C21.5377 23.9002 20.5911 23.1117 19.6291 22.3419C19.2622 22.0474 19.1744 21.7873 19.5003 21.3897C21.6363 18.807 23.7535 16.209 25.8819 13.6202C25.9834 13.4964 26.108 13.3979 26.259 13.252ZM23.3338 23.767C24.2322 24.6603 25.804 24.2806 26.4187 23.4925C27.1403 22.5663 27.0386 21.0531 26.109 20.3663C25.2387 19.7219 23.8513 19.6319 22.9636 20.7606C22.2291 21.6949 22.3743 22.9867 23.3338 23.767Z" fill="black"/>
<path d="M29.539 30.5186C30.1521 29.5411 30.7685 28.7357 31.2003 27.8416C31.918 26.3541 32.3884 24.7705 32.5203 23.11C32.7057 20.7723 32.3553 18.5221 31.3656 16.3938C30.6079 14.7629 29.595 13.3055 28.2175 12.1323C27.796 11.7743 27.7611 11.5261 28.1017 11.103C29.223 9.68918 29.2272 9.6612 30.5521 10.8602C32.1192 12.2766 33.1434 14.0568 33.952 15.9928C34.6214 17.6014 35.0069 19.2657 35.0953 20.9939C35.2106 23.2709 34.9191 25.4779 34.0347 27.6126C33.4389 29.0433 32.7861 30.421 31.796 31.6288C31.5008 31.9889 31.2387 32.0562 30.8909 31.746C30.4217 31.3238 29.9556 30.8978 29.5427 30.5217L29.539 30.5186Z" fill="black"/>
</svg>
