<svg width="60" height="42" viewBox="0 0 60 42" fill="none" xmlns="http://www.w3.org/2000/svg">
<path fill-rule="evenodd" clip-rule="evenodd" d="M15 21.5014C14.9891 29.4432 21.4955 36.0978 29.4288 35.9955H29.4325C37.4132 36.2002 44 29.4541 44 21.527C44.0036 13.4939 37.3913 7.02937 29.5821 7.00012C21.4882 6.96721 15.011 13.6036 15 21.5014ZM15.6021 21.3552C15.6459 13.9327 21.8824 7.43889 29.5894 7.62171C37.3293 7.54127 43.4928 14.0168 43.438 21.5599C43.3796 29.381 37.1979 35.4506 29.5201 35.4726C21.8714 35.4945 15.5547 29.275 15.6021 21.3552ZM24.296 22.9971C24.6727 22.9956 25.0493 22.9942 25.4257 22.9942L25.4221 22.9835C25.9092 22.9835 26.3959 22.9839 26.8825 22.9843C27.8552 22.9851 28.8274 22.9859 29.8012 22.9835C29.9572 22.9835 30.1239 22.9658 30.2728 22.916C30.904 22.7028 30.9891 22.1521 30.9891 21.6049C30.9997 19.5237 30.9984 17.4404 30.9971 15.3566C30.9966 14.6621 30.9962 13.9675 30.9962 13.2729C30.9962 13.2518 30.9971 13.2301 30.9981 13.2082C31.0003 13.1561 31.0026 13.1026 30.9926 13.0526C30.8543 12.2602 30.5281 11.8125 29.6062 12.0755C29.1523 12.2069 29.0495 12.6155 29.0495 13.049C29.0495 13.7667 29.0489 14.4845 29.0484 15.2022C29.0469 16.9965 29.0455 18.7909 29.0531 20.5852C29.0566 20.944 28.9644 21.1395 28.5637 21.1359C27.0497 21.1253 25.5321 21.1253 24.018 21.1253C23.4879 21.1253 22.9587 21.1288 22.4295 21.1324C21.9002 21.1359 21.371 21.1395 20.8409 21.1395C20.3977 21.1395 20.0999 21.3953 20.0183 21.7755C19.9616 22.0384 20.0396 22.4293 20.2133 22.6105C20.419 22.8236 20.7877 22.9693 21.0927 22.9764C22.1595 23.0053 23.2282 23.0012 24.296 22.9971Z" fill="black"/>
</svg>
