<svg width="60" height="42" viewBox="0 0 60 42" fill="none" xmlns="http://www.w3.org/2000/svg">
<path d="M7.38082 25H54C53.3433 22.7888 51.6472 22.9948 50.8812 23.3742C51.5378 22.4637 50.8265 22.0193 50.3887 21.9109C50.6514 17.7488 47.7623 18.4425 46.2849 19.3096C46.8102 18.3991 46.1755 17.9547 45.7925 17.8463C46.843 12.7737 43.2755 12.9146 41.3604 13.6191C40.8351 12.4485 39.7188 12.8062 39.2264 13.1313C38.5698 9.74958 35.7792 10.2048 34.466 10.8552C28.8191 2.1406 23.3583 7.11568 21.3338 10.6925C13.1919 9.78206 14.1111 15.6243 15.5885 18.6592C14.4066 17.4886 13.345 18.3882 12.962 18.9844C6.52723 18.4641 6.56006 22.778 7.38082 25Z" fill="black" stroke="black" stroke-width="1.5"/>
<path d="M18.5 27.5L16 31M23.5 27L18.5 36M27.5 29.5L24.5 34M34.5 27L31.5 31.5M37 31.5L34.5 35" stroke="black"/>
</svg>
