<svg width="60" height="42" viewBox="0 0 60 42" fill="none" xmlns="http://www.w3.org/2000/svg">
<path d="M44.6054 21.3965C44.6054 23.9292 44.5985 26.4596 44.6123 28.9922C44.6123 29.3642 44.5297 29.5892 44.1715 29.7913C41.8914 31.0794 39.6297 32.402 37.3657 33.7154C35.1637 34.9921 32.9686 36.2825 30.7505 37.5339C30.5346 37.6556 30.1305 37.6556 29.9124 37.5339C27.878 36.4019 25.8643 35.2331 23.8483 34.0713C21.4258 32.6752 19.0057 31.2723 16.5787 29.8831C16.186 29.6581 15.9977 29.4055 16 28.9095C16.023 23.8465 16.0184 18.7812 16.0046 13.7182C16.0046 13.3049 16.1309 13.0592 16.4822 12.8595C19.4396 11.1603 22.3879 9.44739 25.3407 7.74135C26.9113 6.83437 28.4842 5.93198 30.0662 5.04567C30.1948 4.97219 30.4428 4.99286 30.5783 5.06863C34.2085 7.13516 37.8318 9.21548 41.4528 11.2958C42.3414 11.8078 43.214 12.3497 44.1141 12.8411C44.4768 13.0386 44.6169 13.2636 44.6146 13.6815C44.5962 16.2532 44.6054 18.8249 44.6054 21.3965ZM16.8542 13.5575C16.7922 13.8307 16.744 13.9432 16.744 14.0581C16.7394 16.3289 16.7256 18.6021 16.76 20.873C16.7646 21.1279 16.9988 21.4654 17.2239 21.6147C17.7795 21.9844 18.3995 22.2553 18.9804 22.5883C20.0504 23.2013 21.1021 23.8465 22.1812 24.4458C22.7851 24.7834 22.8471 24.7329 22.8494 24.083C22.8517 21.9109 22.8448 19.741 22.8563 17.5689C22.8563 17.1372 22.6933 16.88 22.3144 16.6711C21.1388 16.0236 19.9861 15.337 18.822 14.6688C18.1951 14.3083 17.566 13.957 16.8565 13.5552L16.8542 13.5575ZM29.4715 28.5973C29.5174 28.3975 29.5565 28.3011 29.5565 28.2069C29.5611 25.897 29.5748 23.5894 29.5404 21.2794C29.5381 21.0452 29.297 20.7307 29.0812 20.5998C27.5451 19.6721 25.9906 18.7789 24.4338 17.8857C24.1674 17.7342 23.8712 17.6332 23.5452 17.4885C23.513 17.7043 23.4901 17.7824 23.4901 17.8605C23.4855 20.1888 23.474 22.5194 23.5015 24.8477C23.5038 25.0635 23.7174 25.3574 23.9148 25.4768C25.4693 26.4136 27.0422 27.3229 28.6151 28.2276C28.8699 28.3745 29.1592 28.4664 29.4692 28.5996L29.4715 28.5973ZM37.7445 24.6846C37.9558 24.6456 38.1257 24.6571 38.2497 24.5859C39.9351 23.6215 41.6112 22.6411 43.2989 21.6744C43.6548 21.47 43.8316 21.2335 43.8247 20.7881C43.7972 18.6389 43.811 16.492 43.8087 14.3428C43.8087 14.1292 43.8087 13.9157 43.8087 13.5805C43.5262 13.7113 43.354 13.7779 43.1933 13.8675C41.6457 14.7354 40.1027 15.6103 38.5551 16.4805C38.0293 16.7767 37.6642 17.105 37.7216 17.8237C37.8019 18.8409 37.7422 19.8696 37.7422 20.8937V24.6846H37.7445ZM31.1408 28.5628C31.3337 28.51 31.4944 28.4985 31.6207 28.4251C33.1936 27.5273 34.7527 26.6088 36.3347 25.7248C36.911 25.401 37.2004 25.0176 37.1407 24.3104C37.0649 23.4332 37.1223 22.5446 37.1223 21.6606C37.1223 20.4368 37.12 19.2106 37.1223 17.9868C37.1223 17.6378 37.0258 17.3944 36.6378 17.6171C34.9088 18.6044 33.1798 19.5941 31.4715 20.6205C31.2671 20.7444 31.0949 21.098 31.0903 21.3483C31.0605 23.5779 31.0719 25.8052 31.0765 28.0347C31.0765 28.1886 31.111 28.3424 31.1362 28.5628H31.1408ZM31.065 13.0202C31.3038 13.2108 31.4531 13.36 31.6276 13.4634C33.2762 14.4323 34.9203 15.4128 36.5919 16.3404C36.849 16.4828 37.3129 16.5058 37.5585 16.368C39.2439 15.4289 40.8949 14.4323 42.5596 13.4565C42.7272 13.3577 42.9017 13.2682 43.1037 13.158C42.7984 12.8824 42.6858 12.7378 42.5366 12.6528C40.9247 11.7206 39.3059 10.8067 37.6986 9.86988C37.2394 9.60123 36.8238 9.63797 36.4013 9.9158C36.2842 9.99157 36.1763 10.0788 36.0546 10.1477C34.4381 11.0799 32.8193 12.0099 31.065 13.0202ZM30.3418 13.5552C30.0938 13.6608 29.8894 13.7274 29.7057 13.833C29.0054 14.2395 28.3189 14.6688 27.6162 15.0707C26.6587 15.6171 25.6944 16.1544 24.7231 16.6803C24.3396 16.8869 24.2707 17.0706 24.6909 17.3025C24.9251 17.4311 25.1571 17.5666 25.3913 17.6997C26.932 18.5792 28.4727 19.4655 30.0203 20.3334C30.1604 20.4115 30.406 20.4528 30.5323 20.3839C31.3084 19.9615 32.0616 19.4907 32.8308 19.0568C33.7699 18.5264 34.7274 18.0281 35.6619 17.4908C35.8479 17.3829 36.0844 17.167 36.0867 16.9971C36.089 16.8364 35.8433 16.6229 35.6596 16.5149C34.1947 15.6608 32.7206 14.825 31.2441 13.9892C30.9548 13.8261 30.6449 13.6999 30.3418 13.5552ZM36.3278 9.18103C36.1717 9.08 36.1235 9.04556 36.0706 9.01571C34.5139 8.10184 32.9226 7.23849 31.4118 6.25574C30.6288 5.74599 29.979 5.64956 29.2534 6.25574C29.0904 6.39121 28.8814 6.47387 28.6954 6.58409C27.2488 7.42218 25.8046 8.26257 24.2822 9.14659C24.482 9.31421 24.6129 9.46116 24.7736 9.55301C26.4337 10.5059 28.103 11.4404 29.7539 12.4071C30.1466 12.6367 30.4497 12.6597 30.8469 12.4209C32.4037 11.491 33.9812 10.5955 35.5494 9.68389C35.7882 9.54383 36.0155 9.38309 36.3301 9.17874L36.3278 9.18103ZM16.8817 22.2415C16.8243 22.4505 16.7486 22.602 16.7486 22.7536C16.7394 24.7443 16.7348 26.7328 16.7555 28.7236C16.7555 28.9279 16.8863 29.2218 17.0494 29.3206C18.7233 30.3263 20.4132 31.3044 22.1032 32.2826C22.5946 32.5673 22.8494 32.4181 22.8494 31.8555C22.854 29.9864 22.8357 28.1174 22.8609 26.2483C22.8678 25.7638 22.6129 25.4952 22.2639 25.2954C20.5005 24.2828 18.7278 23.2886 16.8817 22.2438V22.2415ZM29.4164 36.4914C29.483 36.2756 29.5565 36.147 29.5565 36.0161C29.5634 33.9703 29.5703 31.9221 29.545 29.8762C29.545 29.6925 29.3613 29.4446 29.1914 29.3435C28.1122 28.6914 27.0146 28.0669 25.9217 27.44C25.1616 27.006 24.3993 26.579 23.598 26.1266C23.5406 26.3126 23.4969 26.3861 23.4969 26.4596C23.4924 28.5261 23.4809 30.5926 23.5084 32.6592C23.5107 32.8566 23.7174 33.1253 23.9034 33.2378C25.7058 34.3216 27.5221 35.3778 29.4164 36.4891V36.4914ZM31.15 36.4983C33.065 35.3847 34.8445 34.3239 36.6539 33.3136C37.0442 33.0954 37.1292 32.8406 37.1269 32.4548C37.1177 30.6064 37.1269 28.7603 37.1131 26.9119C37.1131 26.7144 37.0534 26.4113 36.9317 26.3516C36.7893 26.2851 36.5253 26.4022 36.3485 26.5009C34.7779 27.378 33.2234 28.2827 31.6437 29.1461C31.2212 29.378 31.0627 29.6512 31.0673 30.1311C31.0926 31.9979 31.0765 33.8669 31.0811 35.7337C31.0811 35.945 31.1202 36.1562 31.1523 36.4983H31.15ZM43.7559 22.2278C41.8638 23.3001 40.0751 24.3127 38.2887 25.3299C37.9236 25.5365 37.7193 25.8029 37.7308 26.2873C37.7675 28.1564 37.7445 30.0255 37.7468 31.8945C37.7468 32.0828 37.7652 32.2711 37.7767 32.5099C38.0522 32.4273 38.2612 32.4043 38.4265 32.3079C40.0591 31.355 41.6664 30.3561 43.3265 29.4514C43.7627 29.2149 43.8178 28.9624 43.8156 28.5674C43.8087 26.6777 43.8156 24.7903 43.811 22.9005C43.811 22.7054 43.7811 22.5125 43.7581 22.2278H43.7559Z" fill="black"/>
<path d="M16.8542 13.5575C16.7922 13.8307 16.744 13.9432 16.744 14.0581C16.7394 16.3289 16.7256 18.6021 16.76 20.873C16.7646 21.1279 16.9988 21.4654 17.2239 21.6147C17.7795 21.9844 18.3995 22.2553 18.9804 22.5883C20.0504 23.2013 21.1021 23.8465 22.1812 24.4458C22.7851 24.7834 22.8471 24.7329 22.8494 24.083C22.8517 21.9109 22.8448 19.741 22.8563 17.5689C22.8563 17.1372 22.6933 16.88 22.3144 16.6711C21.1388 16.0236 19.9861 15.337 18.822 14.6688C18.1951 14.3083 17.566 13.957 16.8565 13.5552L16.8542 13.5575Z" fill="black"/>
<path d="M29.4164 36.4914C29.483 36.2756 29.5565 36.147 29.5565 36.0161C29.5634 33.9703 29.5703 31.9221 29.545 29.8762C29.545 29.6925 29.3613 29.4446 29.1914 29.3435C28.1122 28.6914 27.0146 28.0669 25.9217 27.44C25.1616 27.006 24.3993 26.579 23.598 26.1266C23.5406 26.3126 23.4969 26.3861 23.4969 26.4596C23.4924 28.5261 23.4809 30.5926 23.5084 32.6592C23.5107 32.8566 23.7174 33.1253 23.9034 33.2378C25.7058 34.3216 27.5221 35.3778 29.4164 36.4891V36.4914Z" fill="black"/>
<path d="M43.7559 22.2278C41.8638 23.3001 40.0751 24.3127 38.2887 25.3299C37.9236 25.5365 37.7193 25.8029 37.7308 26.2873C37.7675 28.1564 37.7445 30.0255 37.7468 31.8945C37.7468 32.0828 37.7652 32.2711 37.7767 32.5099C38.0522 32.4273 38.2612 32.4043 38.4265 32.3079C40.0591 31.355 41.6664 30.3561 43.3265 29.4514C43.7627 29.2149 43.8178 28.9624 43.8156 28.5674C43.8087 26.6777 43.8156 24.7903 43.811 22.9005C43.811 22.7054 43.7811 22.5125 43.7581 22.2278H43.7559Z" fill="black"/>
<path d="M37.7445 24.6846C37.9558 24.6456 38.1257 24.6571 38.2497 24.5859C39.9351 23.6215 41.6112 22.6411 43.2989 21.6744C43.6548 21.47 43.8316 21.2335 43.8247 20.7881C43.7972 18.6389 43.811 16.492 43.8087 14.3428V13.5805C43.5262 13.7113 43.354 13.7779 43.1933 13.8675C41.6457 14.7354 40.1027 15.6103 38.5551 16.4805C38.0293 16.7767 37.6642 17.105 37.7216 17.8237C37.8019 18.8409 37.7422 19.8696 37.7422 20.8937V24.6846H37.7445Z" fill="black"/>
<path d="M31.065 13.0202C31.3038 13.2108 31.4531 13.36 31.6276 13.4634C33.2762 14.4323 34.9203 15.4128 36.5919 16.3404C36.849 16.4828 37.3129 16.5058 37.5585 16.368C39.2439 15.4289 40.8949 14.4323 42.5596 13.4565C42.7272 13.3577 42.9017 13.2682 43.1037 13.158C42.7984 12.8824 42.6858 12.7378 42.5366 12.6528C40.9247 11.7206 39.3059 10.8067 37.6986 9.86988C37.2394 9.60123 36.8238 9.63797 36.4013 9.9158C36.2842 9.99157 36.1763 10.0788 36.0546 10.1477C34.4381 11.0799 32.8193 12.0099 31.065 13.0202Z" fill="black"/>
</svg>
