<svg width="60" height="42" viewBox="0 0 60 42" fill="none" xmlns="http://www.w3.org/2000/svg">
<path d="M43.991 21.0444C43.991 23.5226 43.9842 25.9986 43.9977 28.4769C43.9977 28.8409 43.9168 29.061 43.5663 29.2588C41.3352 30.5192 39.1221 31.8134 36.9067 33.0986C34.752 34.3478 32.6041 35.6105 30.4336 36.8351C30.2224 36.9541 29.827 36.9541 29.6135 36.8351C27.6229 35.7274 25.6524 34.5837 23.6797 33.4469C21.3093 32.0808 18.9411 30.708 16.5662 29.3486C16.182 29.1284 15.9978 28.8813 16 28.396C16.0225 23.4417 16.018 18.4852 16.0045 13.531C16.0045 13.1265 16.1281 12.8861 16.4719 12.6906C19.3658 11.028 22.2507 9.35186 25.1401 7.68246C26.6769 6.79497 28.216 5.91196 29.7641 5.04469C29.8899 4.97279 30.1326 4.99301 30.2651 5.06716C33.8174 7.0893 37.3628 9.12493 40.9061 11.1606C41.7756 11.6616 42.6294 12.1919 43.5102 12.6727C43.8652 12.8659 44.0022 13.0861 44 13.495C43.982 16.0115 43.991 18.5279 43.991 21.0444ZM16.8358 13.3737C16.7752 13.6411 16.728 13.7511 16.728 13.8635C16.7235 16.0856 16.71 18.31 16.7437 20.5321C16.7482 20.7815 16.9774 21.1118 17.1976 21.2578C17.7413 21.6195 18.348 21.8847 18.9164 22.2105C19.9634 22.8104 20.9925 23.4417 22.0485 24.0281C22.6394 24.3584 22.7001 24.309 22.7023 23.6731C22.7046 21.5476 22.6978 19.4244 22.709 17.2989C22.709 16.8765 22.5495 16.6248 22.1788 16.4204C21.0284 15.7868 19.9005 15.115 18.7614 14.4611C18.148 14.1084 17.5324 13.7646 16.8381 13.3714L16.8358 13.3737ZM29.1822 28.0904C29.2271 27.8949 29.2653 27.8006 29.2653 27.7085C29.2698 25.4481 29.2833 23.1901 29.2496 20.9298C29.2473 20.7006 29.0114 20.3928 28.8002 20.2647C27.2971 19.357 25.776 18.483 24.2526 17.609C23.992 17.4607 23.7021 17.3618 23.3831 17.2203C23.3516 17.4315 23.3292 17.5078 23.3292 17.5842C23.3247 19.8625 23.3134 22.1431 23.3404 24.4213C23.3426 24.6325 23.5516 24.9201 23.7448 25.037C25.2659 25.9537 26.805 26.8434 28.3441 27.7287C28.5935 27.8725 28.8766 27.9623 29.1799 28.0927L29.1822 28.0904ZM37.2775 24.2618C37.4842 24.2236 37.6504 24.2349 37.7718 24.1652C39.4209 23.2215 41.0611 22.2621 42.7125 21.3162C43.0608 21.1163 43.2338 20.8848 43.2271 20.4489C43.2001 18.3459 43.2136 16.2451 43.2113 14.1421C43.2113 13.9331 43.2113 13.7242 43.2113 13.3962C42.935 13.5242 42.7665 13.5894 42.6092 13.677C41.0948 14.5263 39.585 15.3823 38.0706 16.2339C37.5561 16.5237 37.1988 16.845 37.255 17.5483C37.3336 18.5436 37.2752 19.5502 37.2752 20.5523V24.2618H37.2775ZM30.8156 28.0567C31.0043 28.005 31.1616 27.9938 31.2852 27.9219C32.8243 27.0434 34.3499 26.1447 35.8979 25.2796C36.4619 24.9628 36.745 24.5876 36.6866 23.8956C36.6124 23.0373 36.6686 22.1678 36.6686 21.3027C36.6686 20.1052 36.6663 18.9054 36.6686 17.7078C36.6686 17.3663 36.5742 17.1281 36.1945 17.3461C34.5026 18.3122 32.8108 19.2806 31.1391 20.2849C30.9392 20.4063 30.7707 20.7523 30.7662 20.9972C30.737 23.1788 30.7482 25.3583 30.7527 27.5399C30.7527 27.6905 30.7864 27.841 30.8111 28.0567H30.8156ZM30.7415 12.8479C30.9751 13.0344 31.1212 13.1805 31.2919 13.2816C32.9051 14.2297 34.5139 15.1891 36.1496 16.0968C36.4012 16.2361 36.8551 16.2586 37.0955 16.1238C38.7446 15.2048 40.3601 14.2297 41.9891 13.2748C42.1531 13.1782 42.3238 13.0906 42.5216 12.9827C42.2227 12.7131 42.1126 12.5716 41.9666 12.4884C40.3893 11.5762 38.8053 10.682 37.2325 9.76527C36.7832 9.5024 36.3765 9.53835 35.9631 9.81021C35.8485 9.88436 35.7429 9.96974 35.6238 10.0371C34.042 10.9494 32.458 11.8593 30.7415 12.8479ZM30.0337 13.3714C29.791 13.4748 29.5911 13.5399 29.4113 13.6433C28.726 14.041 28.0542 14.4611 27.3667 14.8543C26.4298 15.3891 25.4861 15.9148 24.5357 16.4294C24.1605 16.6316 24.0931 16.8113 24.5043 17.0383C24.7334 17.1641 24.9604 17.2966 25.1895 17.427C26.6972 18.2875 28.2048 19.1548 29.7191 20.0041C29.8562 20.0805 30.0966 20.1209 30.2202 20.0535C30.9796 19.6401 31.7166 19.1795 32.4693 18.7548C33.3882 18.2358 34.3251 17.7483 35.2396 17.2225C35.4216 17.1169 35.653 16.9057 35.6553 16.7394C35.6575 16.5822 35.4171 16.3732 35.2373 16.2676C33.8039 15.4318 32.3614 14.6139 30.9167 13.7961C30.6336 13.6366 30.3303 13.513 30.0337 13.3714ZM35.8912 9.09123C35.7384 8.99237 35.6912 8.95866 35.6395 8.92945C34.1162 8.03522 32.5591 7.19041 31.0807 6.22877C30.3146 5.72997 29.6787 5.6356 28.9687 6.22877C28.8092 6.36133 28.6047 6.44222 28.4227 6.55006C27.0072 7.37016 25.594 8.1925 24.1043 9.05752C24.2998 9.22154 24.4279 9.36534 24.5851 9.45521C26.2096 10.3876 27.843 11.3021 29.4585 12.248C29.8427 12.4727 30.1393 12.4952 30.528 12.2615C32.0514 11.3515 33.5949 10.4753 35.1295 9.58328C35.3632 9.44623 35.5856 9.28895 35.8934 9.08898L35.8912 9.09123ZM16.8628 21.8712C16.8066 22.0756 16.7325 22.2239 16.7325 22.3722C16.7235 24.3202 16.719 26.266 16.7392 28.214C16.7392 28.414 16.8673 28.7015 17.0268 28.7982C18.6648 29.7823 20.3184 30.7394 21.9721 31.6966C22.4529 31.9752 22.7023 31.8291 22.7023 31.2787C22.7068 29.4497 22.6888 27.6208 22.7135 25.7919C22.7203 25.3178 22.4709 25.0549 22.1294 24.8595C20.4038 23.8686 18.6693 22.8957 16.8628 21.8734V21.8712ZM29.1282 35.815C29.1934 35.6038 29.2653 35.478 29.2653 35.3499C29.272 33.348 29.2788 31.3438 29.2541 29.3419C29.2541 29.1622 29.0743 28.9195 28.908 28.8206C27.852 28.1825 26.778 27.5714 25.7086 26.958C24.9649 26.5334 24.2189 26.1154 23.4348 25.6728C23.3786 25.8548 23.3359 25.9267 23.3359 25.9986C23.3314 28.0208 23.3202 30.0429 23.3471 32.0651C23.3494 32.2583 23.5516 32.5212 23.7336 32.6313C25.4974 33.6918 27.2746 34.7253 29.1282 35.8128V35.815ZM30.8246 35.8217C30.8253 35.8213 30.826 35.8209 30.8267 35.8205C32.6998 34.7312 34.4404 33.6936 36.2102 32.7054C36.5922 32.492 36.6753 32.2426 36.6731 31.8651C36.6641 30.0564 36.6731 28.2499 36.6596 26.4412C36.6596 26.248 36.6012 25.9514 36.4821 25.893C36.3428 25.8279 36.0844 25.9424 35.9114 26.0391C34.3746 26.8973 32.8535 27.7826 31.3077 28.6274C30.8942 28.8543 30.7392 29.1217 30.7437 29.5913C30.7684 31.418 30.7527 33.2469 30.7572 35.0736C30.7572 35.28 30.7953 35.4865 30.8267 35.8205C30.8268 35.8209 30.8268 35.8213 30.8268 35.8217H30.8246ZM43.1597 21.8577C41.3083 22.907 39.558 23.8978 37.81 24.8932C37.4527 25.0954 37.2528 25.356 37.264 25.8301C37.2999 27.659 37.2775 29.4879 37.2797 31.3169C37.2797 31.5011 37.2977 31.6853 37.3089 31.919C37.5785 31.8381 37.783 31.8157 37.9448 31.7213C39.5423 30.7889 41.115 29.8115 42.7395 28.9262C43.1664 28.6948 43.2203 28.4477 43.2181 28.0612C43.2113 26.2121 43.2181 24.3652 43.2136 22.516C43.2136 22.325 43.1844 22.1363 43.1619 21.8577H43.1597Z" fill="black"/>
<path d="M16.8358 13.3737C16.7752 13.6411 16.728 13.7511 16.728 13.8635C16.7235 16.0856 16.71 18.31 16.7437 20.5321C16.7482 20.7815 16.9774 21.1118 17.1976 21.2578C17.7413 21.6195 18.348 21.8847 18.9164 22.2105C19.9634 22.8104 20.9925 23.4417 22.0485 24.0281C22.6394 24.3584 22.7001 24.309 22.7023 23.6731C22.7046 21.5476 22.6978 19.4244 22.709 17.2989C22.709 16.8765 22.5495 16.6248 22.1788 16.4204C21.0284 15.7868 19.9005 15.115 18.7614 14.4611C18.148 14.1084 17.5324 13.7646 16.8381 13.3714L16.8358 13.3737Z" fill="black"/>
<path d="M30.8267 35.8205C32.6998 34.7312 34.4404 33.6936 36.2102 32.7054C36.5922 32.492 36.6753 32.2426 36.6731 31.8651C36.6641 30.0564 36.6731 28.2499 36.6596 26.4412C36.6596 26.248 36.6012 25.9514 36.4821 25.893C36.3428 25.8279 36.0844 25.9424 35.9114 26.0391C34.3746 26.8973 32.8535 27.7826 31.3077 28.6274C30.8942 28.8543 30.7392 29.1217 30.7437 29.5913C30.7684 31.418 30.7527 33.2469 30.7572 35.0736C30.7572 35.28 30.7953 35.4865 30.8267 35.8205Z" fill="black"/>
<path d="M30.7415 12.8479C30.9751 13.0344 31.1212 13.1805 31.2919 13.2816C32.9051 14.2297 34.5139 15.1891 36.1496 16.0968C36.4012 16.2361 36.8551 16.2586 37.0955 16.1238C38.7446 15.2048 40.3601 14.2297 41.9891 13.2748C42.1531 13.1782 42.3238 13.0906 42.5216 12.9827C42.2227 12.7131 42.1126 12.5716 41.9666 12.4884C40.3893 11.5762 38.8053 10.682 37.2325 9.76527C36.7832 9.5024 36.3765 9.53835 35.9631 9.81021C35.8485 9.88436 35.7429 9.96974 35.6238 10.0371C34.042 10.9494 32.458 11.8593 30.7415 12.8479Z" fill="black"/>
</svg>
