<svg width="60" height="42" viewBox="0 0 60 42" fill="none" xmlns="http://www.w3.org/2000/svg">
<path d="M29.3961 21.2641C29.3672 20.2812 28.8083 19.438 28.5047 18.537C28.2012 17.6312 27.7001 16.7832 27.2328 15.9449C26.775 15.1258 26.2499 14.3501 25.8548 13.4924C26.881 14.3838 27.5797 15.4871 28.1097 16.711C28.63 17.9059 29.16 19.0911 29.7575 20.2571C30.803 17.8721 31.5932 15.439 33.3903 13.5695C33.4723 13.6129 33.5542 13.6611 33.6361 13.7044C33.5349 13.8875 33.4626 14.0947 33.3325 14.2489C32.1569 15.6124 31.4824 17.2409 30.8271 18.8791C30.5862 19.4814 30.3308 20.0837 30.1188 20.7004C30.0562 20.8835 30.1092 21.1051 30.1092 21.3123C30.1911 21.3219 30.2682 21.3267 30.3501 21.3364C30.4898 21.0039 30.6825 20.6811 30.7548 20.3342C31.0198 19.0092 31.7955 17.954 32.5713 16.9229C33.8529 15.2125 35.4381 13.7863 37.187 12.5577C38.3241 11.7579 39.4998 11.0063 40.685 10.2739C41.8414 9.56082 43.1423 9.20909 44.4721 9.02601C45.296 8.91037 46.091 9.18982 46.7703 9.67646C47.4401 10.1583 47.6135 11.199 47.2088 12.0614C46.5824 13.3961 45.9079 14.7114 45.3249 16.0701C45.0888 16.6242 44.9828 17.2506 44.9202 17.8577C44.7178 19.9006 43.7397 21.3171 41.7498 21.9724C41.6053 22.0205 41.4993 22.1844 41.3258 22.3385C42.1449 22.6903 42.8243 23.0661 43.2435 23.8322C43.706 24.685 43.6675 25.5763 43.4025 26.4002C42.9785 27.7204 42.4726 29.0358 41.8366 30.2644C41.1813 31.5364 40.155 32.5 38.724 32.9144C37.982 33.1312 37.2738 32.9047 36.633 32.5867C34.3443 31.4545 32.7929 29.5899 31.6414 27.3639C31.1788 26.4677 30.7741 25.5378 30.4802 24.9259C30.3501 27.3301 30.2007 30.0572 30.0514 32.7939C29.4395 32.8132 29.4636 32.4759 29.4491 32.1917C29.3286 29.8163 29.213 27.4361 29.0974 25.0608C29.0877 24.8825 29.0829 24.7043 29.0733 24.5742C28.6589 25.5185 28.2976 26.5207 27.7965 27.4458C26.8328 29.2285 25.6187 30.8378 23.9082 31.9652C23.2337 32.4085 22.4387 32.7506 21.6485 32.924C20.603 33.1505 19.702 32.6012 18.9552 31.9218C17.6591 30.7414 16.893 29.2285 16.4305 27.547C16.2763 26.9736 15.992 26.4243 15.9197 25.8413C15.7318 24.3622 15.9631 23.4082 17.6639 22.5216C17.7699 22.4686 17.8759 22.4205 18.0638 22.3289C17.9 22.1795 17.794 22.0205 17.6543 21.9724C16.3726 21.5387 15.4042 20.763 14.9224 19.4717C14.7538 19.014 14.5899 18.537 14.5369 18.0552C14.3924 16.6531 13.9058 15.4004 13.2457 14.1573C12.7301 13.1937 12.0604 12.259 12.0026 11.0785C11.9496 10.0378 12.7205 9.51264 13.4143 9.25728C14.5466 8.8381 15.6596 9.09346 16.7918 9.45C19.3406 10.2595 21.4221 11.8253 23.4553 13.4635C25.1513 14.8319 26.6979 16.364 27.782 18.2768C28.2494 19.1008 28.524 20.0355 28.895 20.922C28.9625 21.0762 29.0685 21.2159 29.1552 21.3653C29.2323 21.3316 29.3142 21.2978 29.3913 21.2641H29.3961ZM28.6686 21.9772C28.6204 21.5387 28.6397 21.1966 28.5385 20.8883C28.0085 19.2212 27.1364 17.7228 25.98 16.4315C23.7926 13.9935 21.2245 12.0181 18.324 10.4907C16.9942 9.79209 15.5825 9.36328 14.0407 9.52709C12.9036 9.64755 12.2387 10.616 12.4025 11.1412C12.6386 11.888 12.8602 12.6782 13.2698 13.3334C14.2286 14.8704 14.8549 16.5086 15.0187 18.2961C15.2404 20.6956 17.9819 22.2085 19.8754 21.9097C20.7234 21.7748 21.5618 21.5917 22.4146 21.505C24.048 21.3412 25.6909 21.24 27.3147 21.6255C27.729 21.7218 28.1337 21.8375 28.6637 21.9772H28.6686ZM30.8367 21.9772C31.1403 21.8808 31.3908 21.7893 31.651 21.7218C34.1227 21.0858 36.6137 21.3075 39.042 21.8037C40.6898 22.141 41.957 21.6351 43.1567 20.7148C44.2312 19.8957 44.3709 18.6045 44.6166 17.3807C44.7371 16.764 44.8286 16.1231 45.0744 15.5546C45.5514 14.4561 46.1873 13.4202 46.6403 12.312C46.8523 11.7916 47.2473 11.2472 46.9245 10.5823C46.5776 9.88364 46.0139 9.59937 45.2815 9.51746C43.6193 9.32955 42.116 9.874 40.7525 10.6786C36.9895 12.8902 33.5012 15.4341 31.4631 19.4717C31.0873 20.2137 30.7066 20.9943 30.8367 21.9724V21.9772ZM21.3691 32.4904C21.7256 32.4422 22.1111 32.4711 22.4291 32.3362C23.6721 31.811 24.6599 30.9438 25.5464 29.9416C26.6979 28.6359 27.6278 27.1856 28.2349 25.5619C28.5385 24.7524 28.6637 23.8707 28.8276 23.0131C28.9047 22.618 28.6686 22.4542 28.2831 22.5505C27.5604 22.7288 26.8377 22.9071 26.1198 23.0998C24.3997 23.5624 22.723 23.1191 21.0318 22.9071C20.0585 22.7866 19.1383 22.2904 18.0735 22.7481C17.0183 23.201 16.1173 24.3188 16.2956 25.427C16.5991 27.335 17.2062 29.1466 18.4011 30.6884C19.1383 31.6424 19.9573 32.5723 21.3691 32.4952V32.4904ZM30.8271 22.5457C30.8078 22.618 30.7789 22.671 30.7789 22.7288C30.7693 22.8685 30.7645 23.0083 30.7645 23.148C30.7548 24.3043 31.0969 25.3499 31.5932 26.3906C32.6821 28.6696 34.1227 30.6258 36.3053 31.9604C37.2545 32.5386 38.2615 32.6783 39.3022 32.2109C40.5694 31.6424 41.2487 30.5198 41.8607 29.373C42.4485 28.2793 42.8291 27.1085 43.0796 25.8799C43.2338 25.1234 43.1905 24.4633 42.7665 23.8611C42.0052 22.777 40.7669 22.3675 39.4998 22.7192C39.3456 22.7625 39.1818 22.7577 39.0228 22.7818C38.2181 22.9167 37.4231 23.1143 36.6137 23.1673C35.6211 23.2347 34.6142 23.2733 33.6264 23.1673C32.6965 23.0661 31.7859 22.7674 30.8175 22.5457H30.8271ZM31.6703 22.2952C33.7421 23.1287 37.9579 22.8204 38.883 22.2759C38.5361 22.1651 38.2278 21.9868 37.9098 21.9724C36.0596 21.8856 34.2094 21.6255 32.3593 21.9531C32.1569 21.9868 31.9738 22.141 31.6703 22.2904V22.2952ZM20.4681 22.353C22.6218 22.9697 26.457 22.9986 27.6471 22.3145C27.0497 21.5917 22.14 21.5917 20.4681 22.353ZM29.6707 29.6236C29.7526 29.6139 29.8297 29.6091 29.9116 29.5995V24.3044C29.4009 24.579 29.3816 24.579 29.4395 27.123C29.4587 27.9565 29.3046 28.8334 29.6707 29.6188V29.6236ZM29.7478 22.9215C29.9646 22.5795 30.22 22.3482 30.1959 22.1506C30.1766 21.9627 29.849 21.6736 29.6756 21.6833C29.4973 21.6929 29.2034 22.0157 29.2034 22.2036C29.2034 22.406 29.4925 22.6035 29.7478 22.9215Z" fill="black"/>
<path d="M17.0086 17.5445C16.1269 17.5638 15.6837 17.1254 15.6114 16.3063C15.5247 15.2993 16.3197 14.8801 16.9942 14.7934C17.5916 14.7163 18.3674 15.5402 18.377 16.1714C18.3915 16.9808 17.8422 17.5301 17.0086 17.5493V17.5445Z" fill="black"/>
<path d="M15.8041 13.6469C14.9947 13.6469 14.4599 13.0832 14.4695 12.2496C14.4791 11.4498 15.0188 10.8957 15.7993 10.8909C16.522 10.8861 17.2447 11.5799 17.2399 12.2737C17.2399 12.9723 16.5317 13.6517 15.8041 13.6517V13.6469Z" fill="black"/>
<path d="M18.6083 18.3154C19.4081 18.3154 20.0103 18.9081 20.0103 19.6886C20.0103 20.4161 19.331 21.0955 18.6083 21.0907C17.8759 21.0859 17.2784 20.4691 17.2736 19.7079C17.264 18.8599 17.7844 18.3154 18.6083 18.3154ZM18.5023 18.9081C18.1409 18.9611 17.7988 19.1249 17.8133 19.6741C17.8277 20.0837 18.2084 20.4981 18.5938 20.5029C18.9455 20.5077 19.4707 19.997 19.4563 19.6597C19.4418 19.2935 18.9937 18.8984 18.5023 18.9081Z" fill="black"/>
<path d="M41.2873 15.5208C41.2873 14.7017 41.8221 14.2343 42.6894 14.2006C43.441 14.1717 44.0625 14.8414 44.0481 15.5786C44.0336 16.3158 43.3784 16.9614 42.6364 16.9518C41.904 16.9421 41.2873 16.2869 41.2921 15.516L41.2873 15.5208Z" fill="black"/>
<path d="M41.3404 18.0114C42.2221 17.9295 42.7136 18.7389 42.7425 19.3219C42.781 20.0157 42.0342 20.777 41.3548 20.777C40.6225 20.777 40.0347 20.1506 40.001 19.3845C39.9769 18.71 40.4105 17.9198 41.3356 18.0066L41.3404 18.0114Z" fill="black"/>
<path d="M46 11.5419C45.9948 12.3833 45.3791 12.9948 44.5443 13C43.6626 13 43.0052 12.3833 43 11.5471C43 10.7109 43.7148 9.98966 44.5391 10.0001C45.3687 10.0158 46.0052 10.6848 46 11.5419ZM44.4817 12.3572C45.0974 12.3676 45.3687 12.1115 45.3739 11.521C45.3739 11.0767 44.9513 10.6377 44.5235 10.6325C44.1426 10.6325 43.6052 11.1081 43.5791 11.4687C43.5478 11.9338 43.9652 12.3467 44.4817 12.3572Z" fill="black"/>
<path d="M19.3209 23.0003C20.14 22.9858 20.6941 23.5014 20.7278 24.2964C20.7567 25.1106 20.14 25.7563 19.3402 25.7515C18.6078 25.7418 18.02 25.1444 18.0007 24.3783C17.9766 23.6267 18.5693 23.0148 19.3257 23.0003H19.3209Z" fill="black"/>
<path d="M19.0756 29.4212C18.2276 29.4212 17.7699 28.9201 17.7795 28.0143C17.7891 27.2578 18.3962 26.6411 19.1238 26.6507C19.7839 26.6556 20.5259 27.3735 20.5451 28.0191C20.5644 28.7659 19.8754 29.426 19.0756 29.4212ZM18.3577 28.0817C18.3673 28.6166 18.5986 28.843 19.1238 28.8334C19.6008 28.8286 19.9139 28.5057 19.8947 28.048C19.8802 27.6722 19.4418 27.2434 19.09 27.253C18.6709 27.2627 18.3529 27.6288 18.3577 28.0817Z" fill="black"/>
<path d="M18.3577 28.0817C18.3673 28.6166 18.5986 28.843 19.1238 28.8334C19.6008 28.8286 19.9139 28.5057 19.8947 28.048C19.8802 27.6722 19.4418 27.2434 19.09 27.253C18.6709 27.2627 18.3529 27.6288 18.3577 28.0817Z" fill="black"/>
<path d="M21.4166 29.0083C22.2019 28.9119 22.7656 29.678 22.7656 30.3381C22.7656 31.1234 22.1778 31.7546 21.4214 31.7787C20.7131 31.798 20.0048 31.0704 20 30.3188C19.9952 29.6346 20.6697 29.0083 21.4166 29.0034V29.0083ZM21.4358 29.5961C20.9155 29.5864 20.6312 29.8322 20.6023 30.3092C20.5782 30.6801 21.0022 31.1571 21.3684 31.1764C21.7972 31.1957 22.1586 30.844 22.1682 30.3911C22.1826 29.8562 21.9514 29.6057 21.4358 29.6009V29.5961Z" fill="black"/>
<path d="M38.1555 31.9172C37.3942 31.9172 36.8739 31.3294 36.8305 30.5344C36.7871 29.7298 37.5821 29.1323 38.2374 29.1516C39.0228 29.1805 39.6009 29.7828 39.5768 30.5826C39.5527 31.3968 39.0757 31.8786 38.1603 31.9172H38.1555Z" fill="black"/>
<path d="M40.5502 29.4211C39.7552 29.5463 39.124 28.7369 39.1095 28.1057C39.0951 27.3685 39.7841 26.6506 40.5213 26.6506C41.244 26.6506 41.8752 27.2866 41.88 28.0238C41.8848 28.8573 41.3596 29.4114 40.555 29.4211H40.5502ZM41.297 28.1057C41.3066 27.6673 40.9212 27.2192 40.502 27.2529C40.0587 27.2866 39.7841 27.5854 39.707 28.0045C39.6347 28.3996 40.0346 28.8188 40.4393 28.8333C40.9982 28.8573 41.2873 28.6116 41.297 28.1057Z" fill="black"/>
<path d="M41.297 28.1057C41.3066 27.6673 40.9212 27.2192 40.502 27.2529C40.0587 27.2866 39.7841 27.5854 39.707 28.0045C39.6347 28.3996 40.0346 28.8188 40.4393 28.8333C40.9982 28.8573 41.2873 28.6116 41.297 28.1057Z" fill="black"/>
<path d="M41.3306 24.6271C41.4029 25.6197 40.7284 25.9425 40.0008 26.0244C39.3215 26.1015 38.5361 25.2535 38.5506 24.5886C38.565 23.9237 39.3118 23.2684 40.049 23.2732C40.8536 23.278 41.3354 23.7936 41.3258 24.6271H41.3306ZM39.4805 23.9092C39.1625 24.4007 39.0998 24.8777 39.519 25.2487C39.8033 25.504 40.2417 25.5474 40.4826 25.2198C40.6657 24.9692 40.8006 24.5356 40.7091 24.2706C40.5067 23.6731 39.9478 23.8659 39.4805 23.9092Z" fill="black"/>
</svg>
