<svg width="60" height="42" viewBox="0 0 60 42" fill="none" xmlns="http://www.w3.org/2000/svg">
<circle cx="30.5" cy="20.5" r="16.1306" stroke="black" stroke-width="0.738806"/>
<path d="M27.2375 26.9923C26.617 27.3223 26.1195 27.6375 25.5826 27.8542C25.0211 28.0808 24.4252 28.2532 23.8292 28.3665C23.1544 28.4945 22.4599 28.6127 21.7753 28.598C20.4553 28.5733 19.1353 28.4699 17.8153 28.3763C17.5149 28.3566 17.2095 28.2729 16.9238 28.1695C16.5544 28.0365 16.3131 28.0168 16.6431 27.4109C17.6626 25.5393 19.0319 23.9583 20.4553 22.4215C20.9626 21.8748 21.7162 21.5497 22.3565 21.1311C22.588 20.9784 22.8293 20.8405 23.1593 20.6386C22.6373 20.4071 22.1743 20.2692 21.7852 20.018C20.5981 19.2447 19.4604 18.3926 18.5541 17.2844C17.9729 16.5702 17.3819 15.8609 16.8007 15.1468C16.5446 14.8315 16.2737 14.5262 16.0717 14.1765C15.9732 14.009 15.9338 13.7184 16.0126 13.5559C16.0717 13.4278 16.3574 13.3933 16.5495 13.3539C16.8204 13.2948 17.1159 13.3096 17.377 13.2259C19.2732 12.625 21.2237 12.5265 23.1741 12.7038C24.3661 12.8121 25.5777 13.0633 26.5283 13.9351C26.7352 14.1223 27.0061 14.2405 27.3114 14.4326C27.272 14.078 27.2277 13.7726 27.2031 13.4623C27.0799 11.8812 27.4641 10.379 28.1438 8.99005C28.8432 7.55184 29.715 6.19244 30.508 4.79856C30.7198 4.42423 30.9907 4.37989 31.1976 4.73945C32.0201 6.13825 32.8229 7.55184 33.611 8.97035C34.5567 10.6696 34.5764 12.5166 34.4581 14.3833C34.4581 14.4375 34.4877 14.4966 34.5271 14.6493C34.7832 14.4375 34.9901 14.2405 35.2216 14.0829C36.5219 13.1963 37.965 12.7186 39.5411 12.625C40.0829 12.5954 40.6198 12.4132 41.1517 12.428C42.3092 12.4624 43.4667 12.5708 44.6241 12.6693C45.1068 12.7087 45.2644 13.0387 45.0329 13.4918C44.1858 15.1665 43.1465 16.713 41.9349 18.1463C41.0483 19.2003 39.9401 19.9293 38.7038 20.5006C38.5807 20.5548 38.4822 20.6927 38.4231 20.8159C38.4034 20.8503 38.5561 21.0326 38.6447 21.0474C39.9352 21.2493 40.6346 22.2738 41.4522 23.0963C42.9692 24.6232 44.1119 26.4209 45.0034 28.3763C45.2349 28.8886 45.0576 29.2284 44.501 29.2235C42.4767 29.2087 40.4474 29.3909 38.4428 28.9033C37.2016 28.598 36.0786 28.0808 35.0098 27.4159C34.9064 27.3518 34.7734 27.3371 34.6552 27.3026C34.6207 27.4454 34.532 27.608 34.5665 27.7311C34.8768 28.7802 34.4729 29.7308 34.2414 30.7257C33.8622 32.3609 32.9608 33.7351 32.1925 35.1733C31.9511 35.6215 31.6605 36.0451 31.3453 36.4441C30.907 36.9908 30.4144 37.0006 30.0844 36.3899C29.3456 35.0206 28.6758 33.6169 28.001 32.2132C27.2178 30.5829 26.9814 28.859 27.2326 26.9824L27.2375 26.9923ZM30.8183 5.37482C30.6952 5.62109 30.6311 5.7984 30.5326 5.95109C29.5525 7.49766 28.661 9.08856 28.2128 10.8863C27.671 13.0732 27.7695 15.0827 29.7199 16.6244C30.3258 17.1021 30.9611 17.2942 31.4537 17.0135C32.9805 16.1515 33.872 14.8463 33.8425 13.083C33.8277 12.1078 33.611 11.1129 33.3302 10.1721C32.8377 8.51228 31.9708 7.01989 30.8183 5.36989V5.37482ZM44.2744 13.5066C43.6489 13.4229 43.1416 13.3145 42.6293 13.2899C40.6789 13.1963 38.7826 13.3835 36.9208 14.078C35.2955 14.6789 34.3399 15.7575 33.9755 17.4124C33.8129 18.1463 33.7735 18.9295 34.4926 19.3284C35.1526 19.6929 35.9308 19.949 36.6795 20.0278C38.3147 20.2002 39.5953 19.3678 40.7577 18.3138C42.2255 16.979 43.2401 15.3192 44.2744 13.5017V13.5066ZM30.6508 35.6905C30.8084 35.5575 30.9513 35.4885 31.0153 35.3753C31.5226 34.5232 32.0152 33.6662 32.5077 32.8092C32.7047 32.4594 32.951 32.1245 33.0692 31.7502C33.3105 30.9966 33.4337 30.2036 33.6898 29.455C34.0247 28.4797 33.8474 27.5193 33.5322 26.6426C33.1578 25.5984 32.227 24.9286 31.3502 24.2883C31.1778 24.1602 30.7937 24.1553 30.5967 24.2587C29.0649 25.0763 28.1438 26.3224 28.0256 28.1054C27.9123 29.8835 28.5625 31.4694 29.252 33.0357C29.6461 33.9223 30.1534 34.7596 30.6508 35.6905ZM17.5346 27.4897C18.6625 27.5932 19.6131 27.7459 20.5587 27.7557C21.4207 27.7656 22.2826 27.6523 23.1396 27.539C23.8095 27.4503 24.4892 27.3469 25.1344 27.14C26.3165 26.7657 27.1243 25.9186 27.7005 24.8497C28.5526 23.2539 27.9764 21.7714 26.3658 21.402C24.5877 20.9932 22.9919 21.4709 21.6078 22.5644C20.8543 23.1603 20.2238 23.9287 19.6081 24.6774C18.9038 25.5393 18.2783 26.4653 17.5296 27.4897H17.5346ZM44.0035 28.4157C43.7129 27.8247 43.5011 27.3765 43.2746 26.9381C42.521 25.4851 41.3931 24.3326 40.3193 23.116C39.1422 21.7763 36.2707 21.0129 34.5714 22.1359C34.1478 22.4166 33.9656 22.6826 33.941 23.1209C33.8375 25.1009 35.2019 26.7903 36.7829 27.5144C38.0093 28.0759 39.3293 28.3615 40.6838 28.4108C41.7576 28.4502 42.8362 28.4206 44.0035 28.4206V28.4157ZM17.3474 14.2208C17.7513 14.8217 18.0862 15.4324 18.5344 15.9447C19.1058 16.5997 19.7658 17.1859 20.4061 17.7769C20.6474 18.0035 21.0119 18.1168 21.199 18.3729C21.859 19.2841 22.8884 19.5156 23.8489 19.6732C25.0802 19.8751 26.3313 19.7569 27.3902 18.8703C27.9123 18.432 28.1044 18.0478 27.8384 17.4223C27.7744 17.2794 27.7498 17.1169 27.7202 16.9593C27.5331 15.9791 26.9864 15.1763 26.1589 14.7133C25.1246 14.1321 23.9917 13.679 22.785 13.5706C20.9725 13.4081 19.1944 13.6544 17.3474 14.2257V14.2208ZM31.0202 23.3574C32.7884 23.5051 33.8425 21.8748 33.7735 20.673C33.6947 19.3087 32.8476 17.969 31.1089 17.9394C29.454 17.9099 28.3014 19.2003 28.3014 20.7124C28.3014 22.1457 29.5377 23.3574 31.0202 23.3623V23.3574ZM33.0495 17.7966C33.1677 17.3238 33.2564 16.979 33.345 16.6342C33.2958 16.6244 33.2465 16.6194 33.2022 16.6096C32.951 16.8312 32.6998 17.0529 32.419 17.2991C32.6161 17.4518 32.7687 17.57 33.0544 17.7966H33.0495ZM27.4296 21.0375V19.88C27.0849 20.0672 26.8238 20.21 26.4643 20.4071C26.8189 20.6385 27.0602 20.7962 27.4296 21.0375ZM35.4678 20.7814C35.4383 20.678 35.4087 20.5745 35.3792 20.4711C35.0935 20.5351 34.8078 20.5942 34.5271 20.6829C34.5074 20.6878 34.5616 20.9292 34.5813 21.0572L35.4678 20.7814ZM28.5674 17.0529C28.8432 17.2499 28.6117 17.8803 29.2126 17.6636C29.3111 17.6292 29.4392 17.3533 29.4047 17.3041C29.2274 17.0627 29.0452 16.7229 28.5674 17.0578V17.0529ZM28.8974 24.2587C28.9565 24.2932 29.0156 24.3277 29.0747 24.3572C29.1929 24.1947 29.3062 24.0272 29.4244 23.8647C29.2767 23.7662 29.1338 23.6677 28.8974 23.5051V24.2587ZM32.9214 24.4212C32.9805 24.4114 33.0396 24.4015 33.0987 24.3917C33.0692 24.1503 33.0446 23.909 33.0101 23.6677C33.0101 23.6529 32.9362 23.648 32.8574 23.6283C32.7589 23.7465 32.6505 23.8794 32.5373 24.0174C32.6801 24.17 32.7983 24.2981 32.9165 24.4262L32.9214 24.4212Z" fill="black"/>
<path d="M30.9922 17.5449V5.23145M30.9922 23.7016V36.2613M17.2012 27.8882L28.2833 21.9777M33.9474 19.0225L44.537 13.3583M17.2012 14.0971L28.2833 19.0225M33.9474 22.4703L44.537 28.627" stroke="black" stroke-width="0.738806"/>
</svg>
