<svg width="60" height="42" viewBox="0 0 60 42" fill="none" xmlns="http://www.w3.org/2000/svg">
<path d="M19 30.9621C19.4605 30.529 19.8289 30.1685 20.211 29.8236C21.5454 28.6225 22.8818 27.4272 24.2201 26.2319C25.8347 24.7897 27.4396 23.3377 29.0699 21.9131C29.5147 21.5251 29.7263 21.1195 29.7185 20.5042C29.6832 17.9373 29.7028 15.3703 29.7028 12.8034C29.7028 12.5898 29.7028 12.3782 29.7028 12C32.6675 13.0581 35.5264 14.079 38.3873 15.098C38.3756 15.1626 38.3638 15.2253 38.352 15.29C36.804 15.772 35.256 16.2541 33.708 16.7361C32.7969 17.0202 31.8857 17.3024 30.9784 17.5924C30.5846 17.7178 30.3338 17.949 30.3886 18.4134C30.4161 18.6466 30.4317 18.8955 30.3867 19.1228C30.1143 20.4709 30.8393 21.3174 31.7485 22.1718C33.0908 23.4317 34.3272 24.8034 35.6205 26.1182C36.8334 27.3507 38.0679 28.5617 39.2789 29.7962C39.614 30.1371 39.8961 30.531 40.2547 30.9621H19ZM38.5225 30.2018C35.7302 27.3331 33.0653 24.5957 30.3377 21.7936C27.2142 24.5898 24.1457 27.339 20.9477 30.2018H38.5225ZM36.0692 15.2195C35.8419 15.0607 35.7106 14.9255 35.5519 14.8668C34.6251 14.5278 33.6923 14.2103 32.7616 13.8792C32.1972 13.6773 31.6447 13.4442 31.0725 13.2678C30.8393 13.1953 30.4415 13.0581 30.4278 13.501C30.3945 14.5454 30.4219 15.5918 30.4396 16.6362C30.4396 16.7361 30.5513 16.8341 30.6061 16.9242C32.3893 16.3677 34.145 15.8191 36.0673 15.2195H36.0692Z" fill="black"/>
</svg>
