<svg width="464" height="352" viewBox="0 0 464 352" fill="none" xmlns="http://www.w3.org/2000/svg">
<path d="M190.797 272.54C190.797 265.545 190.842 258.549 190.758 251.553C190.739 250.115 191.233 249.277 192.402 248.607C196.898 246.04 201.375 243.442 205.864 240.856C211.42 237.652 216.982 234.454 222.532 231.237C224.863 229.883 227.143 228.425 229.533 227.187C230.162 226.865 231.28 226.891 231.896 227.239C239.565 231.636 247.163 236.15 254.813 240.579C259.116 243.068 263.452 245.505 267.819 247.865C269.836 248.955 270.883 250.18 270.851 252.778C270.684 266.376 270.754 279.974 270.793 293.573C270.793 295.023 270.369 295.836 269.02 296.597C263.105 299.936 257.311 303.502 251.434 306.913C245.847 310.156 240.066 313.083 234.639 316.578C231.755 318.435 229.745 318.596 226.803 316.604C222.031 313.367 216.809 310.801 211.793 307.919C206.07 304.624 200.373 301.29 194.663 297.97C194.47 297.86 194.271 297.757 194.059 297.68C191.163 296.584 190.597 294.456 190.713 291.503C190.957 285.191 190.79 278.865 190.79 272.547L190.797 272.54ZM228.338 293.25C228.473 292.386 228.64 291.799 228.64 291.213C228.659 285.12 228.621 279.027 228.666 272.94C228.678 271.625 228.081 270.877 227.028 270.284C224.356 268.768 221.71 267.215 219.038 265.699C216.693 264.371 214.336 263.075 211.947 261.753C211.786 262.063 211.651 262.205 211.651 262.347C211.626 269.168 211.594 275.996 211.626 282.818C211.626 283.237 212.101 283.804 212.506 284.056C215.043 285.616 217.618 287.125 220.2 288.621C222.827 290.142 225.467 291.625 228.332 293.263L228.338 293.25ZM209.757 271.238C209.757 268.246 209.699 265.261 209.782 262.276C209.821 260.902 209.249 260.058 208.138 259.419C203.636 256.834 199.146 254.235 194.65 251.643C192.845 250.599 192.601 250.721 192.595 252.791C192.582 258.768 192.614 264.745 192.569 270.722C192.563 271.992 192.967 272.837 194.079 273.469C198.677 276.087 203.25 278.762 207.849 281.38C208.286 281.632 208.909 281.825 209.346 281.702C209.583 281.632 209.725 280.845 209.731 280.374C209.763 277.331 209.75 274.281 209.75 271.238H209.757ZM251.621 282.128C252.404 281.889 252.873 281.838 253.239 281.619C257.921 278.891 262.559 276.087 267.286 273.437C268.314 272.863 268.577 272.27 268.571 271.212C268.538 265.009 268.558 258.807 268.551 252.604C268.551 252.069 268.487 251.527 268.448 250.954C268.121 250.986 267.935 250.947 267.806 251.018C262.732 253.952 257.639 256.86 252.623 259.89C252.077 260.219 251.678 261.231 251.666 261.927C251.589 267.563 251.621 273.204 251.621 278.846C251.621 279.846 251.621 280.851 251.621 282.122V282.128ZM247.227 238.374C246.771 238.052 246.425 237.755 246.039 237.529C241.357 234.783 236.694 232.017 231.967 229.36C231.363 229.019 230.271 228.948 229.687 229.27C224.626 232.075 219.622 234.989 214.612 237.884C213.848 238.329 213.887 238.761 214.664 239.206C219.622 242.043 224.581 244.886 229.52 247.768C230.387 248.278 231.061 248.342 231.948 247.749C233.592 246.646 235.332 245.686 237.054 244.699C240.246 242.855 243.457 241.043 246.649 239.193C246.849 239.077 246.945 238.793 247.234 238.381L247.227 238.374ZM211.607 285.926C211.607 292.367 211.651 298.112 211.574 303.857C211.555 305.12 212.043 305.791 213.052 306.345C215.935 307.951 218.8 309.576 221.658 311.226C223.836 312.49 225.981 313.812 228.389 315.256C228.511 314.469 228.646 313.992 228.646 313.522C228.659 307.996 228.698 302.464 228.601 296.938C228.588 296.255 228.017 295.313 227.419 294.952C223.598 292.618 219.706 290.4 215.826 288.169C214.58 287.454 213.289 286.815 211.613 285.919L211.607 285.926ZM209.763 294.308C209.763 291.658 209.872 289.001 209.699 286.364C209.641 285.532 209.031 284.417 208.331 283.991C203.861 281.258 199.294 278.678 194.766 276.041C193.077 275.061 192.614 275.306 192.608 277.305C192.589 282.437 192.633 287.563 192.582 292.696C192.569 293.972 193.038 294.83 194.111 295.442C198.754 298.086 203.385 300.762 208.048 303.367C209.577 304.224 209.75 304.076 209.763 302.258C209.782 299.608 209.763 296.958 209.763 294.308ZM194.894 249.574C197.945 251.386 200.546 252.952 203.167 254.487C205.775 256.008 208.389 257.524 211.041 258.962C211.42 259.168 212.127 259.058 212.551 258.839C214.593 257.762 216.603 256.615 218.607 255.46C221.87 253.578 225.114 251.663 228.678 249.587C228.081 249.122 227.721 248.768 227.297 248.523C222.48 245.744 217.676 242.933 212.795 240.263C212.172 239.922 210.99 240.109 210.309 240.483C205.922 242.888 201.593 245.402 197.258 247.91C196.526 248.336 195.871 248.884 194.901 249.58L194.894 249.574ZM247.478 260.606C246.938 260.135 246.611 259.748 246.193 259.503C241.441 256.724 236.7 253.919 231.877 251.263C231.228 250.902 230.014 251.024 229.314 251.398C225.846 253.255 222.455 255.261 219.057 257.24C217.316 258.252 215.608 259.329 213.707 260.483C218.01 263.004 222.178 265.138 226.006 267.775C229.224 269.993 231.858 270.238 235.178 267.885C239.006 265.177 243.252 263.062 247.478 260.606ZM233.065 315.108C238.107 312.264 242.841 309.666 247.484 306.926C248.486 306.332 249.867 305.901 249.842 304.166C249.771 298.756 249.842 293.34 249.803 287.924C249.79 286.287 249.289 286.087 247.876 286.906C243.682 289.336 239.501 291.799 235.243 294.114C233.605 295.004 232.84 296.003 232.905 297.996C233.065 303.012 232.956 308.028 232.962 313.051C232.962 313.644 233.02 314.244 233.065 315.101V315.108Z" fill="black"/>
<path d="M141.405 272.567C141.405 279.679 141.38 286.791 141.431 293.896C141.437 295.237 140.969 295.953 139.787 296.636C133.82 300.066 127.956 303.664 122.002 307.114C115.444 310.911 108.842 314.612 102.232 318.32C101.86 318.526 101.186 318.565 100.832 318.365C93.9792 314.425 87.1517 310.434 80.3178 306.469C74.5501 303.122 68.7889 299.776 62.9955 296.488C61.8907 295.862 61.4219 295.095 61.4219 293.806C61.454 279.64 61.4219 265.475 61.4925 251.309C61.4925 250.58 62.0192 249.549 62.6229 249.175C66.3546 246.828 70.1569 244.603 73.9656 242.392C81.0564 238.272 88.1601 234.178 95.2637 230.077C96.5098 229.355 97.82 228.729 98.9761 227.885C100.736 226.602 102.335 226.731 104.159 227.807C110.756 231.708 117.41 235.499 124.025 239.362C128.065 241.721 132.06 244.146 136.087 246.525C136.511 246.776 136.993 246.944 137.43 247.176C140.084 248.586 141.412 250.841 141.412 253.94C141.412 260.149 141.412 266.358 141.412 272.561L141.405 272.567ZM139.093 250.735C133.807 253.791 128.894 256.635 123.974 259.472C122.953 260.065 122.259 260.748 122.272 262.109C122.329 268.144 122.285 274.179 122.317 280.214C122.317 280.73 122.484 281.594 122.76 281.684C123.229 281.832 123.916 281.594 124.398 281.323C128.335 279.131 132.311 277.009 136.119 274.617C137.475 273.773 139.562 273.483 139.517 270.987C139.401 264.952 139.491 258.917 139.466 252.882C139.466 252.257 139.254 251.631 139.093 250.729V250.735ZM103.8 293.238C104.641 292.78 105.277 292.445 105.893 292.09C109.766 289.879 113.678 287.713 117.5 285.411C118.951 284.534 120.756 284.076 120.653 281.516C120.416 275.655 120.582 269.782 120.57 263.914C120.57 263.276 120.435 262.644 120.345 261.851C119.555 262.186 118.97 262.373 118.45 262.676C114.295 265.068 110.216 267.583 105.983 269.827C104.134 270.807 103.485 271.98 103.53 274.043C103.658 279.737 103.562 285.443 103.575 291.143C103.575 291.787 103.71 292.432 103.8 293.245V293.238ZM80.427 282.213C80.5105 281.394 80.5619 281.117 80.5619 280.846C80.5619 274.424 80.5362 268.002 80.6004 261.58C80.6133 260.355 79.8618 259.942 79.0525 259.472C75.6099 257.479 72.1673 255.487 68.7246 253.508C67.1318 252.592 65.5261 251.709 63.6442 250.651C63.6442 258.086 63.6313 265.12 63.6827 272.148C63.6827 272.509 64.1452 272.986 64.5177 273.205C68.3393 275.488 72.1737 277.744 76.0274 279.962C77.3697 280.736 78.7892 281.381 80.4334 282.219L80.427 282.213ZM99.6826 305.386C99.6826 302.736 99.6312 300.086 99.7019 297.436C99.7404 296.127 99.1752 295.43 98.0769 294.811C93.4653 292.213 88.9116 289.511 84.3192 286.874C83.8696 286.616 83.2017 286.3 82.8484 286.468C82.5273 286.623 82.3539 287.39 82.3539 287.887C82.3217 293.238 82.296 298.596 82.3795 303.948C82.3924 304.625 82.8934 305.573 83.4522 305.921C88.3335 308.912 93.2662 311.82 98.2311 314.683C99.4 315.36 99.6826 314.509 99.6826 313.497C99.6826 310.789 99.6826 308.087 99.6826 305.379V305.386ZM84.5505 260.51C90.1512 263.766 95.3986 266.841 100.691 269.833C101.153 270.098 102.053 270.001 102.554 269.724C105.682 267.989 108.765 266.158 111.854 264.353C113.973 263.115 116.08 261.857 118.36 260.51C117.628 260 117.146 259.62 116.626 259.317C112.092 256.68 107.525 254.101 103.042 251.38C101.956 250.722 101.173 250.709 100.132 251.315C96.3235 253.533 92.4698 255.674 88.6546 257.879C87.3444 258.64 86.0984 259.51 84.5505 260.503V260.51ZM103.568 315.276C105.206 314.361 106.388 313.703 107.57 313.039C111.038 311.085 114.507 309.132 117.962 307.159C119.638 306.198 120.807 305.166 120.666 302.774C120.383 297.945 120.582 293.083 120.576 288.235C120.576 287.635 120.525 287.036 120.48 286.126C119.78 286.436 119.285 286.604 118.842 286.855C114.474 289.312 110.12 291.781 105.759 294.238C104.313 295.05 103.459 296.004 103.523 297.932C103.697 302.884 103.568 307.849 103.562 312.813C103.562 313.471 103.562 314.129 103.562 315.276H103.568ZM101.603 228.762C101.128 228.961 100.64 229.11 100.209 229.361C95.4693 232.114 90.7485 234.9 85.9956 237.627C84.8331 238.291 84.7624 238.678 85.9892 239.394C90.1833 241.831 94.2746 244.468 98.5329 246.776C99.7982 247.46 101.051 248.917 103.029 247.653C107.583 244.745 112.265 242.044 116.96 239.368C118.238 238.639 118.161 238.298 117.005 237.627C113.235 235.428 109.497 233.165 105.727 230.967C104.397 230.193 103.01 229.509 101.603 228.762ZM103.389 249.536C109.195 252.863 114.404 255.874 119.651 258.814C120.094 259.066 120.923 259.008 121.392 258.763C123.351 257.737 125.245 256.583 127.159 255.474C130.403 253.591 133.64 251.709 136.884 249.826C137.038 249.575 137.185 249.323 137.34 249.065C136.871 248.878 136.383 248.736 135.939 248.504C134.912 247.976 133.891 247.434 132.889 246.847C129.24 244.72 125.624 242.527 121.931 240.471C121.244 240.09 120.133 239.935 119.439 240.225C117.891 240.877 116.498 241.876 115.033 242.721C112.939 243.933 110.826 245.113 108.739 246.331C107.062 247.305 105.412 248.317 103.382 249.523L103.389 249.536ZM122.297 294.315C122.297 296.965 122.272 299.608 122.304 302.258C122.323 304.07 122.663 304.251 124.173 303.387C125.361 302.71 126.543 302.026 127.731 301.349C130.698 299.667 133.717 298.055 136.62 296.269C137.898 295.482 139.568 294.998 139.517 292.819C139.395 287.584 139.491 282.342 139.472 277.1C139.466 275.307 139.029 275.094 137.481 275.997C132.908 278.66 128.296 281.258 123.775 284.018C123.068 284.45 122.419 285.54 122.362 286.371C122.182 289.009 122.297 291.665 122.297 294.308V294.315Z" fill="black"/>
<path d="M320.553 170.967C320.553 164.081 320.643 157.195 320.502 150.309C320.463 148.401 321.105 147.369 322.679 146.473C331.665 141.373 340.611 136.208 349.565 131.05C352.866 129.148 356.135 127.188 359.482 125.363C360.002 125.079 360.959 125.118 361.492 125.415C368.821 129.548 376.11 133.745 383.394 137.949C387.652 140.405 391.891 142.894 396.15 145.364C396.574 145.609 397.036 145.789 397.479 145.989C399.823 147.034 400.613 148.691 400.581 151.386C400.408 164.816 400.472 178.253 400.543 191.684C400.549 193.354 399.92 194.256 398.584 195.017C391.14 199.253 383.709 203.528 376.284 207.796C372.302 210.085 368.339 212.419 364.337 214.689C363.836 214.973 363.201 215.037 362.616 215.14C358.345 215.927 354.947 213.928 351.492 211.82C345.249 208.016 338.903 204.392 332.583 200.717C329.012 198.641 325.441 196.552 321.812 194.579C320.778 194.018 320.534 193.341 320.54 192.29C320.566 185.178 320.553 178.066 320.553 170.954V170.967ZM339.07 180.407C339.282 179.085 339.603 177.989 339.616 176.893C339.667 171.309 339.687 165.725 339.59 160.142C339.577 159.4 338.987 158.491 338.389 157.988C337.432 157.189 336.25 156.666 335.159 156.028C331.491 153.881 327.836 151.715 324.15 149.613C322.64 148.755 322.287 148.994 322.287 150.696C322.274 156.847 322.242 162.992 322.332 169.136C322.345 169.865 322.904 170.8 323.495 171.258C324.786 172.257 326.25 173.044 327.67 173.862C331.382 176.009 335.107 178.131 339.07 180.407ZM381.615 180.574C387.138 177.363 392.424 174.327 397.653 171.193C398.102 170.922 398.359 169.981 398.365 169.349C398.417 163.146 398.404 156.937 398.391 150.735C398.391 150.199 398.295 149.664 398.231 149.007C397.723 149.219 397.408 149.31 397.132 149.471C392.27 152.295 387.389 155.087 382.585 158.008C381.974 158.375 381.448 159.413 381.435 160.148C381.339 166.293 381.371 172.437 381.384 178.589C381.384 179.13 381.506 179.665 381.615 180.581V180.574ZM362.411 203.309C362.411 206.068 362.391 208.828 362.417 211.588C362.43 212.961 363.059 213.303 364.19 212.651C369.013 209.853 373.862 207.1 378.647 204.231C379.193 203.902 379.682 202.974 379.688 202.309C379.771 196.79 379.752 191.265 379.72 185.745C379.72 184.682 379.521 184.03 378.14 184.843C373.426 187.615 368.615 190.22 363.869 192.947C362.944 193.476 362.321 194.256 362.372 195.533C362.481 198.118 362.404 200.717 362.404 203.309H362.411ZM343.527 158.549C344.086 159.007 344.395 159.329 344.761 159.549C349.115 162.102 353.502 164.597 357.818 167.202C359.687 168.33 361.203 168.33 363.136 167.073C367.196 164.429 371.48 162.128 375.661 159.665C376.091 159.407 376.451 159.02 376.843 158.697C376.483 158.317 376.194 157.821 375.757 157.563C370.959 154.739 366.149 151.94 361.312 149.181C360.914 148.955 360.182 148.884 359.803 149.097C354.466 152.147 349.167 155.254 343.521 158.543L343.527 158.549ZM343.457 136.769C344.928 137.639 345.91 138.245 346.912 138.819C351.126 141.224 355.326 143.649 359.578 145.976C360.06 146.241 360.959 146.189 361.46 145.912C364.607 144.203 367.709 142.404 370.812 140.618C372.886 139.425 374.941 138.207 377.234 136.872C376.618 136.35 376.277 135.976 375.866 135.737C371.113 132.952 366.373 130.147 361.556 127.471C360.94 127.13 359.777 127.259 359.109 127.62C355.673 129.49 352.307 131.495 348.929 133.468C347.201 134.48 345.493 135.537 343.457 136.769ZM396.227 147.736C395.437 147.188 394.878 146.744 394.261 146.382C389.669 143.668 385.096 140.928 380.446 138.31C379.893 138 378.827 138.181 378.198 138.516C375.288 140.07 372.437 141.74 369.578 143.404C367.318 144.725 365.089 146.092 362.706 147.524C363.175 148.033 363.374 148.394 363.682 148.575C368.589 151.418 373.484 154.268 378.448 157.008C378.981 157.305 379.996 157.156 380.587 156.841C384.12 154.932 387.601 152.927 391.076 150.915C392.758 149.942 394.39 148.871 396.227 147.736ZM358.377 147.769C357.773 147.298 357.407 146.937 356.977 146.692C352.121 143.861 347.272 141.018 342.365 138.278C341.896 138.02 340.971 138.22 340.432 138.516C336.013 140.928 331.626 143.397 327.265 145.905C326.481 146.357 325.865 147.098 325.165 147.711C325.813 148.233 326.411 148.839 327.117 149.252C331.08 151.592 335.043 153.92 339.057 156.176C340.348 156.899 341.549 157.782 343.29 156.628C346.039 154.797 349.045 153.365 351.909 151.708C354.035 150.477 356.11 149.161 358.383 147.775L358.377 147.769ZM341.446 184.005C341.446 190.671 341.421 196.81 341.498 202.941C341.498 203.425 342.134 204.063 342.628 204.36C346.405 206.655 350.207 208.905 354.029 211.117C355.326 211.865 356.714 212.458 358.094 213.135C358.236 212.761 358.345 212.606 358.345 212.452C358.358 206.539 358.409 200.62 358.306 194.708C358.294 194.082 357.561 193.257 356.945 192.889C353.618 190.929 350.214 189.098 346.848 187.196C345.152 186.235 343.489 185.21 341.446 183.992V184.005Z" fill="black"/>
<path d="M270.776 170.878C270.776 177.932 270.757 184.985 270.796 192.046C270.796 193.225 270.507 193.973 269.376 194.605C263.519 197.887 257.712 201.266 251.9 204.644C245.316 208.474 238.746 212.311 232.207 216.205C231.154 216.83 230.383 216.856 229.304 216.224C223.337 212.73 217.3 209.345 211.314 205.876C204.788 202.091 198.282 198.274 191.801 194.405C191.3 194.109 190.832 193.283 190.832 192.697C190.78 178.131 190.78 163.573 190.832 149.007C190.832 148.401 191.358 147.537 191.891 147.221C202.463 141.032 213.067 134.9 223.671 128.768C225.727 127.575 227.782 126.383 229.876 125.254C230.3 125.028 231.013 124.867 231.372 125.074C235.021 127.124 238.617 129.265 242.24 131.36C249.164 135.358 256.094 139.342 263.018 143.333C265.311 144.655 267.648 145.919 269.845 147.389C270.385 147.75 270.712 148.795 270.719 149.53C270.783 156.641 270.757 163.753 270.757 170.865L270.776 170.878ZM193.047 148.936C192.88 149.633 192.617 150.245 192.611 150.858C192.579 156.893 192.617 162.921 192.572 168.956C192.559 170.472 193.298 171.323 194.525 171.967C195.739 172.606 196.927 173.289 198.115 173.979C201.737 176.068 205.36 178.164 209.336 180.466C209.509 179.524 209.734 178.86 209.74 178.202C209.766 172.283 209.715 166.364 209.785 160.446C209.805 158.905 209.085 158.053 207.897 157.383C203.067 154.636 198.237 151.896 193.047 148.949V148.936ZM211.699 160.039C211.648 160.884 211.596 161.271 211.596 161.658C211.596 167.86 211.635 174.057 211.558 180.259C211.545 181.478 212.04 182.09 212.977 182.619C215.091 183.812 217.178 185.05 219.278 186.255C222.233 187.945 225.187 189.621 228.392 191.446C228.495 190.569 228.63 189.931 228.636 189.292C228.649 183.431 228.566 177.57 228.688 171.71C228.726 169.878 227.891 168.969 226.485 168.176C222.207 165.758 217.962 163.276 213.69 160.845C213.151 160.536 212.528 160.375 211.693 160.046L211.699 160.039ZM268.554 148.749C263.615 151.638 259.145 154.475 254.462 156.886C252.144 158.079 251.489 159.523 251.566 161.987C251.739 167.39 251.617 172.799 251.624 178.209C251.624 178.854 251.701 179.498 251.758 180.311C252.478 180.021 253.017 179.872 253.486 179.608C258.136 176.945 262.754 174.237 267.417 171.594C268.329 171.078 268.586 170.446 268.573 169.453C268.535 164.72 268.554 159.988 268.554 155.255C268.554 153.237 268.554 151.212 268.554 148.743V148.749ZM213.8 158.498C214.352 158.956 214.686 159.324 215.09 159.562C219.381 162.077 223.665 164.611 228 167.061C229.259 167.77 230.544 168.802 232.169 167.802C234.006 166.674 235.875 165.597 237.731 164.501C240.435 162.896 243.145 161.297 245.843 159.672C246.28 159.407 246.941 159.033 246.954 158.692C246.967 158.292 246.46 157.737 246.036 157.492C241.231 154.675 236.408 151.883 231.559 149.149C231.154 148.924 230.377 148.988 229.946 149.233C224.648 152.231 219.381 155.294 213.812 158.505L213.8 158.498ZM195.27 147.363C195.186 147.582 195.109 147.795 195.026 148.014C195.405 148.247 195.777 148.479 196.156 148.704C200.524 151.219 204.859 153.772 209.271 156.203C210.338 156.79 211.41 157.841 212.913 156.944C217.274 154.346 221.68 151.831 226.067 149.272C226.857 148.807 227.634 148.317 228.63 147.711C227.763 147.131 227.23 146.731 226.658 146.396C222.059 143.701 217.473 140.986 212.83 138.375C212.29 138.072 211.301 138.124 210.729 138.42C208.52 139.549 206.388 140.825 204.249 142.076C201.249 143.83 198.263 145.603 195.27 147.37V147.363ZM266.435 147.737C265.632 147.17 265.124 146.757 264.565 146.428C259.973 143.733 255.387 141.025 250.744 138.42C250.172 138.098 249.119 138.137 248.521 138.453C245.451 140.064 242.445 141.786 239.446 143.527C237.269 144.797 235.155 146.164 232.837 147.595C233.421 148.092 233.749 148.466 234.16 148.704C238.495 151.251 242.811 153.837 247.211 156.267C248.29 156.867 249.363 157.847 251 156.764C253.827 154.894 256.916 153.418 259.864 151.722C261.984 150.503 264.052 149.188 266.435 147.737ZM211.603 184.063C211.603 190.653 211.577 196.733 211.648 202.82C211.648 203.329 212.232 204.019 212.72 204.315C216.471 206.566 220.261 208.751 224.057 210.931C225.406 211.704 226.799 212.42 228.244 213.2C228.431 212.755 228.591 212.556 228.591 212.356C228.611 206.488 228.643 200.621 228.553 194.754C228.546 194.141 227.898 193.316 227.32 192.968C223.871 190.904 220.351 188.951 216.85 186.971C215.238 186.062 213.607 185.179 211.596 184.063H211.603ZM247.41 136.873C246.794 136.331 246.479 135.944 246.074 135.706C241.411 132.966 236.755 130.206 232.027 127.582C231.34 127.201 230.101 127.176 229.413 127.543C225.862 129.458 222.393 131.554 218.912 133.604C217.236 134.59 215.591 135.622 213.748 136.75C218.931 139.819 223.748 142.714 228.611 145.519C229.754 146.177 230.968 146.725 232.387 145.751C234.096 144.578 235.971 143.662 237.763 142.605C240.878 140.767 243.98 138.91 247.41 136.873ZM209.753 192.361C209.753 189.879 209.67 187.397 209.785 184.927C209.849 183.502 209.342 182.658 208.135 181.974C203.574 179.395 199.059 176.745 194.518 174.14C192.816 173.16 192.604 173.283 192.598 175.288C192.585 180.414 192.617 185.546 192.579 190.672C192.572 192.046 193.047 192.993 194.268 193.677C198.777 196.217 203.234 198.835 207.743 201.375C209.535 202.388 209.747 202.22 209.753 200.144C209.766 197.552 209.753 194.96 209.753 192.368V192.361ZM249.806 194.044C249.806 191.788 249.844 189.531 249.787 187.274C249.761 186.359 249.523 185.443 249.382 184.528C248.56 184.908 247.699 185.217 246.916 185.675C242.94 187.983 239.086 190.524 234.988 192.581C233.267 193.438 232.914 194.386 232.927 196.03C232.978 201.221 232.933 206.411 232.94 211.608C232.94 212.02 233.023 212.433 233.068 212.846C233.524 212.755 234.051 212.781 234.436 212.556C239.022 209.899 243.537 207.127 248.181 204.58C249.44 203.89 249.812 203.09 249.806 201.833C249.793 199.235 249.806 196.643 249.806 194.044Z" fill="black"/>
<path d="M141.409 170.871C141.409 177.924 141.338 184.978 141.46 192.025C141.486 193.618 140.792 194.385 139.636 195.049C135.044 197.686 130.439 200.304 125.846 202.941C118.775 207.003 111.71 211.085 104.638 215.16C104.304 215.353 103.964 215.559 103.675 215.811C102.288 217.004 101.061 216.888 99.4551 215.914C93.7966 212.484 88.0161 209.266 82.2933 205.952C78.7094 203.876 75.1576 201.755 71.5865 199.659C68.6769 197.951 65.7931 196.216 62.845 194.579C61.8302 194.011 61.4256 193.321 61.4256 192.174C61.4513 177.957 61.477 163.739 61.4063 149.522C61.3935 147.15 63.346 146.776 64.6563 145.963C68.6898 143.455 72.8903 141.224 77.0073 138.858C82.8521 135.505 88.684 132.133 94.516 128.767C96.5648 127.581 98.588 126.343 100.675 125.228C101.112 124.995 101.902 124.97 102.32 125.208C110.38 129.844 118.402 134.544 126.45 139.213C130.978 141.837 135.494 144.487 140.086 146.995C141.184 147.595 141.435 148.272 141.435 149.381C141.409 156.544 141.422 163.714 141.422 170.877L141.409 170.871ZM103.752 191.342C104.285 191.103 104.491 191.026 104.677 190.916C109.558 188.131 114.433 185.339 119.321 182.56C120.239 182.038 120.612 181.322 120.605 180.233C120.56 174.036 120.586 167.84 120.58 161.644C120.58 161.218 120.464 160.799 120.374 160.161C119.713 160.4 119.18 160.509 118.73 160.761C114.318 163.243 109.911 165.732 105.518 168.246C104.253 168.969 103.508 169.884 103.54 171.573C103.656 177.544 103.579 183.514 103.585 189.485C103.585 190.02 103.688 190.555 103.765 191.335L103.752 191.342ZM122.301 169.446C122.301 172.321 122.295 175.203 122.301 178.079C122.308 180.381 122.667 180.587 124.678 179.427C128.775 177.054 132.777 174.501 136.977 172.341C138.962 171.322 139.553 170.078 139.514 168.001C139.418 162.527 139.501 157.06 139.456 151.586C139.456 150.851 139.148 150.116 138.981 149.381C138.326 149.632 137.62 149.806 137.016 150.148C133.168 152.308 129.366 154.552 125.5 156.686C123.297 157.898 121.832 159.291 122.224 162.186C122.545 164.571 122.288 167.028 122.288 169.452L122.301 169.446ZM80.3215 180.536C80.4564 179.917 80.5463 179.704 80.5463 179.491C80.5592 172.831 80.5913 166.177 80.527 159.516C80.527 158.994 79.9875 158.298 79.5058 158.001C76.9238 156.421 74.2841 154.945 71.6636 153.43C69.088 151.947 66.5189 150.464 63.7442 148.858C63.6928 149.709 63.6286 150.264 63.6286 150.818C63.6222 156.969 63.6736 163.121 63.5836 169.272C63.5644 170.626 64.136 171.315 65.1701 171.896C67.9062 173.43 70.6359 174.984 73.3592 176.538C75.6072 177.821 77.8487 179.117 80.3215 180.542V180.536ZM82.3319 193.927C82.3319 196.635 82.3576 199.343 82.319 202.058C82.2997 203.193 82.7301 203.876 83.732 204.45C88.4143 207.132 93.058 209.892 97.7081 212.626C98.9798 213.374 99.6671 212.98 99.6735 211.433C99.6863 206.184 99.757 200.93 99.6093 195.688C99.5836 194.753 98.8449 193.47 98.0485 192.993C93.4112 190.207 88.6519 187.615 83.944 184.939C82.6016 184.179 82.3576 184.262 82.3447 185.797C82.3126 188.505 82.3383 191.213 82.3319 193.927ZM118.216 158.659C117.709 158.227 117.555 158.053 117.368 157.943C112.307 154.964 107.246 151.973 102.146 149.058C101.767 148.839 100.984 149.058 100.521 149.316C97.5604 150.934 94.6251 152.591 91.7156 154.287C89.6796 155.474 87.6756 156.724 85.6782 157.975C84.734 158.568 85.0294 159.11 85.8259 159.561C90.5145 162.237 95.2096 164.894 99.879 167.608C100.99 168.253 101.902 168.369 103.09 167.647C106.867 165.377 110.74 163.262 114.555 161.051C115.75 160.354 116.874 159.536 118.216 158.659ZM65.7803 147.543C66.2684 148.072 66.4739 148.439 66.7822 148.62C71.2589 151.218 75.7164 153.849 80.2637 156.325C81.2785 156.879 82.2612 157.821 83.8733 156.802C88.1188 154.113 92.5763 151.753 96.9438 149.252C97.7145 148.813 98.466 148.33 99.4551 147.723C98.5816 147.137 98.0485 146.743 97.4769 146.408C92.8589 143.707 88.2601 140.973 83.5907 138.361C83.0255 138.046 81.9658 138.162 81.3556 138.484C78.4461 140.044 75.6007 141.74 72.7426 143.41C70.4753 144.732 68.2273 146.086 65.7803 147.543ZM103.701 147.511C104.195 148.072 104.401 148.452 104.715 148.633C109.545 151.412 114.369 154.203 119.25 156.879C119.835 157.202 120.901 157.144 121.511 156.821C125.121 154.9 128.666 152.862 132.211 150.825C133.824 149.903 135.378 148.884 137.202 147.769C136.438 147.201 135.982 146.795 135.474 146.492C130.76 143.707 126.052 140.915 121.299 138.207C120.837 137.942 119.937 138.058 119.43 138.336C116.855 139.741 114.33 141.25 111.8 142.733C109.154 144.287 106.514 145.854 103.713 147.504L103.701 147.511ZM118.165 136.93C117.58 136.389 117.24 135.95 116.797 135.686C112.147 132.926 107.509 130.147 102.801 127.497C102.166 127.143 100.99 127.181 100.329 127.536C96.3465 129.689 92.4285 131.965 88.517 134.248C87.2839 134.964 86.1278 135.815 84.7276 136.743C85.3121 137.13 85.524 137.291 85.7488 137.42C90.7779 140.36 95.7941 143.32 100.849 146.208C101.209 146.415 101.941 146.26 102.365 146.028C105.55 144.274 108.71 142.475 111.864 140.657C113.906 139.483 115.923 138.258 118.165 136.924V136.93ZM120.586 184.037C118.518 185.204 116.899 186.119 115.281 187.035C111.825 188.989 108.357 190.929 104.921 192.922C104.028 193.437 103.546 194.198 103.559 195.378C103.624 200.736 103.585 206.094 103.591 211.446C103.591 211.968 103.701 212.49 103.778 213.116C104.272 212.961 104.561 212.922 104.792 212.787C109.52 210.072 114.221 207.3 118.987 204.656C120.246 203.96 120.638 203.122 120.618 201.729C120.548 196.764 120.593 191.806 120.593 186.841V184.037H120.586ZM139.469 183.108C139.469 183.108 139.482 183.108 139.489 183.108C139.489 180.349 139.508 177.583 139.476 174.823C139.463 173.875 139.431 173.127 138.056 173.933C133.644 176.519 129.122 178.911 124.716 181.509C123.663 182.128 122.269 182.644 122.288 184.398C122.346 189.807 122.288 195.217 122.32 200.633C122.327 202.122 122.918 202.38 124.241 201.613C128.827 198.95 133.445 196.345 137.973 193.579C138.686 193.147 139.347 192.051 139.399 191.219C139.578 188.524 139.463 185.816 139.463 183.108H139.469Z" fill="black"/>
<path d="M400.496 70.3851C400.496 77.3808 400.445 84.3829 400.541 91.3787C400.561 92.8487 400.002 93.6418 398.852 94.3123C393.213 97.5748 387.593 100.876 381.96 104.139C375.229 108.033 368.498 111.927 361.722 115.738C361.105 116.086 359.981 116.144 359.378 115.815C353.886 112.766 348.459 109.619 343.025 106.466C336.063 102.43 329.12 98.355 322.151 94.3381C320.963 93.6547 320.513 92.8229 320.519 91.3915C320.584 77.3937 320.603 63.3958 320.5 49.4044C320.487 47.5474 321.348 46.6319 322.665 45.8646C327.077 43.2984 331.515 40.7645 335.96 38.2499C341.227 35.2646 346.525 32.3245 351.786 29.3263C354.426 27.8176 357.001 26.1928 359.641 24.684C360.058 24.4455 360.803 24.3423 361.189 24.5551C366.905 27.7982 372.596 31.093 378.273 34.4071C384.593 38.0952 390.894 41.8219 397.214 45.5164C397.446 45.6518 397.773 45.6325 398.017 45.7614C399.546 46.5609 400.631 47.4249 400.573 49.5591C400.4 56.4968 400.509 63.4409 400.509 70.3851H400.496ZM362.409 79.689C362.409 82.8484 362.383 86.0077 362.422 89.1671C362.435 90.5211 363.083 90.837 364.246 90.16C368.915 87.4262 373.617 84.7376 378.241 81.9135C378.929 81.4944 379.661 80.4692 379.674 79.7084C379.789 73.5057 379.757 67.2966 379.731 61.0875C379.731 59.5594 379.237 59.3338 377.914 60.0881C373.174 62.7897 368.402 65.4397 363.726 68.2444C363.064 68.6377 362.512 69.7467 362.473 70.5527C362.326 73.596 362.415 76.6457 362.415 79.6955L362.409 79.689ZM322.543 48.3727C322.376 49.1336 322.292 49.3463 322.292 49.5655C322.286 56.0454 322.266 62.5254 322.318 69.0053C322.318 69.5017 322.729 70.1981 323.153 70.4495C328.073 73.3961 333.025 76.2911 337.983 79.1668C339.3 79.9276 339.634 79.7277 339.64 78.2061C339.659 71.9518 339.685 65.6976 339.595 59.4434C339.582 58.7148 339.004 57.7025 338.381 57.3221C334.573 55.0138 330.674 52.841 326.795 50.6423C325.484 49.9008 324.142 49.2238 322.549 48.3727H322.543ZM381.491 79.6246C381.902 79.5794 382.211 79.6246 382.416 79.5021C387.509 76.5361 392.609 73.5702 397.664 70.5398C398.056 70.3077 398.351 69.5855 398.358 69.0891C398.403 62.7188 398.39 56.3549 398.383 49.9846C398.383 49.6042 398.306 49.2303 398.242 48.6435C397.683 48.7918 397.176 48.8176 396.784 49.0433C392.153 51.7255 387.548 54.4658 382.904 57.1351C381.819 57.7605 381.344 58.502 381.35 59.7851C381.401 65.8137 381.369 71.8422 381.382 77.8772C381.382 78.4188 381.446 78.9669 381.491 79.6246ZM358.099 90.721C358.247 90.2181 358.337 90.0633 358.337 89.9021C358.35 83.2417 358.382 76.5813 358.311 69.9273C358.311 69.347 357.772 68.541 357.252 68.2251C352.473 65.3752 347.649 62.6092 342.826 59.8431C342.473 59.6368 342.004 59.6304 341.541 59.5207C341.49 59.8947 341.432 60.1139 341.432 60.3331C341.432 66.9356 341.4 73.538 341.477 80.1404C341.484 80.7464 342.055 81.5653 342.601 81.9006C346.525 84.2798 350.501 86.5751 354.477 88.8641C355.627 89.5282 356.84 90.0827 358.093 90.721H358.099ZM322.273 82.5453C322.273 85.2469 322.202 87.9549 322.324 90.6565C322.356 91.3593 322.819 92.3393 323.384 92.6811C328.047 95.4923 332.781 98.1938 337.501 100.908C339.081 101.817 339.627 101.508 339.634 99.709C339.647 94.5251 339.614 89.3476 339.653 84.1637C339.666 82.7259 338.94 81.9135 337.784 81.3138C337.399 81.114 337.02 80.9076 336.641 80.6884C332.35 78.2319 328.034 75.814 323.789 73.2865C322.356 72.4354 322.273 73.1511 322.273 74.2665C322.273 77.0261 322.273 79.7857 322.273 82.5453ZM379.166 83.6737C373.591 86.8717 368.414 89.8119 363.289 92.8423C362.827 93.1195 362.454 93.9577 362.448 94.5444C362.383 100.18 362.396 105.809 362.422 111.444C362.422 112.417 362.666 112.92 363.848 112.217C368.581 109.4 373.36 106.66 378.164 103.958C379.346 103.294 379.738 102.372 379.738 101.115C379.725 96.0468 379.751 90.9724 379.712 85.9046C379.712 85.2405 379.397 84.5828 379.166 83.6737ZM377.034 36.077C376.539 35.645 376.218 35.2453 375.801 35.0067C371.048 32.2729 366.301 29.5391 361.503 26.8891C360.964 26.5925 360.013 26.5796 359.448 26.8504C357.862 27.6048 356.372 28.572 354.843 29.4617C351.156 31.6153 347.476 33.7688 343.577 36.0512C344.226 36.5477 344.656 36.9539 345.151 37.2505C349.416 39.7715 353.68 42.299 357.977 44.762C359.14 45.4261 360.283 46.2901 361.825 45.3875C366.571 42.5827 371.369 39.8683 376.135 37.0893C376.481 36.8894 376.7 36.4639 377.034 36.0835V36.077ZM398.216 72.6869C396.546 73.6153 395.198 74.3439 393.862 75.1047C390.124 77.2325 386.36 79.3086 382.692 81.5589C382.037 81.9651 381.44 83.0547 381.427 83.8413C381.318 89.1993 381.369 94.5573 381.382 99.9154C381.382 100.444 381.498 100.966 381.588 101.721C382.423 101.308 383.033 101.05 383.592 100.721C388.049 98.1229 392.449 95.4213 396.99 92.9648C398.114 92.3587 398.403 91.772 398.396 90.6694C398.37 85.3114 398.39 79.9534 398.377 74.5954C398.377 74.0538 398.281 73.5122 398.21 72.6933L398.216 72.6869ZM343.442 58.0765C344.188 58.5923 344.406 58.7664 344.644 58.9018C348.94 61.3583 353.314 63.6924 357.502 66.3101C359.474 67.5416 360.958 67.9285 363.096 66.5487C367.297 63.8407 371.722 61.4808 376.058 58.9856C377.175 58.3408 377.194 57.8443 376.019 57.1673C371.42 54.5431 366.847 51.8867 362.3 49.1722C361.131 48.4759 360.039 48.3405 358.889 49.0046C355.068 51.2226 351.259 53.4664 347.45 55.7037C346.217 56.4259 344.99 57.1544 343.449 58.0636L343.442 58.0765ZM358.074 112.753C358.209 112.321 358.331 112.114 358.331 111.908C358.343 105.931 358.363 99.954 358.318 93.9771C358.318 93.5838 357.977 93.0357 357.63 92.8294C355.068 91.2819 352.467 89.7925 349.872 88.3031C347.161 86.7557 344.438 85.2276 341.451 83.5383C341.451 90.1471 341.445 96.4014 341.477 102.649C341.477 102.959 341.74 103.391 342.01 103.545C347.303 106.602 352.608 109.626 358.08 112.753H358.074Z" fill="black"/>
<path d="M143.652 70.4366C143.652 77.5484 143.633 84.6537 143.672 91.7655C143.672 92.81 143.44 93.4418 142.438 94.0092C136.061 97.6264 129.734 101.34 123.401 105.028C117.242 108.613 111.101 112.237 104.897 115.751C104.293 116.092 103.163 116.092 102.553 115.751C96.862 112.572 91.2292 109.29 85.59 106.028C78.8139 102.107 72.0443 98.168 65.2553 94.2671C64.157 93.6353 63.6304 92.926 63.6368 91.5333C63.701 77.3162 63.6882 63.0927 63.6496 48.8756C63.6496 47.715 64.0029 47.0251 64.9856 46.4642C73.2582 41.6929 81.5051 36.8829 89.7648 32.0923C94.158 29.5455 98.5577 27.0116 102.983 24.5228C103.343 24.3164 104.036 24.3745 104.415 24.5872C114.57 30.3901 124.705 36.2317 134.834 42.0733C137.319 43.5111 139.76 45.0328 142.278 46.4126C143.293 46.9671 143.684 47.599 143.678 48.7724C143.627 55.9938 143.652 63.2152 143.652 70.4366ZM66.0261 48.4243C65.8527 49.1915 65.7178 49.5075 65.7178 49.8298C65.7049 56.2066 65.6664 62.5898 65.7627 68.9665C65.7756 69.6822 66.4307 70.63 67.0601 71.0491C68.6145 72.0872 70.3486 72.848 71.9736 73.7829C74.9666 75.5044 77.9083 77.3162 80.927 78.9991C82.6162 79.9469 82.7896 79.805 82.7961 77.9803C82.8025 71.8809 82.7832 65.7878 82.8153 59.6883C82.8153 58.4762 82.3593 57.754 81.2995 57.1673C78.0111 55.3491 74.7868 53.4212 71.5304 51.5449C69.777 50.5326 68.0171 49.5462 66.0325 48.4178L66.0261 48.4243ZM101.319 90.6565C101.448 90.0955 101.557 89.8247 101.557 89.5604C101.57 83.074 101.609 76.5941 101.512 70.1078C101.506 69.4501 100.831 68.5668 100.228 68.1992C95.9307 65.5944 91.5825 63.0862 87.2278 60.5781C86.4828 60.1526 85.6542 59.8689 84.7422 59.4627C84.6523 60.0687 84.588 60.288 84.588 60.5072C84.5752 67.0451 84.5431 73.5895 84.6201 80.1274C84.6266 80.7335 85.2239 81.5588 85.7762 81.8941C90.1245 84.5247 94.5241 87.078 98.9238 89.6184C99.6367 90.031 100.446 90.2889 101.313 90.6629L101.319 90.6565ZM124.461 79.6696C125.052 79.56 125.527 79.5923 125.874 79.3924C130.588 76.6844 135.277 73.9312 139.998 71.2168C140.993 70.6429 141.488 69.9788 141.469 68.728C141.391 62.6929 141.43 56.6644 141.424 50.6294C141.424 50.0297 141.424 49.4301 141.424 48.4887C140.634 48.8563 140.152 49.0432 139.702 49.2947C135.373 51.7319 131.057 54.1885 126.728 56.6321C125.257 57.4639 124.236 58.3859 124.397 60.404C124.621 63.2603 124.454 66.1489 124.454 69.0245V79.6696H124.461ZM105.989 90.5597C106.528 90.4114 106.978 90.3792 107.331 90.1729C111.731 87.6518 116.092 85.0728 120.517 82.5904C122.129 81.6813 122.939 80.6045 122.772 78.6187C122.56 76.1557 122.72 73.6604 122.72 71.1781C122.72 67.7415 122.714 64.2984 122.72 60.8618C122.72 59.8818 122.451 59.1983 121.365 59.8237C116.529 62.5962 111.692 65.3752 106.914 68.2573C106.342 68.6054 105.86 69.5984 105.848 70.3012C105.764 76.5619 105.796 82.8161 105.809 89.0768C105.809 89.5088 105.905 89.9408 105.976 90.5597H105.989ZM105.777 46.9155C106.445 47.4507 106.862 47.8698 107.351 48.1599C111.962 50.8808 116.561 53.634 121.237 56.2388C121.956 56.6386 123.253 56.7031 123.941 56.3162C128.655 53.6791 133.273 50.8808 137.93 48.1406C138.398 47.8633 138.887 47.6119 139.452 47.3024C138.598 46.5286 138.283 46.1224 137.865 45.8839C133.357 43.2661 128.828 40.7 124.332 38.0693C123.048 37.3149 121.885 37.4181 120.704 38.1983C120.376 38.411 120.074 38.656 119.734 38.8495C115.212 41.4672 110.684 44.0785 105.777 46.9155ZM103.754 48.4178C103.06 48.7144 102.488 48.9014 101.975 49.198C100.016 50.3392 98.0952 51.5449 96.1298 52.6733C93.4515 54.2078 90.7539 55.7166 88.0371 57.1931C86.9645 57.7734 86.7718 58.2892 87.9472 58.9404C88.6023 59.3015 89.251 59.6819 89.9061 60.0558C94.2158 62.5253 98.5255 65.0141 102.855 67.4513C103.246 67.6705 103.934 67.7866 104.287 67.5932C106.458 66.4068 108.564 65.085 110.716 63.8664C113.343 62.377 116.021 60.9779 118.635 59.4691C119.156 59.1661 119.817 58.56 119.824 58.0829C119.83 57.6315 119.143 57.0319 118.629 56.7289C114.531 54.3303 110.408 51.9834 106.278 49.6364C105.469 49.1786 104.602 48.824 103.754 48.4178ZM120.498 36.135C120.061 35.8513 119.926 35.7546 119.779 35.6708C115.424 33.1046 110.973 30.6803 106.747 27.9207C104.557 26.4893 102.739 26.2185 100.709 27.9207C100.253 28.3011 99.6688 28.5332 99.1486 28.8427C95.1022 31.1961 91.0622 33.5559 86.8039 36.0383C87.3627 36.509 87.7288 36.9216 88.1784 37.1795C92.8221 39.8553 97.4915 42.4795 102.109 45.194C103.208 45.8387 104.056 45.9032 105.167 45.2327C109.521 42.6214 113.934 40.1068 118.321 37.5471C118.989 37.1537 119.625 36.7024 120.504 36.1286L120.498 36.135ZM66.1031 72.8093C65.9426 73.3961 65.7306 73.8216 65.7306 74.2472C65.7049 79.8373 65.6921 85.421 65.7499 91.0111C65.7499 91.5849 66.116 92.4102 66.572 92.6875C71.2542 95.5115 75.9814 98.2582 80.7086 101.005C82.0831 101.804 82.7961 101.385 82.7961 99.8057C82.8089 94.5573 82.7575 89.3089 82.8282 84.0605C82.8474 82.7 82.1345 81.9457 81.1582 81.3847C76.2255 78.5413 71.2671 75.7495 66.1031 72.8158V72.8093ZM101.165 112.824C101.352 112.217 101.557 111.856 101.557 111.489C101.576 105.744 101.596 99.9927 101.525 94.2478C101.525 93.732 101.011 93.0356 100.536 92.7519C97.5172 90.9208 94.4471 89.167 91.3898 87.4068C89.2638 86.1882 87.1315 84.989 84.8899 83.7188C84.7293 84.241 84.6073 84.4474 84.6073 84.6537C84.5944 90.4566 84.5623 96.2595 84.6394 102.062C84.6458 102.617 85.2239 103.371 85.7441 103.687C90.786 106.73 95.8665 109.696 101.165 112.817V112.824ZM106.015 112.843C111.371 109.716 116.349 106.737 121.41 103.9C122.502 103.287 122.74 102.572 122.733 101.489C122.707 96.2982 122.733 91.1142 122.695 85.9239C122.695 85.3694 122.528 84.5183 122.187 84.3506C121.789 84.1637 121.05 84.4925 120.556 84.7697C116.163 87.2327 111.814 89.7731 107.395 92.1974C106.214 92.8487 105.77 93.6159 105.783 94.9635C105.854 100.205 105.809 105.454 105.822 110.696C105.822 111.289 105.931 111.882 106.021 112.843H106.015ZM141.276 72.7706C135.983 75.7817 130.98 78.6251 125.983 81.4814C124.962 82.0617 124.39 82.8096 124.422 84.1701C124.525 89.4185 124.461 94.6669 124.467 99.9153C124.467 100.444 124.519 100.973 124.551 101.643C125.322 101.411 125.906 101.347 126.368 101.076C130.935 98.4001 135.431 95.5954 140.075 93.055C141.295 92.3909 141.449 91.6816 141.443 90.5726C141.424 85.2662 141.443 79.9662 141.43 74.6598C141.43 74.1117 141.346 73.5701 141.282 72.7706H141.276Z" fill="black"/>
<path d="M270.777 70.3333C270.777 77.387 270.745 84.4408 270.803 91.4945C270.816 92.7067 270.495 93.4804 269.428 94.08C264.804 96.6913 260.199 99.3413 255.613 102.004C251.387 104.461 247.193 106.975 242.966 109.438C239.241 111.611 235.484 113.739 231.752 115.905C230.134 116.847 229.067 115.493 227.976 114.874C218.618 109.542 209.324 104.1 200.017 98.6901C197.345 97.1362 194.692 95.5436 192.008 94.0155C191.147 93.5255 190.775 92.9388 190.775 91.8878C190.813 77.4966 190.826 63.1119 190.762 48.7207C190.755 46.9283 192.021 46.4511 193.087 45.8193C197.358 43.2853 201.687 40.861 205.99 38.398C211.206 35.4127 216.427 32.421 221.643 29.4293C224.411 27.8432 227.153 26.2119 229.947 24.6709C230.358 24.4388 231.097 24.355 231.476 24.5678C240.063 29.5131 248.619 34.523 257.193 39.5006C261.182 41.8153 265.183 44.1171 269.21 46.3609C270.379 47.0121 270.816 47.818 270.803 49.172C270.739 56.2258 270.771 63.2795 270.771 70.3333H270.777ZM209.754 68.9535C209.754 65.8522 209.741 62.7508 209.76 59.6495C209.767 58.4696 209.343 57.741 208.251 57.122C203.633 54.5172 199.079 51.7962 194.513 49.0947C193.292 48.3725 192.618 48.682 192.611 50.1456C192.586 56.3483 192.567 62.551 192.644 68.7536C192.65 69.3919 193.138 70.2817 193.671 70.6105C198.27 73.4282 202.894 76.2135 207.602 78.8571C209.651 80.0048 209.748 79.8371 209.754 77.4064C209.754 74.5887 209.754 71.7711 209.754 68.947V68.9535ZM228.367 90.7982C228.522 90.0567 228.624 89.7859 228.624 89.5151C228.637 83.0352 228.682 76.5488 228.573 70.0689C228.56 69.4048 227.77 68.5344 227.115 68.1346C222.876 65.5362 218.585 63.0345 214.289 60.5328C213.531 60.0944 212.676 59.8107 211.803 59.4303C211.687 59.9074 211.617 60.0686 211.617 60.2298C211.61 66.8838 211.572 73.5313 211.655 80.1853C211.662 80.7785 212.304 81.5651 212.863 81.9068C216.203 83.9636 219.594 85.9302 222.991 87.8903C224.687 88.8639 226.428 89.7536 228.367 90.7982ZM251.624 79.5857C252.119 79.5599 252.44 79.6308 252.658 79.5083C257.668 76.6326 262.684 73.7634 267.643 70.7911C268.144 70.488 268.516 69.5467 268.523 68.8954C268.587 62.6412 268.561 56.3805 268.561 50.1263C268.561 49.6879 268.504 49.2494 268.459 48.682C267.926 48.7787 267.437 48.7529 267.084 48.9593C262.376 51.6931 257.668 54.4333 253.012 57.2445C252.427 57.5991 251.701 58.3535 251.695 58.9338C251.605 65.749 251.637 72.5642 251.637 79.5792L251.624 79.5857ZM232.953 90.5274C233.499 90.3726 234.032 90.3275 234.456 90.0825C239.036 87.4454 243.57 84.718 248.188 82.1518C249.428 81.4684 249.82 80.6044 249.813 79.3342C249.8 77.3032 249.813 75.2722 249.813 73.2476C249.813 69.1856 249.832 65.13 249.8 61.068C249.787 59.5721 249.415 59.3723 248.15 60.0944C243.705 62.6412 239.286 65.2461 234.809 67.7413C233.718 68.3538 232.908 68.8503 232.921 70.3333C232.992 76.9679 232.953 83.609 232.953 90.5209V90.5274ZM214.006 58.289C218.328 60.8359 222.413 63.0861 226.325 65.6071C229.164 67.4383 231.534 68.1475 234.681 65.8199C238.201 63.2151 242.292 61.3839 246.101 59.1659C247.379 58.4244 247.315 57.8635 246.024 57.1027C241.483 54.4398 236.948 51.7769 232.42 49.0947C231.386 48.4821 230.32 48.3081 229.273 48.9141C224.501 51.6673 219.748 54.4527 215.001 57.251C214.623 57.4766 214.359 57.9086 214.006 58.2826V58.289ZM213.794 36.0253C214.321 36.4959 214.642 36.8957 215.059 37.1343C219.401 39.6682 223.762 42.1634 228.104 44.6974C229.658 45.6065 231.039 46.1288 232.85 45.0069C237.237 42.2795 241.772 39.7843 246.223 37.1601C246.634 36.915 246.91 36.4379 247.257 36.0639C246.705 35.5933 246.371 35.2064 245.953 34.9678C241.219 32.2598 236.486 29.5518 231.72 26.9018C231.238 26.631 230.397 26.4763 229.967 26.7148C224.623 29.7259 219.33 32.8143 213.781 36.0253H213.794ZM228.374 47.0443C228.181 46.78 228.136 46.6639 228.053 46.6123C223.094 43.7238 218.11 40.8868 213.197 37.9338C212.047 37.2439 211.135 37.4631 210.159 38.0305C207.776 39.4103 205.419 40.8417 203.029 42.2086C200.839 43.4659 198.61 44.6458 196.433 45.9224C196.003 46.1739 195.47 46.6833 195.45 47.0959C195.431 47.4376 196.048 47.9083 196.478 48.1598C201.032 50.8613 205.566 53.5887 210.197 56.1484C210.974 56.5804 212.368 56.6127 213.145 56.1936C217.725 53.737 222.214 51.1063 226.704 48.495C227.333 48.1275 227.828 47.5279 228.374 47.0508V47.0443ZM228.252 112.785C228.425 112.262 228.618 111.946 228.618 111.631C228.637 105.828 228.656 100.018 228.586 94.2154C228.579 93.7061 228.021 93.0484 227.539 92.7196C226.081 91.7331 224.546 90.8497 223.011 89.9729C219.343 87.8645 215.669 85.7819 211.912 83.6477C211.771 84.0604 211.636 84.2731 211.636 84.4795C211.617 90.3984 211.597 96.3174 211.655 102.23C211.655 102.707 212.13 103.358 212.567 103.616C217.718 106.672 222.902 109.67 228.252 112.785ZM193.074 72.7705C192.888 73.4604 192.624 73.9827 192.618 74.4985C192.586 79.9145 192.567 85.3305 192.644 90.7466C192.656 91.4107 193.1 92.3585 193.639 92.6873C198.354 95.5501 203.132 98.3032 207.904 101.076C209.041 101.733 209.735 101.366 209.741 100.031C209.767 94.6152 209.805 89.1991 209.69 83.7831C209.671 82.99 209.047 81.881 208.367 81.4813C203.408 78.5476 198.366 75.7622 193.068 72.7705H193.074ZM268.561 72.5642C266.924 73.5442 265.716 74.2921 264.489 74.9949C260.706 77.1549 256.904 79.302 253.121 81.4555C252.087 82.0422 251.56 82.8031 251.586 84.1377C251.682 89.3797 251.624 94.6281 251.631 99.8765C251.631 100.412 251.695 100.947 251.74 101.637C252.479 101.385 253.037 101.289 253.506 101.024C257.899 98.5225 262.267 95.9692 266.673 93.4804C268.112 92.668 268.709 91.6686 268.619 89.9084C268.439 86.3106 268.568 82.6934 268.568 79.0828C268.568 77.0646 268.568 75.0401 268.568 72.5642H268.561ZM233.127 112.727C238.323 109.767 243.204 106.969 248.098 104.196C249.197 103.571 249.813 102.701 249.813 101.417C249.813 96.1175 249.832 90.824 249.8 85.524C249.794 84.099 249.068 83.738 247.848 84.4472C243.333 87.0779 238.837 89.7536 234.296 92.3391C233.307 92.9001 232.921 93.5578 232.934 94.6926C232.979 100.102 232.953 105.512 232.966 110.921C232.966 111.456 233.062 111.992 233.127 112.72V112.727Z" fill="black"/>
<path d="M441.056 218.016H293.027V329.453H441.056V218.016Z" fill="white"/>
<path fill-rule="evenodd" clip-rule="evenodd" d="M437.544 221.325H296.298V326.112H437.544V221.325ZM440.935 218V329.438H292.906V218H440.935Z" fill="#0070F3"/>
<path d="M357.86 285.857C357.894 274.129 360.876 270.494 366.382 266.96C370.716 264.195 374.011 261.497 374.011 257.272C374.011 253.047 370.749 250.416 366.661 250.416C362.574 250.416 358.866 253.326 358.754 258.131H342.805C343.017 243.593 353.761 237.127 366.795 237.127C381.08 237.127 391.445 243.905 391.445 256.47C391.445 264.742 387.045 269.758 380.388 273.66C375.15 276.771 372.626 279.714 372.626 285.835V287.25H357.86V285.835V285.857ZM356.509 300.974C356.442 296.058 360.53 292.078 365.522 292.078C370.515 292.078 374.469 296.058 374.536 300.974C374.469 305.958 370.269 309.971 365.522 309.971C360.53 309.971 356.442 305.958 356.509 300.974Z" fill="#0070F3"/>
</svg>
