<svg width="464" height="352" viewBox="0 0 464 352" fill="none" xmlns="http://www.w3.org/2000/svg">
<path d="M76.5487 85.0604C76.5487 88.0277 75.3459 90.4332 73.8622 90.4332C72.3785 90.4332 71.1758 88.0277 71.1758 85.0604C71.1758 82.093 72.3785 79.6875 73.8622 79.6875C75.3459 79.6875 76.5487 82.093 76.5487 85.0604Z" fill="black"/>
<path d="M124.904 85.0604C124.904 88.0277 123.701 90.4332 122.218 90.4332C120.734 90.4332 119.531 88.0277 119.531 85.0604C119.531 82.093 120.734 79.6875 122.218 79.6875C123.701 79.6875 124.904 82.093 124.904 85.0604Z" fill="black"/>
<path fill-rule="evenodd" clip-rule="evenodd" d="M97.3675 153.407C128.809 153.407 154.297 127.918 154.297 96.4769C154.297 65.0353 128.809 39.5469 97.3675 39.5469C65.9259 39.5469 40.4375 65.0353 40.4375 96.4769C40.4375 127.918 65.9259 153.407 97.3675 153.407ZM97.3675 154.907C129.637 154.907 155.797 128.747 155.797 96.4769C155.797 64.2069 129.637 38.0469 97.3675 38.0469C65.0975 38.0469 38.9375 64.2069 38.9375 96.4769C38.9375 128.747 65.0975 154.907 97.3675 154.907Z" fill="black"/>
<path fill-rule="evenodd" clip-rule="evenodd" d="M99.3818 90.4316L86.5859 112.595H112.178L99.3818 90.4316ZM99.3818 93.4316L89.184 111.095H109.58L99.3818 93.4316Z" fill="black"/>
<path fill-rule="evenodd" clip-rule="evenodd" d="M97.5625 129.765C91.1468 129.267 85.2125 127.878 81.6914 126.742L82.1519 125.314C85.5708 126.417 91.3896 127.782 97.6785 128.269C103.983 128.758 110.662 128.358 115.866 126.016L116.481 127.384C110.94 129.878 103.963 130.261 97.5625 129.765Z" fill="black"/>
<path d="M76.5487 246.76C76.5487 249.727 75.3459 252.132 73.8622 252.132C72.3785 252.132 71.1758 249.727 71.1758 246.76C71.1758 243.792 72.3785 241.387 73.8622 241.387C75.3459 241.387 76.5487 243.792 76.5487 246.76Z" fill="black"/>
<path d="M124.904 246.76C124.904 249.727 123.701 252.132 122.218 252.132C120.734 252.132 119.531 249.727 119.531 246.76C119.531 243.792 120.734 241.387 122.218 241.387C123.701 241.387 124.904 243.792 124.904 246.76Z" fill="black"/>
<path fill-rule="evenodd" clip-rule="evenodd" d="M97.3675 315.106C128.809 315.106 154.297 289.618 154.297 258.176C154.297 226.735 128.809 201.246 97.3675 201.246C65.9259 201.246 40.4375 226.735 40.4375 258.176C40.4375 289.618 65.9259 315.106 97.3675 315.106ZM97.3675 316.606C129.637 316.606 155.797 290.446 155.797 258.176C155.797 225.906 129.637 199.746 97.3675 199.746C65.0975 199.746 38.9375 225.906 38.9375 258.176C38.9375 290.446 65.0975 316.606 97.3675 316.606Z" fill="black"/>
<path fill-rule="evenodd" clip-rule="evenodd" d="M97.5625 291.464C91.1468 290.966 85.2125 289.577 81.6914 288.441L82.1519 287.014C85.5708 288.117 91.3896 289.481 97.6785 289.968C103.983 290.457 110.662 290.057 115.866 287.715L116.481 289.083C110.94 291.577 103.963 291.96 97.5625 291.464Z" fill="black"/>
<path d="M339.756 84.6072C339.756 87.609 338.539 90.0425 337.038 90.0425C335.537 90.0425 334.32 87.609 334.32 84.6072C334.32 81.6053 335.537 79.1719 337.038 79.1719C338.539 79.1719 339.756 81.6053 339.756 84.6072Z" fill="black"/>
<path d="M388.674 84.6072C388.674 87.609 387.457 90.0425 385.956 90.0425C384.455 90.0425 383.238 87.609 383.238 84.6072C383.238 81.6053 384.455 79.1719 385.956 79.1719C387.457 79.1719 388.674 81.6053 388.674 84.6072Z" fill="black"/>
<path fill-rule="evenodd" clip-rule="evenodd" d="M362.855 90.041L349.91 112.462H375.799L362.855 90.041ZM362.855 93.041L352.508 110.962H373.201L362.855 93.041Z" fill="black"/>
<path fill-rule="evenodd" clip-rule="evenodd" d="M361.014 129.821C354.525 129.318 348.522 127.912 344.961 126.764L345.421 125.336C348.881 126.452 354.768 127.832 361.13 128.325C367.508 128.82 374.267 128.415 379.533 126.045L380.149 127.413C374.545 129.935 367.489 130.323 361.014 129.821Z" fill="black"/>
<path fill-rule="evenodd" clip-rule="evenodd" d="M404.362 39.9062H318.633C307.863 39.9062 299.133 48.6367 299.133 59.4062V134.265C299.133 145.035 307.863 153.765 318.633 153.765H404.362C415.132 153.765 423.862 145.035 423.862 134.265V59.4062C423.862 48.6367 415.132 39.9062 404.362 39.9062ZM318.633 38.4062C307.035 38.4062 297.633 47.8083 297.633 59.4062V134.265C297.633 145.863 307.035 155.265 318.633 155.265H404.362C415.96 155.265 425.362 145.863 425.362 134.265V59.4062C425.362 47.8083 415.96 38.4062 404.362 38.4062H318.633Z" fill="black"/>
<path d="M441.15 218.016H293.121V329.453H441.15V218.016Z" fill="white"/>
<path fill-rule="evenodd" clip-rule="evenodd" d="M437.638 221.325H296.391V326.112H437.638V221.325ZM441.029 218V329.438H293V218H441.029Z" fill="#0070F3"/>
<path d="M357.954 285.857C357.988 274.129 360.97 270.494 366.476 266.96C370.81 264.195 374.104 261.497 374.104 257.272C374.104 253.047 370.843 250.416 366.755 250.416C362.667 250.416 358.959 253.326 358.848 258.131H342.898C343.111 243.593 353.855 237.127 366.889 237.127C381.174 237.127 391.539 243.905 391.539 256.47C391.539 264.742 387.138 269.758 380.482 273.66C375.244 276.771 372.719 279.714 372.719 285.835V287.25H357.954V285.835V285.857ZM356.603 300.974C356.536 296.058 360.623 292.078 365.616 292.078C370.608 292.078 374.562 296.058 374.629 300.974C374.562 305.958 370.363 309.971 365.616 309.971C360.623 309.971 356.536 305.958 356.603 300.974Z" fill="#0070F3"/>
</svg>
