<svg width="464" height="352" viewBox="0 0 464 352" fill="none" xmlns="http://www.w3.org/2000/svg">
<path fill-rule="evenodd" clip-rule="evenodd" d="M104.726 42.5141V45.2052H103.976C103.057 45.2052 101.871 45.5724 100.551 46.1951C99.2479 46.8095 97.8902 47.636 96.6504 48.4737C95.8444 49.0182 95.0943 49.5635 94.4489 50.0513C95.0962 49.9523 95.8169 49.846 96.5694 49.742C99.2102 49.3767 102.35 49.0223 104.029 49.1422L104.24 49.1572L104.412 49.28C105.248 49.8775 106.386 50.9188 106.946 52.0994C107.232 52.701 107.399 53.4066 107.22 54.1288C107.036 54.8667 106.524 55.4866 105.721 55.9687C105.117 56.3308 104.136 57.1483 102.905 58.2932C101.69 59.4228 100.277 60.827 98.8231 62.3202C95.9165 65.3058 92.8665 68.6269 90.9465 70.7728L90.9426 70.7772L90.3876 70.2727C90.9426 70.7771 90.9426 70.7771 90.9426 70.7772L90.9407 70.7792L90.9112 70.8117L90.8176 70.9152C90.7351 71.0065 90.6131 71.1418 90.4557 71.3174C90.1408 71.6684 89.6841 72.1801 89.1176 72.8218C87.9844 74.1054 86.4128 75.9085 84.6591 77.9858C81.1466 82.1467 76.9236 87.3849 74.0272 91.7491C68.8509 99.5487 63.9484 110.529 60.3314 119.594C58.5256 124.12 57.0452 128.155 56.0164 131.059C55.7346 131.854 55.4867 132.565 55.2753 133.177C55.869 132.678 56.5747 132.087 57.3712 131.426C59.9122 129.318 63.3794 126.489 67.0819 123.609C70.7825 120.731 74.7272 117.795 78.2212 115.476C79.9679 114.317 81.6112 113.306 83.0612 112.532C84.4724 111.779 85.7479 111.224 86.7785 110.995C88.658 110.296 93.3818 108.803 97.7681 108.255C98.8251 108.123 99.9638 107.933 101.116 107.71C101.772 107.583 102.372 107.473 102.935 107.369C105.428 106.91 107.179 106.588 109.824 105.581C114.573 103.771 118.06 101.605 121.022 98.8248C123.992 96.0368 126.463 92.6063 129.154 88.2242C133.765 80.7184 135.868 75.5894 135.838 66.8782C135.822 62.3823 134.661 57.7756 133.157 53.8304C131.652 49.8826 129.822 46.6497 128.514 44.9052L128.507 44.8963C126.695 42.4045 122.824 37.2518 116.091 36.216C112.781 35.7068 110.091 36.6929 108.139 38.1239C106.206 39.541 105.049 41.3553 104.726 42.5141ZM53.6993 135.496C52.9862 135.264 52.9863 135.264 52.9864 135.263L52.9933 135.242L53.0137 135.18C53.0318 135.125 53.0587 135.044 53.0941 134.937C53.1649 134.723 53.2699 134.409 53.4073 134.003C53.6819 133.192 54.0855 132.017 54.6025 130.558C55.6362 127.64 57.1236 123.586 58.9382 119.038C62.5619 109.956 67.5109 98.8551 72.7774 90.9197C75.724 86.4799 79.9936 81.1872 83.5129 77.0182C85.2753 74.9306 86.8544 73.119 87.993 71.8291C88.5624 71.1841 89.0218 70.6694 89.3391 70.3157C89.4977 70.1389 89.6209 70.0023 89.7045 69.9097L89.7997 69.8045L89.8241 69.7775L89.8286 69.7726C89.8292 69.7719 89.8297 69.7713 89.8303 69.7707C91.7604 67.6136 94.8242 64.2775 97.7483 61.2738C99.2105 59.7719 100.643 58.3481 101.883 57.1946C103.108 56.0563 104.193 55.1357 104.949 54.6825C105.504 54.3493 105.7 54.0237 105.764 53.7665C105.832 53.4936 105.787 53.1547 105.591 52.7428C105.22 51.9601 104.421 51.1648 103.711 50.6266C102.162 50.5614 99.3348 50.8738 96.7749 51.2278C95.4515 51.4109 94.2259 51.601 93.3309 51.7455C92.8835 51.8177 92.5191 51.8785 92.2668 51.9211C92.1407 51.9424 92.0426 51.9592 91.9762 51.9706L91.9008 51.9837L91.8771 51.9878L91.876 51.988L91.7464 51.2493C91.2567 50.6812 91.2568 50.6811 91.2569 50.681L91.2637 50.6752L91.2819 50.6596L91.3514 50.6005C91.412 50.5492 91.5007 50.4746 91.6147 50.38C91.8428 50.1909 92.1723 49.9217 92.581 49.599C93.3977 48.9543 94.5341 48.0933 95.8106 47.2308C97.0847 46.3699 98.5126 45.4979 99.9106 44.8384C101.023 44.3137 102.167 43.8989 103.226 43.7575V42.3246L103.248 42.235C103.639 40.6709 105.054 38.5256 107.252 36.9142C109.479 35.2818 112.563 34.1556 116.319 34.7335C123.714 35.8711 127.904 41.5168 129.717 44.0096C131.126 45.8893 133.016 49.2499 134.559 53.296C136.104 57.3478 137.321 62.1396 137.338 66.873C137.369 75.9524 135.134 81.3555 130.433 89.0093C127.715 93.433 125.163 96.9954 122.048 99.9186C118.925 102.85 115.265 105.113 110.358 106.982C107.75 107.976 105.925 108.343 103.637 108.766L117 115.242L140.735 111.519V117.112L88.2788 125.505V119.208L103.868 117.259L97.553 109.796C93.3967 110.368 88.9783 111.772 87.2539 112.419L87.2012 112.439L87.1461 112.45C86.3181 112.626 85.1728 113.105 83.7675 113.855C82.3751 114.599 80.7753 115.582 79.0506 116.726C75.6018 119.015 71.6908 121.925 68.0028 124.793C64.3167 127.66 60.8624 130.478 58.3291 132.581C57.0626 133.632 56.0268 134.503 55.3079 135.112C54.9484 135.416 54.6682 135.655 54.478 135.817C54.3829 135.898 54.3103 135.96 54.2616 136.002L54.1927 136.061L54.1885 136.065C54.1883 136.065 54.1883 136.065 53.6993 135.496ZM99.3105 109.551L105.635 117.025L114.402 115.65L101.155 109.23C100.535 109.347 99.9163 109.456 99.3105 109.551ZM91.7464 51.2493L91.2569 50.681L89.197 52.4568L91.876 51.988L91.7464 51.2493ZM53.6993 135.496L54.1885 136.065L52.1562 137.812L52.9864 135.263L53.6993 135.496ZM90.3086 79.9079C96.9519 72.6127 104.568 64.6569 109.554 59.5571L110.627 60.6058C105.649 65.6972 98.0456 73.6396 91.4177 80.9179C88.1032 84.5576 85.0377 88.0255 82.6677 90.8852C81.4824 92.3154 80.4761 93.5873 79.7014 94.6489C78.9172 95.7234 78.4011 96.5412 78.1641 97.0743L76.7934 96.4651C77.1 95.7753 77.6992 94.8479 78.4897 93.7647C79.2897 92.6686 80.3173 91.3705 81.5128 89.928C83.9043 87.0424 86.9875 83.5549 90.3086 79.9079ZM96.4188 82.6306C101.931 76.4663 108.189 69.868 112.271 65.6732L113.346 66.7192C109.274 70.9038 103.031 77.4861 97.5369 83.6305C94.7893 86.7032 92.2343 89.6603 90.2333 92.1503C88.2107 94.6672 86.8145 96.6345 86.3171 97.7537L84.9463 97.1445C85.5359 95.8179 87.0612 93.7031 89.0641 91.2107C91.0886 88.6914 93.6632 85.7122 96.4188 82.6306ZM95.2573 92.2007L113.601 71.1389L114.733 72.1241L96.3884 93.1858L95.2573 92.2007ZM139.235 113.273L105.439 118.574L89.7788 120.532V123.746L139.235 115.833V113.273Z" fill="black"/>
<path d="M119.603 43.7762C119.603 45.2772 118.387 46.4939 116.886 46.4939C115.385 46.4939 114.168 45.2772 114.168 43.7762C114.168 42.2753 115.385 41.0586 116.886 41.0586C118.387 41.0586 119.603 42.2753 119.603 43.7762Z" fill="black"/>
<path fill-rule="evenodd" clip-rule="evenodd" d="M104.726 223.442V226.133H103.976C103.057 226.133 101.871 226.5 100.551 227.123C99.2479 227.737 97.8902 228.564 96.6504 229.401C95.8444 229.946 95.0943 230.491 94.4489 230.979C95.0962 230.88 95.8169 230.774 96.5694 230.67C99.2102 230.304 102.35 229.95 104.029 230.07L104.24 230.085L104.412 230.208C105.248 230.805 106.386 231.847 106.946 233.027C107.232 233.629 107.399 234.334 107.22 235.057C107.036 235.794 106.524 236.414 105.721 236.896C105.117 237.259 104.136 238.076 102.905 239.221C101.69 240.351 100.277 241.755 98.8231 243.248C95.9165 246.234 92.8665 249.555 90.9465 251.7L90.9426 251.705L90.3876 251.2C90.9426 251.705 90.9426 251.705 90.9426 251.705L90.9407 251.707L90.9112 251.739L90.8176 251.843C90.7351 251.934 90.6131 252.07 90.4557 252.245C90.1408 252.596 89.6841 253.108 89.1176 253.75C87.9844 255.033 86.4128 256.836 84.6591 258.914C81.1466 263.074 76.9236 268.313 74.0272 272.677C68.8509 280.476 63.9484 291.456 60.3314 300.522C58.5256 305.047 57.0452 309.083 56.0164 311.987C55.7346 312.782 55.4867 313.492 55.2753 314.105C55.869 313.605 56.5747 313.015 57.3712 312.354C59.9122 310.246 63.3794 307.416 67.0819 304.537C70.7825 301.658 74.7272 298.723 78.2212 296.404C79.9679 295.245 81.6112 294.234 83.0612 293.46C84.4724 292.707 85.7479 292.152 86.7785 291.923C88.658 291.223 93.3818 289.731 97.7681 289.183C98.8251 289.051 99.9638 288.86 101.116 288.638C101.772 288.511 102.372 288.401 102.935 288.297C105.428 287.838 107.179 287.516 109.824 286.508C114.573 284.699 118.06 282.533 121.022 279.753C123.992 276.965 126.463 273.534 129.154 269.152C133.765 261.646 135.868 256.517 135.838 247.806C135.822 243.31 134.661 238.703 133.157 234.758C131.652 230.81 129.822 227.577 128.514 225.833L128.507 225.824C126.695 223.332 122.824 218.18 116.091 217.144C112.781 216.635 110.091 217.621 108.139 219.052C106.206 220.469 105.049 222.283 104.726 223.442ZM53.6993 316.424C52.9862 316.192 52.9863 316.191 52.9864 316.191L52.9933 316.17L53.0137 316.108C53.0318 316.053 53.0587 315.971 53.0941 315.865C53.1649 315.651 53.2699 315.337 53.4073 314.931C53.6819 314.12 54.0855 312.945 54.6025 311.486C55.6362 308.568 57.1236 304.514 58.9382 299.966C62.5619 290.884 67.5109 279.783 72.7774 271.847C75.724 267.408 79.9936 262.115 83.5129 257.946C85.2753 255.858 86.8544 254.047 87.993 252.757C88.5624 252.112 89.0218 251.597 89.3391 251.243C89.4977 251.067 89.6209 250.93 89.7045 250.837L89.7997 250.732L89.8241 250.705L89.8286 250.7C89.8292 250.7 89.8297 250.699 89.8303 250.698C91.7604 248.541 94.8242 245.205 97.7483 242.202C99.2105 240.7 100.643 239.276 101.883 238.122C103.108 236.984 104.193 236.063 104.949 235.61C105.504 235.277 105.7 234.951 105.764 234.694C105.832 234.421 105.787 234.082 105.591 233.671C105.22 232.888 104.421 232.092 103.711 231.554C102.162 231.489 99.3348 231.802 96.7749 232.156C95.4515 232.339 94.2259 232.529 93.3309 232.673C92.8835 232.745 92.5191 232.806 92.2668 232.849C92.1407 232.87 92.0426 232.887 91.9762 232.898L91.9008 232.911L91.8771 232.916L91.876 232.916L91.7464 232.177C91.2567 231.609 91.2568 231.609 91.2569 231.609L91.2637 231.603L91.2819 231.587L91.3514 231.528C91.412 231.477 91.5007 231.402 91.6147 231.308C91.8428 231.119 92.1723 230.849 92.581 230.527C93.3977 229.882 94.5341 229.021 95.8106 228.159C97.0847 227.298 98.5126 226.426 99.9106 225.766C101.023 225.241 102.167 224.827 103.226 224.685V223.252L103.248 223.163C103.639 221.599 105.054 219.453 107.252 217.842C109.479 216.21 112.563 215.083 116.319 215.661C123.714 216.799 127.904 222.445 129.717 224.937C131.126 226.817 133.016 230.178 134.559 234.224C136.104 238.276 137.321 243.067 137.338 247.801C137.369 256.88 135.134 262.283 130.433 269.937C127.715 274.361 125.163 277.923 122.048 280.846C118.925 283.777 115.265 286.041 110.358 287.91C107.75 288.904 105.925 289.271 103.637 289.694L117 296.17L140.735 292.447V298.04L88.2788 306.433V300.135L103.868 298.187L97.553 290.724C93.3967 291.296 88.9783 292.7 87.2539 293.347L87.2012 293.367L87.1461 293.378C86.3181 293.554 85.1728 294.033 83.7675 294.783C82.3751 295.526 80.7753 296.509 79.0506 297.654C75.6018 299.942 71.6908 302.852 68.0028 305.721C64.3167 308.588 60.8624 311.406 58.3291 313.508C57.0626 314.559 56.0268 315.431 55.3079 316.04C54.9484 316.344 54.6682 316.582 54.478 316.745C54.3829 316.826 54.3103 316.888 54.2616 316.93L54.1927 316.989L54.1885 316.992C54.1883 316.993 54.1883 316.993 53.6993 316.424ZM99.3105 290.479L105.635 297.953L114.402 296.578L101.155 290.158C100.535 290.275 99.9163 290.384 99.3105 290.479ZM91.7464 232.177L91.2569 231.609L89.197 233.385L91.876 232.916L91.7464 232.177ZM53.6993 316.424L54.1885 316.992L52.1562 318.739L52.9864 316.191L53.6993 316.424ZM90.3086 260.836C96.9519 253.54 104.568 245.585 109.554 240.485L110.627 241.534C105.649 246.625 98.0456 254.567 91.4177 261.846C88.1032 265.485 85.0377 268.953 82.6677 271.813C81.4824 273.243 80.4761 274.515 79.7014 275.577C78.9172 276.651 78.4011 277.469 78.1641 278.002L76.7934 277.393C77.1 276.703 77.6992 275.776 78.4897 274.692C79.2897 273.596 80.3173 272.298 81.5128 270.856C83.9043 267.97 86.9875 264.483 90.3086 260.836ZM96.4188 263.558C101.931 257.394 108.189 250.796 112.271 246.601L113.346 247.647C109.274 251.831 103.031 258.414 97.5369 264.558C94.7893 267.631 92.2343 270.588 90.2333 273.078C88.2107 275.595 86.8145 277.562 86.3171 278.681L84.9463 278.072C85.5359 276.746 87.0612 274.631 89.0641 272.138C91.0886 269.619 93.6632 266.64 96.4188 263.558ZM95.2573 273.128L113.601 252.067L114.733 253.052L96.3884 274.114L95.2573 273.128ZM139.235 294.201L105.439 299.502L89.7788 301.46V304.674L139.235 296.761V294.201Z" fill="black"/>
<path d="M119.603 224.704C119.603 226.205 118.387 227.422 116.886 227.422C115.385 227.422 114.168 226.205 114.168 224.704C114.168 223.203 115.385 221.986 116.886 221.986C118.387 221.986 119.603 223.203 119.603 224.704Z" fill="black"/>
<path fill-rule="evenodd" clip-rule="evenodd" d="M358.993 42.5141V45.2052H359.743C360.662 45.2052 361.848 45.5724 363.168 46.1951C364.471 46.8095 365.829 47.636 367.068 48.4737C367.874 49.0182 368.624 49.5635 369.27 50.0513C368.623 49.9523 367.902 49.846 367.149 49.742C364.509 49.3767 361.368 49.0223 359.69 49.1422L359.479 49.1572L359.307 49.28C358.47 49.8775 357.333 50.9188 356.772 52.0994C356.487 52.701 356.319 53.4066 356.499 54.1288C356.683 54.8667 357.195 55.4866 357.998 55.9687C358.602 56.3308 359.583 57.1483 360.814 58.2932C362.029 59.4228 363.442 60.827 364.896 62.3202C367.802 65.3058 370.852 68.6269 372.772 70.7728L372.776 70.7772L373.331 70.2727C372.776 70.7771 372.776 70.7771 372.776 70.7772L372.778 70.7792L372.808 70.8117L372.901 70.9152C372.984 71.0065 373.106 71.1418 373.263 71.3174C373.578 71.6684 374.035 72.1801 374.601 72.8218C375.734 74.1054 377.306 75.9085 379.06 77.9858C382.572 82.1467 386.795 87.3849 389.692 91.7491C394.868 99.5487 399.77 110.529 403.387 119.594C405.193 124.12 406.674 128.155 407.702 131.059C407.984 131.854 408.232 132.565 408.443 133.177C407.85 132.678 407.144 132.087 406.348 131.426C403.807 129.318 400.339 126.489 396.637 123.609C392.936 120.731 388.992 117.795 385.498 115.476C383.751 114.317 382.108 113.306 380.658 112.532C379.246 111.779 377.971 111.224 376.94 110.995C375.061 110.296 370.337 108.803 365.951 108.255C364.894 108.123 363.755 107.933 362.603 107.71C361.946 107.583 361.346 107.473 360.784 107.369C358.291 106.91 356.54 106.588 353.895 105.581C349.145 103.771 345.659 101.605 342.697 98.8248C339.726 96.0368 337.256 92.6063 334.564 88.2242C329.954 80.7184 327.851 75.5894 327.881 66.8782C327.897 62.3823 329.057 57.7756 330.562 53.8304C332.067 49.8826 333.896 46.6497 335.205 44.9052L335.211 44.8963C337.024 42.4045 340.895 37.2518 347.628 36.216C350.937 35.7068 353.628 36.6929 355.58 38.1239C357.513 39.541 358.67 41.3553 358.993 42.5141ZM410.019 135.496C410.733 135.264 410.732 135.264 410.732 135.263L410.725 135.242L410.705 135.18C410.687 135.125 410.66 135.044 410.625 134.937C410.554 134.723 410.449 134.409 410.311 134.003C410.037 133.192 409.633 132.017 409.116 130.558C408.083 127.64 406.595 123.586 404.781 119.038C401.157 109.956 396.208 98.8551 390.941 90.9197C387.995 86.4799 383.725 81.1872 380.206 77.0182C378.443 74.9306 376.864 73.119 375.726 71.8291C375.156 71.1841 374.697 70.6694 374.38 70.3157C374.221 70.1389 374.098 70.0023 374.014 69.9097L373.919 69.8045L373.895 69.7775L373.89 69.7726C373.89 69.7719 373.889 69.7713 373.888 69.7707C371.958 67.6136 368.895 64.2775 365.97 61.2738C364.508 59.7719 363.076 58.3481 361.835 57.1946C360.611 56.0563 359.525 55.1357 358.77 54.6825C358.215 54.3493 358.019 54.0237 357.955 53.7665C357.887 53.4936 357.932 53.1547 358.127 52.7428C358.499 51.9601 359.298 51.1648 360.008 50.6266C361.557 50.5614 364.384 50.8738 366.944 51.2278C368.267 51.4109 369.493 51.601 370.388 51.7455C370.835 51.8177 371.2 51.8785 371.452 51.9211C371.578 51.9424 371.676 51.9592 371.743 51.9706L371.818 51.9837L371.842 51.9878L371.843 51.988L371.972 51.2493C372.462 50.6812 372.462 50.6811 372.462 50.681L372.455 50.6752L372.437 50.6596L372.367 50.6005C372.307 50.5492 372.218 50.4746 372.104 50.38C371.876 50.1909 371.546 49.9217 371.138 49.599C370.321 48.9543 369.185 48.0933 367.908 47.2308C366.634 46.3699 365.206 45.4979 363.808 44.8384C362.696 44.3137 361.552 43.8989 360.493 43.7575V42.3246L360.471 42.235C360.08 40.6709 358.664 38.5256 356.467 36.9142C354.24 35.2818 351.156 34.1556 347.399 34.7335C340.005 35.8711 335.814 41.5168 334.001 44.0096C332.593 45.8893 330.703 49.2499 329.16 53.296C327.615 57.3478 326.398 62.1396 326.381 66.873C326.35 75.9524 328.585 81.3555 333.286 89.0093C336.003 93.433 338.556 96.9954 341.67 99.9186C344.793 102.85 348.454 105.113 353.361 106.982C355.969 107.976 357.794 108.343 360.082 108.766L346.718 115.242L322.984 111.519V117.112L375.44 125.505V119.208L359.851 117.259L366.166 109.796C370.322 110.368 374.74 111.772 376.465 112.419L376.518 112.439L376.573 112.45C377.401 112.626 378.546 113.105 379.951 113.855C381.344 114.599 382.943 115.582 384.668 116.726C388.117 119.015 392.028 121.925 395.716 124.793C399.402 127.66 402.856 130.478 405.39 132.581C406.656 133.632 407.692 134.503 408.411 135.112C408.77 135.416 409.051 135.655 409.241 135.817C409.336 135.898 409.408 135.96 409.457 136.002L409.526 136.061L409.53 136.065C409.53 136.065 409.53 136.065 410.019 135.496ZM364.408 109.551L358.084 117.025L349.317 115.65L362.564 109.23C363.184 109.347 363.802 109.456 364.408 109.551ZM371.972 51.2493L372.462 50.681L374.522 52.4568L371.843 51.988L371.972 51.2493ZM410.019 135.496L409.53 136.065L411.562 137.812L410.732 135.263L410.019 135.496ZM373.41 79.9079C366.767 72.6127 359.151 64.6569 354.164 59.5571L353.092 60.6058C358.07 65.6972 365.673 73.6396 372.301 80.9179C375.616 84.5576 378.681 88.0255 381.051 90.8852C382.236 92.3154 383.243 93.5873 384.017 94.6489C384.802 95.7234 385.318 96.5412 385.555 97.0743L386.925 96.4651C386.619 95.7753 386.02 94.8479 385.229 93.7647C384.429 92.6686 383.401 91.3705 382.206 89.928C379.814 87.0424 376.731 83.5549 373.41 79.9079ZM367.3 82.6306C361.788 76.4663 355.53 69.868 351.448 65.6732L350.373 66.7192C354.444 70.9038 360.687 77.4861 366.182 83.6305C368.929 86.7032 371.484 89.6603 373.485 92.1503C375.508 94.6672 376.904 96.6345 377.402 97.7537L378.772 97.1445C378.183 95.8179 376.658 93.7031 374.655 91.2107C372.63 88.6914 370.056 85.7122 367.3 82.6306ZM368.461 92.2007L350.117 71.1389L348.986 72.1241L367.33 93.1858L368.461 92.2007ZM324.484 113.273L358.279 118.574L373.94 120.532V123.746L324.484 115.833V113.273Z" fill="black"/>
<path d="M344.115 43.7762C344.115 45.2772 345.332 46.4939 346.833 46.4939C348.334 46.4939 349.551 45.2772 349.551 43.7762C349.551 42.2753 348.334 41.0586 346.833 41.0586C345.332 41.0586 344.115 42.2753 344.115 43.7762Z" fill="black"/>
<path d="M441.15 218.016H293.121V329.453H441.15V218.016Z" fill="white"/>
<path fill-rule="evenodd" clip-rule="evenodd" d="M437.638 221.325H296.391V326.112H437.638V221.325ZM441.029 218V329.438H293V218H441.029Z" fill="#0070F3"/>
<path d="M357.954 285.857C357.988 274.129 360.97 270.494 366.476 266.96C370.81 264.195 374.104 261.497 374.104 257.272C374.104 253.047 370.843 250.416 366.755 250.416C362.667 250.416 358.959 253.326 358.848 258.131H342.898C343.111 243.593 353.855 237.127 366.889 237.127C381.174 237.127 391.539 243.905 391.539 256.47C391.539 264.742 387.138 269.758 380.482 273.66C375.244 276.771 372.719 279.714 372.719 285.835V287.25H357.954V285.835V285.857ZM356.603 300.974C356.536 296.058 360.623 292.078 365.616 292.078C370.608 292.078 374.562 296.058 374.629 300.974C374.562 305.958 370.363 309.971 365.616 309.971C360.623 309.971 356.536 305.958 356.603 300.974Z" fill="#0070F3"/>
</svg>
