<svg width="60" height="42" viewBox="0 0 60 42" fill="none" xmlns="http://www.w3.org/2000/svg">
<path fill-rule="evenodd" clip-rule="evenodd" d="M43.225 7.01081H30.0466V7.0144C28.8364 7.0144 27.626 7.016 26.4154 7.0176C23.187 7.02187 19.9576 7.02614 16.7303 7.00005C15.8353 6.99288 15 7.71018 15 8.64985C15.0298 16.8881 15.0261 25.1263 15 33.3645C14.9963 34.2648 15.8801 35 16.7228 35C25.5681 34.9821 34.417 34.9785 43.2623 35C44.1311 35 45 34.1823 45 33.3251C44.9766 26.875 44.9784 20.4271 44.9803 13.978C44.9808 12.2188 44.9814 10.4595 44.9814 8.70006C44.9814 7.61693 44.3512 7.01081 43.225 7.01081ZM16.6781 7.60618H29.9981H43.225C44.0864 7.60618 44.3474 7.85723 44.3474 8.6893C44.3474 10.3311 44.3471 11.973 44.3468 13.6148C44.3456 20.1825 44.3444 26.7502 44.3623 33.3179C44.3661 33.9348 43.9149 34.3903 43.2697 34.3903C36.167 34.3731 29.0618 34.3742 21.9581 34.3754C20.1818 34.3757 18.4056 34.3759 16.6296 34.3759C16.0218 34.3759 15.6526 34.0316 15.6526 33.4614V8.56378C15.6526 7.90027 15.9696 7.60618 16.6781 7.60618ZM29.8617 20.8962C29.8572 20.9625 29.8525 21.0322 29.8481 21.1065L29.8442 21.11H29.2473H21.2172C20.5355 21.11 20.0118 21.5122 20.0002 22.0496C19.9886 22.5906 20.4739 22.9893 21.1749 22.9893C22.2392 22.9904 23.3032 22.9896 24.3669 22.9889C26.4938 22.9873 28.6196 22.9857 30.7454 22.9999C31.6235 23.007 31.9779 22.4696 31.9817 21.9286C32.0087 18.9816 32.001 16.0346 31.9894 13.0876C31.9856 12.5039 31.5504 12.0519 31.0266 12.0056C30.341 11.9451 29.8827 12.3758 29.8827 13.109V20.4409C29.8827 20.5857 29.8729 20.7306 29.8617 20.8962Z" fill="black"/>
</svg>
