<svg width="464" height="352" viewBox="0 0 464 352" fill="none" xmlns="http://www.w3.org/2000/svg">
<path d="M371.744 77.3957C371.744 76.6392 371.987 75.7882 371.704 75.1532C369.475 70.1415 367.205 65.1432 364.828 60.199C364.22 58.9427 363.139 57.916 362.315 56.7543C362.045 56.3625 361.923 55.8762 361.91 55.3359C365.084 57.5918 366.814 60.915 368.435 64.2246C370.069 67.5478 371.325 71.0601 372.933 74.9506C374.568 71.0331 375.864 67.5208 377.485 64.1706C379.08 60.888 380.903 57.6864 384.105 55.3764C383.956 55.8222 383.929 56.3761 383.645 56.6868C379.985 60.7394 378.066 65.7646 375.864 70.6278C375.108 72.2759 374.581 74.0455 374.068 75.7882C373.919 76.288 374.149 76.8959 374.23 77.6524C375.81 74.3292 377.067 71.2762 378.674 68.4259C380.93 64.4138 383.943 60.9285 387.522 58.0241C391.494 54.809 395.52 51.621 399.721 48.7301C404.165 45.6636 409.082 43.4346 414.54 42.9483C417.215 42.7052 421.673 43.7994 422.389 47.4197C422.645 48.7166 422.443 50.2836 421.956 51.5399C421.078 53.7959 419.849 55.9167 418.741 58.0917C417.377 60.7799 416.053 63.4276 415.756 66.5617C415.269 71.8031 413.432 76.369 408.15 78.6655C407.705 78.8546 407.205 78.9492 406.786 79.2059C406.394 79.4355 406.084 79.8138 405.921 79.9624C407.556 81.2727 409.339 82.1643 410.325 83.6232C411.676 85.609 412.446 87.9325 411.406 90.5532C410.19 93.6197 409.582 96.9429 408.191 99.9148C407.029 102.387 405.435 104.859 403.463 106.723C398.708 111.195 395.506 110.951 390.684 108.169C384.442 104.562 380.39 98.8882 377.283 92.485C376.553 90.972 375.918 89.405 374.811 87.8245C374.811 91.5394 375 95.2543 374.757 98.9422C374.514 102.576 373.838 106.183 372.987 109.79C371.217 102.549 370.785 95.2138 370.691 87.865C369.542 90.3236 368.583 92.8903 367.205 95.2003C363.936 100.725 360.032 105.656 354.115 108.736C349.117 111.343 344.848 109.601 341.552 105.872C337.729 101.549 335.73 96.389 334.514 90.7829C333.839 87.6894 334.136 84.9876 336.284 82.7317C337.27 81.6915 338.688 81.0836 340.12 80.138C339.877 79.8678 339.647 79.3545 339.296 79.2599C335.014 78.0846 332.515 75.0722 330.934 71.1817C330.461 70.0199 330.232 68.696 330.205 67.4397C330.097 62.8603 327.692 59.1724 325.733 55.2953C324.747 53.3366 323.896 51.2967 323.207 49.2164C322.532 47.1766 325.22 44.1371 327.706 43.4617C331.677 42.3675 335.244 43.5427 338.837 44.9611C345.875 47.7304 351.684 52.3504 357.411 57.119C361.099 60.1855 364.301 63.7113 366.854 67.6964C368.759 70.6548 369.948 74.086 371.461 77.3011C371.555 77.3552 371.65 77.3957 371.744 77.4497V77.3957ZM407.313 98.4829C407.502 98.3613 407.799 98.2938 407.853 98.1182C409.218 94.7139 410.704 91.3367 410.514 87.5408C410.339 83.8799 405.719 80.1245 402.085 80.7189C398.951 81.2322 395.817 81.732 392.723 82.4074C388.279 83.3801 383.956 82.8667 379.647 81.6374C378.391 81.2862 377.121 81.0025 375.567 80.6108C375.675 82.4345 375.446 84.096 375.918 85.528C377.175 89.3645 378.58 93.1199 380.903 96.5376C383.848 100.874 387.077 104.832 391.724 107.399C394.425 108.885 397.262 109.195 400.126 107.777C402.747 106.48 404.449 104.251 405.867 101.82C406.489 100.766 406.854 99.5501 407.34 98.4153L407.286 98.4694L407.313 98.4829ZM375.432 78.706C375.621 78.8682 375.81 79.0303 376 79.1924C376.824 78.9492 377.634 78.679 378.458 78.4764C385.321 76.7338 392.251 77.3687 399.005 78.706C403.274 79.5436 406.597 78.4494 409.893 76.2069C412.932 74.1266 413.865 70.9655 414.499 67.5478C414.972 64.9676 415.634 62.3604 416.607 59.9289C417.85 56.8218 419.525 53.8904 420.984 50.8645C421.983 48.7841 421.092 45.9068 419.241 45.1097C415.621 43.5427 411.946 44.1101 408.542 45.461C401.599 48.2032 395.601 52.499 389.968 57.3892C385.334 61.4013 381.133 65.7106 378.418 71.2492C377.242 73.6538 376.418 76.2339 375.432 78.7196V78.706ZM370.312 79.2059C369.894 77.5713 369.65 76.2745 369.245 75.0452C367.232 69.1013 363.463 64.2787 359.019 60.0504C353.588 54.8901 347.631 50.3646 340.89 46.9739C337.148 45.0827 333.244 43.7589 328.989 44.3803C325.044 44.9611 323.896 47.2982 324.896 50.6213C325.45 52.472 326.53 54.2011 327.476 55.9167C329.529 59.6317 331.164 63.5087 331.502 67.7775C332.055 74.8831 338.364 79.422 344.7 79.0708C347.037 78.9357 349.333 78.3548 351.657 78.0576C356.344 77.4362 361.045 77.1931 365.733 78.1792C367.165 78.4764 368.583 78.8276 370.326 79.2194L370.312 79.2059ZM370.61 80.7189C367.543 81.3673 364.99 81.8266 362.477 82.448C357.803 83.5962 353.278 82.3534 348.685 81.8671C346.064 81.5834 343.66 80.0974 340.715 81.3267C335.446 83.5287 334.676 86.5006 335.77 91.3908C336.351 93.998 337.54 96.4566 338.526 98.9692C339.837 102.292 341.93 105.048 344.754 107.25C346.996 108.993 349.671 109.101 352.075 108.358C355.736 107.21 358.6 104.656 361.126 101.766C364.693 97.6994 367.543 93.1874 369.218 88.0406C369.961 85.7711 370.123 83.326 370.596 80.7324L370.61 80.7189ZM367.611 80.2731C366.881 79.7327 366.53 79.2734 366.138 79.2329C363.288 78.9897 360.437 78.6925 357.587 78.6655C355.237 78.652 352.886 78.9087 350.549 79.1789C349.414 79.3139 348.32 79.7327 347.212 80.0299C347.253 80.1785 347.28 80.3136 347.32 80.4622C353.886 81.6915 360.464 82.2994 367.611 80.2731ZM378.728 80.3811C385.523 82.3129 392.115 81.6915 398.951 80.3946C394.979 78.2332 380.201 78.1522 378.728 80.3811ZM373.001 101.603C373.338 96.1999 374.622 90.7964 372.96 85.1362C371.163 90.7964 372.393 96.1999 373.001 101.603ZM373.055 81.6239C373.541 80.6648 375.257 80.4487 374.041 79.0032C373.433 78.2873 372.838 77.855 372.014 78.7871C370.799 80.1785 372.122 80.6783 373.055 81.6239Z" fill="black"/>
<path d="M409.677 57.4578C411.987 57.2416 413.554 59.5652 413.5 61.3348C413.432 63.3881 411.473 65.2118 409.42 65.1578C407.272 65.1037 405.691 63.3206 405.773 61.0106C405.84 58.7141 407.285 57.4037 409.677 57.4443V57.4578Z" fill="black"/>
<path d="M409.731 72.2904C409.731 74.5329 408.083 76.1404 405.813 76.1269C403.625 76.1269 401.95 74.4113 401.977 72.2229C402.004 70.1425 403.814 68.3594 405.894 68.3594C407.907 68.3594 409.758 70.2506 409.744 72.2904H409.731Z" fill="black"/>
<path d="M413.364 47.3252C415.35 47.3522 417.349 49.2435 417.322 51.0671C417.295 52.9854 414.999 55.3359 413.135 55.0387C411.189 54.7415 409.379 53.8635 409.568 50.9185C409.73 48.487 410.879 47.2847 413.364 47.3252Z" fill="black"/>
<path d="M342.337 68.9656C344.458 69.0197 346.363 70.9244 346.187 72.9372C346.025 74.7609 344.093 76.9223 342.08 76.7602C339.838 76.5846 338.554 75.0041 338.433 72.4779C338.338 70.4786 340.338 68.6009 342.337 68.9656Z" fill="black"/>
<path d="M334.259 55.8638C332.07 55.8638 330.639 54.3644 330.625 52.0679C330.625 49.6633 332.057 48.1233 334.326 48.1368C336.366 48.1368 338.393 50.0415 338.406 51.9598C338.42 53.878 336.312 55.8638 334.245 55.8773L334.259 55.8638Z" fill="black"/>
<path d="M337.323 66.804C335.189 67.0337 333.541 64.7912 333.73 62.7379C333.905 60.8196 335.715 58.996 337.593 59.05C339.525 59.104 341.578 61.1844 341.524 63.0756C341.484 64.7912 340.025 67.1147 337.323 66.804Z" fill="black"/>
<path d="M354.197 102.711C354.4 105.386 352.279 106.548 350.577 106.642C348.497 106.764 346.362 104.656 346.403 102.671C346.443 100.793 348.416 98.9827 350.456 98.9422C352.698 98.9017 354.197 100.401 354.197 102.698V102.711Z" fill="black"/>
<path d="M343.483 100.09C341.416 100.482 339.646 98.0639 339.633 96.1862C339.619 94.2274 341.646 92.2417 343.645 92.3227C345.725 92.4038 347.319 94.0924 347.508 96.1727C347.698 98.2531 345.698 100.104 343.483 100.09ZM341.47 96.1997C341.416 97.5911 341.983 98.4422 343.483 98.4557C344.901 98.4692 345.671 97.7532 345.698 96.3348C345.725 95.0785 344.793 94.0248 343.604 93.9843C342.375 93.9438 341.497 94.8489 341.47 96.1862V96.1997Z" fill="black"/>
<path d="M348.698 86.7433C348.927 89.1344 346.59 90.5258 344.983 90.5933C342.916 90.6879 340.849 88.4724 340.957 86.4596C341.079 84.3252 342.875 82.8933 345.145 82.8122C346.928 82.7447 349.076 84.7035 348.684 86.7433H348.698ZM347.077 86.5272C347.05 84.9466 346.469 84.5144 344.74 84.4738C343.132 84.4333 342.808 85.5815 342.592 86.6893C342.416 87.5944 343.916 88.8912 344.902 88.9047C346.199 88.9047 347.09 87.9321 347.063 86.5272H347.077Z" fill="black"/>
<path d="M397.047 107.088C394.858 107.074 393.305 105.413 393.305 103.116C393.305 101.022 395.061 99.2795 397.101 99.293C398.951 99.3066 401.302 101.508 401.099 103.251C400.87 105.25 399.559 107.061 397.033 107.088H397.047Z" fill="black"/>
<path d="M407.368 98.4146C407.03 98.6172 406.638 98.7658 406.341 99.0224C405.206 100.036 402.964 100.535 401.856 99.8195C400.37 98.8603 399.398 97.6851 399.654 95.6588C399.857 94.1053 401.87 92.3221 403.504 92.3086C405.287 92.3086 407.314 94.0647 407.395 95.7668C407.435 96.6584 407.354 97.5635 407.314 98.4551L407.354 98.401L407.368 98.4146ZM403.423 98.4416C404.896 98.4821 405.801 97.6851 405.828 96.3342C405.855 95.213 404.774 94.0782 403.626 94.0377C402.599 93.9972 401.383 95.1589 401.329 96.2261C401.275 97.4554 402.167 98.4146 403.423 98.4416Z" fill="black"/>
<path d="M402.192 82.8398C404.448 82.8398 405.907 84.2718 405.961 86.5142C406.029 89.3376 404.3 90.3372 402.098 90.5534C400.166 90.7425 398.234 88.5946 398.207 86.6088C398.194 84.4474 399.882 82.8398 402.179 82.8398H402.192ZM402.287 84.4879C400.855 84.4879 399.788 85.4741 399.761 86.6898C399.747 87.5949 401.139 88.8918 402.152 88.9053C403.462 88.9053 404.367 87.9191 404.381 86.5277C404.381 85.0283 403.624 84.4069 402.3 84.4879H402.287Z" fill="black"/>
<path d="M375.281 185.849C375.092 193.211 374.808 200.587 372.944 207.854C371.242 200.654 370.769 193.346 370.688 185.943C369.54 188.388 368.553 190.914 367.23 193.251C364.325 198.358 360.691 202.897 355.558 205.963C353.991 206.895 352.154 207.665 350.371 207.922C346.683 208.462 343.886 206.503 341.563 203.869C337.213 198.925 335.106 192.981 334.16 186.592C333.674 183.322 335.862 180.269 339.55 178.608C339.739 178.527 339.915 178.432 340.442 178.176C338.794 177.23 337.389 176.433 335.97 175.636C332.809 173.853 331.35 170.989 330.769 167.544C329.999 162.897 328.865 158.399 326.284 154.306C324.974 152.225 324.164 149.821 323.245 147.524C322.624 145.957 324.055 143.444 325.906 142.296C329.094 140.31 332.444 140.756 335.727 141.756C341.293 143.431 346.169 146.47 350.843 149.861C356.976 154.319 362.677 159.277 366.878 165.626C368.729 168.409 369.648 171.813 370.985 174.933C371.066 175.123 371.161 175.312 371.255 175.487C371.444 175.487 371.633 175.487 371.823 175.487C371.823 174.771 372.039 173.974 371.795 173.366C369.134 166.869 367.027 160.087 362.191 154.711C361.948 154.441 361.907 154.008 362.029 153.522C367.851 158.574 369.81 165.842 372.984 172.961C376.145 165.896 378.118 158.601 383.656 153.373C383.818 153.441 383.967 153.509 384.129 153.576C384.007 153.968 383.994 154.454 383.751 154.724C380.401 158.439 378.428 162.938 376.497 167.45C375.686 169.368 374.93 171.313 374.281 173.285C374.065 173.961 374.241 174.758 374.565 175.487C375.645 172.988 376.605 170.422 377.834 168.003C380.238 163.262 383.683 159.317 387.776 155.981C391.437 152.995 395.058 149.956 398.948 147.294C403.095 144.458 407.553 142.229 412.632 141.283C414.97 140.851 417.158 140.837 419.103 141.877C423.196 144.079 423.426 146.119 421.764 150.05C420.657 152.684 419.198 155.17 417.955 157.75C416.847 160.047 415.983 162.357 415.74 164.991C415.199 170.773 412.781 175.393 406.756 177.297C406.351 177.419 406.054 177.892 406.04 177.892C407.729 179.459 409.674 180.688 410.768 182.444C411.781 184.079 412.173 186.078 411.606 188.348C410.62 192.306 409.377 196.102 407.432 199.682C405.378 203.464 402.609 206.544 398.381 207.881C396.287 208.543 394.098 208.016 392.18 207.017C385.156 203.342 380.59 197.412 377.267 190.401C376.564 188.915 375.956 187.389 375.294 185.876L375.281 185.849ZM375.47 177.122C376.47 177.014 377.064 176.987 377.631 176.865C379.482 176.473 381.319 175.825 383.183 175.676C388.641 175.258 394.071 175.771 399.407 176.852C402.231 177.419 404.77 177.068 407.378 175.893C412.038 173.772 413.956 169.976 414.537 165.167C414.74 163.478 414.997 161.722 415.658 160.168C417.009 156.98 418.698 153.941 420.17 150.807C421.13 148.767 422.264 146.673 420.63 144.431C419.535 142.931 417.955 142.418 416.199 142.296C410.93 141.904 406.405 144.079 402.109 146.66C398.489 148.848 395.017 151.347 391.707 153.995C385.858 158.655 380.644 163.924 377.564 170.908C376.726 172.799 376.24 174.839 375.483 177.122H375.47ZM330.864 142.242C330.297 142.269 329.513 142.242 328.73 142.377C325.487 142.904 323.664 145.809 324.839 148.753C325.541 150.523 326.528 152.185 327.338 153.914C328.5 156.399 329.837 158.831 330.715 161.411C331.512 163.762 331.647 166.328 332.296 168.733C333.647 173.772 339.226 177.649 344.4 177.108C347.912 176.744 351.37 175.947 354.882 175.69C359.516 175.352 364.177 175.352 368.661 176.987C369.35 177.23 370.296 177.311 370.12 176.122C369.972 175.096 369.634 174.096 369.269 173.11C367.135 167.193 363.42 162.316 358.922 158.061C353.869 153.306 348.412 149.037 342.265 145.754C338.78 143.89 335.173 142.242 330.85 142.256L330.864 142.242ZM375.943 178.594C375.321 181.31 375.7 184.133 377.429 188.199C380.022 194.292 383.791 199.587 388.979 203.721C390.573 204.99 392.572 206.004 394.544 206.476C399.434 207.665 402.582 204.801 405.122 201.127C407.459 197.736 408.985 193.981 409.971 189.969C411.268 184.687 410.566 181.674 406.067 179.81C404.73 179.256 403.176 178.743 401.798 178.905C397.827 179.378 393.923 180.391 389.965 180.85C385.939 181.323 381.954 180.661 378.091 179.378C377.375 179.135 376.686 178.878 375.956 178.608L375.943 178.594ZM370.107 178.824C367.743 179.351 365.433 179.837 363.136 180.377C357.922 181.593 352.829 180.594 347.696 179.702C345.359 179.297 343.13 178.081 340.577 179.364C337.618 180.85 335.052 182.431 335.443 186.186C335.7 188.591 336.2 191.009 336.956 193.305C338.375 197.615 340.455 201.586 343.94 204.666C346.21 206.666 350.141 207.395 352.829 205.99C354.761 204.99 356.76 203.937 358.327 202.478C360.678 200.276 362.947 197.898 364.717 195.237C366.554 192.481 367.945 189.374 369.134 186.267C370.026 183.93 370.742 181.404 370.093 178.81L370.107 178.824ZM398.867 178.108C397.611 177.797 396.368 177.257 395.112 177.23C390.302 177.108 385.48 177.135 380.671 177.189C380.009 177.189 379.36 177.703 378.712 177.986C385.52 180.337 392.18 179.77 398.881 178.108H398.867ZM346.791 178.081C351.33 179.837 363.744 180.35 367.162 177.851C360.489 176.365 353.815 176.582 346.791 178.081ZM372.971 183.228C371.687 187.051 371.809 197.507 373.227 199.83C373.349 194.224 374.619 188.847 372.971 183.228ZM373.281 176.041C373.052 176.041 372.809 176.041 372.579 176.041C372.282 176.771 371.809 177.487 371.768 178.23C371.755 178.594 372.565 179.31 372.971 179.297C373.43 179.27 374.241 178.554 374.214 178.203C374.146 177.46 373.619 176.757 373.281 176.041Z" fill="black"/>
<path d="M416.821 149.254C416.767 151.429 414.944 153.185 412.863 153.091C410.878 153.01 408.946 150.997 409.081 149.011C409.216 146.931 410.756 145.174 413.282 145.337C415.471 145.472 416.889 146.971 416.835 149.241L416.821 149.254Z" fill="black"/>
<path d="M401.892 170.313C401.892 168.044 403.554 166.328 405.702 166.382C407.539 166.423 409.619 168.462 409.66 170.273C409.714 172.299 407.782 174.177 405.661 174.19C403.297 174.19 401.879 172.745 401.879 170.327L401.892 170.313Z" fill="black"/>
<path d="M409.297 163.14C407.149 163.14 405.407 161.397 405.434 159.249C405.461 157.196 407.204 155.467 409.257 155.453C411.391 155.44 413.512 157.358 413.282 159.357C413.066 161.289 411.864 163.207 409.297 163.14Z" fill="black"/>
<path d="M334.215 146.16C336.484 146.201 337.93 147.876 337.862 150.362C337.795 152.455 336.106 153.847 333.877 153.941C332.067 154.009 329.96 151.807 330.135 150.051C330.338 148.052 331.972 145.85 334.201 146.16H334.215Z" fill="black"/>
<path d="M337.171 164.829C335.131 164.829 333.172 162.978 333.24 161.127C333.308 159.168 335.482 157.047 337.401 157.074C339.305 157.101 341.048 159.033 341.048 161.1C341.048 163.572 339.711 164.842 337.185 164.829H337.171Z" fill="black"/>
<path d="M341.981 167.018C344.25 167.031 345.79 168.625 345.75 170.922C345.709 173.07 344.048 174.772 341.967 174.785C339.86 174.785 337.834 172.772 337.942 170.773C338.05 168.666 339.833 167.004 341.981 167.018Z" fill="black"/>
<path d="M403.148 198.183C400.974 198.156 399.488 196.562 399.528 194.292C399.555 192.252 401.406 190.347 403.311 190.402C405.35 190.456 407.39 192.522 407.35 194.495C407.309 196.453 405.323 198.21 403.148 198.183Z" fill="black"/>
<path d="M396.907 205.058C394.326 205.166 393.03 203.181 392.867 201.303C392.705 199.533 395.015 197.277 396.812 197.264C398.744 197.264 400.676 199.276 400.703 201.33C400.716 203.451 399.095 205.072 396.92 205.058H396.907Z" fill="black"/>
<path d="M401.893 180.891C404.189 180.891 405.837 182.458 405.824 184.66C405.824 186.686 403.906 188.564 401.933 188.672C400.312 188.766 397.948 186.672 398.029 184.714C398.124 182.417 399.542 180.904 401.879 180.891H401.893ZM404.297 184.524C404.27 183.295 403.311 182.498 401.893 182.525C400.434 182.552 399.637 183.309 399.65 184.646C399.664 185.862 400.853 187.037 402.014 186.983C403.122 186.943 404.324 185.646 404.297 184.524Z" fill="black"/>
<path d="M350.359 197.047C352.547 197.047 353.966 198.614 354.128 200.789C354.29 203.18 351.872 204.733 350.251 204.72C348.468 204.706 346.239 203.18 346.306 200.897C346.374 198.627 347.981 197.033 350.372 197.047H350.359Z" fill="black"/>
<path d="M347.088 194.494C347.048 196.817 345.548 198.222 343.171 198.168C340.982 198.114 339.226 196.331 339.307 194.237C339.388 192.332 341.469 190.374 343.401 190.401C345.373 190.428 347.115 192.373 347.088 194.494Z" fill="black"/>
<path d="M348.602 184.809C348.548 186.808 346.576 188.699 344.576 188.659C342.469 188.618 340.78 186.687 340.875 184.417C340.956 182.107 342.428 180.837 344.982 180.905C347.102 180.959 348.656 182.634 348.602 184.822V184.809ZM344.049 182.526C343.333 182.539 342.442 183.12 342.388 184.566C342.334 185.822 343.455 186.97 344.671 186.984C345.725 186.984 346.994 185.673 346.994 184.579C346.994 183.255 346.157 182.512 344.049 182.526Z" fill="black"/>
<path d="M89.2441 77.3294C90.0006 77.2753 90.2978 76.735 89.879 75.7894C87.6636 70.8722 85.4886 65.928 83.1786 61.0513C82.5572 59.741 81.5036 58.6332 80.6525 57.4175C80.2337 56.8096 79.8555 56.1882 79.7609 55.4046C85.5292 60.4164 87.623 67.522 90.676 74.6817C91.3379 73.4524 91.9864 72.5067 92.3646 71.4666C94.1883 66.3603 96.3767 61.4566 99.6864 57.1203C100.2 56.4583 100.848 55.891 101.429 55.2696C101.578 55.3506 101.726 55.4317 101.875 55.5127C101.699 56.026 101.659 56.661 101.321 57.0257C98.349 60.2408 96.6064 64.1718 94.8907 68.0894C93.783 70.6155 92.7969 73.1957 91.8243 75.7759C91.6486 76.2217 91.7972 76.8025 91.7972 77.3159C92.0134 77.3699 92.216 77.4239 92.4322 77.478C92.932 76.2217 93.3643 74.9248 93.9586 73.709C95.1069 71.345 96.093 68.8324 97.606 66.725C104.09 57.7687 112.574 51.0683 122.354 46.0566C125.34 44.5166 128.757 43.652 132.08 42.9766C134.255 42.5308 138.713 43.7601 139.97 46.2997C141.158 48.6908 140.186 50.6631 139.308 52.6759C137.565 56.661 135.687 60.5785 133.904 64.5501C133.647 65.1445 133.553 65.8334 133.526 66.4953C133.202 72.6283 130.703 77.1943 124.529 79.1936C124.151 79.3152 123.908 79.815 123.502 80.2338C126.083 81.382 128.379 82.5978 129.068 85.3131C129.46 86.8396 129.73 88.5552 129.433 90.0817C128.325 95.7689 126.096 101.01 122.597 105.711C119.787 109.48 114.168 110.845 109.94 108.791C103.631 105.725 99.5648 100.564 96.3227 94.6071C94.9853 92.1485 93.9451 89.5413 92.6213 86.691C92.6213 87.9608 92.6753 89.001 92.6213 90.0141C92.2971 96.066 91.9593 102.104 91.5676 108.156C91.5406 108.67 91.0813 109.156 90.8246 109.656C90.595 109.629 90.3653 109.602 90.1357 109.588C89.5413 102.591 88.9469 95.5797 88.3525 88.5282C87.1367 91.0003 86.11 93.5399 84.7051 95.8364C81.7602 100.659 78.275 104.982 73.3037 107.994C67.8192 111.29 63.5639 110.493 59.2951 105.792C56.6069 102.834 54.7967 99.2946 53.743 95.4041C53.3243 93.8506 52.5272 92.3782 52.3246 90.8111C51.6762 85.8129 52.2165 83.0031 58.0929 80.2473C57.6606 79.8555 57.3499 79.3827 56.9311 79.2341C51.8383 77.4239 49.0555 73.8036 48.38 68.4811C47.8262 64.1178 46.3537 60.1057 44.1653 56.2827C42.8414 53.9592 41.369 51.6627 41.2339 48.7853C41.0853 45.8269 43.2197 44.3815 45.1514 43.6115C48.2855 42.3687 51.3385 43.1927 54.432 44.1113C60.7676 45.989 65.9955 49.785 71.1288 53.689C76.9376 58.0929 82.233 63.0641 85.7858 69.5348C87.1232 71.9799 88.0553 74.6411 89.2441 77.3834V77.3294ZM87.8257 79.1801C87.8257 78.4236 87.8257 78.0453 87.8257 77.6536C87.8257 77.4239 87.7851 77.2078 87.7311 76.9917C86.2992 71.8043 83.5704 67.3329 80.0176 63.3613C74.2088 56.8636 67.3329 51.6627 59.7139 47.4615C55.7423 45.2596 51.5141 43.8006 46.813 44.3275C43.6385 44.6787 41.8148 47.5425 42.3281 49.2717C42.7739 50.7441 43.2062 52.2841 43.9897 53.5945C46.9481 58.5252 49.2446 63.699 49.7714 69.4808C50.3118 75.4652 57.8902 79.8555 62.983 79.072C65.4686 78.6938 67.9407 77.9913 70.4264 77.9373C74.8978 77.8292 79.3692 78.0318 83.8406 78.248C85.1239 78.302 86.3802 78.8424 87.8257 79.1936V79.1801ZM94.0937 79.1666C95.1609 78.8694 96.1471 78.5587 97.1332 78.329C103.739 76.7485 110.345 77.6401 116.897 78.6397C119.328 79.018 121.557 79.3152 123.908 78.356C126.853 77.1538 129.662 75.7083 130.878 72.6418C131.81 70.2778 132.134 67.6841 132.769 65.1985C133.134 63.7666 133.377 62.2806 133.985 60.9568C135.458 57.7957 137.106 54.7157 138.673 51.5952C140.226 48.4746 138.956 45.1515 135.687 44.5031C132.54 43.8817 129.325 44.1924 126.312 45.4352C121.76 47.3264 117.572 49.8525 113.587 52.7839C106.535 57.9848 100.011 63.672 96.012 71.6692C94.8908 73.9117 93.5534 76.2082 94.0937 79.1666ZM114.181 108.656C115.127 108.575 116.194 108.724 117.005 108.359C120.801 106.643 123.219 103.442 124.961 99.8485C126.528 96.6334 127.893 93.3103 128.284 89.6494C128.541 87.2989 128.474 85.1374 126.582 83.4894C124.543 81.7062 122.273 80.3824 119.382 80.8552C115.167 81.5441 110.966 82.4222 106.724 82.841C102.753 83.2327 98.8623 82.3682 95.1339 80.9227C93.9451 80.4634 93.2292 80.8957 93.4048 82.2196C93.6885 84.2324 94.0802 86.2452 94.7016 88.1769C97.0386 95.3636 101.321 101.253 107.184 105.941C109.156 107.521 111.385 108.913 114.168 108.683L114.181 108.656ZM87.8527 80.8552C85.3536 81.3685 82.922 81.7603 80.5309 82.3682C75.8164 83.5704 71.2504 82.4087 66.6169 81.7873C63.8476 81.409 61.0918 79.7745 58.1604 81.4496C56.2422 82.5438 54.5806 83.5839 53.5944 85.8399C52.4462 88.4741 53.4864 90.7706 54.0537 92.9996C55.0669 96.9711 56.8365 100.727 59.3492 104.063C61.8888 107.44 65.0904 109.399 69.4132 108.454C72.5743 107.765 74.9788 105.684 77.2618 103.496C81.6116 99.3082 84.7457 94.3234 86.853 88.7173C87.7851 86.2182 88.4741 83.5975 87.8527 80.8552ZM96.2146 80.0446C101.348 82.4222 113.614 81.6252 116.694 80.0717C115.721 79.7475 114.843 79.2341 113.965 79.2071C108.724 79.018 103.482 78.2345 98.2409 79.1531C97.633 79.2611 97.0792 79.6529 96.2281 80.0311L96.2146 80.0446ZM65.0499 80.2878C70.8451 81.9089 80.5579 82.1385 84.9078 80.2878C83.8406 78.1129 69.8725 78.0589 65.0499 80.2878ZM91.0272 85.5157C90.8111 85.5157 90.6085 85.5157 90.3923 85.5157V100.916C90.5679 100.916 90.73 100.916 90.9057 100.916C91.9323 95.7824 92.135 90.649 91.0272 85.5157ZM90.7706 81.8548C91.473 80.9903 92.27 80.4364 92.27 79.869C92.27 79.3557 91.446 78.4506 90.9462 78.4236C90.4599 78.3966 89.5413 79.2206 89.4872 79.7339C89.4332 80.3013 90.1627 80.9362 90.7571 81.8683L90.7706 81.8548Z" fill="black"/>
<path d="M48.2734 52.0003C48.2734 49.5822 49.7054 48.2178 52.0289 48.1097C54.4064 47.9882 55.9329 50.4873 55.8924 52.0948C55.8519 53.7159 54.2038 56.0124 52.0289 55.8908C49.7459 55.7692 48.2734 54.3643 48.2734 52.0003Z" fill="black"/>
<path d="M56.0652 72.6006C55.9977 70.7499 57.5512 68.683 60.0503 68.9397C62.1577 69.1558 63.8733 70.8174 63.8057 72.8572C63.7382 74.8835 61.5903 76.8558 59.5505 76.7207C57.8078 76.5992 55.8355 74.9106 56.0652 72.6006ZM57.5647 72.7221C57.5647 73.9379 58.7805 75.2213 59.9017 75.0456C61.1175 74.843 62.0496 74.1135 62.1847 72.8167C62.3063 71.6414 61.0905 70.6013 59.7936 70.6148C58.3617 70.6283 57.5647 71.3848 57.5647 72.7221Z" fill="black"/>
<path d="M51.434 62.9973C51.4475 60.944 53.3928 58.9177 55.2975 59.0663C56.8105 59.1744 59.3772 60.917 59.2151 63.1054C59.0529 65.2668 57.4589 66.8473 55.1624 66.8068C52.7173 66.7798 51.407 65.4424 51.434 62.9838V62.9973ZM55.23 65.2533C56.5673 65.2533 57.4724 64.4293 57.513 63.1189C57.5535 62.0247 56.2296 60.4982 55.2705 60.7279C54.1628 60.998 53.001 61.3898 52.974 62.9298C52.9605 64.3482 53.7845 65.2398 55.23 65.2533Z" fill="black"/>
<path d="M130.959 47.3262C132.998 47.3262 134.984 49.1363 134.863 51.0141C134.714 53.3646 132.89 55.1613 130.824 55.0262C129 54.9046 127.19 53.8509 127.203 51.1086C127.23 48.6635 128.5 47.3262 130.959 47.3262Z" fill="black"/>
<path d="M127.381 72.3449C127.381 74.5333 125.706 76.0598 123.436 76.1544C121.491 76.2354 119.613 74.2767 119.613 72.3719C119.613 70.2105 121.437 68.3463 123.585 68.3733C125.76 68.4004 127.381 70.0889 127.394 72.3449H127.381ZM125.76 72.3179C125.76 71.1426 124.706 70.0214 123.571 69.9944C122.545 69.9674 121.18 71.3588 121.207 72.399C121.234 73.5337 122.329 74.4793 123.585 74.4658C125.017 74.4658 125.746 73.7498 125.76 72.3179Z" fill="black"/>
<path d="M123.379 61.1452C123.379 58.9568 124.919 57.5384 127.188 57.4168C129.444 57.3087 131.119 59.0919 131.119 61.1857C131.119 63.2526 129.255 65.1708 127.229 65.1573C125.122 65.1438 123.379 63.3336 123.379 61.1452ZM125.04 61.5234C125.04 62.4826 126.148 63.6308 127.31 63.5768C128.323 63.5363 129.62 62.0908 129.566 61.0641C129.525 60.051 128.202 58.8352 127.148 58.9568C125.838 59.1054 124.986 59.7673 125.027 61.5234H125.04Z" fill="black"/>
<path d="M114.707 107.09C112.545 107.063 110.87 105.293 110.911 103.105C110.951 101.065 112.735 99.2952 114.761 99.3087C116.774 99.3087 118.732 101.254 118.705 103.24C118.678 105.415 116.909 107.117 114.707 107.09Z" fill="black"/>
<path d="M125.082 96.4315C125.068 98.6199 123.474 100.106 121.137 100.092C118.989 100.092 117.26 98.3633 117.274 96.2424C117.287 94.2161 119.327 92.2843 121.38 92.3248C123.352 92.3654 125.082 94.2971 125.068 96.4315H125.082ZM121.286 98.4443C122.745 98.4984 123.379 97.7013 123.42 96.3234C123.447 95.0806 122.501 94.081 121.272 94.0405C120.218 94.0134 118.989 95.1617 118.935 96.2154C118.881 97.3906 119.989 98.4443 121.286 98.4443Z" fill="black"/>
<path d="M119.989 82.8407C121.893 82.611 123.65 84.5698 123.582 86.5016C123.487 88.9872 122.056 90.6352 119.827 90.6082C117.989 90.5812 115.733 88.3252 115.774 86.5556C115.815 84.6644 117.922 82.8272 119.989 82.8407ZM122.042 86.6096C122.042 85.2587 121.272 84.5023 119.84 84.4887C118.597 84.4887 117.463 85.4479 117.449 86.5421C117.436 87.5552 118.813 88.9196 119.854 88.9196C121.015 88.9196 122.042 87.8389 122.056 86.6096H122.042Z" fill="black"/>
<path d="M64.4952 102.659C64.225 100.335 66.5756 98.795 68.4263 98.9301C70.2905 99.0652 72.2763 100.983 72.2357 102.74C72.1952 104.617 70.0068 106.86 68.1831 106.671C65.9271 106.427 64.2791 105.293 64.4817 102.659H64.4952Z" fill="black"/>
<path d="M61.2149 100.092C58.986 100.092 57.5 98.6466 57.473 96.4176C57.446 94.1752 59.094 92.3515 61.1879 92.3245C63.0791 92.2975 65.1865 94.3643 65.2135 96.2555C65.2405 98.2683 63.3493 100.079 61.2149 100.092ZM59.1616 96.0529C59.094 97.4173 59.4993 98.3899 61.0393 98.444C62.3226 98.498 63.3628 97.5929 63.4304 96.4041C63.4844 95.3099 62.3497 93.932 61.296 94.0536C60.1612 94.1752 59.067 94.5669 59.1751 96.0529H59.1616Z" fill="black"/>
<path d="M66.4267 86.7444C66.3862 88.9193 64.549 90.7025 62.4686 90.6079C60.5234 90.5133 58.5916 88.4735 58.6456 86.5823C58.6997 84.4749 60.5504 82.9079 62.7658 82.7998C64.8056 82.7053 66.6023 84.8937 66.4267 86.7444ZM62.5227 84.4884C61.1853 84.5155 60.3072 85.407 60.4153 86.7039C60.5234 87.9872 61.2528 88.7842 62.5362 88.9058C63.779 89.0139 64.7516 87.8791 64.7246 86.5283C64.7111 85.0693 63.9681 84.4074 62.5227 84.4884Z" fill="black"/>
<path d="M230.521 176.474C230.48 175.663 230.642 174.772 230.345 174.056C228.683 170.043 227.035 166.018 225.117 162.127C224.05 159.979 222.456 158.088 221.119 156.075C220.821 155.643 220.619 155.143 220.538 154.562C222.888 155.508 223.996 157.629 225.023 159.561C227.062 163.411 228.711 167.45 230.521 171.421C230.831 172.11 231.142 172.799 231.669 173.961C234.776 166.855 236.816 159.615 242.746 154.495C242.665 154.887 242.733 155.413 242.489 155.67C238.504 160.033 236.37 165.383 234.29 170.773C233.857 171.881 233.303 172.961 232.979 174.11C232.763 174.853 232.831 175.69 233.168 176.501C234.29 173.975 235.289 171.381 236.559 168.936C238.95 164.275 242.3 160.331 246.394 157.062C249.987 154.184 253.553 151.239 257.309 148.578C261.55 145.566 266.143 143.31 271.385 142.31C274.883 141.648 277.774 142.175 280.165 144.742C281.111 145.768 281.868 147.065 281.165 148.605C279.598 152.05 277.896 155.454 276.478 158.953C275.599 161.141 275.032 163.465 274.519 165.775C273.803 169.084 273.465 172.57 270.75 174.974C269.277 176.271 267.454 177.149 265.779 178.203C265.306 178.5 264.846 178.797 264.32 179.121C265.779 180.026 267.184 180.594 268.156 181.593C270.223 183.728 271.182 186.295 270.169 189.307C269.102 192.495 268.278 195.791 266.981 198.885C265.103 203.343 262.172 207.044 257.43 208.773C255.174 209.597 252.891 209.003 250.77 207.963C245.259 205.247 241.368 200.843 238.288 195.683C236.613 192.873 235.262 189.861 233.587 186.592C233.749 194.251 233.547 201.641 231.628 208.895C229.832 201.708 229.67 194.373 229.683 186.565C227.995 189.942 226.738 192.927 225.077 195.683C222.632 199.749 219.565 203.356 215.648 206.139C208.691 211.056 203.719 209.692 198.87 203.235C195.911 199.29 194.169 194.724 193.236 189.793C192.777 187.335 192.696 185.038 194.101 183.093C195.236 181.512 197.005 180.378 198.626 178.932C197.978 178.554 197.1 177.946 196.141 177.527C192.183 175.771 190.048 172.664 189.427 168.476C188.671 163.397 187.131 158.656 184.348 154.265C183.213 152.482 182.592 150.348 181.862 148.321C181.376 146.984 182.808 144.444 184.375 143.445C187.576 141.405 190.981 141.702 194.331 142.769C203.017 145.539 210.258 150.766 216.782 156.94C219.97 159.939 223.05 163.168 225.549 166.734C227.441 169.422 228.332 172.813 229.67 175.893C229.764 176.122 229.913 176.339 230.034 176.568C230.196 176.555 230.359 176.528 230.521 176.514V176.474ZM265.508 198.966C265.833 198.628 266.724 196.953 266.859 196.548C267.602 194.467 268.359 192.387 268.926 190.253C269.642 187.51 269.818 184.511 267.521 182.58C265.319 180.729 262.766 178.716 259.402 180.256C259.105 180.391 258.741 180.378 258.403 180.432C256.255 180.769 254.093 181.026 251.959 181.445C246.488 182.512 241.166 182.012 236.005 180.026C234.546 179.459 234.141 179.959 234.357 181.148C234.843 183.876 235.1 186.74 236.167 189.239C239.018 195.926 243.138 201.762 249.298 205.869C252.297 207.855 255.593 208.598 258.97 206.787C261.915 205.207 263.941 201.83 265.508 198.966C265.86 198.331 265.306 200.357 265.508 199.641V198.966ZM273.546 143.256C268.845 143.377 264.725 145.309 260.807 147.632C255.593 150.712 250.838 154.441 246.353 158.534C240.787 163.6 236.64 169.463 234.546 176.73C234.236 177.825 234.722 178.27 235.722 178.081C237.302 177.784 238.856 177.163 240.45 177.055C243.908 176.838 247.38 176.636 250.838 176.838C254.188 177.028 257.498 177.757 260.821 178.189C261.523 178.284 262.32 178.257 262.996 178.041C269.034 176.068 272.425 173.407 273.181 166.261C273.357 164.559 273.668 162.803 274.33 161.249C275.708 158.021 277.396 154.914 278.909 151.739C279.922 149.605 281.03 147.322 279.193 145.174C277.788 143.526 275.708 143.134 273.56 143.269L273.546 143.256ZM189.819 143.337C189.143 143.337 188.454 143.242 187.806 143.35C185.077 143.823 182.659 145.309 183.335 148.7C183.564 149.861 183.996 151.01 184.55 152.05C187.171 156.994 189.927 161.83 190.359 167.625C190.494 169.368 191.224 171.219 192.169 172.718C194.277 176.082 200.234 179.094 205.07 177.933C208.42 177.122 211.933 176.865 215.391 176.636C219.43 176.366 223.456 176.582 227.333 177.973C228.049 178.23 228.94 178.297 228.778 177.109C228.629 176.082 228.319 175.069 227.968 174.083C225.82 168.152 222.078 163.303 217.566 159.02C212.554 154.265 207.096 150.064 201.018 146.781C197.546 144.904 193.939 143.229 189.832 143.337H189.819ZM228.832 179.851C226.346 180.391 224.023 180.864 221.74 181.404C216.58 182.62 211.541 181.58 206.475 180.729C204.084 180.324 201.774 179.081 199.194 180.405C196.479 181.783 193.628 183.363 194.128 187.254C194.439 189.699 195.02 192.144 195.749 194.508C196.87 198.155 198.599 201.532 201.261 204.329C202.936 206.098 204.8 207.557 207.475 207.706C210.852 207.909 213.5 206.409 215.945 204.45C221.051 200.344 224.685 195.102 227.157 189.091C228.359 186.173 229.318 183.147 228.846 179.837L228.832 179.851ZM237.356 179.013C244.205 181.296 250.851 180.837 257.471 179.256C256.349 178.824 255.242 178.297 254.121 178.27C249.149 178.162 244.165 178.162 239.193 178.216C238.585 178.216 237.978 178.73 237.37 179.013H237.356ZM205.516 179.283C211.406 180.864 221.321 181.31 225.766 179.297C224.118 177.379 211.635 177.311 205.516 179.283ZM231.561 200.843C232.844 197.048 232.777 186.767 231.561 184.525C230.345 188.051 230.318 195.17 231.561 200.843ZM232.142 177.149C231.845 177.122 231.547 177.109 231.25 177.082C230.953 177.798 230.507 178.513 230.44 179.256C230.413 179.594 231.115 180.337 231.466 180.324C231.953 180.297 232.804 179.743 232.804 179.405C232.804 178.662 232.398 177.906 232.142 177.163V177.149Z" fill="black"/>
<path d="M271.87 146.362C274.221 146.159 275.639 148.01 275.828 149.955C276.031 152.117 273.883 154.157 271.762 154.103C269.884 154.062 267.615 151.874 267.872 150.117C268.169 148.132 269.344 146.213 271.857 146.349L271.87 146.362Z" fill="black"/>
<path d="M264.496 160.331C264.496 157.885 265.915 156.426 268.252 156.453C270.291 156.481 272.25 158.439 272.183 160.398C272.129 162.303 270.224 164.113 268.265 164.126C265.86 164.126 264.496 162.762 264.496 160.331Z" fill="black"/>
<path d="M260.645 171.232C260.281 169.436 262.766 167.301 264.482 167.423C266.481 167.558 268.494 169.22 268.399 171.367C268.291 173.664 266.805 175.177 264.441 175.204C262.145 175.217 260.645 173.65 260.659 171.246L260.645 171.232ZM264.59 173.515C265.806 173.515 266.859 172.529 266.873 171.395C266.873 170.327 265.711 169.193 264.563 169.179C263.293 169.179 262.158 170.26 262.253 171.489C262.361 172.88 263.158 173.569 264.576 173.502L264.59 173.515Z" fill="black"/>
<path d="M192.927 154.914C190.482 155.103 189.036 152.685 188.915 151.051C188.753 149.065 190.941 147.16 193.035 147.16C195.561 147.16 196.844 149.024 196.817 151.28C196.804 153.307 195.034 155.198 192.927 154.914Z" fill="black"/>
<path d="M196.112 165.829C193.829 165.801 192.343 164.289 192.316 162.114C192.303 159.885 194.505 158.101 196.221 158.074C198.085 158.047 200.152 160.209 200.165 162.1C200.179 164.207 198.395 165.842 196.112 165.815V165.829Z" fill="black"/>
<path d="M197.074 171.801C197.074 169.369 198.439 168.153 200.857 168.005C203.248 167.856 204.72 170.247 204.774 171.895C204.828 173.651 202.843 175.894 200.762 175.786C198.574 175.678 197.061 174.124 197.074 171.787V171.801ZM198.695 171.922C198.682 173.327 199.371 174.097 200.776 174.151C201.91 174.192 203.126 172.922 203.086 171.801C203.045 170.639 201.964 169.545 200.83 169.545C199.425 169.545 198.668 170.382 198.695 171.922Z" fill="black"/>
<path d="M265.79 196.266C265.75 196.959 265.295 197.494 264.78 197.958V197.958C263.578 199.052 261.443 199.403 260.106 198.701C258.633 197.917 257.769 195.958 258.161 194.27C258.485 192.851 260.214 191.406 261.794 191.244C263.47 191.068 265.699 192.959 265.807 194.729C265.838 195.247 265.819 195.756 265.79 196.266Z" fill="black"/>
<path d="M252.027 202.235C252.027 200.06 253.648 198.291 255.661 198.264C257.431 198.264 259.646 200.412 259.741 202.235C259.849 204.181 257.917 206.031 255.769 206.058C253.392 206.085 252.027 204.694 252.027 202.235Z" fill="black"/>
<path d="M260.847 181.891C263.143 181.918 264.643 183.417 264.629 185.687C264.629 187.726 262.752 189.658 260.766 189.645C258.685 189.645 256.848 187.726 256.875 185.565C256.902 183.35 258.51 181.864 260.847 181.877V181.891ZM263.008 185.592C262.995 184.16 262.225 183.498 260.658 183.525C259.28 183.539 258.618 184.322 258.537 185.592C258.469 186.713 259.631 187.956 260.644 187.983C261.901 188.024 263.008 186.902 262.995 185.578L263.008 185.592Z" fill="black"/>
<path d="M212.783 201.681C212.824 204.004 211.27 205.774 209.163 205.828C207.258 205.868 205.043 203.707 205.016 201.775C204.989 199.965 207.029 198.182 209.001 198.033C211.122 197.871 213.108 199.749 212.783 201.694V201.681Z" fill="black"/>
<path d="M202.22 199.182C200.085 199.182 198.208 197.358 198.235 195.292C198.262 193.414 200.22 191.442 202.085 191.401C204.152 191.361 205.962 193.198 205.975 195.373C205.989 197.507 204.327 199.182 202.206 199.182H202.22Z" fill="black"/>
<path d="M203.652 181.891C206.016 181.904 207.353 183.296 207.34 185.741C207.34 187.916 205.611 189.672 203.517 189.658C201.545 189.631 199.599 187.686 199.586 185.727C199.586 183.525 201.315 181.877 203.652 181.891ZM203.598 183.525C202.18 183.498 201.288 184.255 201.248 185.525C201.22 186.646 202.436 187.997 203.463 187.983C204.652 187.983 205.705 186.875 205.732 185.646C205.759 184.187 204.989 183.539 203.585 183.525H203.598Z" fill="black"/>
<path d="M89.4451 276.219C89.5937 275.625 89.999 274.99 89.8234 274.598C87.6215 269.505 85.406 264.426 83.042 259.414C82.4476 258.158 81.3264 257.145 80.4753 256.01C80.0971 255.51 79.7999 254.943 79.246 254.065C81.4885 254.632 82.3125 256.172 83.096 257.523C84.9737 260.752 86.6759 264.088 88.2969 267.452C89.1615 269.235 89.7018 271.167 90.5799 273.544C91.3094 272.207 92.0118 271.261 92.3766 270.208C94.1462 265.061 96.5102 260.225 99.6578 255.794C100.104 255.159 100.847 254.727 101.738 254.443C99.7523 257.874 97.5234 261.184 95.8348 264.764C94.1462 268.37 92.4306 272.045 91.6471 275.976C91.8632 276.07 92.0658 276.152 92.282 276.246C92.5792 275.773 92.998 275.327 93.133 274.814C94.4569 269.64 97.2937 265.372 100.793 261.44C105.318 256.334 110.559 252.092 116.22 248.31C119.853 245.892 123.636 243.744 127.81 242.515C131.187 241.529 134.659 241.015 137.982 243.042C140.157 244.379 141.184 247.216 140.103 249.539C138.333 253.335 136.429 257.064 134.767 260.9C134.092 262.454 133.7 264.196 133.551 265.885C133.011 271.599 130.444 275.935 124.798 277.921C124.446 278.043 124.149 278.448 123.96 278.786C123.906 278.88 124.338 279.34 124.622 279.475C129.174 281.596 130.431 285.824 129.147 290.268C128.08 293.943 126.946 297.549 125.027 300.832C122.933 304.439 120.232 307.532 115.963 308.6C113.329 309.262 110.911 308.248 108.668 306.965C104.21 304.412 100.793 300.724 98.1313 296.442C96.0239 293.051 94.4299 289.35 92.7008 285.986C92.6873 286.418 92.6197 287.256 92.6062 288.093C92.5522 291.741 92.6062 295.402 92.4306 299.049C92.309 301.737 91.9173 304.398 91.566 307.073C91.4985 307.573 91.0392 308.019 90.7555 308.492L90.1476 308.37C89.5667 301.372 88.9859 294.388 88.378 287.107C87.689 288.566 87.0406 289.795 86.5137 291.065C84.7981 295.239 82.1099 298.779 79.0839 302.061C76.2471 305.141 72.9915 307.735 68.8037 308.6C65.2374 309.329 62.3195 307.695 59.9285 305.155C56.943 301.98 54.8357 298.279 53.755 294.037C53.1741 291.781 52.3906 289.539 52.2015 287.256C51.8908 283.311 53.8901 280.636 58.1048 279.083C57.4969 278.583 57.1322 278.097 56.6458 277.894C53.4173 276.557 50.7155 274.571 49.4592 271.234C48.6757 269.167 48.1083 266.966 47.8922 264.777C47.5274 261.157 45.6902 258.185 44.1773 255.037C42.9885 252.579 41.2323 250.309 41.2864 247.364C41.3269 245.122 42.8939 243.109 44.9743 242.353C48.2299 241.177 51.2694 241.893 54.4304 242.839C61.6441 245.027 67.4664 249.485 73.2211 254.065C77.8546 257.753 82.0423 261.886 85.0548 267.033C86.6894 269.816 87.8916 272.842 89.4992 276.219H89.4451ZM94.0651 277.894C96.0644 277.394 97.8746 276.543 99.6848 276.557C105.385 276.611 111.113 276.813 116.787 277.354C119.07 277.57 121.137 278.002 123.474 277.246C128.323 275.652 131.174 272.558 132.092 267.573C132.565 265.007 132.822 262.346 133.781 259.955C135.091 256.685 136.956 253.646 138.59 250.498C140.333 247.148 138.536 243.514 134.997 243.042C130.633 242.461 126.581 243.676 122.92 245.662C118.692 247.959 114.68 250.701 110.857 253.619C104.737 258.279 99.2795 263.629 95.8753 270.68C94.8216 272.842 93.6059 275.057 94.0787 277.894H94.0651ZM87.662 277.84C87.8241 277.692 87.9862 277.556 88.1483 277.408C87.4459 275.273 86.973 273.031 86.0004 271.032C83.6634 266.182 80.3132 262.062 76.3552 258.401C70.5329 253.038 64.3188 248.283 57.0376 245.014C53.6604 243.487 50.2157 242.542 46.5278 243.109C44.0151 243.487 41.7322 245.784 42.3265 248.013C42.7318 249.539 43.2451 251.12 44.0557 252.471C46.9871 257.361 49.2565 262.494 49.7564 268.208C50.2967 274.301 58.1588 278.772 63.0625 277.8C63.765 277.665 64.4539 277.3 65.1564 277.259C70.3437 276.949 75.5446 276.678 80.7455 276.462C81.6101 276.422 82.4746 276.746 83.3392 276.922C84.7846 277.219 86.2166 277.543 87.6485 277.854L87.662 277.84ZM87.8241 279.461C87.3243 279.529 86.892 279.556 86.4867 279.664C83.7985 280.339 81.1373 281.542 78.449 281.582C74.3964 281.636 70.3302 280.839 66.2641 280.488C63.5758 280.258 61.0497 278.705 58.1588 280.164C54.7141 281.906 52.8229 284.122 53.1606 287.904C53.3092 289.633 53.9711 291.335 54.498 293.01C55.9434 297.563 57.9697 301.778 61.5225 305.141C63.6569 307.168 67.588 308.059 70.2222 307.046C74.3288 305.466 77.3143 302.467 80.0701 299.252C83.0555 295.766 85.3115 291.795 86.8515 287.472C87.7566 284.946 88.432 282.339 87.8241 279.461ZM114.274 307.438C117.057 307.627 119.124 306.155 121.002 304.223C123.528 301.656 125.216 298.59 126.405 295.239C127.513 292.132 128.823 289.093 128.202 285.621C127.567 282.095 123.393 278.934 119.799 279.515C118.381 279.745 117.003 280.164 115.585 280.393C112.721 280.866 109.843 281.46 106.953 281.663C102.846 281.96 98.8608 281.136 95.0243 279.596C94.1732 279.259 93.2952 279.34 93.3627 280.663C93.3897 281.163 93.2816 281.717 93.4302 282.176C94.4704 285.419 95.2134 288.823 96.7129 291.862C99.3606 297.198 103.116 301.764 108.02 305.263C109.857 306.573 111.843 307.505 114.261 307.424L114.274 307.438ZM116.436 278.907C115.625 278.597 114.815 278.043 113.991 278.029C108.722 277.935 103.454 277.921 98.1853 277.962C97.6585 277.962 97.1316 278.543 96.2806 279.029C102.481 280.88 109.762 280.569 116.436 278.907ZM64.9132 279.15C70.8706 280.501 79.935 280.974 84.7171 279.137C83.9606 276.949 69.3441 276.895 64.9132 279.15ZM90.2962 299.778C92.1334 296.644 92.1199 285.905 90.2962 284.149V299.778ZM92.8764 278.57C91.9848 277.908 91.3769 277.124 90.8501 277.178C90.3232 277.219 89.4857 278.083 89.4857 278.597C89.4857 279.096 90.3367 279.975 90.8501 280.002C91.3904 280.029 91.9713 279.245 92.8764 278.556V278.57Z" fill="black"/>
<path d="M131.038 246.054C133.01 246.108 134.956 248.026 134.888 249.877C134.821 251.863 132.686 253.984 130.741 253.741C128.566 253.47 127.242 252.43 127.188 249.634C127.148 247.459 129.133 245.784 131.052 246.054H131.038Z" fill="black"/>
<path d="M127.19 256.145C129.419 256.145 131.094 257.806 131.108 259.995C131.108 262.088 129.271 263.953 127.217 263.926C125.096 263.899 123.381 262.115 123.367 259.927C123.354 257.779 125.002 256.145 127.19 256.145ZM127.204 257.806C125.718 257.847 124.975 258.617 125.029 260.116C125.069 261.318 126.164 262.332 127.325 262.251C128.338 262.183 129.554 260.9 129.541 259.886C129.527 258.752 128.42 257.766 127.204 257.806Z" fill="black"/>
<path d="M123.499 274.84C121.311 275.043 119.568 273.043 119.622 271.031C119.676 268.991 121.527 267.086 123.54 267.086C125.593 267.086 127.363 268.923 127.376 271.071C127.376 273.341 125.836 274.853 123.486 274.84H123.499ZM123.621 268.707C122.554 268.68 121.284 269.909 121.216 271.031C121.149 272.084 122.311 273.259 123.459 273.313C124.756 273.381 125.701 272.503 125.755 271.22C125.809 269.842 124.877 268.748 123.621 268.707Z" fill="black"/>
<path d="M48.2851 250.768C48.0149 248.431 50.1358 246.851 52.0541 246.918C54.1074 246.999 55.9311 248.674 55.9446 250.687C55.9581 252.673 54.0263 254.672 52.0676 254.713C49.8791 254.753 48.2986 253.105 48.2851 250.768Z" fill="black"/>
<path d="M55.1987 265.641C52.8617 265.641 51.4163 264.155 51.4298 261.791C51.4298 259.616 53.1454 257.887 55.2663 257.887C57.2926 257.887 59.1973 259.805 59.1838 261.831C59.1838 263.952 57.4142 265.641 55.1987 265.641ZM55.2257 263.993C56.5901 263.993 57.5087 263.128 57.5087 261.804C57.5087 260.764 56.3064 259.589 55.2528 259.589C54.0775 259.589 52.9968 260.643 52.9833 261.777C52.9563 263.196 53.7533 263.979 55.2393 263.993H55.2257Z" fill="black"/>
<path d="M56.0664 271.463C56.0799 269.139 57.4848 267.748 59.8218 267.748C62.0103 267.748 63.834 269.518 63.8069 271.612C63.7799 273.557 61.659 275.624 59.7003 275.408C57.5524 275.178 56.1204 274.111 56.0664 271.463ZM57.5659 271.166C57.5389 272.598 58.7411 273.922 59.8083 273.949C60.7404 273.962 62.2129 272.517 62.2129 271.585C62.2129 270.423 61.0511 269.356 59.8083 269.342C58.3764 269.342 57.7685 270.193 57.5659 271.179V271.166Z" fill="black"/>
<path d="M72.2357 301.494C72.2357 303.223 69.9798 305.519 68.1831 305.6C66.427 305.682 64.2656 303.439 64.2386 301.507C64.2115 299.603 66.2108 297.59 68.1696 297.563C69.9933 297.536 72.2357 299.697 72.2493 301.507L72.2357 301.494Z" fill="black"/>
<path d="M62.6287 281.689C64.9522 281.689 66.4652 283.229 66.4247 285.526C66.3841 287.539 64.5605 289.416 62.5882 289.443C60.832 289.47 58.6841 287.296 58.6301 285.445C58.5761 283.365 60.3592 281.689 62.6152 281.689H62.6287Z" fill="black"/>
<path d="M57.4688 295.064C57.4688 292.916 59.1033 291.133 61.1026 291.106C62.9803 291.079 65.3174 293.119 65.1823 294.915C65.0337 296.874 63.8584 298.873 61.1296 298.819C58.8196 298.779 57.4688 297.414 57.4688 295.064Z" fill="black"/>
<path d="M114.652 305.843C112.585 305.843 110.91 304.114 110.91 302.007C110.91 299.818 112.612 298.062 114.747 298.035C116.759 298.022 118.691 299.926 118.705 301.939C118.705 304.155 116.962 305.843 114.652 305.843Z" fill="black"/>
<path d="M125.08 295.064C125.094 297.401 123.635 298.805 121.203 298.805C119.001 298.805 117.312 297.211 117.285 295.118C117.258 293.159 119.231 291.105 121.189 291.105C123.27 291.105 125.066 292.929 125.094 295.077L125.08 295.064Z" fill="black"/>
<path d="M119.989 281.69C122.205 281.447 123.636 283.433 123.582 285.297C123.515 287.715 121.907 289.498 119.705 289.431C117.99 289.377 115.72 286.986 115.774 285.297C115.842 283.379 117.841 281.663 119.989 281.677V281.69Z" fill="black"/>
<path d="M90.0807 176.581C90.2428 176.027 90.6346 175.433 90.4725 175.082C88.2975 170.07 86.1091 165.072 83.7856 160.141C83.1372 158.777 82.0295 157.628 81.1379 156.386C80.7732 155.872 80.4219 155.345 80.0707 154.832C80.1923 154.697 80.3274 154.575 80.449 154.44C80.9353 154.792 81.5161 155.048 81.8944 155.494C85.2311 159.344 87.3114 163.897 89.1621 168.557C89.716 169.935 90.1888 171.34 90.7426 172.718C90.8507 172.974 91.2425 173.38 91.364 173.339C91.6747 173.218 92.0125 172.947 92.1611 172.637C94.2684 168.057 96.2407 163.397 98.4967 158.885C99.3612 157.169 100.442 155.345 102.644 154.643C97.5105 161.087 94.6467 168.517 92.2151 176.135C92.4312 176.257 92.6474 176.379 92.877 176.514C93.1472 176.176 93.566 175.879 93.647 175.501C94.9709 169.705 98.267 165.058 102.212 160.789C107.318 155.251 113.248 150.739 119.651 146.808C123.555 144.417 127.757 142.782 132.255 141.904C134.592 141.445 139.59 143.012 140.536 145.349C141.495 147.713 140.901 149.807 139.901 151.887C138.402 155.021 136.686 158.047 135.335 161.235C134.619 162.951 134.457 164.896 134.092 166.747C133.39 170.246 132.566 173.704 129.418 175.919C128.216 176.77 126.852 177.378 125.568 178.121C125.068 178.405 124.582 178.743 124.163 179.013C125.582 179.999 127.108 180.728 128.148 181.904C129.081 182.944 129.824 184.403 130.026 185.781C130.621 189.955 129.175 193.845 127.365 197.479C125.933 200.343 124.298 203.288 122.11 205.558C117.936 209.88 114.248 210.042 109.209 207.206C104.211 204.396 100.658 200.114 97.8347 195.264C96.0246 192.17 94.6872 188.793 93.1742 185.592C93.1607 185.997 93.1067 186.618 93.0932 187.253C93.0391 191.86 93.0797 196.453 92.9311 201.059C92.8635 203.221 92.4853 205.382 92.1611 207.53C92.0935 207.989 91.6747 208.394 91.4181 208.827C91.1884 208.8 90.9453 208.773 90.7156 208.746C90.4319 204.842 90.0942 200.924 89.8781 197.02C89.6484 193.143 89.5404 189.266 89.3918 185.929C87.2033 192.697 83.4479 199.222 77.5851 204.369C74.7888 206.827 71.7223 208.989 67.7507 208.975C63.9007 208.975 61.253 206.625 59.0646 203.842C55.944 199.87 53.9312 195.223 53.0397 190.36C52.0265 184.849 52.4588 182.039 59.0646 179.134C57.5786 178.378 56.2683 177.743 54.9849 177.054C51.2025 174.987 49.3923 171.556 48.933 167.49C48.5007 163.653 47.366 160.128 45.5558 156.75C44.367 154.535 43.1918 152.292 42.1921 149.969C40.8412 146.835 43.0567 143.309 46.2988 142.377C50.8512 141.067 54.8093 142.782 58.6593 144.471C64.306 146.943 69.2097 150.644 73.9783 154.575C78.4226 158.25 82.5563 162.167 85.5283 167.112C87.2439 169.975 88.4461 173.137 90.0807 176.554V176.581ZM94.4846 178.229C95.3761 178.013 95.957 177.865 96.5514 177.743C98.24 177.365 99.9286 176.797 101.631 176.676C106.967 176.298 112.289 176.703 117.517 177.811C122.772 178.932 126.987 177.149 130.458 173.339C132.471 171.124 132.471 168.138 133.147 165.409C133.592 163.64 133.863 161.776 134.579 160.128C135.97 156.953 137.753 153.954 139.104 150.779C139.644 149.523 140.495 148.172 139.779 146.538C138.82 144.349 137.01 143.647 134.93 143.323C131.607 142.809 128.338 143.647 125.514 145.079C120.975 147.389 116.585 150.104 112.478 153.13C106.386 157.601 100.942 162.802 97.1998 169.489C95.7544 172.083 94.5656 174.812 94.4711 178.243L94.4846 178.229ZM88.5947 178.148C88.176 176.271 88.0274 174.595 87.406 173.123C85.7714 169.273 83.556 165.774 80.7732 162.613C77.1528 158.52 72.9921 155.075 68.6153 151.833C63.6981 148.186 58.5647 144.998 52.5533 143.566C49.6895 142.89 46.7851 142.89 44.2184 144.795C43.1647 145.579 42.3812 147.47 42.8811 148.591C43.7456 150.563 44.5156 152.59 45.6233 154.413C48.2576 158.75 49.7165 163.491 50.3514 168.435C51.1484 174.555 57.1328 177.946 61.7933 178.108C65.049 178.216 68.3181 177.068 71.6142 176.892C75.3967 176.689 79.1926 176.865 82.9751 177.068C84.7177 177.162 86.4333 177.702 88.5677 178.121L88.5947 178.148ZM94.4305 179.607C94.3495 180.526 94.1604 181.323 94.2279 182.093C94.5521 185.916 95.8084 189.428 97.6591 192.778C100.618 198.114 104.251 202.815 109.493 206.084C112.586 208.016 115.977 208.584 119.111 206.544C121.029 205.301 122.677 203.423 123.974 201.505C126.446 197.831 127.959 193.697 128.878 189.32C129.351 187.078 129.121 185.119 127.838 183.322C125.892 180.58 122.448 179.432 119.179 180.269C118.8 180.364 118.409 180.391 118.017 180.445C115.815 180.769 113.586 180.985 111.411 181.444C105.71 182.647 100.266 181.701 94.4305 179.607ZM88.5137 179.85C85.9875 180.431 83.8802 180.904 81.7863 181.39C76.5314 182.606 71.3576 181.823 66.2377 180.661C63.0902 179.945 60.1183 179.405 57.1058 181.296C54.7147 182.795 53.3098 185.983 53.6746 187.996C53.9988 189.847 54.6067 191.657 55.1335 193.467C56.2818 197.425 58.0919 201.086 60.7937 204.18C64.279 208.178 68.926 208.894 73.519 206.003C76.1667 204.342 78.4091 202.248 80.4084 199.843C84.7718 194.602 87.8923 188.793 88.7298 181.931C88.8109 181.228 88.5947 180.472 88.5272 179.85H88.5137ZM65.6028 179.215C72.3167 180.837 79.0305 181.309 85.7444 179.067C79.0305 177.189 72.3167 177.729 65.6028 179.215ZM96.6325 179.188C103.535 181.674 115.112 180.418 117.233 179.134C116.085 178.837 114.923 178.297 113.735 178.27C108.858 178.148 103.995 178.162 99.1181 178.216C98.4291 178.216 97.7537 178.743 96.6325 179.202V179.188ZM91.1749 184.795C90.3509 186.605 90.3914 198.074 91.229 199.951C92.7284 198.303 92.6744 185.916 91.1749 184.795ZM93.593 178.797C92.5393 178.108 91.9044 177.365 91.2965 177.378C90.8237 177.392 90.0267 178.364 90.0402 178.905C90.0537 179.391 90.9318 180.215 91.4721 180.242C92.0125 180.269 92.5933 179.513 93.593 178.797Z" fill="black"/>
<path d="M131.351 146.362C133.431 146.362 135.336 148.173 135.255 150.037C135.16 152.279 133.337 154.143 131.27 154.103C129.257 154.076 127.19 152.009 127.379 149.942C127.541 148.078 129.122 146.079 131.351 146.349V146.362Z" fill="black"/>
<path d="M127.795 171.353C127.822 173.622 126.215 175.216 123.932 175.203C121.716 175.189 120.041 173.514 120.055 171.326C120.055 169.299 121.96 167.408 123.986 167.408C125.999 167.408 127.782 169.259 127.795 171.366V171.353ZM123.972 173.528C125.256 173.501 126.282 172.569 126.282 171.407C126.282 170.34 125.08 169.178 123.972 169.178C122.594 169.178 121.649 170.123 121.676 171.488C121.703 173.001 122.594 173.528 123.959 173.528H123.972Z" fill="black"/>
<path d="M123.961 160.249C123.961 157.872 125.298 156.467 127.568 156.453C129.567 156.453 131.607 158.344 131.647 160.263C131.688 162.154 129.662 164.126 127.662 164.14C125.285 164.153 123.961 162.775 123.961 160.249ZM128.095 162.924C128.73 162.073 129.621 161.316 129.918 160.357C130.229 159.33 128.594 157.885 127.487 158.007C126.149 158.155 125.379 158.871 125.406 160.29C125.433 161.654 126.42 162.667 128.095 162.924Z" fill="black"/>
<path d="M52.4728 147.174C54.4856 147.214 56.3768 149.078 56.4038 151.051C56.4308 153.185 54.4315 154.968 52.0945 154.914C50.1358 154.86 48.3526 152.955 48.4877 150.943C48.6228 148.795 50.4194 146.863 52.4728 147.174Z" fill="black"/>
<path d="M55.6055 165.828C53.3901 166.179 51.7285 163.936 51.7825 162.018C51.8501 159.492 54.0655 158.141 55.5785 158.101C57.5238 158.047 59.6311 160.302 59.5906 162.207C59.5501 164.247 57.7939 165.841 55.6055 165.828ZM55.8352 164.22C57.2131 164.409 57.6994 163.261 57.9831 162.126C58.1992 161.235 56.5646 159.735 55.5785 159.911C54.4032 160.113 53.336 160.532 53.4441 162.126C53.5387 163.518 54.2141 164.234 55.8487 164.22H55.8352Z" fill="black"/>
<path d="M56.4695 171.677C56.4966 169.367 57.9825 168.098 60.3871 168.003C62.5755 167.908 64.1695 170.083 64.156 171.826C64.156 173.677 62.562 175.865 60.1034 175.784C57.942 175.716 56.429 174.068 56.4695 171.677ZM58.1581 171.812C58.1041 173.217 58.7931 174.028 60.1845 174.122C61.3327 174.204 62.4404 172.974 62.4404 171.745C62.4404 170.637 61.3192 169.543 60.171 169.529C58.8066 169.529 58.1446 170.272 58.1581 171.812Z" fill="black"/>
<path d="M121.65 199.141C119.205 199.141 117.841 197.749 117.76 195.358C117.679 192.994 119.948 191.387 121.677 191.468C123.636 191.562 125.527 193.008 125.487 195.291C125.446 197.641 124.001 199.141 121.664 199.141H121.65Z" fill="black"/>
<path d="M111.426 202.37C111.278 199.628 113.142 198.615 115.141 198.304C116.87 198.034 119.167 200.425 119.167 202.208C119.167 204.262 117.33 206.045 115.168 206.058C112.858 206.072 111.44 204.667 111.426 202.357V202.37Z" fill="black"/>
<path d="M120.409 181.889C122.706 181.916 124.097 183.402 124.07 185.807C124.043 187.874 122.179 189.697 120.153 189.643C118.18 189.589 116.276 187.617 116.289 185.645C116.289 183.456 118.059 181.849 120.409 181.889ZM120.274 183.524C118.829 183.456 118.072 184.199 117.951 185.577C117.856 186.699 119.153 188.009 120.22 187.995C121.463 187.968 122.436 186.901 122.422 185.604C122.395 184.186 121.693 183.483 120.274 183.524Z" fill="black"/>
<path d="M61.6569 199.181C59.4009 199.181 57.6853 197.547 57.6448 195.358C57.6178 193.386 59.7522 191.225 61.7244 191.414C63.5616 191.59 65.3853 192.9 65.4258 195.21C65.4664 197.452 63.8453 199.168 61.6569 199.168V199.181Z" fill="black"/>
<path d="M72.1953 201.735C72.1953 204.126 70.7364 205.774 68.5615 205.828C66.6973 205.869 64.5764 203.748 64.5899 201.843C64.5899 199.776 66.4676 198.142 68.6425 198.006C70.4527 197.898 72.5196 199.763 72.1953 201.735Z" fill="black"/>
<path d="M66.7391 185.673C66.7391 187.902 65.064 189.672 62.9701 189.658C61.0384 189.658 59.0256 187.632 58.985 185.687C58.9445 183.634 60.7817 182.053 62.9701 181.864C65.091 181.675 67.1038 183.701 66.7391 185.687V185.673ZM63.0782 183.525C61.6057 183.525 60.5926 184.39 60.6196 185.66C60.6466 186.727 61.9164 187.97 62.9971 187.97C64.1184 187.97 65.1721 186.876 65.1856 185.7C65.1991 184.282 64.4696 183.539 63.0782 183.525Z" fill="black"/>
<path d="M230.641 77.2211C230.56 74.4653 228.993 72.1013 228.142 69.5752C227.291 67.0355 225.886 64.658 224.576 62.3074C223.292 60.011 221.82 57.836 220.712 55.4315C223.59 57.9306 225.548 61.0241 227.034 64.4553C228.493 67.8055 229.979 71.1287 231.654 74.3978C234.586 67.711 236.801 60.889 241.84 55.6476C242.07 55.7692 242.299 55.9043 242.529 56.0259C242.245 56.5392 242.043 57.1201 241.678 57.5524C238.382 61.3753 236.49 65.9413 234.653 70.5343C233.978 72.2229 233.262 73.9115 232.667 75.6406C232.492 76.1539 232.64 76.7753 232.64 77.3562C232.87 77.3832 233.086 77.3967 233.316 77.4238C233.708 76.4917 234.248 75.5866 234.451 74.6139C235.194 70.899 237.368 67.9406 239.543 65.0497C243.137 60.2541 247.581 56.2555 252.485 52.8108C255.673 50.5683 258.969 48.461 262.292 46.4076C265.534 44.4083 269.182 43.4222 272.91 42.9088C275.22 42.5846 277.449 43.3681 279.354 44.7325C281.231 46.0834 281.718 49.0013 280.583 51.4194C278.827 55.1613 276.936 58.8492 275.301 62.6587C274.639 64.2122 274.342 65.9683 274.166 67.6704C273.599 73.3981 270.857 77.3697 265.278 79.2069C264.872 79.342 264.575 79.8013 264.089 80.2336C266.385 81.2197 268.29 82.2734 269.465 84.4213C270.762 86.8124 270.654 89.3115 269.911 91.6215C268.722 95.3229 267.304 99.0108 265.521 102.456C263.684 106.022 260.806 108.724 256.794 109.885C254.714 110.493 252.728 109.858 250.931 108.967C244.515 105.792 240.165 100.564 236.936 94.3232C235.639 91.8106 234.505 89.2034 233.681 87.4878C233.316 94.2287 232.897 101.875 232.478 109.548C230.763 109.602 230.83 108.656 230.79 107.859C230.452 101.199 230.128 94.5259 229.804 87.866C229.777 87.3662 229.763 86.8664 229.736 86.5017C228.574 89.1494 227.561 91.9592 226.156 94.5529C223.454 99.5511 220.05 104.063 215.255 107.224C213.363 108.467 211.134 109.426 208.919 109.912C205.988 110.547 203.461 109.007 201.368 107.103C197.734 103.793 195.586 99.5511 194.289 94.8366C193.857 93.229 193.06 91.689 192.857 90.0545C192.33 85.9073 192.979 83.2325 197.747 80.7469C198.044 80.5983 198.342 80.4632 198.868 80.2066C198.409 79.7878 198.112 79.342 197.72 79.2069C194.127 77.9911 191.412 75.8162 190.061 72.1959C189.588 70.9125 189.129 69.5752 188.98 68.2243C188.575 64.2932 187.21 60.781 185.36 57.2957C183.914 54.5939 182.037 51.9732 181.874 48.6636C181.726 45.7457 183.887 44.2732 185.833 43.5573C189.007 42.382 192.128 43.098 195.302 44.0976C202.448 46.3671 208.284 50.7574 213.985 55.3504C218.74 59.1869 223.076 63.4827 226.116 68.8457C227.426 71.1557 228.196 73.7764 229.236 76.262C229.425 76.6943 229.723 77.086 229.966 77.5048C230.182 77.4103 230.411 77.3157 230.628 77.2211H230.641ZM228.601 79.2204C228.466 77.9911 228.52 77.032 228.237 76.1674C226.751 71.4934 224.305 67.2922 221.063 63.6718C214.93 56.8364 207.73 51.2978 199.598 47.0155C195.87 45.0567 191.911 43.8545 187.589 44.3138C184.401 44.6515 182.536 47.3667 182.996 48.8392C183.658 50.9331 184.279 53.1485 185.427 54.9857C188.116 59.295 189.872 63.888 190.331 68.8997C190.952 75.6271 198.639 79.8688 203.948 79.0313C206.325 78.6531 208.676 78.1397 211.067 77.8966C215.646 77.4373 220.253 77.1536 224.805 78.2343C225.967 78.5045 227.102 78.8287 228.588 79.2204H228.601ZM234.68 79.2204C235.531 78.9503 236.234 78.6936 236.963 78.5045C243.893 76.7213 250.877 77.3427 257.686 78.7341C262.306 79.6797 265.858 78.2613 269.222 75.6811C272.235 73.3846 272.626 69.7643 273.315 66.3331C273.653 64.6039 273.91 62.8073 274.599 61.2132C275.936 58.1332 277.719 55.2289 278.989 52.1218C279.583 50.6629 280.691 49.1364 279.786 47.2722C278.813 45.3134 277.233 44.5164 275.18 44.2867C270.519 43.7599 266.304 45.2864 262.481 47.5424C251.931 53.7429 242.151 60.8755 236.436 72.1959C235.383 74.2762 234.316 76.4646 234.68 79.2069V79.2204ZM208.135 108.697C209.135 108.561 210.216 108.643 211.107 108.264C214.593 106.792 217.362 104.36 219.848 101.55C223.076 97.8896 225.683 93.8234 227.385 89.271C228.237 87.0015 228.588 84.5294 229.047 82.1248C229.263 81.0171 228.601 80.5578 227.521 80.828C225.494 81.3278 223.468 81.8276 221.455 82.368C216.633 83.6648 211.931 82.422 207.19 81.8276C204.461 81.4899 201.881 80.0985 198.895 81.3818C195.937 82.6517 193.411 85.7857 193.911 88.8927C194.762 94.2422 196.464 99.3215 199.814 103.644C201.881 106.319 204.177 108.926 208.135 108.71V108.697ZM234.653 80.8145C234.599 81.0171 234.518 81.1657 234.518 81.3278C234.491 81.7196 234.478 82.1113 234.478 82.5031C234.451 85.7452 235.41 88.6766 236.801 91.5945C239.854 97.9841 243.893 103.469 250.013 107.211C252.674 108.832 255.497 109.223 258.415 107.913C261.968 106.319 263.873 103.171 265.588 99.9564C267.236 96.8899 268.304 93.6073 269.006 90.1625C269.438 88.0417 269.317 86.191 268.128 84.5024C265.994 81.4629 262.522 80.3146 258.969 81.3008C258.537 81.4224 258.077 81.4089 257.632 81.4764C255.376 81.8546 253.147 82.4085 250.877 82.5571C248.094 82.7462 245.271 82.8543 242.502 82.5571C239.895 82.2734 237.341 81.4359 234.626 80.8145H234.653ZM237.017 80.112C242.826 82.449 254.646 81.5845 257.24 80.058C256.267 79.7473 255.403 79.2474 254.511 79.2069C249.324 78.9638 244.136 78.2343 238.949 79.1529C238.382 79.2474 237.868 79.6797 237.017 80.0985V80.112ZM205.609 80.2741C211.648 82.0032 222.401 82.0843 225.737 80.166C224.062 78.1397 210.297 78.1397 205.609 80.2741ZM231.411 100.659C231.641 100.632 231.857 100.618 232.087 100.591V85.7452C230.655 86.5152 230.601 86.5152 230.763 93.6478C230.817 95.9848 230.384 98.4434 231.411 100.645V100.659ZM231.627 81.8682C232.235 80.909 232.951 80.2606 232.884 79.7067C232.83 79.1799 231.911 78.3694 231.425 78.3964C230.925 78.4234 230.101 79.3285 230.101 79.8553C230.101 80.4227 230.911 80.9766 231.627 81.8682Z" fill="black"/>
<path d="M195.908 66.7921C193.436 66.8461 192.194 65.6168 191.991 63.3203C191.748 60.497 193.977 59.3217 195.868 59.0786C197.543 58.8624 199.718 61.1724 199.745 62.9421C199.786 65.2116 198.246 66.7516 195.908 66.8056V66.7921Z" fill="black"/>
<path d="M192.531 55.8638C190.262 55.8638 188.762 54.2833 188.789 51.9463C188.816 49.7038 190.329 48.1503 192.518 48.1368C194.544 48.1233 196.57 50.0685 196.557 52.0138C196.557 53.9726 194.571 55.8773 192.531 55.8773V55.8638Z" fill="black"/>
<path d="M200.395 68.9531C202.637 68.9531 204.326 70.6147 204.326 72.8031C204.326 74.8429 202.421 76.7477 200.395 76.7342C198.341 76.7207 196.666 74.9915 196.653 72.8572C196.626 70.4796 198.085 68.9531 200.395 68.9531ZM200.097 70.6147C199.084 70.7633 198.125 71.2226 198.166 72.7626C198.206 73.9108 199.273 75.0726 200.354 75.0861C201.34 75.0996 202.813 73.6677 202.772 72.7221C202.732 71.6954 201.475 70.5877 200.097 70.6147Z" fill="black"/>
<path d="M263.98 61.118C263.98 58.8215 265.48 57.5112 267.912 57.4166C270.019 57.3355 271.762 59.2133 271.721 61.2801C271.68 63.3469 269.843 65.1571 267.763 65.1301C265.71 65.1031 263.98 63.2659 263.994 61.1045L263.98 61.118Z" fill="black"/>
<path d="M271.492 47.3268C273.965 47.0972 275.342 49.3666 275.424 51.0012C275.532 52.9465 273.438 55.0809 271.533 55.0809C269.48 55.0809 267.832 53.3247 267.737 51.1768C267.669 49.2856 268.885 47.0702 271.479 47.3133L271.492 47.3268Z" fill="black"/>
<path d="M267.967 72.3584C267.953 74.5333 266.359 76.1139 264.198 76.1274C261.915 76.1274 260.213 74.5333 260.199 72.3719C260.199 70.2105 262.05 68.3463 264.184 68.3733C266.332 68.4139 267.98 70.143 267.967 72.3584ZM264.036 74.4658C265.63 74.4928 266.332 73.8309 266.346 72.3044C266.346 71.1561 265.251 70.0214 264.144 70.0079C263.158 70.0079 261.766 71.2372 261.699 72.1693C261.618 73.3716 262.698 74.4388 264.036 74.4658Z" fill="black"/>
<path d="M208.61 98.9559C210.906 98.9154 212.46 100.361 212.554 102.59C212.635 104.873 210.906 106.683 208.664 106.669C206.61 106.642 204.962 104.967 204.908 102.819C204.841 100.712 206.502 98.9964 208.623 98.9559H208.61Z" fill="black"/>
<path d="M201.705 100.092C199.327 100.092 198.044 98.6872 198.071 96.1475C198.098 94.0266 199.8 92.2975 201.84 92.3245C203.69 92.338 205.771 94.3508 205.825 96.161C205.879 98.2549 203.947 100.106 201.705 100.092ZM199.692 96.3366C199.719 97.8361 200.367 98.471 201.84 98.444C203.177 98.4305 204.055 97.5254 204.001 96.2421C203.961 95.1884 202.731 93.9861 201.745 94.0131C200.57 94.0401 199.678 95.0668 199.692 96.3366Z" fill="black"/>
<path d="M203.206 82.8415C205.408 82.5713 206.988 84.7192 206.988 86.5699C206.988 88.7719 205.34 90.5415 203.22 90.609C201.234 90.6631 199.248 88.6233 199.234 86.5159C199.221 84.5976 201.112 82.8415 203.206 82.828V82.8415ZM203.26 84.4896C201.801 84.4626 201.004 85.1515 200.923 86.4889C200.855 87.529 202.044 88.8664 203.071 88.9204C204.273 88.9745 205.286 87.9883 205.313 86.7185C205.354 85.219 204.705 84.5166 203.26 84.5031V84.4896Z" fill="black"/>
<path d="M255.2 107.089C253.066 107.089 251.607 105.441 251.485 103.212C251.364 100.956 253.593 99.2812 255.43 99.3353C257.632 99.4163 259.253 101.105 259.185 103.347C259.118 105.63 257.78 106.981 255.214 107.089H255.2Z" fill="black"/>
<path d="M261.915 100.092C259.686 100.443 257.916 98.1735 257.876 96.4039C257.835 94.337 259.767 92.3242 261.834 92.3242C263.86 92.3242 265.63 94.1074 265.643 96.1742C265.657 98.5112 264.184 100.065 261.928 100.092H261.915ZM264.009 96.4039C264.036 95.1746 262.955 93.9183 261.78 94.0128C260.537 94.1074 259.767 94.9449 259.551 96.1202C259.348 97.2279 260.469 98.4032 261.604 98.4437C263.171 98.5112 263.982 97.8223 264.009 96.4039Z" fill="black"/>
<path d="M264.104 86.6496C264.306 89.4324 262.415 90.3374 260.375 90.5671C258.471 90.7832 256.269 88.4057 256.309 86.5415C256.35 84.6773 258.444 82.8401 260.51 82.8536C262.766 82.8671 264.117 84.3125 264.09 86.6496H264.104ZM258.916 84.6367C258.025 86.0146 257.849 87.352 259.024 88.3922C259.821 89.1081 261.051 89.2297 261.726 88.3111C262.24 87.6087 262.618 86.3929 262.361 85.6499C261.794 83.9748 260.227 84.5152 258.916 84.6367Z" fill="black"/>
<path d="M229.642 276.04C230.047 275.891 230.344 275.77 230.79 275.594C228.007 268.137 225.521 260.599 219.983 254.575C220.091 254.412 220.199 254.264 220.307 254.102C220.82 254.385 221.482 254.548 221.834 254.953C224.36 257.952 226.264 261.329 227.831 264.909C229.034 267.678 230.128 270.501 231.425 273.689C234.64 266.692 236.558 259.303 242.164 254.088C242.313 254.169 242.461 254.264 242.597 254.345C240.543 257.763 238.139 261.018 236.518 264.625C234.91 268.205 233.046 271.812 232.397 275.743C232.614 275.837 232.816 275.918 233.032 276.013C233.302 275.581 233.721 275.175 233.816 274.703C234.734 270.42 237.044 266.84 239.665 263.49C244.596 257.182 250.837 252.332 257.443 247.915C261.387 245.28 265.561 243.187 270.168 242.092C273.342 241.336 276.517 241.39 279.3 243.497C281.164 244.902 281.664 246.834 280.678 249.036C278.989 252.832 277.165 256.574 275.571 260.41C274.909 262.018 274.585 263.801 274.315 265.544C273.586 270.312 272.127 274.608 267.453 276.986C266.426 277.512 265.372 277.958 264.089 278.566C265.116 279.255 265.994 279.944 266.953 280.471C269.776 282.011 270.951 286.766 269.925 289.454C268.682 292.683 267.966 296.155 266.453 299.248C264.778 302.679 262.617 305.921 258.875 307.664C255.578 309.19 252.471 308.772 249.472 307.029C244.407 304.071 240.611 299.883 237.814 294.763C236.301 291.994 234.897 289.157 233.194 285.874C233.194 290.049 233.302 293.845 233.167 297.613C233.032 301.247 232.695 304.868 231.384 308.339C229.817 301.288 229.425 294.182 229.02 286.982C228.412 288.319 227.818 289.67 227.197 291.008C224.306 297.276 220.226 302.652 214.471 306.489C210.446 309.177 205.258 309.947 200.679 305.286C197.747 302.301 196.005 298.667 194.492 294.871C193.262 291.805 192.641 288.63 192.925 285.266C193.154 282.484 194.87 280.971 197.058 279.741C197.666 279.404 198.274 279.052 198.855 278.715C196.95 277.675 195.086 276.837 193.438 275.702C191.061 274.054 189.926 271.488 189.21 268.799C188.71 266.935 188.791 264.895 188.237 263.045C187.589 260.856 186.562 258.762 185.644 256.655C184.522 254.102 183.09 251.657 182.199 249.022C180.767 244.767 183.982 242.268 187.845 241.822C193.127 241.201 197.788 243.403 202.178 245.915C209.568 250.13 216.187 255.372 221.834 261.802C225.494 265.962 228.223 270.799 229.588 276.04H229.642ZM228.682 278.026C228.304 276.121 228.345 274.459 227.656 273.19C225.751 269.677 223.927 266.016 221.388 263.004C218.564 259.64 215.066 256.817 211.702 253.953C206.623 249.617 201.125 245.915 194.654 243.862C191.722 242.93 188.845 242.43 185.86 243.47C183.914 244.146 182.388 246.685 183.077 248.509C183.806 250.454 184.833 252.292 185.684 254.196C186.94 257.047 188.291 259.856 189.331 262.788C190.02 264.706 190.318 266.759 190.642 268.786C191.317 272.811 193.897 275.189 197.45 276.634C199.112 277.31 200.922 278.012 202.651 277.985C204.894 277.958 207.109 277.067 209.378 276.837C215.687 276.216 222.023 275.81 228.709 278.039L228.682 278.026ZM280.272 247.509C280.07 245.686 278.732 244.105 276.855 243.43C273.194 242.092 269.655 243.079 266.372 244.578C262.752 246.226 259.185 248.144 255.903 250.387C248.567 255.412 241.732 261.072 237.396 269.056C236.139 271.352 235.437 273.96 234.586 276.459C234.289 277.35 234.491 277.999 235.775 277.593C237.098 277.161 238.476 276.85 239.854 276.702C246.771 275.932 253.606 276.486 260.374 278.053C260.847 278.161 261.428 278.201 261.874 278.053C263.332 277.566 264.805 277.053 266.196 276.391C270.357 274.432 272.518 271.109 272.829 266.516C272.937 265.03 273.126 263.477 273.68 262.112C274.855 259.195 276.314 256.371 277.625 253.507C278.53 251.522 279.381 249.522 280.259 247.523L280.272 247.509ZM269.155 287.009C268.993 286.253 268.925 284.848 268.371 283.699C266.98 280.795 262.454 278.796 258.685 279.917C254.795 281.079 250.81 281.403 246.784 281.43C243.434 281.457 240.097 281.268 236.869 280.201C236.072 279.93 235.18 279.944 234.329 279.836C234.248 280.592 234.113 281.349 234.1 282.105C234.1 282.538 234.167 283.01 234.329 283.429C235.491 286.455 236.504 289.576 237.909 292.494C240.786 298.465 245.001 303.287 250.904 306.489C253.836 308.083 256.713 308.002 259.496 306.11C262.157 304.287 263.981 301.747 265.413 298.924C267.223 295.357 268.709 291.67 269.155 287.023V287.009ZM193.749 287.239C193.789 287.914 193.708 288.617 193.897 289.252C195.451 294.439 197.126 299.586 200.814 303.733C203.056 306.246 205.704 308.191 209.365 307.488C212.013 306.975 214.215 305.449 216.268 303.773C219.767 300.896 222.536 297.37 224.724 293.466C226.778 289.805 228.601 285.982 228.737 281.633C228.804 279.485 228.493 279.147 226.44 279.944C222.86 281.335 219.172 281.335 215.43 281.403C211.013 281.484 206.812 280.376 202.529 279.687C197.977 278.958 193.776 282.646 193.762 287.239H193.749ZM236.936 278.472C241.111 281.187 254.646 281.092 256.929 278.431C250.31 277.661 243.772 276.553 236.936 278.472ZM205.637 278.458C208.744 280.849 223.914 281.362 225.629 278.404C219.037 276.594 212.485 277.648 205.637 278.458ZM231.02 300.248C231.209 300.248 231.398 300.248 231.6 300.261C232.33 294.925 233.262 289.576 231.654 284.267C231.438 284.267 231.236 284.267 231.02 284.267V300.248ZM231.074 276.445C230.695 277.526 230.29 278.255 230.263 278.998C230.249 279.323 231.141 280.052 231.357 279.971C232.033 279.701 232.587 279.12 233.316 278.566C232.546 277.837 232.006 277.323 231.087 276.445H231.074Z" fill="black"/>
<path d="M196.219 250.712C196.219 253.008 194.558 254.778 192.464 254.67C190.424 254.575 188.492 252.697 188.438 250.779C188.384 248.969 190.816 246.564 192.613 246.659C194.436 246.754 196.206 248.753 196.219 250.712Z" fill="black"/>
<path d="M195.763 258.047C198.114 258.074 199.492 259.547 199.438 261.992C199.384 264.221 197.857 265.72 195.642 265.707C193.494 265.693 191.846 263.924 191.859 261.695C191.886 259.547 193.508 258.02 195.75 258.047H195.763Z" fill="black"/>
<path d="M204.014 271.609C204.014 274 202.704 275.229 200.205 275.216C198.165 275.216 196.314 273.5 196.301 271.622C196.301 269.677 198.476 267.421 200.34 267.461C202.38 267.502 204.014 269.353 204.001 271.622L204.014 271.609ZM198.341 271.284C198.273 272.77 198.732 273.662 200.313 273.621C201.812 273.581 202.447 272.946 202.488 271.487C202.515 269.961 201.515 269.366 200.299 269.339C199.138 269.326 198.111 269.866 198.341 271.284Z" fill="black"/>
<path d="M275.151 249.969C275.475 252.09 273.124 253.67 271.341 253.643C269.099 253.616 267.356 251.441 267.424 249.712C267.505 247.74 269.464 245.741 271.422 245.876C273.597 246.024 275.353 247.308 275.151 249.969Z" fill="black"/>
<path d="M267.684 263.747C265.617 263.72 263.713 261.883 263.767 259.951C263.821 257.965 265.671 256.02 267.563 255.979C269.738 255.939 271.629 257.803 271.629 259.991C271.629 262.045 269.819 263.76 267.698 263.747H267.684Z" fill="black"/>
<path d="M260.213 270.934C260.28 268.556 261.793 267.259 264.387 267.327C266.44 267.381 268.061 269.11 267.967 271.136C267.872 273.217 265.806 275.148 263.793 275.054C261.82 274.946 260.145 273.041 260.213 270.947V270.934ZM261.847 270.974C261.834 272.244 262.915 273.419 264.09 273.406C264.995 273.406 266.386 272.028 266.427 271.123C266.467 270.11 265.225 268.934 264.103 268.907C262.699 268.88 261.861 269.65 261.847 270.988V270.974Z" fill="black"/>
<path d="M260.362 289.075C257.889 289.075 256.471 287.724 256.484 285.347C256.484 283.212 258.322 281.321 260.362 281.348C262.32 281.361 264.184 283.253 264.211 285.265C264.252 287.548 262.712 289.075 260.362 289.075Z" fill="black"/>
<path d="M257.914 295.021C257.914 292.711 259.414 291.36 261.805 291.265C264.007 291.171 265.587 293.008 265.628 295.021C265.668 297.033 263.709 299.033 261.751 299.06C259.738 299.087 257.914 297.169 257.914 295.021Z" fill="black"/>
<path d="M255.403 298.275C257.767 298.329 259.051 299.666 259.01 302.03C258.969 304.232 257.2 306.015 255.133 305.934C253.309 305.867 251.269 303.827 251.242 302.057C251.215 299.909 253.08 298.221 255.403 298.275Z" fill="black"/>
<path d="M203.136 289.077C200.772 289.09 199.191 287.604 199.191 285.348C199.191 283.349 201.204 281.323 203.149 281.35C204.649 281.363 207.108 283.187 206.986 285.267C206.837 287.658 205.581 289.063 203.136 289.077Z" fill="black"/>
<path d="M201.788 291.277C204.058 291.304 205.503 292.817 205.557 295.019C205.598 297.424 203.531 299.018 201.558 299.031C199.654 299.031 197.695 296.91 197.857 294.897C198.006 293.101 199.289 291.02 201.788 291.264V291.277Z" fill="black"/>
<path d="M212.391 301.519C212.391 303.95 211 305.328 208.568 305.314C206.488 305.314 204.61 303.423 204.678 301.383C204.732 299.506 206.758 297.533 208.622 297.547C210.865 297.56 212.405 299.182 212.391 301.519Z" fill="black"/>
<path d="M441.15 218.016H293.121V329.453H441.15V218.016Z" fill="white"/>
<path fill-rule="evenodd" clip-rule="evenodd" d="M437.638 221.325H296.391V326.112H437.638V221.325ZM441.029 218V329.438H293V218H441.029Z" fill="#0070F3"/>
<path d="M357.954 285.857C357.988 274.129 360.97 270.494 366.476 266.96C370.81 264.195 374.104 261.497 374.104 257.272C374.104 253.047 370.843 250.416 366.755 250.416C362.667 250.416 358.959 253.326 358.848 258.131H342.898C343.111 243.593 353.855 237.127 366.889 237.127C381.174 237.127 391.539 243.905 391.539 256.47C391.539 264.742 387.138 269.758 380.482 273.66C375.244 276.771 372.719 279.714 372.719 285.835V287.25H357.954V285.835V285.857ZM356.603 300.974C356.536 296.058 360.623 292.078 365.616 292.078C370.608 292.078 374.562 296.058 374.629 300.974C374.562 305.958 370.363 309.971 365.616 309.971C360.623 309.971 356.536 305.958 356.603 300.974Z" fill="#0070F3"/>
</svg>
