<svg width="36" height="36" viewBox="0 0 36 36" fill="none" xmlns="http://www.w3.org/2000/svg">
<path d="M9.49132 9.58702L1.00981 17.9944V19.6344L8.45198 26.9272L9.49132 25.8868L1.8927 18.7339L10.3477 10.4384C10.0621 10.1547 9.77667 9.87092 9.49132 9.58702Z" fill="black"/>
<path d="M16.5827 35.0002H17.6082V34.1778L10.1588 26.7518L9.19221 27.7165L16.5827 35.0002Z" fill="black"/>
<path fill-rule="evenodd" clip-rule="evenodd" d="M0 35.9447V35.1107V0.944458C0 0.314819 0.309009 0 0.927035 0H34.924C35.6303 0 35.9834 0.360845 35.9834 1.08254L35.9831 6.75617C35.9824 16.2081 35.9816 25.6575 36 35.1107C36 35.8232 35.8013 36.0054 35.1171 35.9999C27.487 35.9888 19.8545 35.9876 12.2228 35.9864C8.40756 35.9858 4.5925 35.9852 0.778052 35.9833C0.630741 35.9833 0.483429 35.9739 0.308698 35.9628C0.215076 35.9569 0.113583 35.9504 0 35.9447ZM35.0123 17.9944H18.6235V35.0278H35.0123V17.9944ZM1.00981 34.3706V19.6344V17.9944V1.11567L3.21705 3.32493L4.73479 4.8412C6.31981 6.42491 7.90396 8.00775 9.49132 9.58702C9.77667 9.87092 10.0621 10.1547 10.3477 10.4384L10.8155 10.9027C12.8903 12.9684 14.9761 15.023 17.0619 17.0776C17.25 17.2637 17.3676 17.4142 17.4113 17.5596L17.6082 17.8312V19.3145V34.1778V35.0002H16.5827H1.8927H1.00429L1.00981 34.3816V34.3706ZM9.49132 25.8868L8.45198 26.9272L9.19221 27.7165L10.1588 26.7518L9.49132 25.8868Z" fill="black"/>
<path d="M18.4375 17.9982L35.2981 34.8918M18.4375 34.8918L35.2981 17.4688" stroke="black"/>
</svg>
