<svg width="60" height="42" viewBox="0 0 60 42" fill="none" xmlns="http://www.w3.org/2000/svg">
<path d="M32.4148 30.5367C30.1324 30.5367 27.848 30.7066 25.5656 30.732C24.4917 30.7437 23.4139 30.8159 22.344 30.9077C21.7602 30.9585 21.3853 30.7437 21.1139 30.2458C20.1065 28.4007 19.0912 26.5596 18.0778 24.7184C17.7928 24.199 17.5097 23.6797 17.2129 23.1662C16.8614 22.557 16.9083 22.4613 17.6327 22.4594C19.837 22.4535 22.0414 22.4594 24.2476 22.4555C24.8542 22.4555 25.1575 22.1528 25.1575 21.5476C25.1575 21.0946 25.1477 20.6416 25.1614 20.1906C25.179 19.5717 25.3645 19.3959 25.9756 19.3959C27.1373 19.3959 28.299 19.3745 29.4588 19.4037C29.984 19.4174 30.1793 19.2768 30.1715 18.7106C30.1402 16.3501 30.1715 13.9876 30.148 11.627C30.1441 11.137 30.2886 10.9925 30.7845 11.0003C32.4968 11.0315 34.2092 11.0218 35.9215 11.0062C36.3198 11.0022 36.4799 11.1077 36.474 11.5353C36.4526 13.0504 36.4526 14.5655 36.474 16.0806C36.4799 16.5551 36.2983 16.6722 35.8473 16.6644C34.3907 16.639 32.9342 16.6703 31.4777 16.6468C30.9798 16.639 30.7474 16.7738 30.7923 17.3126C30.8333 17.8008 30.8314 18.2986 30.7923 18.7868C30.7552 19.2593 30.9329 19.4116 31.3917 19.4037C32.573 19.3823 33.7542 19.4096 34.9355 19.392C35.408 19.3842 35.6228 19.5482 35.6013 20.0422C35.5739 20.6318 35.6325 21.2254 35.5837 21.8131C35.5388 22.3754 35.8102 22.4672 36.2788 22.4633C38.366 22.4516 40.4512 22.4574 42.5384 22.4574C42.8528 22.4574 43.1691 22.4476 43.4834 22.4633C44.0262 22.4906 44.1199 22.6527 43.8641 23.1173C43.1027 24.5016 42.3295 25.8781 41.5797 27.2683C41.0955 28.1684 40.6328 29.0822 40.1876 30.0018C40.0002 30.3903 39.7444 30.5465 39.3129 30.5426C37.0129 30.5289 34.7129 30.5367 32.4148 30.5367ZM18.0505 23.1837C18.4625 23.9159 18.8237 24.5505 19.1771 25.1889C19.9366 26.5576 20.7078 27.9204 21.4458 29.3008C21.7602 29.8885 22.1273 30.2068 22.8614 30.1131C23.8493 29.9881 24.851 29.9666 25.8487 29.9334C26.8112 29.9002 27.7758 29.9061 28.7403 29.9002C32.1044 29.8788 35.4685 29.8553 38.8326 29.8456C39.2524 29.8456 39.5492 29.7479 39.6644 29.2969C39.7054 29.1368 39.8401 29.0021 39.9241 28.8498C40.707 27.4323 41.4958 26.0207 42.2612 24.5954C42.4935 24.1639 42.6595 23.6953 42.8821 23.1818H18.0485L18.0505 23.1837ZM35.6442 11.795C34.1076 11.795 32.6394 11.795 31.1711 11.795C30.8041 11.795 30.7962 12.0488 30.7982 12.3241C30.804 13.3257 30.8177 14.3254 30.7923 15.327C30.7806 15.7546 30.9622 15.8717 31.3488 15.8678C32.3504 15.8561 33.352 15.8639 34.3517 15.8639C34.7734 15.8639 35.1971 15.8639 35.6423 15.8639V11.793L35.6442 11.795ZM25.9404 20.2179C25.9404 20.7588 25.9697 21.2313 25.9326 21.6979C25.8916 22.2055 26.1045 22.3246 26.5789 22.3207C29.1542 22.3012 31.7315 22.3129 34.3068 22.309C34.4571 22.309 34.6055 22.2817 34.7578 22.2661V20.2179H25.9404Z" fill="black"/>
</svg>
