<svg width="60" height="42" viewBox="0 0 60 42" fill="none" xmlns="http://www.w3.org/2000/svg">
<path d="M27.87 33.0959C23.2588 33.0959 18.6523 32.958 14.0411 32.958C13.2615 32.958 13.2947 32.9295 13.1807 32.1735C13.0048 30.9895 12.7956 29.8056 12.5199 28.6454C12.3487 27.937 12.382 27.2 12.1443 26.501C11.9874 26.0398 11.9494 25.5405 11.8734 25.0556C11.8306 24.756 11.6262 24.7275 11.398 24.7417C10.7895 24.775 10.5375 24.4469 10.5138 23.8859C10.4567 22.545 10.238 21.228 10.0241 19.9109C9.95755 19.4972 10.0146 19.1739 10.3759 18.8173C11.745 17.4764 13.038 16.0548 14.3739 14.6759C16.1661 12.831 18.0201 11.048 19.7457 9.14608C20.5634 8.24743 21.4238 7.95738 22.6028 8.00493C25.1318 8.10954 27.6704 7.97641 30.1946 8.13331C34.3828 8.39007 38.5757 8.16184 42.759 8.3663C44.7747 8.46615 46.7903 8.53271 48.8059 8.53271C49.248 8.53271 49.4334 8.70864 49.481 9.15559C49.6093 10.4061 49.6854 11.6661 49.9706 12.8976C50.0657 13.3065 49.9231 13.6631 49.6426 13.9199C48.6395 14.8233 48.8677 15.9074 49.1102 17.02C49.2718 17.7712 49.2575 18.5748 49.5047 19.288C49.9041 20.4529 49.481 21.3611 48.8867 22.2883C48.0073 23.6672 47.1041 25.0365 46.3102 26.463C45.1502 28.5408 43.8477 30.5331 42.702 32.6204C42.4738 33.0388 42.1981 33.229 41.6847 33.2195C38.4426 33.1624 35.2004 33.2385 31.9536 33.1054C30.594 33.0483 29.2296 33.0959 27.8653 33.0959C27.8653 33.0483 27.87 33.1291 27.87 33.0815V33.0959ZM31.5637 10.2254C31.6255 10.4299 31.4591 10.4917 31.3403 10.5915C30.7746 11.0908 29.2059 12.3936 28.6211 12.8786C28.3359 13.1163 28.3216 13.3065 28.6021 13.5347C28.9349 13.8058 29.2771 14.0625 29.5909 14.3526C29.8524 14.5903 30.0425 14.5523 30.2992 14.3335C30.7984 13.9056 31.3165 13.5015 31.849 13.1163C32.5953 12.5695 33.3702 12.0465 34.302 11.8611C34.7203 11.7802 34.6775 11.5758 34.4826 11.338C34.3923 11.2334 34.2592 11.1811 34.3305 11.01C34.9247 10.9814 35.2432 11.4759 35.6758 11.7422C35.885 11.8706 36.1369 11.9894 36.2035 12.2605C36.2891 12.6171 35.8517 12.6028 35.7091 12.831C35.8089 12.8691 35.8612 12.9071 35.9135 12.9071C38.956 12.9071 41.9937 13.0165 45.0314 13.1353C45.3309 13.1496 45.5496 13.0165 45.7349 12.7787C46.3767 11.9466 47.0185 11.1193 47.6793 10.3062C47.9027 10.0305 48.3591 9.74043 48.1974 9.43612C48.0596 9.17461 47.5414 9.1651 47.1611 9.1651C47.1421 9.1651 47.1231 9.1651 47.1041 9.1651C42.5641 9.12706 38.0242 9.09853 33.4796 8.93687C29.5671 8.79898 25.65 8.83702 21.7376 8.80373C21.4 8.80373 21.1006 8.84178 20.8343 9.12231C19.8503 10.1636 18.833 11.1716 17.8442 12.2082C17.7586 12.2985 17.578 12.3841 17.635 12.5362C17.7016 12.7169 17.9012 12.6741 18.0533 12.6836C19.5128 12.7454 20.9722 12.7217 22.4316 12.8453C23.7865 12.9594 25.1603 12.8596 26.5247 12.8928C26.8527 12.9024 27.019 12.9304 27.4041 12.9304C27.9176 13.2109 28.2741 12.774 28.5878 12.4744C28.9824 12.0988 30.4418 11.0052 30.8174 10.6058C30.998 10.4156 31.2214 10.1446 31.5732 10.2207L31.5637 10.2254ZM30.6225 32.3494C30.6225 32.3494 30.6224 32.3066 30.6224 32.3304C34.0262 32.3304 37.4252 32.4159 40.829 32.4159C41.6514 32.4159 41.7227 32.2971 41.5611 31.484C41.2949 30.1622 41.0524 28.8308 40.8005 27.5043C40.6341 26.6341 40.52 25.7593 40.3203 24.8939C40.249 24.5706 40.1064 24.5325 39.8449 24.5325C38.8181 24.542 37.7865 24.5325 36.7597 24.542C28.9159 24.6324 21.072 24.3899 13.2282 24.7275C12.71 24.7513 12.5151 24.9272 12.6863 25.3931C12.9667 26.1777 13.0333 27.0145 13.1426 27.8181C13.3138 29.0876 13.6893 30.3191 13.8082 31.5934C13.8414 31.9595 14.0126 32.1925 14.4547 32.1925C16.5416 32.1782 18.6286 32.2828 20.7155 32.3304C24.0147 32.4064 27.3186 32.3494 30.6225 32.3494ZM31.5115 23.8193C31.5115 23.8526 31.5115 23.786 31.5115 23.8193C34.5159 23.8193 37.5251 23.71 40.5295 23.7195C40.9668 23.7195 41.214 23.5911 41.0524 23.1489C40.8005 22.4832 40.6246 21.8033 40.4677 21.1091C40.3488 20.5813 40.0493 20.2675 39.4409 20.3198C39.051 20.3531 38.6517 20.3008 38.2572 20.2913C34.302 20.2247 30.3515 20.1819 26.3963 20.0916C21.4 19.9775 16.4038 19.8348 11.4075 19.6874C10.8941 19.6732 10.7467 19.9109 10.8703 20.3341C11.146 21.2898 11.0224 22.2883 11.2268 23.263C11.3504 23.8574 11.5121 23.9905 12.0635 23.9762C15.6004 23.8954 19.1372 23.9477 22.6741 23.8383C25.6167 23.748 28.5641 23.8193 31.5115 23.8193ZM30.7651 19.4307C31.1454 19.4307 31.6778 19.4164 32.2103 19.4307C34.7393 19.502 37.2684 19.5876 39.8022 19.6589C40.0446 19.6636 40.3061 19.7255 40.5057 19.4687C41.4898 18.2182 42.4928 16.9819 43.4816 15.7314C43.7621 15.3748 43.667 15.1181 43.2249 15.1086C42.3645 15.0895 41.504 15.1086 40.6388 15.1181C39.7784 15.1228 38.9179 15.1371 38.0527 15.1371C37.1305 15.1371 36.213 15.1133 35.2908 15.1086C34.3733 15.1086 33.4558 15.08 32.5383 15.1181C31.3641 15.1656 30.1804 15.08 29.049 15.5555C27.4707 16.2212 25.8687 16.8346 24.2761 17.4622C24.1525 17.5097 24.0051 17.5145 23.8673 17.524C23.0924 17.5858 22.5838 17.0866 22.0941 16.6158C21.8279 16.3543 21.3905 16.1736 21.3953 15.7172C21.4048 15.2132 21.0815 15.08 20.706 15.1133C20.2116 15.1561 19.7267 15.0943 19.2323 15.1038C18.291 15.1181 17.3498 15.0658 16.4133 15.1181C15.819 15.1514 15.1297 14.9659 14.6496 15.4319C13.6323 16.4209 12.6672 17.4669 11.6784 18.4892C11.4027 18.7745 11.5453 18.9029 11.8496 18.9362C12.3012 18.9885 12.7528 19.036 13.2092 19.0408C19.0041 19.0883 24.7943 19.2642 30.7461 19.4259L30.7651 19.4307ZM45.1645 26.6341C44.9553 24.9557 44.7652 23.4342 44.5703 21.9126C44.5417 21.7082 44.6035 21.4324 44.3326 21.3563C44.0331 21.2708 43.957 21.5751 43.8287 21.7462C43.3438 22.3834 42.9112 23.0538 42.4025 23.6719C42.1078 24.0333 41.8938 24.5373 41.2901 24.542C41.0572 24.542 41.0952 24.7608 41.119 24.9082C41.2235 25.5881 41.3281 26.2633 41.4517 26.9384C41.6894 28.2698 41.9366 29.6059 42.1838 30.9372C42.2171 31.1179 42.103 31.4127 42.3312 31.4555C42.5499 31.4983 42.6687 31.2415 42.7828 31.0513C43.3723 30.0623 43.9855 29.0876 44.5608 28.0891C44.846 27.5946 45.3166 27.1477 45.1692 26.6341H45.1645ZM37.8864 14.809C39.7023 14.809 41.523 14.752 43.339 14.8375C44.1614 14.8756 44.4894 14.3811 44.8745 13.8771C45.0266 13.6774 45.0124 13.4587 44.6653 13.4587C44.5275 13.4587 44.3896 13.4492 44.2518 13.4492C41.0905 13.4349 37.9291 13.4539 34.7726 13.3445C34.5111 13.335 34.2592 13.3778 34.0215 13.4729C33.3559 13.7439 32.6952 14.0197 32.0391 14.3098C31.8728 14.3858 31.6113 14.4762 31.6731 14.6997C31.7254 14.8946 31.9821 14.809 32.1437 14.809C34.0595 14.8138 35.9753 14.809 37.8911 14.809H37.8864ZM41.0287 20.3388C41.2141 21.014 41.3947 21.6939 41.5848 22.3691C41.6371 22.5593 41.5373 22.8398 41.8558 22.8874C42.1458 22.9302 42.2551 22.6734 42.3835 22.507C43.0205 21.6702 43.6195 20.8095 44.2613 19.9727C44.6035 19.5258 44.7557 19.0788 44.6321 18.4987C44.5132 17.9234 44.2803 17.3671 44.3135 16.7632C44.323 16.5873 44.2375 16.4637 44.0663 16.4019C43.8572 16.3258 43.7954 16.5017 43.7003 16.6158C42.9112 17.6048 42.1363 18.6033 41.3281 19.5781C41.1332 19.811 41.0619 20.0393 41.0287 20.3341V20.3388ZM23.1399 16.9582C23.1685 16.302 23.5012 15.8979 24.0099 15.6744C25.3695 15.0705 26.8004 14.7615 28.2979 14.7852C28.4975 14.7852 28.6924 14.7852 28.8921 14.7757C29.1631 14.7662 29.2249 14.538 29.0775 14.4239C28.5688 14.0292 28.1838 13.4587 27.4041 13.4682C26.1539 13.4872 24.9274 13.7059 23.6819 13.7344C22.8072 13.7535 22.1036 14.324 21.9087 15.1704C21.8374 15.4747 21.7328 15.836 22.0418 16.1118C22.3651 16.3971 22.6693 16.7062 23.1447 16.9534L23.1399 16.9582ZM48.9343 20.2532C49.0294 19.8063 48.7108 19.3926 48.6728 18.9171C48.611 18.1706 48.34 17.4527 48.3258 16.6967C48.3258 16.5112 48.2355 16.321 48.0738 16.2545C47.8552 16.1641 47.7839 16.4399 47.6983 16.5445C47.3608 16.9439 47.0898 17.3956 46.776 17.8188C46.5716 18.0946 46.5478 18.3894 46.6001 18.7127C46.8188 20.0916 46.9662 21.48 47.0613 22.8779C47.0708 23.0253 46.99 23.2487 47.1658 23.301C47.337 23.3486 47.4606 23.1869 47.5604 23.0205C47.9265 22.3786 48.283 21.7272 48.7108 21.1234C48.901 20.8523 48.9533 20.6051 48.9295 20.258L48.9343 20.2532ZM23.4442 13.3541C23.3349 13.1686 23.2303 13.1781 23.1352 13.1781C21.2004 13.1639 19.2608 13.1544 17.326 13.1448C17.1073 13.1448 16.9029 13.1781 16.7365 13.3588C16.418 13.6964 16.071 14.015 15.7477 14.3478C15.6574 14.4429 15.5338 14.5618 15.5861 14.7044C15.6479 14.8613 15.8238 14.809 15.9569 14.809C17.6968 14.809 19.4367 14.809 21.1719 14.8185C21.4143 14.8185 21.6377 14.7615 21.7281 14.5618C22.0561 13.8248 22.6788 13.5205 23.4442 13.3541ZM48.9153 10.2777C48.863 10.2492 48.8107 10.2254 48.7584 10.1969C48.1927 10.9006 47.6222 11.5995 47.0565 12.308C46.7808 12.6551 46.3672 12.9737 46.2721 13.3683C46.0392 14.3335 46.4623 15.2607 46.6952 16.1831C46.738 16.3591 46.8759 16.4494 47.0565 16.1831C47.6222 15.3653 48.2355 14.5855 48.8249 13.7867C49.0341 13.5062 49.267 13.2162 49.1625 12.8358C48.9343 11.9942 48.9628 11.1288 48.9105 10.2682L48.9153 10.2777ZM44.9173 21.3754C44.7042 22.4598 45.0918 23.4618 45.1502 23.7432C45.3593 24.485 45.464 25.1649 45.4355 25.8972C45.4307 26.0778 45.5686 26.2585 45.7159 26.035C46.1771 25.3551 46.8236 24.737 46.795 23.8478C46.7523 22.255 46.41 20.6859 46.2293 19.1073C46.2198 19.0122 46.2103 18.8839 46.0867 18.8934C46.0012 18.8981 45.8918 18.9599 45.8443 19.0313C45.3309 19.7445 45.1217 20.4434 44.9125 21.3754H44.9173ZM44.5085 15.8646C44.5322 16.7204 44.903 17.5145 44.9268 18.3703C44.9315 18.5938 45.1597 18.6461 45.2643 18.5273C45.7159 18.028 46.3244 17.5383 46.3339 16.8488C46.3434 16.0595 46.0915 15.2702 45.9536 14.4809C45.9156 14.2717 45.773 14.2337 45.6018 14.2812C45.3309 14.3526 44.4894 15.5698 44.5085 15.8646ZM28.3311 15.2988C28.3311 15.0895 28.2028 15.1419 28.0554 15.1609C27.0619 15.2845 26.0541 15.3748 25.0938 15.6649C24.5566 15.8265 23.9624 15.9597 23.6248 16.5065C23.5107 16.6919 23.487 16.8773 23.6058 17.0628C23.6771 17.1769 23.8293 17.2054 23.9196 17.1436C24.181 16.9629 24.4948 17.0152 24.7658 16.9059C25.8449 16.4827 26.9145 16.0453 27.9936 15.6221C28.1505 15.5603 28.2741 15.4842 28.3311 15.3035V15.2988ZM35.576 12.2557C34.4588 11.8991 31.9108 13.0402 31.1454 14.2099C32.6476 13.6203 34.1594 13.0402 35.576 12.2557Z" fill="black"/>
</svg>
