<svg width="34" height="34" viewBox="0 0 34 34" fill="none" xmlns="http://www.w3.org/2000/svg">
<path d="M33.9948 34H0.0157086C0 34 0.0157086 33.5144 0.0157086 33.2847C0.0157086 22.4717 0.0157092 11.6588 0 0.851043C0 0.198402 0.183272 0 0.848295 0C11.6248 0.0208845 22.4014 0.0156634 33.1779 0C33.7958 0 34 0.156633 34 0.798832C33.9843 11.6536 33.9895 22.5083 33.9895 33.363V34H33.9948ZM17.4634 33.1176C17.7828 33.1385 17.9975 33.1646 18.2122 33.1646C22.9878 33.1646 27.7687 33.1594 32.5443 33.1751C33.1098 33.1751 33.2983 32.9975 33.2983 32.4232C33.2774 27.4631 33.2983 22.5031 33.2721 17.543C33.2721 17.235 33.1255 16.8538 32.9108 16.6293C31.6646 15.3188 30.3921 14.0396 29.1092 12.7657C27.355 11.0218 25.5641 9.30927 23.8152 7.56019C21.7206 5.46652 19.6627 3.34152 17.5577 1.26351C17.3168 1.02334 16.8874 0.851043 16.5418 0.851043C11.5882 0.824937 6.63453 0.845823 1.68612 0.819717C1.04728 0.819717 0.884954 1.0129 0.884954 1.62899C0.892712 6.56163 0.895362 11.493 0.896687 16.4243C0.898045 21.4784 0.898012 26.5325 0.900663 31.5878C0.900663 31.8071 0.900663 32.207 0.900663 32.543C6.11424 27.3495 11.3077 22.0721 16.5418 16.8582C16.8486 16.5526 17.1558 16.2465 17.4634 15.9401V33.1124V33.1176ZM16.6937 18.2383C11.6824 23.2192 6.56069 28.1889 1.55469 33.1646C1.88281 33.1646 2.18882 33.1646 2.41398 33.1646C6.90682 33.1646 11.3997 33.1542 15.8925 33.1803C16.5471 33.1803 16.7146 32.9558 16.7094 32.3553C16.6937 27.8965 16.7041 23.4377 16.6937 18.984C16.6937 18.7439 16.6937 18.4883 16.6937 18.2383Z" fill="black"/>
<path d="M17.5577 1.26351C17.3168 1.02334 16.8874 0.851043 16.5418 0.851043V16.3991V16.8582L17.4634 15.9401L17.5577 1.26351Z" fill="black"/>
<path d="M1.68612 0.819717C1.04728 0.819717 0.884954 1.0129 0.884954 1.62899C0.892712 6.56163 0.895362 11.493 0.896687 16.4243L16.5418 16.3991L1.68612 0.819717Z" fill="black"/>
</svg>
