<svg width="60" height="42" viewBox="0 0 60 42" fill="none" xmlns="http://www.w3.org/2000/svg">
<path d="M28.6025 33.2123C24.2661 33.2123 19.9392 33.1267 15.6028 33.1172C14.9133 33.1172 14.2429 32.9032 13.5439 32.9555C13.3442 32.9698 13.2586 32.8413 13.2111 32.6273C12.7736 30.5728 12.4455 28.4993 12.0937 26.4258C12.0224 26.0025 11.8274 25.6031 11.8179 25.1608C11.8084 24.8516 11.5802 24.8041 11.3187 24.7803C10.5293 24.7137 10.5008 24.6852 10.4818 23.9005C10.4485 22.6925 10.225 21.5131 10.0396 20.3289C9.93975 19.6869 10.0063 19.1685 10.5008 18.6691C12.417 16.7478 14.2999 14.7884 16.1971 12.8433C17.6616 11.3452 19.1309 9.85192 20.5953 8.35385C20.8236 8.12082 21.0708 7.99241 21.4274 8.00192C22.4164 8.03521 23.4102 7.95912 24.3945 8.03522C29.544 8.41568 34.7125 8.22069 39.8667 8.44897C42.7719 8.57737 45.6819 8.52982 48.5871 8.55836C49.3336 8.56787 49.3907 8.62018 49.4525 9.35732C49.5618 10.6128 49.7045 11.8684 49.966 13.1049C50.0088 13.3141 50.0516 13.5376 49.8233 13.6946C49.7805 13.7231 49.7663 13.804 49.7235 13.8373C48.5443 14.7789 48.8201 16.0011 49.0531 17.2186C49.2718 18.3553 49.4858 19.4966 49.6855 20.638C49.733 20.9043 49.5428 21.1279 49.4144 21.3466C48.0355 23.6532 46.6376 25.955 45.2587 28.2615C44.3886 29.7168 43.5184 31.1673 42.6958 32.6464C42.4296 33.1219 42.1015 33.2218 41.607 33.2218C37.2706 33.2075 32.9389 33.2123 28.6025 33.2123C28.6025 33.2456 28.6025 33.179 28.6025 33.2123ZM29.7532 16.6574C29.6058 16.2437 30.0099 16.0963 30.1573 15.8252C30.2239 15.7015 30.3285 15.5826 30.2762 15.4495C30.2001 15.2592 30.0052 15.3258 29.8578 15.3258C29.4726 15.3258 29.1683 15.5731 28.826 15.7015C27.5184 16.1961 26.2346 16.7621 24.9175 17.2234C24.0188 17.5373 23.201 17.9035 22.6827 18.75C22.5924 18.8974 22.3974 19.0068 22.4688 19.2065C22.5496 19.4301 22.7731 19.3445 22.9395 19.3445C23.9855 19.3587 25.0411 19.3064 26.0824 19.392C27.0382 19.4729 27.7609 19.2874 28.1936 18.3553C28.341 18.0461 28.6025 17.7798 28.8497 17.5325C29.1541 17.2281 29.8348 15.9488 30.353 15.8727C30.3816 16.1819 29.601 17.152 29.4393 17.366C29.059 17.8606 28.6643 18.341 28.2601 18.8166C28.1508 18.945 28.0557 19.0781 28.0985 19.2398C28.1555 19.4443 28.3552 19.3825 28.5026 19.392C29.8815 19.4586 31.2604 19.4681 32.6394 19.5585C35.0453 19.7106 37.4655 19.6536 39.8762 19.6869C40.1805 19.6869 40.4325 19.6441 40.6417 19.3635C41.5166 18.1983 42.4153 17.0522 43.314 15.9013C43.4328 15.7491 43.6658 15.5969 43.5897 15.4352C43.4851 15.2164 43.1999 15.3258 42.9906 15.3211C39.1725 15.3163 35.3544 15.3211 31.5315 15.3068C31.0607 15.3068 30.7659 15.4732 30.5282 15.8727C30.338 16.1914 30.1668 16.5576 29.7484 16.6574H29.7532ZM35.8822 32.3991C35.8822 32.4466 35.8822 32.4942 35.8822 32.5417C37.5844 32.5417 39.2866 32.5417 40.9841 32.5417C41.5404 32.5417 41.7306 32.3563 41.5547 31.8759C41.2884 31.1626 41.3312 30.4064 41.16 29.6788C40.8177 28.2282 40.599 26.7444 40.3612 25.2702C40.2519 24.5758 39.9475 24.5045 39.3865 24.514C36.1627 24.5473 32.9389 24.5615 29.7104 24.5853C28.7261 24.5901 28.7309 24.5853 28.8688 25.5079C28.883 25.6078 28.8783 25.7077 28.8973 25.8028C29.0495 26.6303 29.2016 27.4626 29.3585 28.2901C29.5677 29.3887 29.8055 30.4777 29.9766 31.5811C30.0908 32.3277 30.0955 32.3943 30.8325 32.3991C32.5157 32.4086 34.1989 32.5417 35.8822 32.5417V32.3991ZM18.8693 32.3325V32.361C20.3148 32.361 21.7555 32.342 23.201 32.3705C23.6812 32.38 23.8714 32.2231 23.7573 31.7618C23.5148 30.7678 23.3579 29.7549 23.1154 28.7704C22.8539 27.7051 22.6732 26.6255 22.426 25.5555C22.2548 24.8136 22.2453 24.728 21.4845 24.7327C18.8741 24.747 16.2637 24.7708 13.6533 24.7851C12.5406 24.7898 12.4741 24.8707 12.6976 25.9645C12.7071 26.0025 12.7166 26.0406 12.7261 26.0786C13.154 27.9144 13.4821 29.7691 13.7436 31.6334C13.8149 32.147 14.0146 32.3515 14.5377 32.342C15.9831 32.3182 17.4239 32.3325 18.8693 32.3325ZM48.3874 9.44768C48.1401 9.40964 48.0022 9.37159 47.8691 9.37159C44.3505 9.40964 40.8367 9.2099 37.3229 9.06247C36.1056 9.01015 35.2926 9.32879 34.7743 10.4131C34.7648 10.4274 34.741 10.4321 34.7267 10.4512C34.4937 10.7745 34.489 11.0361 34.8741 11.2691C35.2545 11.5022 35.6159 11.7733 35.963 12.0538C36.1342 12.1918 36.2863 12.3915 36.02 12.5865C35.8964 12.6769 35.7015 12.7149 35.7823 12.9242C35.8584 13.1096 36.0533 13.0573 36.2007 13.0573C39.144 13.0859 42.092 13.1144 45.0352 13.1382C45.2492 13.1382 45.4727 13.1572 45.6296 12.9527C46.5235 11.8113 47.4174 10.6652 48.3826 9.43817L48.3874 9.44768ZM31.0084 20.2005C29.8102 20.2005 28.9971 20.2385 28.1888 20.1862C27.623 20.1529 27.5374 20.3717 27.5612 20.8711C27.5992 21.6225 27.9035 22.3216 27.875 23.0872C27.8465 23.7863 28.0652 23.9338 28.7832 23.9243C31.5505 23.872 34.3226 23.8196 37.0899 23.7673C38.2358 23.7483 39.3865 23.7435 40.5324 23.7198C40.7987 23.715 41.1458 23.7578 41.0079 23.287C40.8224 22.664 40.7036 22.0172 40.4896 21.418C40.366 21.0708 40.5324 20.424 39.7478 20.4335C36.7047 20.4811 33.6616 20.3765 31.0132 20.1957L31.0084 20.2005ZM16.4967 24.0146V23.9813C18.0563 23.9813 19.6206 23.9813 21.1802 23.9813C21.5606 23.9813 21.8364 23.8624 21.7508 23.4439C21.5558 22.5118 21.5416 21.5606 21.3942 20.6238C21.3086 20.0721 21.0898 19.9627 20.6049 19.9627C18.1561 19.9437 15.7026 19.9056 13.2539 19.8723C12.6025 19.8628 11.951 19.8486 11.2996 19.8343C10.9715 19.8248 10.7338 19.9247 10.8289 20.3099C11.0904 21.3894 10.9906 22.5118 11.2616 23.5914C11.3519 23.9528 11.4946 24.0194 11.8132 24.0194C13.3727 24.0099 14.9371 24.0194 16.4967 24.0194V24.0146ZM26.9716 32.3848C26.9716 32.3848 26.9716 32.4038 26.9716 32.4133C27.6848 32.4133 28.3933 32.4181 29.1065 32.4133C29.7341 32.4086 29.834 32.2659 29.6771 31.6572C29.1255 29.5694 28.8545 27.4245 28.398 25.3177C28.2887 24.8088 28.089 24.5996 27.585 24.6139C26.1442 24.6519 24.7035 24.6852 23.2628 24.6947C22.7445 24.6947 22.6447 24.9563 22.754 25.37C22.9775 26.2213 23.1202 27.0916 23.3151 27.9477C23.5956 29.1509 23.8381 30.3588 24.0616 31.5716C24.1805 32.2136 24.3374 32.38 24.965 32.3848C25.6355 32.3848 26.3107 32.3848 26.9811 32.3848H26.9716ZM22.3784 12.8338C22.3784 12.8338 22.3784 12.8623 22.3784 12.8814C23.743 12.8814 25.1077 12.8814 26.4723 12.8814C26.7291 12.8814 26.9906 12.9194 27.1856 12.6864C28.0937 11.5925 29.0067 10.5082 29.9053 9.40964C30.0812 9.19563 30.0099 9.01966 29.7246 9.01966C29.1493 9.01966 28.5835 8.89126 28.0176 8.87699C25.8637 8.82943 23.705 8.83894 21.5463 8.81992C21.2991 8.81992 21.1136 8.87699 20.9329 9.06247C19.9297 10.1087 18.9026 11.1312 17.8993 12.1775C17.7757 12.3059 17.5475 12.4248 17.6426 12.6673C17.7424 12.9194 17.9802 12.829 18.1609 12.829C19.5635 12.8386 20.971 12.829 22.3737 12.829L22.3784 12.8338ZM18.0372 15.3211C17.1481 15.3163 16.2542 15.3353 15.365 15.3068C14.9513 15.2925 14.6233 15.4257 14.3713 15.7158C13.5106 16.7098 12.5597 17.6181 11.642 18.555C11.5374 18.6644 11.371 18.788 11.4233 18.9402C11.4851 19.1162 11.6943 19.0686 11.8417 19.0686C14.9894 19.0924 18.1323 19.1542 21.2753 19.3302C21.4465 19.3397 21.6557 19.4015 21.7841 19.2541C22.2072 18.7738 22.8587 18.3695 22.9252 17.737C22.9728 17.2757 22.3499 16.9808 21.9838 16.6527C21.8411 16.5243 21.7175 16.3721 21.5701 16.2437C21.4132 16.1058 21.3038 15.9583 21.3371 15.7348C21.3894 15.3734 21.1945 15.3068 20.8854 15.3116C19.9344 15.3211 18.9835 15.3116 18.0325 15.3116L18.0372 15.3211ZM44.2554 21.2135C43.5184 22.2027 42.8528 23.1063 42.1728 24.0051C42.0111 24.2191 41.8733 24.5045 41.5547 24.4997C41.0744 24.4902 41.0744 24.7708 41.1077 25.1227C41.179 25.8836 41.3217 26.6446 41.4691 27.3817C41.7021 28.5754 41.8685 29.7834 42.1681 30.9676C42.2156 31.153 42.1157 31.4527 42.3107 31.5002C42.5722 31.562 42.6673 31.2672 42.7909 31.0627C43.4756 29.9118 44.1318 28.7419 44.8688 27.6243C45.2254 27.0821 45.2207 26.5495 45.078 25.9978C45.0019 25.6887 44.9259 25.3843 44.9068 25.0704C44.8403 24.086 44.5645 23.1253 44.5883 22.1313C44.5978 21.8317 44.4218 21.5797 44.2554 21.2182V21.2135ZM24.8462 23.9718C24.8462 23.9718 24.8462 23.9576 24.8462 23.9528C25.5784 23.9528 26.3107 23.9528 27.0429 23.9528C27.3329 23.9528 27.5897 23.8577 27.5469 23.52C27.4138 22.5261 27.2474 21.5369 27.0905 20.5429C27.0524 20.2861 26.9003 20.1957 26.6387 20.1862C25.2551 20.1387 23.8714 20.0911 22.4878 20.015C22.0075 19.9865 21.8506 20.1149 21.8411 20.6333C21.8221 21.6272 22.1312 22.5784 22.1644 23.5628C22.1787 23.9338 22.4688 23.9766 22.7683 23.9766C23.4625 23.9766 24.152 23.9766 24.8462 23.9766V23.9718ZM37.8174 14.8978C39.6955 14.8978 41.5737 14.8978 43.4471 14.8978C44.0034 14.8978 44.7214 14.3794 44.8878 13.8896C44.9639 13.6613 44.8308 13.5376 44.6358 13.5091C44.4028 13.4711 44.1651 13.4806 43.9273 13.4758C41.2218 13.4616 38.5116 13.5281 35.8061 13.4045C34.3654 13.3379 33.1814 13.8753 31.9547 14.427C31.8358 14.4793 31.5838 14.4745 31.6551 14.7076C31.7074 14.8788 31.9071 14.874 32.064 14.8835C32.24 14.893 32.4206 14.893 32.5966 14.893C34.3368 14.893 36.0723 14.893 37.8126 14.893L37.8174 14.8978ZM44.6406 18.9783C44.574 18.2554 44.322 17.5658 44.2792 16.8334C44.2507 16.3673 43.9464 16.3055 43.6373 16.6955C42.8575 17.6609 42.1158 18.6596 41.3502 19.6346C41.1553 19.8866 40.9318 20.1054 41.0316 20.4716C41.2266 21.1802 41.393 21.9031 41.607 22.6069C41.7591 23.111 41.8875 23.1301 42.2204 22.6973C42.9526 21.7366 43.6516 20.7474 44.3933 19.7963C44.593 19.5394 44.6643 19.2874 44.6406 18.983V18.9783ZM34.6934 11.7352C34.3273 11.2549 33.9041 11.0123 33.5142 10.7745C32.801 10.3418 32.026 10.1753 31.2605 10.7317C30.281 11.4404 29.3918 12.2488 28.4884 13.043C28.2316 13.2713 28.3505 13.5139 28.5597 13.6328C28.8925 13.8182 29.1303 14.1036 29.4251 14.3271C29.7769 14.5982 30.0194 14.5744 30.357 14.3081C31.6646 13.2618 32.9722 12.206 34.6982 11.7352H34.6934ZM29.1303 14.679C28.65 14.232 28.3077 13.5947 27.5659 13.6375C26.0777 13.7279 24.5704 13.5329 23.0964 13.9419C22.4545 14.1179 21.9315 14.7123 21.8459 15.5398C21.8031 15.9536 22.3309 16.7193 22.7921 16.881C22.987 16.9475 23.1725 16.9 23.1915 16.6717C23.2248 16.2247 23.5576 16.0249 23.8762 15.849C24.7986 15.3496 25.7876 15.069 26.8384 15.0072C27.5992 14.9644 28.3315 14.7028 29.135 14.679H29.1303ZM48.026 16.1391C47.6646 16.6337 47.3984 17.095 47.037 17.4612C46.495 18.0033 46.4236 18.6216 46.5948 19.3017C46.6852 19.6488 46.7517 19.996 46.7517 20.3527C46.7517 21.2848 47.1036 22.1741 47.0703 23.1063C47.0703 23.2157 47.0513 23.3821 47.1987 23.3916C47.289 23.3916 47.4174 23.2965 47.4745 23.2061C47.6314 22.9588 47.7265 22.664 47.9024 22.4357C48.6394 21.475 49.1814 20.4811 48.6774 19.2208C48.6489 19.1495 48.6679 19.0591 48.6441 18.9878C48.3541 18.0937 48.5253 17.0997 48.026 16.1343V16.1391ZM23.4863 13.3522C23.3008 13.1477 23.1534 13.181 23.0203 13.181C21.2991 13.1715 19.5731 13.2 17.8566 13.1477C17.1528 13.1239 16.6488 13.3712 16.2209 13.8801C16.121 13.999 16.0117 14.1131 15.9071 14.232C15.7787 14.3747 15.5457 14.4936 15.6313 14.7076C15.7121 14.9121 15.9641 14.893 16.1591 14.893C17.7805 14.893 19.4066 14.8978 21.028 14.893C21.2658 14.893 21.5558 14.8883 21.6652 14.6505C22.0218 13.8896 22.7255 13.6233 23.4863 13.3522ZM46.2525 14.056C46.1431 14.7646 46.5758 15.3924 46.5377 16.0915C46.5282 16.2294 46.6186 16.3578 46.785 16.3816C46.9181 16.3959 46.9847 16.3245 47.0655 16.2152C47.7074 15.3068 48.3493 14.4032 49.015 13.5139C49.1719 13.2999 49.2385 13.0716 49.1624 12.8528C48.9485 12.2631 48.9817 11.6496 48.9294 11.0456C48.9104 10.8411 48.958 10.57 48.6822 10.5035C48.4207 10.4416 48.3065 10.708 48.2019 10.8601C47.7169 11.5688 47.1654 12.2251 46.6091 12.8814C46.3143 13.2333 46.1193 13.5852 46.2525 14.056ZM46.7802 23.9623C46.5805 22.2312 46.4094 20.7284 46.2382 19.2303C46.2287 19.14 46.2525 19.0211 46.1431 18.9735C46.01 18.9164 45.9054 19.0115 45.834 19.0924C45.5678 19.4015 45.3633 19.7582 45.1113 20.0673C44.7832 20.4763 44.7594 20.8473 44.8165 21.3609C44.9163 22.2597 45.1684 23.1443 45.1588 24.0527C45.1493 24.6947 45.3728 25.2892 45.4204 25.9122C45.4441 26.1833 45.5678 26.2308 45.7437 26.0121C46.281 25.3415 46.766 24.6471 46.785 23.9671L46.7802 23.9623ZM32.8866 9.06247C32.8866 9.06247 32.8866 9.03869 32.8866 9.02442C32.3113 9.02442 31.7407 9.02918 31.1653 9.02442C30.8801 9.02442 30.6708 9.07197 30.4616 9.33354C29.7104 10.2799 28.9068 11.1835 28.1508 12.1252C27.9891 12.3297 27.5659 12.577 27.7656 12.7957C28.0747 13.1334 28.3267 12.6388 28.6073 12.5152C28.6738 12.4866 28.7119 12.401 28.7689 12.3487C29.62 11.545 30.533 10.8173 31.5077 10.1801C31.9214 9.90899 32.3113 9.84717 32.8248 10.0659C33.2432 10.2419 33.6046 10.765 34.0373 10.6033C34.47 10.4416 34.6506 9.88046 34.955 9.50475C35.2402 9.15282 35.0691 9.06722 34.722 9.06722C34.1086 9.06722 33.4952 9.06722 32.8866 9.06722V9.06247ZM46.2334 16.5433C46.3428 15.887 45.9291 15.2973 45.9624 14.641C45.9672 14.5031 45.9291 14.3604 45.7675 14.3081C45.5915 14.251 45.4917 14.3319 45.3776 14.4745C45.0733 14.874 44.7309 15.245 44.4266 15.6445C44.3648 15.7253 44.3363 15.887 44.3743 15.9821C44.6834 16.7335 44.6358 17.561 44.8926 18.3267C45.0019 18.6549 45.2587 18.6454 45.3633 18.4694C45.7199 17.8607 46.514 17.4421 46.2334 16.5433ZM28.4313 15.4209C28.2459 15.3639 28.1793 15.3306 28.108 15.3258C27.1332 15.2069 26.1775 15.4352 25.2503 15.654C24.7225 15.7824 24.1092 15.9251 23.7098 16.4101C23.5291 16.6289 23.4197 16.8857 23.5766 17.1092C23.7335 17.3375 24.0236 17.2376 24.2328 17.1473C25.5832 16.5576 27.0001 16.1343 28.4313 15.4209ZM31.0132 14.1179C31.3128 14.2986 31.4839 14.2082 31.6599 14.1321C32.7963 13.6328 33.9327 13.1287 35.0738 12.6293C35.226 12.5627 35.4637 12.596 35.4067 12.3249C35.3544 12.0919 35.1452 12.1204 34.974 12.1157C34.8171 12.1157 34.6554 12.1157 34.508 12.1585C33.2337 12.5484 32.1781 13.3284 31.0132 14.1179Z" fill="black"/>
</svg>
