<svg width="60" height="42" viewBox="0 0 60 42" fill="none" xmlns="http://www.w3.org/2000/svg">
<path d="M35.7267 16.69C34.2661 16.69 32.9036 16.69 31.5411 16.69C29.8448 16.69 30.049 16.5624 30.0333 18.1742C30.0196 19.6035 29.9646 19.5878 31.4095 19.5721C32.3794 19.5623 33.3492 19.5819 34.3191 19.5662C34.7235 19.5583 34.8806 19.6899 34.8649 20.1139C34.8354 20.9169 34.857 21.7238 34.857 22.5974H43.3795C43.3088 22.8468 43.2911 23.0176 43.2146 23.1589C42.1093 25.2144 40.9941 27.266 39.8888 29.3216C39.8083 29.4727 39.7907 29.6553 39.7121 29.8085C39.3941 30.4288 38.9877 30.7685 38.1788 30.7567C35.1731 30.7057 32.1674 30.739 29.1616 30.7822C26.576 30.8195 23.9924 30.8961 21.4088 30.9982C20.8316 31.0217 20.5214 30.8176 20.2603 30.3366C19.2865 28.5441 18.2833 26.7674 17.2899 24.9847C16.8776 24.2446 16.4653 23.5045 16 22.672C16.3279 22.6387 16.5517 22.5974 16.7775 22.5974C19.0332 22.5935 21.291 22.5955 23.5467 22.5935C24.0912 22.5935 24.3641 22.3115 24.3654 21.7474C24.3654 21.233 24.3733 20.7186 24.3654 20.2042C24.3576 19.7586 24.5519 19.5603 25.0094 19.5662C26.2168 19.5799 27.4242 19.5564 28.6315 19.576C29.1891 19.5858 29.4031 19.364 29.4011 18.8064C29.3854 16.4525 29.409 14.0966 29.3835 11.7426C29.3776 11.1733 29.5523 10.9887 30.1275 11.0005C31.81 11.0339 33.4926 11.0162 35.1751 11.0103C35.4794 11.0103 35.7346 11.0339 35.7346 11.4324C35.7326 13.1503 35.7346 14.8681 35.7346 16.69H35.7267ZM17.2781 23.4299C17.7002 24.1995 18.0771 24.8905 18.458 25.5776C19.1667 26.8518 19.899 28.1142 20.5822 29.4021C20.8885 29.9793 21.2517 30.2404 21.9545 30.2207C26.1598 30.101 30.3671 30.0323 34.5743 29.9557C35.7601 29.9341 36.9479 29.9321 38.1337 29.9341C38.5106 29.9341 38.756 29.8654 38.9602 29.4551C39.5983 28.1691 40.3207 26.9264 41.0039 25.6621C41.3868 24.9494 41.7539 24.2289 42.1701 23.4318H17.2761L17.2781 23.4299ZM34.0167 20.3554H33.2648C31.2466 20.3554 29.2284 20.3554 27.2102 20.3554C26.6761 20.3554 26.1402 20.3318 25.6081 20.375C25.4472 20.3868 25.1821 20.5714 25.1703 20.697C25.1213 21.2192 25.1487 21.7474 25.1487 22.3069H34.0167V20.3554Z" fill="black"/>
</svg>
