<svg width="60" height="42" viewBox="0 0 60 42" fill="none" xmlns="http://www.w3.org/2000/svg">
<path fill-rule="evenodd" clip-rule="evenodd" d="M15 20.9368C15.0098 29.3269 21.6998 36.0227 30.0015 35.9999C38.4267 35.9316 44.9543 29.483 44.9998 21.0669C45.0453 12.4947 38.2804 6.0721 29.995 6.00056C21.8363 5.92902 14.9903 12.7191 15 20.9368ZM29.93 35.239C22.4374 35.2 15.6953 29.1806 15.9 20.8588V20.8555C15.7636 13.002 22.3822 6.70949 30.047 6.76477C37.9848 6.82331 44.2557 13.272 44.1712 21.1515C44.0835 29.1155 37.6566 35.278 29.93 35.239ZM25.6873 16.8305C25.6472 17.1015 25.6056 17.3823 25.5637 17.6769L25.5565 17.6865C25.7529 17.6176 25.9176 17.5556 26.0629 17.5009C26.3236 17.4029 26.522 17.3282 26.7292 17.2788C28.049 16.9609 28.4973 17.3044 28.3036 18.5213C28.1709 19.34 28.1422 20.1363 28.4973 21C29.0066 20.0079 29.7059 19.7093 30.8249 20.0143C32.0155 20.3386 32.2666 20.1459 32.3742 18.9259C32.4172 18.4378 32.6109 18.2612 33.095 18.2195C33.3164 18.2001 33.539 18.1759 33.8313 18.1443C34.0221 18.1236 34.2425 18.0997 34.5116 18.0718C34.2685 17.8574 34.0526 17.6655 33.8543 17.4893C33.4587 17.1377 33.133 16.8483 32.8009 16.566C32.4136 16.2353 32.1984 16.049 32.8153 15.6156C33.0654 15.4403 33.3099 15.2583 33.5556 15.0755C34.2997 14.5217 35.0536 13.9606 36 13.5575C35.7228 13.4645 35.4595 13.3784 35.2068 13.2958C34.5607 13.0845 33.9845 12.8961 33.425 12.6745C33.26 12.6071 33.0699 12.2604 33.1273 12.1255C33.4716 11.3292 32.9229 10.899 32.3204 10.5651C31.517 10.1188 30.8571 10.1573 30.147 10.5876C29.9211 10.7256 29.731 10.9343 29.584 11.143C29.2971 11.5476 29.0532 11.4416 28.7735 11.143C28.6977 11.0609 28.6131 10.9845 28.5287 10.9084C28.4054 10.7972 28.2826 10.6864 28.1889 10.5587C28.1117 10.4495 28.0812 10.314 28.0506 10.178C28.037 10.118 28.0235 10.058 28.006 10C27.9964 10.0523 27.9905 10.1052 27.9845 10.1581C27.9725 10.2643 27.9606 10.3701 27.9199 10.4688C27.407 11.7402 26.1518 12.5044 24.6097 12.5204C24.4691 12.5204 24.3302 12.5781 24.1907 12.6361C24.1273 12.6624 24.0638 12.6888 24 12.7099C24.0392 12.775 24.0738 12.8446 24.1085 12.9142C24.1849 13.0676 24.2615 13.2213 24.3873 13.3295C24.5971 13.5126 24.8231 13.6787 25.049 13.8449C25.275 14.011 25.5009 14.1772 25.7107 14.3602C25.8542 14.4886 25.9617 14.7326 25.9438 14.9124C25.8797 15.5323 25.7881 16.1505 25.6873 16.8305Z" fill="black"/>
</svg>
