<svg width="60" height="42" viewBox="0 0 60 42" fill="none" xmlns="http://www.w3.org/2000/svg">
<path d="M38.9956 16.1211C38.9338 19.2658 37.9457 21.7358 35.7223 23.7192C34.5577 24.7579 33.1725 25.449 31.5756 25.7394C31.183 25.8089 31.0683 25.8907 31.3198 26.2628C31.8094 26.9907 31.6683 27.416 30.9095 27.8659C30.8124 27.9231 30.6978 28.0744 30.711 28.1685C30.8874 29.2972 30.3051 30.2214 29.7493 31.1292C29.2685 31.9103 28.8494 32.6709 28.9508 33.6074C28.9641 33.726 28.7611 33.8691 28.6597 34C28.5494 33.8691 28.3685 33.7465 28.3465 33.6033C28.2053 32.6955 28.4568 31.8735 28.9685 31.0924C29.3655 30.4872 29.7228 29.8492 30.0096 29.1949C30.1463 28.8841 30.1022 28.4916 30.0625 28.144C30.0493 28.0417 29.7802 27.9027 29.6125 27.8863C28.5053 27.78 28.1656 27.2525 28.6685 26.3732C28.9244 25.9234 28.8714 25.8457 28.3465 25.7435C26.2643 25.3263 24.61 24.2754 23.2822 22.7582C22.3293 21.6663 21.6544 20.4109 21.3456 19.0532C21.0059 17.5687 20.8427 16.0761 21.2044 14.518C21.6191 12.7309 22.3514 11.1442 23.6395 9.78656C24.9232 8.43296 26.4496 7.43105 28.4435 7.19386C28.8935 7.1407 29.339 7.00985 29.789 7.00167C31.7962 6.96486 33.6004 7.53738 35.1621 8.70286C36.9531 10.0401 38.0516 11.8149 38.6736 13.831C38.9294 14.6652 38.925 15.5649 39 16.1292L38.9956 16.1211ZM21.7514 16.4032C21.6014 17.671 21.875 18.8773 22.3779 20.0019C23.5072 22.5292 25.3247 24.4226 28.3332 25.0687C30.5654 25.5472 32.6255 25.1464 34.4563 23.8787C36.3223 22.5823 37.4692 20.8607 37.9898 18.7383C38.4089 17.0248 38.3824 15.3236 37.8751 13.6592C37.3369 11.8885 36.3223 10.355 34.7298 9.1895C32.5329 7.58236 30.0581 7.20205 27.4598 8.02811C25.1747 8.75194 23.6086 10.3386 22.6161 12.3384C21.9808 13.6143 21.5838 14.9842 21.7514 16.4073V16.4032ZM29.9875 27.3997C30.3095 27.2116 30.711 27.1052 30.8389 26.8721C30.9845 26.6022 30.3625 26.0093 30.0228 26.0011C29.6434 25.9888 29.0699 26.5327 29.1979 26.9049C29.2685 27.1093 29.6743 27.2157 29.9831 27.3997H29.9875Z" fill="black"/>
</svg>
