<svg width="60" height="42" viewBox="0 0 60 42" fill="none" xmlns="http://www.w3.org/2000/svg">
<path fill-rule="evenodd" clip-rule="evenodd" d="M30.3991 9.27499L30.4039 9.27961C29.9405 9.01993 29.7257 8.95785 29.4628 9.02519V9.02981C29.4558 9.03204 29.4404 9.03615 29.4187 9.04196C29.3503 9.06022 29.2193 9.0952 29.0911 9.14083C28.1886 9.47853 27.2861 9.81622 26.3884 10.1632C24.6462 10.8293 22.9039 11.5001 21.1664 12.1708C20.9348 12.2603 20.7042 12.3523 20.4736 12.4443C20.0124 12.6283 19.5512 12.8123 19.0815 12.9757C19.0702 12.9797 19.0571 12.9819 19.0426 12.9826C18.2745 13.1264 18.0221 13.7109 18.017 14.0235C18.0174 14.0373 18.0176 14.0509 18.0178 14.0641C18.0757 18.4727 18.068 22.3571 18.0004 26.7657C17.9859 27.6307 18.3527 28.0378 19.0525 28.3894C20.4565 29.0906 21.8536 29.8026 23.2517 30.5152C23.9011 30.8461 24.5506 31.1771 25.2012 31.5072C25.485 31.6518 25.7686 31.7968 26.0522 31.9418C27.0756 32.465 28.0992 32.9883 29.1346 33.4918C29.3276 33.5843 29.6462 33.5889 29.8392 33.501C30.8527 33.0338 31.8469 32.5342 32.8363 32.0253C33.6665 31.5981 34.4944 31.1682 35.3221 30.7386C36.9676 29.8843 38.6118 29.0307 40.2687 28.1997C40.7996 27.9314 41.0168 27.64 41.0168 27.0571C40.9879 22.7596 40.9927 18.4621 41.0168 14.1692C41.0168 14.1514 41.0171 14.1334 41.0178 14.1154C41.0194 13.4821 40.6629 13.2499 39.8695 12.9215L39.844 12.911C38.8593 12.4932 37.846 12.1339 36.8334 11.7749C36.2876 11.5814 35.742 11.388 35.2012 11.1855C34.2826 10.8437 33.3694 10.4812 32.4575 10.1193C32.1477 9.99637 31.8381 9.87347 31.5284 9.75146C31.2828 9.65471 31.0371 9.54897 30.767 9.43266C30.6515 9.38295 30.5316 9.33132 30.4053 9.27763L30.3991 9.27499ZM29.0477 32.6637C29.0624 32.5806 29.076 32.5129 29.0876 32.4554C29.1102 32.3433 29.1249 32.2699 29.1249 32.1965C29.1249 31.2486 29.1254 30.3006 29.1259 29.3527L29.1259 29.347C29.1275 26.0224 29.1292 22.6979 29.1104 19.3734C29.1104 19.1884 28.9126 18.9154 28.734 18.8322C28.1026 18.5311 27.459 18.2516 26.8151 17.9719C26.4696 17.8219 26.1241 17.6718 25.7803 17.5184C25.3478 17.325 24.9152 17.132 24.4825 16.939C22.752 16.167 21.0216 15.3951 19.3035 14.5994C18.7823 14.3589 18.6809 14.5809 18.6809 14.9788L18.6809 14.9812C18.6761 18.9494 18.6713 22.913 18.6954 26.8813C18.6954 27.1219 18.874 27.441 19.0767 27.5891C19.3034 27.7506 19.5651 27.8655 19.8286 27.9812C19.9801 28.0477 20.1321 28.1144 20.2784 28.1904C21.0834 28.6042 21.8877 29.0185 22.6918 29.4328L22.6938 29.4338C24.0199 30.1171 25.3456 30.8001 26.6732 31.4795C27.1655 31.732 27.6619 31.9805 28.1809 32.2404L28.1819 32.2409C28.4614 32.3809 28.7474 32.5241 29.0429 32.673L29.0477 32.6637ZM40.1529 14.382C40.0214 14.4458 39.9012 14.5052 39.7884 14.5609C39.5329 14.6872 39.3155 14.7946 39.0911 14.8909C38.487 15.1548 37.8813 15.4179 37.2753 15.6812C36.3516 16.0826 35.4271 16.4842 34.5062 16.8893C33.7024 17.2418 32.9023 17.5996 32.1024 17.9572C31.6008 18.1815 31.0992 18.4057 30.5969 18.6286C30.1626 18.8183 29.8682 19.0311 29.873 19.5955C29.893 22.4486 29.8923 25.3018 29.8915 28.155V28.159C29.8911 29.4262 29.8908 30.6934 29.8923 31.9606C29.8923 32.1031 29.9183 32.2455 29.947 32.4033C29.9612 32.4811 29.9761 32.5627 29.9888 32.6498C30.559 32.3618 31.12 32.0805 31.674 31.8027C32.7659 31.2553 33.8309 30.7212 34.8875 30.175C35.5085 29.8557 36.1251 29.5273 36.7419 29.1988C37.7069 28.6848 38.6724 28.1706 39.6558 27.6908C40.1288 27.4595 40.2446 27.1959 40.2446 26.7564C40.2422 24.8204 40.2422 22.8845 40.2422 20.9485V20.9439C40.2422 19.0095 40.2422 17.0751 40.2398 15.1407C40.2398 14.9989 40.2201 14.8571 40.1971 14.6912C40.184 14.5973 40.1699 14.4957 40.1577 14.382H40.1529ZM39.8344 13.7251C39.7011 13.6637 39.5826 13.6062 39.4731 13.5531C39.2692 13.4542 39.0963 13.3704 38.9174 13.3042C38.3657 13.0972 37.813 12.8947 37.2606 12.6923C36.5664 12.438 35.8726 12.1838 35.1819 11.921C34.5086 11.6662 33.8369 11.4071 33.1649 11.1479C32.117 10.7437 31.0686 10.3393 30.0129 9.95037C29.733 9.8486 29.3517 9.82547 29.0767 9.92262C28.0535 10.2779 27.0427 10.6687 26.0319 11.0595C25.7792 11.1572 25.5265 11.2549 25.2736 11.352C24.5839 11.6144 23.8958 11.8796 23.2082 12.1444L23.2072 12.1448C22.6344 12.3655 22.0621 12.586 21.4898 12.8046C21.0097 12.9881 20.5295 13.1657 20.0481 13.3438C19.7891 13.4396 19.5297 13.5355 19.2697 13.6326C19.2745 13.6881 19.2794 13.7436 19.289 13.8038C19.8115 14.0369 20.3329 14.27 20.8542 14.5031L20.8575 14.5046L20.8609 14.5061C21.3822 14.7392 21.9036 14.9723 22.4261 15.2054C22.9991 15.4608 23.5721 15.7168 24.1453 15.9728C25.8459 16.7325 27.5479 17.4927 29.2552 18.2401C29.4 18.3048 29.6365 18.2678 29.7958 18.203C31.7456 17.3657 33.6906 16.5238 35.6259 15.6634C36.5544 15.2497 37.4763 14.8233 38.4351 14.3799C38.8916 14.1687 39.3565 13.9537 39.8344 13.7344V13.7251Z" fill="black"/>
</svg>
