<svg width="60" height="42" viewBox="0 0 60 42" fill="none" xmlns="http://www.w3.org/2000/svg">
<path fill-rule="evenodd" clip-rule="evenodd" d="M28.3517 31.559C29.6528 31.5067 30.9541 31.4544 32.2547 31.4544C32.9007 31.4544 33.5469 31.4538 34.1932 31.4532C35.9711 31.4516 37.7499 31.45 39.5286 31.4605C39.9836 31.4647 40.2533 31.3 40.451 30.8902C40.9204 29.9205 41.4083 28.957 41.9189 28.0079C42.4399 27.0418 42.9717 26.0821 43.5035 25.1221C43.7787 24.6253 44.054 24.1285 44.3278 23.6307C44.5975 23.1407 44.4987 22.9698 43.9263 22.941C43.6868 22.9291 43.4463 22.9312 43.2062 22.9333C43.114 22.934 43.0218 22.9348 42.9298 22.9348C42.3795 22.9348 41.8294 22.9345 41.2793 22.9341C39.6293 22.9329 37.9798 22.9318 36.3291 22.941C35.835 22.9451 35.5488 22.8484 35.5962 22.2554C35.6248 21.9112 35.6184 21.565 35.6121 21.2187C35.607 20.9416 35.6019 20.6644 35.6147 20.388C35.6374 19.8672 35.4109 19.6942 34.9127 19.7024C34.3158 19.7113 33.719 19.7093 33.1221 19.7073C32.4733 19.7052 31.8246 19.703 31.1758 19.7148C30.692 19.723 30.5047 19.5624 30.5438 19.0642C30.585 18.5495 30.587 18.0245 30.5438 17.5098C30.5361 17.4175 30.5361 17.3365 30.5438 17.2655V15.4943C30.543 15.4693 30.543 15.4432 30.5438 15.4159C30.5661 14.536 30.5598 13.6574 30.5535 12.778C30.5522 12.6018 30.551 12.4256 30.55 12.2494L30.5535 11.0017C30.0306 10.9935 29.8602 10.9976 29.8644 11.5144C29.8759 12.676 29.8749 13.838 29.8738 15.0001C29.8727 16.3282 29.8715 17.6564 29.8891 18.9839C29.8973 19.581 29.6914 19.7292 29.1376 19.7148C28.2783 19.6931 27.4179 19.6978 26.5572 19.7026C26.1931 19.7046 25.8288 19.7066 25.4646 19.7066C24.8202 19.7066 24.6246 19.8919 24.6061 20.5445C24.5959 20.8802 24.598 21.2168 24.6002 21.5538C24.6011 21.6943 24.6019 21.8349 24.6019 21.9754C24.6019 22.6137 24.2821 22.9328 23.6425 22.9328C22.585 22.9347 21.5279 22.9344 20.4711 22.9341C19.2029 22.9338 17.935 22.9335 16.6671 22.9369C15.9033 22.939 15.8539 23.0398 16.2245 23.6822C16.505 24.1676 16.7739 24.6579 17.0431 25.1487C17.0743 25.2055 17.1054 25.2622 17.1366 25.319C17.3117 25.6373 17.487 25.9556 17.6622 26.2739C18.5559 27.8972 19.4499 29.521 20.3381 31.1476C20.6242 31.6726 21.0195 31.8991 21.6351 31.8455C22.7634 31.7488 23.8999 31.6726 25.0322 31.6603C26.1384 31.6479 27.245 31.6035 28.3517 31.559ZM17.4883 24.3758C17.3655 24.1582 17.2391 23.9342 17.1077 23.7007L17.1057 23.6987H43.2922C43.2173 23.8714 43.1485 24.0394 43.0815 24.2028C42.9387 24.5515 42.8043 24.8794 42.6375 25.1893C42.0136 26.3511 41.375 27.5042 40.7359 28.6583C40.5482 28.9972 40.3604 29.3362 40.173 29.6755C40.141 29.7335 40.1021 29.7892 40.0633 29.8445C39.9947 29.9423 39.9268 30.0392 39.8992 30.147C39.7777 30.6226 39.4648 30.7255 39.0221 30.7255C35.9183 30.7345 32.8145 30.7546 29.7107 30.7746C29.2671 30.7775 28.8235 30.7803 28.3799 30.7832C28.1453 30.7846 27.9106 30.7854 27.676 30.7861C26.8937 30.7887 26.1116 30.7913 25.3308 30.8182C25.2232 30.8218 25.1155 30.8252 25.0078 30.8287C24.0628 30.859 23.1159 30.8893 22.1807 31.0076C21.4066 31.1064 21.0195 30.7708 20.6881 30.1511C20.1109 29.0717 19.5146 28.0024 18.9182 26.9333C18.7104 26.5607 18.5027 26.1881 18.2957 25.8152C18.0357 25.3455 17.7717 24.8778 17.4883 24.3758ZM25.4336 21.0931C25.4306 20.9257 25.4275 20.7531 25.4275 20.5733H34.7253V22.7331C34.676 22.7381 34.6271 22.7443 34.5785 22.7505C34.4685 22.7645 34.3596 22.7784 34.2497 22.7784C33.3445 22.7797 32.4391 22.7793 31.5336 22.7788C29.7226 22.7779 27.9112 22.777 26.1008 22.7907C25.6005 22.7948 25.3761 22.6693 25.4193 22.134C25.4461 21.797 25.4401 21.4571 25.4336 21.0931Z" fill="black"/>
<path d="M30.5 11.3533L38 14.126L30.5 16.8533" stroke="black" stroke-width="0.7" stroke-linecap="round" stroke-linejoin="round"/>
</svg>
