<svg width="60" height="42" viewBox="0 0 60 42" fill="none" xmlns="http://www.w3.org/2000/svg">
<path d="M30.5046 35.9708C26.2641 36.2376 22.7193 34.6129 19.7235 31.7492C16.5857 28.7475 15.0239 24.9786 15.0002 20.6188C14.9576 11.9851 21.9289 5.00954 30.4762 5.00001C39.0566 4.99048 46.0658 12.0471 45.9995 20.7141C45.9664 25.0214 44.3573 28.7522 41.2763 31.7254C38.2947 34.6033 34.7451 36.2424 30.5046 35.9708ZM30.6892 35.4943C39.0614 35.3847 45.6304 28.433 45.3559 20.0899C45.0909 11.9136 38.4319 5.32878 29.9603 5.62419C21.8768 5.90055 15.5397 12.4473 15.6107 20.6998C15.6864 29.1811 22.5442 35.6134 30.6844 35.4943H30.6892Z" fill="black"/>
<path d="M35.1242 18.0245C37.0664 18.0245 39.014 18.0245 40.9561 18.0245C41.4788 18.0245 41.9189 18.2276 41.9849 18.6292C42.0455 18.9882 41.9189 19.4417 41.6878 19.744C41.5503 19.9282 41.0496 19.966 40.7085 19.966C37.622 19.9802 34.53 19.9755 31.4435 19.9755C30.798 19.9755 30.4752 20.2589 30.4752 20.8258C30.4752 23.457 30.4532 26.0883 30.4862 28.7195C30.4972 29.5556 29.936 30.0139 29.2868 29.9997C28.5386 29.9808 28.0049 29.4423 28.0049 28.6817C28.0049 25.5781 27.9884 22.4744 28.0159 19.3708C28.0269 18.4308 28.5056 17.9773 29.5619 18.0009C31.416 18.0434 33.2701 18.015 35.1187 18.015L35.1242 18.0245Z" fill="black"/>
</svg>
