<svg width="60" height="42" viewBox="0 0 60 42" fill="none" xmlns="http://www.w3.org/2000/svg">
<path d="M28.0396 8.71113C28.0396 7.88414 28.0521 7.24439 28.0365 6.60464C28.0208 5.94929 28.3331 5.63097 28.9482 5.39691C30.7124 4.72908 32.4517 3.99571 34.1909 3.26857C35.0278 2.92217 35.8428 2.90657 36.6827 3.24673C38.475 3.9801 40.2673 4.71972 42.0753 5.4094C42.8091 5.69026 43.0183 6.20519 43.0152 6.91047C43.0089 8.79852 43.0152 10.6866 43.0152 12.5777C43.0152 12.9647 43.0152 13.3517 43.0152 13.7355C43.0152 14.3784 43.1557 14.9089 43.877 15.1336C44.5639 15.3489 44.6795 15.9169 44.6732 16.5723C44.6545 18.891 44.6795 21.2097 44.6576 23.5253C44.6514 24.1837 44.6951 24.7299 45.5194 24.8141C45.6693 24.8297 45.7942 25.0482 45.9503 25.0763C47.8207 25.4039 48.0861 26.646 47.98 28.2906C47.8582 30.1724 47.9581 32.0667 47.9487 33.9547C47.9425 35.0283 47.7676 35.203 46.7778 35.6119C45.2197 36.2547 43.6834 36.9507 42.1346 37.6216C40.9574 38.1334 39.7521 38.1116 38.5874 37.6435C36.9856 36.9975 35.4181 36.2672 33.8287 35.59C31.2495 34.4884 28.6703 33.3836 26.0786 32.3132C24.5111 31.6672 22.903 31.1211 21.3386 30.4689C18.7719 29.4016 16.2271 28.2813 13.6697 27.1984C13.0515 26.9362 12.4207 26.6897 11.7775 26.4931C11.2373 26.3277 11.0031 25.9875 11 25.457C11 22.795 11 20.133 11 17.4742C11 17.0903 11.1405 16.8531 11.5277 16.7002C12.3458 16.3788 13.1264 15.97 13.9477 15.6548C14.7314 15.3552 14.9562 15.1274 14.9687 14.2723C14.9875 13.1145 14.9968 11.9536 14.9687 10.7958C14.95 10.0811 15.0999 9.60366 15.8805 9.33216C17.3106 8.83284 18.7001 8.2087 20.1021 7.63136C20.4893 7.4722 20.9077 7.35049 21.2419 7.11332C22.2598 6.39243 23.2153 6.73571 24.2082 7.16013C25.401 7.67193 26.6157 8.13068 28.0333 8.69865L28.0396 8.71113ZM41.2385 16.0646C39.6149 16.606 38.5968 17.2651 37.2167 17.7488C37.4196 17.8798 37.6351 17.9828 37.7881 17.9235C38.9247 17.4835 40.0519 17.0185 41.1729 16.5411C41.151 16.6659 41.2353 16.513 41.1729 16.5411C41.6756 16.5691 42.272 16.332 42.6342 15.7983C42.1565 15.8545 41.6577 15.7983 41.2385 16.0646ZM18.213 24.1993C18.213 23.2132 18.2005 22.2302 18.2193 21.244C18.2286 20.779 18.1537 20.4482 17.6541 20.236C15.996 19.537 14.3661 18.7661 12.7018 18.0702C12.1023 17.8174 11.687 18.1139 11.6807 18.7474C11.6588 20.6729 11.6526 22.6015 11.6838 24.527C11.6963 25.251 12.0398 25.7472 12.8048 26.0281C14.338 26.5867 15.8337 27.2577 17.345 27.8787C17.9632 28.1315 18.188 27.9941 18.2036 27.2795C18.2286 26.2528 18.2099 25.2229 18.2099 24.1962L18.213 24.1993ZM16.1428 10.6335C16.0741 10.8332 15.9742 10.9893 15.971 11.1453C15.9554 13.3735 15.9554 15.6048 15.9461 17.833C15.9461 18.2294 16.1272 18.4166 16.5019 18.5758C18.1287 19.2717 19.7243 20.0425 21.3574 20.726C21.9413 20.9725 22.3098 20.6542 22.316 19.9583C22.3347 18.0296 22.3223 16.0979 22.3254 14.1693C22.3254 13.5046 22.0818 13.0895 21.4011 12.8274C19.6744 12.1627 17.982 11.4074 16.1428 10.6335ZM26.5689 23.8561C26.4877 24.2243 26.3878 24.4646 26.3878 24.708C26.3753 26.7209 26.4034 28.7369 26.369 30.7498C26.3534 31.5643 26.8967 31.8639 27.4744 32.1166C28.3955 32.5161 29.3261 32.9062 30.2847 33.1933C31.0341 33.418 31.6492 34.1233 32.6921 33.8268C32.6921 31.5112 32.714 29.1675 32.6609 26.8239C32.6547 26.5524 32.2643 26.1716 31.9677 26.0437C30.2285 25.2978 28.4642 24.6144 26.5751 23.8561H26.5689ZM28.6891 10.8956H28.6859C28.6859 11.7975 28.7265 12.6994 28.6734 13.5951C28.6297 14.3097 28.9482 14.7404 29.554 14.9932C30.9466 15.5705 32.3393 16.1478 33.7444 16.6877C34.7936 17.0903 34.9965 16.9343 35.009 15.7515C35.0246 13.9945 34.9778 12.2344 35.0278 10.4775C35.0496 9.6536 34.6905 9.21669 33.9817 8.92022C32.6952 8.3897 31.4275 7.81548 30.1441 7.28184C29.9131 7.18509 29.6414 7.18197 29.3885 7.15077C28.9045 7.09459 28.6766 7.29744 28.6859 7.803C28.7016 8.83284 28.6922 9.86269 28.6922 10.8894L28.6891 10.8956ZM33.7538 26.8644C33.81 29.7449 33.6445 32.332 33.8475 34.7131C35.9708 35.5869 37.8911 36.3764 39.9551 37.2284C39.9551 34.7037 39.9489 32.307 39.9582 29.9103C39.9582 29.3017 39.4461 29.1207 39.0808 28.9553C37.9661 28.4498 36.7982 28.0534 35.6523 27.6134C35.1121 27.4043 34.5719 27.189 33.7538 26.8676V26.8644ZM19.0748 20.7759C19.0748 23.3911 19.0623 25.7847 19.0967 28.1751C19.0967 28.3842 19.3715 28.6838 19.5932 28.7806C20.8828 29.3517 22.1942 29.8759 23.4932 30.419C24.0178 30.6374 24.5392 30.8652 25.0919 31.1024C25.1762 30.834 25.2449 30.7154 25.2449 30.5937C25.2543 28.4061 25.2449 26.2184 25.2605 24.0339C25.2637 23.4878 25.0701 23.2225 24.5111 23.0447C23.7524 22.8044 23.0623 22.355 22.3191 22.0429C21.3262 21.6247 20.3113 21.2565 19.0717 20.7728L19.0748 20.7759ZM36.5672 26.6741C36.6077 26.0312 36.6483 25.6973 36.6483 25.3634C36.6546 23.6064 36.6609 21.8463 36.6421 20.0893C36.639 19.668 36.6577 19.1656 36.4423 18.8504C36.2768 18.607 35.7647 18.6039 35.415 18.4728C35.2588 18.4166 35.1308 18.2887 34.9778 18.2262C33.5352 17.652 32.0895 17.0841 30.5907 16.4911C30.5282 16.7782 30.4595 16.9405 30.4595 17.1028C30.4502 19.203 30.4658 21.3064 30.4377 23.4067C30.4283 24.0807 30.7999 24.4115 31.3307 24.6394C32.2675 25.0388 33.2073 25.432 34.1535 25.8003C34.8904 26.0874 35.6429 26.3402 36.5672 26.6741ZM23.6306 13.5608C23.5588 13.8135 23.437 14.0476 23.437 14.2848C23.4214 16.3881 23.4276 18.4915 23.4183 20.5949C23.4183 21.0256 23.5525 21.2721 23.9928 21.4562C25.5884 22.1303 27.1497 22.8886 28.7453 23.5689C29.2605 23.7905 29.5977 23.5533 29.604 23.0041C29.6258 20.9007 29.6227 18.7973 29.604 16.694C29.5977 16.2009 29.3916 15.8795 28.8327 15.6735C27.0997 15.0369 25.4073 14.2941 23.6337 13.5639L23.6306 13.5608ZM29.7101 6.1927C31.3994 6.92607 32.7358 7.53774 34.0973 8.08699C34.9029 8.41154 35.7616 8.49893 36.5984 8.15877C38.0379 7.57207 39.468 6.9604 40.9949 6.32065C40.7513 6.06475 40.6139 5.80885 40.4079 5.72147C38.8247 5.06612 37.2354 4.42013 35.6242 3.83343C35.3432 3.73044 34.9403 3.85527 34.6312 3.97074C33.8506 4.25785 33.0793 4.5824 32.3206 4.92569C31.5274 5.28457 30.7562 5.68402 29.7101 6.19582V6.1927ZM28.0084 9.77218C26.5345 9.10123 25.1981 8.37409 23.7805 7.8935C23.0623 7.65008 22.1349 7.66881 21.4042 7.8935C20.124 8.29295 18.9187 8.93583 17.6916 9.49756C17.5292 9.57246 17.2731 9.80339 17.3012 9.87205C17.3793 10.0843 17.5385 10.3308 17.7321 10.4244C18.1443 10.6241 18.6065 10.7084 19.0311 10.8832C20.0459 11.3076 21.0326 11.7975 22.0631 12.1783C22.3878 12.2969 22.8406 12.2344 23.1809 12.1096C24.5673 11.5947 25.9381 11.0423 27.2933 10.4556C27.5649 10.337 27.7554 10.0218 28.0115 9.76906L28.0084 9.77218ZM45.9941 26.2621C44.795 25.3041 43.6303 24.9514 42.3532 25.9126C42.2626 25.9813 42.0972 25.9438 41.9785 25.9906C40.8481 26.4338 39.7209 26.8832 38.5781 27.3357C39.1807 28.25 40.0051 28.6339 40.8138 28.3249C42.5343 27.6665 44.2392 26.9643 45.9909 26.2621H45.9941ZM24.4924 12.534C24.6735 12.7993 24.7672 13.102 24.9545 13.1769C25.91 13.5576 26.8874 13.8759 27.8741 14.2255C28.1114 12.8149 28.0927 12.3062 27.7617 11.3294C26.7063 11.7195 25.6509 12.1096 24.4924 12.5372V12.534ZM12.6175 17.1153C13.4605 17.4523 14.1225 17.7176 14.8969 18.0296V16.1291C14.1069 16.4724 13.4574 16.7533 12.6175 17.1153Z" fill="black"/>
</svg>
