<svg width="60" height="42" viewBox="0 0 60 42" fill="none" xmlns="http://www.w3.org/2000/svg">
<path d="M30.0109 26.9953C28.4045 26.9953 26.7982 27 25.1918 26.9953C24.325 26.9905 24.0047 26.6489 24 25.7805C24 22.5825 24 19.3844 24 16.1863C24 15.3844 24.3392 15.0048 25.0411 15C25.6393 14.9953 26.0869 15.503 26.0916 16.2242C26.0963 18.8909 26.0916 21.5528 26.0916 24.2195C26.0916 25.0071 26.1151 25.0261 26.8735 25.0308C29.4974 25.0308 32.126 25.0214 34.7499 25.0451C35.089 25.0451 35.5083 25.1637 35.7344 25.3867C35.937 25.586 36.0547 26.0463 35.9747 26.3215C35.8663 26.6916 35.546 27 35.0655 27C33.3791 26.9953 31.6973 27 30.0109 27L30.0109 26.9953Z" fill="black"/>
</svg>
