<svg width="464" height="352" viewBox="0 0 464 352" fill="none" xmlns="http://www.w3.org/2000/svg">
<path d="M358.69 145.561C329.349 146.174 304.59 121.107 304.767 91.3557C304.93 62.0948 329.281 37.5859 358.758 37.5723C388.357 37.5723 413.062 62.231 412.763 92.1727C412.477 121.134 388.575 146.12 358.69 145.561ZM358.975 39.9006C330.056 39.2879 307.092 63.5109 306.928 90.9745C306.752 120.753 330.341 143.805 359.057 143.601C387.705 143.396 410.683 120.93 410.696 91.3421C410.696 63.6334 388.398 39.7645 358.975 39.887V39.9006Z" fill="black"/>
<path d="M105.66 206.303C121.474 206.303 137.288 206.303 153.102 206.303C157.156 206.303 159.425 208.641 159.425 212.819C159.425 244.484 159.385 276.136 159.492 307.801C159.492 311.108 156.364 314.262 153.236 314.262C121.394 314.179 89.5372 314.193 57.6943 314.262C54.6604 314.262 51.4788 311.426 51.4922 307.954C51.5862 276.178 51.5996 244.401 51.4922 212.625C51.4922 209.001 54.4993 206.234 57.7212 206.262C73.6963 206.4 89.6849 206.317 105.66 206.317V206.303ZM105.485 208.6C89.4969 208.6 73.5218 208.6 57.5332 208.6C54.9826 208.6 53.8415 209.734 53.8415 212.293C53.8415 244.305 53.8415 276.316 53.8415 308.327C53.8415 310.527 55.1705 311.855 57.3587 311.855C89.3224 311.855 121.3 311.827 153.263 311.91C155.586 311.91 157.21 310.153 157.197 307.774C157.116 276.108 157.143 244.443 157.143 212.778C157.143 209.568 156.203 208.6 153.102 208.6C137.234 208.6 121.353 208.6 105.485 208.6Z" fill="black"/>
<path d="M104.468 258.767C104.522 257.775 104.59 257.001 104.59 256.226C104.59 246.891 104.59 237.569 104.59 228.234C104.59 225.435 106.194 223.791 108.593 224.022C110.426 224.198 111.949 225.924 111.963 228.152C112.003 239.404 112.03 250.655 111.936 261.906C111.922 263.971 110.682 266.023 107.609 265.996C96.4478 265.915 85.2867 265.969 74.112 265.955C71.6587 265.955 69.9603 264.433 70.0007 262.368C70.0411 260.316 71.8744 258.781 74.2603 258.781C83.6287 258.781 92.997 258.781 102.365 258.781C102.972 258.781 103.592 258.781 104.455 258.781L104.468 258.767Z" fill="black"/>
<path d="M104.915 145.569C75.37 145.95 51.139 121.167 51.1797 91.5913C51.2205 62.1786 75.3428 37.4638 105.485 37.5864C134.568 37.6953 159.193 61.7701 159.18 91.6866C159.18 121.208 134.65 146.332 104.928 145.569H104.915ZM105.513 39.9013C76.8105 39.2204 53.5852 63.4042 53.4221 91.0466C53.2454 120.541 76.7698 143.703 105.254 143.622C133.848 143.54 156.869 120.936 157.087 91.8092C157.291 63.7174 134.337 39.6017 105.513 39.9013Z" fill="black"/>
<path d="M90.603 98.7083C85.0927 98.7083 79.569 98.7897 74.0588 98.6405C72.8945 98.6133 71.4864 98.0571 70.7012 97.2431C70.0378 96.5512 69.74 95.0589 69.9566 94.055C70.268 92.6034 71.4052 91.6266 73.0975 91.6266C77.1456 91.6266 81.1801 91.5724 85.2281 91.5724C91.0091 91.5724 96.8036 91.5724 102.585 91.6131C104.114 91.6266 104.466 90.8805 104.453 89.5103C104.412 79.9188 104.439 70.3273 104.439 60.7358C104.439 59.0807 104.832 57.5206 106.565 57.0186C110.085 56.0147 111.331 57.7241 111.859 60.7494C111.913 61.0207 111.872 61.3192 111.872 61.5905C111.872 72.1995 111.899 82.8084 111.845 93.4038C111.845 95.4931 111.52 97.5959 109.11 98.4099C108.542 98.5998 107.905 98.6676 107.31 98.6676C101.732 98.6812 96.1673 98.6676 90.5894 98.6676L90.603 98.7083Z" fill="black"/>
<path d="M441.15 218.016H293.121V329.453H441.15V218.016Z" fill="white"/>
<path fill-rule="evenodd" clip-rule="evenodd" d="M437.638 221.325H296.391V326.112H437.638V221.325ZM441.029 218V329.438H293V218H441.029Z" fill="#0070F3"/>
<path d="M357.954 285.857C357.988 274.129 360.97 270.494 366.476 266.96C370.81 264.195 374.104 261.497 374.104 257.272C374.104 253.047 370.843 250.416 366.755 250.416C362.667 250.416 358.959 253.326 358.848 258.131H342.898C343.111 243.593 353.855 237.127 366.889 237.127C381.174 237.127 391.539 243.905 391.539 256.47C391.539 264.742 387.138 269.758 380.482 273.66C375.244 276.771 372.719 279.714 372.719 285.835V287.25H357.954V285.835V285.857ZM356.603 300.974C356.536 296.058 360.623 292.078 365.616 292.078C370.608 292.078 374.562 296.058 374.629 300.974C374.562 305.958 370.363 309.971 365.616 309.971C360.623 309.971 356.536 305.958 356.603 300.974Z" fill="#0070F3"/>
</svg>
