<svg width="464" height="352" viewBox="0 0 464 352" fill="none" xmlns="http://www.w3.org/2000/svg">
<path d="M187.849 271.065C187.849 262.712 187.849 254.358 187.849 246.005C187.849 244.038 188.471 243.347 190.24 242.682C194.685 241.014 199.089 239.238 203.506 237.529C206.505 236.376 209.518 235.278 212.516 234.125C215.313 233.04 218.082 231.915 220.865 230.803C223.134 229.908 225.336 228.66 227.687 228.226C229.429 227.901 231.469 228.335 233.185 228.959C239.75 231.372 246.234 233.99 252.732 236.58C257.528 238.492 262.283 240.472 267.065 242.411C267.376 242.533 267.713 242.574 268.038 242.669C270.429 243.36 270.982 244.093 270.982 246.547C270.982 263.024 270.928 279.514 271.05 295.991C271.063 298.106 270.064 298.974 268.524 299.774C265.403 301.401 262.283 303.042 259.176 304.697C255.029 306.907 250.881 309.118 246.734 311.342C243.573 313.037 240.412 314.732 237.251 316.427C234.873 317.702 232.523 319.017 230.118 320.224C229.7 320.441 228.997 320.441 228.592 320.224C221.378 316.373 214.219 312.454 207.018 308.575C203.02 306.433 199.008 304.331 194.996 302.215C193.185 301.266 191.389 300.303 189.565 299.394C188.322 298.771 187.836 297.876 187.836 296.452C187.89 287.99 187.863 279.528 187.863 271.052L187.849 271.065ZM222.337 302.039C221.635 300.479 221.108 298.798 220.176 297.374C218.933 295.448 216.772 295.611 215.705 297.482C214.016 300.439 215.272 304.643 217.285 306.541C218.595 307.775 220.135 307.64 221.041 306.053C221.662 304.954 221.851 303.598 222.337 302.052V302.039ZM211.03 297.116C210.666 295.014 210.409 292.804 208.518 291.244C207.194 290.159 205.681 290.227 204.776 291.678C203.249 294.146 203.763 296.709 204.816 299.191C205.424 300.601 206.546 301.523 208.14 301.537C209.639 301.551 210.166 300.357 210.598 299.205C210.828 298.594 210.868 297.903 211.03 297.13V297.116ZM211.03 264.149C210.679 261.803 210.423 259.674 208.612 258.115C206.937 256.664 204.654 257.26 204.182 259.43C203.655 261.776 203.668 264.204 204.992 266.278C205.573 267.187 206.802 267.865 207.883 268.163C208.491 268.34 209.666 267.729 210.071 267.133C210.652 266.251 210.774 265.058 211.044 264.136L211.03 264.149ZM199.629 258.088C199.697 258.06 199.778 258.033 199.845 258.006C199.453 256.637 199.264 255.172 198.616 253.924C197.995 252.731 197.022 251.646 195.374 251.727C193.915 251.795 193.537 252.88 193.064 253.979C192.091 256.243 192.848 260.312 194.685 261.858C196.752 263.593 198.197 262.807 199.291 260.908C199.724 260.149 199.535 259.037 199.629 258.101V258.088Z" fill="black"/>
<path d="M222.324 302.038C221.837 303.584 221.648 304.94 221.027 306.039C220.122 307.625 218.582 307.761 217.271 306.527C215.258 304.642 214.002 300.438 215.691 297.468C216.758 295.597 218.919 295.434 220.162 297.36C221.081 298.797 221.621 300.479 222.324 302.025V302.038Z" fill="white"/>
<path d="M211.017 297.115C210.869 297.888 210.815 298.58 210.585 299.19C210.153 300.343 209.626 301.55 208.127 301.522C206.533 301.509 205.411 300.587 204.803 299.176C203.75 296.695 203.236 294.132 204.763 291.664C205.668 290.213 207.181 290.145 208.505 291.23C210.41 292.789 210.653 295 211.017 297.102V297.115Z" fill="white"/>
<path d="M211.017 264.135C210.747 265.057 210.625 266.25 210.044 267.132C209.639 267.728 208.464 268.339 207.856 268.162C206.789 267.864 205.546 267.172 204.965 266.277C203.655 264.216 203.641 261.775 204.155 259.429C204.641 257.246 206.91 256.649 208.585 258.114C210.396 259.673 210.652 261.802 211.004 264.148L211.017 264.135Z" fill="white"/>
<path d="M199.63 258.073C199.536 259.023 199.725 260.135 199.292 260.88C198.198 262.779 196.753 263.565 194.686 261.83C192.849 260.297 192.079 256.215 193.065 253.951C193.538 252.852 193.916 251.767 195.375 251.7C197.009 251.618 197.996 252.703 198.617 253.896C199.252 255.131 199.454 256.609 199.846 257.978C199.779 258.005 199.698 258.033 199.63 258.06V258.073Z" fill="white"/>
<ellipse cx="4.28127" cy="6.32255" rx="4.28127" ry="6.32255" transform="matrix(0.986445 -0.164095 0.162867 0.986648 190.43 251.709)" fill="white"/>
<ellipse cx="4.28127" cy="6.32255" rx="4.28127" ry="6.32255" transform="matrix(0.986445 -0.164095 0.162867 0.986648 202.586 257.133)" fill="white"/>
<ellipse cx="4.28127" cy="6.32255" rx="4.28127" ry="6.32255" transform="matrix(0.986445 -0.164095 0.162867 0.986648 201.238 291.035)" fill="white"/>
<ellipse cx="4.28127" cy="6.32255" rx="4.28127" ry="6.32255" transform="matrix(0.986445 -0.164095 0.162867 0.986648 213.395 296.459)" fill="white"/>
<path d="M131.266 271.296C131.266 279.473 131.198 287.664 131.32 295.842C131.347 297.903 130.415 298.92 128.834 299.747C124.687 301.93 120.553 304.114 116.406 306.297C111.219 309.036 106.031 311.762 100.858 314.529C97.8451 316.142 94.7786 317.688 91.8742 319.506C90.1721 320.577 88.8888 320.428 87.2137 319.506C78.6086 314.746 69.9495 310.081 61.3039 305.416C57.4403 303.327 53.5498 301.28 49.6323 299.286C48.2679 298.594 47.8086 297.645 47.8086 296.113C47.8626 279.636 47.8356 263.16 47.8356 246.683C47.8356 244.323 48.4435 243.537 50.5509 242.737C55.0493 241.014 59.5072 239.197 64.0056 237.461C68.9228 235.549 73.8535 233.692 78.7842 231.807C81.6211 230.722 84.4984 229.718 87.2947 228.511C88.9158 227.82 90.3477 227.887 91.9418 228.511C96.2781 230.233 100.668 231.82 105.018 233.502C107.544 234.478 110.03 235.536 112.543 236.526C115.785 237.8 119.027 239.035 122.269 240.309C124.674 241.259 127.051 242.33 129.483 243.211C130.915 243.74 131.279 244.689 131.266 246.073C131.239 254.481 131.266 262.888 131.266 271.296ZM71.3544 263.702C70.9086 262.21 70.76 260.597 69.9765 259.417C69.3281 258.44 67.9772 257.6 66.8289 257.423C66.167 257.315 65.0323 258.508 64.546 259.362C63.2491 261.641 64.4244 266.346 66.5047 267.879C67.68 268.747 69.6118 268.421 70.2737 267.092C70.7735 266.075 70.9897 264.909 71.3544 263.702ZM82.8774 302.419C82.0804 300.805 81.4319 298.974 80.3512 297.415C78.9733 295.435 77.2577 295.543 75.9609 297.51C74.1777 300.181 75.5961 305.063 77.69 306.623C79.2705 307.802 80.3512 307.613 81.3509 305.999C81.9588 305.036 82.2695 303.883 82.8774 302.419ZM82.8368 268.991C82.0263 267.404 81.3509 265.506 80.1891 263.96C78.8923 262.237 77.7711 262.454 76.2716 264.055C73.8805 266.618 75.7582 272.069 77.744 273.439C79.1895 274.442 80.6079 274.158 81.4589 272.666C82.0263 271.676 82.283 270.496 82.8368 268.991ZM60.1421 290.851C59.7368 289.793 59.264 287.908 58.2914 286.322C57.8321 285.576 56.3461 284.952 55.4681 285.101C54.617 285.25 53.82 286.39 53.2526 287.244C52.1449 288.939 52.7393 290.81 53.4147 292.397C53.9821 293.726 55.0358 295.15 56.2516 295.801C58.0347 296.75 60.0881 294.404 60.1286 290.838L60.1421 290.851ZM60.3988 258.223C59.7368 256.542 59.2775 254.657 58.3049 253.084C57.0486 251.063 54.5089 251.334 53.4553 253.382C52.0639 256.121 52.9689 260.135 55.4275 262.102C56.6974 263.119 58.1833 263.038 58.9939 261.709C59.5882 260.732 59.8719 259.566 60.3988 258.223Z" fill="black"/>
<path d="M71.3532 263.702C70.975 264.909 70.7723 266.075 70.2725 267.092C69.6241 268.421 67.6923 268.747 66.5036 267.879C64.4232 266.347 63.2344 261.641 64.5448 259.363C65.0311 258.508 66.1658 257.328 66.8278 257.423C67.976 257.6 69.3269 258.44 69.9753 259.417C70.7588 260.597 70.9074 262.21 71.3532 263.702Z" fill="white"/>
<path d="M82.876 302.42C82.2681 303.884 81.9574 305.024 81.3495 306C80.3364 307.614 79.2557 307.804 77.6887 306.624C75.5948 305.064 74.1764 300.182 75.9595 297.511C77.2699 295.544 78.972 295.436 80.3499 297.416C81.4306 298.962 82.079 300.806 82.876 302.42Z" fill="white"/>
<path d="M82.8504 268.977C82.2965 270.496 82.0398 271.662 81.4725 272.652C80.6079 274.144 79.1895 274.429 77.7576 273.425C75.7853 272.042 73.9076 266.59 76.2851 264.041C77.7711 262.441 78.9058 262.237 80.2026 263.946C81.3644 265.478 82.0398 267.377 82.8504 268.977Z" fill="white"/>
<path d="M60.156 290.838C60.1155 294.405 58.0622 296.751 56.279 295.801C55.0497 295.15 54.0096 293.713 53.4422 292.398C52.7667 290.811 52.1724 288.94 53.2801 287.244C53.8475 286.377 54.6445 285.251 55.4955 285.102C56.3736 284.939 57.8596 285.576 58.3189 286.322C59.2915 287.895 59.7643 289.794 60.1696 290.852L60.156 290.838Z" fill="white"/>
<path d="M60.3989 258.209C59.8856 259.538 59.6019 260.718 58.994 261.695C58.1835 263.024 56.6975 263.105 55.4277 262.088C52.9691 260.122 52.064 256.107 53.4554 253.368C54.4956 251.307 57.0487 251.036 58.305 253.07C59.2777 254.643 59.737 256.541 60.3989 258.209Z" fill="white"/>
<ellipse cx="3.96696" cy="5.85838" rx="3.96696" ry="5.85838" transform="matrix(0.986445 -0.164095 0.162867 0.986648 52.2383 251.605)" fill="white"/>
<ellipse cx="3.96696" cy="5.85838" rx="3.96696" ry="5.85838" transform="matrix(0.986445 -0.164095 0.162867 0.986648 63.0469 257.029)" fill="white"/>
<ellipse cx="3.96696" cy="5.85838" rx="3.96696" ry="5.85838" transform="matrix(0.986445 -0.164095 0.162867 0.986648 75.2031 263.811)" fill="white"/>
<ellipse cx="3.96696" cy="5.85838" rx="3.96696" ry="5.85838" transform="matrix(0.986445 -0.164095 0.162867 0.986648 75.2031 296.357)" fill="white"/>
<ellipse cx="3.96696" cy="5.85838" rx="3.96696" ry="5.85838" transform="matrix(0.986445 -0.164095 0.162867 0.986648 52.2383 285.508)" fill="white"/>
<path d="M131.198 166.415C131.198 174.199 131.023 181.997 131.293 189.781C131.401 192.846 130.199 194.27 127.672 195.517C122.985 197.85 118.473 200.535 113.839 202.989C110.084 204.983 106.261 206.841 102.492 208.821C98.48 210.936 94.5354 213.16 90.5233 215.262C89.9965 215.533 89.1454 215.723 88.6861 215.479C80.6214 211.207 72.6107 206.854 64.573 202.542C59.6558 199.898 54.7656 197.24 49.8214 194.649C48.43 193.917 47.8086 193.049 47.8086 191.354C47.8761 174.701 47.8626 158.048 47.8086 141.409C47.8086 139.755 48.3354 138.9 49.916 138.304C55.8193 136.093 61.6821 133.761 67.5314 131.428C71.0842 130.004 74.5965 128.472 78.1493 127.034C81.5805 125.665 84.9712 124.159 88.5105 123.142C89.8209 122.763 91.5635 123.4 92.9684 123.942C98.6556 126.099 104.275 128.404 109.922 130.669C114.758 132.594 119.581 134.52 124.417 136.446C126.105 137.124 127.781 137.802 129.469 138.453C130.712 138.941 131.198 139.782 131.198 141.178C131.144 149.586 131.171 157.994 131.171 166.402L131.198 166.415ZM63.9651 190.351C63.884 192.656 64.6811 194.595 66.3561 196.168C67.7475 197.47 69.2605 197.226 70.2061 195.531C71.6921 192.859 71.1788 188.805 68.9633 186.865C68.2744 186.269 67.1802 185.591 66.4237 185.74C65.0728 186.011 64.2893 187.232 64.0732 188.669C63.9921 189.225 63.9921 189.795 63.9651 190.351ZM63.5733 156.936C63.7219 157.004 63.8705 157.072 64.0056 157.14C63.911 159.445 64.6135 161.425 66.3832 162.944C67.5989 163.988 69.193 163.825 70.0575 162.632C72.0703 159.865 70.9221 154.509 67.9772 152.773C67.0181 152.204 66.0454 152.122 65.4511 153.071C64.6946 154.278 64.1947 155.648 63.5733 156.95V156.936ZM63.9786 173.657C63.8975 175.84 64.627 177.698 66.2075 179.231C67.6395 180.627 69.3011 180.37 70.2872 178.607C71.5975 176.247 71.2463 172.192 69.274 170.294C68.5311 169.575 67.2342 169.087 66.221 169.128C64.8161 169.182 64.4649 170.66 64.1407 171.826C63.9786 172.409 64.0326 173.06 63.9921 173.671L63.9786 173.657ZM74.5695 163.147C75.3665 164.693 76.0689 166.483 77.1496 168.029C78.4735 169.928 80.1756 169.901 81.6075 167.541C82.8639 165.466 81.8777 160.476 80.027 158.903C78.6356 157.736 76.7579 157.913 75.8798 159.472C75.326 160.462 75.0963 161.628 74.583 163.147H74.5695Z" fill="black"/>
<path d="M63.9666 190.35C64.0072 189.794 63.9936 189.225 64.0747 188.669C64.2908 187.245 65.0744 186.011 66.4252 185.74C67.1817 185.59 68.2759 186.269 68.9649 186.865C71.1803 188.804 71.6936 192.846 70.2077 195.531C69.2621 197.226 67.7626 197.483 66.3577 196.168C64.6691 194.595 63.8856 192.656 63.9666 190.35Z" fill="white"/>
<path d="M63.5742 156.936C64.1821 155.635 64.6819 154.265 65.4519 153.058C66.0463 152.109 67.0325 152.204 67.9781 152.76C70.923 154.496 72.0712 159.852 70.0584 162.619C69.1939 163.812 67.5998 163.975 66.384 162.93C64.6144 161.412 63.9119 159.432 64.0065 157.126C63.8579 157.059 63.7093 156.991 63.5742 156.923V156.936Z" fill="white"/>
<path d="M63.9804 173.657C64.021 173.033 63.9669 172.395 64.129 171.812C64.4667 170.632 64.818 169.168 66.2094 169.114C67.2225 169.073 68.5329 169.575 69.2624 170.28C71.2346 172.178 71.5859 176.233 70.2755 178.593C69.2894 180.356 67.6278 180.613 66.1959 179.217C64.6288 177.698 63.8859 175.84 63.9669 173.643L63.9804 173.657Z" fill="white"/>
<path d="M74.5682 163.134C75.0815 161.615 75.3112 160.449 75.865 159.459C76.7431 157.899 78.6343 157.709 80.0122 158.889C81.8629 160.449 82.8491 165.453 81.5928 167.528C80.1608 169.887 78.4722 169.914 77.1349 168.016C76.0542 166.483 75.3517 164.68 74.5547 163.134H74.5682Z" fill="white"/>
<ellipse cx="3.96696" cy="5.85838" rx="3.96696" ry="5.85838" transform="matrix(0.986445 -0.164095 0.162867 0.986648 73.8516 158.035)" fill="white"/>
<ellipse cx="3.96696" cy="5.85838" rx="3.96696" ry="5.85838" transform="matrix(0.986445 -0.164095 0.162867 0.986648 61.6953 152.609)" fill="white"/>
<ellipse cx="3.96696" cy="5.85838" rx="3.96696" ry="5.85838" transform="matrix(0.986445 -0.164095 0.162867 0.986648 61.6953 170.24)" fill="white"/>
<ellipse cx="3.96696" cy="5.85838" rx="3.96696" ry="5.85838" transform="matrix(0.986445 -0.164095 0.162867 0.986648 61.6953 186.514)" fill="white"/>
<path d="M270.826 166.429C270.826 174.28 270.663 182.119 270.907 189.957C271.001 192.778 269.947 194.242 267.637 195.408C263.747 197.375 259.951 199.504 256.114 201.552C249.779 204.928 243.43 208.305 237.094 211.682C234.717 212.956 232.353 214.272 229.934 215.479C229.502 215.696 228.773 215.696 228.354 215.479C221.964 212.061 215.615 208.549 209.239 205.118C203.673 202.135 198.081 199.233 192.502 196.276C191.232 195.598 189.813 195.083 188.76 194.161C188.044 193.537 187.463 192.317 187.449 191.354C187.355 182.498 187.395 173.629 187.395 164.774C187.395 157.383 187.395 149.993 187.395 142.588C187.395 139.279 187.787 138.818 190.786 137.679C195.352 135.957 199.864 134.126 204.416 132.363C210.522 130.004 216.628 127.658 222.734 125.298C224.477 124.62 226.22 123.915 227.935 123.142C229.691 122.355 231.083 123.467 232.528 123.996C237 125.651 241.417 127.427 245.848 129.177C249.968 130.804 254.088 132.445 258.208 134.086C261.761 135.496 265.273 136.988 268.867 138.276C270.366 138.818 270.853 139.713 270.853 141.178C270.839 149.586 270.853 157.994 270.853 166.401L270.826 166.429ZM222.113 164.937C221.64 163.174 221.532 161.574 220.789 160.38C220.168 159.363 218.871 158.387 217.736 158.197C217.034 158.075 215.818 159.323 215.318 160.218C213.954 162.659 215.142 167.391 217.763 168.951C218.763 169.548 219.938 169.575 220.586 168.49C221.262 167.364 221.64 166.049 222.113 164.923V164.937ZM211.225 175.189C210.333 173.385 209.685 171.419 208.496 169.873C207.267 168.3 204.93 168.72 204.241 170.456C203.174 173.168 203.579 177.576 206.308 179.542C207.388 180.329 208.55 180.424 209.266 179.42C210.09 178.267 210.495 176.816 211.225 175.175V175.189ZM199.621 186.187C199.324 185.17 199.134 183.624 198.432 182.363C197.77 181.183 196.851 179.827 195.055 180.125C193.366 180.41 192.961 181.847 192.61 183.149C191.988 185.441 192.704 187.584 193.947 189.509C195.487 191.896 198 191.828 199.175 189.32C199.54 188.547 199.445 187.57 199.621 186.201V186.187ZM221.91 197.307C221.64 196.303 221.532 194.758 220.803 193.618C220.154 192.615 218.884 191.733 217.723 191.408C216.561 191.083 215.939 192.289 215.345 193.32C214.089 195.503 215.169 199.843 216.777 201.416C218.547 203.138 220.64 202.718 221.519 200.412C221.829 199.599 221.762 198.65 221.924 197.307H221.91ZM210.928 192.534C210.239 190.255 210.36 187.774 208.077 186.309C206.618 185.373 204.687 185.767 204.173 187.435C203.363 190.093 203.498 192.778 205.024 195.178C206.416 197.361 208.78 197.524 209.874 195.612C210.401 194.676 210.603 193.551 210.928 192.547V192.534Z" fill="black"/>
<path d="M222.113 164.938C221.654 166.063 221.262 167.379 220.587 168.504C219.938 169.589 218.763 169.562 217.764 168.965C215.143 167.392 213.941 162.673 215.318 160.232C215.818 159.337 217.048 158.089 217.737 158.211C218.871 158.401 220.168 159.378 220.79 160.395C221.532 161.588 221.641 163.188 222.113 164.951V164.938Z" fill="white"/>
<path d="M211.224 175.19C210.495 176.817 210.103 178.282 209.265 179.435C208.55 180.438 207.388 180.343 206.307 179.557C203.578 177.59 203.173 173.169 204.24 170.471C204.929 168.735 207.266 168.315 208.495 169.888C209.698 171.434 210.333 173.4 211.224 175.204V175.19Z" fill="white"/>
<path d="M199.62 186.187C199.444 187.557 199.525 188.547 199.174 189.306C198.012 191.815 195.486 191.883 193.946 189.496C192.704 187.571 192.001 185.442 192.609 183.136C192.96 181.834 193.352 180.397 195.054 180.112C196.851 179.814 197.756 181.17 198.431 182.35C199.134 183.611 199.323 185.157 199.62 186.174V186.187Z" fill="white"/>
<path d="M221.91 197.293C221.748 198.636 221.815 199.585 221.505 200.398C220.627 202.69 218.533 203.124 216.763 201.402C215.169 199.842 214.075 195.503 215.331 193.306C215.926 192.275 216.547 191.068 217.709 191.394C218.871 191.719 220.14 192.601 220.789 193.604C221.518 194.744 221.626 196.289 221.896 197.293H221.91Z" fill="white"/>
<path d="M210.913 192.533C210.575 193.537 210.386 194.662 209.859 195.598C208.765 197.524 206.401 197.348 205.009 195.164C203.483 192.777 203.348 190.079 204.158 187.421C204.672 185.753 206.603 185.36 208.062 186.295C210.345 187.76 210.224 190.242 210.913 192.52V192.533Z" fill="white"/>
<ellipse cx="3.96696" cy="5.85838" rx="3.96696" ry="5.85838" transform="matrix(0.986445 -0.164095 0.162867 0.986648 213.695 191.938)" fill="white"/>
<ellipse cx="3.96696" cy="5.85838" rx="3.96696" ry="5.85838" transform="matrix(0.986445 -0.164095 0.162867 0.986648 192.082 181.088)" fill="white"/>
<ellipse cx="3.96696" cy="5.85838" rx="3.96696" ry="5.85838" transform="matrix(0.986445 -0.164095 0.162867 0.986648 202.891 186.512)" fill="white"/>
<ellipse cx="3.96696" cy="5.85838" rx="3.96696" ry="5.85838" transform="matrix(0.986445 -0.164095 0.162867 0.986648 202.891 168.883)" fill="white"/>
<ellipse cx="3.96696" cy="5.85838" rx="3.96696" ry="5.85838" transform="matrix(0.986445 -0.164095 0.162867 0.986648 213.695 159.391)" fill="white"/>
<path d="M416.475 165.113C416.475 173.412 416.421 181.712 416.516 190.011C416.529 191.543 415.948 192.561 414.787 193.184C409.221 196.154 403.601 199.016 398.022 201.972C393.105 204.589 388.228 207.301 383.338 209.959C380.812 211.329 378.326 212.753 375.746 214.014C375.138 214.312 374.125 214.312 373.531 214.001C366.223 210.109 358.968 206.122 351.687 202.202C346.176 199.246 340.65 196.317 335.098 193.428C333.41 192.547 332.64 191.408 332.653 189.36C332.748 173.562 332.775 157.749 332.653 141.951C332.613 137.001 333.883 137.53 337.003 136.255C341.204 134.533 345.419 132.824 349.634 131.143C352.457 130.017 355.308 128.919 358.158 127.82C361.927 126.369 365.696 124.932 369.451 123.454C370.897 122.884 372.261 121.989 373.747 121.745C374.895 121.555 376.233 121.989 377.381 122.437C383.622 124.878 389.822 127.441 396.05 129.909C400.157 131.536 404.317 133.068 408.437 134.655C410.504 135.455 412.558 136.296 414.625 137.096C415.908 137.598 416.502 138.411 416.489 139.903C416.421 148.311 416.462 156.719 416.462 165.14L416.475 165.113ZM367.627 196.181C367.033 194.69 366.52 192.94 365.655 191.394C364.845 189.943 362.305 189.482 360.981 191.543C359.617 193.645 360.441 198.636 362.71 200.412C364.169 201.565 365.534 201.457 366.479 199.856C367.033 198.907 367.182 197.7 367.627 196.195V196.181ZM338.03 182.851C338.003 185.536 338.8 187.57 340.056 188.926C341.326 190.282 343.514 190.079 344.338 188.411C345.703 185.658 345.203 183.068 343.636 180.735C343.015 179.813 341.596 178.891 340.596 178.945C339.759 179 338.894 180.396 338.246 181.346C337.908 181.834 338.057 182.647 338.03 182.851ZM356.577 157.478C356.023 155.973 355.591 154.142 354.673 152.623C354.2 151.837 352.822 151.24 351.863 151.254C351.106 151.254 349.863 152.203 349.688 152.922C349.107 155.403 348.904 158.061 350.404 160.299C351.039 161.235 352.336 162.035 353.457 162.252C354.74 162.496 355.402 161.194 355.821 160.068C356.091 159.35 356.267 158.577 356.591 157.478H356.577Z" fill="black"/>
<path d="M367.629 196.18C367.17 197.686 367.035 198.893 366.481 199.842C365.535 201.456 364.184 201.551 362.712 200.398C360.442 198.621 359.618 193.631 360.983 191.529C362.307 189.468 364.846 189.929 365.657 191.38C366.521 192.926 367.035 194.675 367.629 196.167V196.18Z" fill="white"/>
<path d="M338.029 182.851C338.056 182.648 337.908 181.834 338.246 181.346C338.881 180.397 339.745 179 340.596 178.946C341.596 178.891 343.028 179.814 343.636 180.736C345.203 183.068 345.702 185.658 344.338 188.411C343.514 190.079 341.326 190.283 340.056 188.927C338.799 187.584 338.002 185.536 338.029 182.851Z" fill="white"/>
<path d="M356.576 157.492C356.251 158.604 356.076 159.363 355.806 160.082C355.387 161.208 354.725 162.51 353.442 162.266C352.32 162.049 351.024 161.248 350.389 160.313C348.889 158.075 349.092 155.417 349.673 152.936C349.848 152.203 351.091 151.268 351.848 151.268C352.807 151.268 354.185 151.864 354.657 152.637C355.589 154.156 356.008 155.987 356.562 157.492H356.576Z" fill="white"/>
<ellipse cx="3.96696" cy="5.85838" rx="3.96696" ry="5.85838" transform="matrix(0.986445 -0.164095 0.162867 0.986648 348.082 151.186)" fill="white"/>
<ellipse cx="3.96696" cy="5.85838" rx="3.96696" ry="5.85838" transform="matrix(0.986445 -0.164095 0.162867 0.986648 335.922 178.309)" fill="white"/>
<ellipse cx="3.96696" cy="5.85838" rx="3.96696" ry="5.85838" transform="matrix(0.986445 -0.164095 0.162867 0.986648 358.887 190.514)" fill="white"/>
<path d="M47.8728 65.5199C47.8728 57.6274 47.8728 49.7213 47.8728 41.8288C47.8728 38.1266 48.1159 37.8961 51.5066 36.6892C54.6407 35.5772 57.7342 34.3431 60.8277 33.1497C65.7854 31.2241 70.7566 29.2984 75.7008 27.3456C79.8615 25.7048 84.0087 24.0096 88.183 22.3959C88.7773 22.1653 89.5609 21.989 90.1147 22.206C94.3024 23.7791 98.4631 25.4607 102.637 27.088C106.906 28.7424 111.202 30.3291 115.471 31.9971C118.969 33.3667 122.455 34.7906 125.926 36.2145C127.412 36.8248 128.885 37.4621 130.357 38.1131C131.398 38.5606 131.776 39.3336 131.776 40.5134C131.749 57.2205 131.749 73.9141 131.776 90.6213C131.776 91.7604 131.438 92.452 130.398 93.0216C124.738 96.0592 119.132 99.1783 113.485 102.243C109.892 104.196 106.271 106.067 102.664 107.993C98.6928 110.136 94.7347 112.319 90.7496 114.448C89.2366 115.248 87.8993 114.326 86.67 113.675C80.618 110.447 74.6337 107.098 68.5952 103.843C62.2731 100.439 55.924 97.1034 49.5884 93.7267C48.4266 93.1029 47.8187 92.2757 47.8323 90.784C47.9133 82.3762 47.8728 73.9684 47.8728 65.5605V65.5199ZM63.9887 72.558C63.8942 74.8634 64.6507 76.8162 66.3258 78.3893C67.6091 79.6097 69.3517 79.3928 70.2568 77.9146C71.6887 75.5957 71.2024 70.9307 69.1896 69.1678C67.1363 67.3777 65.3801 67.7845 64.1914 70.3747C63.9077 70.9985 64.0428 71.8122 63.9887 72.5445V72.558ZM64.0023 89.455C63.9347 91.7604 64.5561 93.7946 66.4068 95.2863C67.8658 96.4796 69.1086 96.2627 70.2298 94.7303C71.7833 92.6147 71.1484 87.6107 68.9465 85.9563C68.2035 85.4003 66.8661 84.9121 66.1772 85.2376C65.2856 85.6444 64.6912 86.8378 64.1238 87.8006C63.8672 88.2345 64.0158 88.899 63.9887 89.4686L64.0023 89.455ZM52.2901 50.9689C53.1277 52.6369 53.8031 54.6711 55.0459 56.2713C56.3563 57.9393 58.4772 57.4104 59.3012 55.5118C60.6115 52.4877 59.72 49.2331 57.8558 47.0905C56.4238 45.4631 54.7352 45.6123 53.614 47.4702C53.0601 48.3923 52.8305 49.5043 52.2901 50.9689ZM52.4793 83.6374C53.1412 86.0512 53.4114 88.343 55.5323 89.9161C56.9912 91.001 58.6123 90.2009 59.2472 88.777C60.5845 85.7393 59.9901 82.8779 57.8828 80.342C56.4779 78.6605 54.7487 78.7961 53.614 80.6675C53.0601 81.5897 52.817 82.7017 52.4793 83.6374ZM79.7535 101.687C80.2128 101.267 81.1584 100.711 81.5907 99.897C82.8875 97.456 82.1445 93.5505 80.1858 91.5163C78.5782 89.8483 76.4979 90.4179 75.5252 92.5605C74.6472 94.4862 74.9714 96.3169 75.6738 98.0256C76.3223 99.5987 77.0112 101.416 79.74 101.687H79.7535Z" fill="black"/>
<path d="M63.9882 72.5574C64.0423 71.8251 63.9072 71.0115 64.1909 70.3877C65.3661 67.7975 67.1358 67.3771 69.1891 69.1807C71.2019 70.9437 71.6882 75.6222 70.2563 77.9276C69.3512 79.3922 67.6086 79.6227 66.3252 78.4022C64.6637 76.8156 63.8937 74.8628 63.9882 72.571V72.5574Z" fill="black"/>
<path d="M64.003 89.4556C64.03 88.8996 63.8814 88.2216 64.1381 87.7876C64.692 86.8384 65.2999 85.645 66.1914 85.2246C66.8804 84.9127 68.2178 85.4009 68.9607 85.9433C71.1627 87.5978 71.7976 92.6018 70.2441 94.7173C69.1228 96.2497 67.88 96.4531 66.4211 95.2733C64.5839 93.7816 63.949 91.7474 64.0165 89.4421L64.003 89.4556Z" fill="black"/>
<path d="M52.2891 50.9682C52.8294 49.5037 53.0591 48.3917 53.6129 47.4695C54.7341 45.5981 56.4227 45.4489 57.8547 47.0898C59.7324 49.2189 60.624 52.4871 59.3001 55.5112C58.4761 57.4097 56.3417 57.9386 55.0449 56.2706C53.802 54.684 53.1266 52.6498 52.2891 50.9682Z" fill="black"/>
<path d="M52.4922 83.6377C52.8434 82.702 53.0731 81.5764 53.6269 80.6679C54.7617 78.81 56.4908 78.6608 57.8957 80.3424C60.0031 82.8783 60.5975 85.7397 59.2601 88.7773C58.6252 90.2012 57.0041 91.0013 55.5452 89.9165C53.4378 88.3569 53.1541 86.0516 52.4922 83.6377Z" fill="black"/>
<path d="M79.7656 101.686C77.0368 101.415 76.3479 99.5975 75.6995 98.0245C74.997 96.3022 74.6728 94.485 75.5509 92.5594C76.5235 90.4303 78.6038 89.8472 80.2114 91.5152C82.1702 93.5493 82.9131 97.4549 81.6163 99.8959C81.184 100.723 80.2249 101.266 79.7791 101.686H79.7656Z" fill="black"/>
<ellipse cx="3.69442" cy="5.9327" rx="3.69442" ry="5.9327" transform="matrix(0.986445 -0.164095 0.162867 0.986648 51.3984 46.1953)" fill="white"/>
<ellipse cx="3.96696" cy="5.85838" rx="3.96696" ry="5.85838" transform="matrix(0.986445 -0.164095 0.162867 0.986648 51.582 79.7695)" fill="white"/>
<ellipse cx="3.96696" cy="5.85838" rx="3.96696" ry="5.85838" transform="matrix(0.986445 -0.164095 0.162867 0.986648 63.043 68.4629)" fill="white"/>
<ellipse cx="3.96696" cy="5.85838" rx="3.96696" ry="5.85838" transform="matrix(0.986445 -0.164095 0.162867 0.986648 63.043 84.7363)" fill="white"/>
<ellipse cx="3.96696" cy="5.85838" rx="3.96696" ry="5.85838" transform="matrix(0.986445 -0.164095 0.162867 0.986648 73.8516 91.5156)" fill="white"/>
<path d="M270.919 65.5618C270.919 73.8611 270.892 82.1604 270.933 90.4598C270.933 92.2091 270.392 93.1855 268.69 94.0534C261.841 97.525 255.128 101.254 248.373 104.916C242.659 108.021 236.985 111.222 231.217 114.232C230.379 114.68 228.907 114.666 228.056 114.232C219.572 109.798 211.156 105.241 202.714 100.712C198.337 98.3658 193.946 96.0333 189.569 93.6737C188.205 92.9279 187.53 91.8972 187.543 90.175C187.611 73.5899 187.611 57.0048 187.584 40.4061C187.584 38.833 188.462 38.0058 189.691 37.5176C195.135 35.375 200.633 33.3272 206.077 31.171C210.292 29.503 214.453 27.6723 218.667 25.9907C222.058 24.6346 225.503 23.387 228.934 22.153C229.366 22.0038 229.961 22.0581 230.406 22.2343C235.81 24.377 241.2 26.5739 246.604 28.7301C253.196 31.3473 259.802 33.9104 266.407 36.5005C267.123 36.7853 267.826 37.1243 268.569 37.2735C270.636 37.6532 270.96 39.0364 270.946 40.8672C270.892 49.1123 270.919 57.3438 270.919 65.5889V65.5618ZM214.925 61.6562C215.155 64.07 215.695 66.1584 217.587 67.6908C218.938 68.7893 220.397 68.5859 221.383 67.1484C222.936 64.8837 222.342 60.4086 220.221 58.2659C218.829 56.8556 217.033 56.937 216.02 58.605C215.479 59.5135 215.277 60.6255 214.925 61.6426V61.6562ZM192.825 83.8149L192.636 83.9098C193.028 85.3201 193.122 86.9339 193.892 88.1001C194.581 89.1443 195.919 90.1479 197.107 90.3648C198.445 90.6089 199.323 89.1986 199.634 87.9238C200.282 85.3066 199.863 82.7842 198.188 80.6416C196.621 78.6481 194.257 78.838 193.23 81.0349C192.852 81.8485 192.947 82.8927 192.812 83.8284L192.825 83.8149ZM211.129 74.6205C210.886 72.6813 210.603 70.5251 208.887 69.0741C208.225 68.5181 207.036 68.179 206.199 68.3282C205.537 68.4502 204.902 69.4131 204.483 70.1318C203.321 72.1117 203.983 74.1866 204.659 76.0851C205.132 77.4412 205.942 78.8787 207.698 79.1228C209.725 79.4075 211.157 77.5904 211.143 74.6205H211.129ZM211.589 58.4151C210.751 56.4894 210.143 54.4417 209.036 52.733C207.995 51.1464 205.577 51.3905 204.726 53.0043C203.105 56.0419 204.132 60.7205 206.955 62.4698C207.563 62.8496 209.022 62.7275 209.468 62.2529C210.359 61.29 210.805 59.9204 211.602 58.4151H211.589ZM199.998 53.3704C199.755 50.2243 199.269 48.0274 197.188 46.5899C195.784 45.6135 194.365 45.9797 193.595 47.4985C192.271 50.1022 192.663 52.733 193.96 55.1333C195.162 57.3573 197.107 57.9676 198.377 56.6115C199.309 55.608 199.674 54.062 199.998 53.3704Z" fill="black"/>
<path d="M214.91 61.6423C215.261 60.6253 215.464 59.4997 216.004 58.6047C217.018 56.9367 218.814 56.8553 220.206 58.2656C222.326 60.3947 222.921 64.8834 221.367 67.1481C220.381 68.5856 218.922 68.789 217.571 67.6905C215.68 66.1446 215.14 64.0698 214.91 61.6559V61.6423Z" fill="black"/>
<path d="M192.824 83.8016C192.946 82.8659 192.851 81.8217 193.243 81.008C194.269 78.8112 196.634 78.6213 198.201 80.6148C199.876 82.7574 200.281 85.2798 199.646 87.897C199.335 89.1718 198.457 90.5821 197.12 90.338C195.931 90.121 194.594 89.1175 193.905 88.0733C193.135 86.9071 193.04 85.2933 192.648 83.883L192.838 83.788L192.824 83.8016Z" fill="black"/>
<path d="M211.13 74.6066C211.13 77.5764 209.712 79.3936 207.686 79.1088C205.93 78.8647 205.119 77.4273 204.646 76.0712C203.984 74.1726 203.309 72.0978 204.471 70.1179C204.889 69.3991 205.524 68.4499 206.186 68.3143C207.024 68.1515 208.213 68.4906 208.874 69.0601C210.604 70.5111 210.874 72.6809 211.117 74.6066H211.13Z" fill="black"/>
<path d="M211.576 58.4021C210.779 59.9073 210.334 61.277 209.442 62.2398C209.01 62.7145 207.537 62.8365 206.929 62.4568C204.106 60.7074 203.079 56.0153 204.7 52.9912C205.565 51.391 207.97 51.1334 209.01 52.72C210.131 54.4287 210.725 56.4628 211.563 58.4021H211.576Z" fill="black"/>
<path d="M199.986 53.3577C199.662 54.0493 199.31 55.5953 198.365 56.5988C197.095 57.9549 195.15 57.3447 193.947 55.1207C192.637 52.7204 192.259 50.0895 193.583 47.4858C194.353 45.967 195.785 45.6008 197.176 46.5772C199.243 48.0147 199.743 50.2116 199.986 53.3577Z" fill="black"/>
<ellipse cx="3.96696" cy="5.85838" rx="3.96696" ry="5.85838" transform="matrix(0.986445 -0.164095 0.162867 0.986648 191.379 46.7656)" fill="white"/>
<ellipse cx="3.96696" cy="5.85838" rx="3.96696" ry="5.85838" transform="matrix(0.986445 -0.164095 0.162867 0.986648 203.539 52.1914)" fill="white"/>
<ellipse cx="3.96696" cy="5.85838" rx="3.96696" ry="5.85838" transform="matrix(0.986445 -0.164095 0.162867 0.986648 202.188 68.4629)" fill="white"/>
<ellipse cx="3.96696" cy="5.85838" rx="3.96696" ry="5.85838" transform="matrix(0.986445 -0.164095 0.162867 0.986648 191.379 79.3125)" fill="white"/>
<ellipse cx="3.96696" cy="5.85838" rx="3.96696" ry="5.85838" transform="matrix(0.986445 -0.164095 0.162867 0.986648 212.992 57.6152)" fill="white"/>
<path d="M416.273 65.6285C416.273 73.9278 416.233 82.2136 416.314 90.513C416.327 92.181 415.652 93.1031 414.288 93.8354C406.642 97.9037 398.996 101.972 391.35 106.067C386.378 108.725 381.353 111.275 376.49 114.109C374.68 115.167 373.356 114.435 371.992 113.702C366.048 110.543 360.185 107.261 354.255 104.074C347.743 100.575 341.192 97.1307 334.653 93.6727C333.424 93.0217 332.789 92.0454 332.789 90.5808C332.816 73.9279 332.803 57.2885 332.789 40.6356C332.789 38.8998 333.586 37.9098 335.248 37.3131C338.773 36.0384 342.245 34.6009 345.744 33.2448C349.621 31.7531 353.512 30.2885 357.389 28.7833C360.117 27.7119 362.833 26.5864 365.548 25.4879C368.358 24.3488 371.167 23.2097 374.004 22.1248C374.423 21.9621 375.031 22.057 375.463 22.2333C379.394 23.7386 383.325 25.2845 387.243 26.8169C391.687 28.5527 396.132 30.275 400.563 32.0108C405.156 33.8144 409.735 35.618 414.328 37.4216C415.692 37.9641 416.246 38.9269 416.246 40.4186C416.206 48.8264 416.233 57.2343 416.233 65.6421L416.273 65.6285ZM367.426 96.968L367.669 96.7646C367.034 95.1644 366.642 93.3879 365.696 91.9911C364.224 89.7942 362.117 90.0519 360.914 92.3166C359.699 94.6084 360.293 98.853 362.198 100.575C363.697 101.931 365.534 102.338 366.71 99.9921C367.155 99.0971 367.196 97.9851 367.426 96.968ZM367.52 63.6486C367.142 62.2925 366.926 60.8279 366.304 59.5667C365.696 58.3598 364.764 57.2749 363.116 57.3021C361.59 57.3292 361.009 58.5361 360.509 59.5803C359.563 61.5467 360.766 65.9269 362.454 67.4593C364.021 68.8832 365.507 68.7611 366.547 66.9168C367.074 65.9947 367.182 64.842 367.52 63.6351V63.6486ZM356.524 91.2588C355.97 89.6586 355.551 87.9228 354.781 86.3497C354.011 84.7767 351.364 84.4783 350.269 85.8887C349.635 86.7023 349.513 87.9635 349.27 89.0484C348.77 91.3673 350.04 94.3507 351.985 95.5712C353.322 96.412 354.889 96.0594 355.511 94.6491C355.957 93.6456 356.159 92.5335 356.524 91.2588ZM356.646 58.2242C355.97 56.3935 355.619 54.617 354.7 53.2338C354.146 52.4201 352.674 51.8505 351.62 51.8777C350.269 51.9048 349.432 53.0032 349.459 54.5356C349.486 55.8917 349.162 57.3699 349.58 58.5904C350.067 60.0278 351.026 61.4246 352.12 62.4959C352.552 62.9163 354.322 62.7129 354.741 62.1976C355.632 61.0856 356.038 59.5939 356.646 58.2378V58.2242Z" fill="black"/>
<path d="M367.437 96.9675C367.207 97.9846 367.18 99.083 366.721 99.9916C365.546 102.338 363.709 101.931 362.209 100.575C360.304 98.8525 359.71 94.5943 360.926 92.3161C362.128 90.0514 364.235 89.8073 365.708 91.9906C366.654 93.3874 367.045 95.1639 367.68 96.7641L367.437 96.9675Z" fill="white"/>
<path d="M367.522 63.6485C367.184 64.8555 367.076 66.0082 366.549 66.9303C365.509 68.7746 364.023 68.8831 362.456 67.4727C360.767 65.9403 359.579 61.5601 360.511 59.5938C361.01 58.5496 361.591 57.3562 363.118 57.3155C364.766 57.2749 365.698 58.3733 366.306 59.5802C366.927 60.8414 367.143 62.306 367.522 63.6621V63.6485Z" fill="white"/>
<path d="M356.524 91.2593C356.159 92.5205 355.943 93.6325 355.51 94.6496C354.889 96.0599 353.322 96.4125 351.985 95.5717C350.039 94.3512 348.77 91.3814 349.269 89.0489C349.499 87.964 349.634 86.7028 350.269 85.8892C351.363 84.4788 354.011 84.7636 354.781 86.3502C355.551 87.9233 355.97 89.6591 356.524 91.2593Z" fill="white"/>
<path d="M356.644 58.2236C356.036 59.5797 355.631 61.0714 354.74 62.1834C354.321 62.6988 352.551 62.9022 352.119 62.4818C351.025 61.424 350.079 60.0272 349.579 58.5762C349.16 57.3557 349.485 55.8776 349.458 54.5215C349.417 53.0026 350.255 51.8906 351.619 51.8635C352.673 51.85 354.145 52.4195 354.699 53.2196C355.631 54.6028 355.969 56.3658 356.644 58.2101V58.2236Z" fill="black"/>
<ellipse cx="3.96696" cy="5.85838" rx="3.96696" ry="5.85838" transform="matrix(0.986445 -0.164095 0.162867 0.986648 348.082 52.1895)" fill="white"/>
<ellipse cx="3.96696" cy="5.85838" rx="3.96696" ry="5.85838" transform="matrix(0.986445 -0.164095 0.162867 0.986648 358.887 57.6133)" fill="white"/>
<ellipse cx="3.96696" cy="5.85838" rx="3.96696" ry="5.85838" transform="matrix(0.986445 -0.164095 0.162867 0.986648 358.887 91.5156)" fill="white"/>
<ellipse cx="3.96696" cy="5.85838" rx="3.96696" ry="5.85838" transform="matrix(0.986445 -0.164095 0.162867 0.986648 348.082 84.7363)" fill="white"/>
<path d="M441.056 218.016H293.027V329.453H441.056V218.016Z" fill="white"/>
<path fill-rule="evenodd" clip-rule="evenodd" d="M437.544 221.325H296.298V326.112H437.544V221.325ZM440.935 218V329.438H292.906V218H440.935Z" fill="#0070F3"/>
<path d="M357.86 285.857C357.894 274.129 360.876 270.494 366.382 266.96C370.716 264.195 374.011 261.497 374.011 257.272C374.011 253.047 370.749 250.416 366.661 250.416C362.574 250.416 358.866 253.326 358.754 258.131H342.805C343.017 243.593 353.761 237.127 366.795 237.127C381.08 237.127 391.445 243.905 391.445 256.47C391.445 264.742 387.045 269.758 380.388 273.66C375.15 276.771 372.626 279.714 372.626 285.835V287.25H357.86V285.835V285.857ZM356.509 300.974C356.442 296.058 360.53 292.078 365.522 292.078C370.515 292.078 374.469 296.058 374.536 300.974C374.469 305.958 370.269 309.971 365.522 309.971C360.53 309.971 356.442 305.958 356.509 300.974Z" fill="#0070F3"/>
</svg>
