<svg width="464" height="352" viewBox="0 0 464 352" fill="none" xmlns="http://www.w3.org/2000/svg">
<g clip-path="url(#clip0_35_1043)">
<path d="M1.76973 37.746C1.76973 38.7516 5.61973 39.293 18.3247 39.7571C38.6527 40.6079 52.5127 43.0057 92.5527 52.2102C108.03 55.7682 124.123 59.3262 128.281 60.0997C132.362 60.8732 135.75 61.724 135.75 62.0334C135.75 62.3428 134.903 63.1937 133.902 63.8125C132.208 64.9727 130.899 64.818 116.5 62.2655C107.953 60.7185 100.407 59.2489 99.8677 59.0168C99.2517 58.7848 98.7897 59.0168 98.7897 59.4809C98.7897 59.945 101.716 67.0611 105.335 75.3374C108.954 83.6136 111.88 90.807 111.88 91.1938C111.88 91.7352 109.647 92.0446 105.951 92.0446C97.2497 92.0446 77.5377 94.0557 60.2897 96.6855C42.1947 99.4701 2.46273 106.586 1.92373 107.128C0.460735 108.52 5.46573 107.901 29.6437 103.724C77.3837 95.3706 89.7037 93.9783 114.19 93.9783C137.829 93.9783 150.842 96.1441 175.02 104.034C207.668 114.63 223.299 117.338 246.63 116.564C267.728 115.791 282.127 113.393 320.55 104.343C359.204 95.2159 374.989 92.5861 400.707 91.2711C418.494 90.343 437.128 91.0391 457.841 93.3595C460.69 93.6689 462.23 93.5142 462.23 92.9728C462.23 89.5695 405.558 88.0225 381.765 90.807C362.669 92.9728 352.274 94.9065 321.551 102.177C276.506 112.774 263.955 114.708 242.395 114.785C228.227 114.862 219.68 113.934 208.13 111.304C198.582 109.139 185.03 105.117 185.03 104.42C185.03 104.111 189.881 98.4645 195.81 91.8126C201.739 85.1606 206.59 79.4368 206.59 79.0501C206.59 78.7407 198.89 77.039 189.496 75.3374L172.402 72.2434L170.708 69.2268C169.707 67.5252 168.937 65.9009 168.86 65.6688C168.86 65.4368 174.173 64.9727 180.641 64.7406C198.505 63.9671 208.438 61.9561 237.005 52.9837C256.409 46.9505 266.881 44.4753 280.202 42.9284C303.61 40.2212 329.02 42.1549 375.605 50.2765C421.959 58.3981 431.199 59.8677 446.984 61.492C460.228 62.8843 462.23 62.8843 462.23 61.9561C462.23 61.5693 460.382 61.0279 458.226 60.7959C434.048 58.3981 423.191 56.7737 373.295 48.0334C341.571 42.4643 320.935 40.2212 300.684 40.2212C275.89 40.2212 263.493 42.3869 232.231 52.2102C206.975 60.1771 193.962 62.7296 177.33 62.9616L167.705 63.039L162.854 53.3704C158.08 44.0113 156.925 42.3096 155.847 43.8566C154.23 46.3317 137.752 60.0997 136.674 59.8677C135.981 59.713 130.899 58.7075 125.355 57.6246C119.888 56.4644 106.49 53.5251 95.7097 50.9726C71.6857 45.2488 60.5207 42.9284 47.9697 40.9947C29.7977 38.2101 1.76973 36.2764 1.76973 37.746ZM168.783 70.8512C168.86 71.5473 136.828 66.3649 135.981 65.4368C135.827 65.2821 140.447 60.8732 146.222 55.6909L156.848 46.177L162.777 58.0887C166.088 64.6633 168.783 70.3871 168.783 70.8512ZM112.65 63.8125C116.654 64.5086 130.514 66.9837 143.45 69.3042C169.63 74.0224 178.562 75.6468 192.961 78.1993C198.351 79.1274 202.663 80.133 202.586 80.4424C202.124 81.6799 182.335 103.647 181.796 103.647C181.411 103.647 176.637 102.255 171.247 100.63C154.153 95.3706 136.751 92.354 120.427 91.8126L114.806 91.6579L108.8 77.8899C101.023 60.0224 101.485 61.6467 103.564 62.1108C104.565 62.3428 108.646 63.1163 112.65 63.8125Z" fill="black"/>
<path fill-rule="evenodd" clip-rule="evenodd" d="M381.777 222.585C405.886 217.402 430.574 215.43 455.199 216.72L462.894 217.123L462.999 215.126L455.304 214.723C430.496 213.423 405.624 215.41 381.338 220.634L381.548 221.611L381.3 220.643L340.727 231.047L337.618 231.652C313.577 236.335 289.053 238.054 264.594 236.772L262.825 236.679C236.896 235.321 211.24 230.71 186.46 222.957C186.46 222.956 186.459 222.956 186.458 222.956L139.132 207.924L135.209 207.132C122.244 204.513 108.941 204.013 95.816 205.651L95.9399 206.643L95.773 205.657L39.1792 215.234L0.706423 222.974L1.10089 224.934L39.5434 217.2L96.0852 207.633C108.989 206.025 122.067 206.518 134.813 209.092L138.63 209.863L185.857 224.864L186.16 223.91L185.861 224.865C210.801 232.669 236.623 237.309 262.72 238.677L264.49 238.769C289.112 240.06 313.799 238.329 338 233.615L341.167 232.998L381.777 222.585Z" fill="black"/>
<path fill-rule="evenodd" clip-rule="evenodd" d="M82.0689 263.969C58.0547 258.365 33.405 255.963 8.76075 256.823L1.05954 257.092L0.989744 255.093L8.69095 254.824C33.518 253.958 58.3506 256.379 82.5425 262.025L82.3152 262.999L82.5804 262.035L122.965 273.145L143.027 277.418C155.716 280.119 168.688 281.257 181.653 280.804C193.103 280.404 204.476 278.767 215.573 275.92L234.675 271.021L276.17 258.577L287.944 255.443C303.456 251.313 319.441 249.222 335.493 249.222C344.222 249.222 352.939 249.841 361.581 251.073L368.304 252.031L424.743 262.598L463.075 271.008L462.646 272.961L424.345 264.558L367.978 254.005L361.298 253.053C352.751 251.834 344.127 251.222 335.493 251.222C319.614 251.222 303.803 253.291 288.459 257.375L276.715 260.502L235.21 272.948L216.07 277.858C204.833 280.74 193.317 282.398 181.723 282.803C168.594 283.261 155.459 282.11 142.611 279.374L122.491 275.089L82.0689 263.969Z" fill="black"/>
<path fill-rule="evenodd" clip-rule="evenodd" d="M375.22 301.503C397.962 296.234 421.389 294.561 444.65 296.544L462.78 298.089L462.95 296.097L444.819 294.551C421.335 292.549 397.682 294.241 374.721 299.565L374.947 300.539L374.628 299.592L337.662 312.026C314.184 318.116 290.026 321.198 265.771 321.198L264.924 321.198L256.174 320.226C237.171 318.114 218.35 314.604 199.863 309.724L176.702 303.611L176.447 304.578L176.685 303.607C156.348 298.616 135.483 296.093 114.542 296.093L103.9 296.093L67.3343 299.546L36.767 303.593L0.801274 312.011L1.25708 313.959L37.127 305.563L67.5597 301.533L103.994 298.093L114.542 298.093C135.32 298.093 156.021 300.596 176.2 305.547C176.203 305.548 176.206 305.548 176.209 305.549L199.353 311.658C217.934 316.563 236.852 320.091 255.953 322.214L264.813 323.198L265.771 323.198C290.207 323.198 314.545 320.092 338.198 313.953L337.947 312.985L338.266 313.933L375.22 301.503Z" fill="black"/>
<path d="M1.76953 135.978C1.76953 136.597 3.15553 136.906 5.46553 136.906C13.4735 136.906 38.8835 138.53 47.5845 139.613C63.2925 141.547 68.2205 142.552 105.72 151.215C175.097 167.226 196.195 167.304 244.32 151.989C272.81 142.862 288.672 140 310.155 140C332.254 140 354.507 142.862 407.559 152.376C437.05 157.713 462.229 160.961 462.229 159.492C462.229 159.028 460.767 158.486 458.996 158.254C443.673 156.398 422.19 153.149 402.324 149.591C352.967 140.851 340.338 139.226 315.545 138.685C288.826 138.066 273.195 140.387 245.86 149.204C194.886 165.525 175.482 165.602 108.8 149.978C73.0715 141.547 62.3685 139.536 43.3495 137.37C28.9505 135.668 1.76953 134.817 1.76953 135.978Z" fill="black"/>
</g>
<path d="M441.15 218.016H293.121V329.453H441.15V218.016Z" fill="white"/>
<path fill-rule="evenodd" clip-rule="evenodd" d="M437.638 221.325H296.391V326.112H437.638V221.325ZM441.029 218V329.438H293V218H441.029Z" fill="#0070F3"/>
<path d="M357.954 285.857C357.988 274.129 360.97 270.494 366.476 266.96C370.81 264.195 374.104 261.497 374.104 257.272C374.104 253.047 370.843 250.416 366.755 250.416C362.667 250.416 358.959 253.326 358.848 258.131H342.898C343.111 243.593 353.855 237.127 366.889 237.127C381.174 237.127 391.539 243.905 391.539 256.47C391.539 264.742 387.138 269.758 380.482 273.66C375.244 276.771 372.719 279.714 372.719 285.835V287.25H357.954V285.835V285.857ZM356.603 300.974C356.536 296.058 360.623 292.078 365.616 292.078C370.608 292.078 374.562 296.058 374.629 300.974C374.562 305.958 370.363 309.971 365.616 309.971C360.623 309.971 356.536 305.958 356.603 300.974Z" fill="#0070F3"/>
<defs>
<clipPath id="clip0_35_1043">
<rect width="462" height="351.935" fill="white" transform="translate(1)"/>
</clipPath>
</defs>
</svg>
