<svg width="60" height="42" viewBox="0 0 60 42" fill="none" xmlns="http://www.w3.org/2000/svg">
<path d="M34.9973 18.4051C34.9596 20.2686 34.3557 21.7323 32.997 22.9077C32.2853 23.5232 31.4388 23.9328 30.4629 24.1048C30.2229 24.146 30.1529 24.1945 30.3065 24.415C30.6058 24.8464 30.5195 25.0984 30.0558 25.365C29.9965 25.3989 29.9264 25.4886 29.9345 25.5443C30.0423 26.2131 29.6865 26.7608 29.3468 27.2988C29.0529 27.7617 28.7968 28.2124 28.8588 28.7674C28.8669 28.8376 28.7429 28.9225 28.6809 29C28.6135 28.9225 28.503 28.8498 28.4895 28.7649C28.4032 28.2269 28.5569 27.7399 28.8696 27.277C29.1123 26.9183 29.3306 26.5403 29.5059 26.1526C29.5894 25.9684 29.5625 25.7357 29.5382 25.5298C29.5301 25.4692 29.3657 25.3868 29.2632 25.3771C28.5866 25.3141 28.379 25.0015 28.6863 24.4804C28.8427 24.2139 28.8103 24.1678 28.4895 24.1072C27.2171 23.8601 26.2061 23.2373 25.3947 22.3382C24.8124 21.6912 24.3999 20.9472 24.2112 20.1426C24.0036 19.2629 23.9039 18.3784 24.1249 17.4551C24.3783 16.3961 24.8258 15.4558 25.613 14.6513C26.3975 13.8492 27.3303 13.2554 28.5488 13.1149C28.8238 13.0834 29.0961 13.0058 29.3711 13.001C30.5977 12.9792 31.7003 13.3184 32.6546 14.0091C33.7491 14.8015 34.4204 15.8533 34.8005 17.048C34.9569 17.5424 34.9542 18.0755 35 18.4099L34.9973 18.4051ZM24.4592 18.5723C24.3676 19.3235 24.5347 20.0384 24.842 20.7048C25.5322 22.2025 26.6429 23.3245 28.4814 23.7074C29.8455 23.9909 31.1045 23.7534 32.2233 23.0022C33.3636 22.234 34.0645 21.2137 34.3827 19.956C34.6388 18.9406 34.6226 17.9325 34.3126 16.9462C33.9837 15.8969 33.3636 14.9881 32.3904 14.2975C31.0479 13.3451 29.5355 13.1197 27.9476 13.6093C26.5512 14.0382 25.5942 14.9784 24.9876 16.1635C24.5994 16.9196 24.3568 17.7314 24.4592 18.5747V18.5723ZM29.4924 25.0887C29.6892 24.9772 29.9345 24.9142 30.0127 24.7761C30.1016 24.6161 29.7215 24.2648 29.5139 24.2599C29.2821 24.2526 28.9316 24.5749 29.0098 24.7955C29.0529 24.9166 29.301 24.9796 29.4897 25.0887H29.4924Z" fill="black"/>
</svg>
