<svg width="60" height="42" viewBox="0 0 60 42" fill="none" xmlns="http://www.w3.org/2000/svg">
<path d="M30.0441 35.9854C22.1453 36.3571 14.9226 29.5906 15.0006 20.9293C15.0721 12.692 21.4594 5.93846 30.0539 6.00042C38.4955 6.06238 44.9608 12.467 44.9998 21.0271C45.0388 29.6884 37.9884 36.2397 30.0441 35.9854ZM44.1384 20.9847C44.2002 13.2366 38.0502 6.82872 30.0376 6.78306C22.1063 6.73741 15.914 13.1779 15.849 20.8804C15.7775 28.9123 22.2233 35.2549 29.9368 35.2973C37.6764 35.3397 44.2912 28.9873 44.1417 20.9847H44.1384Z" fill="black"/>
<path d="M35.8484 26.9968C35.8962 26.2408 35.9648 25.4816 35.9887 24.7256C36.0006 24.3445 36.0632 23.7333 35.8842 23.6231C35.5501 23.4183 35.0459 23.4278 34.6342 23.4939C34.2792 23.5506 33.9511 23.8152 33.5036 24.042C33.7035 22.9647 34.0436 22.0354 33.9779 21.1376C33.9391 20.6147 33.2709 20.1296 32.8502 19.6602C32.5937 19.3736 32.2774 19.1531 32 18.7782C33.4797 19.1373 34.5746 18.5924 35.4606 17.4331C35.5382 17.3323 35.7291 17.2945 35.8693 17.2851C37.1999 17.2032 37.2059 17.2158 38.4111 16.192C38.6438 15.9935 38.7154 15.8549 38.8944 16.2676C39.0674 16.6676 39.4195 16.9827 39.679 17.3449C39.8133 17.5339 40.0042 17.7387 40.0191 17.9497C40.04 18.2616 39.7834 18.7593 39.8998 18.8633C40.2548 19.1814 40.7261 19.3578 41.1587 19.572C41.4332 19.7075 41.7196 19.8146 42 19.9343C41.7106 20.0698 41.4004 20.1706 41.1378 20.3501C40.9051 20.5076 40.6903 20.725 40.5263 20.9612C40.386 21.1628 40.386 21.4842 40.2309 21.6574C39.5358 22.4292 39.5149 22.426 40.1951 23.2419C40.5113 23.6231 40.6545 23.9318 40.0996 24.2027C39.685 24.4043 39.3866 24.6311 39.3747 25.2391C39.3598 26.0896 38.8109 26.3952 38.0382 26.2188C37.2059 26.0266 36.4988 26.1715 35.8484 27V26.9968Z" fill="black"/>
</svg>
