<svg width="60" height="42" viewBox="0 0 60 42" fill="none" xmlns="http://www.w3.org/2000/svg">
<path fill-rule="evenodd" clip-rule="evenodd" d="M37.2395 23.9296C37.7371 23.9385 38.2468 23.9475 38.7864 23.689V23.685C38.6769 23.6306 38.5965 23.5921 38.5341 23.5622C38.4398 23.5171 38.3866 23.4916 38.3363 23.461C35.6258 21.7687 32.9173 20.0764 30.2109 18.38C29.9582 18.2224 29.8116 17.4725 29.8205 16.8418L29.8484 10.2579L29.1275 10V10.8512C29.1275 11.4149 29.1247 11.9787 29.1219 12.5426C29.1149 13.9692 29.1079 15.3962 29.1458 16.8221C29.1682 17.6224 28.9992 18.1458 28.26 18.5999C27.1305 19.2944 26.0427 20.0572 24.9556 20.8195C24.5412 21.1101 24.127 21.4006 23.7105 21.6872C22.8817 22.2574 22.0569 22.8297 21.2383 23.4141C21.1636 23.4677 21.1153 23.5582 21.0669 23.6487C21.0454 23.6891 21.0239 23.7294 21 23.7664C21.0467 23.7838 21.093 23.8055 21.1392 23.8272C21.2338 23.8716 21.3278 23.9157 21.4236 23.9212C21.8329 23.9436 22.2443 23.9538 22.6536 23.9232C23.1199 23.8907 23.2503 24.0739 23.2442 24.5281C23.2343 25.3708 23.2363 26.2132 23.2383 27.0554C23.2408 28.122 23.2434 29.1883 23.2218 30.2546C23.2096 30.8655 23.4152 31.004 23.9936 30.9999C26.872 30.9828 29.7504 30.9847 32.6288 30.9865C33.528 30.9871 34.4272 30.9877 35.3264 30.9877C36.1532 30.9877 36.1634 30.9775 36.1634 30.1751C36.1634 29.5595 36.1632 28.9438 36.163 28.3281C36.1625 27.0967 36.1621 25.8653 36.1634 24.634C36.1634 24.4906 36.1722 24.3473 36.1806 24.2114C36.1849 24.1408 36.1892 24.0722 36.1919 24.0067C36.5393 23.9171 36.8864 23.9233 37.2395 23.9296ZM35.3264 23.2471V30.1589L35.3285 30.1609H24.0852C24.081 30.0669 24.0754 29.9766 24.0701 29.8887C24.0601 29.7254 24.0506 29.5705 24.0506 29.4156C24.05 29.1581 24.0494 28.9007 24.0487 28.6431C24.0447 27.0958 24.0407 25.5472 24.0547 23.9986C24.0588 23.465 24.0465 23.0068 23.232 23.1657C23.235 23.1382 23.2376 23.1107 23.2401 23.0832C23.2426 23.0557 23.2452 23.0282 23.2482 23.0007C23.4006 22.8898 23.5522 22.7776 23.7038 22.6655C24.0364 22.4194 24.3691 22.1733 24.7104 21.9397C24.8747 21.8275 25.0388 21.7151 25.203 21.6027C26.4151 20.7733 27.6275 19.9435 28.8668 19.1579C29.1173 18.9991 29.6162 18.9624 29.8586 19.107C31.4626 20.0634 33.0433 21.0581 34.6243 22.053C34.9723 22.2719 35.3203 22.4909 35.6686 22.7095C35.7549 22.7639 35.8282 22.8383 35.9133 22.9246C35.9588 22.9707 36.0076 23.0202 36.0636 23.072C35.9306 23.1031 35.81 23.132 35.6851 23.1618C35.573 23.1887 35.4575 23.2163 35.3264 23.2471Z" fill="black"/>
<path d="M29.5 10H35.5V15H29.5" stroke="black" stroke-width="0.7" stroke-linecap="round" stroke-linejoin="round"/>
</svg>
