<svg width="464" height="352" viewBox="0 0 464 352" fill="none" xmlns="http://www.w3.org/2000/svg">
<path d="M350.882 182.536C348.032 181.415 345.222 180.604 342.696 179.24C336.577 175.957 332.362 170.878 329.62 164.502C327.053 158.531 326.621 152.277 327.391 146.008C328.053 140.605 330.065 135.553 333.429 131.108C336.388 127.191 339.913 124.003 344.425 122.071C352.814 118.491 360.825 119.112 368.511 124.246C374.563 128.285 378.494 133.905 380.534 140.659C381.939 145.306 382.547 150.169 381.791 155.235C381.115 159.747 379.98 163.962 377.805 167.893C375.698 171.689 372.807 174.809 369.308 177.457C366.282 179.74 362.892 180.996 359.312 181.928C358.258 182.198 358.245 182.631 358.623 183.482C359.866 186.184 359.731 186.697 357.623 188.683C357.286 188.993 356.921 189.534 356.961 189.925C357.38 193.857 355.313 196.977 353.517 200.084C352.166 202.408 351.355 204.718 351.504 207.379C351.517 207.662 351.571 208 351.436 208.203C351.22 208.527 350.882 208.959 350.572 208.973C350.288 208.986 349.856 208.568 349.721 208.243C348.856 206.19 349.288 204.096 350.112 202.205C351.18 199.76 352.666 197.504 353.814 195.086C354.557 193.505 355.381 191.817 354.557 189.993C354.381 189.601 353.962 189.142 353.584 189.047C349.626 188.007 349.194 187.224 350.585 183.441C350.707 183.131 350.801 182.82 350.896 182.523L350.882 182.536ZM380.021 151.642C379.953 146.238 378.9 141.429 376.752 136.836C372.699 128.231 363.175 120.571 351.504 122.233C346.992 122.868 343.047 124.584 339.643 127.528C334.956 131.581 331.754 136.539 330.268 142.631C329.16 147.143 328.552 151.547 329.498 156.221C330.673 162.057 332.794 167.312 336.698 171.837C339.819 175.458 343.655 178.2 348.181 179.362C351.49 180.213 354.989 180.591 358.637 179.821C363.311 178.835 367.242 176.849 370.632 173.661C377.049 167.609 379.791 159.963 380.021 151.642ZM354.597 187.048C355.665 186.697 356.529 186.413 357.394 186.143C357.029 185.319 356.664 184.481 356.3 183.657C356.259 183.563 356.164 183.482 356.083 183.401C355.273 182.455 353.935 182.347 353.247 183.374C352.72 184.157 352.22 185.197 352.328 186.035C352.382 186.467 353.814 186.724 354.597 187.048Z" fill="black"/>
<path d="M249.271 257.919C249.082 268.307 246.056 276.467 239.247 283.018C235.681 286.45 231.439 288.733 226.549 289.692C225.347 289.921 224.996 290.192 225.766 291.421C227.265 293.825 226.833 295.23 224.509 296.716C224.212 296.905 223.861 297.405 223.901 297.716C224.442 301.444 222.659 304.497 220.957 307.496C219.484 310.076 218.201 312.589 218.511 315.683C218.552 316.074 217.931 316.547 217.62 316.979C217.282 316.547 216.728 316.142 216.661 315.669C216.228 312.67 216.998 309.955 218.565 307.375C219.781 305.375 220.875 303.268 221.754 301.107C222.172 300.08 222.037 298.783 221.916 297.635C221.875 297.297 221.051 296.838 220.538 296.784C217.147 296.433 216.107 294.69 217.647 291.786C218.43 290.3 218.268 290.043 216.661 289.705C210.285 288.327 205.219 284.856 201.153 279.844C198.235 276.237 196.168 272.09 195.222 267.605C194.182 262.701 193.682 257.771 194.79 252.624C196.06 246.72 198.302 241.479 202.247 236.994C206.178 232.523 210.852 229.213 216.958 228.429C218.336 228.254 219.7 227.822 221.078 227.795C227.225 227.673 232.75 229.564 237.532 233.414C243.016 237.832 246.38 243.694 248.285 250.354C249.068 253.11 249.055 256.082 249.284 257.946L249.271 257.919ZM196.465 258.851C196.006 263.039 196.843 267.024 198.383 270.739C201.842 279.087 207.407 285.342 216.62 287.476C223.456 289.057 229.764 287.733 235.37 283.545C241.085 279.263 244.597 273.576 246.191 266.565C247.474 260.905 247.393 255.285 245.84 249.787C244.192 243.938 241.085 238.872 236.208 235.022C229.481 229.713 221.902 228.456 213.945 231.185C206.948 233.576 202.152 238.818 199.113 245.424C197.168 249.638 195.952 254.164 196.465 258.865V258.851ZM221.686 295.176C222.672 294.555 223.901 294.204 224.293 293.434C224.739 292.542 222.834 290.583 221.794 290.556C220.632 290.516 218.876 292.312 219.268 293.542C219.484 294.217 220.727 294.568 221.673 295.176H221.686Z" fill="black"/>
<path d="M220.891 178.349C220.188 178.051 219.459 177.606 218.662 177.416C212.934 176.066 209.152 172.256 206.18 167.487C203.775 163.637 202.681 159.342 202.627 154.884C202.519 145.036 207.247 134.931 218 131.054C223.336 129.123 228.537 129.92 233.4 132.648C238.303 135.404 241.424 139.673 243.599 144.874C245.517 149.453 245.625 154.208 244.869 158.774C243.491 167.163 239.019 173.661 230.847 177.079C229.982 177.443 229.023 177.592 228.118 177.862C227.118 178.159 226.929 178.835 227.429 179.686C228.199 181.023 227.713 181.982 226.686 182.914C226.267 183.293 225.781 183.928 225.808 184.427C225.97 187.426 224.457 189.844 223.066 192.236C222.147 193.816 221.674 195.356 221.715 197.153C221.728 197.734 221.242 198.328 220.972 198.922C220.661 198.314 220.202 197.734 220.08 197.085C219.621 194.451 221.066 192.384 222.201 190.196C223.093 188.494 224.457 186.886 224.011 184.752C223.917 184.306 223.538 183.711 223.147 183.563C219.891 182.28 219.783 182.117 220.904 178.821C220.931 178.727 220.891 178.605 220.864 178.349H220.891ZM243.693 154.316C243.342 152.006 243.194 149.642 242.586 147.413C241.478 143.32 239.492 139.632 236.25 136.796C233.535 134.418 230.468 132.837 226.767 132.148C223.795 131.595 220.931 131.797 218.351 132.77C208.409 136.539 204.275 145.752 204.329 154.735C204.356 158.504 205.275 162.26 207.152 165.704C210.178 171.27 214.609 174.985 220.81 176.403C227.051 177.822 236.156 173.742 239.452 168.149C241.951 163.908 243.842 159.463 243.68 154.316H243.693ZM223.903 182.401C224.66 181.672 225.511 181.226 225.619 180.659C225.794 179.753 225.322 178.902 224.119 178.875C222.809 178.848 222.282 179.807 222.133 180.753C222.079 181.118 223.066 181.658 223.903 182.401Z" fill="black"/>
<path d="M106.094 285.426C106.067 285.655 105.959 285.871 106.026 285.979C107.256 287.898 106.932 289.438 105 290.681C104.757 290.843 104.608 291.369 104.649 291.707C104.959 294.652 103.46 297.016 102.095 299.38C101.15 301.028 100.339 302.595 100.542 304.581C100.596 305.04 100.137 305.554 99.9069 306.04C99.5827 305.54 98.9208 305 98.9748 304.541C99.164 302.906 99.3936 301.217 99.961 299.677C100.569 298.07 101.758 296.692 102.366 295.084C102.798 293.936 102.744 292.585 102.798 291.329C102.798 291.113 102.339 290.735 102.028 290.654C99.2585 289.87 98.7992 288.992 99.8259 286.331C99.9205 286.074 100.002 285.817 99.9475 285.979C96.908 284.426 93.8415 283.183 91.1397 281.4C87.4248 278.941 85.1824 275.227 83.3857 271.147C81.3594 266.554 81.4269 261.745 82.0483 257.071C82.4941 253.748 83.9666 250.397 85.6282 247.425C87.668 243.792 90.775 241.009 94.6655 239.199C103.068 235.295 111.416 237.469 117.333 243.724C121.251 247.871 123.493 252.788 123.98 258.705C124.628 266.405 122.723 273.038 117.617 278.779C114.713 282.035 111.092 284.142 106.85 285.21C106.594 285.277 106.324 285.358 106.08 285.439L106.094 285.426ZM83.4127 262.907C83.3047 268.31 85.7903 274.038 90.5724 278.806C95.7057 283.94 104.27 285.101 110.484 282.035C116.955 278.833 120.683 273.416 121.994 266.5C123.345 259.367 122.088 252.667 117.63 246.655C112.2 239.32 102.122 236.564 93.9496 241.59C86.6143 246.102 83.4397 253.032 83.4262 262.907H83.4127ZM102.987 289.424C103.865 288.776 104.446 288.344 105.013 287.911C104.351 287.249 103.689 286.587 103.041 285.925C102.433 286.547 101.825 287.168 101.217 287.79C101.731 288.262 102.244 288.735 102.987 289.424Z" fill="black"/>
<path d="M375.427 57.4306C375.737 65.2656 372.968 71.3311 367.956 76.3969C365.579 78.7879 362.634 80.4495 359.324 81.3276C357.406 81.8409 357.203 82.1381 357.96 84.0293C358.432 85.2181 357.825 85.8935 357.109 86.6635C356.69 87.1093 356.122 87.6902 356.109 88.2171C356.055 91.2565 354.569 93.7016 353.191 96.2683C352.475 97.6192 352.475 99.3483 352.043 100.875C351.881 101.469 351.435 101.982 351.111 102.536C350.868 101.982 350.516 101.442 350.381 100.861C349.679 97.6597 351.962 95.4307 353.069 92.81C353.596 91.5402 354.083 90.2163 354.285 88.879C354.353 88.3792 353.664 87.447 353.124 87.2444C350.462 86.2178 350.206 85.7449 351.016 83.0972C351.124 82.7595 350.651 81.9895 350.273 81.8139C348.314 80.8818 346.194 80.2739 344.329 79.1932C339.047 76.0862 335.711 71.4527 334.117 65.5358C333.239 62.2802 332.523 59.0111 332.968 55.6069C333.995 47.8528 337.048 41.2471 343.911 36.9513C350.017 33.1418 356.393 32.8176 362.904 35.9651C367.929 38.3967 371.252 42.4628 373.414 47.4206C374.859 50.7437 375.953 54.2695 375.399 57.4711L375.427 57.4306ZM373.873 56.2013C374.265 53.1753 372.59 49.0686 370.374 45.2051C367.537 40.2609 363.242 36.8432 357.676 35.8165C350.557 34.5197 344.451 37.0188 339.979 42.733C335.724 48.1771 333.819 54.3776 334.954 61.3886C336.184 68.9535 339.642 74.9244 346.666 78.4637C352.853 81.5842 358.878 80.9358 364.417 77.0183C370.996 72.3713 373.724 65.6979 373.873 56.1878V56.2013ZM352.124 84.7453C353.961 85.5963 355.906 85.5018 355.893 84.6642C355.893 83.8807 355.434 82.6244 354.88 82.4353C353.042 81.8274 352.907 83.6376 352.124 84.7453Z" fill="black"/>
<path d="M219.362 84.529C214.985 83.678 211.419 81.4625 208.582 78.1258C206.178 75.316 204.448 72.128 203.895 68.4401C203.53 66.022 203.057 63.5229 203.273 61.1183C204.057 52.6753 208.177 44.6916 217.66 42.0169C224.252 40.1527 230.466 41.9899 235.194 47.3934C239.463 52.2701 241.435 58.0113 240.976 64.4144C240.422 72.0604 237.261 78.3825 230.453 82.4216C229.034 83.2592 227.386 83.759 225.819 84.2994C224.982 84.5965 224.658 85.0018 225.144 85.7718C225.873 86.9336 225.509 87.8792 224.698 88.8248C224.387 89.1895 224.09 89.6488 224.009 90.0946C223.617 92.6208 222.604 94.8632 221.348 97.0787C220.659 98.2944 220.497 99.8074 220.186 101.212C220.024 101.928 220.402 102.982 219.227 102.941C219.011 102.941 218.741 101.78 218.633 101.145C218.254 98.8483 219.673 97.1057 220.551 95.2009C221.132 93.9446 221.699 92.6613 222.199 91.378C222.591 90.3783 222.199 89.5948 221.213 89.1895C218.43 88.0413 218.417 88.0548 219.389 85.1639C219.416 85.0694 219.389 84.9478 219.362 84.5695V84.529ZM221.902 82.8539C227.63 83.1241 231.871 80.5844 235.059 76.0995C238.774 70.8581 240.341 65.198 238.909 58.7137C237.68 53.1616 235.154 48.6362 230.385 45.4211C226.427 42.7464 221.942 42.2466 217.674 43.638C210.149 46.0966 206.286 52.0404 205.029 59.5783C204.367 63.5634 204.813 67.6025 206.38 71.466C208.866 77.6395 214.715 83.3402 221.915 82.8539H221.902ZM224.212 87.2578C223.698 86.4608 223.523 85.8799 223.145 85.6772C222.631 85.4071 221.861 85.2044 221.375 85.4071C220.943 85.5827 220.754 86.3527 220.456 86.8525C220.956 87.0957 221.442 87.4739 221.969 87.5279C222.577 87.5955 223.226 87.3794 224.198 87.2443L224.212 87.2578Z" fill="black"/>
<path d="M105.19 176.686C106.312 178.429 106.271 179.779 105.028 181.063C104.772 181.319 104.515 181.725 104.515 182.062C104.501 184.899 102.813 187.061 101.732 189.492C100.976 191.181 100.678 193.072 100.044 195.328C99.6653 194.653 99.1519 194.139 99.0844 193.572C98.8142 191.329 99.9219 189.492 100.908 187.588C101.732 185.98 102.245 184.224 102.772 182.481C102.853 182.198 102.34 181.455 101.975 181.347C99.6653 180.631 99.1249 179.725 99.8409 177.415C99.8949 177.213 99.9895 177.037 100.03 176.929C97.6525 175.794 95.2074 174.93 93.0865 173.579C88.9258 170.931 86.3861 167 84.9272 162.313C83.6168 158.098 83.3332 153.843 84.3598 149.574C85.9133 143.198 89.304 137.943 95.2884 135.065C99.4491 133.066 103.866 132.499 108.554 134.485C115.416 137.389 119.199 142.522 120.793 149.479C121.347 151.897 121.631 154.491 121.428 156.95C120.698 165.312 116.902 171.782 109.04 175.403C107.892 175.929 106.636 176.227 105.231 176.686H105.19ZM119.78 154.559C120.199 150.155 118.591 145.899 115.876 142.09C112.769 137.727 108.459 134.984 103.069 134.917C97.0175 134.836 92.2219 137.727 88.9798 142.847C85.2109 148.79 84.3058 155.18 86.5347 161.961C88.5205 167.986 92.0598 172.525 98.3279 174.362C104.231 176.092 109.513 174.66 113.836 170.31C118.024 166.109 120.023 160.962 119.78 154.572V154.559ZM102.705 180.104C103.407 179.442 103.799 179.05 104.204 178.672C103.704 178.185 103.259 177.429 102.678 177.307C102.326 177.226 101.556 178.037 101.367 178.577C101.273 178.834 102.083 179.415 102.705 180.117V180.104Z" fill="black"/>
<path d="M100.193 98.998C99.1929 96.7691 100.044 95.1615 100.841 93.5675C101.368 92.5138 101.989 91.5142 102.503 90.4605C103.083 89.2987 103.016 88.3261 101.584 87.7857C100.368 87.3264 99.6117 86.6105 100.233 85.084C100.341 84.8138 99.6657 83.8817 99.2199 83.7601C93.8029 82.2472 90.7905 78.5728 88.7101 73.4664C86.2245 67.3605 87.4268 61.7949 90.6824 56.7156C94.4378 50.8933 100.841 48.5157 107.568 51.0014C112.256 52.7305 115.174 56.3373 116.7 61.0114C118.429 66.3068 118.105 71.5347 115.322 76.4114C113.337 79.9101 110.527 82.5308 106.515 83.6791C106.001 83.8277 105.407 84.4356 105.231 84.9624C104.542 87.0968 104.083 89.3122 103.381 91.4466C102.651 93.6486 100.895 95.4722 101.044 97.9984C101.057 98.2415 100.611 98.5117 100.193 98.9845V98.998ZM116.146 66.4959C116.592 62.8486 115.052 59.1066 112.215 55.851C107.663 50.6366 99.5577 49.8261 94.3973 54.5947C89.318 59.2822 87.9806 65.064 89.6017 71.6833C90.6554 75.9656 92.9384 79.2617 96.8424 81.4096C100.03 83.1657 103.489 83.49 106.744 82.1526C113.256 79.4508 116.295 74.2905 116.146 66.4959ZM102.732 84.1384C102.232 84.9084 101.881 85.3542 101.665 85.8675C101.638 85.935 102.313 86.5024 102.543 86.4349C102.948 86.3268 103.462 85.935 103.543 85.5838C103.61 85.2731 103.151 84.8408 102.732 84.1384Z" fill="black"/>
<path d="M441.15 218.016H293.121V329.453H441.15V218.016Z" fill="white"/>
<path fill-rule="evenodd" clip-rule="evenodd" d="M437.638 221.325H296.391V326.112H437.638V221.325ZM441.029 218V329.438H293V218H441.029Z" fill="#0070F3"/>
<path d="M357.954 285.857C357.988 274.129 360.97 270.494 366.476 266.96C370.81 264.195 374.104 261.497 374.104 257.272C374.104 253.047 370.843 250.416 366.755 250.416C362.667 250.416 358.959 253.326 358.848 258.131H342.898C343.111 243.593 353.855 237.127 366.889 237.127C381.174 237.127 391.539 243.905 391.539 256.47C391.539 264.742 387.138 269.758 380.482 273.66C375.244 276.771 372.719 279.714 372.719 285.835V287.25H357.954V285.835V285.857ZM356.603 300.974C356.536 296.058 360.623 292.078 365.616 292.078C370.608 292.078 374.562 296.058 374.629 300.974C374.562 305.958 370.363 309.971 365.616 309.971C360.623 309.971 356.536 305.958 356.603 300.974Z" fill="#0070F3"/>
</svg>
