<svg width="36" height="45" viewBox="0 0 36 45" fill="none" xmlns="http://www.w3.org/2000/svg">
<path fill-rule="evenodd" clip-rule="evenodd" d="M4 0C1.79086 0 0 1.79086 0 4V41C0 43.2091 1.79086 45 4 45H32C34.2091 45 36 43.2091 36 41V4C36 1.79086 34.2091 0 32 0H4ZM19.6822 11.1548C18.8945 9.93384 17.1088 9.93384 16.321 11.1548L9.70115 21.4157C9.27528 22.0758 9.27528 22.9241 9.70115 23.5842L16.321 33.845C17.1088 35.066 18.8945 35.066 19.6822 33.845L26.3021 23.5842C26.728 22.9241 26.728 22.0758 26.3021 21.4157L19.6822 11.1548Z" fill="black"/>
</svg>
