<svg width="464" height="352" viewBox="0 0 464 352" fill="none" xmlns="http://www.w3.org/2000/svg">
<path d="M227.609 321.388C220.801 321.388 213.993 321.32 207.198 321.402C200.052 321.496 194.054 319.046 189.407 313.617C187.353 311.221 185.773 308.432 185.178 305.304C184.679 302.678 184.368 299.984 184.354 297.317C184.273 285.43 184.327 273.543 184.314 261.643C184.314 254.454 186.867 248.47 192.46 243.84C196.404 240.577 200.97 239.101 206.009 239.088C220.409 239.047 234.81 239.088 249.197 239.061C255.438 239.047 260.72 241.349 265.015 245.735C267.541 248.307 269.514 251.394 270.068 255.077C270.513 257.987 270.878 260.952 270.892 263.89C270.986 275.614 270.892 287.339 270.946 299.05C270.973 304.885 269.149 310.029 265.285 314.334C262.354 317.597 258.734 319.939 254.33 320.657C251.75 321.077 249.115 321.307 246.508 321.347C240.213 321.442 233.905 321.374 227.609 321.374V321.388ZM227.596 319.073C227.596 319.073 227.596 319.127 227.596 319.141C234.512 319.141 241.429 319.127 248.345 319.141C251.223 319.141 253.938 318.721 256.707 317.719C262.921 315.485 268.663 307.85 268.663 301.148C268.663 287.731 268.663 274.328 268.717 260.912C268.717 257.947 268.271 255.131 266.961 252.45C263.921 246.236 259.085 242.418 252.182 241.511C249.629 241.173 247.035 241.091 244.455 241.078C232.527 241.037 220.612 240.97 208.684 241.118C205.59 241.159 202.456 241.701 199.444 242.445C192.811 244.083 186.664 251.976 186.61 259.138C186.516 273.34 186.597 287.542 186.61 301.73C186.61 302.285 186.57 302.881 186.732 303.409C187.772 306.915 189.191 310.192 191.811 312.926C195.175 316.433 199.147 318.829 203.983 318.965C211.845 319.195 219.72 319.032 227.596 319.032V319.073Z" fill="black"/>
<path d="M360.037 134.537C367.238 134.537 374.438 134.564 381.625 134.537C389.554 134.496 395.485 138.152 399.875 144.488C401.996 147.547 403.171 151.081 403.198 154.804C403.266 168.884 403.428 182.977 403.09 197.044C402.928 203.664 399.47 208.904 394.039 212.816C389.865 215.835 385.245 216.81 380.193 216.783C366.36 216.702 352.527 216.756 338.694 216.756C330.197 216.756 323.82 213.046 319.471 205.749C317.593 202.608 316.742 199.196 316.728 195.582C316.701 182.233 316.661 168.884 316.728 155.521C316.782 147.29 320.957 141.279 327.725 137.15C330.615 135.39 333.979 134.428 337.572 134.483C345.043 134.604 352.527 134.523 360.01 134.523L360.037 134.537ZM359.781 214.481C367.197 214.481 374.627 214.427 382.043 214.495C386.528 214.536 390.473 213.141 393.863 210.312C398.065 206.805 400.847 202.31 400.915 196.76C401.077 182.517 400.996 168.261 400.915 154.005C400.902 151.121 399.834 148.427 398.281 146.044C394.363 140.033 388.933 136.716 381.557 136.757C367.049 136.838 352.554 136.798 338.045 136.757C335.452 136.757 332.993 137.15 330.602 138.246C323.591 141.468 319.255 146.87 319.065 154.574C318.714 168.478 318.944 182.395 318.971 196.313C318.971 200.361 320.376 203.948 322.915 207.062C326.806 211.841 331.696 214.549 338.005 214.481C345.259 214.4 352.513 214.468 359.754 214.468L359.781 214.481Z" fill="black"/>
<path d="M381.774 190.911C387.38 190.586 390.825 195.351 390.649 199.859C390.433 205.261 386.691 208.632 381.571 208.605C376.708 208.578 372.912 204.977 372.872 199.751C372.818 194.552 376.884 190.477 381.787 190.911H381.774Z" fill="black"/>
<path d="M349.149 176.033C348.933 171.227 352.985 167.179 357.632 166.962C362.941 166.719 366.832 171.376 366.967 175.6C367.129 180.744 362.712 184.63 358.537 184.901C353.674 185.212 348.987 181.002 349.149 176.033Z" fill="black"/>
<path d="M325.942 199.602C325.591 195.31 329.913 190.558 334.831 190.842C339.883 191.14 343.787 194.66 343.773 199.588C343.76 204.435 339.991 208.523 334.925 208.591C329.913 208.659 325.766 204.611 325.942 199.602Z" fill="black"/>
<path d="M225.774 264.162C220.587 264.351 216.804 259.829 216.777 255.213C216.75 250.434 220.817 246.48 225.531 246.264C230.003 246.047 234.69 250.325 234.663 255.307C234.636 260.059 230.273 264.487 225.774 264.162Z" fill="black"/>
<path d="M234.566 280.326C234.714 285.579 230.81 289.248 225.717 289.397C221.03 289.533 216.842 285.376 216.747 280.665C216.666 276.36 220.098 271.648 225.636 271.621C230.932 271.594 234.863 276.075 234.552 280.326H234.566Z" fill="black"/>
<path d="M240.553 280.394C240.377 276.184 243.998 271.526 249.644 271.635C255.021 271.729 258.466 276.048 258.412 280.367C258.331 285.742 254.521 289.275 249.644 289.384C244.538 289.492 240.661 286.04 240.553 280.394Z" fill="black"/>
<path d="M240.566 304.072C240.741 298.359 244.956 295.15 249.616 295.259C255.047 295.38 258.748 299.767 258.397 304.614C258.059 309.271 254.723 313.129 249.076 313.075C244.105 313.021 240.147 308.242 240.566 304.072Z" fill="black"/>
<path d="M202.632 313.021C197.891 313.197 194.054 309.528 193.622 305.047C193.095 299.537 197.391 295.367 202.227 295.245C206.969 295.137 210.994 298.305 211.373 303.625C211.71 308.377 208.009 313.17 202.632 313.021Z" fill="black"/>
<path d="M105.384 112.197C97.6295 112.197 89.862 112.467 82.1079 112.115C74.0027 111.75 68.0993 107.553 64.3574 100.296C62.6688 97.0334 62.0609 93.5947 62.0744 89.9393C62.1285 77.159 62.0474 64.3651 62.115 51.5848C62.1555 42.8661 66.3027 36.5436 73.7865 32.3602C76.6909 30.7356 79.8925 29.9639 83.2157 29.9639C98.0078 29.9368 112.786 29.815 127.578 30.0045C135.94 30.1128 142.154 34.3639 146.18 41.5799C147.869 44.599 148.693 48.0242 148.693 51.5713C148.693 64.5817 148.801 77.5922 148.639 90.6027C148.571 96.1128 146.774 101.027 142.857 105.238C138.426 110.003 133.117 112.183 126.781 112.224C119.635 112.264 112.503 112.224 105.357 112.224C105.357 112.21 105.357 112.183 105.357 112.169L105.384 112.197ZM105.465 32.2113C98.7237 32.2113 91.9693 32.2654 85.2285 32.1977C80.8516 32.1571 76.7044 32.8205 73.0301 35.3387C68.1939 38.6556 64.6681 43.1233 64.533 49.0531C64.2088 63.3497 64.4115 77.6599 64.3844 91.9701C64.3844 94.9485 65.249 97.6156 66.7215 100.201C70.4499 106.768 76.2586 110.125 83.5399 110.274C97.2513 110.558 110.976 110.355 124.688 110.355C130.334 110.355 135.522 109.15 139.871 105.184C143.708 101.704 146.261 97.4802 146.329 92.3491C146.531 78.215 146.464 64.0808 146.369 49.9331C146.342 45.9257 144.613 42.2974 142.114 39.3054C138.034 34.4181 132.671 32.0624 126.201 32.1707C119.284 32.2925 112.368 32.1977 105.451 32.1977L105.465 32.2113Z" fill="black"/>
<path d="M94.5077 71.3515C94.17 66.5724 98.9521 62.3078 103.464 62.4161C108.381 62.5379 112.366 66.6536 112.353 71.3785C112.339 76.2524 108.381 80.3545 103.248 80.3952C98.9926 80.4222 94.1429 76.2118 94.5077 71.365V71.3515Z" fill="black"/>
<path d="M94.5235 46.115C94.4695 41.0516 98.5491 37.1661 103.615 37.2879C108.681 37.4098 112.733 41.5526 112.315 46.819C111.909 51.9501 108.167 55.1452 103.25 55.1316C98.2384 55.1316 94.2668 50.9753 94.5235 46.1015V46.115Z" fill="black"/>
<path d="M71.4084 46.3851C71.0572 41.3082 75.0152 37.2602 80.2972 37.2872C85.4035 37.3143 89.0103 41.0239 89.0508 46.0331C89.1049 51.4349 85.5521 54.9956 80.2972 55.1309C75.5961 55.2528 71.2463 51.7057 71.3949 46.3851H71.4084Z" fill="black"/>
<path d="M80.0935 86.3516C85.4159 85.8642 89.1173 90.8328 89.1308 94.9891C89.1443 100.08 85.2403 104.06 80.2826 104.087C75.6086 104.114 71.5154 100.689 71.3398 95.1787C71.1912 90.7787 75.3654 85.9184 80.107 86.3516H80.0935Z" fill="black"/>
<path d="M231.451 216.615C223.413 216.615 215.375 216.804 207.337 216.547C201.326 216.358 196.665 213.122 193.005 208.573C189.519 204.241 188.249 199.15 188.29 193.613C188.371 180.995 188.263 168.377 188.344 155.759C188.371 151.319 189.925 147.325 192.451 143.629C194.666 140.38 197.611 137.997 201.056 136.413C203.325 135.37 205.986 134.707 208.486 134.68C223.994 134.518 239.529 134.314 255.037 134.707C263.453 134.91 269.464 139.838 273.085 147.311C274.26 149.735 274.827 152.673 274.868 155.38C275.043 168.892 275.111 182.417 274.868 195.942C274.733 204.105 270.68 210.211 263.615 214.286C260.278 216.209 256.658 216.791 252.889 216.777C245.743 216.764 238.61 216.777 231.464 216.777C231.464 216.737 231.464 216.682 231.464 216.642L231.451 216.615ZM231.694 136.738C224.777 136.738 217.861 136.806 210.958 136.711C207.297 136.657 203.852 137.293 200.678 139.107C194.599 142.573 190.803 147.772 190.668 154.812C190.411 168.607 190.614 182.403 190.573 196.212C190.573 199.57 191.708 202.521 193.396 205.297C197.368 211.809 203.379 214.746 210.809 214.787C224.521 214.868 238.245 214.814 251.957 214.801C256.023 214.801 259.9 214.029 263.412 211.836C268.843 208.451 272.382 203.564 272.517 197.201C272.828 182.796 272.666 168.364 272.571 153.945C272.544 150.33 270.896 147.162 268.762 144.374C264.574 138.918 258.954 136.535 252.092 136.697C245.297 136.86 238.489 136.738 231.694 136.738Z" fill="black"/>
<path d="M244.555 199.625C244.299 195.428 248.027 190.771 253.62 190.825C258.942 190.879 262.468 195.279 262.428 199.571C262.374 204.851 258.429 208.506 253.498 208.614C248.581 208.723 244.488 204.864 244.555 199.611V199.625Z" fill="black"/>
<path d="M229.706 167.092C234.637 166.794 238.541 171.33 238.622 175.648C238.73 181.01 234.272 184.895 229.747 184.868C224.749 184.827 220.858 180.834 220.764 176.041C220.669 171.722 224.249 166.916 229.706 167.092Z" fill="black"/>
<path d="M238.568 150.75C239 154.717 234.974 159.835 229.693 159.55C224.748 159.28 220.709 155.692 220.79 150.913C220.885 145.349 224.829 141.815 229.625 141.734C234.218 141.653 238.676 145.2 238.568 150.75Z" fill="black"/>
<path d="M215.388 199.799C215.402 204.741 211.403 208.585 206.473 208.667C201.758 208.748 197.732 204.605 197.597 199.894C197.462 195.223 201.245 190.796 206.405 190.85C211.808 190.891 215.24 194.546 215.402 199.799H215.388Z" fill="black"/>
<path d="M233.015 112.191C225.248 112.191 217.494 112.327 209.74 112.151C201.621 111.961 194.056 105.937 191.327 98.3822C190.247 95.3902 189.76 92.3711 189.774 89.1895C189.841 76.68 189.747 64.1705 189.828 51.6609C189.868 47.0037 191.341 42.7932 194.083 38.9077C196.933 34.8597 200.756 32.4228 205.241 30.8658C206.903 30.2972 208.727 29.9994 210.483 29.9994C225.612 29.9317 240.742 29.7963 255.872 30.04C263.329 30.1618 269.124 33.912 273.15 40.1803C275.446 43.768 276.473 47.7618 276.446 52.0671C276.378 65.2535 276.473 78.44 276.378 91.6265C276.351 95.8098 274.852 99.6006 272.528 103.107C270.691 105.855 268.287 107.927 265.504 109.524C262.694 111.122 259.628 112.191 256.318 112.205C248.55 112.218 240.796 112.205 233.029 112.205L233.015 112.191ZM233.15 32.2062C226.234 32.2062 219.317 32.2197 212.401 32.2062C208.389 32.2062 204.66 32.9508 201.175 35.1982C195.515 38.8535 192.246 43.9305 192.124 50.5778C191.895 63.3582 192.003 76.152 192.084 88.9323C192.097 91.4098 192.286 93.9686 192.908 96.3514C194.137 101.117 197.177 104.732 201.283 107.29C205.106 109.673 209.415 110.404 213.927 110.377C226.909 110.296 239.905 110.323 252.887 110.377C256.629 110.377 260.208 109.836 263.545 108.076C269.773 104.786 273.839 99.6818 274.014 92.6283C274.366 78.3317 274.136 64.0215 274.109 49.7114C274.109 46.6111 272.866 43.8628 271.259 41.3175C267.192 34.9003 261.222 32.1114 253.738 32.2062C246.875 32.2874 240.026 32.2197 233.164 32.2197L233.15 32.2062Z" fill="black"/>
<path d="M231.056 80.3357C226.139 80.4847 222.073 75.692 222.235 71.1837C222.397 66.6213 226.328 62.3296 231.516 62.3973C235.42 62.4514 240.364 66.4047 240.121 71.793C239.918 76.3013 235.649 80.6336 231.043 80.3222L231.056 80.3357Z" fill="black"/>
<path d="M240.053 46.1924C240.255 51.3776 235.933 55.2767 231.123 55.1413C226.193 55.0059 222.478 51.6078 222.302 46.3819C222.14 41.6299 225.72 37.3653 231.137 37.2841C236.149 37.2164 240.269 41.129 240.066 46.1924H240.053Z" fill="black"/>
<path d="M208.213 86.3455C213.116 86.007 217.088 90.6507 216.858 95.4568C216.629 100.493 213.089 104 207.956 104.081C203.106 104.149 199 100.06 199.067 95.0507C199.121 90.7996 202.823 85.831 208.213 86.3455Z" fill="black"/>
<path d="M359.499 112.228C352.813 112.228 346.112 112.133 339.425 112.255C332.59 112.377 326.781 110.184 322.229 105.039C319.878 102.385 317.906 99.4476 317.514 95.7787C317.19 92.719 316.852 89.6593 316.825 86.5861C316.744 74.8076 316.717 63.0291 316.825 51.2507C316.893 43.4525 320.419 37.4144 326.916 33.231C330.483 30.9294 334.495 29.887 338.79 29.9005C352.907 29.9411 367.024 29.9005 381.14 29.9276C389.016 29.9276 395.298 33.1362 399.729 39.7024C401.971 43.0193 403.281 46.7288 403.295 50.7904C403.322 64.4236 403.416 78.0704 403.241 91.7036C403.173 96.8211 401.16 101.289 397.635 105.174C393.096 110.17 387.517 112.269 380.924 112.241C373.778 112.201 366.632 112.241 359.499 112.241V112.228ZM360.296 32.1885C353.15 32.1885 346.018 32.1885 338.871 32.1885C334.967 32.1885 331.32 32.9738 327.983 35.1941C322.607 38.7682 319.23 43.615 319.122 50.0999C318.906 63.7873 319.027 77.4747 319.014 91.1621C319.014 93.6531 319.486 95.9953 320.5 98.3104C323.998 106.23 330.32 110.062 338.615 110.265C350.975 110.563 363.349 110.387 375.723 110.319C379.06 110.305 382.424 110.17 385.72 109.683C389.516 109.114 392.798 107.178 395.473 104.443C399.566 100.246 401.187 95.1424 401.106 89.2531C400.944 77.9891 401.106 66.7251 401.025 55.4611C400.998 52.4691 400.62 49.4636 400.323 46.4851C400.026 43.615 398.432 41.2864 396.676 39.2014C392.488 34.2328 387.044 32.0396 380.533 32.175C373.792 32.3104 367.037 32.2021 360.296 32.2021V32.1885Z" fill="black"/>
<path d="M357.973 80.3178C353.299 80.4396 349.084 76.3375 349.165 71.0439C349.233 66.8199 353.272 62.2304 358.311 62.3929C362.66 62.5282 367.051 66.4544 367.024 71.423C367.01 76.0396 363.012 80.5615 357.973 80.3313V80.3178Z" fill="black"/>
<path d="M325.996 95.17C325.712 90.9189 329.616 86.194 334.939 86.2346C340.167 86.2753 343.963 91.0949 343.841 95.1429C343.693 100.166 339.735 104.078 334.871 104.065C329.954 104.051 325.874 100.301 325.983 95.17H325.996Z" fill="black"/>
<path d="M105.383 134.507C112.583 134.507 119.783 134.439 126.983 134.52C134.426 134.615 140.384 137.864 144.761 143.767C147.422 147.355 148.638 151.633 148.665 156.101C148.732 169.003 148.746 181.905 148.665 194.821C148.611 202.253 145.706 208.386 139.641 212.84C135.953 215.548 131.738 216.929 127.199 216.956C112.583 217.037 97.9528 217.105 83.3363 216.956C74.1638 216.861 65.5722 210.81 63.0866 201.387C62.6273 199.627 62.3301 197.772 62.3166 195.958C62.2491 182.379 62.4112 168.8 62.2356 155.221C62.1275 146.57 69.3007 137.986 76.6224 135.793C79.3917 134.967 82.1205 134.493 84.9844 134.493C91.7928 134.52 98.6012 134.493 105.396 134.493L105.383 134.507ZM105.693 136.727C99.1145 136.727 92.5493 136.727 85.9705 136.727C82.7149 136.727 79.5133 136.903 76.4333 138.176C68.6523 141.412 64.3159 148.032 64.1673 156.304C63.9377 169.152 64.0863 182 64.1133 194.848C64.1133 199.316 65.3291 203.567 68.0444 207.032C71.9484 212.001 77.2844 214.817 83.647 214.885C98.0338 215.02 112.421 214.952 126.821 214.912C130.266 214.912 133.643 214.086 136.52 212.312C143.072 208.305 146.557 202.375 146.557 194.536C146.557 182.135 146.652 169.748 146.49 157.346C146.449 154.395 146.044 151.213 144.882 148.533C141.654 141.141 135.223 136.93 127.429 136.768C120.188 136.605 112.934 136.727 105.693 136.727Z" fill="black"/>
<path d="M71.4084 150.645C71.0572 145.731 75.9609 141.615 80.689 141.886C85.8898 142.197 89.3211 146.435 89.186 150.862C89.0239 156.142 85.3225 159.756 79.9325 159.756C75.407 159.756 71.0842 155.884 71.4084 150.645Z" fill="black"/>
<path d="M94.6851 175.731C94.1718 170.965 99.3322 166.579 103.885 166.985C109.248 167.473 112.544 171.521 112.409 176.164C112.274 180.632 109.356 184.829 103.142 184.869C99.1025 184.897 94.0637 181.025 94.6851 175.731Z" fill="black"/>
<path d="M135.912 199.816C136.061 205.164 131.468 208.833 126.726 208.657C122.039 208.481 117.973 204.419 118.121 199.437C118.27 194.861 122.16 190.746 127.442 190.813C131.941 190.867 136.371 195.308 135.912 199.816Z" fill="black"/>
<path d="M94.6854 150.686C94.2126 145.785 99.0893 141.737 103.547 141.899C109.194 142.102 112.53 146.408 112.422 150.686C112.274 156.25 108.599 159.743 103.155 159.756C98.9001 159.756 94.2126 156.209 94.6854 150.686Z" fill="black"/>
<path d="M80.1478 190.922C86.0242 190.746 88.8745 195.187 89.2528 199.817C89.604 204.136 84.9975 208.563 80.5396 208.685C75.5414 208.834 71.5022 204.542 71.3266 200.088C71.124 194.957 75.8385 190.354 80.1614 190.909L80.1478 190.922Z" fill="black"/>
<path d="M105.476 321.388C98.4515 321.388 91.4134 321.416 84.3888 321.388C75.5406 321.361 68.8672 317.503 64.5309 309.745C63.1665 307.308 62.275 304.668 62.2885 301.812C62.2885 287.502 62.1669 273.192 62.356 258.881C62.4506 251.76 66.2195 246.48 71.9607 242.513C75.365 240.171 79.2015 239.169 83.2541 239.156C98.0462 239.102 112.838 239.102 127.617 239.156C134.763 239.183 140.356 242.378 144.611 248.024C147.448 251.801 148.637 256.201 148.677 260.817C148.772 273.828 148.88 286.852 148.65 299.862C148.488 308.635 144.341 315.201 136.398 319.182C133.372 320.698 130.157 321.429 126.752 321.402C119.66 321.348 112.582 321.388 105.49 321.388H105.476ZM105.246 319.155C112.609 319.155 119.984 319.128 127.347 319.155C131.872 319.182 135.979 317.72 139.329 314.917C144.044 310.95 146.57 305.67 146.583 299.375C146.61 286.473 146.705 273.571 146.502 260.668C146.462 257.92 145.746 254.982 144.597 252.478C141.072 244.774 134.574 241.241 126.361 241.132C112.365 240.956 98.3569 241.024 84.3483 241.132C80.8495 241.16 77.3237 241.742 74.2302 243.583C67.4623 247.617 64.1932 253.737 64.1527 261.548C64.0851 274.112 64.0446 286.676 64.2067 299.24C64.2472 301.92 64.666 304.831 65.7737 307.241C69.3265 314.89 75.3244 319.168 83.9971 319.155C91.0892 319.141 98.1678 319.155 105.26 319.155H105.246Z" fill="black"/>
<path d="M80.1593 264.161C75.9851 264.445 71.23 260.302 71.2976 255.09C71.3651 250.324 76.1472 245.924 80.443 246.249C86.0762 246.669 89.1427 250.866 89.1832 255.225C89.2372 260.004 85.3737 264.283 80.1458 264.161H80.1593Z" fill="black"/>
<path d="M94.6818 280.569C94.263 275.37 98.3697 271.62 103.476 271.674C109.217 271.729 112.297 275.452 112.392 280.312C112.5 285.429 109.055 289.166 103.665 289.356C98.937 289.518 94.3711 285.985 94.6818 280.583V280.569Z" fill="black"/>
<path d="M135.914 304.18C136.211 308.675 132.294 312.994 127.322 313.075C121.986 313.156 118.109 308.742 118.109 304.329C118.109 299.13 122.081 295.218 127.187 295.258C131.848 295.285 135.846 298.44 135.9 304.18H135.914Z" fill="black"/>
<path d="M94.683 255.308C94.683 250.163 98.3574 246.291 103.261 246.291C109.164 246.291 112.406 250.84 112.434 255.348C112.461 260.114 108.448 263.932 103.747 264.216C99.3705 264.473 94.0616 260.154 94.6965 255.308H94.683Z" fill="black"/>
<path d="M71.4051 304.276C71.2024 298.996 75.2416 295.327 79.9831 295.259C85.5623 295.165 89.1016 299.131 89.1556 304.357C89.1961 308.798 85.8324 312.927 80.2398 313.076C75.4442 313.198 71.1079 308.987 71.4051 304.29V304.276Z" fill="black"/>
<path d="M135.911 280.584C135.884 285.972 131.899 289.478 126.847 289.357C121.862 289.235 117.917 285.2 118.133 280.029C118.309 275.899 121.74 271.594 127.036 271.621C132.682 271.648 136.235 276.238 135.911 280.584Z" fill="black"/>
<path d="M441.15 218.016H293.121V329.453H441.15V218.016Z" fill="white"/>
<path fill-rule="evenodd" clip-rule="evenodd" d="M437.638 221.325H296.391V326.112H437.638V221.325ZM441.029 218V329.438H293V218H441.029Z" fill="#0070F3"/>
<path d="M357.954 285.857C357.988 274.129 360.97 270.494 366.476 266.96C370.81 264.195 374.104 261.497 374.104 257.272C374.104 253.047 370.843 250.416 366.755 250.416C362.667 250.416 358.959 253.326 358.848 258.131H342.898C343.111 243.593 353.855 237.127 366.889 237.127C381.174 237.127 391.539 243.905 391.539 256.47C391.539 264.742 387.138 269.758 380.482 273.66C375.244 276.771 372.719 279.714 372.719 285.835V287.25H357.954V285.835V285.857ZM356.603 300.974C356.536 296.058 360.623 292.078 365.616 292.078C370.608 292.078 374.562 296.058 374.629 300.974C374.562 305.958 370.363 309.971 365.616 309.971C360.623 309.971 356.536 305.958 356.603 300.974Z" fill="#0070F3"/>
</svg>
