<svg width="60" height="42" viewBox="0 0 60 42" fill="none" xmlns="http://www.w3.org/2000/svg">
<path fill-rule="evenodd" clip-rule="evenodd" d="M34.0419 15.0658C34.1656 15.6389 34.2904 16.2169 34.4226 16.8001C34.7614 16.8578 35.11 16.9131 35.4648 16.9694C36.2303 17.0908 37.0244 17.2167 37.8093 17.3818C39.6383 17.7663 41.4228 18.2987 42.9806 19.3734C43.3651 19.6396 43.7102 20.0143 43.9567 20.4136C44.2525 20.8918 44.2131 21.4291 43.8335 21.8974C43.0299 22.8982 41.9207 23.4256 40.7524 23.8249C39.5988 24.2193 38.4305 24.5644 37.2523 24.8503C36.6292 25.003 35.9819 25.0659 35.3365 25.1286C35.2109 25.1408 35.0853 25.153 34.96 25.1658C34.4916 25.2151 34.2895 25.3581 34.2106 25.8954C34.0934 26.701 33.9181 27.4989 33.7429 28.2963C33.6383 28.7724 33.5338 29.2484 33.4416 29.7258C33.1409 31.2787 32.5543 32.7083 31.6718 34.0147C31.2873 34.5865 30.8486 35.0992 30.0401 35.1091C29.2168 35.1189 28.7929 34.5619 28.4034 34.0147C27.5062 32.7428 26.9886 31.2885 26.6485 29.785C26.4662 28.9709 26.3173 28.1498 26.1683 27.328C26.0673 26.7713 25.9663 26.2143 25.8548 25.6588C25.8203 25.4961 25.6625 25.2694 25.5245 25.2348C25.2513 25.1716 24.9729 25.133 24.6947 25.0945C24.4306 25.0579 24.1667 25.0213 23.9075 24.9637C23.5947 24.8938 23.2811 24.8266 22.9674 24.7593C21.9318 24.5373 20.8963 24.3153 19.8898 23.9975C18.9384 23.6968 18.0362 23.2087 17.1587 22.7207C16.7545 22.4939 16.4094 22.0995 16.1186 21.7249C15.7883 21.3059 15.9904 20.4136 16.4587 19.9403C17.2573 19.1269 18.2482 18.5797 19.313 18.2642C20.5205 17.9067 21.7522 17.6275 22.9823 17.3487C23.4145 17.2507 23.8466 17.1528 24.2773 17.0515C24.4551 17.0093 24.6359 16.9811 24.8165 16.9529C25.0366 16.9186 25.2564 16.8843 25.4702 16.8247C25.6231 16.7804 25.8203 16.6029 25.8449 16.4599C25.923 16.043 25.9834 15.6225 26.0437 15.2022C26.1397 14.5341 26.2355 13.8668 26.402 13.2162C26.433 13.0944 26.4638 12.9725 26.4946 12.8505C26.9829 10.9168 27.4766 8.96156 28.9605 7.47305C29.7197 6.70401 30.3852 6.74838 31.1739 7.50756C32.1993 8.4935 32.7367 9.77523 33.1015 11.0915C33.4648 12.3927 33.7505 13.7157 34.0419 15.0658ZM29.0196 6.27019C28.8743 6.44178 28.7408 6.60154 28.6141 6.75325C28.3839 7.0287 28.1759 7.27757 27.9598 7.52234C27.1513 8.43434 26.7125 9.53367 26.3773 10.6675C26.0906 11.6348 25.8547 12.6142 25.6187 13.5938C25.518 14.0121 25.4172 14.4304 25.3125 14.8479C25.3037 14.8832 25.3001 14.9202 25.2966 14.9569C25.2942 14.9817 25.2918 15.0064 25.2878 15.0303C25.1572 16.0895 25.137 16.0932 24.2323 16.2577C24.1812 16.267 24.1272 16.2768 24.0702 16.2874C21.4969 16.7656 18.9236 17.2733 16.6953 18.7818C16.5181 18.9021 16.3491 19.0325 16.1516 19.1848C16.0414 19.2697 15.9224 19.3615 15.7883 19.4621C14.6833 20.669 14.7941 21.4079 15.7833 22.7996C16.1392 22.9821 16.4854 23.171 16.8275 23.3577C17.5753 23.7658 18.3037 24.1632 19.0715 24.4609C20.0988 24.8567 21.1765 25.123 22.2523 25.3888C22.4361 25.4343 22.6198 25.4797 22.8033 25.5257C23.1221 25.606 23.4512 25.648 23.7807 25.6901C24.0982 25.7306 24.4162 25.7711 24.7259 25.8461C24.9329 25.8954 25.1843 26.1666 25.2386 26.3835C25.4626 27.3025 25.6688 28.2248 25.8748 29.1466C26.0268 29.8269 26.1788 30.5068 26.3379 31.185C26.7273 32.8315 27.5161 34.2661 28.8323 35.5577C29.734 36.1501 30.2612 36.1332 31.2331 35.5922C31.3387 35.4797 31.4344 35.3802 31.5227 35.2884C31.6897 35.1145 31.8304 34.9681 31.9627 34.8133C32.9881 33.6055 33.5649 32.1562 33.9642 30.6575C34.2575 29.5528 34.4596 28.4245 34.6614 27.2976C34.7207 26.9663 34.78 26.6351 34.8417 26.3046C34.9203 25.885 35.1928 25.8529 35.501 25.8167C35.5404 25.812 35.5803 25.8073 35.6205 25.8018C38.1791 25.437 40.6834 24.8848 42.951 23.5686C43.2527 23.3929 43.532 23.1838 43.846 22.9488C43.999 22.8343 44.1602 22.7136 44.3363 22.5876V22.5826C45.3827 21.2275 45.2933 20.5532 44.3708 19.4424C44.1206 19.2835 43.8849 19.1205 43.656 18.9622C43.1678 18.6246 42.7101 18.308 42.2067 18.0966C41.0038 17.5888 39.7517 17.1698 38.4946 16.8247C37.8783 16.6556 37.2471 16.5465 36.6154 16.4373C36.1606 16.3587 35.7056 16.28 35.2557 16.1789C35.0881 16.1395 34.8959 15.8634 34.8515 15.6662C34.7397 15.1455 34.6477 14.6193 34.5557 14.0933C34.3883 13.1355 34.221 12.1788 33.9346 11.2591C33.3972 9.54353 32.8303 7.77869 31.2627 6.63006C31.2419 6.61541 31.2248 6.59532 31.2091 6.57C30.6118 5.91358 30.1211 5.83874 29.0196 6.27019ZM31.0482 6.20611C31.0474 6.20459 31.0465 6.2027 31.0458 6.20118V6.20611H31.0482Z" fill="black"/>
<path d="M19.8401 10.5493L40.052 30.7612" stroke="black" stroke-width="0.739459" stroke-linecap="round"/>
<path d="M19.8401 31.2539L40.052 11.042" stroke="black" stroke-width="0.739459" stroke-linecap="round"/>
</svg>
