<svg width="60" height="42" viewBox="0 0 60 42" fill="none" xmlns="http://www.w3.org/2000/svg">
<path d="M34.469 33.0033C32.4213 33.0033 30.3736 33.079 28.3306 32.9891C23.5163 32.7763 18.6972 32.9134 13.8782 32.833C13.4148 32.8236 13.2398 32.6817 13.1736 32.1992C13.0081 30.9788 12.7763 29.7679 12.554 28.557C12.346 27.4218 12.1095 26.2913 11.9109 25.1561C11.8494 24.7966 11.6839 24.6121 11.3292 24.6641C10.757 24.7493 10.5489 24.3803 10.5441 23.9452C10.53 22.9755 10.2368 22.0437 10.232 21.0787C10.232 20.6672 10.2226 20.2651 10.0665 19.8631C9.85369 19.3239 10.1895 18.9218 10.5394 18.5812C12.3933 16.7649 14.1809 14.887 15.978 13.0092C17.5291 11.3868 19.1371 9.81636 20.7024 8.20812C20.8868 8.01892 21.0665 8 21.2746 8C23.8709 8.02365 26.4767 7.94324 29.0636 8.10406C32.4449 8.31692 35.831 8.19866 39.2076 8.33584C42.3715 8.46355 45.5353 8.52977 48.6991 8.56288C49.0869 8.56288 49.276 8.70005 49.2855 9.10684C49.2997 10.1475 49.5551 11.4434 49.7111 12.6024C49.6686 12.4747 49.7111 12.7301 49.7111 12.6024C49.8577 13.0328 49.905 13.4633 49.5409 13.7991C48.491 14.7688 48.6613 15.9182 48.9261 17.148C49.1625 18.2359 49.295 19.3522 49.5409 20.4449C49.5834 20.6341 49.5361 20.8091 49.4226 20.9983C47.9755 23.387 46.5378 25.7852 45.1049 28.1833C44.2206 29.6591 43.3362 31.1349 42.466 32.6249C42.2674 32.9655 42.0168 33.0979 41.6195 33.0932C39.236 33.0743 36.8572 33.0837 34.4737 33.0837C34.4737 33.0601 34.4737 33.0364 34.4737 33.008L34.469 33.0033ZM25.4741 24.4655V24.4891C24.708 24.4891 23.9419 24.4891 23.1758 24.4891C22.9062 24.4891 22.561 24.5601 22.6934 24.8912C22.8731 25.3216 22.8636 25.771 22.9677 26.2062C23.2325 27.3272 23.4831 28.4482 23.6865 29.5834C23.8236 30.3545 23.9892 31.1113 24.1878 31.8634C24.2587 32.1377 24.4148 32.237 24.6938 32.237C26.1882 32.237 27.6779 32.237 29.1723 32.2512C29.5554 32.2512 29.6595 32.0857 29.6074 31.7498C29.5034 31.116 29.4324 30.468 29.2764 29.8625C28.8508 28.259 28.6852 26.6082 28.3211 24.9905C28.2218 24.5553 28.0468 24.4466 27.6543 24.456C26.926 24.4702 26.2024 24.456 25.4741 24.456V24.4655ZM24.8925 23.7843C24.8925 23.7843 24.8925 23.756 24.8925 23.7418C25.5971 23.7418 26.3065 23.7418 27.0111 23.7418C27.3563 23.7418 27.5219 23.6141 27.4746 23.2451C27.3516 22.3559 27.2428 21.4619 27.1152 20.5726C27.0584 20.1705 26.7747 20.0334 26.3963 20.0239C25.0438 19.9861 23.6865 19.953 22.334 19.9009C21.932 19.8867 21.7854 20.0145 21.7996 20.4402C21.8279 21.32 22.1495 22.1714 22.0833 23.0559C22.0455 23.5573 22.2867 23.7796 22.7738 23.7796C23.4784 23.7796 24.1878 23.7796 24.8925 23.7796V23.7843ZM44.8685 13.5153C44.684 13.397 44.4617 13.4396 44.2537 13.4396C41.4398 13.4207 38.6307 13.4538 35.8216 13.3734C34.6818 13.3403 33.6083 13.4727 32.6105 13.9883C32.2416 14.1775 31.7545 14.2248 31.4849 14.6836C31.745 14.8066 31.9815 14.7735 32.2085 14.7735C35.6702 14.7735 39.132 14.7309 42.589 14.8019C43.6672 14.8255 44.4476 14.6032 44.8685 13.52V13.5153ZM25.3701 19.3239C25.8998 19.3239 26.4342 19.3144 26.9638 19.3239C27.2192 19.3286 27.3895 19.2529 27.555 19.0353C28.3211 18.0089 29.1109 17.0014 29.8817 15.9797C30.0141 15.8047 30.3073 15.6202 30.1607 15.3884C29.981 15.0951 29.6595 15.3269 29.3993 15.3364C29.3426 15.3364 29.2858 15.36 29.2291 15.3837C27.9569 15.8993 26.6895 16.4196 25.4221 16.9399C24.4526 17.3325 23.3507 17.5075 22.7596 18.5387C22.6697 18.6995 22.4569 18.8272 22.5421 19.0259C22.6224 19.2056 22.8494 19.1536 23.0244 19.1725C23.8047 19.2624 24.5898 19.3191 25.3748 19.3239H25.3701ZM34.4737 11.5334C34.4737 11.4246 34.3792 11.3442 34.2562 11.259C33.7927 10.9421 33.3246 10.6394 32.8233 10.3792C32.3409 10.1285 31.9436 10.1806 31.5038 10.4549C30.3735 11.155 29.4419 12.0915 28.4393 12.943C28.2549 13.099 28.236 13.293 28.4866 13.4727C28.7846 13.6809 29.0683 13.9174 29.3189 14.1775C29.6784 14.5512 29.9999 14.5039 30.3688 14.1917C31.5606 13.1747 32.7665 12.1767 34.3319 11.7793C34.4406 11.751 34.5068 11.6989 34.4737 11.5287V11.5334ZM27.0111 13.4633C25.9802 13.4491 25.0769 13.7282 24.15 13.6856C23.7622 13.6667 23.3886 13.7613 23.0055 13.8701C22.2299 14.0876 21.9982 14.6978 21.8327 15.3269C21.6482 16.0459 22.2961 16.325 22.717 16.6987C22.9298 16.8831 23.0954 16.8926 23.1379 16.552C23.1947 16.1169 23.5068 15.8141 23.8615 15.6864C24.552 15.4357 25.2235 15.1377 25.9565 14.9816C26.8692 14.7877 27.7867 14.7546 28.7089 14.7357C28.8319 14.7357 29.0116 14.7877 29.0447 14.5938C29.0636 14.4802 29.0068 14.3667 28.9028 14.2863C28.3069 13.8369 27.7914 13.1936 27.0111 13.4633ZM23.6581 13.397C23.3886 13.1227 23.2325 13.1369 23.0765 13.1369C21.3077 13.1369 19.5343 13.1795 17.7703 13.1132C17.042 13.0849 16.5975 13.397 16.1719 13.8748C16.0536 14.0072 15.9496 14.1491 15.8172 14.2674C15.6989 14.3762 15.5476 14.485 15.6044 14.6458C15.6706 14.8303 15.8787 14.7593 16.0253 14.7593C17.7372 14.7688 19.4492 14.764 21.1564 14.7688C21.3598 14.7688 21.5395 14.7451 21.6577 14.5417C22.0691 13.8322 22.6224 13.3356 23.6581 13.3923V13.397ZM46.6183 23.6046C46.4669 22.2423 46.3345 20.9936 46.1926 19.7401C46.1643 19.5083 46.1075 19.2766 46.0602 19.0448C46.0318 18.8934 45.9278 18.7279 45.8001 18.8887C45.3556 19.4563 44.755 19.9293 44.6935 20.7382C44.6367 21.5375 44.9961 22.2802 44.9583 23.0701C44.911 23.983 45.2515 24.8533 45.2562 25.7615C45.2562 25.8514 45.2988 25.9696 45.365 26.0169C45.4596 26.0832 45.5542 25.9886 45.6015 25.9034C46.0271 25.1372 46.7743 24.5033 46.6183 23.5999V23.6046ZM32.0051 8.91291C31.0829 8.58653 30.3972 9.05008 29.8865 9.90623C29.8392 9.98664 29.7588 10.0529 29.6973 10.1285C29.0778 10.8759 28.463 11.6233 27.8434 12.3659C27.7347 12.4983 27.6448 12.645 27.7678 12.7774C27.8955 12.9146 28.0563 12.8247 28.1887 12.7254C28.2833 12.6544 28.392 12.5977 28.4677 12.5125C29.1487 11.7983 29.929 11.2023 30.6999 10.5874C31.414 10.0198 32.1423 9.59877 33.0976 10.1238C34.1947 10.7293 33.8873 10.6157 34.6818 9.68865C34.7338 9.62715 34.7575 9.54674 34.8095 9.48998C35.1784 9.11157 34.923 9.02643 34.5825 9.03589C33.7549 9.05954 32.9669 9.03589 32.0004 8.90818L32.0051 8.91291ZM46.2305 16.7318C46.5047 17.2284 45.9514 16.2682 46.2305 16.7318C46.0697 16.4432 45.9893 14.3573 45.5684 14.2627C45.1191 14.1633 45.034 14.7451 44.7644 15.0005C44.3908 15.3553 44.2111 15.7621 44.4334 16.3155C44.5942 16.7081 44.6036 17.1527 44.7029 17.5737C44.7739 17.8764 44.5563 18.3542 44.9347 18.4583C45.3414 18.5718 45.4218 18.0515 45.6251 17.8008C45.8805 17.498 46.1879 17.2048 46.2305 16.7318ZM28.1887 15.3884C28.0705 15.1661 27.8576 15.2181 27.6685 15.2229C26.7699 15.2465 25.8714 15.3648 25.0107 15.6107C24.4574 15.7668 23.8378 15.9276 23.5257 16.5189C23.4406 16.6797 23.4122 16.8689 23.5399 17.0156C23.6534 17.148 23.8237 17.1338 23.9797 17.0771C24.5425 16.8737 25.0958 16.6419 25.6633 16.4669C26.4578 16.2209 27.1577 15.729 27.9853 15.5587C28.0846 15.5398 28.1792 15.5161 28.1887 15.3837V15.3884ZM34.8237 12.0584C34.592 12.0773 34.3792 12.0632 34.1711 12.1436C33.1117 12.5409 32.199 13.1889 31.2674 13.8038C31.1728 13.8653 30.8938 13.9126 31.0073 14.116C31.1255 14.3336 31.3052 14.1586 31.4613 14.0924C32.6057 13.5957 33.7502 13.0896 34.9088 12.6213C35.1264 12.5314 35.377 12.4368 35.3486 12.2334C35.3108 11.9544 34.9987 12.1057 34.8237 12.0584Z" fill="black"/>
</svg>
