<svg width="60" height="42" viewBox="0 0 60 42" fill="none" xmlns="http://www.w3.org/2000/svg">
<path fill-rule="evenodd" clip-rule="evenodd" d="M43.9831 18.043C43.984 18.7249 43.985 19.4069 43.985 20.0889V20.0841C43.985 20.9996 43.9839 21.9156 43.9827 22.8318C43.9805 24.6648 43.9783 26.4985 43.985 28.3301C43.985 28.7446 43.8852 29.0096 43.4514 29.2265C41.4617 30.2097 39.492 31.2362 37.5223 32.2627C36.6991 32.6933 35.8779 33.1286 35.0565 33.564C33.6987 34.2839 32.3401 35.0041 30.9699 35.7038C30.5909 35.9014 30.0075 36.0942 29.6784 35.9496C28.5422 35.4579 27.442 34.8757 26.3442 34.2946C26.1508 34.1923 25.9574 34.0899 25.7639 33.9881C25.0893 33.6337 24.4191 33.2729 23.7492 32.9122C22.9979 32.5077 22.2469 32.1034 21.4903 31.7085C19.8547 30.8555 18.2141 30.0121 16.5685 29.1783C16.1746 28.9807 16.0051 28.7253 16.0051 28.2867C16.015 22.8504 16.02 17.4141 16.0001 11.9778C15.9951 11.4332 16.2644 11.144 16.6982 10.9754C18.4651 10.2923 20.2353 9.62203 22.0061 8.95152C22.4093 8.79886 22.8125 8.64619 23.2157 8.49336C23.4482 8.40539 23.6806 8.31742 23.9129 8.22947C25.5645 7.60429 27.2137 6.98003 28.8705 6.36317C28.9602 6.33036 29.0493 6.29504 29.1384 6.25978C29.7032 6.03608 30.2626 5.81454 30.9001 6.24751C31.1732 6.43403 31.5021 6.54345 31.8306 6.65272C31.9519 6.69309 32.0732 6.73344 32.1916 6.77764C32.9664 7.06534 33.743 7.3513 34.5199 7.63737C34.9189 7.78433 35.3181 7.93131 35.7171 8.07857L35.7969 8.04309L35.8315 8.12077C36.4522 8.34996 37.0726 8.57987 37.6919 8.81144C38.7302 9.19843 39.7639 9.59428 40.7973 9.99C41.6299 10.3089 42.4624 10.6276 43.2968 10.9416C43.7656 11.1199 44.0049 11.3657 43.9999 11.9055C43.9775 13.9513 43.9803 15.9972 43.9831 18.043ZM34.5906 8.57922C34.3771 8.50051 34.1636 8.42184 33.95 8.34317C33.516 8.18332 33.082 8.02343 32.6479 7.86303L32.6886 7.96305L20.277 13.0196C20.4513 13.0961 20.6257 13.1725 20.8001 13.2489C21.3502 13.4899 21.9005 13.731 22.449 13.9755L34.5906 8.57922ZM23.6775 14.5238L35.9349 9.07611C36.4727 9.27567 37.0102 9.4763 37.5472 9.67894C37.8071 9.77682 38.0666 9.87531 38.3263 9.97446L25.874 15.5088C25.1422 15.18 24.4101 14.8515 23.6775 14.5238ZM27.0982 16.059C27.596 16.2828 28.0936 16.5064 28.5913 16.7297C28.7084 16.7827 28.825 16.8468 28.9419 16.911C29.2082 17.0574 29.4759 17.2046 29.7532 17.2213C30.2119 17.2454 30.7156 17.1057 31.1394 16.9177C32.114 16.4881 33.082 16.0396 34.05 15.5911C34.776 15.2547 35.502 14.9183 36.2308 14.5899C37.287 14.1132 38.3464 13.6455 39.4062 13.1775C40.2428 12.8082 41.0796 12.4387 41.9155 12.0645C42.0552 12.0018 42.1843 11.9145 42.3358 11.8119C42.417 11.757 42.5046 11.6978 42.6037 11.6356C42.1874 11.4735 41.7785 11.3139 41.3751 11.1563C40.789 10.9274 40.2145 10.7031 39.6456 10.4825L27.0982 16.059ZM19.2335 13.4447C20.5192 14.0134 21.805 14.5826 23.0861 15.1586C23.96 15.5525 24.8329 15.9491 25.7058 16.3457C26.8301 16.8565 27.9542 17.3673 29.08 17.8719C29.4889 18.0551 29.6983 18.2671 29.6933 18.7587C29.6893 19.1033 29.686 19.4479 29.6835 19.7927L16.8977 13.6365V13.0477C16.8977 12.614 17.0822 12.4935 17.4761 12.667C17.9834 12.8919 18.4911 13.1164 18.9989 13.341C19.0558 13.3661 19.1127 13.3913 19.1696 13.4165L19.1886 13.463L19.2335 13.4447ZM19.006 12.4576L31.4118 7.40344C31.3849 7.3889 31.3588 7.37317 31.3339 7.35597C30.2863 6.64613 29.3646 7.05131 28.4549 7.45121C28.1911 7.56717 27.9283 7.68269 27.6638 7.77044C26.7818 8.06296 25.9168 8.40681 25.0508 8.75106C24.5899 8.93428 24.1287 9.11761 23.6645 9.29338C22.7401 9.64395 21.814 9.98954 20.8882 10.335C20.2358 10.5785 19.5836 10.8219 18.9322 11.0669C18.652 11.1727 18.3781 11.2866 18.0661 11.4163C17.895 11.4874 17.7124 11.5633 17.511 11.6453C17.6574 11.7301 17.7912 11.8127 17.9181 11.891C18.1588 12.0394 18.3745 12.1725 18.6031 12.2766C18.7373 12.3372 18.8716 12.3975 19.006 12.4576ZM16.8977 14.7464L29.6774 20.8996C29.6739 21.8555 29.6743 22.8119 29.6755 23.7685L16.8977 17.143V14.7464ZM16.8977 18.2694L29.6771 24.8958C29.6778 25.3979 29.6784 25.9001 29.6784 26.4023L29.6734 26.4071V27.7878L16.8977 21.6366V18.2694ZM16.8977 22.7464V25.6365L29.6734 31.7878V28.8977L16.8977 22.7464ZM29.6734 32.8977L16.8977 26.7464V27.9108C16.8935 28.4068 17.2535 28.5774 17.5955 28.7396C17.6656 28.7728 17.7349 28.8057 17.8002 28.8409C19.8597 29.9494 21.9391 31.0338 24.0185 32.1085C25.6691 32.9615 27.3297 33.7905 28.9902 34.6194C29.4988 34.8749 29.6734 34.7544 29.6734 34.1712V32.8977ZM40.2452 14.1307C40.2391 14.047 40.2321 13.9514 40.2251 13.8381L40.2201 13.8285C40.0094 13.9151 39.8067 14.0009 39.6092 14.0845C39.1475 14.28 38.7138 14.4636 38.2703 14.6188C37.5772 14.8646 37.4276 15.3128 37.4276 15.9972C37.4515 19.845 37.4499 23.6928 37.4483 27.5407C37.4479 28.5026 37.4475 29.4646 37.4475 30.4265C37.4475 31.1832 37.6021 31.2651 38.3052 30.8844C38.4172 30.8238 38.5275 30.7575 38.6378 30.6912C38.8958 30.5361 39.1542 30.3808 39.4372 30.2964C40.1403 30.0844 40.2799 29.6651 40.2799 29C40.2605 25.2441 40.2622 21.4882 40.264 17.7323C40.2645 16.6591 40.2649 15.586 40.2649 14.5128C40.2649 14.4002 40.2565 14.2856 40.2452 14.1307ZM30.5714 34.6099C30.5824 34.6725 30.5962 34.7505 30.6109 34.8556V34.8508C30.8386 34.7343 31.0622 34.6233 31.2813 34.5144C31.8874 34.2134 32.4598 33.9291 32.9945 33.5929C33.1939 33.4676 33.2787 33.0387 33.2787 32.7495C33.2813 31.1141 33.2714 29.48 33.2615 27.8458C33.2526 26.3931 33.2438 24.9404 33.2438 23.4866C33.2408 22.321 33.254 21.1537 33.2671 19.9867C33.2759 19.2091 33.2847 18.4317 33.2887 17.6551C33.2937 16.9466 33.2338 16.9273 32.5606 17.2261C32.3627 17.3154 32.1611 17.3965 31.9601 17.4773C31.6294 17.6102 31.3 17.7427 30.9898 17.9105C30.7854 18.0213 30.561 18.3153 30.561 18.5274C30.5444 22.9371 30.5451 27.3502 30.5458 31.7611C30.5459 32.6433 30.546 33.5254 30.546 34.4074C30.546 34.4661 30.5561 34.5233 30.5714 34.6099ZM36.5699 18.6431V15.4285C36.3374 15.5341 36.1155 15.6313 35.9025 15.7246C35.3571 15.9636 34.8697 16.1772 34.4107 16.4406C34.2411 16.5418 34.1912 16.9322 34.1912 17.1876C34.1846 19.4176 34.1868 21.6497 34.189 23.8811C34.1901 24.9965 34.1912 26.1117 34.1912 27.2264V32.1567C34.1912 32.3065 34.213 32.4584 34.2394 32.6416C34.2528 32.7355 34.2675 32.8376 34.281 32.9519C34.4852 32.8499 34.6834 32.7538 34.8762 32.6602C35.3848 32.4134 35.8558 32.1848 36.3006 31.9157C36.4651 31.8145 36.5699 31.4868 36.5699 31.2651C36.5765 28.4602 36.5743 25.6553 36.5721 22.8504C36.571 21.448 36.5699 20.0455 36.5699 18.6431ZM43.1422 13.3465V12.4935L43.1372 12.4887C42.9258 12.5806 42.7281 12.6633 42.541 12.7415C42.1105 12.9215 41.7365 13.0779 41.3819 13.2694C41.2373 13.3513 41.1575 13.6453 41.1575 13.8429C41.1501 17.5983 41.151 21.3537 41.1519 25.1092C41.1523 26.3611 41.1526 27.6131 41.1526 28.865C41.1526 28.9458 41.1679 29.0285 41.188 29.136C41.2002 29.2017 41.2141 29.2767 41.2274 29.3663C41.3961 29.2807 41.563 29.2003 41.7267 29.1214C42.1533 28.916 42.5589 28.7206 42.9228 28.4698C43.0973 28.3542 43.1323 27.9686 43.1323 27.7084C43.1422 22.9188 43.1422 18.134 43.1422 13.3493V13.3465Z" fill="black"/>
</svg>
