<svg width="60" height="42" viewBox="0 0 60 42" fill="none" xmlns="http://www.w3.org/2000/svg">
<path d="M30.7194 21.6002V34.9935C30.1184 35.0542 30.1689 34.6796 30.1689 34.3557C30.1689 31.5971 30.1689 28.8384 30.1689 26.0747C30.1689 24.8751 30.1689 23.6755 30.1689 22.4708C30.1689 22.2278 30.1184 21.9798 30.0931 21.7369C30.0375 21.7014 29.982 21.6711 29.9264 21.6356C26.8048 24.8043 23.6832 27.9779 20.5414 31.1668C20.3646 30.9846 20.2535 30.8682 20.0363 30.6505C23.1629 27.5072 26.2845 24.3689 29.4011 21.2357C29.3758 21.1851 29.3506 21.1294 29.3304 21.0788H16.1671C15.8691 20.2993 15.9297 20.2032 16.6773 20.2032C20.6525 20.2032 24.6227 20.2032 28.598 20.2032C28.8808 20.2032 29.1687 20.1728 29.6335 20.1475C28.7849 19.2971 28.0524 18.5632 27.3251 17.8292C25.3854 15.8805 23.4458 13.9317 21.5062 11.9829C21.1172 11.5881 20.703 11.2136 20.3495 10.7884C20.2383 10.6568 20.2787 10.3986 20.2535 10.1962C20.4656 10.2367 20.7485 10.1962 20.8849 10.3278C21.592 10.9908 22.2638 11.6894 22.9457 12.3778C25.2693 14.7264 27.5928 17.0801 29.9113 19.4338C29.9719 19.4135 30.0274 19.3933 30.0881 19.373C30.1133 19.0997 30.1638 18.8314 30.1638 18.5581C30.1689 14.6201 30.1638 10.6821 30.1689 6.73901C30.1689 6.42518 30.0628 6.03037 30.6841 6V19.7527C31.0276 19.5198 31.2397 19.4186 31.3963 19.2617C34.3108 16.3512 37.2203 13.4357 40.1196 10.515C40.4378 10.1911 40.7055 10.0443 41.0389 10.6213C37.9325 13.7394 34.8008 16.8827 31.6741 20.0311C31.7044 20.0817 31.7347 20.1323 31.765 20.1778C32.0125 20.188 32.255 20.2082 32.5025 20.2082C36.2454 20.2082 39.9883 20.2082 43.7312 20.2082C43.8979 20.2082 44.0696 20.2032 44.2363 20.2082C44.5596 20.2234 45.0243 20.1323 44.999 20.6132C44.9839 21.0029 44.5798 21.0333 44.2211 21.0333C40.352 21.0282 36.4828 21.0282 32.6136 21.0333C32.356 21.0333 32.0984 21.0687 31.8408 21.0839C31.7903 21.1649 31.7398 21.2459 31.6893 21.3269C32.063 21.6356 32.4621 21.914 32.8056 22.2531C34.821 24.2525 36.8162 26.262 38.8215 28.2715C39.4276 28.8789 40.0641 29.461 40.6348 30.0988C40.7712 30.2506 40.7157 30.5797 40.751 30.8277C40.5389 30.7669 40.2661 30.7669 40.1247 30.6303C37.6345 28.1551 35.1644 25.6597 32.6843 23.1693C32.2348 22.7188 31.7852 22.2683 31.3155 21.8432C31.1892 21.7318 30.9821 21.7065 30.7093 21.6052L30.7194 21.6002Z" fill="black"/>
</svg>
