<svg width="60" height="42" viewBox="0 0 60 42" fill="none" xmlns="http://www.w3.org/2000/svg">
<path fill-rule="evenodd" clip-rule="evenodd" d="M44.9992 21.112C45.0869 12.3655 38.0731 5.86261 30.0094 6.00589C21.9327 5.77144 14.9773 12.5641 15.0001 20.959C15.0228 29.4352 21.7312 35.9804 29.9151 36C38.2323 36.0195 44.9147 29.6762 44.9992 21.112ZM29.9639 35.2477C22.4397 35.2184 15.7801 29.1975 15.8906 20.9883L15.8939 20.985C15.7248 13.0754 22.261 6.73205 29.9574 6.73857C37.7318 6.74508 44.1281 12.9451 44.1606 20.9101C44.1931 29.1291 37.6375 35.2803 29.9639 35.2477ZM31.0376 9.41561C31.0098 9.38346 30.9791 9.34806 30.9473 9.30628L30.9413 9.29677C30.9288 9.4411 30.9221 9.58283 30.9156 9.72184C30.9018 10.0166 30.8885 10.2992 30.8212 10.5686C30.7071 11.0221 30.3738 11.1775 30.0525 10.7906C29.9467 10.6635 29.8836 10.4943 29.8206 10.3254C29.7531 10.1445 29.6857 9.96389 29.5661 9.83593C29.473 9.73597 29.2972 9.69119 29.1337 9.64952C28.9599 9.60526 28.8 9.56452 28.7675 9.46486C28.6751 9.18149 28.6456 9.03252 28.571 9.00478C28.4953 8.97664 28.3732 9.07327 28.0919 9.28091C27.923 9.40522 27.7684 9.60846 27.6082 9.81901C27.1677 10.3981 26.685 11.0325 25.747 10.2324C25.7075 10.1982 25.5594 10.3151 25.3947 10.4451C25.2842 10.5323 25.1662 10.6254 25.0685 10.6827C24.836 10.8187 24.6264 11.0065 24.4167 11.1944C23.9221 11.6375 23.4266 12.0815 22.6275 11.8499C22.5076 11.8149 22.3548 11.8988 22.2027 11.9824C22.134 12.0202 22.0654 12.0579 22 12.0845C22.0452 12.1455 22.0892 12.2075 22.1332 12.2694C22.2263 12.4006 22.3193 12.5316 22.4233 12.6523C22.5589 12.8067 22.7276 12.9562 22.8958 13.1053C23.2489 13.4183 23.5997 13.7292 23.6363 14.0794C23.7102 14.7902 23.5958 15.5229 23.4764 16.2874C23.4259 16.6111 23.3745 16.9405 23.3361 17.2763C23.4607 17.2111 23.5814 17.1461 23.6999 17.0824C23.944 16.9511 24.1785 16.825 24.417 16.7118C24.6121 16.6167 24.9604 16.4549 25.0114 16.5215C25.0877 16.6213 25.1839 16.7153 25.2809 16.81C25.6156 17.137 25.9595 17.4728 25.5219 18.0851C25.3087 18.3864 25.2006 18.6845 25.4738 19.081C25.5951 19.2553 25.5656 19.5655 25.5397 19.8385C25.5354 19.8833 25.5312 19.927 25.5279 19.969C25.5109 20.1619 25.4578 20.3501 25.4049 20.538C25.3829 20.6157 25.361 20.6934 25.3417 20.7714C25.4258 20.7344 25.5105 20.6984 25.5953 20.6625C25.7647 20.5906 25.9342 20.5187 26.0983 20.4384C26.1768 20.3998 26.2541 20.3449 26.3306 20.2906C26.4676 20.1934 26.6019 20.0981 26.7348 20.1022C27.0364 20.1134 27.3365 20.1865 27.6372 20.2598C27.7616 20.2901 27.8861 20.3204 28.0109 20.3464C27.9868 20.4606 27.9635 20.5749 27.9402 20.689C27.8736 21.0153 27.8072 21.3407 27.7226 21.6626C27.7001 21.7485 27.6489 21.8344 27.5988 21.9185C27.5287 22.0362 27.4607 22.1502 27.4765 22.2557C27.5357 22.6645 27.6351 23.0654 27.737 23.4763C27.7797 23.6487 27.8229 23.8228 27.8638 24C28.7329 22.8718 28.7521 22.8733 30.1507 22.9827C30.1871 22.9856 30.2244 22.9885 30.2627 22.9915C30.6321 23.021 31.025 22.8467 31.3854 22.6868C31.4117 22.6751 31.4378 22.6635 31.4637 22.6521C31.5163 22.6299 31.4606 22.306 31.4198 22.0682C31.414 22.0345 31.4085 22.0025 31.4036 21.9734C31.2865 21.2788 31.6138 20.9966 32.2203 20.9712C32.3833 20.965 32.5475 20.9668 32.734 20.9689C32.8362 20.97 32.945 20.9712 33.064 20.9712C33.0057 20.8562 32.9555 20.7591 32.911 20.673C32.8339 20.524 32.7739 20.4079 32.7187 20.2893C32.6527 20.1476 32.5919 20.0032 32.5312 19.8587C32.5009 19.7864 32.4705 19.7142 32.4395 19.6423C32.4912 19.6307 32.5428 19.6187 32.5944 19.6067C32.7671 19.5665 32.9393 19.5265 33.115 19.4996C33.1913 19.487 33.2713 19.5044 33.3506 19.5216C33.3712 19.5261 33.3918 19.5306 33.4123 19.5345C34.5682 19.7438 34.6943 19.7026 34.8955 18.4974C34.9765 18.0185 35.1537 17.8663 35.541 17.8282C35.7204 17.8098 35.8998 17.7935 36.1308 17.7726C36.298 17.7574 36.4922 17.7398 36.733 17.7172C35.9643 16.8165 35.3759 16.1283 34.8084 15.4654C34.9118 15.389 35.0356 15.3177 35.1629 15.2443C35.4535 15.0767 35.7629 14.8984 35.8923 14.6249C36.1835 14.0033 36.4267 13.5752 37.1683 13.5403C37.3438 13.5318 37.5098 13.3214 37.7 13.0804C37.7929 12.9627 37.8916 12.8376 38 12.7252C37.8796 12.6958 37.7913 12.6703 37.723 12.6505C37.6141 12.6189 37.5558 12.602 37.4986 12.6079C36.0279 12.7563 36.0244 12.7443 35.5562 11.1385L35.55 11.1172C35.4798 10.874 35.3216 10.6578 35.1641 10.4428C35.106 10.3634 35.048 10.2842 34.9946 10.2038C34.808 9.92581 34.6144 9.65232 34.4224 9.38129C34.3363 9.25965 34.2505 9.13851 34.1659 9.01767C34.059 9.12291 33.9494 9.23969 33.8355 9.36105C33.5718 9.64201 33.2851 9.94751 32.9559 10.1911C31.869 10.9967 31.7669 10.9396 31.1484 9.56952C31.1256 9.51723 31.0858 9.47132 31.0376 9.41561Z" fill="black"/>
</svg>
