<svg width="60" height="42" viewBox="0 0 60 42" fill="none" xmlns="http://www.w3.org/2000/svg">
<path d="M30.0984 29.1866C28.6118 29.3725 27.0013 29.8835 26.3819 30.1158C23.8268 30.6578 15 38.2457 15 38.2457C15 38.2457 18.166 28.5268 21.7362 23.1473C23.7339 20.1372 27.5433 15.9465 27.5433 15.9465C28.8596 14.4753 31.7244 11.3937 32.6535 10.8362C33.5827 10.2787 32.731 9.36509 32.189 8.97795C31.105 8.90056 28.0079 9.44257 28.0079 9.44257C28.0079 9.44257 30.7024 7.11973 32.189 7.11973V6.42288C32.4213 5.49375 33.9543 3.67778 36.3701 4.04943C38.7858 4.42109 40.164 6.26803 40.7835 7.11973C41.7126 8.35856 43.3276 11.6296 43.3386 14.785C43.3492 17.8263 42.6074 19.6267 41.0157 22.2181C39.1666 25.2287 37.5812 26.9997 34.2795 28.2575C33.1449 28.6897 32.4666 28.7646 31.2598 28.9977M30.0984 29.1866L32.6535 32.2063M30.0984 29.1866C30.4669 29.1406 30.8621 29.0745 31.2598 28.9977M32.6535 32.2063L27.0787 32.9032V34.5291L44.5 31.7417V30.348L36.6024 31.5869M32.6535 32.2063L36.6024 31.5869M36.6024 31.5869L31.2598 28.9977M34.2795 12.4622C30.8727 15.9465 23.8732 23.3331 23.1299 25.0055M35.2087 14.5528C32.4213 17.4176 26.6606 23.5654 25.9173 25.2378" stroke="black"/>
<circle cx="36.6025" cy="6.88739" r="0.929134" fill="black"/>
</svg>
