<svg width="54" height="44" viewBox="0 0 54 44" fill="none" xmlns="http://www.w3.org/2000/svg">
<rect width="17.3319" height="20.9989" transform="matrix(-1 0 0 1 35.6641 1.0011)" fill="black" stroke="black"/>
<rect width="17.3319" height="20.9989" transform="matrix(-1 0 0 1 53 1.00024)" stroke="black"/>
<rect width="12.998" height="16.7991" transform="matrix(-1 0 0 1 50.5781 3.22473)" stroke="black"/>
<rect width="17.3319" height="20.9989" transform="matrix(-1 0 0 1 18.3281 1.00024)" stroke="black"/>
<rect width="12.998" height="16.7991" transform="matrix(-1 0 0 1 15.9062 3.22473)" stroke="black"/>
<rect width="17.3319" height="20.9989" transform="matrix(-1 0 0 1 35.6719 22)" stroke="black"/>
<rect width="12.998" height="16.7991" transform="matrix(-1 0 0 1 33.6484 24.2245)" stroke="black"/>
<rect width="17.3319" height="20.9989" transform="matrix(-1 0 0 1 53 22)" stroke="black"/>
<rect width="12.998" height="16.7991" transform="matrix(-1 0 0 1 50.9766 24.2245)" stroke="black"/>
</svg>
