<svg width="60" height="42" viewBox="0 0 60 42" fill="none" xmlns="http://www.w3.org/2000/svg">
<path d="M29.9462 26.0505C26.5486 26.0505 23.1463 26.0505 19.7487 26.0505C18.9558 26.0505 18.9654 26.0169 19.023 25.2288C19.1288 23.7439 19.5132 22.3454 20.186 21.0287C21.5027 18.4433 23.5691 16.646 26.2747 15.6656C28.2931 14.9304 30.4075 14.7718 32.5124 15.3533C35.9916 16.3096 38.5338 18.376 40.0043 21.7111C40.5233 22.8885 40.7492 24.1091 40.8645 25.3778C40.9174 25.9448 40.7107 26.0601 40.2013 26.0601C36.7846 26.0457 33.363 26.0505 29.9462 26.0505ZM36.4337 22.8308C36.501 21.5429 35.29 20.6587 34.1703 20.7163C33.0218 20.774 32.1135 21.9033 32.1087 22.8548C32.1039 24.0466 33.2669 25.1999 34.3721 25.1471C35.5495 25.0894 36.4818 24.0466 36.4386 22.8356L36.4337 22.8308ZM26.7601 23.8111C28.1825 23.8448 28.913 22.8692 28.937 21.6919C28.9658 20.3415 27.9903 19.5101 26.7985 19.4813C25.6163 19.4525 24.612 20.3943 24.5975 21.7207C24.5831 22.8933 25.5394 23.8063 26.7601 23.8159V23.8111Z" fill="black"/>
</svg>
