<svg width="60" height="42" viewBox="0 0 60 42" fill="none" xmlns="http://www.w3.org/2000/svg">
<path d="M16.0192 21.5206C16.0192 19.0366 16.0518 16.5526 16.0006 14.0685C15.9866 13.38 16.2192 13.0079 16.7891 12.6846C20.043 10.8448 23.2829 8.9818 26.5252 7.12109C27.7207 6.43496 28.9046 5.72789 30.1164 5.06967C30.3048 4.96733 30.6513 4.98129 30.8444 5.08828C33.4982 6.57917 36.1381 8.09332 38.7756 9.60979C40.3177 10.496 41.8528 11.3937 43.3948 12.2846C43.5483 12.3729 43.7158 12.4381 43.8763 12.5102C44.7252 12.887 45.0113 13.4847 44.9997 14.4569C44.9369 19.3017 44.9601 24.1489 44.9857 28.9937C44.988 29.5961 44.7601 29.9217 44.2763 30.1962C41.5806 31.7243 38.8896 33.2663 36.2009 34.8061C34.7588 35.6318 33.3237 36.4737 31.8747 37.2924C31.6933 37.3948 31.463 37.418 31.2514 37.4553C29.7047 37.739 28.4743 37.018 27.223 36.2574C24.9622 34.8852 22.6642 33.578 20.3756 32.2523C19.0824 31.5033 17.7892 30.7497 16.4751 30.038C16.1006 29.8357 16.0122 29.5915 16.0145 29.2123C16.0238 26.6469 16.0192 24.0814 16.0192 21.516V21.5206ZM22.7247 24.9257C22.8015 24.4489 22.9178 24.0535 22.9224 23.6581C22.941 21.6439 22.948 19.6297 22.9131 17.6155C22.9085 17.348 22.6945 17.0201 22.4782 16.8386C22.1316 16.5502 21.7037 16.3618 21.3083 16.1316C19.9802 15.357 18.6567 14.5755 17.3217 13.8173C16.7751 13.508 16.6472 13.594 16.6472 14.2081C16.6425 16.427 16.6309 18.6435 16.6635 20.8601C16.6681 21.1229 16.8705 21.4602 17.0845 21.6253C17.552 21.9858 18.0823 22.2696 18.5963 22.565C19.9406 23.3395 21.2896 24.1047 22.7247 24.9257ZM38.1313 24.9862C40.1316 23.8279 42.0458 22.7324 43.9391 21.602C44.1019 21.5044 44.1949 21.1648 44.1972 20.9368C44.2158 18.6993 44.2112 16.4595 44.2065 14.222C44.2065 14.029 44.1717 13.8359 44.1484 13.5987C43.9647 13.6754 43.8507 13.708 43.7507 13.7661C41.99 14.7849 40.2223 15.792 38.4825 16.8456C38.2616 16.9782 38.0709 17.3527 38.0662 17.6178C38.0313 19.8344 38.043 22.0509 38.0476 24.2698C38.0476 24.4652 38.0918 24.6583 38.1313 24.9885V24.9862ZM31.177 33.1873C31.177 34.1827 31.17 35.1782 31.1793 36.1737C31.1839 36.6691 31.4119 36.7924 31.8212 36.5575C33.568 35.548 35.324 34.5549 37.0568 33.5199C37.2545 33.4012 37.4313 33.0663 37.4336 32.8268C37.4638 30.8358 37.4568 28.8425 37.4452 26.8516C37.4452 26.4678 37.3731 26.2329 36.873 26.5259C35.1658 27.5261 33.4238 28.4657 31.7049 29.4496C31.37 29.6403 31.1444 29.9217 31.163 30.3822C31.2025 31.3149 31.1746 32.2523 31.1746 33.1873H31.177ZM24.3389 17.041C24.5412 17.2061 24.6529 17.3224 24.7854 17.4015C26.3624 18.3225 27.951 19.2227 29.5139 20.1623C30.1908 20.5694 30.7397 20.5694 31.4398 20.1158C32.9097 19.1622 34.4611 18.3319 35.9753 17.4434C36.1311 17.3503 36.2613 17.2108 36.4032 17.0945C36.273 16.9573 36.1683 16.7782 36.0101 16.6851C34.2727 15.6664 32.5306 14.657 30.7792 13.6615C30.635 13.5801 30.3699 13.5545 30.2327 13.6312C28.2998 14.7314 26.381 15.8525 24.3366 17.0387L24.3389 17.041ZM24.3133 9.18416C24.8459 9.49815 25.2018 9.71678 25.5646 9.92378C27.0904 10.7913 28.6115 11.6659 30.1513 12.5055C30.3257 12.6009 30.6513 12.5823 30.8327 12.4823C31.9724 11.8659 33.0958 11.217 34.2192 10.5727C34.9705 10.1424 35.7148 9.70283 36.5451 9.22137C36.3218 9.03297 36.1985 8.89807 36.0497 8.81201C34.3285 7.80723 32.612 6.79547 30.8676 5.83023C30.6443 5.70696 30.2233 5.75348 29.9815 5.88373C28.7371 6.55823 27.5184 7.28158 26.2949 7.9933C25.6693 8.35846 25.0506 8.73991 24.3133 9.18416ZM43.4227 13.1405C43.1366 12.9428 42.9343 12.7823 42.711 12.652C41.048 11.6729 39.392 10.6843 37.708 9.74004C37.508 9.6284 37.1219 9.69352 36.894 9.81447C35.8404 10.375 34.8077 10.9774 33.7726 11.5775C32.9539 12.0543 32.1469 12.5474 31.284 13.0637C31.4537 13.2475 31.5258 13.3777 31.6375 13.4428C33.4145 14.4686 35.1868 15.4966 36.9847 16.4851C37.1777 16.5921 37.5452 16.5386 37.7592 16.4246C39.0384 15.7362 40.2991 15.0128 41.5574 14.2871C42.1667 13.9359 42.7575 13.5498 43.4227 13.1405ZM29.7163 13.1521C29.4977 12.9823 29.3651 12.8521 29.2093 12.7637C27.4509 11.7426 25.6949 10.7169 23.9179 9.72841C23.7481 9.63538 23.4132 9.70748 23.2178 9.81447C21.6176 10.6843 20.029 11.5752 18.4497 12.4799C18.166 12.6427 17.9427 12.9102 17.6892 13.1312C17.9241 13.3196 18.1404 13.5382 18.3962 13.6871C19.8313 14.5314 21.2664 15.371 22.7201 16.1851C23.1876 16.4456 23.6225 16.7642 24.2528 16.3479C25.2483 15.6873 26.3368 15.171 27.3741 14.5732C28.144 14.129 28.8953 13.6545 29.7186 13.1544L29.7163 13.1521ZM23.5853 26.2236C23.5853 28.6285 23.576 30.8428 23.6039 33.0547C23.6039 33.2291 23.8342 33.4594 24.0133 33.5664C25.3809 34.3944 26.7578 35.2061 28.1417 36.0039C28.6115 36.2737 29.1139 36.4877 29.614 36.7319C29.6651 36.597 29.7047 36.5412 29.7047 36.4854C29.7093 34.3525 29.7279 32.2174 29.6907 30.0845C29.6861 29.8589 29.4209 29.5612 29.1976 29.4286C27.9928 28.7216 26.7601 28.061 25.5414 27.3749C24.9273 27.0283 24.3249 26.6585 23.5853 26.2189V26.2236Z" fill="black"/>
<path d="M29.7163 13.1521C29.4977 12.9823 29.3651 12.8521 29.2093 12.7637C27.4509 11.7426 25.6949 10.7169 23.9179 9.72841C23.7481 9.63538 23.4132 9.70748 23.2178 9.81447C21.6176 10.6843 20.029 11.5752 18.4497 12.4799C18.166 12.6427 17.9427 12.9102 17.6892 13.1312C17.9241 13.3196 18.1404 13.5382 18.3962 13.6871C19.8313 14.5314 21.2664 15.371 22.7201 16.1851C23.1876 16.4456 23.6225 16.7642 24.2528 16.3479C25.2483 15.6873 26.3368 15.171 27.3741 14.5732C28.144 14.129 28.8953 13.6545 29.7186 13.1544L29.7163 13.1521Z" fill="black"/>
<path d="M43.4227 13.1405C43.1366 12.9428 42.9343 12.7823 42.711 12.652C41.048 11.6729 39.392 10.6843 37.708 9.74004C37.508 9.6284 37.1219 9.69352 36.894 9.81447C35.8404 10.375 34.8077 10.9774 33.7726 11.5775C32.9539 12.0543 32.1469 12.5474 31.284 13.0637C31.4537 13.2475 31.5258 13.3777 31.6375 13.4428C33.4145 14.4686 35.1868 15.4966 36.9847 16.4851C37.1777 16.5921 37.5452 16.5386 37.7592 16.4246C39.0384 15.7362 40.2991 15.0128 41.5574 14.2871C42.1667 13.9359 42.7575 13.5498 43.4227 13.1405Z" fill="black"/>
</svg>
