<svg width="54" height="44" viewBox="0 0 54 44" fill="none" xmlns="http://www.w3.org/2000/svg">
<rect width="17.3316" height="21" transform="matrix(-1 0 0 1 35.6641 1)" fill="black" stroke="black"/>
<rect width="17.3316" height="21" transform="matrix(-1 0 0 1 18.3359 22)" stroke="black"/>
<rect width="12.9987" height="16.8" transform="matrix(-1 0 0 1 15.9141 24.2261)" stroke="black"/>
<rect width="17.3316" height="21" transform="matrix(-1 0 0 1 53 22)" stroke="black"/>
<rect width="12.9987" height="16.8" transform="matrix(-1 0 0 1 50.5781 24.2261)" stroke="black"/>
<rect width="17.3316" height="21" transform="matrix(-1 0 0 1 18.3359 1)" stroke="black"/>
<rect width="12.9987" height="16.8" transform="matrix(-1 0 0 1 15.9141 3.22607)" stroke="black"/>
<rect width="17.3316" height="21" transform="matrix(-1 0 0 1 35.6719 22)" stroke="black"/>
<rect width="12.9987" height="16.8" transform="matrix(-1 0 0 1 33.6484 24.2261)" stroke="black"/>
</svg>
