<svg width="464" height="352" viewBox="0 0 464 352" fill="none" xmlns="http://www.w3.org/2000/svg">
<path fill-rule="evenodd" clip-rule="evenodd" d="M161.5 47.5H39.5V140.5H161.5V47.5ZM38 46V142H163V46H38Z" fill="black"/>
<path d="M97 95H163V142H97V95Z" fill="black"/>
<path fill-rule="evenodd" clip-rule="evenodd" d="M161.5 96.5H98.5V140.5H161.5V96.5ZM97 95V142H163V95H97Z" fill="black"/>
<path fill-rule="evenodd" clip-rule="evenodd" d="M302.5 47.5H424.5V140.5H302.5V47.5ZM426 46V142H301V46H426Z" fill="black"/>
<path d="M367 142C367 116.043 345.957 95 320 95H301V142H367Z" fill="black"/>
<path fill-rule="evenodd" clip-rule="evenodd" d="M367.004 222H301.004V269H320.004C345.459 269 366.188 248.763 366.98 223.5C366.996 223.002 367.004 222.502 367.004 222ZM365.48 223.5H302.504V267.5H320.004C344.631 267.5 364.688 247.935 365.48 223.5Z" fill="black"/>
<path fill-rule="evenodd" clip-rule="evenodd" d="M158.5 310.5H36.5V217.5H158.5V310.5ZM35 312V216H160V312H35Z" fill="black"/>
<path d="M94 263H160V216H94V263Z" fill="black"/>
<path fill-rule="evenodd" clip-rule="evenodd" d="M158.5 261.5H95.5V217.5H158.5V261.5ZM94 263V216H160V263H94Z" fill="black"/>
<path d="M441.15 218.016H293.121V329.453H441.15V218.016Z" fill="white"/>
<path fill-rule="evenodd" clip-rule="evenodd" d="M437.638 221.325H296.391V326.112H437.638V221.325ZM441.029 218V329.438H293V218H441.029Z" fill="#0070F3"/>
<path d="M357.954 285.857C357.988 274.129 360.97 270.494 366.476 266.96C370.81 264.195 374.104 261.497 374.104 257.272C374.104 253.047 370.843 250.416 366.755 250.416C362.667 250.416 358.959 253.326 358.848 258.131H342.898C343.111 243.593 353.855 237.127 366.889 237.127C381.174 237.127 391.539 243.905 391.539 256.47C391.539 264.742 387.138 269.758 380.482 273.66C375.244 276.771 372.719 279.714 372.719 285.835V287.25H357.954V285.835V285.857ZM356.603 300.974C356.536 296.058 360.623 292.078 365.616 292.078C370.608 292.078 374.562 296.058 374.629 300.974C374.562 305.958 370.363 309.971 365.616 309.971C360.623 309.971 356.536 305.958 356.603 300.974Z" fill="#0070F3"/>
</svg>
