<svg width="36" height="45" viewBox="0 0 36 45" fill="none" xmlns="http://www.w3.org/2000/svg">
<path fill-rule="evenodd" clip-rule="evenodd" d="M4 2H32C33.1046 2 34 2.89543 34 4V41C34 42.1046 33.1046 43 32 43H4C2.89543 43 2 42.1046 2 41V4C2 2.89543 2.89543 2 4 2ZM0 4C0 1.79086 1.79086 0 4 0H32C34.2091 0 36 1.79086 36 4V41C36 43.2091 34.2091 45 32 45H4C1.79086 45 0 43.2091 0 41V4ZM17.6573 32.3081C17.7633 32.3694 17.8816 32.4 18 32.4C18.119 32.4 18.2381 32.369 18.3446 32.3071C18.4589 32.2406 21.1756 30.6509 23.941 28.2559C25.5795 26.8367 26.8909 25.4293 27.8385 24.0727C29.0636 22.3188 29.6899 20.632 29.6999 19.0592C29.7119 17.1476 28.9749 15.302 27.6776 13.9958C26.4956 12.8055 24.956 12.15 23.3423 12.15C21.1533 12.15 19.1519 13.377 18 15.3206C16.8482 13.3769 14.8468 12.15 12.6578 12.15C10.9497 12.15 9.34819 12.8765 8.14812 14.1957C6.96798 15.4931 6.31173 17.2172 6.30012 19.0505C6.2902 20.6261 6.90495 22.3154 8.12741 24.0718C9.07209 25.429 10.3852 26.8371 12.0303 28.2567C14.8058 30.652 17.5421 32.2416 17.6573 32.3081Z" fill="black"/>
</svg>
