<svg width="464" height="352" viewBox="0 0 464 352" fill="none" xmlns="http://www.w3.org/2000/svg">
<path d="M193.324 96.6896C193.324 90.655 193.31 84.6068 193.337 78.5721C193.337 77.4872 193.34 77.3381 193.335 76.0093C193.329 74.6805 193.342 74.2751 193.338 73C193.335 71.1949 193.337 71.4119 193.337 70.3541C193.324 58.4476 193.337 46.541 193.337 34.6345C193.337 32.8263 194.247 31.9223 196.066 31.9223C207.535 31.9223 218.99 31.9494 230.459 31.9087C231.378 31.9087 232.001 31.9223 233.001 31.9094C234.001 31.896 234.958 31.923 236.001 31.9087C237.045 31.8949 238.375 31.8951 239.402 31.9087C251.033 31.9765 262.664 31.9901 274.309 31.9087C275.943 31.9087 276.416 32.3427 276.416 33.9835C276.362 46.0664 276.389 58.1357 276.389 70.2185C276.389 71.317 276.376 71.7291 276.389 73C276.376 73.7421 276.376 74.3146 276.376 75.5C276.376 76.8263 276.376 77.5279 276.376 78.6942C276.403 90.777 276.389 102.846 276.389 114.929C276.389 116.575 275.583 117.397 273.971 117.397C262.272 117.397 250.574 117.384 238.889 117.424C237.93 117.424 237 117.5 236 117.5C235 117.5 234.5 117.5 234 117.5C232.54 117.5 231 117.5 229.689 117.438C218.504 117.384 207.305 117.411 196.12 117.397C193.472 117.397 193.351 117.275 193.351 114.644C193.351 108.664 193.351 102.684 193.351 96.7032L193.324 96.6896ZM195.539 74.5038C195.607 74.7479 195.674 75.0056 195.742 75.2497C197.309 75.5209 198.903 75.7107 200.456 76.0905C203.104 76.7278 205.725 77.4601 208.345 78.206C213.182 79.6028 217.856 81.3792 221.773 84.6881C228.474 90.3295 230.554 98.3169 232.54 106.331C233.161 108.827 233.566 111.363 234.12 113.871C234.188 114.143 234.593 114.427 234.89 114.522C235.025 114.563 235.444 114.197 235.498 113.953C236.309 110.535 236.93 107.05 237.889 103.674C238.916 100.053 239.983 96.3913 241.536 92.9875C244.049 87.4817 248.169 83.549 253.775 81.0131C258.368 78.9383 263.124 77.5822 268 76.538C269.783 76.1583 271.553 75.7379 273.323 75.2632C273.593 75.1954 273.998 74.7072 273.944 74.5174C273.849 74.1648 273.525 73.7037 273.201 73.6224C271.918 73.2833 270.594 73.1206 269.297 72.8087C265.825 71.9815 262.272 71.3983 258.936 70.205C255.478 68.9709 252.127 67.4521 249.047 65.2281C244.684 62.0684 242.023 57.8509 240.213 52.9825C239.186 50.2296 238.443 47.3547 237.7 44.4933C236.917 41.5235 236.295 38.5129 235.566 35.5295C235.458 35.1091 235.034 34.5938 234.831 34.187C234.521 34.5667 234.214 34.8962 234.066 35.4752C232.742 40.6555 231.621 45.9037 230.135 51.0433C228.96 55.0845 226.988 58.7866 224.191 62.0141C219.625 67.2622 213.438 69.432 207.062 71.1949C203.685 72.1306 200.213 72.7409 196.809 73.5681C196.336 73.6766 195.958 74.1784 195.526 74.5038H195.539ZM232.391 115.051C232.391 114.604 232.459 114.251 232.391 113.953C231.175 109.206 229.973 104.447 228.717 99.7002C227.582 95.4013 225.718 91.4686 222.759 88.1191C218.612 83.4134 212.938 81.5013 207.224 79.7519C204.522 78.9247 201.726 78.3416 198.97 77.7178C197.917 77.4872 196.809 77.4601 195.647 77.3381C195.593 78.0297 195.553 78.4094 195.553 78.8027C195.553 90.2617 195.566 101.721 195.526 113.166C195.526 114.712 196.039 115.2 197.592 115.187C208.562 115.133 219.517 115.16 230.486 115.146C231.094 115.146 231.702 115.078 232.405 115.038L232.391 115.051ZM237.335 115.051C238.092 115.092 238.7 115.146 239.308 115.146C250.209 115.146 261.111 115.105 271.999 115.2C273.795 115.214 274.12 114.604 274.106 112.976C274.052 101.761 274.079 90.5329 274.079 79.318V77.3109C272.985 77.4194 272.08 77.4059 271.242 77.6228C266.784 78.8027 262.34 79.9553 257.923 81.2708C254.032 82.4234 250.587 84.4712 247.656 87.319C243.644 91.211 241.874 96.3099 240.28 101.463C239.443 104.175 238.727 106.928 238.105 109.695C237.714 111.403 237.605 113.18 237.349 115.065L237.335 115.051ZM232.445 34.3361C231.716 34.2819 231.108 34.187 230.5 34.187C219.531 34.187 208.575 34.2276 197.606 34.1463C195.944 34.1463 195.499 34.6616 195.512 36.2618C195.58 43.5983 195.539 50.9348 195.539 58.2713C195.539 62.2175 195.553 66.1774 195.539 70.1236C195.539 71.4119 195.823 71.9815 197.322 71.5611C199.835 70.8559 202.456 70.5576 204.941 69.7846C208.805 68.5777 212.682 67.3572 216.37 65.7027C220.922 63.6686 224.151 60.0614 226.366 55.6133C229.027 50.2839 230.23 44.4662 231.608 38.7163C231.945 37.3195 232.148 35.8821 232.445 34.3226V34.3361ZM273.958 34.3632H237.497C237.687 36.0991 237.673 37.6993 238.065 39.2045C239.213 43.5576 240.321 47.9242 241.82 52.1688C243.063 55.6676 244.86 58.9222 247.588 61.6073C250.479 64.4551 253.802 66.435 257.639 67.5741C261.773 68.8082 265.92 70.0016 270.067 71.1543C271.283 71.4933 272.553 71.6153 273.944 71.8594V34.3768L273.958 34.3632Z" fill="black"/>
<path d="M276.349 133.006C276.349 133.793 276.349 134.416 276.349 135.027C276.349 161.837 276.349 188.633 276.349 215.443C276.349 217.062 275.512 217.871 273.836 217.871C247.981 217.871 222.125 217.884 196.269 217.898C194.306 217.898 193.324 216.894 193.324 214.887C193.324 188.362 193.324 161.837 193.324 135.325C193.324 132.816 193.324 132.789 195.864 132.789C221.895 132.789 247.927 132.789 273.958 132.789C274.728 132.789 275.498 132.925 276.363 133.02L276.349 133.006ZM246.805 163.898C245.59 158.514 244.604 153.293 243.185 148.194C242.185 144.574 240.713 141.048 237.903 138.336C235.742 136.247 233.918 136.125 231.838 138.241C227.515 142.594 226.259 148.398 224.827 154.039C224.084 156.955 223.854 159.992 223.3 162.962C223.233 163.356 222.692 163.844 222.274 163.966C221.206 164.264 220.085 164.332 219.004 164.59C214.465 165.661 209.872 166.597 205.401 167.926C202.483 168.794 199.768 170.299 197.579 172.536C196.296 173.838 195.742 176.293 196.647 177.445C197.444 178.476 198.39 179.561 199.498 180.185C201.902 181.527 204.374 182.87 206.982 183.697C210.575 184.836 214.303 185.528 217.991 186.355C219.45 186.68 220.963 186.762 222.422 187.101C222.8 187.196 223.233 187.82 223.327 188.267C224.084 192.051 224.665 195.861 225.502 199.618C226.434 203.754 227.853 207.754 230.311 211.253C231.378 212.758 232.54 214.291 234.796 214.264C237.012 214.236 238.214 212.826 239.268 211.253C241.686 207.659 243.293 203.727 244.117 199.455C244.793 195.943 245.711 192.457 246.225 188.918C246.441 187.44 246.995 187.047 248.278 186.911C250.385 186.694 252.52 186.545 254.559 186.043C257.788 185.257 260.99 184.307 264.151 183.222C267.352 182.124 270.392 180.673 272.594 177.92C273.634 176.632 273.742 175.154 272.931 173.838C272.256 172.74 271.31 171.709 270.257 170.977C265.988 168.021 261.098 166.556 256.086 165.498C252.938 164.834 249.737 164.4 246.805 163.898ZM232 134.932C231.108 134.85 230.622 134.755 230.149 134.755C219.302 134.755 208.454 134.769 197.606 134.728C195.945 134.728 195.499 135.393 195.513 136.952C195.553 147.611 195.54 158.27 195.54 168.943C195.54 169.58 195.648 170.231 195.742 171.221C196.769 170.448 197.471 169.865 198.228 169.35C204.334 165.2 211.385 163.803 218.437 162.488C221.355 161.945 221.395 162.108 221.774 159.03C221.801 158.867 221.801 158.691 221.841 158.528C222.8 154.69 223.638 150.825 224.759 147.028C225.678 143.909 226.88 140.885 229.095 138.376C230.014 137.332 230.879 136.261 232 134.932ZM237.552 134.742C237.849 135.352 237.917 135.759 238.146 135.922C242.442 139.081 243.996 143.936 245.468 148.655C246.684 152.575 247.116 156.738 247.981 160.779C248.102 161.321 248.629 162.081 249.088 162.189C252.033 162.854 255.059 163.166 257.964 163.966C261.408 164.915 264.84 166.068 268.136 167.465C270.162 168.319 271.918 169.797 274.066 171.167V168.956C274.066 158.406 274.066 147.855 274.066 137.305C274.066 134.769 274.066 134.755 271.567 134.755C260.882 134.755 250.21 134.755 239.524 134.755C238.97 134.755 238.416 134.755 237.552 134.755V134.742ZM195.729 180.402C195.675 180.659 195.553 181.026 195.553 181.405C195.553 192.349 195.553 203.293 195.526 214.25C195.526 215.457 196.039 215.769 197.161 215.755C208.008 215.728 218.856 215.742 229.703 215.728C230.203 215.728 230.689 215.606 231.486 215.498C227.88 211.945 225.718 207.998 224.651 203.469C223.624 199.075 222.706 194.654 221.639 190.261C221.49 189.664 220.801 188.918 220.234 188.782C218.505 188.362 216.681 188.335 214.965 187.901C211.521 187.033 208.035 186.247 204.739 184.972C201.673 183.778 198.836 182.002 195.729 180.402ZM273.972 179.819C272.499 180.876 271.405 181.799 270.176 182.517C263.962 186.138 257.099 187.657 250.088 188.66C249.115 188.796 248.197 188.742 247.954 190.044C247.211 194.044 246.589 198.085 245.549 202.018C244.455 206.141 242.874 210.127 240.065 213.45C239.511 214.101 238.903 214.698 238.065 215.593H273.972V179.805V179.819Z" fill="black"/>
<path d="M412.126 74.0429C412.072 97.5848 393.7 115.499 371.465 115.729C347.297 115.987 329.547 97.517 329.277 74.5989C328.993 51.4367 347.135 32.7496 370.681 32.5733C393.092 32.4106 412.167 50.84 412.14 74.0293L412.126 74.0429ZM409.789 74.7887C409.708 72.8088 408.357 71.5748 406.804 70.4221C403.94 68.3201 400.684 67.0318 397.32 66.1368C393.443 65.1062 389.499 64.2654 385.527 63.6958C382.907 63.3161 382.825 63.4517 382.366 60.8887C381.61 56.5899 380.853 52.2775 379.759 48.0736C378.867 44.6426 377.395 41.3609 375.193 38.5131C372.937 35.5974 370.141 35.2855 367.952 37.8621C366.615 39.4488 365.413 41.2388 364.548 43.1102C361.806 49.0635 360.671 55.4643 359.739 61.9193C359.658 62.4889 358.928 63.3026 358.375 63.4246C355.551 64.0484 352.674 64.4824 349.824 64.9841C344.677 65.8792 339.719 67.4251 335.504 70.5441C331.87 73.2428 331.276 75.5888 334.869 78.8028C337.585 81.2438 341.029 82.5999 344.488 83.4949C348.905 84.6476 353.457 85.2578 357.942 86.1122C358.847 86.2885 359.577 86.519 359.793 87.6717C360.779 92.6622 361.671 97.6933 362.968 102.602C363.832 105.884 365.278 109.003 367.574 111.634C369.844 114.238 371.937 114.4 374.41 112.041C376.49 110.047 377.773 107.525 378.611 104.813C379.624 101.572 380.57 98.3171 381.38 95.0218C381.961 92.6893 382.312 90.289 382.69 87.9158C382.893 86.6682 383.69 86.3156 384.757 86.1122C388.864 85.3256 393.052 84.8103 397.037 83.6305C400.387 82.6406 403.615 81.0539 406.709 79.3995C408.317 78.5451 409.721 77.0806 409.776 74.7752L409.789 74.7887ZM367.331 34.838C358.064 35.7873 349.959 39.381 343.299 45.9038C336.396 52.6572 332.519 61.0108 331.492 71.0052C332.37 70.395 333.005 69.9068 333.681 69.5135C336.207 68.0489 338.598 66.1639 341.3 65.2554C345.96 63.6958 350.675 62.1092 355.686 61.8787C356.686 61.838 357.915 61.6074 358.158 60.1022C358.658 56.9696 359.064 53.7963 359.847 50.718C360.55 47.938 361.482 45.1579 362.711 42.5678C363.94 39.9505 365.656 37.5773 367.317 34.838H367.331ZM409.721 69.7169C408.465 59.0987 403.751 50.5824 395.848 43.8697C389.931 38.8385 383.001 35.9907 375.261 35.1635C375.733 36.1399 376.328 36.9129 376.922 37.6994C380.934 42.9339 382.326 49.172 383.663 55.4236C384.028 57.1188 384.149 58.8546 384.487 60.5497C384.568 60.9158 385.068 61.3905 385.446 61.4718C387.662 61.9465 389.945 62.1634 392.133 62.7601C395.875 63.7908 399.617 64.8892 403.251 66.2589C405.439 67.0861 407.411 68.4693 409.721 69.7305V69.7169ZM365.629 113.139C364.129 110.007 362.589 107.281 361.468 104.379C359.671 99.7274 358.672 94.859 358.145 89.8957C358.05 88.9736 357.713 88.3769 356.659 88.187C353.16 87.5225 349.648 86.8716 346.203 86.0037C341.583 84.851 337.112 83.3186 333.424 80.0775C333.127 79.8199 332.681 79.725 331.803 79.3181C333.451 90.4381 338.53 98.968 346.987 105.504C352.485 109.749 358.631 112.407 365.629 113.126V113.139ZM409.33 80.62C408.762 80.62 408.627 80.5793 408.546 80.62C404.318 83.7933 399.374 85.2714 394.389 86.6004C391.593 87.3462 388.675 87.631 385.838 88.2277C385.311 88.3362 384.582 88.8651 384.487 89.3261C383.879 92.1604 383.541 95.0625 382.907 97.8831C382.407 100.107 381.785 102.331 380.934 104.447C379.773 107.294 378.327 110.007 376.882 113.071C384.203 111.865 390.728 109.003 396.253 104.108C403.278 97.8831 408.006 90.2754 409.343 80.6064L409.33 80.62Z" fill="black"/>
<path d="M276.351 319.05H274.081C247.928 319.05 221.775 319.05 195.622 319.05C193.326 319.05 193.326 319.05 193.326 316.69C193.326 289.826 193.339 262.948 193.285 236.084C193.285 234.307 193.88 233.914 195.514 233.914C221.775 233.955 248.05 233.955 274.311 233.914C275.905 233.914 276.405 234.307 276.391 235.975C276.337 262.962 276.351 289.935 276.351 316.921V319.05ZM235.703 276.767V316.636H273.919V276.767H235.703ZM235.581 255.395C235.581 261.199 235.635 267.016 235.554 272.821C235.527 274.448 236.013 274.99 237.661 274.977C249.13 274.923 260.599 274.923 272.055 274.977C273.568 274.977 274.122 274.597 274.108 272.983C274.041 261.253 274.054 249.523 274.108 237.779C274.108 236.26 273.716 235.758 272.136 235.772C260.613 235.853 249.09 235.853 237.567 235.799C236 235.799 235.541 236.233 235.554 237.779C235.622 243.651 235.581 249.509 235.581 255.381V255.395ZM233.217 276.794H195.69V316.65H233.217V276.794ZM233.298 255.422C233.298 249.55 233.258 243.678 233.325 237.82C233.339 236.355 233.041 235.772 231.38 235.785C220.195 235.867 208.996 235.826 197.811 235.826C195.636 235.826 195.541 235.921 195.541 238.132C195.541 249.645 195.541 261.158 195.541 272.671C195.541 274.76 195.757 274.963 197.892 274.977C209.023 274.977 220.154 274.936 231.299 275.017C233.001 275.017 233.366 274.434 233.339 272.875C233.258 267.057 233.312 261.253 233.312 255.435L233.298 255.422Z" fill="black"/>
<path d="M371.219 217.246C348.443 217.748 329.072 198.125 329.801 174.746C330.517 151.814 348.416 134.172 371.084 134.104C394.062 134.036 412.705 152.004 412.637 176.211C412.569 198.396 394.387 217.572 371.219 217.246ZM371.435 175.411H410.449C410.867 153.916 390.577 134.795 371.435 137.06V175.411ZM371.516 177.811C371.435 178.191 371.354 178.353 371.354 178.516C371.354 190.246 371.354 201.977 371.314 213.72C371.314 214.819 371.841 215.158 372.759 215.049C375.65 214.724 378.635 214.71 381.405 213.91C388.213 211.93 394.292 208.54 399.277 203.333C402.911 199.536 405.923 195.305 407.625 190.328C408.801 186.924 409.476 183.344 410.259 179.818C410.611 178.272 410.016 177.743 408.314 177.743C396.562 177.743 384.822 177.743 373.07 177.743C372.57 177.743 372.07 177.797 371.503 177.824L371.516 177.811ZM331.692 175.546H333.935C345.012 175.546 356.076 175.519 367.153 175.587C368.747 175.587 369.247 175.207 369.233 173.553C369.166 162.324 369.206 151.096 369.179 139.867C369.179 138.782 369.139 137.575 368.679 136.653C368.531 136.341 366.964 136.612 366.099 136.816C362.601 137.643 358.967 138.145 355.671 139.515C350.091 141.833 345.323 145.481 341.365 150.092C337.218 154.92 334.435 160.493 332.976 166.664C332.314 169.457 332.125 172.373 331.679 175.546H331.692ZM332.125 177.824C332.395 199.264 352.982 215.822 369.058 214.656V177.824H332.125Z" fill="black"/>
<path d="M70.1101 303.766C69.6372 303.346 69.2725 303.02 68.6646 302.478C73.4467 297.921 78.1343 293.446 83.119 288.686C82.0788 288.13 81.6465 287.764 81.1737 287.656C77.1481 286.788 73.0144 286.3 69.1239 285.052C65.1118 283.764 61.0592 282.204 58.1548 278.855C54.8046 274.963 56.5337 271.545 59.5597 269.131C62.4101 266.853 65.6927 265.294 69.205 264.344C72.6767 263.395 76.216 262.69 79.7283 261.849C80.1201 261.754 80.6469 261.497 80.7415 261.212C80.8225 260.941 80.4578 260.452 80.1741 260.168C76.6213 256.587 73.0144 253.048 69.4887 249.427C69.1374 249.075 69.2725 248.261 69.1779 247.651C69.7183 247.759 70.4343 247.678 70.7585 247.99C74.3653 251.543 77.9181 255.177 81.498 258.757C82.0383 259.3 82.6732 259.734 83.4837 260.398C83.808 259.083 84.0916 257.971 84.3348 256.845C84.9697 253.957 85.3885 250.987 86.2801 248.18C87.2122 245.237 88.4415 242.376 89.8194 239.609C91.1162 237.005 92.8453 234.673 95.9929 234.076C99.0729 233.493 101.099 235.242 102.774 237.439C105.584 241.128 107.016 245.495 108.191 249.902C108.934 252.682 109.272 255.57 109.853 258.391C109.961 258.947 110.366 259.449 110.623 259.964C111.082 259.679 111.595 259.462 111.974 259.096C115.567 255.543 119.12 251.95 122.74 248.424C123.051 248.112 123.74 248.193 124.267 248.098C124.186 248.641 124.307 249.359 124.01 249.671C120.66 253.157 117.242 256.574 113.865 260.032C113.541 260.357 113.365 260.819 113.108 261.212C113.527 261.429 113.919 261.768 114.351 261.836C119.431 262.622 124.375 263.87 129.089 265.931C131.872 267.138 134.533 268.63 136.398 271.166C138.005 273.349 137.965 276.102 136.303 278.272C134.317 280.875 131.534 282.367 128.617 283.587C123.605 285.676 118.404 287.046 112.987 287.629C112.447 287.683 111.933 288.049 110.744 288.564C114.594 292.239 118.093 295.575 121.578 298.938C122.362 299.698 123.186 300.444 123.848 301.312C124.145 301.691 124.078 302.342 124.186 302.871C123.632 302.803 122.875 302.925 122.551 302.614C120.011 300.173 117.566 297.623 115.081 295.141C113.527 293.582 111.947 292.063 110.164 290.314C109.745 292.172 109.326 293.595 109.096 295.06C108.218 300.674 106.557 306.017 103.517 310.804C101.883 313.381 99.9104 315.727 96.2225 315.388C94.3988 315.225 93.1965 314.168 92.1429 313.015C89.4141 310.004 87.712 306.397 86.6853 302.464C86.0774 300.145 85.3885 297.84 84.8211 295.508C84.5374 294.328 84.4834 293.08 84.2537 291.873C84.1862 291.493 83.889 291.141 83.7134 290.775C83.3892 290.951 83.0109 291.046 82.7543 291.29C78.9853 295.006 75.2164 298.749 71.4609 302.478C71.0692 302.871 70.6639 303.237 70.0965 303.766H70.1101ZM108.556 261.252C107.651 257.13 106.908 253.346 106.003 249.604C104.949 245.318 103.463 241.196 100.505 237.819C98.1002 235.08 95.8848 235.107 93.5343 237.751C91.6565 239.853 90.6299 242.362 89.5357 244.925C87.2797 250.187 86.4287 255.733 85.6992 261.32C85.6046 261.998 86.0369 262.948 86.5502 263.476C89.5897 266.65 92.7778 269.701 95.8037 272.901C96.7899 273.946 97.3573 273.81 98.2488 272.901C101.194 269.877 104.247 266.935 107.151 263.87C107.84 263.137 108.151 262.053 108.57 261.252H108.556ZM110.893 285.947C111.731 285.879 112.595 285.906 113.406 285.717C117.067 284.808 120.714 283.832 124.375 282.896C127.684 282.055 130.751 280.685 133.358 278.461C136.425 275.844 136.357 273.186 133.21 270.704C129.508 267.789 125.118 266.392 120.673 265.185C118.634 264.629 116.594 264.005 114.513 263.721C112.555 263.449 110.596 262.961 108.853 264.982C106.057 268.236 102.909 271.206 99.7888 274.163C98.6676 275.22 98.6676 275.844 99.7078 276.875C102.18 279.302 104.611 281.77 106.989 284.293C108.083 285.459 109.164 286.381 110.893 285.961V285.947ZM82.6867 286.327C84.0241 285.825 85.483 285.662 86.3611 284.849C89.2115 282.218 91.8592 279.343 94.5879 276.576C95.3174 275.844 95.3579 275.22 94.5609 274.434C91.8727 271.789 89.1709 269.145 86.5908 266.392C84.6185 264.29 82.5787 262.758 79.4716 263.653C75.9594 264.67 72.393 265.511 68.8943 266.555C65.6387 267.518 62.5857 268.969 60.046 271.274C57.5604 273.512 57.8036 276.237 60.4243 278.312C63.3016 280.604 66.4762 282.177 70.0425 283.045C74.2302 284.076 78.4044 285.201 82.6867 286.313V286.327ZM85.6046 289.636C86.4287 293.229 87.1716 296.837 88.1037 300.403C89.1439 304.336 90.5353 308.16 93.2911 311.279C95.9523 314.29 97.8706 314.33 100.451 311.55C103.355 308.431 104.706 304.444 105.868 300.457C106.8 297.257 107.259 293.921 108.016 290.653C108.34 289.27 108.191 288.144 107.151 287.113C104.301 284.293 101.491 281.418 98.6406 278.583C97.006 276.956 96.7764 277.037 95.0878 278.787C92.9534 280.997 90.6299 283.045 88.5766 285.337C87.4553 286.584 85.4965 287.398 85.5911 289.649L85.6046 289.636Z" fill="black"/>
<line x1="56" y1="72" x2="138" y2="72" stroke="black" stroke-width="2"/>
<line x1="98" y1="32" x2="98" y2="114" stroke="black" stroke-width="2"/>
<line x1="125.07" y1="41.7779" x2="70.4145" y2="102.907" stroke="black" stroke-width="2"/>
<line x1="129.172" y1="100.951" x2="68.9851" y2="45.2598" stroke="black" stroke-width="2"/>
<path d="M101.556 71.862C101.556 73.749 100.026 75.8481 98.1393 75.8481C96.2524 75.8481 94.7227 73.749 94.7227 71.862C94.7227 69.975 96.2524 68.4453 98.1393 68.4453C100.026 68.4453 101.556 69.975 101.556 71.862Z" fill="black"/>
<line x1="120.484" y1="151.107" x2="74.0178" y2="197.574" stroke="black" stroke-width="2"/>
<line x1="119.898" y1="197.494" x2="73.5122" y2="151.108" stroke="black" stroke-width="2"/>
<path d="M61.2362 173.983L85.1777 164.406C85.9479 164.098 86.5561 163.485 86.8579 162.712L96.105 139.04C96.4339 138.198 97.6226 138.19 97.9629 139.027L107.6 162.75C107.905 163.5 108.5 164.095 109.25 164.4L132.808 173.97C133.656 174.315 133.634 175.524 132.774 175.836L108.469 184.675C107.635 184.978 106.978 185.635 106.675 186.469L97.9398 210.489C97.6206 211.367 96.3794 211.367 96.0602 210.489L87.3254 186.469C87.0222 185.635 86.3652 184.978 85.5313 184.675L61.2659 175.851C60.403 175.537 60.3837 174.324 61.2362 173.983Z" stroke="black" stroke-width="2"/>
<circle cx="96.998" cy="174.09" r="1.82222" fill="black"/>
<circle cx="86.0722" cy="163.154" r="1.82222" fill="black"/>
<circle cx="86.0722" cy="185.021" r="1.82222" fill="black"/>
<circle cx="107.936" cy="185.021" r="1.82222" fill="black"/>
<circle cx="107.936" cy="163.154" r="1.82222" fill="black"/>
<path d="M441.15 218.016H293.121V329.453H441.15V218.016Z" fill="white"/>
<path fill-rule="evenodd" clip-rule="evenodd" d="M437.638 221.325H296.391V326.112H437.638V221.325ZM441.029 218V329.438H293V218H441.029Z" fill="#0070F3"/>
<path d="M357.954 285.857C357.988 274.129 360.97 270.494 366.476 266.96C370.81 264.195 374.104 261.497 374.104 257.272C374.104 253.047 370.843 250.416 366.755 250.416C362.667 250.416 358.959 253.326 358.848 258.131H342.898C343.111 243.593 353.855 237.127 366.889 237.127C381.174 237.127 391.539 243.905 391.539 256.47C391.539 264.742 387.138 269.758 380.482 273.66C375.244 276.771 372.719 279.714 372.719 285.835V287.25H357.954V285.835V285.857ZM356.603 300.974C356.536 296.058 360.623 292.078 365.616 292.078C370.608 292.078 374.562 296.058 374.629 300.974C374.562 305.958 370.363 309.971 365.616 309.971C360.623 309.971 356.536 305.958 356.603 300.974Z" fill="#0070F3"/>
</svg>
