<svg width="60" height="42" viewBox="0 0 60 42" fill="none" xmlns="http://www.w3.org/2000/svg">
<path d="M29.4016 29.1866C30.8882 29.3725 32.4987 29.8835 33.1181 30.1158C35.6732 30.6578 44.5 38.2457 44.5 38.2457C44.5 38.2457 41.334 28.5268 37.7638 23.1473C35.7661 20.1373 31.9567 15.9465 31.9567 15.9465C30.6404 14.4753 27.7756 11.3937 26.8465 10.8362C25.9173 10.2788 26.769 9.36511 27.311 8.97797C28.395 8.90057 31.4921 9.44258 31.4921 9.44258C31.4921 9.44258 28.7976 7.11975 27.311 7.11975V6.4229C27.0787 5.49377 25.5457 3.6778 23.1299 4.04945C20.7142 4.4211 19.336 6.26804 18.7165 7.11975C17.7874 8.35858 16.1724 11.6297 16.1614 14.7851C16.1508 17.8263 16.8926 19.6267 18.4843 22.2181C20.3334 25.2287 21.9188 26.9997 25.2205 28.2575C26.3551 28.6897 27.0334 28.7646 28.2402 28.9977M29.4016 29.1866L26.8465 32.2063M29.4016 29.1866C29.0331 29.1406 28.6379 29.0745 28.2402 28.9977M26.8465 32.2063L32.4213 32.9032V34.5291L15 31.7417V30.348L22.8976 31.5869M26.8465 32.2063L22.8976 31.5869M22.8976 31.5869L28.2402 28.9977M25.2205 12.4622C28.6273 15.9465 35.6268 23.3331 36.3701 25.0055M24.2913 14.5528C27.0787 17.4176 32.8394 23.5654 33.5827 25.2378M23.8268 16.411L30.0984 23.6118" stroke="black"/>
<circle cx="0.929134" cy="0.929134" r="0.929134" transform="matrix(-1 0 0 1 23.8267 5.95825)" fill="black"/>
</svg>
