<svg width="60" height="42" viewBox="0 0 60 42" fill="none" xmlns="http://www.w3.org/2000/svg">
<path d="M19.011 24.7846C20.308 22.2817 21.5949 19.7688 22.9162 17.2781C23.0824 16.966 23.3904 16.7046 23.6822 16.4857C25.9358 14.7955 28.1995 13.1256 30.4652 11.4516C30.7144 11.2672 30.9677 11.0544 31.2515 10.9531C31.3994 10.9004 31.6933 11.0118 31.7986 11.1456C33.6408 13.4397 34.3887 16.0783 34.0624 18.9803C33.8902 20.5307 33.3511 22.004 32.4878 23.3253C30.822 25.8667 28.4651 27.4089 25.5022 27.9642C24.1221 28.2216 22.6934 28.2419 21.3274 27.7616C20.4134 27.4414 19.5136 27.0726 18.6118 26.7078C18.1822 26.5335 18.1254 26.2518 18.3686 25.8567C18.5855 25.504 18.7476 25.119 18.932 24.7501C18.9604 24.7643 18.9847 24.7765 19.0131 24.7907L19.011 24.7846ZM23.6701 24.5859C24.6125 25.1331 25.8953 24.7562 26.4222 23.6821C26.9248 22.6667 26.7019 21.5623 25.5406 20.936C24.3916 20.3159 23.2384 20.8489 22.7217 21.7812C22.2738 22.5857 22.4947 24.0692 23.6701 24.5859ZM30.6719 17.807C31.1259 16.7673 30.7368 15.5088 29.7579 15.0245C28.771 14.5361 27.476 14.9069 26.9531 15.9932C26.4809 16.9781 26.8782 18.2508 27.8469 18.725C28.9615 19.2722 30.1856 18.7291 30.6699 17.811L30.6719 17.807Z" fill="black"/>
<path d="M30.6719 17.807C31.1259 16.7673 30.7368 15.5088 29.7579 15.0245C28.771 14.5361 27.476 14.9069 26.9531 15.9932C26.4809 16.9781 26.8782 18.2508 27.8469 18.725C28.9615 19.2722 30.1856 18.7291 30.6699 17.811L30.6719 17.807Z" fill="black"/>
<path d="M35.0251 8.16868C36.004 9.12927 36.6201 10.2682 37.1875 11.4335C38.2961 13.7154 38.6913 16.1473 38.5596 18.6501C38.5069 19.7181 38.2475 20.8044 37.9111 21.8217C37.5159 23.0276 36.9971 24.1969 36.4216 25.3277C35.765 26.6207 34.7659 27.6664 33.7121 28.6595C32.6785 29.6322 31.5072 30.3841 30.2608 31.0326C28.143 32.127 25.8712 32.6073 23.5123 32.5323C22.3389 32.4979 21.1473 32.277 20.0083 31.971C18.8572 31.6589 17.7629 31.1422 16.6462 30.7105C16.1659 30.5261 16.0119 30.2363 16.3301 29.7621C16.5287 29.4662 16.6827 29.1379 16.8225 28.8075C17.0049 28.3718 17.2339 28.2279 17.6818 28.5177C18.0263 28.7407 18.4195 28.8967 18.7924 29.073C20.6041 29.9282 22.5213 30.2585 24.5094 30.1329C26.1833 30.0275 27.7924 29.6059 29.2921 28.8358C30.6985 28.1103 31.9307 27.176 32.9987 25.9824C34.399 24.4178 35.3373 22.6223 35.844 20.6159C36.5816 17.6814 36.1682 14.8402 34.8955 12.1266C34.5307 11.3464 34.0341 10.6067 33.4991 9.93385C33.2134 9.57312 33.3248 9.39072 33.568 9.1982C34.0179 8.84557 34.4982 8.53347 35.0271 8.16463L35.0251 8.16868Z" fill="black"/>
</svg>
