<svg width="44" height="44" viewBox="0 0 44 44" fill="none" xmlns="http://www.w3.org/2000/svg">
<circle cx="22.7385" cy="22.7392" r="13.9978" stroke="black" stroke-width="0.7"/>
<mask id="path-2-inside-1_2582_10985" fill="white">
<path d="M22.029 9.10467C22.1141 8.65338 23.0091 8.63614 23.1058 9.08508C24.8733 17.2938 28.6779 20.3848 36.5874 22.1978C36.9699 22.2854 37.0003 22.8267 36.6261 22.9446C29.0185 25.3421 25.0991 25.6739 22.8815 36.4445C22.7957 36.8608 22.1513 36.8747 22.0511 36.4617C19.7086 26.807 15.7964 24.7294 8.75188 23.0176C8.33179 22.9155 8.36129 22.2526 8.7871 22.1778C15.6329 20.9766 20.3966 17.7675 22.029 9.10467Z"/>
</mask>
<path d="M8.75188 23.0176L8.91717 22.3374L8.75188 23.0176ZM8.7871 22.1778L8.66612 21.4884L8.7871 22.1778ZM22.8815 36.4445L23.5671 36.5857L22.8815 36.4445ZM22.0511 36.4617L21.3708 36.6267L22.0511 36.4617ZM36.6261 22.9446L36.4157 22.277L36.6261 22.9446ZM22.4215 9.23243C23.3228 13.4185 24.764 16.394 27.0646 18.5505C29.357 20.6993 32.426 21.9621 36.431 22.8801L36.7438 21.5155C32.8394 20.6205 30.0513 19.4313 28.0221 17.5291C26.0011 15.6347 24.6563 12.9604 23.7901 8.93774L22.4215 9.23243ZM36.4157 22.277C34.5438 22.8669 32.8319 23.3497 31.3412 23.8931C29.8358 24.4419 28.4867 25.075 27.301 26.0035C24.902 27.882 23.3184 30.8512 22.1958 36.3033L23.5671 36.5857C24.6621 31.2672 26.1471 28.6852 28.1641 27.1058C29.1864 26.3053 30.3822 25.7328 31.8206 25.2085C33.2737 24.6788 34.9046 24.2211 36.8365 23.6123L36.4157 22.277ZM22.7314 36.2966C21.5436 31.4011 19.9319 28.314 17.6335 26.2412C15.344 24.1764 12.4559 23.1973 8.91717 22.3374L8.5866 23.6978C12.0924 24.5497 14.6827 25.4653 16.6959 27.2809C18.7004 29.0886 20.2161 31.8676 21.3708 36.6267L22.7314 36.2966ZM8.90809 22.8673C12.4029 22.2541 15.448 21.1148 17.8326 18.9585C20.2241 16.7959 21.8801 13.675 22.7169 9.2343L21.3411 8.97504C20.5455 13.1972 19.0034 16.0122 16.8935 17.9201C14.7767 19.8344 12.0171 20.9004 8.66612 21.4884L8.90809 22.8673ZM8.91717 22.3374C8.99567 22.3565 9.06723 22.4098 9.11006 22.4768C9.14694 22.5345 9.15301 22.5855 9.15163 22.6176C9.15024 22.6499 9.13993 22.6972 9.10147 22.7481C9.05696 22.807 8.98593 22.8537 8.90809 22.8673L8.66612 21.4884C8.04724 21.597 7.77121 22.1327 7.75293 22.5573C7.73458 22.9834 7.96692 23.5472 8.5866 23.6978L8.91717 22.3374ZM22.1958 36.3033C22.2116 36.2269 22.2594 36.157 22.3202 36.1131C22.3732 36.0749 22.4227 36.0649 22.457 36.0642C22.4912 36.0635 22.542 36.0713 22.5978 36.1083C22.6619 36.1508 22.7128 36.2202 22.7314 36.2966L21.3708 36.6267C21.5174 37.2309 22.0617 37.4729 22.4865 37.4639C22.9107 37.455 23.4423 37.1916 23.5671 36.5857L22.1958 36.3033ZM36.431 22.8801C36.2781 22.845 36.1973 22.7057 36.1915 22.5973C36.1886 22.5436 36.2006 22.4782 36.2414 22.4142C36.2861 22.3442 36.3523 22.297 36.4157 22.277L36.8365 23.6123C37.9373 23.2653 37.7745 21.7517 36.7438 21.5155L36.431 22.8801ZM23.7901 8.93774C23.7143 8.58555 23.4815 8.35169 23.2466 8.22221C23.0204 8.09757 22.7707 8.05329 22.55 8.05741C22.329 8.06154 22.0819 8.11516 21.8611 8.24685C21.6323 8.38324 21.4075 8.62263 21.3411 8.97504L22.7169 9.2343C22.7062 9.29089 22.6819 9.34184 22.6513 9.38176C22.6222 9.41959 22.5936 9.44002 22.578 9.44933C22.5519 9.46489 22.5506 9.45764 22.5761 9.45717C22.6018 9.45669 22.5994 9.46406 22.5709 9.44836C22.554 9.43903 22.5236 9.4187 22.4925 9.38058C22.4597 9.34036 22.4337 9.2891 22.4215 9.23243L23.7901 8.93774Z" fill="black" mask="url(#path-2-inside-1_2582_10985)"/>
<line x1="22.6" y1="9" x2="22.6" y2="36" stroke="black" stroke-width="0.7"/>
<path d="M9.75 22.7H35.75" stroke="black" stroke-width="0.7"/>
</svg>
