<svg width="60" height="42" viewBox="0 0 60 42" fill="none" xmlns="http://www.w3.org/2000/svg">
<path fill-rule="evenodd" clip-rule="evenodd" d="M17.674 7.42191C17.4514 7.50529 17.2268 7.58939 17 7.67431H17.0099C17.0228 7.77422 17.0304 7.87721 17.0381 7.98142C17.054 8.19483 17.0702 8.41337 17.1331 8.62117C17.4147 9.56127 17.7126 10.4991 18.0108 11.4378C18.1458 11.8626 18.2808 12.2877 18.4144 12.7131C18.5278 13.0747 18.6427 13.4358 18.7577 13.7969C18.9877 14.5191 19.2177 15.2413 19.4346 15.9677C19.4984 16.1847 19.5723 16.4023 19.6463 16.6205C19.8467 17.2109 20.0483 17.805 20.0555 18.3991C20.1147 22.9336 20.1147 27.4728 20.0457 32.0073C20.0309 32.897 20.4054 33.3157 21.12 33.6774C22.5536 34.3986 23.9803 35.131 25.4079 35.8639C26.071 36.2043 26.7343 36.5448 27.3986 36.8843C27.6884 37.033 27.978 37.1821 28.2676 37.3313C29.3126 37.8694 30.3578 38.4077 31.4151 38.9255C31.6123 39.0207 31.9375 39.0255 32.1347 38.9351C33.1696 38.4545 34.1848 37.9406 35.1951 37.4172C36.0428 36.9778 36.8883 36.5356 37.7334 36.0937C39.4137 35.215 41.0926 34.3371 42.7846 33.4823C43.3267 33.2063 43.5485 32.9065 43.5485 32.307C43.5189 27.8867 43.5238 23.4665 43.5485 19.0509C43.5485 19.0326 43.5488 19.0141 43.5495 18.9956C43.5512 18.3442 43.187 18.1053 42.3769 17.7676C42.3684 17.7641 42.3597 17.7605 42.3509 17.7567C41.3454 17.327 40.3107 16.9575 39.2766 16.5882C38.7193 16.3892 38.1622 16.1902 37.6099 15.982C36.6719 15.6304 35.7394 15.2576 34.8083 14.8853C34.4919 14.7589 34.1757 14.6324 33.8595 14.507C33.6087 14.4074 33.3579 14.2987 33.082 14.179C32.9642 14.1279 32.8417 14.0748 32.7127 14.0196C32.7106 14.0187 32.7084 14.0178 32.7063 14.0169L32.3515 13.1081C32.2333 12.6382 32.1194 12.192 32.0094 11.7609C31.8074 10.9697 31.6184 10.2294 31.4398 9.48715C31.1112 8.12003 30.7871 6.7529 30.4629 5.38578C30.3008 4.70216 30.1387 4.01854 29.9761 3.33492C29.8923 2.98282 29.7543 2.92572 29.3699 3.08274C28.6188 3.39448 27.8503 3.67002 27.082 3.94545C26.7715 4.05679 26.461 4.1681 26.1518 4.28178C24.486 4.89558 22.8203 5.50937 21.1595 6.12317C20.0164 6.54455 18.8733 6.97271 17.674 7.42191ZM31.3672 37.8596C31.3554 37.9187 31.3415 37.9884 31.3264 38.0739L31.3215 38.0834C31.0194 37.93 30.727 37.7826 30.4413 37.6385C29.9114 37.3711 29.4045 37.1155 28.9017 36.8558C27.5454 36.1566 26.1911 35.4538 24.8362 34.7506C24.0151 34.3245 23.1938 33.8983 22.3718 33.4728C22.2224 33.3946 22.0672 33.3259 21.9124 33.2575C21.6435 33.1385 21.3762 33.0203 21.1447 32.8542C20.9377 32.7019 20.7553 32.3736 20.7553 32.1262C20.7307 28.0446 20.7356 23.9677 20.7405 19.8861L20.7405 19.8836C20.7405 19.4744 20.844 19.246 21.3763 19.4934C23.1307 20.3118 24.8977 21.1058 26.6647 21.8998C27.1065 22.0984 27.5484 22.2969 27.99 22.4958C28.341 22.6536 28.6939 22.808 29.0466 22.9623C29.7041 23.2499 30.3614 23.5374 31.0061 23.8471C31.1884 23.9328 31.3905 24.2135 31.3905 24.4038C31.4096 27.8233 31.4079 31.2428 31.4062 34.6623C31.4058 35.6393 31.4053 36.6163 31.4053 37.5933C31.4053 37.6688 31.3902 37.7442 31.3672 37.8596ZM42.2941 19.4538C42.4093 19.3965 42.532 19.3354 42.6663 19.2698H42.6713C42.6837 19.3867 42.6981 19.4912 42.7114 19.5878C42.7349 19.7584 42.755 19.9043 42.755 20.0501C42.7575 22.0414 42.7575 24.0327 42.7575 26.0239C42.7575 28.0152 42.7575 30.0065 42.76 31.9977C42.76 32.4498 42.6417 32.721 42.1587 32.9589C41.1545 33.4524 40.1686 33.9813 39.1832 34.5099C38.5534 34.8478 37.9237 35.1856 37.2896 35.514C36.2107 36.0758 35.1231 36.6251 34.0082 37.1883C33.4425 37.474 32.8697 37.7633 32.2874 38.0596C32.2744 37.97 32.2592 37.8861 32.2447 37.806C32.2154 37.6437 32.1889 37.4972 32.1889 37.3506C32.1873 36.0459 32.1877 34.7411 32.188 33.4363C32.1888 30.5016 32.1896 27.5669 32.1692 24.6322C32.1642 24.0517 32.4649 23.8328 32.9084 23.6378C33.4213 23.4085 33.9334 23.1778 34.4457 22.9471C35.2625 22.5793 36.0795 22.2113 36.9003 21.8487C37.8407 21.4321 38.7847 21.0189 39.7279 20.6061C40.3467 20.3353 40.9652 20.0646 41.5821 19.7932C41.8112 19.6942 42.0332 19.5837 42.2941 19.4538ZM31.5311 12.9938C31.598 13.2251 31.6708 13.4769 31.7503 13.7599V13.7647C31.7431 13.767 31.7274 13.7712 31.7052 13.7772C31.6354 13.796 31.5017 13.8319 31.3708 13.8789C30.4492 14.2262 29.5276 14.5736 28.611 14.9304C26.8319 15.6156 25.0528 16.3055 23.2786 16.9954C23.042 17.0874 22.8066 17.1821 22.5711 17.2767C22.1002 17.466 21.6293 17.6552 21.1496 17.8234C21.0412 17.8614 20.7652 17.7425 20.7356 17.6473C20.5221 17.0002 20.326 16.3489 20.13 15.6975C20.032 15.3719 19.9339 15.0462 19.8337 14.7211C19.7179 14.3452 19.5997 13.9705 19.4814 13.5958C19.3631 13.2211 19.2448 12.8464 19.129 12.4705C19.095 12.3605 19.0609 12.2504 19.0268 12.1402C18.7202 11.1503 18.4124 10.1565 18.1286 9.15884C18.1254 9.14768 18.1222 9.13636 18.119 9.12489C18.0308 8.81367 17.9122 8.39537 18.0596 8.20722C18.1931 8.03425 18.4643 7.9604 18.7322 7.88744C18.8402 7.85804 18.9476 7.82879 19.0452 7.79327L19.0532 7.79033C20.603 7.22033 22.1527 6.65034 23.7024 6.0851C24.2544 5.88333 24.8065 5.68309 25.3585 5.48285C26.1864 5.18254 27.0143 4.88223 27.8422 4.57678C28.1231 4.4721 28.399 4.33412 28.6652 4.19138C29.2023 3.90113 29.3206 3.94871 29.4537 4.4959C30.0303 6.92729 30.6118 9.35392 31.1983 11.7806C31.2899 12.1597 31.3989 12.5367 31.5311 12.9938ZM41.9721 18.4172C42.084 18.4719 42.205 18.531 42.3411 18.5942V18.6037C41.853 18.8293 41.3784 19.0504 40.9122 19.2676C39.9332 19.7237 38.9918 20.1623 38.0436 20.5878C36.0674 21.4728 34.0813 22.3388 32.0903 23.2C31.9277 23.2666 31.6862 23.3047 31.5383 23.2381C29.7949 22.4694 28.057 21.6874 26.3204 20.9061C25.7351 20.6427 25.15 20.3794 24.5649 20.1168C24.0301 19.8765 23.4967 19.6362 22.9632 19.3959C22.4297 19.1556 21.8962 18.9153 21.3615 18.6751C21.3516 18.6132 21.3467 18.5561 21.3418 18.499C21.6073 18.3991 21.8721 18.3005 22.1366 18.2019C22.6282 18.0187 23.1185 17.836 23.6088 17.6473C24.1932 17.4225 24.7776 17.1957 25.3625 16.9687C26.0649 16.6961 26.768 16.4233 27.4725 16.1533C27.7308 16.0533 27.9889 15.9528 28.2469 15.8523C29.2791 15.4504 30.3112 15.0484 31.356 14.683C31.6369 14.5831 32.0262 14.6069 32.3121 14.7115C33.39 15.1116 34.4606 15.5275 35.5306 15.9432C36.2168 16.2098 36.9028 16.4764 37.5902 16.7385C38.2956 17.0088 39.004 17.2702 39.7129 17.5318C40.2769 17.74 40.8413 17.9482 41.4047 18.1612C41.5874 18.2293 41.7639 18.3155 41.9721 18.4172Z" fill="black"/>
</svg>
