<svg width="60" height="42" viewBox="0 0 60 42" fill="none" xmlns="http://www.w3.org/2000/svg">
<path d="M44.9907 20.4418C44.9907 23.0057 44.9814 25.5696 45 28.1312C45.0023 28.6147 44.8324 28.8727 44.404 29.1191C42.2413 30.3557 40.1158 31.6528 37.9578 32.8964C35.5809 34.2655 33.1877 35.5998 30.7922 36.9364C30.6571 37.0107 30.4127 37.0247 30.2846 36.9526C27.8007 35.5324 25.326 34.0935 22.849 32.664C20.7584 31.4575 18.6702 30.2511 16.5704 29.0656C16.1699 28.8402 16 28.5635 16 28.0986C16.0116 22.9917 16 17.8848 16.0256 12.7779C16.0256 12.5152 16.2165 12.1433 16.4353 12.0085C17.7879 11.1624 19.1661 10.3604 20.5466 9.56313C23.1167 8.07778 25.6915 6.60173 28.2663 5.12335C28.7179 4.863 29.1928 4.63753 29.6119 4.33302C30.2497 3.87045 30.8294 3.91694 31.4906 4.30513C33.8814 5.71145 36.2932 7.07825 38.6911 8.47062C40.1554 9.32138 41.6034 10.1954 43.0631 11.0531C43.2167 11.1438 43.3913 11.2042 43.5496 11.2879C44.5119 11.7962 44.993 12.609 44.993 13.7263C44.993 15.9648 44.993 18.2033 44.993 20.4394L44.9907 20.4418ZM44.1526 12.571C42.2366 13.6728 40.4557 14.6979 38.6725 15.7207C38.3023 15.9346 38.0509 16.181 38.0555 16.6714C38.0765 18.8472 38.0602 21.0229 38.0718 23.1986C38.0718 23.3846 38.1324 23.6961 38.2325 23.7286C38.4024 23.7821 38.6515 23.6961 38.8261 23.5984C40.2532 22.8081 41.6942 22.0433 43.0747 21.1809C43.5659 20.8764 44.3225 20.7718 44.3062 19.8723C44.2643 17.6965 44.2969 15.5208 44.2876 13.3451C44.2876 13.1196 44.2108 12.8941 44.1526 12.5687V12.571ZM31.3602 27.8941C31.6652 27.729 31.8956 27.6082 32.1191 27.4803C33.5229 26.683 34.9407 25.902 36.3258 25.0722C36.852 24.756 37.5061 24.591 37.4689 23.6682C37.3827 21.5552 37.4433 19.4376 37.4386 17.3223C37.4386 17.0922 37.3897 16.8644 37.3571 16.5785C37.0708 16.6993 36.8589 16.7667 36.6704 16.876C35.1641 17.7384 33.6859 18.6449 32.1517 19.4538C31.4812 19.8072 31.2461 20.2302 31.2624 20.9741C31.309 23.0266 31.2741 25.0838 31.2787 27.1386C31.2787 27.3711 31.3276 27.6035 31.3602 27.8964V27.8941ZM22.8886 23.9192C22.9188 23.624 22.9375 23.524 22.9375 23.4264C22.9375 21.1112 22.9281 18.796 22.9514 16.4808C22.9561 16.0392 22.6837 15.8904 22.3904 15.7207C21.1426 15.0024 19.8948 14.2842 18.6469 13.5706C18.0696 13.2405 17.4876 12.922 16.8055 12.5408C16.8055 15.2209 16.8008 17.757 16.8195 20.2907C16.8195 20.4208 16.9871 20.5928 17.1221 20.6719C18.5073 21.4948 19.8971 22.3083 21.2939 23.108C21.7804 23.3869 22.2949 23.6193 22.8909 23.9215L22.8886 23.9192ZM29.8679 32.2734C29.8679 31.3181 29.8493 30.3627 29.8749 29.4073C29.8889 28.9355 29.684 28.6844 29.2859 28.4613C27.6144 27.5245 25.9639 26.5505 24.2993 25.5998C24.1364 25.5068 23.8943 25.3929 23.7662 25.4534C23.6498 25.5092 23.587 25.7858 23.587 25.9648C23.5753 27.8941 23.566 29.8257 23.5963 31.7551C23.6009 31.9991 23.7825 32.3408 23.9851 32.4664C25.7543 33.5449 27.5423 34.5933 29.3418 35.6254C29.7655 35.8694 29.8679 35.5626 29.8679 35.1976C29.8679 34.2214 29.8679 33.2474 29.8679 32.2711V32.2734ZM24.3832 16.095C26.4132 17.2688 28.3152 18.3776 30.2334 19.4562C30.401 19.5515 30.727 19.5166 30.9086 19.4167C32.0423 18.7914 33.1597 18.1312 34.2795 17.4804C35.0478 17.0341 35.8113 16.5808 36.6378 16.095C36.3724 15.9113 36.1978 15.7742 36.0092 15.6649C34.3656 14.7142 32.7104 13.7844 31.0855 12.8035C30.6921 12.5664 30.408 12.5617 30.0309 12.7802C28.6504 13.5799 27.2536 14.3516 25.8707 15.1466C25.3958 15.4209 24.9442 15.7347 24.3832 16.0926V16.095ZM31.2764 35.8392C31.87 35.5091 32.2984 35.272 32.7267 35.0326C33.9838 34.3283 35.241 33.624 36.4934 32.9127C37.1011 32.5663 37.5247 32.1944 37.4735 31.332C37.3711 29.591 37.4433 27.8383 37.4409 26.0903C37.4409 25.8741 37.4223 25.6579 37.406 25.3302C37.1523 25.4417 36.973 25.5022 36.8124 25.5928C35.2293 26.4785 33.6509 27.3688 32.0702 28.2544C31.5464 28.5473 31.2368 28.8913 31.2601 29.5863C31.3229 31.3715 31.2764 33.1614 31.2741 34.9513C31.2741 35.1884 31.2741 35.4254 31.2741 35.8392H31.2764ZM30.564 4.64915C30.3917 4.72121 30.2148 4.77467 30.0588 4.86533C28.3408 5.85788 26.6297 6.86207 24.907 7.84533C24.4856 8.08475 24.46 8.22422 24.9046 8.48224C26.4248 9.3609 27.9078 10.3116 29.4512 11.1438C29.9098 11.3902 30.3638 11.9155 31.0808 11.4599C32.7314 10.4116 34.4285 9.43761 36.1303 8.47294C36.5935 8.21028 36.5656 8.08707 36.1466 7.84533C34.78 7.05268 33.4251 6.23678 32.0586 5.44413C31.5767 5.16519 31.0738 4.91879 30.564 4.64915ZM31.2112 12.1387C33.3157 13.3381 35.2037 14.4236 37.1057 15.4836C37.2663 15.5743 37.5667 15.5533 37.7366 15.465C38.4466 15.0954 39.1334 14.6793 39.8271 14.2795C41.0028 13.6008 42.1761 12.922 43.3517 12.2433C43.4076 12.1526 43.4612 12.062 43.517 11.969C43.3471 11.9016 43.1702 11.8504 43.0095 11.7667C42.6371 11.5761 42.2669 11.3809 41.9037 11.1694C40.5814 10.4023 39.2708 9.61194 37.9321 8.87043C37.6831 8.73329 37.2803 8.6775 37.0289 8.7821C36.4678 9.01687 35.9627 9.37717 35.4319 9.68168C34.6729 10.1187 33.907 10.5441 33.1504 10.9834C32.5428 11.3344 31.9445 11.6993 31.2089 12.134L31.2112 12.1387ZM38.0648 28.2823C38.0648 29.2376 38.0555 30.1907 38.0672 31.1461C38.0742 31.7992 38.1975 31.8643 38.7446 31.5528C39.1753 31.3088 39.6037 31.0624 40.0343 30.8183C41.1099 30.2116 42.204 29.6305 43.2563 28.9866C43.7196 28.703 44.3249 28.5287 44.3062 27.743C44.262 25.8555 44.2969 23.9657 44.2899 22.0759C44.2876 21.4297 44.1293 21.353 43.5683 21.6784C41.9107 22.6384 40.2392 23.5752 38.6003 24.5701C38.3442 24.7258 38.1091 25.1186 38.0881 25.4185C38.0229 26.3692 38.0648 27.3269 38.0648 28.28V28.2823Z" fill="black"/>
<path d="M31.2112 12.1387C33.3157 13.3381 35.2037 14.4236 37.1057 15.4836C37.2663 15.5743 37.5667 15.5533 37.7366 15.465C38.4466 15.0954 39.1334 14.6793 39.8271 14.2795C41.0028 13.6008 42.1761 12.922 43.3517 12.2433C43.4076 12.1526 43.4612 12.062 43.517 11.969C43.3471 11.9016 43.1702 11.8504 43.0095 11.7667C42.6371 11.5761 42.2669 11.3809 41.9037 11.1694C40.5814 10.4023 39.2708 9.61194 37.9321 8.87043C37.6831 8.73329 37.2803 8.6775 37.0289 8.7821C36.4678 9.01687 35.9627 9.37717 35.4319 9.68168C34.6729 10.1187 33.907 10.5441 33.1504 10.9834C32.5428 11.3344 31.9445 11.6993 31.2089 12.134L31.2112 12.1387Z" fill="black"/>
</svg>
