<svg width="464" height="352" viewBox="0 0 464 352" fill="none" xmlns="http://www.w3.org/2000/svg">
<path d="M391.78 232.943C368.22 232.47 348.997 252.382 349.173 275.725C349.362 299.042 368.275 318.413 392.347 318.143C416.096 317.86 434.63 298.812 434.616 275.334C434.616 252.288 415.744 232.457 391.766 232.956L391.78 232.943ZM423.674 280.913C423.525 280.791 423.39 280.656 423.242 280.535C422.039 281.088 420.864 281.831 419.594 282.115C418.838 282.277 417.879 281.831 417.122 281.44C416.866 281.305 416.866 280.467 416.947 279.994C417.149 278.819 417.473 277.671 417.744 276.509C417.622 276.468 417.514 276.428 417.392 276.387C417.028 277.009 416.663 277.617 416.298 278.238L415.731 277.725C415.555 277.036 415.38 276.36 415.204 275.658C413.853 276.117 412.61 276.482 411.408 276.941C410.098 277.441 409.139 277.482 408.45 275.888C407.855 274.496 406.869 273.28 406.045 271.983C405.896 272.051 405.734 272.119 405.586 272.2C405.64 272.794 405.64 273.388 405.734 273.983C406.221 277.103 406.72 280.224 407.18 283.358C407.22 283.642 407.031 284.047 406.815 284.263C405.842 285.182 403.438 285.249 402.236 284.52C401.06 283.817 399.845 283.196 398.642 282.547C398.534 282.696 398.426 282.831 398.318 282.98C398.534 283.331 398.683 283.777 398.98 284.033C400.223 285.128 400.101 286.505 399.844 287.91C399.709 288.653 399.277 289.531 399.534 290.085C399.817 290.707 400.736 291.044 401.682 291.733C398.831 294.03 396.021 296.272 393.117 298.609C393.428 298.677 393.684 298.812 393.928 298.772C395.414 298.528 396.886 298.285 398.359 297.988C399.561 297.745 400.669 297.407 401.033 299.217C401.128 299.677 402.073 300.122 402.708 300.271C404.856 300.784 406.099 303.378 405.086 305.364C404.87 305.783 404.856 306.323 404.762 306.796C404.91 306.823 405.059 306.85 405.207 306.877C405.329 306.634 405.451 306.404 405.572 306.161C406.248 304.769 406.856 303.338 407.639 302.014C407.909 301.568 408.679 301.163 409.193 301.19C409.517 301.203 409.8 302.068 410.111 302.527C410.341 302.865 410.584 303.473 410.827 303.473C412.867 303.513 413.542 305.04 414.353 306.485C415.366 308.282 415.326 308.619 413.583 309.66C412.975 310.024 412.327 310.322 411.732 310.7C407.355 313.483 402.479 315.077 397.413 315.631C391.874 316.238 386.295 316.13 380.811 314.428C376.528 313.104 372.503 311.348 368.896 308.809C363.29 304.864 358.845 299.866 355.738 293.638C353.05 288.248 351.632 282.615 351.348 276.658C351.118 271.754 352.01 266.985 353.577 262.325C354.982 258.137 357.049 254.314 359.737 250.829C362.277 247.559 365.222 244.709 368.612 242.318C372.719 239.414 377.163 237.279 382.067 236.172C384.174 235.699 386.417 235.712 388.497 235.172C392.469 234.145 396.346 235.145 400.142 235.739C404.208 236.374 408.058 238.076 411.732 240.103C416.852 242.939 421.094 246.789 424.498 251.382C427.051 254.814 429.375 258.583 430.266 262.96C430.982 266.499 432.049 269.998 432.32 273.564C432.563 276.766 432.076 280.048 431.631 283.25C431.333 285.438 430.617 287.573 429.956 289.694C429.658 290.666 428.996 291.382 427.713 291.193C426.781 291.058 425.808 291.166 424.849 291.166C424.849 291.342 424.849 291.531 424.849 291.706H428.362C428.497 291.855 428.618 292.004 428.753 292.166C428.186 293.152 427.7 294.192 426.997 295.07C426.835 295.259 425.714 295.057 425.417 294.705C424.525 293.638 423.323 293.706 422.188 293.49C421.756 293.409 421.337 293.354 421.04 293.3C420.702 292.368 420.256 291.612 420.175 290.815C420.013 289.302 419.257 289.099 417.973 289.437C417.663 289.518 417.136 289.275 416.866 289.005C415.353 287.478 417.271 287.208 417.879 286.573C419.756 284.641 421.729 282.791 423.66 280.913H423.674ZM418.959 305.58C417.325 303.675 417.392 303.446 418.878 301.96C419.203 301.635 419.081 300.649 418.865 300.082C418.568 299.298 417.973 298.609 417.514 297.88C417.609 297.772 417.703 297.65 417.798 297.542C419.311 298.339 420.351 297.974 421.175 296.543C421.418 296.124 422.31 295.827 422.863 295.881C423.931 296.002 424.984 296.407 426.187 296.732C424.39 300.19 421.864 302.946 418.959 305.58ZM414.718 302.459C414.866 302.392 415.015 302.324 415.15 302.243C415.704 302.905 416.244 303.567 416.798 304.229C418.487 306.242 418.338 306.742 415.636 307.809C415.326 306.012 415.015 304.229 414.718 302.459Z" fill="black"/>
<path d="M71.7979 318.139C95.1816 318.571 114.459 298.673 114.364 275.424C114.27 252.392 95.2492 232.858 71.4872 232.871C48.5358 232.885 28.9886 252.351 29.0157 275.654C29.0427 298.727 48.5223 318.801 71.8114 318.126L71.7979 318.139ZM38.5528 298.875C40.7142 298.281 42.673 297.646 44.6588 297.254C45.1316 297.16 46.1718 297.795 46.2393 298.2C46.4285 299.362 47.2525 299.537 48.0495 299.929C48.725 300.253 49.549 300.605 49.8867 301.185C50.5216 302.253 50.8458 303.495 51.2511 304.549C52.1427 303.212 53.1153 301.726 54.1014 300.253C54.3311 300.307 54.5607 300.361 54.7904 300.415C55.1281 301.294 55.4658 302.158 55.8441 303.171C58.843 302.915 59.3564 305.657 60.9234 307.548C60.6667 305.724 60.4235 303.901 60.1669 302.077C60.3155 302.023 60.4641 301.969 60.6127 301.915C61.4097 302.874 62.2202 303.833 63.2739 305.103C63.1928 303.387 62.9632 301.969 64.6653 301.375C64.7599 301.348 64.6248 300.159 64.3411 299.659C63.8818 298.862 63.2199 298.173 62.639 297.444C62.7336 297.322 62.8281 297.2 62.9227 297.092C63.6927 297.281 64.4762 297.484 65.4083 297.714C66.2458 295.242 68.1911 295.39 70.2714 295.741C70.9334 295.849 71.6358 295.66 72.3248 295.606C72.3248 295.417 72.3383 295.215 72.3518 295.025C71.082 294.472 69.8257 293.526 68.5288 293.458C66.5025 293.364 66.0027 292.175 65.6785 290.649C65.2462 288.568 64.949 288.406 62.8957 289.244C61.3692 287.798 61.4637 287.312 63.3414 286.272C63.9629 285.934 64.5572 285.475 65.03 284.948C66.2999 283.529 67.5021 282.057 68.745 280.598C68.6369 280.49 68.5288 280.368 68.4207 280.26C66.3269 281.49 64.233 282.895 62.0041 280.584C62.4769 278.977 62.9362 277.41 63.3955 275.843C63.2874 275.816 63.1658 275.789 63.0578 275.762C62.5174 276.343 61.9771 276.924 61.1936 277.761C61.0044 276.667 60.8964 276.086 60.8018 275.492C59.4509 275.789 58.1946 276.059 56.9248 276.329C56.2223 276.478 55.3578 276.937 54.8579 276.68C54.196 276.329 53.7637 275.465 53.3314 274.762C52.6965 273.749 52.1562 272.682 51.5618 271.642C51.3997 271.709 51.2241 271.777 51.062 271.844C51.6429 275.843 52.2237 279.855 52.8181 283.84C51.913 284.029 51.3321 283.989 50.9539 284.245C49.7651 285.069 48.779 284.961 47.6037 284.11C46.3474 283.205 44.902 282.597 43.5241 281.854C43.6457 282.557 43.9969 282.976 44.3211 283.394C45.2262 284.543 45.8611 285.893 45.1992 287.258C44.3076 289.082 44.8344 290.176 46.496 291.013C46.6716 291.094 46.7932 291.27 46.8337 291.297C45.672 292.499 44.6453 293.702 43.47 294.701C42.4028 295.606 41.2006 296.376 39.9848 297.065C37.9855 298.187 37.9044 298.173 36.7967 296.012C35.716 293.918 34.7974 291.729 33.7843 289.595C31.8255 285.488 31.4607 281.017 31.069 276.599C30.8934 274.573 31.1771 272.452 31.5958 270.439C32.3118 266.914 32.9197 263.293 34.2435 259.983C36.54 254.31 40.0658 249.379 44.6993 245.272C50.7107 239.95 57.6543 236.478 65.5569 235.492C71.2981 234.776 77.1204 234.911 82.8481 236.613C88.4137 238.275 93.3985 240.841 97.7483 244.583C102.76 248.893 106.664 254.026 109.096 260.294C110.717 264.495 112.014 268.724 111.973 273.236C111.946 276.572 111.865 279.977 111.203 283.232C110.474 286.839 109.514 290.527 107.853 293.783C104.233 300.902 98.91 306.576 91.9125 310.642C85.2932 314.492 78.1336 316.126 70.5686 316.207C69.4069 316.207 68.2586 315.762 67.0969 315.748C62.5714 315.748 58.4242 314.14 54.4932 312.303C48.1035 309.304 42.6595 304.954 38.5393 298.848L38.5528 298.875Z" fill="black"/>
<path d="M391.792 227.986C415.932 227.608 434.547 209.02 434.534 185.231C434.534 161.212 415.811 142.53 391.792 142.489C368.233 142.448 349.172 161.199 349.172 185.245C349.172 209.101 368.233 227.716 391.792 228V227.986ZM391.968 225.717C369.313 225.839 351.441 207.44 351.293 185.488C351.144 162.86 369.476 144.745 391.589 144.65C414.284 144.556 432.332 162.82 432.372 185.136C432.413 207.372 414.419 225.717 391.968 225.717Z" fill="black"/>
<path d="M402.804 186.924C399.751 189.437 397.036 191.653 394.32 193.882L394.415 194.273C396.063 193.99 397.725 193.733 399.373 193.409C400.521 193.179 401.548 192.882 401.953 194.557C402.074 195.057 402.979 195.53 403.601 195.692C405.897 196.286 407.046 198.637 405.992 200.717C405.789 201.136 405.762 201.649 405.654 202.108C405.83 202.162 406.019 202.23 406.195 202.284C406.721 201.055 407.221 199.798 407.789 198.583C408.072 197.988 408.423 197.394 408.869 196.935C409.68 196.083 410.788 196.367 410.936 197.502C411.085 198.623 411.571 198.839 412.625 199.082C413.476 199.285 414.178 200.325 414.827 201.095C415.299 201.649 415.57 202.365 415.934 203C416.096 202.959 416.259 202.919 416.421 202.878C416.178 201.176 415.921 199.488 415.678 197.786C415.786 197.718 415.894 197.664 416.015 197.596C417.002 198.745 417.988 199.879 418.96 201.028C419.068 200.974 419.163 200.906 419.271 200.852C419.149 200.46 419.055 200.042 418.879 199.663C418.474 198.758 418.596 198.015 419.541 197.556C420.852 196.921 420.46 196.165 419.784 195.3C419.271 194.652 418.852 193.936 418.474 193.017C420.433 194.017 421.243 193.071 422.27 191.68C422.689 191.112 424.404 191.436 425.512 191.504C426.647 191.572 427.768 191.801 428.903 191.963C428.943 191.788 428.984 191.626 429.038 191.45L422.189 188.383C422.135 188.491 422.081 188.6 422.027 188.708C421.73 187.938 421.311 187.181 421.176 186.384C420.919 184.885 420.392 184.142 418.717 184.804C418.406 184.925 417.407 184.263 417.407 183.939C417.393 183.412 417.812 182.764 418.244 182.345C420.365 180.319 422.54 178.346 424.702 176.361C424.58 176.212 424.472 176.077 424.35 175.928C423.108 176.482 421.878 177.077 420.622 177.576C420.298 177.698 419.825 177.657 419.501 177.509C417.447 176.577 417.245 175.901 418.163 173.726C418.406 173.159 418.569 172.565 418.771 171.997C418.636 171.916 418.488 171.835 418.352 171.754C417.988 172.389 417.623 173.024 417.258 173.659L416.704 173.227C416.515 172.551 416.34 171.876 416.123 171.133C414.719 171.578 413.368 171.916 412.084 172.429C410.896 172.889 410.099 172.754 409.464 171.551C408.721 170.146 407.843 168.823 407.019 167.458C406.802 167.553 406.586 167.661 406.37 167.755C406.586 168.566 406.897 169.363 407.019 170.187C407.424 172.997 407.775 175.82 408.086 178.644C408.126 179.022 407.816 179.751 407.586 179.778C406.127 179.954 404.79 181.467 403.155 180.062C402.128 179.184 400.845 178.59 399.67 177.874C399.535 178.022 399.4 178.184 399.265 178.333C399.508 178.711 399.683 179.157 399.98 179.468C401.061 180.562 401.304 182.034 400.71 183.21C399.683 185.249 400.507 186.168 402.777 186.924H402.804Z" fill="black"/>
<path d="M71.5826 141.718C48.5231 141.204 28.8679 161.089 29.0165 184.527C29.1651 207.83 48.5907 227.161 71.8798 226.999C95.223 226.837 114.432 207.722 114.338 184.014C114.243 160.968 95.1689 141.272 71.5826 141.718ZM71.6637 224.702C48.7393 224.946 30.9617 206.209 31.0968 184.162C31.2454 161.562 48.8473 143.771 71.7447 143.703C93.6019 143.636 112.122 161.468 112.122 184.527C112.122 206.29 93.6424 225.216 71.6637 224.689V224.702Z" fill="black"/>
<path d="M39.4598 177.644C41.4997 179.467 41.3376 181.575 40.7161 183.925C40.554 184.533 41.6753 185.492 42.2156 186.289L42.8911 186.424C40.0947 188.68 37.3119 190.936 34.5156 193.179L34.5561 193.584C36.1367 193.3 37.7442 193.111 39.2977 192.679C40.8377 192.26 42.0805 192.112 42.5263 194.084C42.5939 194.368 42.8911 194.678 43.1612 194.813C45.6108 196.02 46.6465 198.01 46.2683 200.784C46.2683 200.865 46.3763 200.96 46.6465 201.352C46.8762 200.879 47.0112 200.555 47.1598 200.257C47.8758 198.906 48.5377 197.529 49.3347 196.232C49.5239 195.935 50.1858 195.732 50.564 195.813C50.8477 195.867 51.199 196.434 51.2125 196.786C51.226 197.88 51.9149 197.907 52.7255 198.312C53.9007 198.893 54.7383 200.136 55.6974 201.135C55.9 201.352 55.9405 201.703 56.0621 202C56.2512 201.973 56.4539 201.946 56.643 201.919C56.4674 200.244 56.3053 198.582 56.1026 196.529C57.2779 197.92 58.2505 199.082 59.3988 200.446C59.4933 200.001 59.6554 199.69 59.5609 199.528C58.8044 198.123 58.899 197.083 60.5335 196.367C60.6686 196.313 60.439 195.083 60.1553 194.516C59.8176 193.841 59.2502 193.287 58.8719 192.422C60.7767 193.044 61.7898 192.206 62.7895 190.909C63.0867 190.517 64.1944 190.626 64.9104 190.68C66.2207 190.788 67.5311 191.044 68.8819 191.031C67.1798 189.666 65.5588 188.234 63.2758 188.167C62.3977 188.14 62.006 187.843 61.9384 186.884C61.8844 186.087 61.6007 185.236 61.1819 184.56C60.9523 184.209 60.1553 183.979 59.696 184.074C58.8179 184.236 57.9939 184.209 57.8318 183.304C57.7372 182.79 58.2505 182.047 58.6963 181.602C59.7635 180.521 60.9928 179.602 62.0735 178.522C63.1002 177.495 64.0323 176.36 64.8563 175.05C63.6946 175.59 62.5058 176.077 61.3846 176.698C60.1148 177.414 59.1016 176.603 58.4126 175.941C57.9939 175.536 58.21 174.28 58.4126 173.483C58.6693 172.47 59.2232 171.524 59.6419 170.551C59.4933 170.47 59.3583 170.403 59.2097 170.322C58.6963 170.997 58.183 171.673 57.4535 172.618C57.0348 171.794 56.697 171.119 56.3323 170.389C55.157 170.741 53.8197 170.984 52.6309 171.551C51.1854 172.24 50.3614 171.875 49.686 170.524C49.1051 169.363 48.4161 168.268 47.7812 167.147C47.5921 167.188 47.403 167.228 47.2139 167.269C47.2139 167.877 47.1328 168.498 47.2274 169.092C47.7002 171.875 48.2811 174.658 48.6863 177.454C48.7539 177.9 48.254 178.616 47.8083 178.9C45.4983 180.359 43.4855 179.508 41.5537 177.968C41.0809 177.59 40.3919 177.468 39.7976 177.238C39.6895 177.36 39.5814 177.481 39.4598 177.603V177.644Z" fill="black"/>
<path d="M231.826 317.994C255.655 318.385 274.527 298.5 274.5 275.441C274.486 252.205 255.561 232.712 231.65 232.793C208.091 232.861 189.111 251.854 189.07 275.441C189.03 298.5 207.726 318.412 231.826 317.994ZM231.758 235.117C254.21 234.428 272.447 253.854 272.311 275.427C272.163 298.176 254.048 316.062 231.839 316.021C209.023 315.967 191.326 298.244 191.218 275.373C191.11 253.61 208.928 234.644 231.758 235.13V235.117Z" fill="black"/>
<path d="M217.262 283.306C219.004 285.211 219.342 287.237 218.423 289.641C218.221 290.168 219.464 291.249 220.234 292.357C217.802 294.37 215.1 296.599 212.398 298.828C212.439 298.99 212.493 299.152 212.534 299.3C214.128 298.976 215.735 298.719 217.302 298.314C218.504 298.003 219.477 297.841 219.95 299.368C220.085 299.8 220.49 300.273 220.895 300.476C224.664 302.394 224.678 302.38 223.827 306.555C223.827 306.609 223.854 306.663 224.057 307.298C224.489 306.649 224.759 306.298 224.962 305.92C225.61 304.609 226.191 303.258 226.907 301.975C227.082 301.664 227.785 301.394 228.109 301.502C228.46 301.61 228.649 302.205 228.906 302.583C229.217 303.042 229.501 303.893 229.825 303.893C232.135 303.988 232.77 305.731 233.54 307.379C233.607 307.527 233.661 307.689 233.729 307.824C233.742 307.865 233.823 307.878 234.012 308C235.147 306.122 233.161 304.353 233.85 302.205C234.985 303.623 235.958 304.825 237.065 306.203C237.187 305.812 237.349 305.582 237.295 305.46C236.633 304.109 236.214 302.867 238.119 302.097C238.254 302.043 238.038 300.786 237.754 300.205C237.403 299.503 236.795 298.922 236.039 297.949C236.836 298.03 237.201 298.125 237.538 298.098C238.187 298.03 239.2 298.098 239.389 297.733C240.686 295.383 242.564 296.315 244.374 296.626C244.995 296.734 245.63 296.774 246.684 296.882C244.522 294.937 242.699 293.37 240.024 293.87C239.632 292.6 239.389 291.452 238.903 290.411C238.714 290.02 237.849 289.56 237.498 289.696C236.498 290.074 235.728 289.831 235.512 288.953C235.377 288.439 235.836 287.372 236.282 287.196C239.227 286.035 240.321 283.13 242.455 281.225C242.374 281.09 242.28 280.969 242.199 280.834C241.577 281.158 240.997 281.563 240.348 281.779C239.47 282.077 238.538 282.468 237.66 282.414C236.282 282.347 235.363 281.644 235.823 279.983C236.052 279.172 236.079 278.443 235.012 277.943C234.526 277.713 234.364 276.754 234.026 276.065C232.743 276.457 231.338 276.727 230.108 277.321C228.852 277.929 228.136 277.632 227.528 276.524C226.866 275.336 226.177 274.147 225.097 273.012C225.097 273.877 225.002 274.741 225.11 275.592C225.434 278.24 225.867 280.874 226.164 283.522C226.204 283.914 225.84 284.549 225.488 284.738C223.381 285.859 221.422 285.589 219.585 284.008C219.018 283.522 218.234 283.292 217.545 282.955L217.194 283.306H217.262Z" fill="black"/>
<path d="M29.0243 93.7267C28.538 117.435 48.585 136.55 71.631 136.428C95.0282 136.307 114.4 117.367 114.197 93.4025C113.994 69.7079 95.1903 51.0522 71.5769 50.9712C48.0311 50.8901 28.6325 70.1132 29.0378 93.7267H29.0243ZM111.941 93.6591C112.292 116.219 93.3936 134.402 71.4418 134.226C48.666 134.037 30.9155 115.989 30.9966 93.6051C31.0776 71.0994 48.7606 53.1731 71.658 53.1191C93.5962 53.065 112.144 71.0453 111.928 93.6591H111.941Z" fill="black"/>
<path d="M67.7437 67.9642C66.717 68.5721 65.6498 69.1125 64.6907 69.8014C63.2858 70.8281 62.1781 69.8825 61.246 69.18C60.8813 68.8964 61.0569 67.6941 61.219 66.9511C61.4486 65.8974 61.8809 64.8842 61.9079 63.7225C61.4081 64.3439 60.9218 64.9653 60.2598 65.8028C59.76 64.8842 59.3548 64.1547 59.017 63.5604C57.396 64.1412 55.802 64.7626 54.1674 65.2219C53.8837 65.303 53.3028 64.7897 53.0597 64.4249C52.1411 63.0065 51.29 61.5475 50.4255 60.0886C50.2634 60.1156 50.0877 60.1426 49.9256 60.1561C49.9797 60.9531 49.9797 61.7637 50.1013 62.5472C50.2634 63.5604 50.547 64.56 50.7227 65.5732C50.9523 66.9376 51.0469 68.329 51.3441 69.6799C51.7223 71.382 51.263 71.7062 49.7635 72.5573C48.0749 73.5299 47.0483 72.922 45.7649 72.0034C44.7788 71.2874 43.617 70.8281 42.3472 70.1662C42.3742 70.5309 42.3067 70.8011 42.4148 70.8821C44.3735 72.5437 43.9007 74.6781 43.7116 76.799C43.6576 77.3799 43.9277 78.3796 44.306 78.5417C45.9676 79.2171 45.4407 79.852 44.4681 80.6355C42.2391 82.4592 40.0102 84.2829 37.7812 86.4849C39.1051 86.2957 40.456 86.2552 41.7258 85.877C44.1844 85.161 44.8193 85.4042 45.3462 87.1063C46.7241 88.0924 47.6697 88.7543 48.5883 89.4298C49.6825 90.2403 49.8986 91.213 49.3583 92.5098C49.1151 93.0772 49.3177 93.8337 49.3177 94.8604C50.1553 93.0367 50.7227 91.5642 51.4927 90.1998C51.8304 89.6054 52.5598 89.2407 53.1137 88.7679C53.4109 89.2947 53.7081 89.8081 54.0053 90.3349C54.2484 90.7672 54.4916 91.213 54.7618 91.7128C57.2744 91.1724 57.8553 93.2123 59.0441 95.1846V90.3349C59.1791 90.2944 59.3007 90.2538 59.4358 90.1998C60.2463 91.1859 61.0704 92.1721 61.8809 93.1582C62.016 93.1312 62.1511 93.1042 62.2862 93.0772C62.0835 92.2261 61.8809 91.3751 61.6918 90.5645C62.4618 90.1188 63.1642 89.7 64.0558 89.1731C63.1777 88.0249 62.3672 86.9712 61.3135 85.5933C62.0835 85.5933 62.5158 85.6879 62.8806 85.5663C63.6641 85.3096 64.5962 85.134 65.1095 84.5936C65.8255 83.8371 66.2172 83.4319 67.433 83.8236C68.6758 84.2154 70.1348 83.9047 71.4991 83.9047C71.5532 83.7426 71.5937 83.567 71.6477 83.4049C69.9997 82.797 68.3651 82.162 66.7035 81.6082C65.6093 81.2434 64.6907 80.9462 64.6097 79.4468C64.5286 78.0553 64.1639 76.5694 62.043 77.1503C61.7053 77.2448 60.8407 76.6774 60.8407 76.4343C60.8542 75.8669 61.1244 75.1915 61.5297 74.7997C63.7046 72.6383 65.9606 70.5444 68.1895 68.437C68.0544 68.2749 67.9193 68.1128 67.7707 67.9642H67.7437Z" fill="black"/>
<path d="M231.782 228C255.598 227.406 274.443 209.074 274.348 184.947C274.254 161.226 255.531 142.435 231.593 142.476C207.791 142.516 189 161.199 189 185.163C189 209.277 207.98 227.554 231.782 228ZM272.187 185.217C272.16 207.534 253.977 225.852 231.472 225.69C208.966 225.528 191.094 207.656 191.107 185.096C191.121 162.887 208.912 144.664 231.728 144.637C254.058 144.61 272.228 162.941 272.187 185.217Z" fill="black"/>
<path d="M240.437 170.403C239.141 170.659 237.871 174.158 237.438 170.308C235.979 170.673 234.466 170.768 233.251 171.416C231.792 172.186 231.265 171.524 230.657 170.457C229.955 169.214 229.185 167.998 228.104 166.972C228.455 170.146 228.82 173.321 229.117 176.509C229.185 177.279 229.117 178.724 228.914 178.751C227.564 178.967 226.388 180.386 224.848 179.4C223.362 178.441 221.822 177.576 220.066 176.887C220.323 177.306 220.498 177.806 220.85 178.116C222.146 179.251 222.565 180.818 221.944 182.21C221.012 184.29 221.944 185.29 223.781 186.262C221.133 188.437 218.621 190.49 216 192.638C216.054 192.679 216.338 193.044 216.567 193.017C217.878 192.855 219.202 192.679 220.498 192.355C221.62 192.085 222.66 191.571 223.038 193.3C223.133 193.719 223.551 194.219 223.943 194.422C227.793 196.272 227.982 196.623 226.996 200.514C226.956 200.663 227.05 200.838 227.145 201.365C227.577 200.96 228.104 200.703 228.117 200.419C228.198 198.231 229.495 196.759 231.251 195.043C231.765 197.285 233.386 198.163 235.182 199.055C236.101 199.514 236.493 200.987 237.574 202L236.871 196.867C237.006 196.799 237.141 196.745 237.263 196.678C238.235 197.893 239.222 199.123 240.194 200.338C240.289 200.298 240.397 200.257 240.491 200.23C240.437 199.839 240.491 199.379 240.316 199.055C239.708 197.934 239.627 197.191 241.086 196.583C242.058 196.178 241.667 195.192 241.113 194.462C240.599 193.787 240.073 193.125 239.37 192.22C240.1 192.179 240.491 192.03 240.721 192.152C241.937 192.814 242.477 192.098 243.207 191.26C243.639 190.761 244.612 190.572 245.355 190.517C246.57 190.45 247.8 190.599 249.056 190.396C247.543 189.396 246.368 187.964 244.355 188.14C242.518 188.302 242.855 186.424 242.383 185.479C241.41 183.52 241.545 183.452 239.573 184.182C238.046 182.547 238.262 182.439 240.073 181.129C241.734 179.927 243.031 178.197 244.463 176.684C245.071 176.049 245.625 175.347 246.408 174.455C245.125 175.144 244.071 175.698 243.045 176.266C241.694 177.022 240.248 176.914 239.384 175.82C238.911 175.225 239.262 173.888 239.438 172.915C239.559 172.172 239.992 171.497 240.424 170.43L240.437 170.403Z" fill="black"/>
<path d="M392.792 51.1872C369.125 50.9575 350.105 70.5048 350.172 93.9022C350.24 117.232 369.246 136.563 393.049 136.428C417.094 136.293 435.629 116.989 435.602 93.7265C435.574 70.4238 416.892 50.971 392.779 51.1737L392.792 51.1872ZM433.44 93.8481C433.292 115.976 415.406 134.307 392.873 134.28C370.26 134.267 352.185 115.922 352.36 93.632C352.55 70.7615 370.516 53.1595 392.968 53.173C415.244 53.1865 433.183 70.9101 433.44 93.8346V93.8481Z" fill="black"/>
<path d="M390.011 85.271C391.025 85.1629 392.024 85.0684 393.024 84.9198C393.956 84.7712 394.888 84.5145 395.82 84.4064C396.239 84.3524 396.995 84.4605 397.063 84.6766C397.941 87.2568 401.467 86.9596 402.129 89.4993C401.94 90.661 401.751 91.8093 401.507 93.3358C402.737 91.2554 403.615 89.6073 404.668 88.0673C405.357 87.0542 406.154 87.3244 406.384 88.4591C406.6 89.5533 407.113 89.81 408.181 90.1882C409.261 90.5665 410.004 91.9444 410.855 92.9035C411.058 93.1196 411.126 93.4439 411.261 93.7275L411.842 93.66C411.706 92.0795 411.585 90.4989 411.423 88.4591C412.544 89.783 413.463 90.8637 414.381 91.9444C414.233 90.2423 413.935 88.5536 416.421 88.1079C415.529 86.7029 414.8 85.5547 414.071 84.4064C414.138 84.2849 414.192 84.1633 414.26 84.0417C416.029 85.0414 417.002 84.2849 417.921 82.8799C418.191 82.4612 419.244 82.3801 419.906 82.4341C421.257 82.5422 422.595 82.8529 423.932 83.0826C424.013 82.8394 424.094 82.5828 424.175 82.3396C422.338 81.5561 420.541 80.624 418.65 80.0296C417.731 79.7459 417.259 79.5973 417.137 78.5031C416.921 76.3687 416.408 76.0445 414.273 75.8959C413.881 75.8689 413.246 75.4366 413.219 75.1529C413.179 74.6395 413.355 73.9236 413.706 73.5723C415.894 71.4515 418.164 69.4116 420.406 67.3313C420.298 67.1827 420.176 67.0341 420.068 66.8855C418.947 67.4393 417.758 67.8986 416.718 68.5741C415.354 69.4792 414.584 67.9662 413.476 67.9527C413.517 67.1016 413.422 66.2235 413.638 65.4265C413.922 64.3998 414.449 63.4407 414.868 62.4546C414.719 62.3735 414.557 62.279 414.408 62.1979C413.908 62.8733 413.422 63.5488 412.76 64.4269C412.314 63.6163 411.882 62.8598 411.517 62.1979C409.991 62.7112 408.532 63.3056 407.005 63.6298C406.533 63.7379 405.709 63.2516 405.371 62.8058C404.466 61.5765 403.736 60.2121 402.939 58.9152C402.791 58.9423 402.642 58.9693 402.494 58.9828C402.494 59.7528 402.385 60.5363 402.507 61.2928C402.953 64.0351 403.48 66.7504 403.939 69.4927C404.088 70.3843 403.655 70.7625 402.75 71.1678C400.211 72.3025 398.441 71.1273 396.617 69.6548C396.185 69.3171 395.536 69.2495 394.766 69.1955C396.698 71.2623 396.658 73.5048 395.928 75.9229C395.82 76.3011 396.334 77.1792 396.752 77.3548C398.576 78.1383 397.563 78.7057 396.712 79.3947C394.456 81.2183 392.227 83.0826 389.984 84.9198C389.984 85.0413 390.011 85.1494 390.011 85.271Z" fill="black"/>
<path d="M305.146 23.0162H157.117V134.454H305.146V23.0162Z" fill="white"/>
<path fill-rule="evenodd" clip-rule="evenodd" d="M301.638 26.3251H160.391V131.112H301.638V26.3251ZM305.029 23V134.438H157V23H305.029Z" fill="#0070F3"/>
<path d="M221.954 90.8571C221.988 79.1289 224.97 75.4945 230.476 71.9605C234.81 69.1956 238.104 66.4977 238.104 62.2724C238.104 58.0472 234.843 55.4162 230.755 55.4162C226.667 55.4162 222.959 58.3259 222.848 63.1309H206.898C207.111 48.5933 217.855 42.1272 230.889 42.1272C245.174 42.1272 255.539 48.9054 255.539 61.4698C255.539 69.7419 251.138 74.7587 244.482 78.6607C239.244 81.7711 236.719 84.7143 236.719 90.8348V92.2506H221.954V90.8348V90.8571ZM220.603 105.974C220.536 101.058 224.623 97.0779 229.616 97.0779C234.608 97.0779 238.562 101.058 238.629 105.974C238.562 110.958 234.363 114.971 229.616 114.971C224.623 114.971 220.536 110.958 220.603 105.974Z" fill="#0070F3"/>
</svg>
