<svg width="60" height="42" viewBox="0 0 60 42" fill="none" xmlns="http://www.w3.org/2000/svg">
<path d="M7.38082 26H54C53.3433 23.7888 51.6472 23.9948 50.8812 24.3742C51.5378 23.4637 50.8265 23.0193 50.3887 22.9109C50.6514 18.7488 47.7623 19.4425 46.2849 20.3096C46.8102 19.3991 46.1755 18.9547 45.7925 18.8463C46.843 13.7737 43.2755 13.9146 41.3604 14.6191C40.8351 13.4485 39.7188 13.8062 39.2264 14.1313C38.5698 10.7496 35.7792 11.2048 34.466 11.8552C28.8191 3.1406 23.3583 8.11568 21.3338 11.6925C13.1919 10.7821 14.1111 16.6243 15.5885 19.6592C14.4066 18.4886 13.345 19.3882 12.962 19.9844C6.52723 19.4641 6.56006 23.778 7.38082 26Z" stroke="black"/>
<path d="M19 28L16.5 32M28 30.5L25 35M38.5 28.5L36 31.5M45 30.5L42.5 34.5" stroke="black"/>
</svg>
