<svg width="60" height="42" viewBox="0 0 60 42" fill="none" xmlns="http://www.w3.org/2000/svg">
<path d="M29.7525 5.00718C38.4415 4.90648 45.4761 12.1377 45.4042 20.6829C45.3275 29.4965 38.3792 36.3202 29.6806 36.325C21.0971 36.3298 13.9713 29.5205 14.0001 20.4815C14.0241 12.1329 20.9484 4.84893 29.7525 5.00238V5.00718ZM29.1723 35.6393C37.3146 35.7447 44.3588 29.7555 44.7472 21.335C45.1261 13.0728 38.921 5.95664 30.256 5.60179C22.2 5.27092 15.0359 11.2938 14.6235 20.1698C14.446 23.9772 15.6688 27.4681 18.1911 30.3549C21.2121 33.8027 25.0388 35.6776 29.1723 35.6393Z" fill="black"/>
<path d="M25.4703 22.7449C23.8734 22.7449 22.2814 22.7449 20.6846 22.7449C19.9173 22.7449 19.4091 22.3133 19.4091 21.6659C19.4091 21.0234 19.9078 20.6014 20.7038 20.6014C23.4371 20.5966 26.1656 20.5822 28.8989 20.6062C29.4359 20.6062 29.575 20.4336 29.5702 19.9205C29.551 17.2687 29.5558 14.6169 29.5606 11.9651C29.5606 11.6678 29.5414 11.337 29.6709 11.0876C29.8819 10.6704 30.2415 10.3731 30.7738 10.4738C31.2341 10.5601 31.7137 11.1883 31.7137 11.711C31.7137 14.9622 31.7233 18.2086 31.7041 21.4597C31.7041 21.6947 31.5794 21.9441 31.4547 22.1598C31.2198 22.5674 30.8649 22.7545 30.371 22.7497C28.7358 22.7305 27.1006 22.7449 25.4655 22.7449H25.4703Z" fill="black"/>
</svg>
