<svg width="60" height="42" viewBox="0 0 60 42" fill="none" xmlns="http://www.w3.org/2000/svg">
<path d="M14.0152 20.0818C14.0152 17.1581 14.0152 14.2293 14.0152 11.3056C14.0152 9.93418 14.1056 9.84878 15.3665 9.40168C16.532 8.98975 17.6824 8.53261 18.8327 8.09053C20.6764 7.37719 22.5251 6.66384 24.3637 5.94045C25.9109 5.3326 27.4532 4.70466 29.0055 4.10685C29.2265 4.02145 29.5179 3.95615 29.7238 4.03652C31.2811 4.61926 32.8284 5.24218 34.3807 5.845C35.9681 6.45788 37.5656 7.04563 39.153 7.66353C40.4541 8.17091 41.7502 8.69839 43.0413 9.22586C43.5939 9.45192 44.1414 9.68803 44.689 9.92916C45.0758 10.0949 45.2165 10.3813 45.2165 10.8183C45.2064 17.0074 45.2064 23.1914 45.2165 29.3804C45.2165 29.8024 45.0909 30.0586 44.7041 30.2695C42.5992 31.3948 40.5144 32.5502 38.4146 33.6856C37.0783 34.409 35.732 35.1022 34.3907 35.8156C32.9138 36.6093 31.4419 37.4181 29.9599 38.2068C29.3973 38.5032 28.9 38.1616 28.4428 37.9204C26.1923 36.7248 23.9668 35.484 21.7213 34.2783C19.3703 33.0174 17.0092 31.7816 14.6531 30.5308C14.2211 30.2997 13.9951 29.9932 14.0001 29.4407C14.0302 26.3261 14.0152 23.2114 14.0152 20.0968V20.0818ZM20.0083 22.689C19.9731 23.543 20.2544 24.2664 20.8773 24.8491C21.3546 25.3012 22.0026 25.2209 22.3392 24.6733C22.8717 23.8143 22.6908 22.0862 21.9423 21.4331C21.1787 20.77 20.5257 20.9207 20.0836 21.8802C19.9781 22.1113 20.0284 22.4127 20.0083 22.684V22.689ZM20.0133 28.9483C19.9882 29.8024 20.2192 30.5559 20.9075 31.1085C21.45 31.5506 21.9122 31.4702 22.3291 30.9025C22.9069 30.1188 22.6707 28.2651 21.8519 27.6523C21.5756 27.4463 21.0783 27.2655 20.8221 27.386C20.4905 27.5367 20.2695 27.9788 20.0585 28.3355C19.963 28.4962 20.0183 28.7424 20.0083 28.9534L20.0133 28.9483ZM15.6579 14.6915C15.9693 15.3094 16.2205 16.0629 16.6827 16.6557C17.1699 17.2736 17.9586 17.0777 18.2651 16.3744C18.7524 15.2541 18.4208 14.0485 17.7276 13.2548C17.1951 12.6519 16.5671 12.7072 16.1502 13.3954C15.9442 13.737 15.8588 14.1489 15.6579 14.6915ZM15.7282 26.7932C15.9743 27.6874 16.0748 28.5364 16.8635 29.1191C17.4061 29.521 18.0089 29.2246 18.245 28.6972C18.7423 27.5719 18.5213 26.5119 17.7376 25.5725C17.2152 24.9496 16.5721 24.9998 16.1502 25.6931C15.9442 26.0347 15.8538 26.4466 15.7282 26.7932ZM25.8707 33.4796C26.0416 33.3239 26.3932 33.1179 26.554 32.8165C27.0362 31.9122 26.7599 30.4655 26.0315 29.7119C25.4337 29.094 24.6601 29.305 24.2984 30.0987C23.9718 30.8121 24.0924 31.4903 24.3536 32.1232C24.5948 32.706 24.851 33.3791 25.8657 33.4796H25.8707Z" fill="black"/>
<path d="M20.0083 22.6891C20.0283 22.4178 19.9781 22.1164 20.0836 21.8853C20.5207 20.9258 21.1787 20.7701 21.9423 21.4382C22.6908 22.0913 22.8717 23.8244 22.3392 24.6784C22.0026 25.221 21.3546 25.3064 20.8773 24.8543C20.2594 24.2665 19.9731 23.5431 20.0083 22.6941V22.6891Z" fill="black"/>
<path d="M20.0133 28.9482C20.0233 28.7423 19.9681 28.4911 20.0635 28.3303C20.2695 27.9787 20.4955 27.5366 20.8271 27.3809C21.0833 27.2654 21.5806 27.4462 21.8569 27.6471C22.6758 28.26 22.9119 30.1137 22.3342 30.8974C21.9172 31.4651 21.455 31.5404 20.9125 31.1034C20.2293 30.5508 19.9932 29.7972 20.0183 28.9432L20.0133 28.9482Z" fill="black"/>
<path d="M15.6577 14.6914C15.8587 14.1489 15.9441 13.737 16.15 13.3954C16.567 12.7021 17.1949 12.6468 17.7274 13.2547C18.4257 14.0434 18.7572 15.2541 18.2649 16.3743C17.9585 17.0776 17.1648 17.2735 16.6825 16.6556C16.2204 16.0679 15.9692 15.3144 15.6577 14.6914Z" fill="black"/>
<path d="M15.7329 26.7934C15.8635 26.4467 15.9489 26.0298 16.1549 25.6932C16.5769 25.005 17.2199 24.9497 17.7423 25.5726C18.526 26.5121 18.747 27.572 18.2497 28.6973C18.0136 29.2248 17.4108 29.5212 16.8682 29.1193C16.0846 28.5416 15.9791 27.6876 15.7329 26.7934Z" fill="black"/>
<path d="M25.8758 33.4795C24.861 33.3791 24.6048 32.7059 24.3637 32.1232C24.1025 31.4852 23.9819 30.812 24.3084 30.0987C24.6701 29.31 25.4438 29.094 26.0416 29.7119C26.77 30.4654 27.0463 31.9122 26.564 32.8164C26.4033 33.1229 26.0466 33.3238 25.8808 33.4795H25.8758Z" fill="black"/>
<ellipse cx="25.2717" cy="19.1356" rx="1.37372" ry="2.19795" transform="rotate(-9.40893 25.2717 19.1356)" fill="white"/>
<ellipse cx="17.2041" cy="27.2605" rx="1.47506" ry="2.17041" transform="rotate(-9.40893 17.2041 27.2605)" fill="white"/>
<ellipse cx="21.4663" cy="29.1001" rx="1.47506" ry="2.17041" transform="rotate(-9.40893 21.4663 29.1001)" fill="white"/>
</svg>
