<svg width="60" height="42" viewBox="0 0 60 42" fill="none" xmlns="http://www.w3.org/2000/svg">
<path d="M26.3585 27.2957C25.7567 27.6157 25.2744 27.9214 24.7538 28.1315C24.2093 28.3512 23.6314 28.5184 23.0535 28.6282C22.3991 28.7524 21.7257 28.867 21.0618 28.8527C19.7818 28.8288 18.5018 28.7285 17.2218 28.6378C16.9305 28.6187 16.6344 28.5375 16.3573 28.4372C15.9991 28.3082 15.7651 28.2891 16.0851 27.7017C17.0738 25.8867 18.4015 24.3536 19.7818 22.8635C20.2738 22.3333 21.0045 22.0181 21.6254 21.6121C21.8499 21.4641 22.0839 21.3303 22.4039 21.1345C21.8976 20.91 21.4487 20.7763 21.0714 20.5327C19.9203 19.7829 18.817 18.9566 17.9382 17.882C17.3747 17.1894 16.8015 16.5017 16.2379 15.8091C15.9896 15.5035 15.7269 15.2073 15.5311 14.8682C15.4355 14.7058 15.3973 14.4241 15.4738 14.2664C15.5311 14.1423 15.8081 14.1088 15.9944 14.0706C16.257 14.0133 16.5436 14.0276 16.7967 13.9464C18.6355 13.3638 20.5269 13.2682 22.4182 13.4402C23.5741 13.5452 24.749 13.7888 25.6708 14.6342C25.8714 14.8157 26.1341 14.9303 26.4302 15.1166C26.392 14.7727 26.349 14.4766 26.3251 14.1757C26.2057 12.6426 26.5782 11.1858 27.2373 9.83898C27.9155 8.44436 28.7609 7.12615 29.5299 5.77451C29.7352 5.41152 29.9979 5.36853 30.1985 5.71719C30.9961 7.07361 31.7747 8.44436 32.5388 9.81988C33.4558 11.4676 33.475 13.2587 33.3603 15.0688C33.3603 15.1214 33.389 15.1787 33.4272 15.3267C33.6755 15.1214 33.8761 14.9303 34.1006 14.7775C35.3615 13.9178 36.7609 13.4545 38.2893 13.3638C38.8147 13.3351 39.3352 13.1584 39.8511 13.1727C40.9735 13.2061 42.0958 13.3112 43.2182 13.4067C43.6863 13.445 43.8391 13.765 43.6147 14.2044C42.7932 15.8282 41.7854 17.3279 40.6105 18.7178C39.7508 19.7399 38.6761 20.4467 37.4773 21.0008C37.3579 21.0533 37.2624 21.187 37.2051 21.3064C37.186 21.3399 37.3341 21.5166 37.42 21.5309C38.6714 21.7267 39.3496 22.7202 40.1424 23.5178C41.6135 24.9984 42.7215 26.7417 43.586 28.6378C43.8105 29.1345 43.6385 29.4641 43.0988 29.4593C41.1358 29.445 39.1681 29.6217 37.2242 29.1488C36.0206 28.8527 34.9317 28.3512 33.8952 27.7064C33.7949 27.6444 33.666 27.63 33.5514 27.5966C33.5179 27.7351 33.432 27.8927 33.4654 28.0121C33.7663 29.0294 33.3747 29.9512 33.1502 30.916C32.7824 32.5017 31.9084 33.8342 31.1633 35.2288C30.9293 35.6635 30.6475 36.0742 30.3418 36.4611C29.9167 36.9912 29.4391 37.0008 29.1191 36.4085C28.4027 35.0808 27.7532 33.7196 27.0988 32.3584C26.3394 30.7775 26.1102 29.1058 26.3538 27.2861L26.3585 27.2957ZM29.8308 6.33331C29.7114 6.57212 29.6493 6.74406 29.5538 6.89212C28.6033 8.39182 27.7388 9.93451 27.3042 11.6778C26.7788 13.7984 26.8744 15.747 28.7657 17.242C29.3532 17.7053 29.9693 17.8915 30.4469 17.6193C31.9275 16.7835 32.792 15.5178 32.7633 13.8079C32.749 12.8623 32.5388 11.8975 32.2666 10.9852C31.789 9.3757 30.9484 7.92853 29.8308 6.32853V6.33331ZM42.8791 14.2187C42.2726 14.1375 41.7806 14.0324 41.2839 14.0085C39.3926 13.9178 37.5538 14.0993 35.7484 14.7727C34.1723 15.3554 33.2457 16.4014 32.8923 18.0062C32.7347 18.7178 32.6964 19.4772 33.3938 19.8641C34.0338 20.2175 34.7884 20.4659 35.5144 20.5423C37.1 20.7094 38.3418 19.9023 39.469 18.8802C40.8923 17.5858 41.8761 15.9763 42.8791 14.2139V14.2187ZM29.6684 35.7303C29.8212 35.6014 29.9597 35.5345 30.0218 35.4247C30.5138 34.5984 30.9914 33.7673 31.469 32.9363C31.66 32.5972 31.8988 32.2724 32.0135 31.9094C32.2475 31.1787 32.3669 30.4097 32.6152 29.6838C32.94 28.7381 32.7681 27.8067 32.4624 26.9566C32.0994 25.9441 31.1967 25.2945 30.3466 24.6736C30.1794 24.5494 29.8069 24.5447 29.6158 24.645C28.1305 25.4378 27.2373 26.6461 27.1227 28.3751C27.0129 30.0993 27.6433 31.6372 28.312 33.156C28.6941 34.0157 29.186 34.8276 29.6684 35.7303ZM16.9496 27.7781C18.0433 27.8784 18.9651 28.0264 19.8821 28.036C20.7179 28.0456 21.5538 27.9357 22.3848 27.8259C23.0344 27.7399 23.6935 27.6396 24.3191 27.439C25.4654 27.076 26.2487 26.2545 26.8075 25.2181C27.6338 23.6706 27.0749 22.233 25.5132 21.8748C23.789 21.4784 22.2415 21.9417 20.8994 23.002C20.1687 23.5799 19.5573 24.325 18.9603 25.0509C18.2773 25.8867 17.6708 26.7847 16.9448 27.7781H16.9496ZM42.6164 28.676C42.3347 28.1029 42.1293 27.6682 41.9096 27.2432C41.1788 25.8342 40.0851 24.7166 39.0439 23.5369C37.9024 22.2378 35.1179 21.4975 33.4702 22.5864C33.0594 22.8587 32.8827 23.1166 32.8588 23.5417C32.7585 25.4617 34.0815 27.0999 35.6147 27.802C36.8039 28.3464 38.0839 28.6235 39.3973 28.6712C40.4385 28.7094 41.4845 28.6808 42.6164 28.6808V28.676ZM16.7681 14.9112C17.1597 15.4939 17.4845 16.0861 17.9191 16.5829C18.4732 17.2181 19.1132 17.7864 19.7341 18.3596C19.9681 18.5793 20.3215 18.6891 20.503 18.9375C21.143 19.8211 22.1412 20.0456 23.0726 20.1984C24.2666 20.3942 25.4797 20.2796 26.5066 19.4199C27.0129 18.9948 27.1991 18.6223 26.9412 18.0157C26.8791 17.8772 26.8552 17.7196 26.8266 17.5667C26.6451 16.6163 26.115 15.8378 25.3126 15.3888C24.3096 14.8252 23.2111 14.3859 22.0409 14.2808C20.2833 14.1232 18.5591 14.362 16.7681 14.916V14.9112ZM30.0266 23.7709C31.7412 23.9142 32.7633 22.3333 32.6964 21.1679C32.62 19.845 31.7985 18.5458 30.1126 18.5172C28.5078 18.4885 27.3902 19.7399 27.3902 21.2061C27.3902 22.596 28.589 23.7709 30.0266 23.7757V23.7709ZM31.9944 18.3787C32.109 17.9202 32.195 17.5859 32.2809 17.2515C32.2332 17.242 32.1854 17.2372 32.1424 17.2276C31.8988 17.4426 31.6552 17.6575 31.383 17.8963C31.5741 18.0444 31.7221 18.159 31.9991 18.3787H31.9944ZM26.5448 21.5214V20.399C26.2105 20.5805 25.9573 20.719 25.6087 20.91C25.9526 21.1345 26.1866 21.2873 26.5448 21.5214ZM34.3394 21.273C34.3108 21.1727 34.2821 21.0724 34.2535 20.9721C33.9764 21.0342 33.6994 21.0915 33.4272 21.1775C33.4081 21.1823 33.4606 21.4163 33.4797 21.5405L34.3394 21.273ZM27.6481 17.6575C27.9155 17.8485 27.6911 18.4599 28.2738 18.2497C28.3693 18.2163 28.4935 17.9488 28.46 17.9011C28.2881 17.667 28.1114 17.3375 27.6481 17.6623V17.6575ZM27.9681 24.645C28.0254 24.6784 28.0827 24.7118 28.14 24.7405C28.2547 24.5829 28.3645 24.4205 28.4791 24.2629C28.3358 24.1673 28.1973 24.0718 27.9681 23.9142V24.645ZM31.8702 24.8026C31.9275 24.793 31.9848 24.7835 32.0421 24.7739C32.0135 24.5399 31.9896 24.3059 31.9561 24.0718C31.9561 24.0575 31.8845 24.0527 31.8081 24.0336C31.7126 24.1482 31.6075 24.2772 31.4976 24.4109C31.6361 24.559 31.7508 24.6832 31.8654 24.8073L31.8702 24.8026Z" fill="black"/>
<circle cx="30" cy="21" r="15.6418" stroke="black" stroke-width="0.716418"/>
<path d="M31.6715 18.3731L37.8805 7.62683M33.3432 21L45.5223 21.4776M31.6715 23.6268L37.4029 34.6119M28.5671 23.6268L21.6417 33.8955M26.6566 21H14.7163M28.0894 18.3731L22.3581 7.62683" stroke="black" stroke-width="0.716418"/>
</svg>
