<svg width="36" height="36" viewBox="0 0 36 36" fill="none" xmlns="http://www.w3.org/2000/svg">
<path fill-rule="evenodd" clip-rule="evenodd" d="M17.9991 0.818182H18V18H18.0348L0.818182 34.2384V1.63636C0.818182 1.46719 0.869527 1.31 0.957485 1.17954L17.9991 18V0.818182ZM20.0455 35.1818H34.3636C34.8155 35.1818 35.1818 34.8155 35.1818 34.3636V18H20.0455V35.1818ZM19.2273 35.1818L18.4091 35.1725L2.40552 34.9907L1.22727 34.9773L2.08447 34.1688L18.4091 18.7717L19.2273 18V19.1247V34.3636V35.1818ZM0 1.63636C0 0.732625 0.732625 0 1.63636 0H34.3636C35.2674 0 36 0.732625 36 1.63636V34.3636C36 35.2674 35.2674 36 34.3636 36H1.63636C0.732625 36 0 35.2674 0 34.3636V1.63636Z" fill="black"/>
</svg>
