<svg width="464" height="352" viewBox="0 0 464 352" fill="none" xmlns="http://www.w3.org/2000/svg">
<path d="M180.668 81.6087V73.2301L220.519 96.9619L302.922 48.8203V57.2886C302.922 58.3445 302.367 59.3226 301.461 59.8641L222.238 107.187C221.597 107.57 220.795 107.564 220.16 107.17L181.615 83.3092C181.026 82.9447 180.668 82.3013 180.668 81.6087Z" fill="#383838"/>
<path d="M261.891 24.7067L180.778 72.3711C180.121 72.7569 180.119 73.7055 180.775 74.0936L220.013 97.34C220.325 97.525 220.712 97.5263 221.026 97.3436L302.79 49.6839C303.452 49.2981 303.452 48.3418 302.79 47.956L262.901 24.7049C262.589 24.5228 262.202 24.5235 261.891 24.7067Z" fill="black"/>
<path d="M223.895 50.8535L258.342 70.517" stroke="white" stroke-linecap="round"/>
<ellipse cx="263.072" cy="33.9036" rx="4.05263" ry="2.7122" fill="white"/>
<ellipse cx="259.017" cy="48.8196" rx="4.05263" ry="2.7122" fill="white"/>
<path d="M28.0195 81.6087V73.2301L67.8704 96.9619L150.274 48.8203V57.2886C150.274 58.3445 149.719 59.3226 148.812 59.8641L69.59 107.187C68.9486 107.57 68.147 107.564 67.5117 107.17L28.9668 83.3092C28.3779 82.9447 28.0195 82.3013 28.0195 81.6087Z" fill="#383838"/>
<path d="M109.242 24.7067L28.1292 72.3711C27.4727 72.7569 27.471 73.7055 28.1261 74.0936L67.3641 97.34C67.6762 97.525 68.064 97.5263 68.3774 97.3436L150.142 49.6839C150.804 49.2981 150.804 48.3418 150.142 47.956L110.253 24.7049C109.94 24.5228 109.554 24.5235 109.242 24.7067Z" fill="black"/>
<path d="M71.2461 50.8535L105.693 70.517" stroke="white" stroke-linecap="round"/>
<ellipse cx="66.5175" cy="73.9075" rx="4.05263" ry="2.7122" fill="white"/>
<ellipse cx="67.869" cy="88.8255" rx="4.05263" ry="2.7122" fill="white"/>
<path d="M19.9141 176.536V168.158L59.7649 191.89L142.168 143.748V152.216C142.168 153.272 141.613 154.25 140.707 154.792L61.4846 202.115C60.8431 202.498 60.0415 202.492 59.4062 202.098L20.8613 178.237C20.2724 177.872 19.9141 177.229 19.9141 176.536Z" fill="#383838"/>
<path d="M101.137 119.634L20.0237 167.299C19.3672 167.685 19.3656 168.633 20.0206 169.021L59.2587 192.268C59.5708 192.453 59.9585 192.454 60.272 192.271L142.036 144.612C142.698 144.226 142.698 143.27 142.036 142.884L102.147 119.633C101.835 119.451 101.449 119.451 101.137 119.634Z" fill="black"/>
<path d="M63.1406 145.781L97.588 165.445" stroke="white" stroke-linecap="round"/>
<ellipse cx="45.58" cy="174.939" rx="4.05263" ry="2.7122" fill="white"/>
<ellipse cx="34.7714" cy="168.158" rx="4.05263" ry="2.7122" fill="white"/>
<ellipse cx="106.369" cy="153.24" rx="4.05263" ry="2.7122" fill="white"/>
<ellipse cx="75.2987" cy="176.294" rx="4.05263" ry="2.7122" fill="white"/>
<path d="M26.668 299.941V291.562L66.5188 315.294L148.922 267.152V275.621C148.922 276.677 148.367 277.655 147.461 278.196L68.2385 325.519C67.597 325.902 66.7954 325.896 66.1601 325.503L27.6153 301.641C27.0263 301.277 26.668 300.633 26.668 299.941Z" fill="#383838"/>
<path d="M107.891 243.039L26.7776 290.703C26.1212 291.089 26.1195 292.038 26.7745 292.426L66.0126 315.672C66.3247 315.857 66.7125 315.858 67.0259 315.676L148.79 268.016C149.452 267.63 149.452 266.674 148.79 266.288L108.901 243.037C108.589 242.855 108.202 242.856 107.891 243.039Z" fill="black"/>
<path d="M69.8945 269.186L104.342 288.849" stroke="white" stroke-linecap="round"/>
<ellipse cx="53.6854" cy="296.986" rx="4.05263" ry="2.7122" fill="white"/>
<ellipse cx="42.8769" cy="290.206" rx="4.05263" ry="2.7122" fill="white"/>
<ellipse cx="113.123" cy="276.644" rx="4.05263" ry="2.7122" fill="white"/>
<ellipse cx="65.8417" cy="305.122" rx="4.05263" ry="2.7122" fill="white"/>
<ellipse cx="69.8964" cy="291.562" rx="4.05263" ry="2.7122" fill="white"/>
<ellipse cx="82.0526" cy="298.343" rx="4.05263" ry="2.7122" fill="white"/>
<path d="M150.949 299.941V291.562L190.8 315.294L273.204 267.152V275.621C273.204 276.677 272.649 277.655 271.742 278.196L192.52 325.519C191.878 325.902 191.077 325.896 190.441 325.503L151.897 301.641C151.308 301.277 150.949 300.633 150.949 299.941Z" fill="#383838"/>
<path d="M232.172 243.039L151.059 290.703C150.402 291.089 150.401 292.038 151.056 292.426L190.294 315.672C190.606 315.857 190.994 315.858 191.307 315.676L273.072 268.016C273.734 267.63 273.734 266.674 273.072 266.288L233.182 243.037C232.87 242.855 232.484 242.856 232.172 243.039Z" fill="black"/>
<path d="M194.176 269.186L228.623 288.849" stroke="white" stroke-linecap="round"/>
<ellipse cx="238.756" cy="261.728" rx="4.05263" ry="2.7122" fill="white"/>
<ellipse cx="229.299" cy="256.304" rx="4.05263" ry="2.7122" fill="white"/>
<ellipse cx="180.666" cy="282.07" rx="4.05263" ry="2.7122" fill="white"/>
<ellipse cx="250.912" cy="268.507" rx="4.05263" ry="2.7122" fill="white"/>
<ellipse cx="225.248" cy="273.933" rx="4.05263" ry="2.7122" fill="white"/>
<ellipse cx="213.088" cy="265.796" rx="4.05263" ry="2.7122" fill="white"/>
<path d="M156.352 187.384V179.006L196.202 202.737L278.606 154.596V163.064C278.606 164.12 278.051 165.098 277.144 165.639L197.922 212.962C197.281 213.346 196.479 213.339 195.844 212.946L157.299 189.085C156.71 188.72 156.352 188.077 156.352 187.384Z" fill="#383838"/>
<path d="M237.574 130.482L156.461 178.147C155.805 178.532 155.803 179.481 156.458 179.869L195.696 203.115C196.008 203.3 196.396 203.302 196.709 203.119L278.474 155.459C279.136 155.073 279.136 154.117 278.474 153.731L238.585 130.48C238.272 130.298 237.886 130.299 237.574 130.482Z" fill="black"/>
<path d="M199.578 156.629L234.025 176.292" stroke="white" stroke-linecap="round"/>
<ellipse cx="257.666" cy="154.595" rx="4.05263" ry="2.7122" fill="white"/>
<ellipse cx="244.158" cy="149.171" rx="4.05263" ry="2.7122" fill="white"/>
<ellipse cx="218.49" cy="151.884" rx="4.05263" ry="2.7122" fill="white"/>
<ellipse cx="187.42" cy="169.513" rx="4.05263" ry="2.7122" fill="white"/>
<path d="M304.949 176.536V168.158L344.8 191.89L427.204 143.748V152.216C427.204 153.272 426.649 154.25 425.742 154.792L346.52 202.115C345.878 202.498 345.077 202.492 344.441 202.098L305.897 178.237C305.308 177.872 304.949 177.229 304.949 176.536Z" fill="#383838"/>
<path d="M386.172 119.634L305.059 167.299C304.402 167.685 304.401 168.633 305.056 169.021L344.294 192.268C344.606 192.453 344.994 192.454 345.307 192.271L427.072 144.612C427.734 144.226 427.734 143.27 427.072 142.884L387.182 119.633C386.87 119.451 386.484 119.451 386.172 119.634Z" fill="black"/>
<path d="M348.176 145.781L382.623 165.445" stroke="white" stroke-linecap="round"/>
<ellipse cx="407.615" cy="146.46" rx="4.05263" ry="2.7122" fill="white"/>
<ellipse cx="394.107" cy="154.597" rx="4.05263" ry="2.7122" fill="white"/>
<ellipse cx="394.107" cy="139.679" rx="4.05263" ry="2.7122" fill="white"/>
<ellipse cx="368.439" cy="143.747" rx="4.05263" ry="2.7122" fill="white"/>
<ellipse cx="333.318" cy="174.939" rx="4.05263" ry="2.7122" fill="white"/>
<ellipse cx="361.685" cy="176.294" rx="4.05263" ry="2.7122" fill="white"/>
<ellipse cx="322.51" cy="168.158" rx="4.05263" ry="2.7122" fill="white"/>
<ellipse cx="337.369" cy="160.021" rx="4.05263" ry="2.7122" fill="white"/>
<path d="M321.16 81.6087V73.2301L361.011 96.9619L443.415 48.8203V57.2886C443.415 58.3445 442.859 59.3226 441.953 59.8641L362.731 107.187C362.089 107.57 361.288 107.564 360.652 107.17L322.107 83.3092C321.519 82.9447 321.16 82.3013 321.16 81.6087Z" fill="#383838"/>
<path d="M402.383 24.7067L321.27 72.3711C320.613 72.7569 320.612 73.7055 321.267 74.0936L360.505 97.34C360.817 97.525 361.205 97.5263 361.518 97.3436L443.283 49.6839C443.944 49.2981 443.944 48.3418 443.283 47.956L403.393 24.7049C403.081 24.5228 402.695 24.5235 402.383 24.7067Z" fill="black"/>
<path d="M364.387 50.8535L398.834 70.517" stroke="white" stroke-linecap="round"/>
<ellipse cx="359.658" cy="73.9075" rx="4.05263" ry="2.7122" fill="white"/>
<ellipse cx="403.564" cy="33.9036" rx="4.05263" ry="2.7122" fill="white"/>
<ellipse cx="361.01" cy="88.8255" rx="4.05263" ry="2.7122" fill="white"/>
<ellipse cx="399.51" cy="48.8196" rx="4.05263" ry="2.7122" fill="white"/>
<path d="M441.15 218.016H293.121V329.453H441.15V218.016Z" fill="white"/>
<path fill-rule="evenodd" clip-rule="evenodd" d="M437.638 221.325H296.391V326.112H437.638V221.325ZM441.029 218V329.438H293V218H441.029Z" fill="#0070F3"/>
<path d="M357.954 285.857C357.988 274.129 360.97 270.494 366.476 266.96C370.81 264.195 374.104 261.497 374.104 257.272C374.104 253.047 370.843 250.416 366.755 250.416C362.667 250.416 358.959 253.326 358.848 258.131H342.898C343.111 243.593 353.855 237.127 366.889 237.127C381.174 237.127 391.539 243.905 391.539 256.47C391.539 264.742 387.138 269.758 380.482 273.66C375.244 276.771 372.719 279.714 372.719 285.835V287.25H357.954V285.835V285.857ZM356.603 300.974C356.536 296.058 360.623 292.078 365.616 292.078C370.608 292.078 374.562 296.058 374.629 300.974C374.562 305.958 370.363 309.971 365.616 309.971C360.623 309.971 356.536 305.958 356.603 300.974Z" fill="#0070F3"/>
</svg>
