<svg width="60" height="42" viewBox="0 0 60 42" fill="none" xmlns="http://www.w3.org/2000/svg">
<circle cx="29.7397" cy="21.7392" r="13.9978" stroke="black" stroke-width="0.7"/>
<path d="M29.4364 7.31745C30.6379 12.1308 32.1247 15.4534 34.3339 17.7222C36.5514 19.9995 39.4565 21.1748 43.402 21.7813C43.4118 21.7828 43.417 21.7851 43.4253 21.7963C43.4369 21.8119 43.4501 21.8423 43.4524 21.8833C43.4546 21.9243 43.4448 21.9559 43.4351 21.9724C43.4282 21.9841 43.4235 21.9869 43.4141 21.9894C39.3363 23.073 36.4606 24.5214 34.3461 26.736C32.2335 28.9485 30.9147 31.8908 29.8802 35.8932C29.8767 35.9069 29.8722 35.9111 29.8655 35.9154C29.8548 35.9224 29.8333 35.9303 29.8044 35.9295C29.7754 35.9286 29.7547 35.9196 29.7446 35.9122C29.7384 35.9077 29.7344 35.9035 29.7317 35.8897C28.8708 31.4956 27.5163 28.4293 25.3174 26.2022C23.1205 23.9772 20.1192 22.6293 16.0492 21.5913C16.0419 21.5894 16.0381 21.5881 16.031 21.5756C16.0208 21.5575 16.0105 21.5222 16.0138 21.476C16.0172 21.4299 16.0325 21.3955 16.0462 21.3777C16.0562 21.3646 16.0616 21.3633 16.0698 21.3623C20.0424 20.894 22.975 19.8612 25.1051 17.667C27.229 15.4793 28.5042 12.1888 29.289 7.32481C29.2913 7.3105 29.2953 7.30652 29.301 7.30208C29.311 7.29445 29.332 7.28472 29.3616 7.28342C29.3913 7.28212 29.4128 7.28999 29.423 7.29652C29.4288 7.3002 29.433 7.30351 29.4364 7.31745Z" stroke="black" stroke-width="0.7"/>
</svg>
