<svg width="60" height="42" viewBox="0 0 60 42" fill="none" xmlns="http://www.w3.org/2000/svg">
<path d="M22.1838 29.028C22.2246 26.2093 22.2518 23.3862 22.3198 20.5675C22.3289 20.2141 22.4875 19.8425 22.6506 19.5162C23.9104 16.9966 25.1883 14.4907 26.4662 11.9802C26.6067 11.7038 26.7381 11.4002 26.9465 11.1826C27.0553 11.0693 27.368 11.0376 27.522 11.1101C30.1957 12.3382 32.0446 14.3638 33.0506 17.1054C33.5898 18.5691 33.7666 20.128 33.5853 21.6959C33.2318 24.7139 31.8135 27.1474 29.4117 28.9691C28.2924 29.8165 27.0236 30.4736 25.5871 30.6548C24.6264 30.7772 23.6566 30.8497 22.6869 30.9267C22.2246 30.963 22.0479 30.7364 22.0887 30.2742C22.1249 29.8618 22.0977 29.4449 22.0977 29.0325C22.1295 29.0325 22.1567 29.0325 22.1884 29.0325L22.1838 29.028ZM26.2623 26.7667C27.3498 26.8347 28.3287 25.9239 28.3196 24.7275C28.3151 23.5946 27.6217 22.7064 26.303 22.6656C24.998 22.6249 24.2049 23.6173 24.1596 24.6822C24.1188 25.6021 24.9798 26.8302 26.2623 26.7667ZM29.4933 17.5722C29.4344 16.4393 28.5235 15.4876 27.4314 15.4922C26.3302 15.4967 25.3378 16.4075 25.356 17.6129C25.3741 18.7051 26.2985 19.6657 27.377 19.6567C28.6187 19.6476 29.4706 18.6144 29.4933 17.5767V17.5722Z" fill="black"/>
<path d="M29.0764 7.00453C30.3815 7.42597 31.4419 8.16915 32.4706 8.95764C34.4826 10.5029 35.9236 12.5013 36.9251 14.7988C37.3556 15.7777 37.6094 16.8652 37.7635 17.9256C37.9493 19.1809 38.0082 20.4588 37.9991 21.7276C37.99 23.1777 37.5641 24.5599 37.0656 25.9193C36.5762 27.2516 35.8647 28.4479 35.04 29.5854C33.6352 31.5113 31.818 32.9569 29.6746 33.9447C28.6097 34.4387 27.4451 34.774 26.2895 35.0097C25.1204 35.2453 23.9104 35.2725 22.7186 35.3858C22.2066 35.4356 21.9392 35.2453 22.0117 34.6789C22.057 34.3254 22.048 33.9629 22.0253 33.6049C21.9936 33.1336 22.1341 32.9025 22.6643 32.9614C23.0721 33.0067 23.4935 32.9705 23.9059 32.9614C25.9089 32.9161 27.7713 32.3542 29.4933 31.3527C30.9435 30.5098 32.1942 29.4132 33.1911 28.0537C34.1246 26.7758 34.8089 25.3891 35.2303 23.8439C35.7832 21.8183 35.8194 19.7926 35.3753 17.7716C34.7228 14.817 33.0824 12.4605 30.7305 10.6026C30.0553 10.0679 29.2804 9.62831 28.5009 9.26579C28.084 9.07093 28.1022 8.85795 28.2336 8.57699C28.4783 8.06039 28.7683 7.56645 29.0764 7V7.00453Z" fill="black"/>
</svg>
