<svg width="60" height="42" viewBox="0 0 60 42" fill="none" xmlns="http://www.w3.org/2000/svg">
<path fill-rule="evenodd" clip-rule="evenodd" d="M15 21.0015C14.9887 29.2171 21.7195 36.1012 29.9264 35.9953H29.9302C38.1861 36.2071 45 29.2284 45 21.028C45.0038 12.7178 38.1635 6.03039 30.0849 6.00013C21.712 5.96608 15.0113 12.8313 15 21.0015ZM15.6229 20.8502C15.6682 13.1717 22.1197 6.45403 30.0925 6.64315C38.0993 6.55994 44.4753 13.2587 44.4186 21.062C44.3582 29.1528 37.9634 35.4317 30.0208 35.4544C22.1084 35.4771 15.5738 29.0431 15.6229 20.8502ZM35.704 19.0032C35.3273 19.0047 34.9507 19.0063 34.5743 19.0063L34.5779 19.018C34.0907 19.018 33.604 19.0175 33.1174 19.0171C32.1447 19.0162 31.1725 19.0154 30.1988 19.018C30.0428 19.018 29.8761 19.0373 29.7272 19.0916C29.096 19.3242 29.0109 19.925 29.0109 20.5219C29.0003 22.7924 29.0016 25.065 29.0029 27.3383C29.0034 28.0959 29.0038 28.8537 29.0038 29.6114C29.0038 29.6344 29.0029 29.6581 29.0019 29.682C28.9997 29.7388 28.9974 29.7972 29.0074 29.8517C29.1457 30.7161 29.4719 31.2045 30.3938 30.9177C30.8477 30.7743 30.9505 30.3285 30.9505 29.8556C30.9505 29.0726 30.9511 28.2897 30.9516 27.5067C30.9531 25.5492 30.9545 23.5918 30.9469 21.6343C30.9434 21.2429 31.0356 21.0297 31.4363 21.0335C32.9503 21.0452 34.4679 21.0452 35.982 21.0452C36.5121 21.0452 37.0413 21.0413 37.5705 21.0374C38.0998 21.0335 38.629 21.0297 39.1591 21.0297C39.6023 21.0297 39.9001 20.7506 39.9817 20.3358C40.0384 20.049 39.9604 19.6226 39.7867 19.425C39.581 19.1924 39.2123 19.0335 38.9073 19.0257C37.8405 18.9942 36.7718 18.9987 35.704 19.0032Z" fill="black"/>
</svg>
