<svg width="60" height="42" viewBox="0 0 60 42" fill="none" xmlns="http://www.w3.org/2000/svg">
<path d="M24.2245 33.6937C20.9549 33.6937 17.5194 33.6888 14.0888 33.6986C13.6204 33.6986 13.4057 33.6156 13.2885 33.064C12.9665 31.5461 12.5809 30.0525 12.4492 28.4955C12.3662 27.534 12.0881 26.592 11.9124 25.6402C11.849 25.2936 11.6342 25.1472 11.3122 25.1814C10.6924 25.24 10.5606 24.9471 10.5167 24.3663C10.4289 23.1412 10.2776 21.9161 10.0483 20.7056C9.90185 19.9246 10.0873 19.3389 10.6241 18.7972C12.0002 17.4207 13.3715 16.0346 14.7379 14.6435C16.6752 12.6667 18.6223 10.6997 20.5255 8.69368C21.0574 8.1275 21.643 7.96643 22.3652 8.00547C25.1224 8.14702 27.8893 8.07381 30.6465 8.21535C36.2048 8.50333 41.7728 8.37154 47.331 8.55213C48.2192 8.58142 49.1073 8.67904 49.9955 8.67416C50.3615 8.67416 50.5225 8.87427 50.5225 9.20129C50.5225 10.4264 50.8007 11.6173 50.9031 12.8327C50.9568 13.4818 50.8446 14.0236 50.4005 14.4971C49.9174 15.0096 49.8149 15.5269 49.9369 16.2884C50.1858 17.821 50.5274 19.3389 50.7128 20.8813C50.7519 21.2083 50.6055 21.4768 50.4542 21.7355C48.1704 25.5719 45.8768 29.4034 43.6027 33.2398C43.2953 33.7571 42.9342 34.0012 42.2998 33.9865C40.2502 33.9377 38.186 34.0842 36.1462 33.9182C32.2325 33.5961 28.3139 33.8938 24.2391 33.6888L24.2245 33.6937ZM22.4921 16.7374C22.6922 16.7277 22.8386 16.8204 22.9655 16.9619C23.1851 17.206 23.3998 17.0986 23.4876 16.8692C23.8975 15.8198 24.9028 15.7027 25.7714 15.4196C26.7962 15.0877 27.8747 15.0389 28.9532 15.0145C29.1093 15.0145 29.2704 14.9559 29.4168 14.8973C29.5241 14.8534 29.6705 14.7265 29.5241 14.6289C29.0215 14.3018 28.6994 13.721 27.9723 13.6966C26.5473 13.6576 25.1468 13.887 23.7316 13.9846C22.6775 14.0578 22.0627 15.0242 22.3896 16.0346C22.8164 16.7014 23.4282 17.6639 23.146 17.5036C22.8922 17.6159 21.9407 16.6593 21.7064 16.9278C21.0428 17.6745 20.3596 18.4018 19.6959 19.1486C19.4958 19.3731 19.5202 19.5439 19.8765 19.5439C20.5255 19.5439 21.1745 19.5439 21.8236 19.5586C22.048 19.5635 22.2042 19.461 22.3457 19.3048C22.619 19.0119 22.8923 18.7239 23.1607 18.436C23.4681 18.1089 23.473 17.8649 23.0923 17.5428C22.8483 17.3378 22.375 17.2255 22.4872 16.7325L22.4921 16.7374ZM27.8649 24.3858C30.9295 24.3858 33.999 24.2442 37.0636 24.2442C38.4642 24.2442 39.8647 24.2198 41.2653 24.2101C41.7386 24.2101 41.9094 24.0685 41.7533 23.5414C41.5483 22.8288 41.3238 22.1162 41.1774 21.3987C41.0652 20.8667 40.8358 20.7056 40.3283 20.6958C36.6 20.6031 32.862 20.7934 29.1337 20.4859C27.9625 20.3883 26.7816 20.4518 25.6055 20.4323C23.1314 20.3883 20.6524 20.403 18.1782 20.2761C15.8847 20.1589 13.5911 20.1833 11.3024 20.115C10.9266 20.1052 10.7998 20.2468 10.8339 20.6177C10.9266 21.7062 11.1755 22.78 11.2048 23.8831C11.2146 24.3077 11.4781 24.5713 11.9758 24.5322C12.8445 24.4688 13.718 24.4053 14.5866 24.4004C19.0127 24.3858 23.4388 24.3956 27.8649 24.3956V24.3858ZM24.366 29.0129C24.205 29.0129 24.0391 29.0129 23.878 29.0129C20.628 28.9983 17.3779 28.9787 14.1279 28.9738C13.8741 28.9738 13.4984 28.8469 13.4008 29.1154C13.2544 29.5107 13.3666 29.9354 13.5325 30.3503C13.674 30.6919 13.9083 30.6578 14.1669 30.6626C17.7 30.6773 21.2331 30.6773 24.771 30.7066C27.5721 30.7261 30.3732 30.6822 33.1694 30.8139C35.9266 30.9457 38.6886 30.8774 41.4507 30.9067C41.6068 30.9067 41.7972 30.9262 41.8753 30.7456C42.0558 30.3307 41.8508 29.9549 41.7435 29.5693C41.6557 29.2374 41.397 29.2862 41.1628 29.2716C38.957 29.1447 36.7464 29.2179 34.5358 29.13C31.1491 28.9934 27.7576 29.0129 24.366 29.0129ZM36.7659 33.1763C38.1079 33.1763 39.7281 33.1812 41.3531 33.1714C41.7093 33.1714 42.129 33.3325 42.3974 33.0299C42.6365 32.7614 42.2412 32.4735 42.2705 32.1757C42.3193 31.6144 42.0168 31.5168 41.5288 31.5168C39.2352 31.5266 36.9416 31.5022 34.6432 31.4973C30.5635 31.4875 26.4839 31.4436 22.4092 31.3362C19.7301 31.2679 17.051 31.2972 14.367 31.2825C14.1718 31.2825 13.9083 31.2239 13.8497 31.4826C13.757 31.9024 13.8009 32.3466 13.9668 32.737C14.084 33.0152 14.4304 32.9079 14.6842 32.9127C19.2518 32.9762 23.8195 33.0396 28.3871 33.0933C29.1142 33.1031 29.8511 33.025 30.5733 33.0592C32.5399 33.1519 34.5114 33.0592 36.7611 33.1763H36.7659ZM26.9085 24.9715C26.9085 24.7811 26.9085 25.035 26.9085 24.9715C25.5274 24.9715 24.1513 25.1619 22.7703 25.1619C19.6861 25.1667 16.602 25.1765 13.513 25.1814C12.6737 25.1814 12.6688 25.2155 12.742 26.0355C12.7908 26.5822 13.1568 26.4895 13.4837 26.4895C18.7394 26.4992 24 26.4895 29.2557 26.5187C32.8766 26.5383 36.5024 26.5529 40.1233 26.7042C41.2067 26.7482 41.1921 26.7189 41.1335 25.6499C41.1091 25.1521 40.8944 24.952 40.4161 24.9861C40.2161 25.0008 40.0111 24.9666 39.811 24.9666C35.5069 24.9666 31.2077 24.9666 26.9036 24.9666L26.9085 24.9715ZM27.4404 27.3631C27.4404 27.4266 27.4404 27.2997 27.4404 27.3631C28.0894 27.3631 26.7913 27.3631 27.4404 27.3631C23.5852 27.3436 17.783 27.1386 13.9278 27.0996C13.4301 27.0947 13.3081 27.2509 13.3325 27.7341C13.3569 28.1831 13.6106 28.2905 13.9522 28.31C14.7818 28.3589 15.6114 28.4125 16.441 28.4174C24.6246 28.4467 32.8034 28.4711 40.9871 28.4906C41.6703 28.4906 41.7776 28.271 41.4897 27.6414C41.3238 27.2704 41.0359 27.3631 40.7724 27.3631C36.3267 27.3631 31.8811 27.3631 27.4404 27.3631ZM38.5374 15.073C40.3429 15.073 42.1485 15.034 43.9541 15.0925C44.73 15.117 45.2619 14.8778 45.6523 14.2335C45.7353 14.0968 45.911 13.9797 45.8182 13.8138C45.7304 13.6478 45.5254 13.7161 45.3742 13.7161C43.9541 13.7064 42.534 13.7405 41.114 13.6966C39.8647 13.6576 38.6154 13.7259 37.3564 13.5599C36.4195 13.4379 35.4191 13.3257 34.487 13.7308C33.8673 13.9992 33.2573 14.3018 32.6229 14.541C32.3984 14.624 32.1398 14.6874 32.1739 14.9266C32.213 15.1853 32.5106 15.073 32.6961 15.073C34.6432 15.0828 36.5903 15.0779 38.5374 15.0779V15.073ZM20.8866 12.8913C21.5991 13.0426 22.0822 12.7302 22.5019 12.1933C22.8483 11.754 23.2485 11.3635 23.6291 10.9487C24.1269 10.3971 24.6198 9.84069 25.1273 9.29891C25.2786 9.13784 25.303 9.04023 25.0687 8.95725C24.4929 8.75225 23.6243 8.97189 23.2339 9.40629C22.3311 10.3971 21.4234 11.8663 20.5157 12.8522C20.3303 13.0523 20.1156 13.1939 19.8277 13.1646C19.7105 13.1499 19.569 13.1548 19.5202 13.0182C19.4812 12.8961 19.6178 12.8571 19.6764 12.7888C20.1741 12.2421 20.6719 11.2073 21.1696 10.6607C21.5893 10.2019 22.0285 9.75772 22.4335 9.28427C22.5409 9.15737 22.8142 8.86939 22.3896 8.7913C22.0041 8.72297 21.5844 8.68392 21.2575 9.02558C20.1595 10.1628 19.0517 11.2903 17.9586 12.4276C17.8659 12.5203 17.739 12.6423 17.8269 12.7985C17.8952 12.9157 18.0465 12.8815 18.1636 12.8864C19.0761 12.9254 19.9887 12.7595 20.8915 12.8961L20.8866 12.8913ZM45.5889 19.3829C45.2668 18.641 45.3351 17.821 45.1058 17.0498C44.9447 16.4982 44.7251 16.6154 44.486 16.9131C43.6271 17.9918 42.7878 19.09 41.9436 20.1882C41.8216 20.3444 41.6947 20.5201 41.7776 20.7446C42.0558 21.4963 42.1778 22.2919 42.4316 23.0533C42.6365 23.6634 42.8268 23.4096 43.0416 23.1265C43.7833 22.1601 44.5153 21.1888 45.2229 20.198C45.3888 19.9686 45.6572 19.7441 45.5889 19.3829ZM35.2483 11.7052C35.2483 11.6076 35.1751 11.5783 35.1068 11.5295C34.5651 11.1146 33.9941 10.7339 33.3695 10.4654C33.023 10.3141 32.618 10.2946 32.2569 10.5143C31.0662 11.2464 30.0316 12.1786 29.0166 13.1353C28.797 13.3452 28.7921 13.5404 29.0361 13.7357C29.3582 13.9992 29.6803 14.2628 29.9926 14.541C30.3 14.8095 30.5245 14.746 30.8515 14.502C32.1446 13.5258 33.2865 12.2811 34.9994 11.9981C35.1604 11.9736 35.2434 11.8663 35.2434 11.7003L35.2483 11.7052ZM33.2231 15.4977C32.6619 15.3854 32.1446 15.4196 31.6225 15.4635C31.8177 15.605 31.4468 15.4781 31.6225 15.4635C31.0564 15.4489 30.5099 15.6197 30.2805 15.8589C29.3484 16.8497 28.4212 17.8454 27.4989 18.8411C26.8938 19.4951 26.8938 19.5146 27.7381 19.7099C28.6506 19.9198 29.4607 19.8612 30.1195 19.0266C30.749 18.2261 31.5102 17.5281 32.1837 16.7618C32.535 16.3616 32.9596 16.0199 33.228 15.4977H33.2231ZM25.5079 12.8425C26.2155 12.984 26.8304 12.8815 27.416 12.9547C28.1675 13.0474 28.553 12.7741 28.9629 12.1738C29.4314 11.4904 30.1048 10.9535 30.6465 10.319C30.9295 9.98712 31.3151 9.7626 31.52 9.34284C31.6518 9.06951 31.5688 9.00118 31.3443 8.9963C30.6367 8.98165 29.9291 8.98653 29.2167 8.99142C29.0068 8.99142 28.9092 9.16225 28.7872 9.29403C27.7234 10.4459 26.6547 11.5978 25.503 12.8425H25.5079ZM43.5491 15.4293C42.5536 15.4293 42.5438 15.4196 41.885 16.1175C40.8456 17.2255 39.8257 18.3481 38.796 19.4658C38.7179 19.5488 38.5764 19.6171 38.6447 19.7587C38.7033 19.8856 38.8497 19.8661 38.9668 19.8807C39.3914 19.9246 39.8208 19.9295 40.2356 20.0174C40.8309 20.1492 41.2506 19.9198 41.5922 19.4756C42.3876 18.4506 43.188 17.4256 43.9687 16.386C44.1639 16.1273 44.5983 15.8881 44.4031 15.5367C44.242 15.2536 43.8028 15.4781 43.5442 15.4196L43.5491 15.4293ZM23.7121 13.6673C23.6731 13.4038 23.5315 13.4038 23.3851 13.4038C21.7455 13.3891 20.0961 13.4721 18.4662 13.3208C17.2803 13.2085 16.5581 13.7259 15.9042 14.5459C15.8066 14.6679 15.6748 14.8387 15.6992 14.9559C15.7431 15.1414 15.9725 15.0779 16.1189 15.0779C17.8415 15.0828 19.5641 15.0779 21.2868 15.0779C21.5356 15.0779 21.7748 15.0584 21.9309 14.829C22.3603 14.1945 22.8142 13.5892 23.7072 13.6673H23.7121ZM50.1614 13.3013C49.9369 12.452 50.0784 11.6027 49.9028 10.7925C49.8735 10.6558 49.8784 10.4996 49.6929 10.4654C49.5319 10.4362 49.5026 10.5679 49.4245 10.6558C48.7804 11.4172 48.2338 12.2616 47.5506 12.9986C47.2334 13.3403 47.0968 13.7552 47.1651 14.297C47.2481 14.9364 47.4579 15.5465 47.4872 16.1908C47.4969 16.3469 47.453 16.5861 47.6287 16.6203C47.8141 16.6544 47.9605 16.5031 48.0874 16.3177C48.6535 15.5172 49.2488 14.7411 49.8491 13.9699C50.015 13.7552 50.0784 13.5111 50.1516 13.3013H50.1614ZM46.5112 26.6945C47.0236 25.8208 47.8922 25.1179 47.7165 23.9612C47.4969 22.5262 47.3408 21.0814 47.2188 19.6318C47.209 19.5 47.2578 19.3243 47.048 19.2999C46.9065 19.2852 46.7796 19.3145 46.682 19.4561C46.399 19.8661 46.111 20.281 45.7987 20.6714C45.6426 20.8715 45.6182 21.0814 45.6572 21.2962C45.8866 22.5506 45.9939 23.8245 46.1794 25.0789C46.2574 25.6011 46.2965 26.1429 46.5112 26.6896V26.6945ZM33.1548 19.7977C33.9161 19.7831 34.6773 20.1004 35.2288 19.4219C35.5704 19.0022 35.9608 18.6263 36.317 18.2212C37.0002 17.4451 37.7078 16.6886 38.4007 15.9174C38.5374 15.7661 38.796 15.5123 38.391 15.4586C37.7224 15.3708 37.0539 15.3219 36.5268 15.9662C35.8436 16.8057 35.0775 17.5769 34.3455 18.3725C33.9502 18.8069 33.4622 19.1583 33.1548 19.7929V19.7977ZM24.7076 19.5732C25.4542 19.6855 26.2204 19.6708 26.6352 18.7874C26.6498 18.7532 26.7035 18.7435 26.7279 18.7142C27.3965 18.0016 28.065 17.289 28.7336 16.5763C28.8068 16.4982 28.8848 16.4299 28.8458 16.3177C28.7921 16.1566 28.6555 16.2005 28.5384 16.2249C28.4212 16.2444 28.2992 16.2688 28.187 16.3177C27.416 16.6398 26.6742 17.0693 25.8739 17.2694C24.7515 17.5476 24.1171 18.3823 23.3998 19.1388C23.1851 19.3633 23.1899 19.583 23.5999 19.5781C23.9463 19.5781 24.2879 19.5781 24.6978 19.5781L24.7076 19.5732ZM41.3921 15.4684C40.5577 15.4244 39.772 15.2146 39.2596 15.976C38.8985 16.5129 38.4007 16.9131 37.9713 17.3768C37.3467 18.0504 36.722 18.7288 36.1169 19.417C36.0388 19.5049 35.7314 19.6611 36.0828 19.8173C36.5756 20.0369 37.5955 19.7929 37.9713 19.3877C38.635 18.6703 39.3328 17.982 39.9623 17.2401C40.4308 16.6837 41.031 16.2298 41.397 15.4684H41.3921ZM31.4029 19.7977C31.9055 19.9002 32.2276 19.6708 32.5448 19.3048C33.1011 18.6507 33.716 18.0406 34.3016 17.411C34.7603 16.918 35.2239 16.425 35.6728 15.9174C35.8046 15.771 36.0437 15.5025 35.6289 15.4489C34.9408 15.361 34.2821 15.3903 33.755 15.9955C32.8766 17.0059 31.9543 17.9772 31.0564 18.9631C30.871 19.1681 30.5343 19.3682 30.6367 19.6416C30.7539 19.9539 31.1442 19.7245 31.4029 19.8026V19.7977ZM17.7683 19.5293C18.2173 19.6367 18.5442 19.4658 18.8224 19.1193C19.0957 18.7776 19.4129 18.4653 19.7057 18.1431C20.2961 17.494 20.8768 16.8399 21.4771 16.2054C21.6528 16.015 21.6967 15.8149 21.6186 15.6002C21.5259 15.3366 21.277 15.4586 21.0916 15.4342C20.6133 15.3708 20.2522 15.566 19.935 15.9223C19.1103 16.8448 18.2661 17.7526 17.4267 18.6605C17.2315 18.8752 16.8704 19.0558 16.9973 19.3731C17.1242 19.6855 17.5097 19.4805 17.7683 19.5342V19.5293ZM12.2735 19.3389C12.8396 19.4268 13.3032 19.295 13.6253 18.7776C13.757 18.5629 13.9961 18.4213 14.1718 18.231C14.8794 17.4647 15.5821 16.7032 16.2751 15.9272C16.3824 15.8052 16.6313 15.6294 16.358 15.4586C15.9871 15.2292 14.9184 15.5025 14.572 15.8589C13.7033 16.7618 12.8249 17.655 11.9563 18.558C11.7709 18.7532 11.3658 18.9045 11.4537 19.1583C11.5708 19.4951 11.9953 19.2657 12.2686 19.3389H12.2735ZM15.1819 19.4658C15.5382 19.4414 15.8554 19.3585 16.1091 19.0802C16.7533 18.3725 17.4121 17.6745 18.066 16.9766C18.393 16.63 18.7199 16.2835 19.0371 15.9272C19.1689 15.7759 19.3201 15.5855 19.0273 15.4489C18.6565 15.2731 17.5536 15.4684 17.3145 15.771C16.5337 16.7618 15.5919 17.6062 14.7623 18.558C14.5817 18.7679 14.1718 18.9582 14.2938 19.2267C14.4304 19.5293 14.8892 19.3438 15.1819 19.4707V19.4658ZM37.3955 13.1402C37.8786 13.1792 38.2446 13.1841 38.5422 12.8522C39.5182 11.7735 40.504 10.7046 41.4946 9.6357C41.5971 9.52343 41.7093 9.4307 41.5385 9.29403C41.3189 9.1232 40.055 9.22082 39.8452 9.44534C38.9424 10.4215 38.0445 11.4075 37.1563 12.3934C36.9904 12.5789 36.6586 12.7692 36.7708 13.0182C36.8831 13.272 37.2491 13.106 37.4003 13.1353L37.3955 13.1402ZM40.2258 13.1792C40.7529 13.3013 41.1091 13.0523 41.4361 12.6814C42.0704 11.9639 42.7244 11.261 43.3685 10.5484C43.6515 10.2409 43.9931 9.98712 44.2176 9.62105C44.2713 9.5332 44.4226 9.45998 44.242 9.33796C43.959 9.14761 42.7244 9.31356 42.4852 9.57712C41.6313 10.5045 40.7773 11.427 39.9184 12.3495C39.733 12.5496 39.367 12.7009 39.4694 12.9986C39.5866 13.3257 39.9721 13.106 40.2258 13.1792ZM42.9391 13.2134C43.3539 13.3013 43.6906 13.1841 43.9834 12.8717C44.9496 11.8321 45.9256 10.8022 46.8869 9.75284C47.0041 9.62593 47.0773 9.3526 46.7894 9.34284C46.1745 9.31356 45.5401 9.11344 45.0179 9.75284C44.2713 10.6704 43.4222 11.5051 42.6268 12.3836C42.4462 12.5838 42.0851 12.7644 42.1729 13.0328C42.2803 13.3549 42.6756 13.1548 42.9391 13.2134ZM28.0699 9.06951C27.0597 8.86451 26.4351 8.8938 26.1813 9.16713C25.1517 10.28 24.1318 11.3977 23.107 12.5154C22.9215 12.7155 22.902 12.8766 23.2339 12.8961C23.9561 12.9352 24.6978 13.0572 25.1517 12.2567C25.2639 12.0566 25.4786 11.9102 25.6397 11.7345C26.4302 10.8706 27.2159 10.0066 28.0699 9.06951ZM37.6492 9.19153C36.8391 8.92796 36.3121 9.30379 35.79 9.86998C34.6822 11.0756 34.9555 10.8754 36.0486 11.715C36.3902 11.9785 36.7367 11.9297 37.0343 11.5441C37.3662 11.1195 37.7859 10.7681 38.1274 10.3483C38.3861 10.0262 38.9717 9.69915 38.8546 9.40141C38.6789 8.95237 38.0543 9.27451 37.6492 9.19641V9.19153ZM45.6279 13.2573C45.989 13.2573 46.3453 13.3257 46.6039 12.9986C47.4286 11.9492 48.2631 10.9047 49.0829 9.85046C49.3025 9.56736 49.2586 9.38677 48.8536 9.3282C48.2485 9.24522 47.8727 9.59177 47.5165 9.97736C46.7698 10.7827 46.0232 11.5929 45.301 12.4276C45.1302 12.6228 44.7593 12.8083 44.8715 13.0767C44.9887 13.3696 45.3839 13.189 45.6328 13.2573H45.6279ZM46.0037 18.9436C46.5405 18.4799 47.0773 18.0016 47.2139 17.3524C47.3993 16.4787 46.9846 15.6148 46.8528 14.746C46.8089 14.4385 46.5502 14.2726 46.2867 14.6826C46.072 15.0193 45.8329 15.3561 45.5352 15.6148C45.2668 15.8491 45.2375 16.1224 45.3303 16.3713C45.623 17.1865 45.5791 18.0845 46.0037 18.9485V18.9436ZM45.5547 23.1704C45.501 22.9752 45.6279 22.7165 45.3546 22.6384C45.0765 22.5603 45.0326 22.8239 44.9301 22.9801C44.5446 23.5707 44.1639 24.1613 43.7882 24.7567C43.31 25.523 42.8366 26.2893 42.3681 27.0605C42.1729 27.3827 42.129 27.7927 42.4511 27.9781C42.8366 28.2027 42.9293 27.7097 43.0513 27.4949C43.6174 26.4797 44.2859 25.5279 44.8911 24.5371C45.1546 24.1027 45.5498 23.7171 45.5547 23.1656V23.1704ZM28.9434 15.5269C28.1187 15.278 27.4696 15.6148 26.7962 15.6441C25.991 15.6831 25.2688 15.9711 24.5466 16.264C24.2977 16.3616 24.0537 16.5519 23.9268 16.8155C23.7511 17.1767 23.9024 17.3768 24.3026 17.3768C24.7076 17.3768 25.0394 17.1718 25.4006 17.0449C26.5766 16.6252 27.7527 16.1956 28.9434 15.5269ZM43.1928 32.2441C43.3392 32.0732 43.471 31.9561 43.5637 31.8096C44.3543 30.4869 45.1399 29.1593 45.9256 27.8366C45.989 27.7341 46.072 27.6316 46.0915 27.5193C46.1208 27.3485 46.1598 27.1337 45.9402 27.0459C45.7646 26.9776 45.6328 27.0752 45.5498 27.2362C45.5059 27.3241 45.4181 27.3876 45.3693 27.4754C44.7788 28.5443 44.1005 29.5596 43.4173 30.5748C43.0855 31.0678 42.8708 31.59 43.1977 32.2489L43.1928 32.2441ZM45.8329 25.2839C45.7792 25.1765 45.8622 24.9373 45.6133 24.8934C45.423 24.8592 45.3595 25.0252 45.2668 25.1716C44.4616 26.4651 43.6418 27.7536 42.8317 29.0422C42.6658 29.3057 42.5243 29.5742 42.7195 29.8915C42.8415 30.0867 42.9244 30.1843 43.0904 29.911C43.9492 28.5102 44.8227 27.124 45.7011 25.7329C45.7792 25.606 45.8329 25.484 45.8329 25.2839ZM31.7103 10.2897C32.5106 9.93831 33.267 9.89926 34.0185 10.3727C34.1698 10.4654 34.365 10.4508 34.5212 10.2897C34.7554 10.0408 35.0384 9.83093 35.2336 9.5576C35.3947 9.3282 35.5167 9.01582 34.9945 9.02558C34.5505 9.03534 34.0917 9.07927 33.6574 9.00118C32.5741 8.80594 32.2569 9.68939 31.7152 10.2897H31.7103ZM31.6859 14.5264C33.2133 13.7893 34.7261 13.2915 36.2243 12.4861C35.0482 12.042 32.1105 13.3891 31.6859 14.5264ZM49.1171 16.4787C48.4485 17.1376 48.1948 17.9381 47.697 18.5726C47.4969 18.8264 47.5018 19.0851 47.5213 19.3633C47.5311 19.5195 47.5213 19.7148 47.7214 19.7587C47.9069 19.7977 47.9996 19.6367 48.0874 19.5C48.3753 19.0217 48.6242 18.5189 48.956 18.0748C49.3123 17.5965 49.2635 17.1181 49.122 16.4836L49.1171 16.4787ZM47.9215 22.0137C48.4925 21.4621 48.7511 20.7788 49.1805 20.2273C49.3952 19.9539 49.4831 19.622 49.5953 19.2999C49.6685 19.0802 49.5953 18.8655 49.405 18.7825C49.161 18.6751 49.2049 18.968 49.122 19.0754C48.6925 19.6513 48.3607 20.2907 47.9898 20.9057C47.7751 21.262 47.7849 21.5695 47.9215 22.0186V22.0137ZM48.1948 23.8879C48.8828 22.9362 49.4001 22.0234 49.8881 21.0961C49.9516 20.9789 49.9613 20.8032 49.7856 20.7349C49.6392 20.6763 49.566 20.8032 49.5026 20.9057C49.2244 21.3401 48.8926 21.755 48.6828 22.2236C48.4681 22.7068 47.8971 23.0826 48.1948 23.8879Z" fill="black"/>
</svg>
