<svg width="60" height="42" viewBox="0 0 60 42" fill="none" xmlns="http://www.w3.org/2000/svg">
<path fill-rule="evenodd" clip-rule="evenodd" d="M16.0001 11.6492V19.6318L16.0101 19.6368C16.0101 20.397 16.0112 21.1573 16.0124 21.9174C16.0153 23.9443 16.0183 25.9705 16.0001 27.994C15.9951 28.6134 16.2207 28.9831 16.7623 29.2628C18.8685 30.3568 20.9596 31.4658 23.0507 32.5847C23.7609 32.9669 24.4695 33.3523 25.1783 33.7378C26.6464 34.5362 28.1151 35.335 29.5998 36.1065C29.8606 36.2413 30.3219 36.1814 30.6078 36.0415C31.073 35.8168 31.5224 35.5574 31.972 35.2978C32.322 35.0957 32.6721 34.8936 33.0298 34.7078C33.7042 34.3568 34.3832 34.0152 35.062 33.6736C35.9582 33.2226 36.8541 32.7718 37.7386 32.3C39.5989 31.311 41.4391 30.287 43.2794 29.263L43.2798 29.2628L43.3013 29.251C43.7546 29.0008 44.1774 28.7675 44.1774 28.0839C44.1523 22.4941 44.1573 16.8993 44.1724 11.3095C44.1774 10.755 43.9668 10.4053 43.4653 10.2105C42.5555 9.85364 41.6456 9.49924 40.736 9.14496C39.4049 8.62646 38.0744 8.10823 36.7457 7.58295C35.8624 7.23519 34.9818 6.88391 34.1016 6.53281C33.8847 6.44631 33.6679 6.35982 33.4511 6.27339L33.3512 6.04043L33.1176 6.14055C32.227 5.78593 31.336 5.4329 30.4423 5.08527C30.2066 4.99535 29.8907 4.96538 29.665 5.0503C29.1829 5.23275 28.7094 5.43683 28.2361 5.64084C27.8282 5.81665 27.4204 5.99242 27.0072 6.15427C26.0951 6.5142 25.1794 6.86193 24.2633 7.20981C23.6283 7.45097 22.9931 7.6922 22.3587 7.93762C20.6687 8.58702 18.9838 9.24141 17.2989 9.91079C16.0001 10.4253 16.0001 10.4353 16.0001 11.6492V11.6492ZM31.9065 6.65961C31.3418 6.43529 30.7769 6.21156 30.2116 5.98943C30.0912 5.94447 29.9258 5.93947 29.8104 5.98443C29.5497 6.08434 29.2927 6.19299 29.0357 6.30164C28.7787 6.41029 28.5217 6.51894 28.2609 6.61884C27.2864 6.99661 26.3041 7.36664 25.3243 7.73575C25.1899 7.7864 25.0555 7.83703 24.9211 7.88767C24.6151 8.00407 24.3084 8.11842 24.0017 8.23274C23.4793 8.42751 22.9571 8.62219 22.4389 8.82679C21.9302 9.02707 21.4252 9.2384 20.9205 9.4496C20.5943 9.58608 20.2684 9.7225 19.9416 9.85584C19.4595 10.0527 18.9773 10.2443 18.4738 10.4443C18.1342 10.5792 17.7848 10.718 17.4192 10.8649C17.502 10.922 17.5742 10.9746 17.6399 11.0224C17.7812 11.1253 17.8928 11.2066 18.016 11.2645C18.5171 11.4996 19.0185 11.734 19.5201 11.9681L31.9065 6.65961ZM20.7365 12.5347C21.4498 12.8666 22.1632 13.1977 22.8763 13.5287L35.0525 7.90888C34.4425 7.66812 33.8328 7.42582 33.2232 7.18328L20.7365 12.5347ZM36.2172 8.36628L36.2577 8.45398L24.0662 14.0809C24.1171 14.1045 24.1681 14.1282 24.2191 14.1519C24.7148 14.3814 25.2091 14.6134 25.7032 14.8454C26.0563 15.0111 26.4094 15.1769 26.7629 15.3417L39.0175 9.44132C38.0833 9.08672 37.149 8.73031 36.2172 8.36628ZM40.2438 9.90635L40.2651 9.9505L27.9404 15.8846C28.2635 16.0315 28.5875 16.1769 28.9128 16.3198L28.9329 16.3286C29.3771 16.5226 29.9716 16.7822 30.347 16.6345C31.7051 16.1012 33.0323 15.4879 34.3601 14.8743C34.7238 14.7062 35.0875 14.5381 35.4519 14.3716C37.2923 13.5274 39.1327 12.6732 40.963 11.809C41.3226 11.6383 41.6733 11.4406 42.0556 11.225C42.2438 11.1189 42.4396 11.0085 42.6479 10.8949H42.6529C42.4943 10.8225 42.3597 10.7589 42.2395 10.702C42.0442 10.6097 41.8866 10.5352 41.7252 10.4703C41.232 10.2815 40.7381 10.0938 40.2438 9.90635ZM32.5172 16.6727C32.766 16.5587 33.0231 16.4409 33.2906 16.3148V18.4229C33.2906 19.3669 33.2902 20.3107 33.2898 21.2543C33.2882 25.0297 33.2866 28.8031 33.3107 32.5797C33.3157 33.2541 33.2003 33.7087 32.5033 33.9685C32.05 34.1374 31.6206 34.3681 31.1524 34.6196C30.9421 34.7326 30.724 34.8498 30.4924 34.9675C30.4824 34.8431 30.4724 34.7364 30.4636 34.6414C30.4457 34.4502 30.4322 34.3068 30.4322 34.1633C30.4322 33.2798 30.4321 32.3964 30.432 31.513C30.4313 27.0963 30.4306 22.6797 30.4473 18.263C30.4473 18.0083 30.5927 17.6286 30.7883 17.5187C31.3319 17.2159 31.8985 16.9562 32.5172 16.6727ZM34.739 32.7427C34.558 32.8286 34.3717 32.9171 34.1782 33.0093H34.1732V31.4208C34.1732 30.5932 34.1733 29.7656 34.1735 28.9382C34.1742 24.8016 34.1748 20.6674 34.1581 16.5296C34.1531 15.9752 34.3687 15.7304 34.8752 15.5705C35.2803 15.4427 35.6662 15.2541 36.0508 15.0661C36.147 15.0191 36.2432 14.9721 36.3395 14.9261C36.9262 14.6464 37.0065 14.6764 37.0065 15.3258C37.0095 16.4856 37.0071 17.6435 37.0046 18.8019C37.003 19.5744 37.0014 20.347 37.0014 21.1204C37.0014 21.9032 36.9992 22.6864 36.9971 23.4697C36.9905 25.8206 36.9839 28.1736 37.0365 30.5266C37.0566 31.3459 36.7457 31.7755 36.0888 32.0952C35.6529 32.3087 35.2144 32.5169 34.739 32.7427ZM29.5328 34.6525C29.5265 34.7534 29.5199 34.8592 29.5146 34.9725C29.3793 34.9017 29.2465 34.8321 29.1157 34.7635C28.4896 34.4354 27.9089 34.1311 27.3282 33.8336C26.8919 33.6138 26.7565 33.2841 26.7565 32.7895C26.7577 32.488 26.7588 32.1863 26.7598 31.8847L29.5543 33.3095C29.5546 33.5841 29.5547 33.8587 29.5547 34.1333C29.5547 34.301 29.5442 34.4687 29.5328 34.6525ZM29.5529 32.1863C29.5519 31.5166 29.5504 30.8469 29.549 30.1773C29.5484 29.9264 29.5479 29.6755 29.5474 29.4246L26.7677 28.0863C26.7668 28.9789 26.7653 29.8715 26.763 30.7639L29.5529 32.1863ZM25.8725 30.3099C25.8706 29.8887 25.8689 29.4679 25.8689 29.048V29.0462C25.8689 28.5821 25.8689 28.1178 25.8689 27.6535L23.4869 26.5066C23.4856 27.3682 23.4841 28.2298 23.4823 29.0913L25.8725 30.3099ZM22.4291 28.5544C22.4293 27.702 22.4295 26.8498 22.4298 25.9976L19.7711 24.7175V27.1992L22.4291 28.5544ZM19.7711 28.3217L22.4289 29.6767C22.4289 30.03 22.4289 30.3832 22.4289 30.7365C22.4289 30.7958 22.4132 30.8572 22.3891 30.9511C22.3747 31.0072 22.3574 31.0751 22.3386 31.1611H22.3336C22.1688 31.0728 22.0059 30.9859 21.8447 30.9C21.1666 30.5386 20.5175 30.1926 19.8814 29.8173C19.7761 29.7574 19.7711 29.4776 19.7711 29.2978V28.3217ZM18.8835 26.7467C18.8835 25.9278 18.8835 25.1089 18.8834 24.2901L16.8923 23.3315C16.8928 24.1318 16.8935 24.9322 16.8945 25.7327L18.8835 26.7467ZM16.8961 26.856L18.8835 27.8692C18.8835 28.131 18.8835 28.3928 18.8835 28.6546V28.6634C18.8835 28.7689 18.8704 28.8765 18.8528 29.0208C18.8438 29.0952 18.8336 29.1793 18.8233 29.2778L18.8183 29.2828C18.6223 29.1791 18.4338 29.0833 18.2518 28.9908C17.8381 28.7805 17.4586 28.5877 17.1033 28.3587C16.9629 28.2637 16.8977 27.954 16.8977 27.7442C16.8971 27.4481 16.8966 27.152 16.8961 26.856ZM16.8918 22.2213L18.8833 23.1802C18.8831 21.9311 18.8829 20.6822 18.8824 19.4332L16.8916 18.3722C16.8914 19.6553 16.8913 20.9383 16.8918 22.2213ZM16.8918 17.2392L18.882 18.2998C18.8816 17.4554 18.8812 16.6109 18.8806 15.7664L16.8924 14.8252C16.8923 15.2671 16.8922 15.7089 16.8921 16.1507C16.892 16.5136 16.8919 16.8764 16.8918 17.2392ZM16.8926 13.7189L18.8798 14.6596C18.8794 14.174 18.879 13.6884 18.8785 13.2027C18.8785 12.9979 18.8083 12.6882 18.6629 12.6033C18.2938 12.3856 17.9018 12.2036 17.4885 12.0117C17.3233 11.935 17.1548 11.8568 16.983 11.7741C16.9684 11.8498 16.9538 11.9157 16.9408 11.9748C16.9134 12.0986 16.8927 12.1922 16.8927 12.2836C16.8927 12.7621 16.8926 13.2405 16.8926 13.7189ZM19.7711 16.188V18.7736L22.4311 20.1911C22.4311 19.2765 22.431 18.3618 22.4306 17.447L19.7711 16.188ZM22.4301 16.3404L19.7711 15.0816V13.6423C19.7711 13.5654 19.7897 13.4906 19.8176 13.3782C19.8331 13.3154 19.8516 13.2409 19.8714 13.1478C20.0457 13.2259 20.2179 13.3025 20.3882 13.3782C21.046 13.6709 21.6761 13.9512 22.2935 14.2568C22.3938 14.3067 22.4289 14.5515 22.4289 14.7063C22.4294 15.2511 22.4298 15.7957 22.4301 16.3404ZM23.4919 17.9494C23.4919 18.8849 23.4917 19.8205 23.4914 20.7562L25.8725 22.0251C25.874 21.0431 25.8762 20.0613 25.8792 19.0796L23.4919 17.9494ZM25.883 17.975L23.492 16.8431C23.492 16.4257 23.492 16.0083 23.492 15.591V15.5905C23.492 15.4731 23.5021 15.3577 23.5146 15.2149C23.5218 15.1329 23.5298 15.0418 23.5371 14.9361C23.612 14.9573 23.6838 14.9769 23.753 14.9957C23.9619 15.0527 24.1474 15.1034 24.3244 15.1709C24.4698 15.2275 24.611 15.2943 24.7523 15.3611C24.923 15.4419 25.0938 15.5227 25.2722 15.5855C25.7636 15.7604 25.889 16.1 25.889 16.5896C25.8867 17.0513 25.8848 17.5131 25.883 17.975ZM26.7669 19.4998C26.7671 20.144 26.7675 20.7882 26.7678 21.4325C26.768 21.7891 26.7681 22.1458 26.7683 22.5024L29.5465 23.983C29.5498 22.9305 29.556 21.8779 29.5665 20.8252L26.7669 19.4998ZM29.579 19.7247L26.7666 18.3933C26.7666 18.145 26.7665 17.8968 26.7665 17.6486C26.764 16.9418 26.7615 16.5884 26.9169 16.4935C27.0724 16.3985 27.3858 16.5621 28.0152 16.8893C28.0225 16.893 28.0292 16.898 28.0357 16.9029C28.047 16.9113 28.0576 16.9193 28.0703 16.9193C29.4293 17.179 29.6048 18.0582 29.5848 19.3021C29.5828 19.443 29.5809 19.5838 29.579 19.7247ZM29.544 25.1147L26.7688 23.6358C26.7691 24.7495 26.7692 25.8632 26.7686 26.9768L29.5452 28.3137C29.5434 27.2474 29.5425 26.1811 29.544 25.1147ZM25.8691 26.5437C25.8693 25.4151 25.8698 24.2863 25.871 23.1574L23.491 21.8891C23.4904 23.0585 23.4896 24.228 23.4883 25.3974L25.8691 26.5437ZM22.4301 24.8879C22.4305 23.7 22.4309 22.5121 22.431 21.3242L19.7711 19.9067V23.6077L22.4301 24.8879ZM23.4797 30.2124L25.8776 31.4349C25.8784 31.6766 25.8789 31.9184 25.8789 32.1601C25.8789 32.3258 25.8622 32.4939 25.8419 32.6973C25.8328 32.7883 25.8231 32.8863 25.8138 32.9944V33.0043C25.66 32.9249 25.5117 32.8481 25.3676 32.7733C24.8681 32.5142 24.4187 32.2812 23.9633 32.0602C23.6023 31.8854 23.4769 31.6306 23.4769 31.226C23.4779 30.8882 23.4788 30.5503 23.4797 30.2124ZM38.4808 30.7292C38.297 30.8305 38.1036 30.9371 37.894 31.0462V29.6625C37.8924 28.0772 37.8918 26.4913 37.8913 24.9053C37.8901 21.7335 37.889 18.561 37.879 15.3907C37.8749 14.1491 37.8808 14.1467 38.5979 13.8496C38.7637 13.7809 38.9675 13.6965 39.2179 13.5774C39.2376 13.5662 39.2604 13.5628 39.2838 13.5594C39.3021 13.5567 39.3206 13.554 39.3383 13.5474C40.3312 13.1728 40.4415 13.2677 40.3061 14.3417C40.266 14.6514 40.2409 14.9611 40.2409 15.2708L40.2409 15.2758C40.2359 19.2854 40.2309 23.29 40.2409 27.2996C40.2409 27.6333 40.2613 27.9684 40.2816 28.3034C40.2991 28.5903 40.3165 28.8771 40.3211 29.1629C40.3312 29.6625 40.1105 29.9872 39.599 30.177C39.2289 30.317 38.8775 30.5106 38.4808 30.7292ZM41.876 28.953C41.6853 29.0528 41.4841 29.1582 41.2739 29.2778V27.6793C41.2739 27.0081 41.274 26.337 41.2741 25.6659C41.2747 21.6426 41.2754 17.6218 41.2539 13.5974C41.2488 12.943 41.319 12.4334 42.0512 12.2286C42.2594 12.1718 42.4587 12.079 42.6866 11.973C42.7989 11.9207 42.9183 11.8651 43.0491 11.809C43.0581 11.9029 43.068 11.9911 43.0774 12.0753C43.0996 12.2733 43.1193 12.4495 43.1193 12.6283V26.7102C43.1193 26.7585 43.1199 26.8068 43.1204 26.8551C43.1215 26.9516 43.1227 27.0482 43.1193 27.1448C43.1131 27.2604 43.1208 27.3903 43.1284 27.5202C43.1456 27.8109 43.1627 28.101 43.024 28.2288C42.7113 28.5158 42.3224 28.7194 41.876 28.953Z" fill="black"/>
</svg>
