<svg width="60" height="42" viewBox="0 0 60 42" fill="none" xmlns="http://www.w3.org/2000/svg">
<path d="M28.1277 33.9103C23.7537 33.9103 19.3797 33.9153 15.0057 33.9054C14.2939 33.9054 13.5821 33.8072 12.8703 33.7827C12.1683 33.7581 12.2125 33.1296 12.1585 32.7663C11.9572 31.416 11.6136 30.0903 11.4614 28.7302C11.3485 27.7482 11.0392 26.7957 10.9361 25.8088C10.8968 25.4454 10.6514 25.2245 10.2488 25.2736C9.75794 25.3374 9.56649 25.1361 9.53212 24.6353C9.43394 23.1524 9.07067 21.699 9.00194 20.2113C8.9823 19.735 9.10994 19.4159 9.4683 19.0574C11.4074 17.1131 13.2876 15.1147 15.2021 13.1457C16.7779 11.5254 18.3636 9.91001 19.9541 8.30933C20.2241 8.03928 20.5874 8 20.9703 8C23.7047 8 26.4292 8.26514 29.1685 8.21604C31.2745 8.17676 33.3854 8.15712 35.4815 8.28478C39.9095 8.55975 44.3474 8.38299 48.7753 8.54993C49.3399 8.56957 49.6295 8.73651 49.6983 9.34044C49.8455 10.6318 50.0812 11.9133 50.145 13.2194C50.1646 13.6564 50.0664 14.0197 49.7572 14.3192C49.0944 14.9674 48.8293 15.6793 49.1926 16.6171C49.3939 17.1327 49.335 17.7317 49.4724 18.2915C49.6197 18.9003 49.6344 19.5386 49.8308 20.1475C50.2137 21.3161 49.4332 22.1459 48.9128 23.0297C47.661 25.1655 46.3748 27.2818 45.1033 29.4078C44.2344 30.8612 43.3803 32.3195 42.5114 33.7729C42.3297 34.0822 42.0057 33.9938 41.7357 33.9889C38.8934 33.984 36.0559 33.9644 33.2135 33.9545C31.515 33.9496 29.8214 33.9545 28.1228 33.9545V33.9153L28.1277 33.9103ZM31.1174 13.8282C31.245 14.0983 30.7246 14.0443 30.8719 14.2898C30.9799 14.4714 31.191 14.3634 31.3186 14.3094C32.5705 13.7791 33.8174 13.2243 35.0643 12.6842C35.3981 12.5418 35.2705 12.4092 35.0741 12.2619C34.9121 12.1392 34.7255 12.1441 34.5488 12.203C33.8075 12.4583 33.0761 12.7087 32.3937 13.131C31.9814 13.3863 31.677 13.8822 31.0977 13.8528C31.0339 13.5925 31.245 13.4649 31.3923 13.3667C31.9274 13.0181 32.4526 12.6498 33.0319 12.3699C33.4885 12.149 34.0334 12.0999 34.4457 11.7022C33.8615 11.2063 33.2725 10.7791 32.6097 10.5041C32.0992 10.293 31.5592 10.3225 31.0535 10.7005C30.3368 11.2406 29.6152 11.7758 28.9476 12.3798C27.7448 13.4649 27.7448 13.4403 29.0016 14.4616C29.3943 14.7808 29.6741 14.7464 30.057 14.4322C30.3663 14.1818 30.6166 13.7644 31.1174 13.8282ZM26.4292 33.1051C26.4292 33.1051 26.4292 33.1149 26.4292 33.1247C27.2048 33.1247 27.9805 33.1149 28.7561 33.1247C29.1243 33.1296 29.3305 33.0953 29.2126 32.6141C29.0801 32.0887 29.0654 31.5437 28.9426 31.0036C28.5745 29.344 28.3094 27.6598 28.0099 25.9855C27.8676 25.1754 27.7154 25.0575 26.9103 25.1705C26.7483 25.195 26.5863 25.1852 26.4194 25.1852C25.2952 25.1901 24.171 25.195 23.0517 25.2048C22.0748 25.2146 22.0061 25.2981 22.1976 26.2605C22.1976 26.2801 22.1976 26.2998 22.2074 26.3194C22.7572 28.3964 23.1646 30.5077 23.5574 32.619C23.6212 32.9627 23.7488 33.1198 24.1072 33.11C24.8828 33.0953 25.6585 33.11 26.4341 33.11L26.4292 33.1051ZM24.2986 24.4045C24.2986 24.4045 24.2986 24.3947 24.2986 24.3898C25.0546 24.3898 25.8106 24.3898 26.5617 24.3898C26.8612 24.3898 27.1508 24.3063 27.0526 23.9577C26.9054 23.4176 26.9937 22.8578 26.871 22.3275C26.3752 20.2358 27.1312 20.5697 24.9172 20.4961C23.8568 20.4617 22.7965 20.4421 21.7361 20.4372C21.4465 20.4372 20.985 20.4175 21.1225 20.8692C21.4268 21.8758 21.1961 22.9364 21.525 23.9429C21.6379 24.2817 21.7508 24.4143 22.0945 24.4094C22.8308 24.3947 23.5623 24.4094 24.2986 24.4094V24.4045ZM24.4656 19.6614C24.4656 19.6614 24.4656 19.7056 24.4656 19.7252C25.1381 19.7252 25.8106 19.7252 26.4832 19.7252C26.8072 19.7252 27.033 19.6368 27.2441 19.3422C28.059 18.2227 28.9181 17.1327 29.7723 16.0378C29.8901 15.8855 30.057 15.7481 29.9146 15.5713C29.7919 15.424 29.5661 15.4436 29.3943 15.5075C28.8346 15.7137 28.2701 15.9248 27.7252 16.1654C26.6599 16.6368 25.5897 17.0787 24.4852 17.442C23.5377 17.7563 22.6345 18.1147 22.0994 19.0574C22.011 19.2195 21.8588 19.3471 21.9423 19.5239C22.0208 19.6908 22.2319 19.6466 22.389 19.6516C23.0812 19.6565 23.7734 19.6516 24.4656 19.6516V19.6614ZM28.8396 14.9379C28.0836 13.9804 27.249 13.6515 26.1592 13.784C25.0546 13.9166 23.9354 13.7988 22.8259 14.0443C21.9423 14.2407 21.4023 14.6286 21.1667 15.6941C21.0047 16.4158 21.7459 16.6417 22.0748 17.0885C22.2368 17.3045 22.4381 17.1425 22.5363 16.9216C22.6786 16.6073 22.8063 16.2342 23.1254 16.1065C24.1857 15.6891 25.2117 15.1343 26.4145 15.1785C27.2048 15.208 27.9559 14.8839 28.8396 14.9379ZM27.1803 12.9002C27.7399 13.1506 28.0099 12.7431 28.2946 12.4878C29.0997 11.766 29.9146 11.059 30.8081 10.4452C31.4168 10.0278 32.0501 9.78726 32.7717 10.1752C32.9828 10.2881 33.2086 10.3814 33.4001 10.5139C33.675 10.7104 33.8959 10.6416 34.0825 10.4108C34.2837 10.1604 34.4801 9.9051 34.6568 9.63505C34.9465 9.19314 34.8875 9.07039 34.3819 9.06548C33.1792 9.05075 31.9765 9.05566 30.7737 9.03602C30.489 9.03602 30.2779 9.09985 30.0963 9.32571C29.139 10.509 28.1768 11.6825 27.1852 12.8953L27.1803 12.9002ZM28.0001 15.6842C27.8577 15.4584 27.7252 15.4878 27.6074 15.478C26.6501 15.3749 25.7468 15.699 24.8337 15.8757C24.279 15.9837 23.6457 16.0819 23.1941 16.5631C22.9732 16.7988 22.9241 17.0541 23.0125 17.28C23.1303 17.5795 23.4396 17.4126 23.6605 17.3782C23.8323 17.3487 23.9894 17.226 24.1612 17.1769C25.4719 16.7988 26.6796 16.1654 28.0001 15.6842Z" fill="black"/>
</svg>
