<svg width="24" height="30" viewBox="0 0 24 30" fill="none" xmlns="http://www.w3.org/2000/svg">
<path d="M22.5701 14.8245C23.3162 16.1579 24.1617 17.6668 23.9733 20.046C23.7523 22.9569 21.9182 24.8464 18.9412 25.2254C17.6893 25.3899 16.6607 25.2962 15.9257 24.9349C15.4317 24.6944 15.0038 24.3685 14.6204 24.0056C15.0283 25.5167 15.7447 26.7557 16.4448 27.9667C16.611 28.2551 16.7749 28.5383 16.9343 28.8244C17.0582 29.0479 17.0582 29.3186 16.9328 29.5413C16.8075 29.7647 16.5769 29.9071 16.3202 29.9189C15.1106 29.9749 13.8164 30 12.2441 30C11.0612 30 9.86344 29.9845 8.64639 29.9705L7.84392 29.9609C7.6066 29.9572 7.38558 29.8429 7.24764 29.6504C7.11043 29.4572 7.07409 29.2123 7.149 28.9889C7.27879 28.6046 7.48719 28.2779 7.67038 27.9903C7.73045 27.8959 7.79052 27.8023 7.84689 27.7071L7.95072 27.5198C8.1213 27.2174 8.29188 26.9136 8.44837 26.5824L8.60856 26.2329C8.92599 25.5485 9.2538 24.8405 9.43921 24.0963C9.44663 24.0653 9.45405 24.0351 9.46146 24.0041C8.76802 24.6959 7.87878 25.2837 6.65951 25.3456C4.9107 25.4194 3.57424 24.9002 3.08995 24.6848C1.22841 23.8345 0.196028 22.184 0.0158075 19.7783C-0.0568742 18.7848 0.123347 17.6366 0.509746 16.6232C1.03261 15.2323 1.97302 13.778 2.80293 12.4918C3.22493 11.8509 3.68401 11.2402 4.12677 10.6495C4.35594 10.3486 6.24567 7.86617 6.53714 7.50848C7.94553 5.77831 9.17741 3.74428 10.3685 1.77516C10.657 1.29874 10.944 0.823049 11.2347 0.351787C11.3682 0.134225 11.6078 0 11.8652 0C12.1232 0 12.3628 0.133487 12.4978 0.351787C13.1193 1.35774 13.7749 2.34156 14.4676 3.38291L15.2382 4.54373C16.1697 5.96637 17.2458 7.34623 18.2849 8.67963C19.7556 10.5676 21.2767 12.5176 22.5041 14.7102L22.5701 14.8245Z" fill="black"/>
</svg>
