<svg width="60" height="42" viewBox="0 0 60 42" fill="none" xmlns="http://www.w3.org/2000/svg">
<path d="M33.3673 13.0679C33.4982 14.9886 32.9793 16.6813 32.1402 18.2964C31.3642 19.7951 30.2632 21.0464 28.91 22.0213C27.6005 22.9622 26.1503 23.68 24.5061 23.8837C23.9726 23.9516 23.4391 24.0777 22.9056 24.1117C22.1587 24.1553 22.1392 24.1117 22.1392 23.3357C22.1392 21.3568 22.1392 19.378 22.1392 17.3991C22.1392 16.1672 22.1489 14.9352 22.1344 13.7033C22.1295 13.2328 22.2751 13 22.7892 13C26.1406 13.0146 29.492 13.0049 32.8435 13.0097C33.0035 13.0097 33.1587 13.0437 33.3673 13.0679ZM23.3809 17.4719C23.2596 18.7329 24.5498 19.7078 25.5489 19.6835C26.7226 19.6544 27.8285 18.6165 27.7702 17.4622C27.7169 16.3806 26.9069 15.2505 25.4713 15.2796C24.283 15.3039 23.376 16.2351 23.3809 17.4719Z" fill="black"/>
<path d="M22.0933 26.5509C23.238 26.4054 24.2516 26.3715 25.2168 26.1387C26.8222 25.7507 28.3452 25.1104 29.7129 24.1598C31.6384 22.8212 33.1565 21.1236 34.175 19.009C34.9559 17.389 35.4409 15.6818 35.4748 13.8727C35.4845 13.3198 35.6543 13.1355 36.1975 13.1306C38.0018 13.1015 38.026 13.087 37.9387 14.8718C37.8369 16.9816 37.1093 18.9023 36.1248 20.755C35.3051 22.2925 34.2623 23.6457 32.9819 24.8097C31.294 26.3424 29.4025 27.5161 27.1908 28.1854C25.7067 28.6316 24.2274 29.0002 22.6657 29.0002C22.2 29.0002 21.9818 28.8402 22.0012 28.3746C22.0303 27.7441 22.0642 27.1135 22.0933 26.5558V26.5509Z" fill="black"/>
</svg>
