<svg width="60" height="42" viewBox="0 0 60 42" fill="none" xmlns="http://www.w3.org/2000/svg">
<path d="M35.9953 20.9891C35.9953 22.5955 36 24.2018 35.9953 25.8082C35.9905 26.675 35.6489 26.9953 34.7805 27C31.5825 27 28.3844 27 25.1863 27C24.3844 27 24.0048 26.6608 24 25.9589C23.9953 25.3607 24.503 24.9131 25.2242 24.9084C27.8909 24.9037 30.5528 24.9084 33.2195 24.9084C34.0071 24.9084 34.0261 24.8849 34.0308 24.1265C34.0308 21.5026 34.0214 18.874 34.0451 16.2501C34.0451 15.911 34.1637 15.4917 34.3867 15.2656C34.586 15.063 35.0463 14.9453 35.3215 15.0253C35.6916 15.1337 36 15.454 36 15.9345C35.9953 17.6209 36 19.3027 36 20.9891L35.9953 20.9891Z" fill="black"/>
</svg>
