<svg width="60" height="42" viewBox="0 0 60 42" fill="none" xmlns="http://www.w3.org/2000/svg">
<path d="M16.0161 12.1914C15.9443 11.5499 16.1023 11.3871 16.6864 11.6887C17.7348 12.2297 18.7641 12.8185 19.779 13.4265C21.2296 14.2931 22.6562 15.1979 24.0924 16.0835C24.7914 16.5144 25.4807 16.95 26.1989 17.3378C26.3664 17.4288 26.6824 17.3905 26.8547 17.2852C27.1994 17.0745 27.4914 16.7825 27.8409 16.4952C27.7164 16.3756 27.592 16.2559 27.4627 16.141C26.5579 15.3511 26.0696 14.3266 25.8063 13.1776C25.5621 12.1052 25.701 11.0616 26.1031 10.0467C26.4478 9.18494 26.759 8.29928 27.185 7.48064C27.6303 6.62849 28.1377 5.79071 28.7314 5.03909C29.3824 4.21567 30.5649 4.55557 30.9527 5.54655C31.2974 6.437 31.7809 7.27478 32.14 8.16045C32.4368 8.87855 32.7384 9.62059 32.8629 10.377C33.0113 11.2962 33.0879 12.2584 32.9778 13.1728C32.9012 13.8191 32.5134 14.451 32.1591 15.0255C31.824 15.5665 31.3596 16.0261 30.9671 16.5C31.3357 16.8543 31.6804 17.2277 32.0777 17.5341C32.2166 17.6394 32.5421 17.6729 32.6809 17.582C34.0645 16.6772 35.4097 15.7293 36.7933 14.8244C37.7364 14.2069 38.7226 13.6515 39.6801 13.0531C40.5705 12.4978 41.4466 11.9137 42.337 11.3536C42.5046 11.2483 42.7057 11.1956 42.9259 11.1047C43.0647 11.5882 43.036 11.8228 42.6003 12.0813C41.3173 12.8425 40.0966 13.6994 38.8471 14.5133C37.0374 15.691 35.223 16.8591 33.4134 18.032C32.6283 18.5394 32.499 18.865 32.8629 19.674C32.9251 19.8129 33.2889 19.8799 33.5044 19.8655C34.0166 19.8272 34.5193 19.674 35.0315 19.6549C36.5539 19.5974 37.8321 20.2007 38.8423 21.2874C39.7567 22.2736 40.6232 23.3124 41.4179 24.3992C41.8679 25.0167 42.1264 25.7731 42.4807 26.4625C42.5812 26.654 42.7344 26.8311 42.7918 27.0322C42.878 27.3195 42.9402 27.6258 42.9115 27.9131C42.9019 27.9849 42.5094 28.0711 42.294 28.0663C40.92 28.0519 39.5316 28.1285 38.1768 27.9514C36.9034 27.7838 35.6252 27.4344 34.4235 26.9796C33.1214 26.4865 32.2788 25.371 31.599 24.2029C31.3453 23.7672 31.4075 23.1497 31.3261 22.6183C30.2442 22.7427 30.1053 22.8816 30.1053 23.7864C30.1053 27.5109 30.1053 31.2355 30.1005 34.9649C30.1005 35.2377 30.0479 35.5154 29.9617 35.7739C29.9282 35.8793 29.7319 36.0133 29.6266 35.9989C29.5261 35.9846 29.3968 35.8122 29.3681 35.6878C29.3202 35.5011 29.3442 35.2904 29.3442 35.0941C29.3442 31.3073 29.3346 27.5253 29.3537 23.7385C29.3537 23.2023 29.1766 23.0108 28.6643 22.9199C28.176 22.8337 27.7117 22.6135 27.1228 22.4124C27.0845 22.6757 27.0366 22.9821 26.9936 23.2933C27.0319 23.2933 27.0701 23.2981 27.1084 23.3029C27.0175 23.571 26.9409 23.8486 26.8356 24.1119C26.2707 25.5242 25.2797 26.5295 23.9536 27.262C22.5269 28.0519 21.0141 28.4924 19.396 28.6743C18.5439 28.77 17.7109 29.0094 16.8587 29.1195C16.605 29.153 16.2795 29.0142 16.064 28.8562C15.9779 28.794 16.0736 28.4445 16.1358 28.2386C16.3561 27.5205 16.5763 26.8024 16.8444 26.0987C17.055 25.5529 17.3135 25.0167 17.5912 24.4997C18.046 23.6571 18.496 22.805 19.0274 22.0103C19.2524 21.6752 19.7024 21.498 19.9992 21.2012C20.9759 20.2198 22.1583 19.6693 23.5323 19.6884C24.2121 19.698 24.8967 19.9421 25.5669 20.1193C25.8302 20.1911 25.9834 20.2198 26.0026 19.8799C26.0265 19.4443 26.0648 19.0086 26.0983 18.573C26.1462 17.9602 25.5765 17.9075 25.2366 17.7064C23.7621 16.8304 22.2445 16.0261 20.7748 15.1452C19.5109 14.3888 18.2949 13.5558 17.055 12.7659C16.7295 12.56 16.38 12.3925 16.0161 12.1914ZM17.4045 27.3578C17.4428 27.3961 17.4811 27.4296 17.5194 27.4679C18.5582 26.7881 19.5971 26.1083 20.6407 25.4332C21.9333 24.5955 23.2355 23.772 24.5233 22.9247C25.0499 22.5752 25.5478 22.1826 26.1223 21.7613C25.8398 21.4166 25.6914 21.0528 25.4329 20.9475C24.3461 20.4927 23.178 20.2868 22.0865 20.8086C20.7556 21.4454 19.7455 22.5369 19.0035 23.7768C18.338 24.8875 17.9263 26.1561 17.4045 27.353L17.4045 27.3578ZM29.3824 17.1415C27.7117 16.7825 26.7303 18.4533 26.6632 19.6453C26.5962 20.9188 28.0133 22.3789 29.2388 22.331C30.9766 22.2592 31.9628 21.0289 32.0346 19.5974C32.1065 18.1134 30.9575 17.1224 29.3824 17.1415ZM29.2723 16.0931L29.2723 5.70454C28.7122 6.58062 28.1425 7.29394 27.7691 8.09822C27.3526 8.99824 27.1085 9.97486 26.8021 10.9275C26.2611 12.5935 26.6728 14.092 27.7835 15.3606C28.1138 15.7388 28.583 16.2367 29.2723 16.0931ZM32.8006 20.981C32.7671 21.0863 32.7384 21.1916 32.7049 21.297C35.6012 23.0635 38.4928 24.83 41.3891 26.5966C41.3891 26.2136 41.3078 25.9742 41.1976 25.7396C40.5753 24.3896 39.6561 23.2358 38.622 22.1922C37.6502 21.2156 36.5012 20.4496 35.0555 20.4927C34.2991 20.5166 33.5474 20.8086 32.7958 20.9762L32.8006 20.981ZM40.5274 27.0992C39.0721 26.1657 37.6215 25.2178 36.1566 24.2986C35.1321 23.6571 34.0884 23.0491 33.04 22.4459C32.8006 22.3071 32.5086 22.264 32.2453 22.1778C32.274 22.4459 32.2979 22.714 32.3267 22.9821C32.3315 23.0396 32.3267 23.1066 32.3506 23.1592C32.791 24.3274 33.1932 25.5242 34.5384 26.0029C35.156 26.2231 35.764 26.4721 36.372 26.7258C37.6981 27.2907 39.0864 27.2716 40.5322 27.0945L40.5274 27.0992ZM30.383 6.23593C30.316 6.24551 30.2538 6.25508 30.1867 6.26944L30.1867 15.8537C31.216 15.3798 31.7522 14.6042 31.9916 13.6803C32.3506 12.2967 32.3075 10.8797 31.8096 9.52963C31.3979 8.40939 30.8665 7.33224 30.383 6.23593ZM26.0217 22.8672C23.4844 24.5189 21.0716 26.0843 18.6588 27.6546C18.6779 27.7168 18.6971 27.779 18.7162 27.8461C18.8933 27.8556 19.0848 27.9035 19.2524 27.8652C19.9849 27.6929 20.7078 27.4487 21.445 27.3099C22.6801 27.0801 23.6903 26.4769 24.619 25.663C25.4185 24.9593 25.8398 24.0832 26.0169 22.872L26.0217 22.8672Z" fill="black"/>
</svg>
