<svg width="60" height="42" viewBox="0 0 60 42" fill="none" xmlns="http://www.w3.org/2000/svg">
<path d="M30.0507 11C33.0963 11.9551 35.9972 13.0766 38.9297 14.103C38.9179 14.1664 38.906 14.2298 38.8941 14.2932C36.976 14.8817 35.056 15.4663 33.1399 16.0587C32.482 16.2628 31.8222 16.4689 31.1841 16.7245C31.0217 16.7899 30.9147 17.0395 30.8235 17.2258C30.776 17.3209 30.8156 17.4616 30.8156 17.5805C30.8156 19.2628 30.8196 19.2548 32.2859 20.0474C33.3994 20.6498 34.5051 21.272 35.6088 21.8942C36.1517 22.1993 36.7323 22.4609 37.2039 22.8552C37.5209 23.1207 37.7627 23.5527 37.8855 23.9569C38.2382 25.126 38.5017 26.3228 38.8208 27.5037C39.0367 28.3023 39.2943 29.0889 39.5202 29.8835C39.5975 30.1589 39.5163 30.361 39.1814 30.367C39.0625 30.367 38.9416 30.3709 38.8227 30.3709C33.128 30.3709 27.4352 30.3709 21.7404 30.3709C20.9161 30.3709 20.8884 30.2758 21.1381 29.4594C21.4095 28.5698 21.5878 27.6543 21.8177 26.7508C22.0911 25.6768 22.3646 24.6048 22.6618 23.5368C22.7054 23.3842 22.85 23.2218 22.9907 23.1385C25.1486 21.8565 27.3044 20.5686 29.486 19.3282C29.8982 19.0943 30.023 18.8486 30.021 18.4107C30.0052 16.1736 30.0131 13.9366 30.0151 11.6995C30.0151 11.5231 30.0329 11.3468 30.0527 11H30.0507ZM38.4899 29.6457C38.4641 29.3089 38.4819 29.0255 38.4146 28.7659C38.0817 27.4879 37.7428 26.2098 37.3743 24.9397C37.1841 24.2799 37.1405 23.5527 36.3954 23.1524C34.6676 22.2211 32.9477 21.274 31.2674 20.2634C30.5976 19.8612 30.0844 19.8374 29.4107 20.2535C27.7681 21.27 26.0581 22.1795 24.4154 23.194C23.9458 23.4833 23.3097 23.6379 23.1651 24.3552C22.9511 25.4153 22.638 26.4575 22.4082 27.5156C22.2576 28.2091 21.8613 28.8828 22.1248 29.6477H38.4879L38.4899 29.6457ZM30.877 15.9735C32.6762 15.4207 34.4021 14.8916 36.124 14.3527C36.2112 14.3249 36.2666 14.2041 36.338 14.1288C36.227 14.0416 36.1299 13.9187 36.0031 13.8692C34.8301 13.4174 33.659 12.9617 32.4721 12.5436C31.9569 12.3633 31.412 12.2681 30.875 12.1334V15.9735H30.877Z" fill="black"/>
</svg>
