<svg width="464" height="352" viewBox="0 0 464 352" fill="none" xmlns="http://www.w3.org/2000/svg">
<path d="M47.9911 87.332C47.4507 63.0171 67.6733 42.9062 91.6514 42.8926C116.318 42.8655 135.501 62.9493 135.933 86.1658C136.419 112.135 115.711 131.188 92.9212 131.595C67.8895 132.043 47.5723 111.674 47.9911 87.332ZM55.0832 87.115C54.5158 107.674 71.9421 124.232 91.3407 124.408C112.617 124.611 128.868 107.429 128.895 87.2642C128.922 66.9498 112.604 50.1071 91.6784 50.0528C71.9286 49.9986 54.5968 66.882 55.0832 87.1286V87.115Z" fill="black"/>
<path d="M259.951 55.939C264.355 55.8848 268.353 57.2816 272.352 58.719C273.379 59.0852 273.595 59.8175 273.108 60.8617C270.555 66.381 268.097 71.941 265.503 77.4468C263.963 80.7014 262.396 83.9696 260.572 87.0751C258.37 90.8179 258.492 94.7642 258.965 98.8189C259.14 100.324 259.33 101.843 259.451 103.348C259.762 107.213 260.032 111.078 260.329 114.943C260.329 115.051 260.329 115.174 260.356 115.282C260.883 118.32 260.883 118.455 257.884 118.198C249.968 117.506 243.227 114.387 237.675 108.515C234.149 104.799 231.718 100.514 230.367 95.6999C228.975 90.6959 228.962 85.5427 230.07 80.376C231.758 72.4835 236.013 66.3539 242.484 61.7431C245.699 59.4513 249.211 57.6613 253.197 57.051C255.453 56.6984 257.695 56.3052 259.937 55.939H259.951ZM241.714 96.1338C241.647 99.8902 244.483 102.345 247.78 102.413C251.076 102.48 253.791 100.039 254.007 96.1203C254.142 93.7064 251.792 89.9907 247.928 90.1263C244.348 90.2484 241.728 92.6758 241.714 96.1338ZM257.209 74.8295C257.668 71.5477 254.318 68.5508 251.049 68.7271C247.361 68.9169 245.213 71.5749 245.064 74.8295C244.929 77.7044 247.55 81.1489 251.332 81.054C254.426 80.9726 257.641 78.057 257.209 74.8295Z" fill="black"/>
<path d="M92.0749 219.152C82.5242 219.152 72.96 219.152 63.4093 219.152C61.1804 219.152 61.2074 219.058 61.3695 216.834C61.6667 212.643 62.7474 208.697 64.6386 204.981C68.34 197.685 74.1488 192.614 81.7542 189.847C87.4279 187.772 93.3718 187.325 99.2886 188.966C109.069 191.664 116.215 197.496 120.349 206.907C121.808 210.229 122.443 213.674 122.767 217.254C122.915 218.854 122.335 219.18 120.903 219.18C111.298 219.139 101.68 219.152 92.0749 219.152ZM110.312 210.067C110.501 206.432 107.097 203.937 103.949 204.1C100.721 204.262 98.1674 207.449 98.1539 210.134C98.1403 213.497 101.409 216.752 104.516 216.603C107.826 216.44 110.447 213.498 110.325 210.08L110.312 210.067ZM83.1186 212.833C87.1172 212.928 89.1705 210.175 89.2381 206.853C89.3191 203.042 86.5768 200.696 83.2267 200.615C79.9035 200.533 77.0802 203.191 77.0397 206.934C76.9991 210.243 79.6874 212.819 83.1186 212.847V212.833Z" fill="black"/>
<path d="M368.484 109.529C368.606 101.094 368.687 92.646 368.889 84.211C368.917 83.1533 369.389 82.0413 369.876 81.0649C373.631 73.5249 377.441 66.0257 381.25 58.5129C381.669 57.6857 382.061 56.7771 382.682 56.1262C383.006 55.7872 383.938 55.6922 384.398 55.9092C392.368 59.5842 397.879 65.646 400.878 73.8504C402.486 78.2306 403.013 82.8956 402.472 87.5877C401.419 96.6193 397.19 103.902 390.031 109.353C386.694 111.889 382.912 113.855 378.629 114.398C375.765 114.764 372.875 114.981 369.984 115.211C368.606 115.32 368.079 114.642 368.201 113.259C368.309 112.025 368.228 110.777 368.228 109.543C368.322 109.543 368.403 109.543 368.498 109.543L368.484 109.529ZM380.642 102.762C383.884 102.966 386.802 100.24 386.775 96.66C386.762 93.2698 384.695 90.6118 380.764 90.4898C376.873 90.3677 374.509 93.3376 374.374 96.5244C374.252 99.2773 376.819 102.952 380.642 102.762ZM390.274 75.2472C390.098 71.8569 387.383 69.0091 384.127 69.0227C380.845 69.0363 377.886 71.762 377.94 75.3692C377.994 78.6374 380.75 81.5124 383.965 81.4853C387.667 81.4581 390.206 78.3662 390.274 75.2608V75.2472Z" fill="black"/>
<path d="M279.172 47.2598C278.389 49.1719 277.767 50.9078 276.93 52.5351C276.7 52.969 275.673 53.308 275.147 53.1724C272.188 52.3995 269.311 51.3417 266.339 50.6501C264.461 50.2161 262.475 50.189 260.53 50.1348C251.857 49.85 244.184 52.63 237.376 57.9188C231.162 62.7465 227.028 68.9981 224.745 76.5652C223.138 81.8811 222.773 87.319 223.557 92.7163C224.529 99.4426 227.177 105.531 231.621 110.861C234.391 114.183 237.525 116.977 241.172 119.174C246.765 122.551 252.844 124.408 259.422 124.3C261.003 124.273 261.746 124.734 261.665 126.361C261.638 126.863 261.746 127.365 261.773 127.88C261.935 130.484 260.697 131.704 258.058 131.541C245.67 130.755 235.242 125.846 227.001 116.489C223.232 112.203 220.571 107.267 218.531 101.843C215.897 94.8454 215.775 87.6852 216.559 80.5521C217.288 73.8801 219.99 67.7505 223.8 62.1091C229.001 54.4065 235.998 49.0363 244.495 45.6596C250.534 43.2593 256.923 42.6491 263.421 43.0559C268.892 43.395 274.025 44.8595 279.199 47.2463L279.172 47.2598Z" fill="black"/>
<path d="M132.574 219.152C130.169 219.152 128.895 217.918 128.751 215.449C128.562 212.181 127.616 209.13 126.522 206.038C124.225 199.488 120.227 194.254 114.931 189.968C109.96 185.954 104.259 183.418 97.9101 182.55C95.6001 182.239 93.2496 181.913 90.9261 181.954C85.0903 182.049 79.6463 183.717 74.4994 186.497C68.7312 189.616 64.1517 193.969 60.7205 199.542C58.6401 202.905 56.992 206.472 56.2491 210.405C55.7763 212.927 55.4115 215.477 54.8712 217.999C54.7766 218.46 54.1282 218.962 53.6419 219.124C53.034 219.314 52.3045 219.179 51.6291 219.179C49.0174 219.179 47.8511 217.868 48.1303 215.246C49.0084 206.703 51.9938 199 57.1406 192.097C61.3689 186.429 66.7589 182.13 72.9999 179.092C80.7945 175.295 89.2105 174.17 97.8155 175.214C101.895 175.716 105.799 176.95 109.622 178.604C117.687 182.076 123.969 187.527 128.845 194.769C131.439 198.62 133.317 202.811 134.586 207.204C135.464 210.242 135.654 213.483 136.059 216.643C136.356 218.907 136.072 219.165 133.749 219.165C133.357 219.165 132.965 219.165 132.574 219.165V219.152Z" fill="black"/>
<path d="M273.744 191.622C272.907 193.398 272.123 195.025 271.367 196.666C269.421 200.87 267.503 205.101 265.531 209.292C264.085 212.356 262.654 215.435 261.06 218.418C260.749 218.988 259.749 219.503 259.06 219.517C249.672 219.584 240.283 219.557 230.894 219.571C229.692 219.571 229.381 218.988 229.395 217.876C229.462 213.658 230.611 209.753 232.34 205.956C234.974 200.179 239.121 195.839 244.471 192.625C247.726 190.672 251.212 189.249 255.035 188.842C257.304 188.598 259.587 188.231 261.857 188.34C265.896 188.516 269.732 189.642 273.758 191.622H273.744ZM257.21 206.959C257.574 202.904 253.832 200.925 251.212 200.775C248.186 200.599 244.876 203.949 245.038 207.013C245.187 209.698 247.078 213.157 251.225 213.143C254.481 213.143 257.777 209.983 257.21 206.959Z" fill="black"/>
<path d="M389.029 43.6229C392.919 44.8841 396.08 47.1081 399.147 49.4677C405.145 54.092 409.44 60.0724 412.426 66.9479C413.709 69.877 414.466 73.1317 414.925 76.305C415.479 80.0614 415.654 83.8856 415.627 87.6826C415.6 92.0222 414.331 96.1583 412.845 100.227C411.386 104.214 409.265 107.794 406.806 111.197C402.619 116.961 397.201 121.287 390.812 124.243C387.637 125.721 384.166 126.725 380.721 127.43C377.236 128.135 373.629 128.216 370.076 128.556C368.549 128.705 367.752 128.135 367.969 126.44C368.104 125.382 368.077 124.297 368.009 123.226C367.914 121.816 368.333 121.124 369.914 121.3C371.13 121.436 372.386 121.327 373.615 121.3C379.586 121.165 385.138 119.483 390.272 116.486C394.594 113.964 398.323 110.682 401.295 106.614C404.077 102.79 406.117 98.6399 407.374 94.0156C409.022 87.9539 409.13 81.8921 407.806 75.8439C405.861 67.0021 400.97 59.9504 393.959 54.3904C391.947 52.7902 389.637 51.4748 387.313 50.3899C386.07 49.8068 386.124 49.1694 386.516 48.3286C387.246 46.7826 388.11 45.3045 389.029 43.6094V43.6229Z" fill="black"/>
<path d="M260.072 174.998C265.435 174.985 270.582 176.002 275.567 177.954C276.175 178.199 276.85 178.321 277.431 178.619C279.43 179.677 279.43 179.704 278.485 181.711C278.201 182.321 277.89 182.918 277.593 183.528C276.377 186.023 276.31 186.159 273.892 185.033C269.028 182.755 263.882 181.996 258.613 182.213C253.818 182.416 249.225 183.514 244.78 185.576C239.174 188.166 234.568 191.895 230.826 196.723C228.029 200.344 225.814 204.331 224.801 208.833C224.139 211.816 223.72 214.854 223.328 217.878C223.18 219.017 222.666 219.505 221.64 219.546C220.289 219.587 218.938 219.56 217.587 219.546C216.601 219.546 216.223 219.031 216.223 218.041C216.25 213.579 217.033 209.321 218.465 205.049C220.046 200.33 222.315 196.072 225.247 192.194C229.191 186.973 234.108 182.782 239.985 179.853C246.293 176.707 252.98 174.985 260.059 174.998H260.072Z" fill="black"/>
<path d="M92.0315 263.111C101.474 263.111 110.93 263.111 120.373 263.111C122.71 263.111 122.994 263.328 122.737 265.607C121.481 277.215 116.104 286.029 105.567 291.535C99.5829 294.654 93.2067 295.373 86.8576 294.302C76.618 292.566 68.891 286.884 64.2439 277.378C62.3932 273.594 61.1234 269.648 61.1774 265.349C61.2045 263.315 61.3125 263.111 63.3524 263.111C72.9166 263.111 82.4673 263.111 92.0315 263.111ZM100.61 282.232C103.838 282.707 106.959 278.991 106.891 276.374C106.783 272.78 104.297 269.973 100.934 269.783C97.9888 269.607 94.4901 272.916 94.4225 275.981C94.355 279.195 97.2999 282.178 100.61 282.232ZM73.5785 272.658C73.4974 276.686 76.5099 278.801 79.6304 278.829C82.9536 278.856 85.8174 276.008 85.8039 272.509C85.8039 269.268 82.9806 266.569 79.6439 266.583C76.0371 266.583 73.538 269.078 73.565 272.658H73.5785Z" fill="black"/>
<path d="M54.7739 263.396C55.1387 266.285 55.3953 268.726 55.7871 271.153C56.503 275.777 58.3673 279.941 60.8664 283.86C65.0541 290.477 70.8088 295.278 77.9955 298.167C84.8174 300.892 91.896 301.598 99.2313 300.092C108.053 298.289 115.118 293.841 120.751 286.911C125.925 280.551 128.343 273.133 128.91 265.064C129.018 263.6 129.423 263.071 130.869 263.084C136.867 263.125 136.124 262.867 135.746 268.129C135.475 271.885 134.57 275.56 133.233 279.168C131.166 284.7 128.194 289.664 124.25 293.949C121.143 297.326 117.563 300.174 113.443 302.398C110.43 304.025 107.337 305.259 104.121 306.344C100.785 307.469 97.3671 307.808 93.8953 307.808C90.9099 307.808 87.8839 307.998 84.966 307.537C81.8725 307.049 78.806 306.086 75.8476 304.988C69.5525 302.628 64.1625 298.845 59.583 293.895C56.1788 290.206 53.4636 286.057 51.4778 281.459C49.2623 276.374 48.0601 271.045 48.006 265.471C47.979 263.369 48.1816 263.098 50.289 263.138C51.8695 263.166 53.4501 263.328 54.7874 263.41L54.7739 263.396Z" fill="black"/>
<path d="M259.936 294.505C254.587 294.871 249.872 293.42 245.374 291.074C241.2 288.905 237.714 285.826 234.999 282.043C232.378 278.381 230.379 274.327 229.812 269.729C229.623 268.238 229.271 266.746 229.177 265.254C229.055 263.166 229.177 263.112 231.338 263.112C236.85 263.112 242.361 263.112 247.873 263.112C251.304 263.112 254.735 263.139 258.167 263.098C259.477 263.084 260.125 263.491 260.125 264.929C260.085 274.299 260.112 283.67 260.098 293.041C260.098 293.488 260.004 293.922 259.936 294.505ZM247.67 266.583C244.158 266.244 241.443 269.851 241.51 272.645C241.591 275.927 244.482 279.019 247.697 278.856C250.71 278.707 253.857 276.442 253.776 272.428C253.709 269.106 251.115 266.57 247.67 266.583Z" fill="black"/>
<path d="M222.748 263.368C223.153 266.569 223.248 269.403 223.896 272.102C224.977 276.59 226.76 280.849 229.408 284.673C233.136 290.056 237.864 294.301 243.754 297.149C248.266 299.332 253.021 300.688 258.06 300.783C259.6 300.81 260.113 301.285 260.126 302.804C260.208 307.848 260.248 307.916 255.277 307.672C249.401 307.387 244.051 305.353 238.891 302.6C234.608 300.309 230.839 297.393 227.597 293.813C223.329 289.094 220.059 283.805 218.195 277.621C216.952 273.471 215.926 269.335 215.926 264.969C215.926 263.667 216.372 263.056 217.668 263.111C219.425 263.192 221.181 263.287 222.734 263.368H222.748Z" fill="black"/>
<path d="M377.47 199.577C378.929 203.903 381.482 205.503 385.211 204.934C387.683 204.554 390.088 202.099 389.979 199.13C389.831 194.627 386.791 192.797 382.307 192.539C384.576 189.311 386.602 186.314 388.791 183.44C389.007 183.155 390.344 183.29 390.804 183.67C395.018 187.087 398.314 191.278 400.111 196.404C401.232 199.591 401.692 203.008 402.408 206.33C402.651 207.47 402.178 208.012 400.962 207.917C394.991 207.47 389.02 207.009 383.049 206.629C380.469 206.466 377.889 206.48 375.295 206.385C373.31 206.317 373.053 205.897 374.107 204.269C375.093 202.75 376.214 201.313 377.47 199.577Z" fill="black"/>
<path d="M415.902 208.867C413.39 208.69 411.323 208.636 409.297 208.351C408.972 208.311 408.662 207.307 408.554 206.724C407.851 203.117 407.527 199.387 406.473 195.902C404.379 189 400.192 183.385 394.613 178.883C393.37 177.88 392.883 177.188 394.018 175.845C394.761 174.964 395.329 173.933 395.936 172.957C396.625 171.831 397.517 171.967 398.327 172.645C402.218 175.859 405.717 179.426 408.486 183.697C411.472 188.322 413.565 193.326 414.66 198.696C415.308 201.91 415.47 205.205 415.902 208.88V208.867Z" fill="black"/>
<path d="M61.1754 87.2505C60.7296 70.0416 75.2381 56.3856 91.0568 56.1958C109.496 55.9788 122.586 70.3264 122.762 86.8301C122.938 104.432 109.186 117.993 92.3402 118.265C75.0489 118.549 60.7026 103.998 61.1754 87.2505ZM98.1219 78.0697C98.0274 81.5955 100.635 84.5518 103.985 84.484C107.929 84.4027 110.239 81.7583 110.374 78.3409C110.509 74.9507 107.605 72.0486 104.201 72.0079C101.351 71.9672 98.0544 74.2997 98.1219 78.0697ZM100.635 105.761C103.579 106.236 106.93 102.805 106.93 99.7809C106.93 96.4855 104.214 93.4343 100.851 93.4479C97.0277 93.4614 94.6367 96.5805 94.4475 99.5774C94.2584 102.683 97.4465 105.748 100.635 105.775V105.761ZM73.5765 96.0787C73.5495 99.591 76.4268 102.751 79.6554 102.466C83.0596 102.168 85.7074 99.7537 85.8019 96.0923C85.8965 92.8512 83.0867 90.1661 79.723 90.1525C76.0621 90.1525 73.59 92.5122 73.563 96.0923L73.5765 96.0787ZM89.0035 74.8557C89.3412 71.479 86.3288 68.6448 83.0461 68.7262C79.1151 68.8211 77.0077 71.5468 76.8591 74.7879C76.7105 77.9205 79.4798 81.0667 83.0867 81.0395C86.1531 81.026 89.3277 78.2189 89.0035 74.8557Z" fill="black"/>
<path d="M441.15 218.016H293.121V329.453H441.15V218.016Z" fill="white"/>
<path fill-rule="evenodd" clip-rule="evenodd" d="M437.638 221.325H296.391V326.112H437.638V221.325ZM441.029 218V329.438H293V218H441.029Z" fill="#0070F3"/>
<path d="M357.954 285.857C357.988 274.129 360.97 270.494 366.476 266.96C370.81 264.195 374.104 261.497 374.104 257.272C374.104 253.047 370.843 250.416 366.755 250.416C362.667 250.416 358.959 253.326 358.848 258.131H342.898C343.111 243.593 353.855 237.127 366.889 237.127C381.174 237.127 391.539 243.905 391.539 256.47C391.539 264.742 387.138 269.758 380.482 273.66C375.244 276.771 372.719 279.714 372.719 285.835V287.25H357.954V285.835V285.857ZM356.603 300.974C356.536 296.058 360.623 292.078 365.616 292.078C370.608 292.078 374.562 296.058 374.629 300.974C374.562 305.958 370.363 309.971 365.616 309.971C360.623 309.971 356.536 305.958 356.603 300.974Z" fill="#0070F3"/>
</svg>
