<svg width="60" height="42" viewBox="0 0 60 42" fill="none" xmlns="http://www.w3.org/2000/svg">
<path fill-rule="evenodd" clip-rule="evenodd" d="M44.9998 20.5429C45.0458 11.4988 37.6953 4.75618 29.4901 5.00676C20.6471 4.88477 13.9803 12.0264 14 20.4407C14.0198 29.0429 20.5057 35.9735 29.5459 35.9999C38.1325 36.0263 44.957 29.3199 44.9998 20.5429ZM29.6577 5.73873C37.0148 5.77829 44.3719 11.9176 44.0958 20.5627C44.2338 28.9671 37.3764 35.2647 29.5558 35.2416C21.4327 35.2185 14.8909 28.822 14.8909 20.4341C14.8909 12.1088 21.7154 5.69586 29.6577 5.73873ZM35.9171 18.4876C35.9374 18.4311 35.9612 18.365 35.993 18.2972H36C35.9091 18.2864 35.8189 18.2793 35.7301 18.2723C35.5364 18.2571 35.3497 18.2424 35.1779 18.191C34.4369 17.9693 33.696 17.732 32.9868 17.4354C32.9688 17.4288 33.0126 17.323 33.0721 17.179C33.1528 16.9841 33.2623 16.7194 33.2867 16.5362C33.2997 16.4382 33.2206 16.3332 33.1389 16.2247C33.0878 16.1568 33.0356 16.0876 33.0044 16.0179C32.8641 15.7001 32.5286 15.6335 32.1939 15.5671C31.8214 15.4931 31.4499 15.4193 31.3496 15C31.2639 15.0454 31.178 15.0908 31.0922 15.1361C30.641 15.3745 30.1894 15.6131 29.7477 15.8649C29.7061 15.8894 29.6849 15.9465 29.6645 16.0014C29.6434 16.0582 29.6231 16.1129 29.5819 16.1272C29.5759 16.1292 29.57 16.1312 29.5639 16.1333C29.3658 16.2011 29.1215 16.2847 28.9503 16.2271C28.6857 16.1397 28.4422 15.9617 28.2552 15.7712C28.1567 15.6712 28.104 15.535 28.0514 15.3991C28.0268 15.3356 28.0022 15.272 27.9729 15.2123C27.9607 15.2675 27.9523 15.3241 27.9439 15.3809C27.9257 15.5042 27.9074 15.6278 27.8495 15.7369C27.359 16.6673 26.4416 17.1856 25.4255 17.5572C25.1242 17.6669 24.7877 17.701 24.4519 17.7351C24.3 17.7505 24.1483 17.7659 24 17.7882C24.1469 17.9057 24.2944 18.0225 24.4418 18.1393C24.659 18.3114 24.8759 18.4833 25.0903 18.6563C25.1578 18.7119 25.227 18.7664 25.2964 18.8209C25.488 18.9717 25.6802 19.1229 25.8383 19.2995C25.9547 19.4306 26.0218 19.646 26.0041 19.8146C25.971 20.1205 25.9209 20.4243 25.8708 20.7279C25.814 21.0722 25.7572 21.4163 25.7254 21.763C25.6442 22.6466 25.7077 22.7028 26.5051 22.3032C27.0732 22.019 27.5813 21.866 28.1282 22.2188C28.6706 22.5697 28.5343 23.0366 28.4013 23.4926C28.3864 23.5439 28.3714 23.595 28.3575 23.6458C28.1564 24.3889 28.0964 25.1195 28.5975 26C29.2008 24.9041 29.9559 24.6043 31.1203 24.9915C31.9812 25.2787 32.5845 24.876 32.5316 24.0392C32.4858 23.3085 32.761 23.1056 33.4913 23.1212C33.6575 23.1251 33.825 23.1038 34.0737 23.0721C34.2263 23.0527 34.4094 23.0294 34.6416 23.0057C34.3518 22.7614 34.0959 22.5434 33.8598 22.3422C33.4922 22.0289 33.1722 21.7563 32.8456 21.4882C32.4575 21.1697 32.4469 20.7732 32.8492 20.5671C33.2635 20.3554 33.5957 20.0442 33.9277 19.7332C34.4523 19.2417 34.9765 18.7507 35.8236 18.6531C35.8589 18.6492 35.8832 18.5818 35.9171 18.4876Z" fill="black"/>
</svg>
