<svg width="464" height="352" viewBox="0 0 464 352" fill="none" xmlns="http://www.w3.org/2000/svg">
<rect x="77" y="13" width="86" height="86" rx="3" stroke="black" stroke-width="2"/>
<path fill-rule="evenodd" clip-rule="evenodd" d="M231.448 14H192C190.895 14 190 14.8954 190 16V96C190 97.1046 190.895 98 192 98H272C273.105 98 274 97.1046 274 96V16C274 15.9858 274 15.9716 274 15.9575V55.9995L231.448 14ZM188 16C188 13.7909 189.791 12 192 12H272C274.209 12 276 13.7909 276 16V96C276 98.2091 274.209 100 272 100H192C189.791 100 188 98.2091 188 96V16Z" fill="black"/>
<path fill-rule="evenodd" clip-rule="evenodd" d="M344 14H343.998L343.998 56L302.341 14.8833C302.126 15.2022 302 15.5865 302 16V96C302 97.1046 302.895 98 304 98H384C385.105 98 386 97.1046 386 96V56H344V14ZM304 12C301.791 12 300 13.7909 300 16V96C300 98.2091 301.791 100 304 100H384C386.209 100 388 98.2091 388 96V16C388 13.7909 386.209 12 384 12H304Z" fill="black"/>
<path fill-rule="evenodd" clip-rule="evenodd" d="M80 122H160C161.105 122 162 122.895 162 124V204C162 205.105 161.105 206 160 206H124.977V164C124.977 163.202 124.502 162.48 123.769 162.164C123.036 161.847 122.185 161.997 121.604 162.545L78 203.672V124C78 122.895 78.8954 122 80 122ZM122.977 206V204V166.749V164L120.977 165.886L81.0719 203.524L78.9766 205.5L81.8567 205.533L120.977 205.977L122.977 206ZM76 124C76 121.791 77.7909 120 80 120H160C162.209 120 164 121.791 164 124V204C164 206.209 162.209 208 160 208H80C77.7909 208 76 206.209 76 204V124Z" fill="black"/>
<path fill-rule="evenodd" clip-rule="evenodd" d="M192 122H231.448L274 164V123.958C274 123.972 274 123.986 274 124V204C274 205.105 273.105 206 272 206H237V164C237 163.202 236.525 162.48 235.792 162.164C235.059 161.847 234.208 161.997 233.628 162.545L190 203.694V124C190 122.895 190.895 122 192 122ZM235 206V204V166.749V164L233 165.886L193.095 203.524L191 205.5L193.88 205.533L233 205.977L235 206ZM192 120C189.791 120 188 121.791 188 124V204C188 206.209 189.791 208 192 208H272C274.209 208 276 206.209 276 204V124C276 121.791 274.209 120 272 120H192Z" fill="black"/>
<path fill-rule="evenodd" clip-rule="evenodd" d="M343.998 122H344V164H344.085L302 203.694V124C302 123.586 302.126 123.202 302.341 122.883L343.998 164L343.998 122ZM349 206H384C385.105 206 386 205.105 386 204V164H349V206ZM347 206L345 205.977L305.88 205.533L303 205.5L305.095 203.524L345 165.886L347 164V166.749V204V206ZM300 124C300 121.791 301.791 120 304 120H384C386.209 120 388 121.791 388 124V204C388 206.209 386.209 208 384 208H304C301.791 208 300 206.209 300 204V124Z" fill="black"/>
<path fill-rule="evenodd" clip-rule="evenodd" d="M121 230H160C161.105 230 162 230.895 162 232V312C162 313.105 161.105 314 160 314H121L121 230ZM80 230H117.817L78 269.991V232C78 230.895 78.8954 230 80 230ZM76 232V272V312C76 314.209 77.7909 316 80 316H160C162.209 316 164 314.209 164 312V232C164 229.791 162.209 228 160 228H80C77.7909 228 76 229.791 76 232ZM119 231.646L78 272.826V312C78 312.293 78.0632 312.572 78.1768 312.823L119 272V231.646ZM119 274.828L79.8351 313.993C79.8895 313.998 79.9445 314 80 314H119V274.828Z" fill="black"/>
<path fill-rule="evenodd" clip-rule="evenodd" d="M274 271.217L233 230.749L233 314H272C273.105 314 274 313.105 274 312V271.217ZM229.817 230H192C190.895 230 190 230.895 190 232V269.991L229.817 230ZM188 272V232C188 229.791 189.791 228 192 228H272C274.209 228 276 229.791 276 232V312C276 314.209 274.209 316 272 316H192C189.791 316 188 314.209 188 312V272ZM190 272.826L231 231.646V272L190.177 312.823C190.063 312.572 190 312.293 190 312V272.826ZM191.835 313.993L231 274.828V314H192C191.944 314 191.889 313.998 191.835 313.993Z" fill="black"/>
<path d="M441.15 218.016H293.121V329.453H441.15V218.016Z" fill="white"/>
<path fill-rule="evenodd" clip-rule="evenodd" d="M437.638 221.325H296.391V326.112H437.638V221.325ZM441.029 218V329.438H293V218H441.029Z" fill="#0070F3"/>
<path d="M357.954 285.857C357.988 274.129 360.97 270.494 366.476 266.96C370.81 264.195 374.104 261.497 374.104 257.272C374.104 253.047 370.843 250.416 366.755 250.416C362.667 250.416 358.959 253.326 358.848 258.131H342.898C343.111 243.593 353.855 237.127 366.889 237.127C381.174 237.127 391.539 243.905 391.539 256.47C391.539 264.742 387.138 269.758 380.482 273.66C375.244 276.771 372.719 279.714 372.719 285.835V287.25H357.954V285.835V285.857ZM356.603 300.974C356.536 296.058 360.623 292.078 365.616 292.078C370.608 292.078 374.562 296.058 374.629 300.974C374.562 305.958 370.363 309.971 365.616 309.971C360.623 309.971 356.536 305.958 356.603 300.974Z" fill="#0070F3"/>
</svg>
