<svg width="60" height="42" viewBox="0 0 60 42" fill="none" xmlns="http://www.w3.org/2000/svg">
<path d="M20.938 18.1988C20.7894 17.5942 20.6983 17.0943 20.5496 16.6182C20.0365 14.9566 19.4851 13.3046 18.9816 11.6382C18.6411 10.5146 18.363 9.37201 18.0513 8.23414C17.941 7.82946 18.0321 7.61045 18.4781 7.43905C20.9428 6.51066 23.3884 5.52514 25.8532 4.58247C27.2247 4.054 28.6153 3.58267 29.9867 3.0542C30.4039 2.89233 30.5622 3.11609 30.6341 3.4208C30.8739 4.43488 31.0753 5.45373 31.3055 6.46781C31.4973 7.31527 31.7083 8.1532 31.9097 8.99589C32.1638 10.0623 32.4132 11.1336 32.6769 12.2C32.7345 12.4286 32.8495 12.6428 32.9934 12.9951C33.8374 11.7715 34.5902 10.686 35.3335 9.59578C36.4796 7.91991 37.6113 6.23453 38.7573 4.55867C39.2608 3.82072 39.4431 3.81119 40.5076 4.3349C42.6559 5.38708 44.8042 6.43925 46.9573 7.47714C47.8204 7.89611 48.698 8.28651 49.5755 8.68167C50.079 8.91019 50.1174 9.08635 49.7817 9.57673C47.8923 12.3429 46.003 15.109 44.1424 17.8941C43.941 18.1988 43.8355 18.6273 43.8308 18.9939C43.8116 23.236 43.7876 27.478 43.8403 31.72C43.8499 32.6722 43.5478 33.2245 42.7039 33.653C40.1 34.986 37.5297 36.3762 34.9451 37.7426C34.2881 38.0902 33.6168 38.4282 32.9838 38.8186C32.4995 39.1185 32.0967 39.009 31.6459 38.7615C29.5504 37.6093 27.45 36.4715 25.3401 35.3431C24.0454 34.6528 22.7363 33.9958 21.4368 33.3197C21.0388 33.115 20.8517 32.8198 20.8613 32.3294C20.8901 29.8727 20.8709 27.4113 20.8805 24.9547C20.8805 23.593 20.8805 23.6168 19.6481 23.0646C16.5791 21.6839 13.5197 20.2746 10.4604 18.8749C10.3021 18.8035 10.1534 18.6987 10 18.6083C10.0432 18.0465 10.3213 17.8751 10.8632 17.8941C13.8938 18.0132 16.9292 18.0989 19.9598 18.1988C20.2331 18.2084 20.5113 18.1988 20.9476 18.1988H20.938ZM43.0443 19.1653C42.1908 19.5748 41.4619 19.9461 40.7186 20.2889C38.2634 21.4125 35.7986 22.5218 33.3387 23.6359C32.8927 23.8358 32.6721 24.1072 32.6769 24.6642C32.7057 28.8682 32.6913 33.0721 32.6961 37.2713C32.6961 37.5141 32.7345 37.7569 32.7632 38.0521C34.1347 37.3475 35.4246 36.7 36.7001 36.0239C38.6326 34.9955 40.546 33.9339 42.4833 32.9198C42.9244 32.6865 43.1115 32.4199 43.1067 31.92C43.0875 27.9541 43.0971 23.9882 43.0971 20.0271C43.0971 19.7938 43.0683 19.5605 43.0443 19.1748V19.1653ZM31.8713 38.033C31.9001 37.6807 31.9336 37.4141 31.9336 37.1475C31.9336 33.0436 31.9336 28.9444 31.9336 24.8404C31.9336 24.7023 31.9336 24.5643 31.9336 24.4262C31.9336 24.0977 31.7802 23.9168 31.4253 23.9073C28.3516 23.8168 25.2826 23.7168 22.2088 23.6121C21.7772 23.5978 21.6669 23.7787 21.6669 24.1739C21.6765 26.8305 21.6669 29.4871 21.6909 32.139C21.6909 32.377 21.8875 32.715 22.0889 32.8293C23.2829 33.5054 24.5057 34.1291 25.7189 34.767C27.7282 35.8335 29.7374 36.8999 31.8665 38.0283L31.8713 38.033ZM21.6861 17.7989C23.0144 17.3181 24.218 16.9134 25.3977 16.4563C27.4836 15.647 29.5552 14.8138 31.6315 13.9854C31.9768 13.8473 32.2501 13.6664 32.135 13.2046C31.8569 12.1 31.5884 10.9907 31.3342 9.88143C30.9362 8.13892 30.5526 6.39164 30.169 4.64437C30.0251 3.99211 29.8477 3.90165 29.2435 4.21112C29.0517 4.3111 28.8599 4.4206 28.6585 4.49201C26.7403 5.2014 24.8222 5.90602 22.8993 6.61064C21.7724 7.02485 20.6503 7.44382 19.5234 7.85326C18.9096 8.07226 18.7514 8.48171 18.996 9.1292C19.1926 9.63862 19.3412 10.1671 19.5043 10.6908C19.744 11.4526 19.9838 12.2143 20.2092 12.9808C20.4298 13.7331 20.6264 14.4901 20.8565 15.2423C21.1203 16.0993 21.4032 16.9515 21.6813 17.8084L21.6861 17.7989ZM33.2092 14.014C33.8565 14.252 34.432 14.4472 34.993 14.671C36.0288 15.0852 37.055 15.5279 38.0956 15.9326C39.6301 16.5325 41.1837 17.0943 42.7134 17.7037C43.0539 17.8418 43.2026 17.8513 43.4279 17.5133C44.2575 16.2611 45.1399 15.0423 45.9886 13.8092C46.8997 12.4904 47.7917 11.1621 48.7075 9.84811C48.9761 9.46247 48.9281 9.21966 48.5014 9.01969C48.0218 8.79593 47.5471 8.55788 47.0676 8.32936C44.8857 7.27718 42.6991 6.22977 40.522 5.16807C39.726 4.77767 39.4431 4.83956 39.0067 5.49182C37.9373 7.0915 36.8488 8.67691 35.7651 10.2671C34.9403 11.4764 34.1107 12.6856 33.1996 14.0187L33.2092 14.014ZM22.2184 18.4607C22.2184 18.5178 22.2232 18.5797 22.228 18.6369C22.7507 18.8606 23.2782 19.0749 23.7912 19.3129C26.4143 20.546 29.0325 21.7934 31.6603 23.0122C31.9432 23.1455 32.3364 23.2788 32.5954 23.1883C33.3866 22.9027 34.1347 22.5075 34.8971 22.1552C36.4029 21.4553 37.9134 20.7555 39.4191 20.0556C40.4597 19.57 41.5002 19.0844 42.6511 18.5464C42.2627 18.3798 41.999 18.256 41.7304 18.1512C40.2679 17.5847 38.7957 17.0324 37.3379 16.4516C35.861 15.8612 34.4032 15.2185 32.9167 14.6567C32.5858 14.5329 32.1302 14.5329 31.7994 14.6519C30.567 15.0947 29.3634 15.6232 28.1406 16.104C27.0664 16.5277 25.9875 16.9277 24.9133 17.3562C24.0118 17.7132 23.1151 18.0941 22.2184 18.4607ZM12.4504 18.7511C12.4312 18.8178 12.412 18.8844 12.3929 18.9511C15.1741 20.227 17.9602 21.503 20.8613 22.8313C20.8613 21.5458 20.8757 20.4413 20.8421 19.3367C20.8421 19.2082 20.5448 18.9939 20.377 18.9892C17.9842 18.8749 15.5961 18.794 13.2033 18.7083C12.9539 18.6988 12.7045 18.7368 12.4504 18.7511ZM21.6765 19.1939C21.6765 20.3556 21.6621 21.403 21.6957 22.4504C21.6957 22.5789 21.9403 22.7932 22.0937 22.8122C22.8226 22.9074 23.5563 22.9884 24.29 23.0074C25.906 23.0503 27.5268 23.0598 29.1428 23.0788C29.3106 23.0788 29.4833 23.0408 29.6511 23.017C29.6511 22.9646 29.6511 22.917 29.6511 22.8646C27.0377 21.6601 24.4242 20.4555 21.6813 19.1891L21.6765 19.1939Z" fill="black"/>
</svg>
