<svg width="60" height="42" viewBox="0 0 60 42" fill="none" xmlns="http://www.w3.org/2000/svg">
<path d="M27.2348 31.1332C25.0123 30.8043 25.1815 30.534 24.407 32.96C23.9872 34.2788 23.8929 34.4709 22.6889 33.9434C21.8168 33.5592 20.9708 33.0349 20.2386 32.4227C15.7968 28.717 13.8835 22.1881 15.6569 16.5677C17.8631 9.56329 24.6608 5.26169 31.7579 6.10507C32.4966 6.193 33.0595 6.37209 33.4988 7.06244C34.0162 7.87 34.7516 8.53755 35.3113 9.32233C35.5163 9.61214 35.6823 10.2634 35.5326 10.4099C34.9892 10.944 35.3211 11.2533 35.6725 11.5985C35.9816 11.8981 36.2745 12.2628 36.652 12.4354C37.1108 12.647 37.6933 12.8652 38.1293 12.7415C38.3929 12.6666 38.5035 11.96 38.6272 11.5203C38.6988 11.2664 38.6076 10.9668 38.676 10.7128C38.7964 10.2797 38.9851 9.86613 39.1446 9.44281C39.509 9.63168 39.9418 9.75216 40.2282 10.0224C42.6036 12.2758 44.1005 15.0046 44.709 18.2414C45.6429 23.2171 44.312 27.5838 40.9636 31.2472C37.7681 34.7445 33.6908 36.3205 28.9106 35.9461C28.3021 35.8972 27.9019 35.6497 27.6415 35.1059C27.4072 34.6207 27.1534 34.1453 26.8671 33.6894C26.3236 32.8265 26.1837 32.0059 27.2348 31.1267V31.1332ZM39.675 10.5923C39.6131 11.4161 39.5741 11.8427 39.5481 12.266C39.47 13.5132 39.1315 13.8649 37.882 13.93C37.2344 13.9626 36.5836 13.9463 35.9328 13.9593C34.4815 13.9854 34.4262 13.9789 34.1887 15.4475C33.8763 17.3687 33.6355 19.303 33.411 21.2372C33.2255 22.8393 33.1018 23.0445 31.4781 23.3017C30.5181 23.4548 29.5419 23.5069 28.5722 23.5883C27.1209 23.712 26.981 23.9758 27.7196 25.2848C28.3509 26.405 28.9854 27.5252 29.6297 28.6356C30.2307 29.6689 30.0474 30.5026 29.0798 31.1365C28.6275 31.4328 28.1459 31.6933 27.7457 32.045C27.5374 32.2241 27.3357 32.5855 27.3682 32.833C27.5699 34.3602 28.8423 35.4153 30.4172 35.2753C32.015 35.1352 33.5834 34.8617 35.1193 34.2756C40.2542 32.3185 43.8564 27.3787 44.1265 21.9732C44.2078 20.3482 44.0419 18.7657 43.6254 17.1636C42.9843 14.6953 41.686 12.7056 39.675 10.589V10.5923ZM24.2541 28.0234C23.4406 26.4897 22.7702 25.1741 22.0544 23.8846C21.1172 22.1978 21.1302 22.1197 22.9037 21.2861C23.0013 21.2405 23.1119 21.2274 23.2095 21.1819C24.4786 20.6022 25.7509 20.0356 27.007 19.43C28.0711 18.9155 28.1101 18.8047 27.7001 17.7041C27.1762 16.2941 26.6133 14.9004 26.0796 13.4937C25.5589 12.126 25.5524 12.0967 26.6588 11.1556C27.9669 10.0387 29.3141 8.96739 30.6287 7.85698C30.8533 7.66811 30.9997 7.38155 31.1819 7.14058C30.8663 7.0201 30.5474 6.79216 30.2383 6.79867C28.4583 6.84426 26.7304 7.12104 25.0318 7.74952C19.9848 9.61213 17.0757 13.3341 16.0344 18.4238C15.3413 21.8136 15.8912 25.2165 17.7493 28.2481C18.9532 30.2117 20.4143 31.9603 22.7507 33.1424C22.6433 32.5855 22.6466 32.2078 22.4936 31.905C21.9405 30.8011 21.3124 29.733 20.769 28.6258C20.5933 28.2676 20.5868 27.8248 20.5054 27.4177C20.8959 27.3884 21.3027 27.2745 21.6736 27.3461C22.4513 27.4959 23.2095 27.7434 24.2606 28.0299L24.2541 28.0234ZM35.4545 12.7968C35.1356 12.3735 34.8753 12.0902 34.693 11.7646C34.5238 11.4617 34.244 10.9896 34.3579 10.7974C35.0152 9.67727 34.1952 9.11392 33.5964 8.44963C32.7374 7.49879 32.4412 7.44668 31.4553 8.23145C30.0723 9.33535 28.7479 10.5141 27.3357 11.5822C26.6328 12.113 26.5579 12.6145 26.8866 13.3732C27.5504 14.9037 28.1557 16.4602 28.7577 18.0167C29.0993 18.8927 28.9399 19.2541 27.9897 19.7361C26.5547 20.459 25.1099 21.1754 23.6488 21.8429C22.4448 22.39 22.2626 22.771 22.8744 23.8911C23.3625 24.7834 23.9287 25.63 24.3875 26.5353C24.7487 27.2451 25.4874 27.8248 25.2693 28.7691C24.3875 28.6616 23.5057 28.5542 22.6271 28.4402C22.5783 28.4337 22.5392 28.3653 22.4904 28.3588C22.2919 28.3295 22.0934 28.3132 21.8949 28.2904C21.8949 28.4858 21.8363 28.7105 21.9112 28.8733C22.4025 29.9414 22.9264 30.9932 23.5057 32.1915C23.7107 31.8366 23.8929 31.6282 23.9547 31.3872C24.2346 30.3484 24.9114 30.0456 25.9039 30.2475C26.0601 30.28 26.2293 30.267 26.3887 30.2703C27.9572 30.3028 28.3086 29.9805 28.2208 28.4109C28.1947 27.9518 27.9897 27.4829 27.7815 27.0595C27.3259 26.1445 26.789 25.2686 26.3269 24.3568C25.8844 23.4873 26.0145 23.204 26.9647 23.0542C28.3542 22.8361 29.7534 22.6993 31.1429 22.4779C31.5301 22.416 32.028 22.2825 32.2362 22.0057C32.9098 21.107 32.8252 20.0063 32.1289 19.0392C31.8458 18.6452 31.4911 18.2935 31.2633 17.8702C31.0095 17.398 31.0095 16.9226 31.6473 16.6946C31.9531 16.5872 32.246 16.4016 32.5584 16.3625C33.2613 16.2713 33.4467 15.8382 33.4207 15.2293C33.3589 13.8454 33.8795 12.9206 35.448 12.7936L35.4545 12.7968Z" fill="black"/>
</svg>
