<svg width="464" height="352" viewBox="0 0 464 352" fill="none" xmlns="http://www.w3.org/2000/svg">
<path d="M81.8164 315.157C69.6104 315.157 57.4045 315.197 45.1986 315.116C43.09 315.116 40.9813 314.546 38.8456 314.654C38.3184 314.682 37.7507 314.492 37.7102 313.881C37.6155 312.469 36.9938 311.194 36.8045 309.782C36.2503 305.778 35.4663 301.815 34.7634 297.839C34.4796 296.237 34.0335 294.663 33.8848 293.061C33.7767 291.853 33.3577 291.27 32.1682 291.378C30.5191 291.541 30.0325 290.673 29.9243 289.18C29.6405 285.434 29.2079 281.688 28.5185 277.983C28.2617 276.571 28.505 275.391 29.6675 274.223C35.223 268.659 40.6163 262.945 46.0907 257.313C50.227 253.051 54.4037 248.817 58.54 244.555C59.2834 243.781 60.1215 243.442 61.2163 243.469C63.9198 243.551 66.6232 243.347 69.3131 243.537C84.1818 244.636 99.0777 244.066 113.96 244.745C121.935 245.111 129.924 244.921 137.899 245.057C140.643 245.098 140.67 245.098 140.778 247.772C140.927 251.192 141.413 254.585 141.994 257.951C142.143 258.806 142.008 259.579 141.4 260.095C138.52 262.579 138.642 265.632 139.399 268.957C140.183 272.391 140.751 275.866 141.332 279.34C141.481 280.263 140.899 281.064 140.44 281.824C136.196 288.99 131.924 296.156 127.653 303.308C125.49 306.918 123.192 310.461 121.151 314.139C120.475 315.36 119.664 315.442 118.569 315.442C107.539 315.387 96.5094 315.333 85.493 315.292C84.2494 315.292 83.0194 315.292 81.7758 315.292C81.7758 315.252 81.7758 315.211 81.7758 315.157H81.8164ZM92.2382 257.855C92.7248 258.561 88.4397 260.461 88.6019 261.031C88.9534 261.425 89.3589 261.289 89.6968 261.14C92.8463 259.796 96.0093 258.507 99.0777 257.014C99.6048 256.756 101.254 256.973 100.646 255.67C100.2 254.707 98.9695 255.223 98.0504 255.399C97.9422 255.426 97.8476 255.494 97.7395 255.521C95.2658 256.268 93.0896 257.571 91.0215 259.077C90.3862 259.539 89.8185 259.837 89.0615 259.729C89.3183 258.914 90.0347 258.588 90.6565 258.141C93.0761 256.376 95.6984 255.019 98.7668 254.069C97.5908 252.78 96.3337 252.006 95.0496 251.246C93.1166 250.092 91.2648 249.97 89.2913 251.219C87.1826 252.563 85.2362 254.096 83.4384 255.793C80.2213 258.833 80.2484 258.846 83.7628 261.601C84.6009 262.253 85.3173 262.348 86.2635 261.588C88.5864 259.848 91.7635 256.984 89.1156 259.701L92.2382 257.855ZM107.742 263.149C112.797 263.149 117.866 263.094 122.922 263.176C124.638 263.203 125.99 262.809 126.882 261.276C127.207 260.733 128.004 260.353 127.599 259.539C127.234 258.806 126.504 259.104 125.936 259.104C118.069 259.036 110.189 259.213 102.322 258.873C98.0909 258.697 94.4548 259.959 90.8728 261.846C90.5619 262.009 89.9536 261.914 89.9942 262.456C90.0347 263.027 90.6025 263.054 91.035 263.094C91.5892 263.149 92.1569 263.149 92.7246 263.149C97.726 263.149 102.727 263.149 107.742 263.149ZM82.9653 262.552C81.6542 261.154 80.4917 259.172 78.5452 259.349C75.0713 259.661 71.5839 259.389 68.1371 259.824C66.7043 260 65.0687 260.149 63.9603 261.235C61.4326 263.719 61.6489 266.148 64.4064 268.374C65.2579 269.066 65.7581 269.052 66.069 267.953C66.3799 266.881 67.0287 266.175 68.083 265.687C70.5837 264.547 73.1114 263.664 75.8824 263.447C78.2208 263.271 80.5052 262.619 82.9518 262.538L82.9653 262.552ZM67.4072 258.466C67.1368 258.412 66.8665 258.29 66.5961 258.29C60.6892 258.276 54.7822 258.263 48.8753 258.263C48.4833 258.263 48.0913 258.317 47.7939 258.629C46.9423 259.511 46.1178 260.407 45.2662 261.276C44.8742 261.669 44.2524 262.009 44.5633 262.633C44.8066 263.135 45.4825 262.986 45.9556 262.986C50.673 263.027 55.3905 263.054 60.1215 263.067C60.7432 263.067 61.2839 262.972 61.6894 262.321C62.9871 260.204 64.9606 259.091 67.4207 258.48L67.4072 258.466ZM133.087 288.121C132.722 285.23 132.411 282.326 131.978 279.449C131.775 278.159 131.681 276.884 131.532 275.594C131.492 275.187 131.356 274.183 130.748 274.875C129.369 276.449 127.504 277.793 127.572 280.277C127.666 284.172 128.45 287.985 128.775 291.853C128.856 292.804 129.059 293.74 129.234 294.676C129.329 295.179 129.613 295.681 130.045 294.961C131.343 292.817 133.479 291.039 133.087 288.121ZM131.586 269.623C131.789 266.528 130.708 264.424 130.599 262.171C130.586 261.805 130.356 261.561 129.991 261.439C129.464 261.262 129.329 261.669 129.099 261.981C128.288 263.04 127.477 264.099 126.598 265.089C126.274 265.456 126.22 265.822 126.342 266.162C127.099 268.333 127.518 270.573 127.68 272.853C127.747 273.721 128.437 273.871 128.815 273.491C130.113 272.174 131.208 270.668 131.586 269.623ZM80.8972 264.791C80.4917 264.56 80.3565 264.424 80.2213 264.411C77.2746 264.044 74.4225 264.777 71.5975 265.374C70.3268 265.646 69.0968 266.297 67.9478 266.935C67.0828 267.424 66.488 268.401 66.9881 269.338C67.4747 270.26 68.4615 269.745 69.2049 269.446C73.0167 267.94 76.815 266.406 80.8972 264.777V264.791Z" fill="black"/>
<path d="M218.039 203.989C205.995 203.989 193.952 204.002 181.908 203.975C179.948 203.975 177.988 203.704 176.028 203.636C174.095 203.568 174.217 201.831 174.068 200.826C173.514 197.094 172.568 193.43 172.148 189.67C171.838 186.956 170.986 184.323 170.702 181.595C170.594 180.59 169.918 179.98 168.81 180.115C167.458 180.292 166.931 179.735 166.836 178.351C166.566 174.252 165.566 170.235 165.376 166.123C165.322 164.806 165.674 163.924 166.661 162.933C172 157.559 177.177 152.035 182.449 146.593C186.787 142.114 191.153 137.649 195.533 133.224C196.276 132.478 197.277 132.369 198.331 132.369C205.86 132.369 213.362 133.102 220.905 132.966C226.703 132.858 232.516 132.803 238.288 133.156C250.48 133.916 262.699 133.428 274.892 133.889C276.446 133.943 277.244 134.405 277.433 136.074C277.838 139.644 278.487 143.186 278.663 146.796C278.717 148.004 278.447 149.008 277.595 149.836C275.77 151.628 275.04 153.596 276.041 156.188C276.595 157.613 276.433 159.269 276.811 160.816C277.217 162.499 277.257 164.263 277.798 165.946C278.852 169.176 276.703 171.47 275.27 173.913C271.823 179.817 268.282 185.666 264.781 191.543C262.388 195.56 260.036 199.591 257.644 203.609C257.144 204.464 256.252 204.219 255.508 204.206C247.682 204.192 239.869 204.138 232.043 204.111C227.366 204.097 222.702 204.111 218.025 204.111V204.002L218.039 203.989ZM226.271 148.479C226.622 149.226 225.189 149.076 225.595 149.755C225.892 150.257 226.474 149.958 226.825 149.809C230.272 148.343 233.705 146.81 237.139 145.317C238.058 144.923 237.706 144.557 237.166 144.15C236.72 143.81 236.206 143.824 235.719 143.987C233.678 144.693 231.664 145.385 229.785 146.552C228.65 147.258 227.812 148.628 226.217 148.547C226.041 147.828 226.622 147.475 227.028 147.203C228.501 146.24 229.947 145.222 231.543 144.448C232.8 143.837 234.3 143.702 235.435 142.602C233.827 141.232 232.205 140.051 230.38 139.291C228.974 138.707 227.487 138.789 226.095 139.834C224.122 141.327 222.135 142.806 220.296 144.475C216.985 147.475 216.985 147.407 220.445 150.23C221.526 151.112 222.297 151.017 223.351 150.148C224.203 149.456 224.892 148.303 226.271 148.479ZM213.362 201.763C213.362 201.763 213.362 201.79 213.362 201.817C215.498 201.817 217.633 201.79 219.769 201.817C220.783 201.831 221.351 201.736 221.026 200.406C220.661 198.953 220.621 197.447 220.283 195.954C219.269 191.367 218.539 186.711 217.715 182.083C217.323 179.844 216.904 179.518 214.687 179.83C214.241 179.898 213.795 179.871 213.335 179.871C210.24 179.885 207.144 179.898 204.062 179.925C201.372 179.953 201.183 180.183 201.71 182.843C201.71 182.898 201.71 182.952 201.737 183.006C203.251 188.747 204.373 194.583 205.455 200.419C205.63 201.369 205.982 201.804 206.968 201.776C209.104 201.736 211.24 201.776 213.376 201.776L213.362 201.763ZM207.496 177.713C207.496 177.713 207.496 177.686 207.496 177.673C209.577 177.673 211.659 177.673 213.727 177.673C214.552 177.673 215.349 177.442 215.079 176.478C214.673 174.985 214.916 173.438 214.579 171.972C213.213 166.191 215.295 167.113 209.199 166.91C206.279 166.815 203.359 166.761 200.44 166.747C199.642 166.747 198.372 166.693 198.75 167.941C199.588 170.724 198.953 173.655 199.858 176.437C200.169 177.374 200.48 177.74 201.426 177.727C203.454 177.686 205.468 177.727 207.496 177.727V177.713ZM207.955 164.603C207.955 164.603 207.955 164.725 207.955 164.779C209.807 164.779 211.659 164.779 213.511 164.779C214.403 164.779 215.025 164.535 215.606 163.72C217.85 160.626 220.215 157.613 222.567 154.587C222.892 154.166 223.351 153.786 222.959 153.297C222.621 152.89 221.999 152.944 221.526 153.121C219.985 153.691 218.431 154.274 216.931 154.939C213.997 156.242 211.051 157.464 208.009 158.468C205.4 159.337 202.913 160.327 201.44 162.933C201.197 163.381 200.778 163.734 201.007 164.223C201.224 164.684 201.805 164.562 202.237 164.576C204.143 164.589 206.049 164.576 207.955 164.576V164.603ZM219.999 151.546C217.917 148.9 215.619 147.991 212.619 148.357C209.577 148.723 206.495 148.398 203.441 149.076C201.007 149.619 199.521 150.691 198.872 153.636C198.426 155.632 200.467 156.256 201.372 157.491C201.818 158.088 202.373 157.64 202.643 157.029C203.035 156.161 203.386 155.129 204.265 154.777C207.185 153.623 210.01 152.089 213.321 152.211C215.498 152.293 217.566 151.397 219.999 151.546ZM215.43 145.914C216.971 146.606 217.715 145.48 218.499 144.774C220.715 142.779 222.959 140.824 225.419 139.128C227.095 137.974 228.839 137.309 230.826 138.382C231.407 138.694 232.029 138.952 232.556 139.318C233.313 139.861 233.922 139.671 234.435 139.033C234.989 138.341 235.53 137.635 236.017 136.889C236.814 135.667 236.652 135.328 235.26 135.314C231.948 135.274 228.636 135.287 225.325 135.233C224.541 135.233 223.959 135.409 223.459 136.034C220.823 139.304 218.174 142.548 215.444 145.9L215.43 145.914ZM217.688 153.609C217.296 152.985 216.931 153.066 216.606 153.039C213.97 152.754 211.483 153.65 208.969 154.139C207.442 154.437 205.698 154.709 204.454 156.039C203.846 156.69 203.711 157.396 203.954 158.02C204.279 158.848 205.13 158.387 205.738 158.292C206.212 158.21 206.644 157.871 207.117 157.735C210.726 156.69 214.051 154.939 217.688 153.609Z" fill="black"/>
<path d="M391.774 107.994C385.921 107.994 380.068 108.211 374.229 107.953C360.469 107.342 346.695 107.736 332.921 107.505C331.596 107.478 331.096 107.071 330.907 105.686C330.434 102.185 329.771 98.7103 329.136 95.2359C328.541 91.9786 327.865 88.7349 327.298 85.4776C327.122 84.4462 326.649 83.9168 325.635 84.0661C324 84.3104 323.405 83.2518 323.391 82.0032C323.351 79.2209 322.513 76.5472 322.499 73.7786C322.499 72.5978 322.472 71.4442 322.026 70.2905C321.418 68.7433 322.377 67.5897 323.378 66.6125C328.676 61.4009 333.786 56.0128 338.922 50.6247C343.356 45.9695 347.952 41.4636 352.426 36.8491C352.953 36.3062 353.467 36.252 354.061 36.252C361.482 36.3198 368.93 36.0891 376.324 36.5505C385.989 37.1613 395.667 36.822 405.318 37.2156C414.361 37.582 423.404 37.772 432.447 37.867C433.555 37.867 434.096 38.2606 434.123 39.4278C434.164 42.4136 434.894 46.1321 435.34 49.4575C435.218 49.0911 435.34 49.824 435.34 49.4575C435.759 50.6926 435.894 51.9276 434.853 52.8912C431.852 55.6735 432.339 58.9715 433.096 62.5002C433.772 65.6218 434.15 68.8248 434.853 71.9599C434.975 72.5028 434.84 73.0049 434.515 73.5478C430.379 80.4017 426.27 87.2827 422.174 94.1637C419.646 98.3982 417.119 102.633 414.631 106.908C414.064 107.885 413.347 108.265 412.212 108.251C405.399 108.197 398.6 108.224 391.788 108.224C391.788 108.156 391.788 108.089 391.788 108.007L391.774 107.994ZM366.065 83.4961V83.564C363.875 83.564 361.685 83.564 359.495 83.564C358.725 83.564 357.738 83.7675 358.117 84.7176C358.63 85.9526 358.603 87.242 358.901 88.4906C359.658 91.7072 360.374 94.9237 360.955 98.181C361.347 100.393 361.82 102.565 362.388 104.723C362.591 105.51 363.037 105.795 363.834 105.795C368.106 105.795 372.364 105.795 376.635 105.836C377.73 105.836 378.027 105.361 377.879 104.397C377.581 102.578 377.378 100.719 376.932 98.9818C375.716 94.3809 375.243 89.6442 374.202 85.0026C373.918 83.754 373.418 83.4418 372.296 83.469C370.214 83.5097 368.146 83.469 366.065 83.469V83.4961ZM364.402 81.5417C364.402 81.5417 364.402 81.4603 364.402 81.4196C366.416 81.4196 368.444 81.4196 370.458 81.4196C371.444 81.4196 371.918 81.0531 371.782 79.9945C371.431 77.443 371.12 74.8779 370.755 72.3263C370.593 71.1727 369.782 70.7791 368.7 70.752C364.835 70.6434 360.955 70.5484 357.089 70.3991C355.94 70.3584 355.521 70.7249 355.562 71.9463C355.643 74.4707 356.562 76.9137 356.373 79.4517C356.265 80.8903 356.954 81.5282 358.346 81.5282C360.36 81.5282 362.388 81.5282 364.402 81.5282V81.5417ZM421.498 52.0769C420.971 51.7376 420.336 51.8598 419.741 51.8598C411.698 51.8055 403.669 51.9005 395.64 51.6698C392.382 51.5747 389.314 51.9548 386.462 53.4341C385.408 53.977 384.015 54.1127 383.245 55.4292C383.988 55.7821 384.664 55.6871 385.313 55.6871C395.207 55.6871 405.102 55.5649 414.983 55.7685C418.065 55.8364 420.295 55.1985 421.498 52.0905V52.0769ZM365.767 68.7433C367.281 68.7433 368.809 68.7162 370.323 68.7433C371.052 68.7569 371.539 68.5398 372.012 67.9154C374.202 64.9703 376.459 62.0795 378.663 59.1479C379.041 58.6458 379.879 58.1165 379.46 57.4514C378.946 56.61 378.027 57.275 377.284 57.3021C377.122 57.3021 376.959 57.37 376.797 57.4379C373.161 58.9172 369.539 60.4101 365.916 61.903C363.145 63.0295 359.995 63.5317 358.306 66.4904C358.049 66.9518 357.441 67.3183 357.684 67.8883C357.914 68.404 358.563 68.2547 359.063 68.309C361.293 68.5669 363.537 68.7298 365.781 68.7433H365.767ZM391.788 46.3902C391.788 46.0781 391.517 45.8474 391.166 45.6031C389.841 44.6937 388.503 43.8251 387.07 43.0787C385.691 42.3594 384.556 42.5086 383.299 43.2958C380.068 45.3045 377.405 47.9917 374.54 50.4347C374.013 50.8826 373.959 51.439 374.675 51.9548C375.527 52.5519 376.338 53.2305 377.054 53.977C378.081 55.0492 379 54.9135 380.055 54.0177C383.461 51.0997 386.908 48.236 391.382 47.096C391.693 47.0146 391.882 46.8653 391.788 46.3767V46.3902ZM370.458 51.9276C367.511 51.8869 364.929 52.6877 362.28 52.5655C361.171 52.5112 360.104 52.7827 359.009 53.0948C356.792 53.7191 356.13 55.4699 355.657 57.275C355.129 59.3379 356.981 60.1387 358.184 61.2109C358.792 61.7402 359.266 61.7673 359.387 60.7901C359.549 59.5415 360.442 58.6729 361.455 58.3065C363.429 57.5871 365.348 56.7321 367.443 56.2842C370.052 55.7278 372.675 55.6328 375.31 55.5785C375.662 55.5785 376.175 55.7278 376.27 55.1713C376.324 54.8456 376.162 54.5199 375.865 54.2892C374.161 52.9998 372.688 51.154 370.458 51.9276ZM360.874 51.7376C360.104 50.9504 359.658 50.9912 359.212 50.9912C354.156 50.9912 349.087 51.1133 344.045 50.9233C341.964 50.8419 340.693 51.7376 339.477 53.1084C339.139 53.4884 338.841 53.8956 338.463 54.2349C338.125 54.547 337.692 54.8592 337.855 55.3206C338.044 55.8499 338.639 55.6464 339.058 55.6464C343.951 55.6735 348.844 55.6599 353.724 55.6735C354.305 55.6735 354.818 55.6056 355.156 55.022C356.332 52.9862 357.914 51.5612 360.874 51.724V51.7376ZM426.499 81.026C426.067 77.1173 425.688 73.5343 425.283 69.9377C425.202 69.2726 425.04 68.6076 424.904 67.9426C424.823 67.5083 424.526 67.0333 424.161 67.4947C422.89 69.1234 421.174 70.4806 420.998 72.8014C420.836 75.095 421.863 77.2258 421.755 79.4924C421.62 82.1118 422.593 84.609 422.607 87.2148C422.607 87.4727 422.728 87.812 422.917 87.9477C423.188 88.1377 423.458 87.8663 423.593 87.622C424.81 85.4233 426.946 83.6047 426.499 81.0124V81.026ZM384.732 38.8713C382.096 37.9349 380.136 39.2649 378.676 41.7215C378.541 41.9522 378.311 42.1422 378.135 42.3594C376.365 44.5037 374.607 46.6481 372.837 48.7789C372.526 49.1589 372.269 49.5797 372.62 49.9597C372.985 50.3533 373.445 50.0954 373.823 49.8104C374.094 49.6068 374.405 49.4439 374.621 49.1996C376.567 47.1503 378.798 45.4402 381.001 43.6758C383.042 42.0472 385.124 40.8393 387.854 42.3458C390.99 44.083 390.112 43.7573 392.382 41.0972C392.531 40.9207 392.599 40.69 392.747 40.5271C393.802 39.4414 393.072 39.1971 392.099 39.2242C389.733 39.2921 387.481 39.2242 384.718 38.8578L384.732 38.8713ZM425.391 61.3059C426.175 62.7309 424.594 59.9758 425.391 61.3059C424.931 60.478 424.702 54.4927 423.499 54.2213C422.215 53.9363 421.971 55.6056 421.201 56.3385C420.133 57.3564 419.619 58.5236 420.255 60.1115C420.714 61.238 420.741 62.5138 421.025 63.7217C421.228 64.5903 420.606 65.9611 421.687 66.2597C422.85 66.5854 423.08 65.0925 423.661 64.3731C424.391 63.5045 425.269 62.6631 425.391 61.3059ZM373.823 57.4514C373.486 56.8135 372.877 56.9628 372.337 56.9764C369.768 57.0443 367.2 57.3836 364.74 58.0893C363.158 58.5372 361.388 58.9986 360.496 60.6951C360.252 61.1566 360.171 61.6995 360.536 62.1202C360.861 62.5002 361.347 62.4595 361.793 62.2966C363.402 61.713 364.983 61.048 366.605 60.5458C368.876 59.8401 370.877 58.4286 373.242 57.94C373.526 57.8857 373.796 57.8179 373.823 57.4379V57.4514ZM392.788 47.8967C392.126 47.951 391.517 47.9103 390.923 48.141C387.895 49.2811 385.286 51.1404 382.623 52.9048C382.353 53.0812 381.555 53.217 381.88 53.8006C382.218 54.4249 382.731 53.9227 383.177 53.7327C386.448 52.3076 389.72 50.8554 393.031 49.5118C393.653 49.2539 394.369 48.9825 394.288 48.3989C394.18 47.5982 393.288 48.0325 392.788 47.8967Z" fill="black"/>
<path d="M215.307 107.749C206.251 107.749 196.735 107.736 187.232 107.763C185.934 107.763 185.34 107.532 185.015 105.999C184.123 101.778 183.055 97.6247 182.69 93.2952C182.461 90.6215 181.69 88.0021 181.203 85.3556C181.028 84.392 180.433 83.9848 179.541 84.0798C177.824 84.2427 177.459 83.4284 177.338 81.8133C177.094 78.4067 176.675 75.0001 176.04 71.6343C175.634 69.4628 176.148 67.8341 177.635 66.3276C181.447 62.5003 185.245 58.6459 189.03 54.7778C194.396 49.2812 199.789 43.8117 205.061 38.2336C206.534 36.6592 208.156 36.2113 210.157 36.3199C217.794 36.7135 225.458 36.5099 233.095 36.9035C248.491 37.7043 263.914 37.3378 279.31 37.84C281.77 37.9214 284.231 38.1928 286.691 38.1793C287.704 38.1793 288.151 38.7357 288.151 39.645C288.151 43.0516 288.921 46.3632 289.205 49.7426C289.354 51.5477 289.043 53.0542 287.813 54.3707C286.474 55.7957 286.191 57.2344 286.528 59.3516C287.218 63.6132 288.164 67.8341 288.678 72.1229C288.786 73.0322 288.38 73.7786 287.961 74.498C281.635 85.1656 275.282 95.8196 268.983 106.487C268.132 107.926 267.131 108.604 265.374 108.564C259.697 108.428 253.979 108.835 248.329 108.374C237.489 107.478 226.634 108.306 215.348 107.736L215.307 107.749ZM210.508 60.6002C211.063 60.5731 211.468 60.831 211.82 61.2245C212.428 61.9031 213.023 61.6046 213.266 60.9667C214.401 58.0487 217.186 57.723 219.592 56.9358C222.43 56.0129 225.418 55.8772 228.405 55.8093C228.838 55.8093 229.284 55.6464 229.689 55.4836C229.987 55.3614 230.392 55.0086 229.987 54.7371C228.594 53.8278 227.702 52.2127 225.688 52.1449C221.741 52.0363 217.862 52.6742 213.942 52.9456C211.022 53.1492 209.319 55.8365 210.225 58.6459C211.407 60.5002 213.101 63.1765 212.32 62.7308C211.617 63.043 208.981 60.3831 208.332 61.1295C206.494 63.2061 204.601 65.2283 202.763 67.3048C202.209 67.9291 202.277 68.4041 203.263 68.4041C205.061 68.4041 206.859 68.4041 208.657 68.4448C209.278 68.4584 209.711 68.1734 210.103 67.7391C210.86 66.9248 211.617 66.124 212.36 65.3233C213.212 64.414 213.225 63.7354 212.171 62.8396C211.495 62.2696 210.184 61.9574 210.495 60.5867L210.508 60.6002ZM225.391 81.8676C233.879 81.8676 242.382 81.474 250.87 81.474C254.75 81.474 258.629 81.4061 262.509 81.379C263.82 81.379 264.293 80.9854 263.86 79.5196C263.293 77.5381 262.671 75.5566 262.265 73.5615C261.954 72.0821 261.319 71.6343 259.913 71.6071C249.586 71.3493 239.232 71.8786 228.905 71.0235C225.661 70.7521 222.39 70.9285 219.132 70.8742C212.279 70.7521 205.413 70.7928 198.559 70.4399C192.206 70.1142 185.853 70.1821 179.514 69.9921C178.473 69.9649 178.122 70.3585 178.216 71.39C178.473 74.4165 179.162 77.4024 179.243 80.4697C179.27 81.6504 180 82.3833 181.379 82.2747C183.785 82.0983 186.205 81.9219 188.611 81.9083C200.871 81.8676 213.131 81.8947 225.391 81.8947V81.8676ZM215.699 94.7338C215.253 94.7338 214.793 94.7338 214.347 94.7338C205.345 94.6931 196.343 94.6388 187.34 94.6253C186.637 94.6253 185.596 94.2724 185.326 95.0188C184.921 96.1182 185.232 97.2989 185.691 98.4526C186.083 99.4026 186.732 99.3076 187.448 99.3212C197.235 99.3619 207.021 99.3619 216.821 99.4433C224.58 99.4976 232.338 99.3755 240.084 99.7419C247.721 100.108 255.372 99.9183 263.022 99.9998C263.455 99.9998 263.982 100.054 264.198 99.5519C264.698 98.3983 264.131 97.3532 263.833 96.281C263.59 95.3581 262.874 95.4939 262.225 95.4531C256.115 95.1003 249.992 95.3039 243.869 95.0596C234.488 94.6795 225.093 94.7338 215.699 94.7338ZM250.046 106.311C253.763 106.311 258.251 106.324 262.752 106.297C263.739 106.297 264.901 106.745 265.645 105.904C266.307 105.157 265.212 104.356 265.293 103.528C265.428 101.968 264.59 101.696 263.239 101.696C256.886 101.723 250.532 101.656 244.166 101.642C232.866 101.615 221.565 101.493 210.279 101.194C202.858 101.004 195.437 101.086 188.002 101.045C187.462 101.045 186.732 100.882 186.57 101.601C186.313 102.768 186.435 104.004 186.894 105.089C187.219 105.863 188.178 105.564 188.881 105.578C201.533 105.754 214.185 105.931 226.837 106.08C228.851 106.107 230.892 105.89 232.893 105.985C238.34 106.243 243.801 105.985 250.032 106.311H250.046ZM222.741 83.4962C222.741 82.9669 222.741 83.6726 222.741 83.4962C218.916 83.4962 215.104 84.0255 211.279 84.0255C202.736 84.0391 194.193 84.0662 185.637 84.0798C183.312 84.0798 183.299 84.1748 183.501 86.4549C183.636 87.975 184.65 87.7171 185.556 87.7171C200.114 87.7442 214.685 87.7171 229.243 87.7985C239.273 87.8528 249.316 87.8935 259.346 88.3143C262.346 88.4364 262.306 88.355 262.144 85.3827C262.076 83.9984 261.481 83.4419 260.157 83.5369C259.602 83.5776 259.035 83.4826 258.481 83.4826C246.558 83.4826 234.65 83.4826 222.728 83.4826L222.741 83.4962ZM224.215 90.1465C224.215 90.3229 224.215 89.9701 224.215 90.1465C226.013 90.1465 222.417 90.1465 224.215 90.1465C213.536 90.0922 197.464 89.5222 186.786 89.4136C185.407 89.4 185.069 89.8343 185.137 91.178C185.204 92.4266 185.907 92.7252 186.854 92.7795C189.151 92.9152 191.449 93.0645 193.747 93.078C216.415 93.1595 239.07 93.2273 261.738 93.2816C263.631 93.2816 263.928 92.6709 263.13 90.9201C262.671 89.8886 261.873 90.1465 261.143 90.1465C248.829 90.1465 236.515 90.1465 224.215 90.1465ZM254.953 55.9722C259.954 55.9722 264.955 55.8636 269.957 56.0265C272.106 56.0943 273.579 55.4293 274.66 53.6378C274.89 53.2578 275.377 52.932 275.12 52.4706C274.877 52.0091 274.309 52.1992 273.89 52.1992C269.957 52.172 266.023 52.267 262.09 52.1449C258.629 52.0363 255.169 52.2263 251.681 51.7649C249.086 51.4256 246.315 51.1134 243.733 52.2399C242.017 52.9863 240.327 53.8278 238.57 54.4928C237.948 54.7236 237.232 54.9 237.326 55.565C237.434 56.2843 238.259 55.9722 238.773 55.9722C244.166 55.9993 249.559 55.9857 254.953 55.9857V55.9722ZM206.061 49.9055C208.035 50.3262 209.373 49.4576 210.535 47.9647C211.495 46.7432 212.604 45.6574 213.658 44.5038C215.037 42.9702 216.402 41.423 217.808 39.9165C218.227 39.4686 218.294 39.1972 217.645 38.9664C216.05 38.3964 213.644 39.0072 212.563 40.2151C210.062 42.9702 207.548 47.0554 205.034 49.7969C204.52 50.3534 203.926 50.747 203.128 50.6655C202.804 50.6248 202.412 50.6384 202.277 50.2584C202.168 49.9191 202.547 49.8105 202.709 49.6205C204.088 48.1004 205.467 45.2231 206.845 43.7031C208.008 42.4273 209.224 41.1923 210.346 39.8758C210.644 39.5229 211.401 38.7222 210.225 38.505C209.157 38.315 207.994 38.2064 207.089 39.1565C204.047 42.3187 200.979 45.4539 197.951 48.6161C197.694 48.874 197.343 49.2133 197.586 49.6476C197.775 49.9733 198.194 49.8783 198.519 49.8919C201.046 50.0005 203.574 49.539 206.075 49.9191L206.061 49.9055ZM274.485 67.9563C273.593 65.8933 273.782 63.6132 273.147 61.4688C272.7 59.9352 272.092 60.2609 271.43 61.0888C269.051 64.0882 266.726 67.1419 264.387 70.1956C264.05 70.6299 263.698 71.1185 263.928 71.7428C264.698 73.8329 265.036 76.0452 265.739 78.1624C266.307 79.8589 266.834 79.1532 267.429 78.366C269.483 75.6787 271.511 72.9779 273.471 70.2228C273.931 69.5849 274.674 68.9606 274.485 67.9563ZM245.842 46.6075C245.842 46.336 245.639 46.2546 245.45 46.1189C243.95 44.9653 242.368 43.9067 240.638 43.1602C239.678 42.7395 238.556 42.6852 237.556 43.2959C234.258 45.3317 231.392 47.924 228.581 50.5841C227.972 51.1677 227.959 51.7106 228.635 52.2534C229.527 52.9863 230.419 53.7192 231.284 54.4928C232.136 55.2393 232.758 55.0629 233.663 54.3843C237.245 51.6698 240.408 48.209 245.153 47.4218C245.599 47.3539 245.829 47.0554 245.829 46.5939L245.842 46.6075ZM240.232 57.1529C238.678 56.8408 237.245 56.9358 235.799 57.0579C236.34 57.4515 235.312 57.0987 235.799 57.0579C234.231 57.0172 232.717 57.4922 232.082 58.1573C229.5 60.9124 226.932 63.6811 224.377 66.4498C222.701 68.2684 222.701 68.3227 225.039 68.8656C227.567 69.4492 229.811 69.2863 231.636 66.9655C233.379 64.7397 235.488 62.7989 237.353 60.6681C238.327 59.5552 239.503 58.6051 240.246 57.1529H240.232ZM218.862 49.7698C220.822 50.1634 222.525 49.8783 224.147 50.0819C226.229 50.3398 227.297 49.5798 228.432 47.9104C229.73 46.0103 231.595 44.5174 233.095 42.753C233.879 41.8301 234.947 41.2058 235.515 40.0386C235.88 39.2786 235.65 39.0886 235.028 39.075C233.068 39.0343 231.108 39.0479 229.135 39.0615C228.554 39.0615 228.283 39.5365 227.945 39.9029C224.999 43.1059 222.038 46.3089 218.848 49.7698H218.862ZM268.835 56.9629C266.077 56.9629 266.05 56.9358 264.225 58.8766C261.346 61.9574 258.521 65.079 255.669 68.187C255.453 68.4177 255.061 68.6077 255.25 69.0013C255.412 69.3542 255.818 69.2999 256.142 69.3406C257.318 69.4627 258.508 69.4763 259.657 69.7206C261.306 70.0871 262.468 69.4492 263.414 68.2141C265.618 65.364 267.834 62.5139 269.997 59.623C270.538 58.9037 271.741 58.2387 271.2 57.2615C270.754 56.4743 269.537 57.0987 268.821 56.9358L268.835 56.9629ZM213.888 52.0634C213.78 51.3305 213.388 51.3305 212.982 51.3305C208.44 51.2898 203.872 51.5206 199.357 51.0998C196.072 50.7877 194.072 52.2263 192.26 54.5064C191.99 54.8457 191.625 55.3207 191.693 55.6464C191.814 56.1622 192.45 55.9857 192.855 55.9857C197.627 55.9993 202.398 55.9857 207.17 55.9857C207.859 55.9857 208.521 55.9315 208.954 55.2936C210.143 53.5292 211.401 51.8463 213.874 52.0634H213.888ZM287.15 51.0455C286.528 48.684 286.92 46.3225 286.434 44.0695C286.353 43.6895 286.366 43.2552 285.853 43.1602C285.407 43.0788 285.325 43.4452 285.109 43.6895C283.325 45.8067 281.811 48.1547 279.919 50.2041C279.04 51.1541 278.662 52.3077 278.851 53.8142C279.081 55.5922 279.662 57.2887 279.743 59.0802C279.77 59.5145 279.648 60.1795 280.135 60.2745C280.649 60.3695 281.054 59.9488 281.405 59.433C282.973 57.2072 284.623 55.0493 286.285 52.9049C286.745 52.3077 286.92 51.6291 287.123 51.0455H287.15ZM277.039 88.2871C278.459 85.8577 280.865 83.9034 280.378 80.6868C279.77 76.6966 279.337 72.6793 278.999 68.6484C278.972 68.282 279.108 67.7934 278.526 67.7255C278.134 67.6848 277.783 67.7662 277.513 68.1598C276.729 69.2999 275.931 70.4535 275.066 71.5393C274.633 72.0957 274.566 72.6793 274.674 73.2765C275.309 76.7645 275.607 80.3068 276.12 83.7948C276.337 85.247 276.445 86.7535 277.039 88.2736V88.2871ZM240.043 69.1099C242.152 69.0692 244.261 69.9513 245.788 68.0648C246.734 66.8976 247.816 65.8526 248.802 64.7261C250.695 62.5682 252.655 60.4645 254.574 58.3201C254.953 57.8994 255.669 57.1937 254.547 57.0444C252.695 56.8001 250.843 56.6643 249.384 58.4558C247.491 60.7902 245.369 62.9346 243.341 65.1468C242.247 66.3548 240.895 67.3319 240.043 69.0963V69.1099ZM216.645 68.4856C218.713 68.7977 220.835 68.757 221.984 66.3005C222.025 66.2055 222.174 66.1783 222.241 66.0969C224.093 64.1154 225.945 62.1339 227.797 60.1524C228 59.9352 228.216 59.7452 228.108 59.433C227.959 58.9852 227.58 59.1073 227.256 59.1752C226.932 59.2295 226.594 59.2973 226.283 59.433C224.147 60.3288 222.093 61.5231 219.876 62.0796C216.767 62.8532 215.01 65.174 213.023 67.2777C212.428 67.902 212.441 68.5127 213.577 68.4991C214.537 68.4991 215.483 68.4991 216.618 68.4991L216.645 68.4856ZM262.86 57.0715C260.549 56.9494 258.372 56.3658 256.953 58.483C255.953 59.9759 254.574 61.0888 253.385 62.3782C251.654 64.2511 249.924 66.1376 248.248 68.0513C248.032 68.2956 247.18 68.7299 248.153 69.1642C249.519 69.7749 252.344 69.0963 253.385 67.9698C255.223 65.9747 257.156 64.0611 258.9 61.9981C260.197 60.4509 261.86 59.1887 262.874 57.0715H262.86ZM235.191 69.1099C236.583 69.3949 237.475 68.757 238.354 67.7391C239.895 65.9205 241.598 64.224 243.22 62.4732C244.49 61.1024 245.774 59.7316 247.018 58.3201C247.383 57.913 248.045 57.1665 246.896 57.0172C244.99 56.7729 243.166 56.8544 241.706 58.5373C239.273 61.3467 236.718 64.0475 234.231 66.7891C233.717 67.3591 232.785 67.9155 233.068 68.6756C233.393 69.5442 234.474 68.9063 235.191 69.1234V69.1099ZM197.424 68.3634C198.667 68.662 199.573 68.187 200.344 67.2234C201.101 66.2733 201.979 65.4047 202.79 64.509C204.426 62.7039 206.034 60.8852 207.697 59.1209C208.183 58.5916 208.305 58.0351 208.089 57.438C207.832 56.7051 207.143 57.0444 206.629 56.9765C205.304 56.8001 204.304 57.3429 203.425 58.3337C201.141 60.8988 198.803 63.4232 196.478 65.9476C195.937 66.5448 194.937 67.0469 195.288 67.9291C195.64 68.7977 196.707 68.2277 197.424 68.377V68.3634ZM182.204 67.8341C183.772 68.0784 185.056 67.712 185.948 66.2733C186.313 65.6762 186.975 65.2826 187.462 64.7533C189.422 62.6225 191.368 60.5052 193.288 58.3473C193.585 58.008 194.274 57.5194 193.517 57.0444C192.49 56.4065 189.53 57.1665 188.57 58.1573C186.164 60.6681 183.731 63.1518 181.325 65.6626C180.811 66.2055 179.69 66.6262 179.933 67.3319C180.257 68.2684 181.433 67.6305 182.19 67.8341H182.204ZM190.26 68.187C191.247 68.1191 192.125 67.8884 192.828 67.1148C194.612 65.1469 196.437 63.2061 198.248 61.2653C199.154 60.3016 200.06 59.338 200.938 58.3473C201.303 57.9265 201.722 57.3972 200.911 57.0172C199.884 56.5286 196.829 57.0715 196.167 57.913C194.004 60.6681 191.395 63.016 189.097 65.6626C188.597 66.2462 187.462 66.7755 187.8 67.522C188.178 68.3634 189.449 67.8477 190.26 68.2006V68.187ZM251.79 50.5977C253.128 50.7062 254.142 50.7198 254.966 49.7969C257.67 46.7975 260.4 43.8252 263.144 40.853C263.428 40.5408 263.739 40.2829 263.266 39.9029C262.657 39.4279 259.156 39.6993 258.575 40.3236C256.074 43.0381 253.587 45.7796 251.127 48.5211C250.668 49.0369 249.748 49.5662 250.059 50.2584C250.37 50.9641 251.384 50.5027 251.803 50.5841L251.79 50.5977ZM259.629 50.7062C261.089 51.0455 262.076 50.3534 262.982 49.3219C264.739 47.3268 266.55 45.3724 268.334 43.3909C269.118 42.5359 270.065 41.8301 270.686 40.8122C270.835 40.5679 271.254 40.3644 270.754 40.0251C269.97 39.4958 266.55 39.9572 265.888 40.6901C263.522 43.2688 261.157 45.8339 258.778 48.399C258.264 48.9554 257.25 49.3762 257.534 50.2041C257.859 51.1134 258.927 50.5027 259.629 50.7062ZM267.145 50.8012C268.294 51.0455 269.227 50.7198 270.038 49.8512C272.714 46.9604 275.417 44.0967 278.08 41.1787C278.405 40.8258 278.607 40.0658 277.81 40.0386C276.107 39.9572 274.35 39.4008 272.903 41.1787C270.835 43.7302 268.483 46.051 266.28 48.494C265.78 49.0505 264.779 49.5526 265.023 50.2991C265.32 51.1948 266.415 50.6384 267.145 50.8012ZM225.958 39.2786C223.16 38.7086 221.43 38.79 220.727 39.55C217.875 42.6445 215.05 45.7525 212.212 48.8604C211.698 49.4169 211.644 49.8648 212.563 49.9191C214.564 50.0276 216.618 50.3669 217.875 48.1411C218.186 47.5847 218.781 47.1775 219.227 46.6889C221.417 44.2867 223.593 41.8844 225.958 39.2786ZM252.492 39.6179C250.249 38.885 248.789 39.9301 247.342 41.5044C244.274 44.8567 245.031 44.3002 248.059 46.6346C249.005 47.3675 249.965 47.2318 250.789 46.1596C251.708 44.9788 252.871 44.0017 253.817 42.8345C254.534 41.9387 256.156 41.0294 255.831 40.2015C255.345 38.9529 253.614 39.8486 252.492 39.6315V39.6179ZM274.593 50.9234C275.593 50.9234 276.58 51.1134 277.296 50.2041C279.581 47.2861 281.892 44.3817 284.163 41.4501C284.771 40.6629 284.65 40.1608 283.528 39.9979C281.852 39.7672 280.811 40.7308 279.824 41.803C277.756 44.0424 275.688 46.2953 273.687 48.6161C273.214 49.159 272.187 49.6748 272.498 50.4212C272.822 51.2355 273.917 50.7334 274.606 50.9234H274.593ZM275.634 66.7348C277.121 65.4454 278.607 64.1154 278.986 62.3103C279.5 59.8809 278.351 57.4787 277.986 55.0629C277.864 54.2078 277.148 53.7464 276.418 54.8864C275.823 55.8229 275.161 56.7594 274.336 57.4787C273.593 58.1301 273.512 58.8902 273.768 59.5823C274.579 61.8489 274.458 64.3461 275.634 66.7483V66.7348ZM274.39 78.4881C274.241 77.9453 274.593 77.2259 273.836 77.0088C273.065 76.7916 272.944 77.5245 272.66 77.9588C271.592 79.601 270.538 81.2433 269.497 82.899C268.172 85.0298 266.861 87.1607 265.563 89.305C265.023 90.2008 264.901 91.3408 265.793 91.8566C266.861 92.4809 267.118 91.1101 267.456 90.5129C269.024 87.69 270.876 85.0434 272.552 82.2883C273.282 81.0804 274.377 80.0082 274.39 78.4746V78.4881ZM228.378 57.2344C226.094 56.5422 224.296 57.4787 222.43 57.5601C220.2 57.6687 218.2 58.4694 216.199 59.2837C215.51 59.5552 214.834 60.0845 214.482 60.8174C213.996 61.8217 214.415 62.3782 215.523 62.3782C216.645 62.3782 217.564 61.8081 218.565 61.4553C221.822 60.2881 225.08 59.0937 228.378 57.2344ZM267.848 103.718C268.253 103.243 268.618 102.918 268.875 102.511C271.065 98.8326 273.241 95.141 275.417 91.463C275.593 91.178 275.823 90.893 275.877 90.5808C275.958 90.1058 276.066 89.5086 275.458 89.2643C274.971 89.0743 274.606 89.3457 274.377 89.7936C274.255 90.0379 274.012 90.2144 273.876 90.4587C272.241 93.4309 270.362 96.2539 268.47 99.0769C267.55 100.448 266.956 101.9 267.861 103.732L267.848 103.718ZM275.161 84.3648C275.012 84.0662 275.242 83.4012 274.552 83.2791C274.025 83.1841 273.849 83.6455 273.593 84.0527C271.362 87.6492 269.091 91.2323 266.848 94.8153C266.388 95.5482 265.996 96.2946 266.537 97.1768C266.875 97.7197 267.104 97.9911 267.564 97.2311C269.943 93.3359 272.363 89.4815 274.796 85.6134C275.012 85.2606 275.161 84.9213 275.161 84.3648ZM236.042 42.6716C238.259 41.6944 240.354 41.5858 242.436 42.9023C242.855 43.1602 243.395 43.1195 243.828 42.6716C244.477 41.9794 245.261 41.3958 245.802 40.6358C246.248 39.9979 246.585 39.1293 245.139 39.1565C243.909 39.1836 242.639 39.3057 241.435 39.0886C238.435 38.5457 237.556 41.0022 236.056 42.6716H236.042ZM235.975 54.4521C240.205 52.4027 244.396 51.0184 248.545 48.779C245.288 47.544 237.151 51.2898 235.975 54.4521ZM284.258 59.8809C282.406 61.7131 281.703 63.9389 280.324 65.7033C279.77 66.409 279.783 67.1284 279.837 67.902C279.865 68.3363 279.837 68.8792 280.392 69.0013C280.905 69.1099 281.162 68.662 281.405 68.282C282.203 66.9519 282.892 65.554 283.812 64.319C284.798 62.9889 284.663 61.6588 284.271 59.8945L284.258 59.8809ZM280.946 75.2716C282.527 73.7379 283.244 71.8379 284.433 70.3042C285.028 69.5442 285.271 68.6213 285.582 67.7255C285.785 67.1148 285.582 66.5176 285.055 66.2869C284.379 65.9883 284.501 66.8026 284.271 67.1012C283.082 68.7027 282.162 70.4807 281.135 72.1907C280.54 73.1815 280.567 74.0365 280.946 75.2851V75.2716ZM281.703 80.4832C283.609 77.8367 285.042 75.2987 286.393 72.72C286.569 72.3943 286.596 71.9057 286.109 71.7157C285.704 71.5528 285.501 71.9057 285.325 72.1907C284.555 73.3986 283.636 74.5523 283.055 75.8552C282.46 77.1988 280.878 78.2438 281.703 80.4832Z" fill="black"/>
<path d="M107.427 204.599C102.426 204.599 97.4107 204.802 92.4229 204.558C76.3106 203.785 60.1847 204.355 44.0724 204.083C42.4774 204.056 41.6123 203.934 41.3149 201.952C40.6931 197.745 39.7064 193.578 39.0846 189.358C38.7061 186.806 38.0843 184.282 37.6112 181.744C37.4625 180.902 36.9354 180.671 36.2189 180.549C33.8805 180.169 34.0022 180.156 33.7724 177.835C33.4344 174.428 33.0154 171.035 32.4477 167.669C32.1368 165.797 32.4342 164.439 33.8535 163.014C39.017 157.87 44.0183 152.564 49.1007 147.339C53.4127 142.901 57.7787 138.517 62.0636 134.065C62.9016 133.197 63.7532 132.776 64.9833 132.789C73.4179 132.912 81.8796 132.64 90.2872 133.142C99.3437 133.685 108.387 133.427 117.43 133.726C125.851 133.997 134.272 134.513 142.693 134.418C143.977 134.404 144.558 134.893 144.531 136.196C144.45 139.209 145.099 142.154 145.491 145.113C145.815 147.583 145.369 149.646 143.707 151.437C142.666 152.564 142.287 153.595 142.896 155.197C143.436 156.622 143.612 158.291 143.693 159.811C143.842 162.295 144.328 164.738 144.815 167.113C145.275 169.312 144.356 170.75 143.423 172.338C140.517 177.319 137.543 182.273 134.583 187.24C131.257 192.818 127.919 198.369 124.634 203.975C124.107 204.857 123.377 204.789 122.607 204.789C117.538 204.789 112.482 204.789 107.413 204.789C107.413 204.721 107.413 204.653 107.413 204.585L107.427 204.599ZM101.993 177.862C101.993 177.794 101.993 177.726 101.993 177.645C107.562 177.645 113.131 177.645 118.7 177.645C120.714 177.645 120.701 177.523 120.268 175.663C119.917 174.13 119.471 172.623 119.092 171.117C118.457 168.66 118.754 167.927 115.564 167.927C111.401 167.927 107.238 167.846 103.074 167.805C96.9511 167.724 90.8144 167.778 84.6912 167.398C82.3527 167.249 82.2716 167.452 82.3662 169.827C82.4338 171.809 83.1908 173.655 83.1502 175.663C83.1097 177.658 83.4476 177.862 85.4481 177.862C90.9631 177.862 96.478 177.862 101.979 177.862H101.993ZM76.3646 180.074V180.129C74.1749 180.129 71.9716 180.142 69.7818 180.129C68.7275 180.129 68.2544 180.658 68.5248 181.608C69.2547 184.254 69.5926 186.982 70.1873 189.656C70.9443 193.063 72.0797 196.401 72.323 199.917C72.4447 201.789 73.08 202.373 74.9318 202.373C78.3652 202.373 81.7985 202.4 85.2183 202.414C88.5706 202.414 88.4895 202.427 87.8271 199.129C86.6782 193.375 85.5833 187.593 84.5695 181.811C84.3532 180.549 83.8666 180.047 82.6095 180.088C80.5279 180.142 78.4463 180.101 76.3646 180.101V180.074ZM50.6822 178.446C50.6822 178.337 50.6822 178.228 50.6822 178.12C55.0617 178.12 59.4548 178.133 63.8343 178.12C65.6997 178.12 65.9024 177.835 65.5915 176.016C65.1725 173.573 65.1996 171.09 64.6994 168.647C64.4156 167.262 63.956 166.896 62.6854 166.909C59.7116 166.909 56.7243 166.937 53.7506 166.747C47.9112 166.38 42.0718 166.204 36.2189 166.177C34.9754 166.177 34.3536 166.57 34.5969 167.832C35.1646 170.777 35.3133 173.763 35.7053 176.722C35.8675 177.998 36.5163 178.513 37.8545 178.486C42.1259 178.418 46.3973 178.459 50.6822 178.459V178.446ZM103.007 185.367C103.007 185.367 103.007 185.422 103.007 185.462C107.278 185.462 111.55 185.462 115.821 185.462C119.295 185.476 119.119 185.517 118.687 182.015C118.457 180.115 117.632 179.884 116.078 179.898C106.805 179.993 97.5324 180.02 88.2462 180.074C86.4439 180.083 85.7094 180.979 86.0429 182.762C86.0699 182.87 86.0564 182.992 86.0699 183.101C86.3267 185.259 86.4484 185.381 88.6652 185.381C93.4502 185.381 98.2218 185.381 103.007 185.381V185.367ZM74.6345 178.038C74.6345 178.038 74.6345 177.93 74.6345 177.876C76.7161 177.876 78.7842 177.848 80.8658 177.876C81.9742 177.889 82.4203 177.387 82.2311 176.315C81.8255 174.048 81.4741 171.782 81.2578 169.475C81.1091 167.927 80.244 167.113 78.4463 167.154C74.7967 167.235 71.1471 167.086 67.4975 166.964C66.3485 166.923 65.9835 167.249 65.9971 168.497C66.0241 171.103 66.9027 173.6 66.8351 176.193C66.7946 177.686 67.4704 178.038 68.741 178.025C70.701 177.998 72.6745 178.025 74.6345 178.025V178.038ZM111.428 152.252C116.537 152.252 121.66 152.17 126.77 152.292C128.568 152.333 129.892 151.926 130.771 150.311C131.055 149.795 131.839 149.429 131.514 148.764C131.23 148.18 130.501 148.465 129.973 148.465C121.998 148.384 114.01 148.37 106.035 148.248C103.466 148.207 100.898 147.976 98.5056 149.212C97.3837 149.795 96.2347 150.324 95.0588 150.799C94.5181 151.017 93.8152 151.261 93.8693 151.804C93.9504 152.605 94.7749 152.224 95.2615 152.224C100.655 152.252 106.062 152.238 111.455 152.238L111.428 152.252ZM106.089 202.4C106.089 202.4 106.089 202.495 106.089 202.536C110.982 202.536 115.862 202.536 120.755 202.522C121.322 202.522 122.188 202.848 122.228 201.694C122.296 199.767 121.268 198.614 119.376 198.586C118.876 198.586 118.362 198.586 117.862 198.586C112.198 198.478 106.521 198.763 100.858 198.383C97.5594 198.166 94.2342 198.206 90.9361 198.152C90.2872 198.152 89.5303 198.016 89.2059 198.844C88.4759 200.677 89.6384 202.4 91.6119 202.414C96.4375 202.414 101.277 202.414 106.102 202.414L106.089 202.4ZM78.2976 165.376C79.8385 165.118 81.2984 165.864 82.3257 164.494C84.6776 161.358 87.1648 158.332 89.2735 155.02C89.5168 154.64 90.1791 154.369 89.7466 153.758C89.287 153.107 88.7193 153.555 88.2462 153.745C83.8666 155.441 79.4871 157.11 75.1481 158.888C73.2557 159.662 70.9849 159.716 69.7143 161.725C69.2817 162.404 68.7005 162.987 68.1868 163.625C67.9976 163.869 67.5786 164.019 67.7948 164.439C67.9841 164.792 68.349 164.806 68.6734 164.806C71.9851 164.806 75.2698 164.996 78.2976 165.376ZM54.1696 184.784V184.906C58.2112 184.906 62.2528 184.906 66.2944 184.906C66.7675 184.906 67.3353 185.096 67.6461 184.512C68.5788 182.707 67.0514 180.183 65.0373 180.183C64.1993 180.183 63.3477 180.183 62.5097 180.183C55.4943 180.319 48.4789 180.183 41.4636 180.549C40.9229 180.576 40.2876 180.454 39.9361 181.038C39.1251 182.354 40.3417 184.757 41.8691 184.77C45.9648 184.797 50.0739 184.77 54.1696 184.77V184.784ZM103.02 187.295C103.02 187.295 103.02 187.186 103.02 187.145C98.1271 187.145 93.2475 187.186 88.3543 187.118C86.9756 187.105 86.7052 187.729 86.9215 188.882C87.2189 190.484 88.3678 190.878 89.7871 190.878C93.9504 190.891 98.1001 190.905 102.263 190.918C107.657 190.932 113.05 190.918 118.443 191C119.714 191.013 120.16 190.633 119.998 189.344C119.809 187.81 119.268 187.308 117.186 187.295C112.469 187.267 107.751 187.295 103.034 187.295H103.02ZM99.3302 192.832V192.615C96.0185 192.615 92.7068 192.615 89.3816 192.615C88.949 192.615 88.4489 192.465 88.1786 192.981C87.6244 194.067 88.949 196.334 90.1656 196.347C97.2485 196.401 104.318 196.442 111.401 196.496C114.145 196.524 116.902 196.591 119.646 196.591C120.444 196.591 121.16 196.361 120.917 195.302C120.714 194.433 121.255 193.103 119.579 193.103C117.957 193.103 116.335 192.927 114.726 192.886C109.59 192.737 104.453 192.832 99.3166 192.832H99.3302ZM57.0217 198.03C57.0217 198.03 57.0217 197.962 57.0217 197.921C52.9125 197.921 48.8033 197.921 44.7077 197.921C43.9102 197.921 42.9505 197.677 42.9505 199.075C42.9505 201.029 43.3965 201.749 44.8293 201.789C53.2369 202.02 61.6581 201.532 70.0657 202.278C70.5793 202.319 71.066 202.278 71.3633 201.722C72.0392 200.419 70.6604 198.044 69.1736 198.03C65.1184 198.016 61.0768 198.03 57.0217 198.03ZM55.8998 192.533C55.8998 192.533 55.8998 192.466 55.8998 192.438C51.7365 192.438 47.5733 192.438 43.41 192.438C42.9234 192.438 42.3151 192.262 42.0178 192.791C41.3554 193.958 42.6936 196.171 44.0724 196.198C45.6403 196.239 47.2218 196.198 48.8033 196.211C55.3862 196.239 61.969 196.279 68.5518 196.279C69.0519 196.279 69.7007 196.564 70.0387 195.845C70.7551 194.284 69.6467 192.52 67.903 192.52C63.9019 192.52 59.9144 192.52 55.9133 192.52L55.8998 192.533ZM96.0725 139.168C95.1263 139.128 94.6668 139.263 94.2207 139.535C90.7198 141.543 87.9082 144.407 84.8399 146.959C84.3803 147.339 84.2857 147.99 84.8669 148.411C85.9753 149.212 86.8674 150.284 88.0704 151.003C88.7868 151.437 89.2194 151.41 89.8141 150.935C91.1794 149.822 92.5446 148.709 93.9774 147.678C96.3023 145.995 98.6408 144.298 101.56 143.742C101.831 143.688 102.155 143.688 102.223 143.348C102.317 142.914 102.142 142.602 101.777 142.358C100.209 141.313 98.7354 140.105 96.9647 139.399C96.5592 139.236 96.0996 139.195 96.0725 139.195V139.168ZM128.838 156.486C125.959 159.716 123.485 163.191 120.849 166.516C120.484 166.977 120.268 167.561 120.484 168.253C121.133 170.316 121.404 172.488 122.228 174.51C122.363 174.849 122.228 175.378 122.782 175.405C123.188 175.419 123.526 175.229 123.783 174.876C125.851 172.08 127.905 169.285 129.987 166.502C130.96 165.213 131.028 163.774 130.501 162.363C130.136 161.372 130.014 160.395 130.041 159.391C130.054 158.25 129.635 157.368 128.851 156.486H128.838ZM60.9687 190.783C63.2125 190.783 65.4564 190.783 67.7137 190.783C68.2544 190.783 68.8492 190.932 69.1465 190.213C69.7143 188.787 68.687 187.118 67.1595 187.077C66.3215 187.05 65.4699 187.077 64.6318 187.064C57.2921 186.915 49.9388 187.39 42.599 186.697C41.9367 186.63 41.1932 186.535 40.8688 187.349C40.3281 188.692 41.369 190.28 42.8558 190.267C48.898 190.226 54.9266 190.945 60.9687 190.796V190.783ZM66.2133 153.432C66.4702 154.41 66.5648 155.577 67.0649 156.54C67.9165 158.183 69.0519 158.033 70.0657 156.418C70.4577 155.78 71.0795 155.088 71.7418 154.844C74.9183 153.677 78.0543 152.279 81.5282 152.265C82.988 152.265 84.4479 152.184 85.9077 152.17C86.57 152.17 87.0702 151.654 86.6241 151.302C85.2318 150.202 84.1775 148.574 82.1094 148.465C78.1624 148.275 74.283 149.089 70.3631 149.266C68.2274 149.361 66.2539 151.451 66.1998 153.446L66.2133 153.432ZM115.47 165.987C116.659 165.905 118.065 166.624 118.984 165.498C121.863 161.956 124.634 158.345 127.446 154.762C127.892 154.192 127.838 153.5 127.175 153.446C125.256 153.283 123.12 152.659 121.566 154.26C118.362 157.572 115.307 161.033 112.171 164.412C111.225 165.43 111.901 165.824 112.78 165.959C113.658 166.095 114.577 165.987 115.47 165.987ZM70.5523 147.963C70.1738 147.393 69.5791 147.583 69.0384 147.583C64.4967 147.556 59.9009 147.895 55.4132 147.406C51.3581 146.959 49.9523 149.849 47.4246 152.143C48.3573 152.197 48.8574 152.265 49.3575 152.265C54.1291 152.265 58.9006 152.225 63.6721 152.306C64.8076 152.32 65.4564 151.899 65.9565 151.003C66.8216 149.442 68.0246 148.424 69.9035 148.397C70.1738 148.397 70.4712 148.329 70.5658 147.976L70.5523 147.963ZM143.774 146.484C143.139 144.896 143.207 142.806 143.004 140.743C142.963 140.322 143.004 139.752 142.436 139.643C141.949 139.548 141.679 139.942 141.382 140.322C139.625 142.588 137.84 144.855 136.029 147.067C135.367 147.868 135.272 148.709 135.286 149.714C135.299 151.478 135.907 153.12 136.151 154.83C136.232 155.36 136.07 156.025 136.786 156.255C137.597 156.513 137.894 155.78 138.219 155.346C139.949 153.066 141.585 150.718 143.342 148.451C143.734 147.936 143.774 147.461 143.788 146.484H143.774ZM133.42 184.662C134.961 182.083 137.435 180.006 136.854 176.586C136.191 172.664 135.718 168.701 135.394 164.724C135.367 164.453 135.421 164.114 135.083 164.005C134.65 163.856 134.312 164.114 134.069 164.439C133.19 165.579 132.312 166.733 131.501 167.914C131.19 168.362 131.068 168.891 131.149 169.502C131.595 172.732 131.798 176.016 132.447 179.206C132.812 180.997 132.961 182.816 133.42 184.648V184.662ZM103.534 136.372C103.318 135.572 102.723 135.409 101.993 135.409C100.195 135.409 98.3704 135.558 96.5997 135.314C92.869 134.798 89.9493 135.762 88.1245 139.25C87.9758 139.535 87.6784 139.752 87.4622 140.01C85.9618 141.869 84.4479 143.715 82.9745 145.588C82.7853 145.832 82.2851 146.199 82.7582 146.579C83.0691 146.823 83.4881 146.796 83.8261 146.47C84.0694 146.239 84.3532 146.076 84.6236 145.859C87.0972 143.878 89.4221 141.747 91.9228 139.793C94.464 137.811 96.9106 137.865 99.2761 139.467C99.7627 139.806 100.303 140.213 100.79 139.86C102.007 138.965 102.736 137.635 103.547 136.372H103.534ZM91.4362 165.376C93.0988 165.905 94.0855 164.996 94.9912 163.829C95.221 163.53 95.5048 163.259 95.7617 162.987C98.3029 160.273 100.966 157.667 103.304 154.762C104.156 153.69 103.656 153.419 102.655 153.31C100.682 153.093 99.1004 153.745 97.7622 155.292C95.4778 157.925 93.0988 160.49 90.7063 163.014C90.125 163.625 89.2059 164.331 89.3816 164.996C89.6114 165.837 90.7603 165.226 91.4497 165.376H91.4362ZM99.0057 165.498C99.8303 165.362 100.831 165.824 101.696 164.86C104.71 161.453 107.765 158.088 110.887 154.79C111.806 153.812 111.225 153.514 110.441 153.378C108.63 153.066 106.94 153.432 105.71 154.898C103.21 157.857 100.506 160.626 97.8162 163.421C97.4107 163.842 96.5727 164.344 96.9106 165.077C97.235 165.81 98.1001 165.389 98.7219 165.498C98.776 165.498 98.83 165.498 99.0057 165.498ZM78.2976 146.674C80.0413 147.094 81.2038 146.28 82.1635 144.977C83.3124 143.403 84.556 141.923 85.8672 140.485C86.9485 139.304 87.8947 137.987 88.8409 136.698C89.2194 136.196 89.5438 135.449 88.53 135.368C86.7593 135.205 85.0696 135.11 83.6774 136.834C81.6363 139.372 79.2708 141.638 77.1216 144.095C76.608 144.692 75.486 145.221 75.7699 146.022C76.1619 147.162 77.446 146.511 78.3111 146.687L78.2976 146.674ZM106.521 165.552C107.819 165.688 108.914 165.389 109.833 164.358C112.712 161.114 115.591 157.884 118.578 154.749C119.403 153.88 119.025 153.514 118.268 153.405C116.673 153.188 115.078 152.998 113.78 154.45C111.049 157.477 108.197 160.408 105.44 163.408C104.98 163.91 104.075 164.48 104.372 165.131C104.737 165.946 105.791 165.403 106.521 165.539V165.552ZM46.3432 164.439C47.3435 164.521 48.3167 164.385 49.0061 163.652C51.8177 160.653 54.5751 157.613 57.3461 154.586C57.9003 153.989 57.7111 153.419 57.0082 153.378C55.5348 153.283 54.0615 153.039 52.7774 154.315C49.9388 157.11 47.3165 160.11 44.5725 162.987C43.8291 163.774 44.0994 164.154 44.9915 164.344C45.4241 164.439 45.8837 164.426 46.3297 164.453L46.3432 164.439ZM36.0162 163.245C36.1108 163.408 36.2054 163.571 36.3001 163.734C37.9221 164.154 39.8415 164.928 41.1527 163.693C44.1805 160.87 46.8974 157.708 49.7225 154.667C50.3037 154.03 50.0739 153.432 49.2764 153.351C47.7896 153.188 46.3568 153.107 45.0997 154.396C42.1529 157.423 39.0575 160.3 36.0297 163.245H36.0162ZM116.186 146.877C117.605 147.149 118.646 146.701 119.484 145.479C120.106 144.57 120.944 143.823 121.701 143.023C123.445 141.163 125.215 139.331 126.905 137.417C127.108 137.187 128.108 136.698 127.162 136.128C126.378 135.667 123.08 136.101 122.512 136.698C120.065 139.331 117.632 141.95 115.226 144.611C114.713 145.167 113.645 145.669 113.929 146.416C114.28 147.339 115.429 146.66 116.186 146.864V146.877ZM82.0689 135.477C80.2846 135.572 78.3787 134.472 76.8513 136.115C74.0667 139.128 71.3228 142.168 68.5518 145.194C68.0517 145.737 68.0787 146.104 68.8356 146.199C70.8227 146.429 72.8367 146.769 74.1614 144.624C74.3776 144.285 74.7426 143.959 75.0265 143.647C77.392 140.987 80.0278 138.585 82.0689 135.477ZM132.65 136.087C131.825 136.128 130.893 135.83 130.23 136.522C127.378 139.562 124.567 142.629 121.755 145.724C121.498 146.009 121.12 146.47 121.741 146.85C122.417 147.284 125.513 147.121 126.067 146.524C128.838 143.579 131.609 140.62 134.326 137.607C135.042 136.807 134.894 136.155 133.664 136.115C133.326 136.115 132.988 136.087 132.65 136.06V136.087ZM62.9287 146.144C64.6994 146.592 65.8078 145.642 66.8081 144.407C67.2947 143.81 67.8219 143.253 68.322 142.683C70.2279 140.512 72.3771 138.585 74.1073 136.25C74.3506 135.925 74.9454 135.599 74.1073 135.273C72.688 134.703 70.0387 135.382 68.9438 136.562C66.6459 139.046 64.3209 141.489 62.0366 143.973C61.5229 144.529 60.5362 145.14 60.7795 145.778C61.0768 146.551 62.1852 145.995 62.9016 146.144H62.9287ZM53.8452 164.534C55.0617 164.765 55.9944 164.426 56.7919 163.421C57.5759 162.431 58.5492 161.589 59.3872 160.639C60.9822 158.875 62.5502 157.07 64.1317 155.292C64.5237 154.844 64.7129 154.328 64.4291 153.758C64.1452 153.188 63.5775 153.324 63.0909 153.27C61.5364 153.107 60.3334 153.88 59.4683 155.007C57.4813 157.613 54.859 159.594 52.9125 162.213C52.453 162.838 51.1823 163.164 51.6554 164.127C52.0204 164.887 53.1018 164.358 53.8317 164.521L53.8452 164.534ZM106.062 146.551C108.954 147.298 111.252 146.931 112.901 144.475C113.266 143.932 113.766 143.484 114.199 143.009C115.889 141.163 117.592 139.345 119.254 137.485C120.106 136.535 120.065 136.033 118.578 135.938C116.551 135.802 115.105 136.264 113.699 138.001C111.333 140.919 108.522 143.471 106.062 146.565V146.551ZM131.163 147.339C132.623 147.719 133.542 146.85 134.353 145.805C136.259 143.362 138.138 140.892 140.071 138.476C140.503 137.933 141.125 137.472 140.679 136.752C140.26 136.087 139.462 136.277 138.814 136.332C138.394 136.359 137.881 136.549 137.597 136.847C134.772 139.833 131.987 142.86 129.216 145.9C128.554 146.633 128.946 147.149 129.771 147.339C130.203 147.434 130.663 147.352 131.149 147.352L131.163 147.339ZM93.7476 153.229C92.4364 153.025 91.4767 154.084 90.5711 155.278C88.4489 158.06 86.3538 160.843 84.2046 163.598C83.8531 164.046 83.6233 164.453 83.8126 164.955C84.0559 165.607 84.6777 165.281 85.1372 165.362C85.759 165.471 86.2456 165.172 86.6376 164.751C89.7195 161.399 92.7744 158.02 95.8698 154.667C96.5321 153.948 96.1942 153.568 95.4913 153.351C95.0723 153.229 94.5992 153.283 93.7611 153.242L93.7476 153.229ZM62.4691 164.643C64.1723 164.643 65.7402 164.982 67.2136 163.177C70.336 159.35 69.6061 160.327 66.6594 157.545C66.0782 157.002 65.6051 156.744 64.8211 157.423C62.6583 159.323 61.0633 161.725 59.0493 163.747C58.3869 164.426 59.1304 164.589 59.6035 164.616C60.5497 164.67 61.5094 164.629 62.4556 164.629L62.4691 164.643ZM108.603 135.897C106.481 135.273 104.886 136.169 103.547 138.218C101.79 140.905 101.385 140.838 104.007 142.534C104.386 142.778 104.845 142.928 105.129 143.253C105.629 143.823 105.926 143.593 106.332 143.172C108.224 141.163 110.157 139.195 112.009 137.16C112.672 136.44 112.374 135.925 111.387 135.911C110.549 135.911 109.698 135.911 108.603 135.911V135.897ZM53.7236 145.886C55.2104 146.294 56.5486 146.104 57.8733 146.063C58.0625 146.063 58.3329 145.9 58.414 145.737C59.4548 143.661 61.3066 142.276 62.807 140.607C63.983 139.29 65.159 137.974 66.3755 136.671C66.6999 136.318 67.0244 135.979 66.8486 135.504C66.6459 134.961 66.0782 135.164 65.6591 135.137C64.4967 135.042 63.5099 135.259 62.6583 136.237C61.3742 137.716 59.8738 138.992 58.6032 140.471C57.0623 142.263 55.1564 143.756 53.7236 145.886ZM135.38 157.151C135.542 155.129 134.556 153.432 134.475 151.559C134.434 150.596 133.812 150.189 132.92 151.125C132.001 152.102 131.257 153.215 130.419 154.247C130.054 154.708 129.933 155.237 130.149 155.658C130.96 157.26 130.501 159.133 131.339 160.721C131.717 161.426 131.068 162.661 132.069 162.919C133.258 163.231 133.204 161.766 133.772 161.168C134.84 160.056 135.961 158.82 135.407 157.138L135.38 157.151ZM130.663 174.754C130.541 174.265 130.893 173.533 130.109 173.343C129.46 173.193 129.27 173.818 129.014 174.211C127.513 176.627 126.04 179.056 124.553 181.472C123.62 182.992 122.607 184.472 121.768 186.046C121.39 186.765 121.255 187.824 122.133 188.312C122.877 188.72 123.418 187.81 123.647 187.349C125.445 183.82 127.702 180.576 129.825 177.238C130.257 176.546 130.893 175.745 130.663 174.74V174.754ZM84.3532 153.242C80.7847 153.446 77.4325 154.002 74.1479 154.857C73.08 155.142 71.9986 155.767 71.1606 156.622C70.6334 157.165 70.4847 157.83 70.8227 158.481C71.1876 159.201 71.7688 158.739 72.296 158.617C76.1889 157.68 79.7169 155.74 83.5017 154.491C83.9207 154.355 84.2046 153.975 84.3668 153.242H84.3532ZM124.107 199.903C124.661 199.632 124.986 199.319 125.242 198.871C126.432 196.809 127.675 194.773 128.878 192.723C129.825 191.108 130.717 189.453 131.731 187.892C132.285 187.037 132.582 185.87 131.933 185.449C130.974 184.824 130.622 186.209 130.23 186.792C128.297 189.751 126.527 192.805 124.621 195.777C123.81 197.053 123.539 198.315 124.093 199.903H124.107ZM122.769 192.493C122.89 192.995 122.769 193.714 123.269 193.863C124.026 194.108 124.215 193.226 124.485 192.791C126.635 189.222 128.797 185.679 131.136 182.232C131.568 181.581 131.555 180.848 131.46 180.115C131.42 179.789 131.379 179.396 130.933 179.396C130.582 179.396 130.325 179.531 130.136 179.884C128.541 182.938 126.527 185.734 124.783 188.692C124.066 189.9 122.944 190.973 122.796 192.493H122.769ZM104.656 144.773C103.683 144.353 102.818 144.366 102.034 144.543C98.384 145.384 95.5454 147.759 92.5175 149.782C92.2607 149.958 92.112 150.202 92.3689 150.474C92.5987 150.718 92.8825 150.596 93.1393 150.474C96.0996 149.13 99.0598 147.759 102.088 146.551C102.966 146.199 103.994 145.9 104.656 144.773ZM140.476 156.31C138.922 158.183 137.881 160.259 136.637 162.2C136.164 162.933 136.124 163.666 136.286 164.453C136.353 164.779 136.475 165.131 136.854 165.213C137.259 165.308 137.448 164.996 137.638 164.711C138.057 164.073 138.597 163.489 138.895 162.797C139.76 160.775 142.152 159.133 140.476 156.31ZM136.935 169.855C137.029 170.343 136.867 170.967 137.394 171.076C137.881 171.171 138.219 170.845 138.489 170.302C138.976 169.312 139.692 168.443 140.273 167.507C140.963 166.38 141.72 165.267 142.058 163.964C142.206 163.408 142.031 162.946 141.476 162.729C140.895 162.512 140.895 163.055 140.692 163.354C140.044 164.317 139.206 165.199 138.773 166.244C138.246 167.52 137.056 168.457 136.935 169.868V169.855ZM137.989 176.6C138.3 176.695 138.381 176.423 138.503 176.274C140.057 174.17 141.247 171.863 142.517 169.597C142.788 169.122 143.396 168.552 142.747 168.185C142.193 167.873 141.787 168.497 141.436 169.054C140.53 170.506 139.652 171.972 138.692 173.397C138.111 174.238 137.205 175.324 138.003 176.6H137.989Z" fill="black"/>
<path d="M209.211 315.416C196.884 315.416 184.583 315.171 172.256 315.144C170.296 315.144 168.39 314.533 166.403 314.683C165.835 314.723 165.592 314.357 165.457 313.746C164.213 307.883 163.28 301.966 162.28 296.048C162.077 294.84 161.523 293.7 161.496 292.438C161.469 291.556 160.82 291.42 160.077 291.352C157.833 291.162 157.752 291.081 157.698 288.842C157.603 285.394 156.968 282.028 156.441 278.649C156.157 276.817 156.346 275.337 157.752 273.912C163.199 268.429 168.552 262.838 173.945 257.287C178.109 253.011 182.285 248.75 186.449 244.475C187.097 243.81 187.8 243.443 188.814 243.47C191.626 243.565 194.451 243.348 197.249 243.565C211.888 244.651 226.581 244.095 241.233 244.746C249.492 245.113 257.765 244.977 266.024 245.058C268.146 245.085 268.308 245.235 268.484 247.338C268.795 250.921 269.2 254.504 269.944 258.033C270.065 258.63 270.187 259.268 269.538 259.716C269.416 259.797 269.376 260.028 269.254 260.123C265.902 262.81 266.686 266.298 267.348 269.773C267.97 273.017 268.578 276.274 269.146 279.531C269.281 280.291 268.741 280.929 268.376 281.553C264.456 288.136 260.482 294.705 256.562 301.287C254.088 305.44 251.614 309.58 249.276 313.8C248.519 315.158 247.586 315.443 246.181 315.443C233.853 315.402 221.539 315.416 209.211 315.416C209.211 315.511 209.211 315.321 209.211 315.416ZM212.482 268.171C212.063 266.991 213.212 266.57 213.631 265.796C213.821 265.443 214.118 265.104 213.969 264.724C213.753 264.181 213.199 264.371 212.78 264.371C211.685 264.371 210.82 265.077 209.847 265.443C206.129 266.855 202.48 268.47 198.736 269.786C196.181 270.682 193.856 271.727 192.383 274.143C192.126 274.564 191.572 274.876 191.774 275.446C192.004 276.084 192.639 275.84 193.113 275.84C196.086 275.88 199.087 275.731 202.047 275.975C204.764 276.206 206.819 275.677 208.049 273.017C208.468 272.134 209.211 271.374 209.914 270.669C210.779 269.8 212.714 266.149 214.188 265.932C214.269 266.814 212.05 269.583 211.59 270.194C210.509 271.605 209.387 272.976 208.238 274.333C207.927 274.7 207.657 275.08 207.779 275.541C207.941 276.125 208.508 275.948 208.927 275.975C212.847 276.165 216.767 276.192 220.687 276.45C227.527 276.885 234.407 276.722 241.26 276.817C242.125 276.817 242.842 276.695 243.437 275.894C245.924 272.569 248.478 269.298 251.033 266.013C251.371 265.579 252.033 265.145 251.817 264.683C251.52 264.059 250.709 264.371 250.114 264.358C239.26 264.344 228.406 264.358 217.538 264.317C216.2 264.317 215.362 264.792 214.686 265.932C214.145 266.841 213.658 267.886 212.469 268.171H212.482ZM229.906 313.095C229.906 313.23 229.906 313.366 229.906 313.502C234.745 313.502 239.584 313.502 244.41 313.502C245.991 313.502 246.532 312.973 246.032 311.602C245.275 309.566 245.397 307.408 244.91 305.332C243.937 301.192 243.315 296.958 242.639 292.75C242.328 290.769 241.463 290.565 239.868 290.592C230.703 290.687 221.539 290.728 212.361 290.796C209.563 290.81 209.576 290.796 209.968 293.429C210.009 293.714 209.995 293.999 210.049 294.27C210.482 296.632 210.915 299.007 211.361 301.369C211.955 304.504 212.631 307.612 213.118 310.76C213.442 312.891 213.456 313.081 215.551 313.095C220.336 313.122 225.121 313.502 229.906 313.502V313.095ZM181.542 312.905V312.986C185.651 312.986 189.747 312.932 193.856 313.013C195.221 313.04 195.762 312.593 195.437 311.276C194.748 308.44 194.302 305.549 193.613 302.739C192.869 299.699 192.356 296.618 191.653 293.565C191.166 291.447 191.139 291.203 188.976 291.217C181.555 291.257 174.135 291.325 166.714 291.366C163.551 291.38 163.361 291.61 163.997 294.732C164.024 294.84 164.051 294.949 164.078 295.058C165.294 300.296 166.227 305.589 166.97 310.91C167.173 312.375 167.741 312.959 169.228 312.932C173.337 312.864 177.433 312.905 181.542 312.905ZM265.456 247.596C264.753 247.488 264.361 247.379 263.983 247.379C253.98 247.488 243.991 246.918 234.002 246.497C230.541 246.348 228.23 247.257 226.757 250.351C226.729 250.392 226.662 250.406 226.621 250.46C225.959 251.383 225.945 252.129 227.04 252.794C228.122 253.459 229.149 254.233 230.136 255.034C230.622 255.427 231.055 255.997 230.298 256.554C229.947 256.812 229.392 256.92 229.622 257.517C229.838 258.047 230.393 257.897 230.812 257.897C239.179 257.979 247.559 258.06 255.926 258.128C256.535 258.128 257.17 258.182 257.616 257.599C260.157 254.342 262.698 251.071 265.442 247.569L265.456 247.596ZM216.051 278.283C212.645 278.283 210.333 278.391 208.035 278.242C206.427 278.147 206.184 278.771 206.251 280.196C206.359 282.341 207.224 284.336 207.143 286.521C207.062 288.516 207.684 288.937 209.725 288.909C217.592 288.76 225.472 288.611 233.339 288.462C236.597 288.407 239.868 288.394 243.126 288.326C243.883 288.312 244.869 288.434 244.477 287.091C243.95 285.313 243.612 283.467 243.004 281.757C242.653 280.766 243.126 278.92 240.895 278.948C232.244 279.083 223.594 278.785 216.065 278.269L216.051 278.283ZM174.797 289.167V289.072C179.23 289.072 183.678 289.072 188.111 289.072C189.193 289.072 189.977 288.733 189.733 287.539C189.179 284.879 189.139 282.164 188.719 279.49C188.476 277.916 187.854 277.604 186.476 277.604C179.514 277.55 172.54 277.441 165.578 277.346C163.726 277.319 161.875 277.278 160.023 277.237C159.09 277.21 158.414 277.495 158.685 278.595C159.428 281.676 159.144 284.879 159.915 287.959C160.171 288.991 160.577 289.181 161.483 289.181C165.916 289.154 170.363 289.181 174.797 289.181V289.167ZM204.575 313.054C204.575 313.054 204.575 313.108 204.575 313.135C206.603 313.135 208.617 313.149 210.644 313.135C212.428 313.122 212.712 312.715 212.266 310.978C210.698 305.019 209.928 298.898 208.63 292.886C208.319 291.434 207.751 290.837 206.319 290.877C202.223 290.986 198.127 291.081 194.032 291.108C192.558 291.108 192.274 291.855 192.585 293.035C193.221 295.465 193.626 297.948 194.18 300.391C194.978 303.825 195.667 307.272 196.303 310.733C196.64 312.565 197.087 313.04 198.871 313.054C200.777 313.054 202.696 313.054 204.602 313.054H204.575ZM191.517 257.259C191.517 257.259 191.517 257.341 191.517 257.395C195.397 257.395 199.276 257.395 203.156 257.395C203.886 257.395 204.629 257.504 205.183 256.839C207.765 253.717 210.36 250.623 212.915 247.488C213.415 246.877 213.212 246.375 212.401 246.375C210.766 246.375 209.157 246.008 207.549 245.968C201.426 245.832 195.289 245.859 189.152 245.805C188.449 245.805 187.922 245.968 187.408 246.497C184.556 249.483 181.637 252.401 178.784 255.387C178.433 255.753 177.784 256.092 178.054 256.784C178.338 257.504 179.014 257.246 179.528 257.246C183.515 257.273 187.516 257.246 191.504 257.246L191.517 257.259ZM179.176 264.358C176.649 264.344 174.108 264.398 171.58 264.317C170.404 264.276 169.471 264.656 168.755 265.484C166.308 268.321 163.605 270.913 160.996 273.587C160.699 273.899 160.225 274.252 160.374 274.686C160.55 275.188 161.145 275.052 161.564 275.052C170.512 275.12 179.447 275.297 188.382 275.799C188.868 275.826 189.463 276.002 189.828 275.582C191.031 274.211 192.883 273.057 193.072 271.252C193.207 269.936 191.436 269.094 190.396 268.158C189.99 267.791 189.639 267.357 189.22 266.991C188.774 266.597 188.463 266.176 188.557 265.538C188.706 264.507 188.152 264.317 187.273 264.331C184.57 264.358 181.866 264.331 179.163 264.331L179.176 264.358ZM253.71 281.173C251.614 283.996 249.722 286.575 247.789 289.14C247.33 289.751 246.937 290.565 246.032 290.552C244.667 290.524 244.667 291.325 244.761 292.33C244.964 294.501 245.37 296.673 245.789 298.776C246.451 302.183 246.924 305.63 247.776 309.01C247.911 309.539 247.627 310.394 248.181 310.53C248.925 310.706 249.195 309.865 249.546 309.281C251.493 305.997 253.358 302.658 255.453 299.468C256.467 297.921 256.454 296.401 256.048 294.827C255.832 293.945 255.615 293.076 255.561 292.18C255.372 289.371 254.588 286.629 254.656 283.793C254.683 282.938 254.183 282.218 253.71 281.187V281.173ZM198.533 289.045C198.533 289.045 198.533 289.004 198.533 288.991C200.614 288.991 202.696 288.991 204.778 288.991C205.602 288.991 206.332 288.719 206.211 287.756C205.832 284.919 205.359 282.096 204.913 279.26C204.805 278.527 204.372 278.269 203.629 278.242C199.695 278.106 195.762 277.97 191.828 277.753C190.463 277.672 190.017 278.038 189.99 279.518C189.936 282.354 190.815 285.069 190.909 287.878C190.95 288.937 191.774 289.059 192.626 289.059C194.599 289.059 196.559 289.059 198.533 289.059V289.045ZM235.407 263.15C240.747 263.15 246.086 263.15 251.412 263.15C252.993 263.15 255.034 261.67 255.507 260.272C255.724 259.621 255.345 259.268 254.791 259.187C254.129 259.078 253.453 259.105 252.777 259.092C245.086 259.051 237.381 259.241 229.69 258.888C225.594 258.698 222.228 260.232 218.741 261.806C218.403 261.955 217.687 261.942 217.889 262.607C218.038 263.095 218.606 263.082 219.052 263.109C219.552 263.136 220.066 263.136 220.566 263.136C225.513 263.136 230.447 263.136 235.394 263.136L235.407 263.15ZM254.804 274.795C254.615 272.732 253.899 270.764 253.777 268.674C253.696 267.344 252.831 267.167 251.952 268.28C249.736 271.035 247.627 273.885 245.451 276.667C244.896 277.387 244.261 278.011 244.545 279.056C245.099 281.078 245.572 283.141 246.181 285.15C246.613 286.589 246.978 286.643 247.924 285.408C250.006 282.666 251.993 279.843 254.102 277.129C254.669 276.396 254.872 275.677 254.804 274.808V274.795ZM226.527 254.124C225.486 252.754 224.283 252.061 223.174 251.383C221.147 250.148 218.944 249.673 216.767 251.261C213.983 253.283 211.455 255.59 208.887 257.857C208.157 258.508 208.495 259.2 209.09 259.54C210.036 260.069 210.712 260.883 211.55 261.521C212.55 262.295 213.239 262.227 214.199 261.467C217.916 258.481 221.634 255.468 226.54 254.124H226.527ZM210.712 262.525C209.347 261.25 208.373 259.431 206.265 259.553C202.034 259.811 197.749 259.255 193.559 260.422C191.734 260.924 190.247 262.62 190.004 264.982C189.882 266.163 191.382 268.348 192.693 268.809C193.248 268.999 193.775 268.864 193.829 268.212C193.924 266.936 194.87 266.366 195.775 265.864C198.398 264.439 201.209 263.638 204.197 263.462C206.359 263.34 208.441 262.593 210.725 262.525H210.712ZM264.429 266.692C263.401 268.104 262.644 269.42 261.617 270.465C260.076 272.012 259.873 273.777 260.36 275.717C260.617 276.708 260.806 277.699 260.806 278.717C260.806 281.377 261.806 283.915 261.712 286.575C261.712 286.887 261.658 287.362 262.077 287.389C262.333 287.389 262.698 287.118 262.861 286.86C263.307 286.154 263.577 285.313 264.077 284.661C266.172 281.92 267.713 279.083 266.28 275.487C266.199 275.283 266.253 275.025 266.186 274.822C265.361 272.27 265.848 269.434 264.429 266.678V266.692ZM194.667 258.739C194.14 258.155 193.721 258.25 193.342 258.25C188.449 258.223 183.542 258.305 178.663 258.155C176.662 258.087 175.229 258.793 174.013 260.245C173.729 260.585 173.418 260.91 173.121 261.25C172.756 261.657 172.093 261.996 172.337 262.607C172.567 263.19 173.283 263.136 173.837 263.136C178.446 263.136 183.069 263.15 187.679 263.136C188.355 263.136 189.179 263.123 189.49 262.444C190.504 260.272 192.504 259.512 194.667 258.739ZM259.387 260.748C259.076 262.77 260.306 264.561 260.198 266.556C260.171 266.95 260.428 267.316 260.901 267.384C261.279 267.425 261.468 267.221 261.698 266.909C263.523 264.317 265.348 261.738 267.24 259.2C267.686 258.59 267.875 257.938 267.659 257.314C267.051 255.631 267.146 253.88 266.997 252.156C266.943 251.573 267.078 250.799 266.294 250.609C265.551 250.433 265.226 251.193 264.929 251.627C263.55 253.649 261.982 255.522 260.401 257.395C259.562 258.4 259.008 259.404 259.387 260.748ZM260.887 289.018C260.319 284.078 259.833 279.789 259.346 275.514C259.319 275.256 259.387 274.917 259.076 274.781C258.697 274.618 258.4 274.89 258.197 275.12C257.44 276.002 256.859 277.02 256.143 277.903C255.21 279.07 255.142 280.128 255.305 281.594C255.588 284.159 256.305 286.684 256.278 289.276C256.251 291.108 256.886 292.805 257.021 294.583C257.089 295.356 257.44 295.492 257.94 294.868C259.468 292.954 260.847 290.972 260.901 289.032L260.887 289.018ZM221.39 246.497C221.39 246.497 221.39 246.429 221.39 246.388C219.755 246.388 218.133 246.402 216.497 246.388C215.686 246.388 215.091 246.524 214.497 247.27C212.361 249.971 210.076 252.55 207.927 255.237C207.468 255.821 206.265 256.527 206.832 257.151C207.711 258.115 208.427 256.703 209.225 256.35C209.414 256.269 209.522 256.024 209.684 255.875C212.104 253.581 214.699 251.505 217.47 249.686C218.646 248.913 219.755 248.736 221.215 249.361C222.404 249.863 223.431 251.356 224.661 250.894C225.891 250.433 226.405 248.831 227.27 247.759C228.081 246.755 227.595 246.51 226.608 246.51C224.864 246.51 223.12 246.51 221.39 246.51V246.497ZM259.333 267.846C259.644 265.973 258.468 264.29 258.562 262.417C258.576 262.023 258.468 261.616 258.008 261.467C257.508 261.304 257.224 261.535 256.9 261.942C256.035 263.082 255.061 264.141 254.196 265.281C254.02 265.511 253.939 265.973 254.047 266.244C254.926 268.389 254.791 270.75 255.521 272.935C255.832 273.872 256.562 273.845 256.859 273.342C257.873 271.605 260.13 270.411 259.333 267.846ZM208.725 264.643C208.198 264.48 208.008 264.385 207.806 264.371C205.035 264.032 202.318 264.683 199.682 265.308C198.181 265.674 196.438 266.081 195.302 267.466C194.789 268.09 194.478 268.823 194.924 269.461C195.37 270.112 196.194 269.827 196.789 269.569C200.628 267.886 204.656 266.678 208.725 264.643ZM216.065 260.924C216.916 261.44 217.403 261.182 217.903 260.965C221.133 259.54 224.364 258.101 227.608 256.676C228.041 256.486 228.716 256.581 228.554 255.807C228.406 255.142 227.811 255.224 227.324 255.21C226.878 255.21 226.419 255.21 226 255.332C222.377 256.445 219.376 258.671 216.065 260.924Z" fill="black"/>
<path d="M358.808 198.288C345.696 198.288 332.598 197.894 319.487 197.894C317.27 197.894 317.364 197.813 317.04 195.655C316.54 192.275 315.945 188.896 315.161 185.584C314.674 183.562 314.769 181.459 314.093 179.463C313.647 178.147 313.539 176.722 313.323 175.338C313.201 174.483 312.62 174.401 311.971 174.442C310.241 174.537 309.524 173.6 309.457 171.999C309.295 168.172 308.673 164.412 308.065 160.653C307.875 159.472 308.038 158.549 309.065 157.531C312.958 153.704 316.634 149.646 320.433 145.71C325.529 140.444 330.8 135.354 335.707 129.926C338.032 127.361 340.479 126.533 343.831 126.668C351.022 126.967 358.24 126.587 365.418 127.035C377.326 127.768 389.248 127.116 401.143 127.7C406.874 127.985 412.606 128.175 418.337 128.175C419.594 128.175 420.121 128.677 420.256 129.953C420.621 133.522 420.838 137.119 421.649 140.634C421.919 141.801 421.513 142.819 420.716 143.552C417.864 146.131 418.513 149.225 419.202 152.401C419.662 154.545 419.621 156.839 420.324 158.875C421.459 162.2 420.256 164.792 418.567 167.439C416.066 171.375 413.498 175.283 411.24 179.355C407.942 185.286 404.239 190.973 400.981 196.931C400.332 198.125 399.548 198.668 398.088 198.641C388.87 198.478 379.651 198.695 370.419 198.315C366.553 198.152 362.674 198.288 358.794 198.288C358.794 198.152 358.808 198.383 358.808 198.247V198.288ZM369.31 133.007C369.486 133.59 369.013 133.767 368.675 134.052C367.067 135.477 362.606 139.195 360.943 140.58C360.132 141.258 360.092 141.801 360.889 142.453C361.836 143.226 362.809 143.959 363.701 144.787C364.444 145.466 364.985 145.357 365.715 144.733C367.134 143.511 368.608 142.358 370.122 141.258C372.244 139.698 374.447 138.205 377.096 137.675C378.286 137.445 378.164 136.861 377.61 136.182C377.353 135.884 376.975 135.734 377.177 135.246C378.867 135.164 379.773 136.576 381.003 137.336C381.598 137.702 382.314 138.042 382.503 138.815C382.746 139.833 381.503 139.793 381.097 140.444C381.381 140.553 381.53 140.661 381.679 140.661C390.33 140.661 398.967 140.973 407.604 141.313C408.456 141.353 409.078 140.973 409.605 140.295C411.43 137.92 413.255 135.558 415.133 133.237C415.769 132.45 417.066 131.622 416.607 130.754C416.215 130.007 414.741 129.98 413.66 129.98C413.606 129.98 413.552 129.98 413.498 129.98C400.589 129.871 387.68 129.79 374.758 129.328C363.633 128.935 352.495 129.043 341.371 128.948C340.411 128.948 339.559 129.057 338.802 129.858C336.004 132.83 333.112 135.707 330.3 138.666C330.057 138.924 329.543 139.168 329.705 139.603C329.895 140.118 330.462 139.996 330.895 140.023C335.045 140.2 339.194 140.132 343.344 140.485C347.197 140.81 351.103 140.525 354.982 140.62C355.915 140.648 356.388 140.728 357.483 140.728C358.943 141.528 359.957 140.281 360.849 139.426C361.971 138.354 366.12 135.232 367.188 134.092C367.702 133.549 368.337 132.776 369.337 132.993L369.31 133.007ZM366.634 196.157C366.634 196.157 366.634 196.035 366.634 196.103C376.312 196.103 385.977 196.347 395.655 196.347C397.994 196.347 398.196 196.008 397.737 193.687C396.98 189.914 396.291 186.114 395.574 182.327C395.101 179.844 394.777 177.346 394.209 174.876C394.006 173.953 393.601 173.845 392.857 173.845C389.938 173.872 387.004 173.845 384.085 173.872C361.781 174.13 339.478 173.438 317.175 174.401C315.702 174.469 315.148 174.971 315.634 176.301C316.432 178.541 316.621 180.929 316.932 183.223C317.418 186.847 318.486 190.362 318.824 193.999C318.919 195.044 319.405 195.709 320.663 195.709C326.597 195.668 332.531 195.967 338.465 196.103C347.845 196.32 357.24 196.157 366.634 196.157ZM369.162 171.809C369.162 171.904 369.162 171.714 369.162 171.809C377.705 171.809 386.261 171.497 394.804 171.524C396.047 171.524 396.75 171.157 396.291 169.895C395.574 167.995 395.074 166.054 394.628 164.073C394.29 162.566 393.438 161.671 391.708 161.82C390.6 161.915 389.464 161.766 388.343 161.738C377.096 161.548 365.864 161.426 354.617 161.168C340.411 160.843 326.205 160.436 311.998 160.015C310.538 159.974 310.119 160.653 310.471 161.861C311.255 164.589 310.903 167.439 311.484 170.221C311.836 171.917 312.295 172.297 313.863 172.257C323.92 172.026 333.977 172.175 344.034 171.863C352.401 171.605 360.781 171.809 369.162 171.809ZM367.04 159.282C368.121 159.282 369.635 159.241 371.149 159.282C378.34 159.485 385.531 159.73 392.736 159.933C393.425 159.947 394.168 160.123 394.736 159.39C397.534 155.821 400.386 152.292 403.198 148.723C403.995 147.705 403.725 146.972 402.468 146.945C400.021 146.891 397.575 146.945 395.115 146.972C392.668 146.986 390.221 147.026 387.761 147.026C385.139 147.026 382.53 146.959 379.908 146.945C377.299 146.945 374.69 146.864 372.081 146.972C368.743 147.108 365.377 146.864 362.16 148.221C357.672 150.121 353.117 151.872 348.589 153.663C348.237 153.799 347.818 153.812 347.426 153.84C345.223 154.016 343.777 152.591 342.384 151.247C341.628 150.501 340.384 149.985 340.397 148.682C340.425 147.244 339.505 146.864 338.438 146.959C337.032 147.081 335.653 146.904 334.247 146.931C331.571 146.972 328.894 146.823 326.232 146.972C324.542 147.067 322.582 146.538 321.217 147.868C318.324 150.691 315.58 153.677 312.769 156.595C311.985 157.409 312.39 157.775 313.255 157.87C314.539 158.02 315.823 158.155 317.121 158.169C333.598 158.305 350.062 158.807 366.986 159.268L367.04 159.282ZM407.983 179.844C407.388 175.053 406.847 170.71 406.293 166.366C406.212 165.783 406.388 164.996 405.617 164.779C404.766 164.534 404.55 165.403 404.185 165.891C402.806 167.71 401.576 169.624 400.129 171.388C399.291 172.42 398.683 173.858 396.966 173.872C396.304 173.872 396.412 174.496 396.48 174.917C396.777 176.858 397.075 178.785 397.426 180.712C398.102 184.512 398.805 188.326 399.508 192.126C399.602 192.642 399.278 193.483 399.927 193.606C400.548 193.728 400.886 192.995 401.211 192.452C402.887 189.629 404.631 186.847 406.266 183.997C407.077 182.585 408.415 181.309 407.996 179.844H407.983ZM387.288 146.09C392.452 146.09 397.629 145.927 402.792 146.171C405.131 146.28 406.063 144.868 407.158 143.43C407.591 142.86 407.55 142.235 406.564 142.235C406.172 142.235 405.78 142.208 405.388 142.208C396.399 142.168 387.41 142.222 378.435 141.91C377.691 141.883 376.975 142.005 376.299 142.276C374.406 143.05 372.528 143.837 370.662 144.665C370.189 144.882 369.446 145.14 369.621 145.778C369.77 146.334 370.5 146.09 370.96 146.09C376.407 146.103 381.854 146.09 387.302 146.09H387.288ZM396.223 161.874C396.75 163.801 397.264 165.742 397.804 167.669C397.953 168.212 397.669 169.013 398.575 169.149C399.4 169.271 399.71 168.538 400.075 168.063C401.887 165.674 403.59 163.218 405.415 160.829C406.388 159.553 406.82 158.278 406.469 156.622C406.131 154.98 405.469 153.392 405.563 151.668C405.59 151.166 405.347 150.813 404.86 150.637C404.266 150.419 404.09 150.922 403.82 151.247C401.576 154.07 399.372 156.92 397.075 159.703C396.52 160.368 396.318 161.019 396.223 161.861V161.874ZM345.358 152.224C345.439 150.352 346.386 149.198 347.832 148.56C351.698 146.836 355.766 145.954 360.024 146.022C360.592 146.022 361.146 146.022 361.714 145.995C362.484 145.968 362.66 145.316 362.241 144.991C360.795 143.864 359.7 142.235 357.483 142.263C353.928 142.317 350.441 142.941 346.899 143.023C344.412 143.077 342.412 144.706 341.857 147.121C341.655 147.99 341.357 149.021 342.236 149.809C343.155 150.623 344.02 151.505 345.372 152.211L345.358 152.224ZM418.702 161.63C418.972 160.354 418.067 159.173 417.958 157.816C417.783 155.685 417.012 153.636 416.972 151.478C416.972 150.949 416.715 150.406 416.255 150.216C415.633 149.958 415.431 150.745 415.187 151.044C414.228 152.184 413.457 153.473 412.565 154.681C411.984 155.468 411.916 156.31 412.065 157.233C412.687 161.168 413.106 165.131 413.376 169.122C413.403 169.542 413.173 170.18 413.674 170.33C414.16 170.465 414.512 170.004 414.795 169.529C415.836 167.697 416.85 165.837 418.067 164.114C418.607 163.34 418.756 162.634 418.688 161.643L418.702 161.63ZM346.223 141.937C345.912 141.408 345.615 141.435 345.345 141.435C339.843 141.394 334.328 141.367 328.827 141.34C328.205 141.34 327.624 141.435 327.151 141.95C326.245 142.914 325.258 143.823 324.339 144.773C324.082 145.045 323.731 145.384 323.88 145.791C324.055 146.239 324.555 146.09 324.934 146.09C329.881 146.09 334.828 146.09 339.762 146.117C340.452 146.117 341.087 145.954 341.344 145.384C342.276 143.281 344.047 142.412 346.223 141.937ZM418.648 133.156C418.499 133.074 418.35 133.007 418.202 132.925C416.593 134.934 414.971 136.929 413.363 138.951C412.579 139.942 411.403 140.851 411.132 141.978C410.47 144.733 411.673 147.379 412.335 150.012C412.457 150.514 412.849 150.772 413.363 150.012C414.971 147.678 416.715 145.452 418.391 143.172C418.986 142.371 419.648 141.543 419.351 140.458C418.702 138.055 418.783 135.585 418.634 133.129L418.648 133.156ZM407.28 164.833C406.674 167.928 407.776 170.788 407.942 171.592C408.537 173.709 408.834 175.65 408.753 177.74C408.74 178.256 409.132 178.771 409.551 178.133C410.862 176.193 412.7 174.428 412.619 171.89C412.498 167.344 411.524 162.865 411.011 158.359C410.984 158.088 410.957 157.721 410.605 157.748C410.362 157.762 410.051 157.938 409.916 158.142C408.456 160.178 407.861 162.173 407.266 164.833H407.28ZM406.117 149.103C406.185 151.546 407.239 153.812 407.307 156.255C407.321 156.893 407.969 157.043 408.267 156.703C409.551 155.278 411.281 153.88 411.308 151.912C411.335 149.659 410.619 147.406 410.227 145.153C410.119 144.556 409.713 144.448 409.226 144.583C408.456 144.787 406.063 148.261 406.117 149.103ZM360.119 147.488C360.119 146.891 359.754 147.04 359.335 147.094C356.51 147.447 353.644 147.705 350.914 148.533C349.386 148.994 347.697 149.374 346.737 150.935C346.413 151.464 346.345 151.994 346.683 152.523C346.886 152.849 347.318 152.93 347.575 152.754C348.318 152.238 349.211 152.387 349.981 152.075C353.049 150.867 356.091 149.619 359.159 148.411C359.605 148.234 359.957 148.017 360.119 147.501V147.488ZM380.719 138.802C377.542 137.784 370.297 141.041 368.121 144.38C372.392 142.697 376.691 141.041 380.719 138.802Z" fill="black"/>
<path d="M109.769 106.405C87.5601 105.781 65.5543 105.944 43.562 105.849C42.2644 105.849 40.9802 105.767 39.6826 105.74C37.8308 105.7 37.3036 105.442 37.0062 102.659C36.6277 99.0764 35.6004 95.6291 35.2084 92.0461C34.884 89.101 33.9649 86.2373 33.7081 83.265C33.627 82.3014 32.8294 81.9621 31.9779 82.0707C30.3018 82.2743 29.9098 81.4192 29.7746 79.9263C29.3961 75.8954 28.8554 71.8917 28.3688 67.8744C28.2201 66.7207 28.6527 65.8928 29.4637 65.0649C35.0868 59.324 40.6423 53.5152 46.2384 47.7606C50.1583 43.7298 54.1323 39.7396 58.0117 35.6816C58.7822 34.8808 59.5797 34.5415 60.6476 34.5551C73.3671 34.7451 86.0867 34.6908 98.7792 35.1658C111.661 35.6408 124.543 35.5187 137.411 35.7358C140.047 35.7766 140.601 36.1701 140.696 38.8303C140.831 42.264 141.29 45.657 141.939 49.0228C142.047 49.5793 141.885 49.9729 141.561 50.4072C140.777 51.4115 140.101 52.5244 139.263 53.4745C138.33 54.5331 138.384 55.7138 138.641 56.9353C139.56 61.2784 140.547 65.5943 140.925 70.0323C140.993 70.9009 140.831 71.6338 140.344 72.4074C136.924 77.9312 133.626 83.5364 130.315 89.1145C127.192 94.3669 124.016 99.5921 121.015 104.912C120.393 106.025 119.636 106.419 118.474 106.405C115.486 106.378 112.513 106.405 109.742 106.405H109.769ZM88.5063 41.7754C89.101 40.3775 90.4392 39.6989 92.1018 39.916C93.3994 40.0789 94.616 40.5268 95.6298 41.3004C96.4408 41.9247 96.9544 41.6532 97.4681 41.0425C98.0358 40.3639 98.59 39.6582 99.0766 38.9253C99.9012 37.6766 99.6984 37.2559 98.2115 37.2016C95.9136 37.1202 93.5887 37.3238 91.3178 37.0523C88.4252 36.713 86.3841 37.5681 84.735 40.0517C83.113 42.4811 81.0854 44.6255 79.2471 46.9056C79.0173 47.177 78.5442 47.4349 78.9497 47.8828C79.2606 48.2221 79.6796 48.1271 80.0311 47.9235C80.2609 47.8014 80.4771 47.6249 80.6934 47.4485C82.5317 45.8606 84.3565 44.2591 86.2219 42.6983C86.8842 42.1418 89.831 39.7124 90.8853 40.0246C90.9259 40.4996 88.2494 42.3454 87.9385 42.6033C86.33 43.974 84.5593 45.1412 83.0724 46.6613C79.9635 49.8643 79.95 49.8507 83.7212 52.4294C84.5863 53.0266 85.3027 53.0401 86.1678 52.3073C89.1281 49.8372 92.1153 47.3806 95.7109 45.8334C96.603 45.4534 98.1169 45.6027 98.1304 44.4626C98.1439 43.5805 96.7111 43.214 95.9271 42.6304C94.4808 41.5718 92.9264 40.7439 90.9934 40.9339C90.0743 41.0289 88.8578 42.0604 87.9385 42.6033L88.5063 41.7754ZM119.406 37.5545C119.406 37.7038 119.406 37.4052 119.406 37.5545C115.365 37.5545 111.283 37.8531 107.281 37.4731C103.402 37.1066 100.334 37.5952 98.4008 41.4361C97.9682 42.3047 97.9277 42.7119 98.5765 43.2004C99.5903 43.9741 100.685 44.6119 101.685 45.3991C103.159 46.5392 103.037 46.9599 101.496 47.9506C99.2118 49.4029 96.4813 49.6879 94.1699 51.0586C92.6695 51.9544 90.6555 52.0494 89.5065 53.4337C86.7355 56.7996 84.0997 60.2876 81.4774 63.7756C80.8962 64.5356 79.5715 65.2957 80.0311 66.1914C80.5177 67.1415 81.964 67.0193 83.0724 67.0465C93.021 67.3722 102.97 66.9922 112.905 67.6436C114.324 67.7386 115.338 67.1415 115.986 66.0421C117.014 64.3049 118.352 62.7984 119.596 61.2784C125.313 54.2616 130.639 46.9599 136.249 39.8753C136.586 39.441 137.154 39.061 136.911 38.4367C136.641 37.7309 135.924 38.0431 135.424 38.0431C130.085 38.0159 124.746 37.5545 119.406 37.5545ZM97.9141 81.4056C97.9141 81.5414 97.9277 80.9578 97.9141 81.3921C92.9669 81.3921 88.0197 81.8671 83.0724 81.7992C81.572 81.7721 81.3152 82.4643 81.6261 83.6586C81.964 84.9072 82.2343 86.1694 82.4912 87.4316C82.8156 89.0331 82.9643 90.6618 83.2752 92.2497C83.8969 95.4255 84.8431 98.5471 85.2757 101.75C85.519 103.596 86.2759 103.922 87.871 103.922C93.1021 103.962 98.3197 104.125 103.551 104.207C107.876 104.274 112.215 104.261 116.541 104.302C117.446 104.302 118.352 104.274 118.136 102.985C117.703 100.271 117.244 97.5428 116.757 94.8419C116.054 90.9332 115.243 87.0245 114.608 83.1021C114.391 81.8128 113.783 81.3921 112.594 81.3921C107.701 81.4056 102.807 81.3921 97.9277 81.3921L97.9141 81.4056ZM53.9431 66.4493C55.9707 66.4493 57.9982 66.3543 60.0123 66.4764C61.4586 66.5714 62.4589 66.11 63.2699 64.9564C63.8376 64.1556 64.3242 63.287 65.0271 62.5541C65.4597 62.1062 65.4056 61.5091 64.7433 61.0069C63.7295 60.2469 62.8779 59.2561 61.8776 58.469C60.7692 57.5732 60.4178 56.4332 60.8503 55.171C61.1747 54.2073 61.4451 53.203 62.1074 52.348C63.0266 51.1808 63.9593 50.3665 65.5678 50.0543C66.933 49.7964 68.4334 49.9186 69.6635 49.2671C71.3125 48.385 73.0157 47.9642 74.8405 48.1678C76.3139 48.3307 77.3006 47.6656 78.1657 46.6206C80.3284 43.9469 82.5047 41.2868 84.6539 38.5995C84.9107 38.2738 85.4244 37.9481 85.2081 37.4595C84.9918 36.9709 84.4376 37.0659 84.0051 37.0795C76.6383 37.1338 69.285 36.6723 61.9317 36.428C60.7828 36.3873 59.9312 36.7402 59.1337 37.5816C55.1461 41.789 51.118 45.9691 47.0764 50.1086C42.3995 54.8995 37.6956 59.6633 33.0052 64.4406C32.7483 64.7121 32.3699 65.1328 32.4374 65.4042C32.5591 65.9471 33.1674 65.8114 33.5999 65.7978C40.399 65.6757 47.1711 66.4086 53.9701 66.4629L53.9431 66.4493ZM53.4159 103.732C57.6333 103.732 61.8506 103.732 66.0814 103.732C67.0547 103.732 67.8927 103.528 67.5278 102.334C66.7708 99.8636 66.514 97.2985 65.9328 94.8012C65.1217 91.3132 64.162 87.8523 63.7971 84.2693C63.6213 82.505 62.9995 81.9757 61.2153 81.9757C54.1864 81.9892 47.144 82.0164 40.1151 82.0435C39.0473 82.0435 37.9794 82.0435 36.9116 82.0435C36.1141 82.0435 35.5464 82.3828 35.7086 83.2514C36.1817 85.7894 36.5061 88.3681 37.0603 90.8518C37.8713 94.4755 38.3579 98.1399 39.1014 101.764C39.3852 103.134 39.8313 103.582 41.1154 103.569C45.2246 103.542 49.3068 103.732 53.4159 103.732ZM120.285 101.75C121.042 100.705 121.677 99.9586 122.164 99.1171C127.152 90.6753 132.072 82.1792 137.114 73.7646C138.209 71.946 138.952 70.3716 138.587 68.0779C138.1 64.9699 137.587 61.8755 136.965 58.7947C136.897 58.4825 136.938 58.0482 136.505 57.9939C136.086 57.9396 135.789 58.1704 135.532 58.5232C133.707 61.0341 131.937 63.5856 130.004 66.0014C126.408 70.4937 123.259 75.3118 119.798 79.8992C119.258 80.6185 118.771 81.3514 117.703 81.3242C117 81.3106 116.689 81.7721 116.757 82.4371C116.838 83.4414 116.906 84.4729 117.095 85.4637C117.879 89.6574 118.866 93.8105 119.298 98.0721C119.42 99.2121 119.879 100.311 120.271 101.737L120.285 101.75ZM94.4267 79.6413C101.239 79.7363 108.025 79.1798 114.824 79.1798C116.027 79.1798 116.527 78.922 116.257 77.5105C115.824 75.1897 115.013 72.9774 114.459 70.6838C114.27 69.883 113.58 69.6251 112.756 69.6251C101.739 69.6659 90.7366 69.2723 79.7202 68.8787C78.5577 68.838 78.3144 69.313 78.3144 70.3852C78.3144 72.896 79.1389 75.2711 79.2741 77.7548C79.3417 79.1663 80.004 79.682 81.4368 79.6549C85.7623 79.587 90.1013 79.6277 94.4403 79.6277L94.4267 79.6413ZM72.3939 81.84C72.3939 81.84 72.3939 81.8942 72.3939 81.9214C70.4339 81.9214 68.4604 81.9214 66.5005 81.9214C64.4594 81.9214 64.1755 82.22 64.6757 84.1879C66.1896 90.1596 67.2034 96.2263 68.474 102.239C68.7173 103.392 69.312 103.867 70.4475 103.854C71.7451 103.84 73.0292 103.854 74.3269 103.854C77.1384 103.867 79.95 103.908 82.748 103.894C83.4374 103.894 84.5322 103.949 84.316 102.904C83.7483 100.162 83.4238 97.3799 82.8426 94.6519C82.0721 91.0418 81.3828 87.4316 80.7745 83.7943C80.5447 82.3964 80.0446 81.7857 78.6523 81.8264C76.5707 81.8671 74.5026 81.8264 72.421 81.8264L72.3939 81.84ZM46.7115 79.8584C46.7115 79.8584 46.7115 79.7634 46.7115 79.7091C51.0369 79.7091 55.3759 79.6413 59.7014 79.7499C61.3505 79.7906 61.5803 79.1798 61.5938 77.6869C61.6208 75.0132 60.7963 72.4617 60.7692 69.8152C60.7557 68.7294 59.9852 68.7701 59.2418 68.7158C50.2665 68.0372 41.2776 68.1458 32.2888 67.9694C30.9776 67.9422 30.6667 68.4037 30.7478 69.6387C30.91 72.3803 31.7346 75.0675 31.5859 77.8362C31.5048 79.3563 32.2482 79.8992 33.7486 79.872C38.0741 79.8041 42.3995 79.8449 46.725 79.8449L46.7115 79.8584ZM138.601 41.2325C138.411 41.2054 138.209 41.1646 138.019 41.1375C136.37 43.2276 134.694 45.3177 133.059 47.4213C130.369 50.8686 127.692 54.3295 125.002 57.7768C122.245 61.3191 119.474 64.8614 116.716 68.4037C116.433 68.7565 116.135 69.0823 116.297 69.6116C116.96 71.7424 117.581 73.9003 118.271 76.0311C118.406 76.4383 118.298 77.0762 118.798 77.1847C119.352 77.2933 119.623 76.6826 119.906 76.3161C123.056 72.231 125.854 67.8744 129.193 63.9385C132.207 60.3826 134.383 56.1753 137.438 52.6873C140.723 48.9278 139.074 45.1141 138.614 41.2461L138.601 41.2325ZM70.6772 79.6549V79.6141C72.6372 79.6141 74.6107 79.6277 76.5707 79.6141C78.2468 79.6006 78.7469 78.9898 78.1657 77.429C77.8007 76.4519 76.8275 70.833 76.8951 69.8423C76.9221 71.4302 77.0032 68.2272 76.8951 69.8423C76.8951 69.3266 76.5166 68.8923 75.9084 68.8923C71.4748 68.8515 67.0412 68.7972 62.6076 68.7837C62.0263 68.7837 61.4721 68.9465 61.7154 69.8016C62.5129 72.5703 62.4048 75.4747 62.9725 78.2841C63.1888 79.3698 63.6213 79.6684 64.6216 79.6549C66.6356 79.6141 68.6632 79.6549 70.6772 79.6549ZM70.9206 66.4493C70.9206 66.4493 70.9206 66.5172 70.9206 66.5443C72.8805 66.5443 74.854 66.5714 76.814 66.5443C77.3952 66.5443 77.99 66.6393 78.4631 66.015C80.8826 62.7713 83.3563 59.5683 85.8299 56.3653C86.1137 55.9988 86.1543 55.6188 85.9921 55.2795C85.7893 54.8317 85.3162 55.0081 84.9378 55.0081C84.5458 55.0081 84.2078 55.2252 83.8429 55.3745C79.6526 57.0982 75.4758 58.8761 71.2179 60.4097C68.4604 61.4005 65.8787 62.4863 64.2296 65.0921C64.0133 65.4314 63.7295 65.7435 63.8511 66.1236C63.9998 66.6393 64.4999 66.4629 64.8514 66.4629C66.879 66.49 68.893 66.4629 70.9206 66.4629V66.4493ZM83.2076 53.2437C82.2884 52.5244 81.7072 52.1851 81.2882 51.6965C80.004 50.2579 78.409 50.095 76.5977 50.1357C73.232 50.2172 69.8933 50.4886 66.5545 50.8822C63.4726 51.2486 62.6076 53.5423 61.7154 55.7817C61.1072 57.3289 62.986 57.6275 63.6484 58.5775C63.716 58.6725 63.7835 58.754 63.8511 58.8354C64.7297 59.989 65.4732 59.6904 65.9463 58.5368C66.4329 57.3425 67.325 56.691 68.4199 56.2024C71.2314 54.9674 74.1241 54.0716 77.2601 54.0852C79.1524 54.0988 80.9502 53.583 83.2076 53.2302V53.2437ZM80.8691 55.0895C77.7061 54.5738 74.9892 55.456 72.2587 55.9717C70.5961 56.2839 68.9741 56.9082 67.5142 57.8854C66.6492 58.469 66.7438 59.2561 66.906 59.9483C67.1087 60.8033 67.9873 60.4505 68.4604 60.2876C69.9608 59.7447 71.5153 59.3511 72.9887 58.6725C75.5164 57.5189 78.2468 56.8539 80.8691 55.0895ZM101.023 46.8785C99.5768 46.0099 99.5768 46.0234 98.3873 46.2134C94.6701 46.7699 91.9666 49.2943 88.8847 51.0858C88.5468 51.2894 88.3846 51.5744 88.5468 51.9272C88.8036 52.4837 89.0875 52.0087 89.3443 51.9001C93.1426 50.2715 96.9409 48.6428 101.023 46.892V46.8785Z" fill="black"/>
<path d="M378.797 137.065C378.108 137.214 376.053 135.192 375.445 134.771C371.971 132.302 371.282 132.329 367.862 134.812C367.375 135.165 366.97 135.436 366.375 135.314C367.632 132.329 371.755 131.189 374.783 133.157C375.648 133.727 379.973 135.64 380.149 137.065H378.797Z" fill="black"/>
<path d="M441.15 218.016H293.121V329.453H441.15V218.016Z" fill="white"/>
<path fill-rule="evenodd" clip-rule="evenodd" d="M437.638 221.325H296.391V326.112H437.638V221.325ZM441.029 218V329.438H293V218H441.029Z" fill="#0070F3"/>
<path d="M357.954 285.857C357.988 274.129 360.97 270.494 366.476 266.96C370.81 264.195 374.104 261.497 374.104 257.272C374.104 253.047 370.843 250.416 366.755 250.416C362.667 250.416 358.959 253.326 358.848 258.131H342.898C343.111 243.593 353.855 237.127 366.889 237.127C381.174 237.127 391.539 243.905 391.539 256.47C391.539 264.742 387.138 269.758 380.482 273.66C375.244 276.771 372.719 279.714 372.719 285.835V287.25H357.954V285.835V285.857ZM356.603 300.974C356.536 296.058 360.623 292.078 365.616 292.078C370.608 292.078 374.562 296.058 374.629 300.974C374.562 305.958 370.363 309.971 365.616 309.971C360.623 309.971 356.536 305.958 356.603 300.974Z" fill="#0070F3"/>
</svg>
