<svg width="60" height="42" viewBox="0 0 60 42" fill="none" xmlns="http://www.w3.org/2000/svg">
<path fill-rule="evenodd" clip-rule="evenodd" d="M16.0001 12.1839V19.6078L16.0097 19.6124C16.0097 20.3195 16.0108 21.0266 16.0118 21.7335C16.0147 23.6185 16.0176 25.5029 16.0001 27.3848C15.9953 27.9609 16.2115 28.3047 16.7305 28.5649C18.7486 29.5823 20.7523 30.6136 22.7561 31.6543C23.4366 32.0098 24.1156 32.3682 24.7948 32.7267C26.2016 33.4692 27.6089 34.2121 29.0315 34.9296C29.2814 35.055 29.7235 34.9993 29.9974 34.8692C30.4432 34.6602 30.8738 34.4189 31.3046 34.1775C31.64 33.9896 31.9754 33.8016 32.3182 33.6288C32.9644 33.3024 33.615 32.9846 34.2655 32.667C35.1242 32.2476 35.9827 31.8283 36.8302 31.3895C38.6128 30.4697 40.3762 29.5174 42.1395 28.5651L42.1399 28.5649L42.1605 28.5538C42.5949 28.3212 43 28.1042 43 27.4685C42.976 22.2698 42.9808 17.0666 42.9952 11.8679C43 11.3523 42.7982 11.0271 42.3177 10.8459C41.4458 10.514 40.574 10.1844 39.7025 9.85491C39.5955 9.81447 39.4886 9.77403 39.3816 9.7336L39.2969 9.54309L39.1043 9.62873C38.0283 9.22182 36.953 8.81434 35.8788 8.40219C35.7048 8.3357 35.5309 8.26907 35.3571 8.20233L35.2836 8.04924L35.1392 8.11857C34.5405 7.8883 33.9428 7.65689 33.3452 7.42555C32.1775 6.97347 31.0106 6.52168 29.8388 6.0793C29.613 5.99568 29.3102 5.9678 29.094 6.04678C28.632 6.21647 28.1783 6.40626 27.7248 6.596C27.3339 6.7595 26.9432 6.92297 26.5473 7.0735C25.6732 7.40823 24.7958 7.73163 23.918 8.05517C23.3095 8.27945 22.7008 8.5038 22.093 8.73204C20.4736 9.33599 18.8591 9.94458 17.2446 10.5671C16.0001 11.0456 16.0001 11.0549 16.0001 12.1838V12.1839ZM34.0676 8.63294C33.5506 8.43461 33.0338 8.23525 32.517 8.03571L30.958 8.69528L32.5127 9.37931L34.0676 8.63294ZM31.175 7.51769C30.6561 7.31771 30.1371 7.11826 29.6178 6.92018C29.5024 6.87837 29.3439 6.87373 29.2334 6.91554C28.9835 7.00845 28.7372 7.1095 28.491 7.21054C28.3338 7.27503 28.1766 7.33952 28.0185 7.40189L29.7 8.14172L31.175 7.51769ZM26.85 7.84089C26.2717 8.05517 25.6917 8.26749 25.1124 8.47933L26.8878 9.3315L28.4341 8.67727L26.7986 7.95766L26.85 7.84089ZM23.7999 8.95856C23.7557 8.97455 23.7115 8.99053 23.6674 9.00651C23.1668 9.18765 22.6664 9.3687 22.1698 9.55899C21.815 9.69457 21.4621 9.8356 21.1097 9.97806L23.1007 10.9337L25.6595 9.85116L23.7999 8.95856ZM19.855 10.485C19.829 10.4954 19.8029 10.5057 19.7769 10.516C19.3149 10.6991 18.8529 10.8773 18.3704 11.0633C18.045 11.1888 17.7103 11.3179 17.3599 11.4545C17.4393 11.5076 17.5084 11.5565 17.5714 11.601C17.7068 11.6967 17.8137 11.7722 17.9317 11.8261C18.4235 12.05 18.9155 12.2733 19.4077 12.4961L21.8724 11.4534L19.855 10.485ZM20.6484 13.057C21.3709 13.3832 22.0935 13.7086 22.8156 14.0339L25.032 12.97L23.0748 12.0305L20.6484 13.057ZM24.0078 14.5709C24.4386 14.7649 24.8682 14.9606 25.2978 15.1564C25.5232 15.2591 25.7487 15.3618 25.9743 15.4643L28.1832 14.4825L26.1875 13.5246L24.0078 14.5709ZM27.1976 16.0149C27.5881 16.1884 27.9797 16.3597 28.3732 16.5277L28.3925 16.5358C28.8182 16.7162 29.3878 16.9576 29.7475 16.8203C30.3491 16.591 30.9444 16.3458 31.5363 16.0921L29.3669 15.0507L27.1976 16.0149ZM32.7004 15.5824C32.9981 15.45 33.2955 15.3166 33.5929 15.1833C33.9414 15.0269 34.2899 14.8706 34.6391 14.7158C34.8387 14.6269 35.0383 14.5379 35.2379 14.4488L33.0665 13.4065L30.5668 14.5175L32.7164 15.5492L32.7004 15.5824ZM36.4336 13.9135C37.076 13.625 37.718 13.3352 38.3591 13.0443L36.1091 12.0542L34.2663 12.8732L36.4336 13.9135ZM39.5791 12.4885C39.6927 12.4366 39.8063 12.3846 39.9199 12.3325C40.2645 12.1737 40.6005 11.9899 40.9669 11.7894C41.1472 11.6907 41.3348 11.588 41.5344 11.4823H41.5392C41.3872 11.4151 41.2583 11.3559 41.143 11.303C40.9559 11.2171 40.8049 11.1478 40.6503 11.0874C40.2202 10.9277 39.7895 10.7687 39.3585 10.61L37.3443 11.5052L39.5791 12.4885ZM38.0117 10.1143C37.1254 9.78773 36.2391 9.45943 35.3552 9.12414L33.7183 9.90981L36.107 10.9608L38.0117 10.1143ZM31.8271 16.8558C32.0654 16.7498 32.3118 16.6402 32.5681 16.523V18.4835C32.5681 19.3614 32.5677 20.2392 32.5673 21.1168C32.5658 24.628 32.5643 28.1373 32.5873 31.6497C32.5921 32.2768 32.4816 32.6996 31.8137 32.9412C31.3794 33.0983 30.9679 33.3129 30.5193 33.5468C30.3178 33.6519 30.1088 33.7609 29.8868 33.8703C29.8773 33.7547 29.8677 33.6554 29.8592 33.567C29.8421 33.3893 29.8292 33.2558 29.8292 33.1224C29.8292 32.3008 29.8291 31.4792 29.8289 30.6576C29.8283 26.55 29.8276 22.4424 29.8436 18.3349C29.8436 18.0979 29.983 17.7448 30.1704 17.6426C30.6913 17.361 31.2342 17.1195 31.8271 16.8558ZM33.956 31.8012C33.7826 31.8811 33.6041 31.9634 33.4186 32.0492H33.4138V30.5718C33.4138 29.8021 33.4139 29.0326 33.4141 28.2631C33.4147 24.416 33.4154 20.571 33.3994 16.7228C33.3946 16.2071 33.6012 15.9795 34.0865 15.8308C34.4747 15.7119 34.8444 15.5365 35.213 15.3617C35.3052 15.318 35.3973 15.2743 35.4896 15.2315C36.0518 14.9713 36.1287 14.9992 36.1287 15.6031C36.1316 16.6818 36.1293 17.7588 36.127 18.8362C36.1254 19.5545 36.1239 20.273 36.1239 20.9922C36.1239 21.7203 36.1218 22.4487 36.1197 23.1772C36.1134 25.3636 36.1071 27.5519 36.1575 29.7402C36.1767 30.5022 35.8788 30.9017 35.2494 31.199C34.8317 31.3976 34.4115 31.5912 33.956 31.8012ZM28.9673 33.5774C28.9613 33.6712 28.955 33.7696 28.9499 33.875C28.8203 33.8092 28.6931 33.7444 28.5678 33.6807C27.9678 33.3755 27.4113 33.0924 26.8548 32.8157C26.4368 32.6113 26.307 32.3047 26.307 31.8448C26.3215 28.3253 26.3197 24.8033 26.3179 21.2825C26.3173 20.1093 26.3167 18.9362 26.3167 17.7634C26.3143 17.1106 26.3119 16.7819 26.4577 16.691C26.6056 16.5987 26.9059 16.7509 27.5131 17.0573C27.5202 17.0607 27.5266 17.0653 27.5328 17.0699C27.5436 17.0777 27.5538 17.0851 27.566 17.0851C28.8682 17.3267 29.0363 18.1444 29.0171 19.3012C28.9678 22.6738 28.9753 26.044 28.9828 29.4154C28.9856 30.6415 28.9883 31.8678 28.9883 33.0945C28.9883 33.2505 28.9783 33.4064 28.9673 33.5774ZM22.1221 30.135C22.1084 30.1872 22.0917 30.2503 22.0737 30.3303H22.0689C21.9111 30.2481 21.7549 30.1674 21.6004 30.0874C20.9507 29.7513 20.3287 29.4296 19.7192 29.0805C19.6183 29.0248 19.6135 28.7646 19.6135 28.5974V14.0375C19.6135 13.966 19.6313 13.8964 19.658 13.7919C19.673 13.7335 19.6907 13.6642 19.7096 13.5776C19.8766 13.6502 20.0416 13.7214 20.2048 13.7919C20.8351 14.0641 21.4389 14.3248 22.0305 14.6089C22.1266 14.6554 22.1602 14.883 22.1602 15.0271C22.1634 18.3409 22.1624 21.6526 22.1613 24.9651C22.1608 26.6215 22.1602 28.2782 22.1602 29.9354C22.1602 29.9906 22.1452 30.0477 22.1221 30.135ZM25.4306 31.759C25.422 31.8436 25.4126 31.9348 25.4037 32.0353V32.0445C25.2564 31.9707 25.1144 31.8992 24.9763 31.8298C24.4976 31.5888 24.067 31.372 23.6306 31.1665C23.2846 31.0039 23.1645 30.767 23.1645 30.3906C23.1789 25.5453 23.1789 20.6952 23.1789 15.8498V15.8494C23.1789 15.7402 23.1886 15.6329 23.2006 15.5C23.2075 15.4237 23.2151 15.3391 23.2222 15.2408C23.2939 15.2604 23.3627 15.2787 23.4291 15.2962C23.6292 15.3492 23.8069 15.3963 23.9766 15.4591C24.1158 15.5117 24.2512 15.5739 24.3866 15.636C24.5502 15.7111 24.7139 15.7863 24.8847 15.8447C25.3556 16.0073 25.4758 16.3232 25.4758 16.7785C25.4565 20.6384 25.4565 24.5029 25.4565 28.3628V28.3651C25.4565 28.8454 25.4589 29.3268 25.4613 29.8088C25.4637 30.2919 25.4661 30.7757 25.4661 31.2594C25.4661 31.4135 25.4501 31.5698 25.4306 31.759ZM37.5414 29.9286C37.3653 30.0228 37.18 30.1219 36.9792 30.2234V28.9365C36.9776 27.4623 36.9771 25.9875 36.9765 24.5126C36.9755 21.5627 36.9744 18.6121 36.9648 15.6635C36.9609 14.5089 36.9665 14.5066 37.6536 14.2303C37.8125 14.1664 38.0078 14.0879 38.2477 13.9771C38.2666 13.9667 38.2885 13.9636 38.3109 13.9604C38.3284 13.9579 38.3462 13.9554 38.3631 13.9492C39.3145 13.6008 39.4202 13.6891 39.2905 14.6879C39.252 14.976 39.228 15.264 39.228 15.552L39.228 15.5582C39.2232 19.2867 39.2184 23.0106 39.228 26.7391C39.228 27.0494 39.2475 27.361 39.267 27.6726C39.2837 27.9394 39.3004 28.2062 39.3049 28.4719C39.3145 28.9365 39.1031 29.2385 38.6129 29.415C38.2582 29.5452 37.9215 29.7253 37.5414 29.9286ZM18.7336 28.3398C18.725 28.4089 18.7152 28.4872 18.7054 28.5788L18.7005 28.5834C18.5127 28.487 18.3321 28.3979 18.1578 28.3119C17.7613 28.1163 17.3977 27.937 17.0572 27.724C16.9227 27.6357 16.8602 27.3477 16.8602 27.1525C16.853 23.5572 16.8539 19.9644 16.8548 16.3704C16.8551 15.1717 16.8554 13.9729 16.8554 12.7739C16.8554 12.6889 16.8752 12.6018 16.9015 12.4867C16.914 12.4318 16.9279 12.3705 16.9419 12.3C17.1065 12.3769 17.268 12.4497 17.4263 12.521C17.8223 12.6995 18.198 12.8687 18.5516 13.0712C18.6909 13.1502 18.7582 13.4382 18.7582 13.6287C18.763 18.4205 18.763 23.2077 18.763 27.9995V28.0074C18.763 28.1055 18.7505 28.2056 18.7336 28.3398ZM40.7948 28.2767C40.612 28.3696 40.4192 28.4675 40.2178 28.5788V27.0921C40.2178 26.4679 40.2179 25.8437 40.218 25.2197C40.2186 21.4779 40.2192 17.7385 40.1986 13.9957C40.1938 13.3871 40.2611 12.9132 40.9626 12.7228C41.1622 12.6699 41.3531 12.5836 41.5714 12.485C41.6791 12.4363 41.7935 12.3847 41.9188 12.3325C41.9275 12.4199 41.9369 12.5018 41.946 12.5801C41.9672 12.7643 41.9861 12.9282 41.9861 13.0944V26.1909C41.9861 26.2358 41.9867 26.2807 41.9872 26.3256C41.9883 26.4154 41.9893 26.5052 41.9861 26.5951C41.9802 26.7026 41.9875 26.8234 41.9949 26.9441C42.0113 27.2145 42.0277 27.4844 41.8948 27.6032C41.5952 27.8701 41.2225 28.0595 40.7948 28.2767ZM26.1875 12.4154L24.3031 11.5108L26.8618 10.4283L28.5945 11.26L26.1875 12.4154ZM29.75 10.7054L28.0901 9.90863L29.6922 9.23083L31.3251 9.94932L29.75 10.7054ZM30.9055 11.26L32.5308 10.4798L34.8718 11.5098L33.0826 12.305L30.9055 11.26ZM29.75 11.8146L31.8827 12.8383L29.3831 13.9493L27.343 12.97L29.75 11.8146Z" fill="black"/>
</svg>
