<svg width="36" height="45" viewBox="0 0 36 45" fill="none" xmlns="http://www.w3.org/2000/svg">
<path fill-rule="evenodd" clip-rule="evenodd" d="M4 0C1.79086 0 0 1.79086 0 4V41C0 43.2091 1.79086 45 4 45H32C34.2091 45 36 43.2091 36 41V4C36 1.79086 34.2091 0 32 0H4ZM17.6541 32.3085C17.7602 32.3698 17.8785 32.4004 17.9969 32.4004C18.1159 32.4004 18.235 32.3694 18.3415 32.3075C18.4558 32.241 21.1724 30.6513 23.9378 28.2563C25.5764 26.8371 26.8877 25.4297 27.8353 24.0731C29.0605 22.3192 29.6868 20.6324 29.6967 19.0596C29.7088 17.1479 28.9717 15.3024 27.6745 13.9962C26.4924 12.8059 24.9529 12.1504 23.3392 12.1504C21.1501 12.1504 19.1488 13.3774 17.9969 15.321C16.8451 13.3773 14.8437 12.1504 12.6546 12.1504C10.9466 12.1504 9.34506 12.8769 8.14499 14.1961C6.96485 15.4935 6.3086 17.2176 6.29699 19.0509C6.28708 20.6265 6.90183 22.3158 8.12429 24.0722C9.06897 25.4294 10.3821 26.8375 12.0271 28.2571C14.8027 30.6523 17.539 32.242 17.6541 32.3085Z" fill="black"/>
</svg>
