<svg width="54" height="44" viewBox="0 0 54 44" fill="none" xmlns="http://www.w3.org/2000/svg">
<rect width="17.3319" height="20.9989" transform="matrix(1 0 0 -1 18.3359 42.9976)" fill="black" stroke="black"/>
<rect width="17.3319" height="20.9989" transform="matrix(1 0 0 -1 1 42.9984)" stroke="black"/>
<rect width="12.998" height="16.7991" transform="matrix(1 0 0 -1 3.42188 40.7739)" stroke="black"/>
<rect width="17.3319" height="20.9989" transform="matrix(1 0 0 -1 35.6719 42.9984)" stroke="black"/>
<rect width="12.998" height="16.7991" transform="matrix(1 0 0 -1 38.0938 40.7739)" stroke="black"/>
<rect width="17.3319" height="20.9989" transform="matrix(1 0 0 -1 18.3281 21.9987)" stroke="black"/>
<rect width="12.998" height="16.7991" transform="matrix(1 0 0 -1 20.3516 19.7742)" stroke="black"/>
<rect width="17.3319" height="20.9989" transform="matrix(1 0 0 -1 1 21.9987)" stroke="black"/>
<rect width="12.998" height="16.7991" transform="matrix(1 0 0 -1 3.02344 19.7742)" stroke="black"/>
</svg>
