<svg width="464" height="352" viewBox="0 0 464 352" fill="none" xmlns="http://www.w3.org/2000/svg">
<path d="M335.728 177.316C335.309 175.6 335.052 174.182 334.633 172.831C333.188 168.116 331.634 163.429 330.216 158.701C329.257 155.513 328.473 152.27 327.595 149.042C327.285 147.894 327.541 147.272 328.798 146.786C335.741 144.152 342.631 141.355 349.574 138.681C353.438 137.181 357.355 135.844 361.219 134.344C362.394 133.885 362.84 134.52 363.042 135.384C363.718 138.262 364.285 141.153 364.934 144.03C365.474 146.435 366.068 148.812 366.636 151.203C367.352 154.229 368.054 157.269 368.797 160.295C368.959 160.943 369.283 161.551 369.689 162.551C372.066 159.079 374.187 155.999 376.281 152.905C379.51 148.15 382.698 143.368 385.926 138.613C387.345 136.519 387.858 136.492 390.857 137.978C396.909 140.964 402.961 143.949 409.026 146.894C411.458 148.083 413.93 149.19 416.402 150.312C417.82 150.96 417.928 151.46 416.983 152.851C411.66 160.7 406.338 168.549 401.097 176.451C400.529 177.316 400.232 178.532 400.218 179.572C400.164 191.608 400.097 203.645 400.245 215.681C400.272 218.383 399.421 219.95 397.044 221.166C389.709 224.948 382.468 228.893 375.187 232.77C373.336 233.756 371.445 234.715 369.662 235.823C368.297 236.674 367.163 236.363 365.893 235.661C359.989 232.391 354.072 229.163 348.129 225.961C344.481 224.002 340.793 222.138 337.132 220.22C336.011 219.639 335.484 218.802 335.511 217.41C335.592 210.44 335.538 203.455 335.565 196.485C335.565 192.621 335.565 192.689 332.094 191.122C323.448 187.204 314.83 183.206 306.211 179.234C305.765 179.031 305.346 178.734 304.914 178.478C305.036 176.884 305.819 176.397 307.346 176.451C315.883 176.789 324.434 177.032 332.972 177.316C333.742 177.343 334.525 177.316 335.755 177.316H335.728ZM398.003 180.058C395.598 181.22 393.545 182.274 391.451 183.246C384.535 186.434 377.591 189.582 370.661 192.743C369.405 193.31 368.784 194.08 368.797 195.661C368.878 207.589 368.838 219.517 368.851 231.432C368.851 232.121 368.959 232.81 369.04 233.648C372.904 231.648 376.538 229.811 380.131 227.893C385.575 224.975 390.965 221.963 396.422 219.085C397.665 218.423 398.192 217.667 398.179 216.248C398.125 204.995 398.152 193.743 398.152 182.503C398.152 181.841 398.071 181.179 398.003 180.085V180.058ZM366.528 233.594C366.609 232.594 366.703 231.838 366.703 231.081C366.703 219.436 366.703 207.805 366.703 196.161C366.703 195.769 366.703 195.377 366.703 194.985C366.703 194.053 366.271 193.54 365.271 193.513C356.612 193.256 347.967 192.973 339.307 192.675C338.092 192.635 337.781 193.148 337.781 194.269C337.808 201.807 337.781 209.345 337.848 216.87C337.848 217.545 338.402 218.504 338.97 218.829C342.333 220.747 345.778 222.516 349.196 224.327C354.856 227.353 360.516 230.379 366.514 233.58L366.528 233.594ZM337.835 176.181C341.577 174.817 344.968 173.668 348.291 172.372C354.167 170.075 360.003 167.711 365.852 165.361C366.825 164.969 367.595 164.455 367.271 163.145C366.487 160.011 365.731 156.863 365.015 153.716C363.893 148.772 362.813 143.814 361.732 138.856C361.327 137.005 360.827 136.749 359.125 137.627C358.584 137.911 358.044 138.221 357.477 138.424C352.073 140.437 346.67 142.436 341.253 144.435C338.078 145.611 334.917 146.799 331.742 147.961C330.013 148.583 329.568 149.744 330.257 151.582C330.81 153.027 331.229 154.526 331.688 156.012C332.364 158.174 333.039 160.335 333.674 162.51C334.296 164.645 334.849 166.792 335.498 168.927C336.241 171.358 337.038 173.777 337.821 176.208L337.835 176.181ZM370.297 165.442C372.12 166.117 373.741 166.671 375.322 167.306C378.24 168.481 381.131 169.737 384.062 170.886C388.385 172.588 392.762 174.182 397.071 175.911C398.03 176.303 398.449 176.33 399.084 175.371C401.421 171.818 403.906 168.359 406.297 164.861C408.864 161.119 411.377 157.35 413.957 153.621C414.713 152.527 414.578 151.838 413.376 151.271C412.025 150.636 410.688 149.96 409.337 149.312C403.19 146.327 397.03 143.355 390.897 140.342C388.655 139.234 387.858 139.41 386.629 141.261C383.616 145.8 380.55 150.298 377.497 154.81C375.173 158.241 372.836 161.673 370.27 165.455L370.297 165.442ZM339.334 178.059C339.334 178.221 339.348 178.397 339.361 178.559C340.834 179.194 342.32 179.801 343.765 180.477C351.155 183.976 358.53 187.515 365.933 190.973C366.73 191.352 367.838 191.73 368.567 191.473C370.796 190.663 372.904 189.541 375.052 188.542C379.293 186.556 383.549 184.57 387.79 182.584C390.722 181.206 393.653 179.829 396.895 178.302C395.801 177.829 395.058 177.478 394.302 177.181C390.181 175.573 386.034 174.006 381.928 172.358C377.767 170.683 373.66 168.859 369.472 167.265C368.54 166.914 367.257 166.914 366.325 167.252C362.853 168.508 359.463 170.008 356.018 171.372C352.992 172.574 349.952 173.709 346.926 174.925C344.387 175.938 341.861 177.019 339.334 178.059ZM311.817 178.883C311.763 179.072 311.709 179.261 311.655 179.45C319.49 183.071 327.339 186.691 335.511 190.46C335.511 186.813 335.552 183.679 335.457 180.544C335.457 180.18 334.62 179.572 334.147 179.558C327.406 179.234 320.679 179.004 313.938 178.761C313.235 178.734 312.533 178.842 311.817 178.883ZM337.808 180.139C337.808 183.435 337.767 186.407 337.862 189.379C337.862 189.744 338.551 190.352 338.983 190.406C341.037 190.676 343.103 190.906 345.17 190.96C349.723 191.081 354.289 191.108 358.841 191.162C359.314 191.162 359.8 191.054 360.273 190.987C360.273 190.838 360.273 190.703 360.273 190.555C352.911 187.137 345.548 183.719 337.821 180.126L337.808 180.139Z" fill="black"/>
<path d="M203.977 312.202C203.977 308.325 204.018 304.435 203.937 300.558C203.923 299.963 203.424 299.072 202.91 298.828C195.98 295.451 189.01 292.155 182.026 288.872C179.527 287.697 176.96 286.643 174.474 285.441C173.934 285.184 173.191 284.455 173.245 284.036C173.353 283.199 173.866 282.51 175.069 282.55C183.822 282.874 192.59 283.145 201.343 283.415C201.897 283.428 202.545 283.577 203.005 283.361C203.37 283.185 203.815 282.456 203.721 282.118C202.302 276.998 200.816 271.878 199.303 266.785C198.169 262.962 196.939 259.166 195.778 255.357C195.453 254.29 195.561 253.56 196.939 253.087C200.344 251.899 203.626 250.413 206.99 249.102C211.434 247.373 215.892 245.685 220.337 243.983C223.43 242.807 226.564 241.7 229.631 240.43C230.522 240.065 230.914 240.241 231.117 241.038C231.887 244.118 232.616 247.211 233.359 250.291C234.332 254.398 235.304 258.505 236.263 262.625C236.615 264.138 236.912 265.678 237.263 267.191C237.344 267.528 237.587 267.839 237.749 268.163C238.101 267.947 238.573 267.826 238.79 267.515C242.518 262.044 246.206 256.546 249.934 251.075C251.542 248.711 253.298 246.428 254.865 244.023C255.594 242.902 256.432 242.834 257.418 243.334C263.889 246.522 270.319 249.778 276.803 252.939C279.383 254.195 282.085 255.181 284.679 256.397C285.638 256.843 286.435 257.383 285.435 258.802C280.937 265.218 276.56 271.73 272.156 278.214C271.13 279.713 270.008 281.159 269.13 282.739C268.644 283.617 268.374 284.739 268.36 285.752C268.306 298.072 268.239 310.378 268.414 322.699C268.455 325.157 267.469 326.305 265.55 327.319C258.877 330.831 252.231 334.424 245.571 337.964C242.788 339.436 240.005 340.922 237.182 342.3C236.669 342.543 235.831 342.584 235.331 342.327C231.549 340.382 227.82 338.342 224.078 336.343C218.932 333.6 213.785 330.871 208.638 328.129C207.517 327.535 206.274 327.089 205.315 326.305C204.68 325.792 204.099 324.806 204.072 324.022C203.95 320.091 204.018 316.147 204.018 312.216L203.977 312.202ZM237.223 339.99C238.519 339.26 239.411 338.747 240.303 338.274C245.733 335.383 251.177 332.506 256.608 329.588C259.282 328.156 261.849 326.481 264.618 325.252C266.077 324.603 266.51 323.82 266.51 322.388C266.483 311.135 266.51 299.896 266.496 288.643C266.496 288.305 266.496 287.967 266.496 287.63C266.469 286.697 266.01 286.427 265.172 286.806C262.403 288.048 259.634 289.278 256.878 290.561C250.961 293.303 245.058 296.086 239.141 298.828C237.844 299.436 237.168 300.152 237.182 301.814C237.277 313.742 237.236 325.657 237.236 337.585V339.99H237.223ZM234.818 339.774C234.899 338.963 234.98 338.517 234.98 338.072C234.98 325.86 234.98 313.661 235.007 301.449C235.007 300.085 234.44 299.693 233.21 299.652C224.781 299.396 216.351 299.126 207.936 298.801C206.571 298.747 206.139 299.288 206.139 300.544C206.139 308.082 206.098 315.62 206.179 323.158C206.179 323.806 206.814 324.725 207.422 325.049C212.501 327.872 217.648 330.601 222.782 333.344C226.699 335.437 230.63 337.531 234.831 339.76L234.818 339.774ZM229.482 243.01C227.01 243.942 224.848 244.753 222.701 245.577C217.459 247.589 212.231 249.616 206.99 251.629C204.342 252.642 201.667 253.587 199.047 254.668C198.641 254.83 198.128 255.627 198.209 255.978C199.074 259.369 200.033 262.733 201.019 266.083C202.262 270.338 203.545 274.567 204.856 278.808C205.247 280.078 205.774 281.321 206.328 282.793C206.828 282.361 206.99 282.131 207.22 282.037C212.056 280.132 216.892 278.241 221.728 276.377C225.916 274.756 230.103 273.189 234.278 271.541C235.102 271.216 235.953 270.784 235.669 269.582C235.061 266.921 234.507 264.246 233.886 261.598C233.237 258.883 232.508 256.195 231.86 253.479C231.049 250.061 230.293 246.644 229.455 243.023L229.482 243.01ZM238.763 271.351C239.33 271.77 239.654 272.121 240.046 272.284C244.112 273.918 248.192 275.512 252.271 277.106C256.635 278.822 261.025 280.497 265.375 282.28C266.307 282.658 266.861 282.469 267.374 281.726C268.428 280.173 269.481 278.606 270.535 277.052C272.994 273.459 275.479 269.879 277.911 266.272C279.37 264.124 280.653 261.855 282.22 259.788C283.396 258.234 282.355 257.748 281.288 257.221C279.464 256.33 277.587 255.519 275.75 254.641C269.806 251.791 263.848 248.967 257.945 246.022C256.905 245.496 256.364 245.577 255.77 246.468C254.568 248.251 253.325 250.007 252.123 251.791C247.692 258.288 243.261 264.786 238.763 271.365V271.351ZM207.233 284.374C208.273 284.968 208.76 285.306 209.286 285.563C213.069 287.332 216.838 289.089 220.634 290.818C225.618 293.101 230.617 295.384 235.615 297.626C235.966 297.788 236.52 297.829 236.871 297.667C240.343 296.1 243.788 294.465 247.246 292.885C250.92 291.209 254.608 289.588 258.269 287.886C260.471 286.86 262.633 285.711 265.024 284.509C264.037 284.009 263.321 283.59 262.551 283.28C259.688 282.145 256.783 281.091 253.919 279.943C249.083 278.025 244.301 275.998 239.438 274.161C238.033 273.634 236.263 273.081 234.953 273.486C231.373 274.567 227.956 276.174 224.47 277.552C220.823 278.997 217.148 280.416 213.501 281.861C211.569 282.618 209.651 283.415 207.247 284.387L207.233 284.374ZM180.121 285.022C180.053 285.212 179.986 285.414 179.918 285.603C181.783 286.441 183.66 287.251 185.524 288.116C191.131 290.71 196.737 293.263 202.302 295.951C203.545 296.545 203.95 296.356 203.95 295.073C203.964 292.425 203.95 289.791 203.95 287.143C203.95 286.103 203.478 285.617 202.41 285.63C200.668 285.657 198.925 285.644 197.183 285.576C193.603 285.428 190.023 285.185 186.43 285.049C184.322 284.968 182.215 285.036 180.107 285.036L180.121 285.022ZM206.355 286.441C206.26 287.319 206.139 287.9 206.139 288.494C206.112 290.575 206.233 292.668 206.098 294.735C206.004 296.356 206.733 296.775 208.165 296.816C214.352 296.978 220.539 297.194 226.726 297.369C227.307 297.383 227.888 297.248 228.469 297.18C228.496 297.032 228.523 296.897 228.55 296.748C221.255 293.357 213.974 289.98 206.355 286.441Z" fill="black"/>
<path d="M234.112 22.6401C234.625 24.653 235.139 26.4631 235.558 28.2868C236.706 33.3527 237.814 38.432 238.948 43.4978C239.394 45.4971 239.853 47.4964 240.38 49.4822C240.488 49.9145 240.907 50.2657 241.177 50.6575C241.542 50.3873 242.028 50.1982 242.271 49.847C246.013 44.3894 249.701 38.9048 253.43 33.4337C254.983 31.1507 256.618 28.9218 258.158 26.6388C258.833 25.6391 259.603 25.531 260.603 26.0309C264.966 28.1788 269.33 30.3402 273.72 32.4476C278.259 34.636 282.838 36.7704 287.391 38.9318C288.039 39.2425 288.647 39.6208 289.444 40.0665C288.634 41.3364 287.945 42.5117 287.175 43.6464C282.257 50.8601 277.286 58.0333 272.437 65.2876C271.91 66.0846 271.842 67.3004 271.842 68.3271C271.802 80.3634 271.734 92.3998 271.883 104.436C271.91 107.138 271.086 108.746 268.695 109.934C264.088 112.217 259.576 114.676 255.051 117.107C250.039 119.782 245.068 122.525 240.056 125.186C239.718 125.361 239.11 125.307 238.746 125.118C229.911 120.417 221.103 115.676 212.282 110.961C211.174 110.367 210.012 109.88 208.918 109.286C207.797 108.678 207.081 107.881 207.081 106.395C207.149 93.3454 207.257 80.2959 207.054 67.2463C207.014 64.369 205.919 61.4781 205.176 58.6277C204.325 55.3586 203.326 52.1299 202.353 48.9013C201.515 46.0915 200.637 43.2817 199.773 40.4718C199.462 39.4722 199.016 38.486 198.868 37.4593C198.8 36.9865 199.151 36.122 199.543 35.9599C202.231 34.7981 204.974 33.7849 207.689 32.7177C210.377 31.6776 213.079 30.6374 215.767 29.5972C218.969 28.3679 222.184 27.1386 225.399 25.9228C228.182 24.8691 230.978 23.8289 234.099 22.6536L234.112 22.6401ZM269.519 69.2051C268.978 69.3402 268.56 69.3943 268.195 69.5564C265.574 70.7316 262.953 71.9069 260.36 73.1092C256.618 74.8383 252.889 76.608 249.134 78.3371C247.283 79.1882 245.419 80.0257 243.528 80.7957C240.569 82.0115 240.34 82.3087 240.34 85.5914C240.34 97.1144 240.34 108.637 240.34 120.16C240.34 120.795 240.434 121.444 240.515 122.362C242.42 121.417 244.055 120.647 245.649 119.796C253.078 115.797 260.481 111.744 267.952 107.813C269.167 107.165 269.627 106.49 269.627 105.152C269.586 93.7912 269.6 82.4438 269.6 71.0829C269.6 70.529 269.546 69.9751 269.505 69.2051H269.519ZM237.949 122.254C238.124 121.484 238.34 120.958 238.34 120.444C238.354 108.246 238.34 96.0607 238.381 83.8622C238.381 82.714 237.841 82.0655 236.935 81.6468C235.085 80.7822 233.207 80.0122 231.356 79.1476C225.453 76.4053 219.563 73.636 213.673 70.8937C212.363 70.2858 211.026 69.732 209.607 69.0971C209.486 69.6509 209.364 69.9211 209.364 70.1913C209.364 82.1061 209.337 94.0209 209.391 105.936C209.391 106.476 209.837 107.26 210.31 107.53C212.458 108.773 214.687 109.853 216.875 111.029C221.441 113.487 225.98 115.986 230.559 118.431C232.923 119.701 235.341 120.903 237.962 122.254H237.949ZM238.894 52.2515C238.273 49.3606 237.665 46.4697 237.003 43.5788C236.328 40.6474 235.571 37.7295 234.882 34.7981C234.288 32.2584 233.747 29.6918 233.153 27.1521C232.937 26.2605 232.505 25.531 231.37 25.9768C229.992 26.5172 228.628 27.0981 227.25 27.6519C223.075 29.327 218.928 31.0561 214.727 32.6502C210.837 34.1227 206.878 35.4195 202.947 36.8244C201.84 37.2162 201.218 37.8781 201.624 39.229C202.272 41.3904 202.745 43.6059 203.393 45.7808C204.312 48.8608 205.338 51.9003 206.271 54.9803C207.149 57.8982 207.946 60.8296 208.81 63.7611C209.04 64.5581 209.486 64.9228 210.418 64.5581C214.808 62.883 219.225 61.3025 223.602 59.6138C228.033 57.9117 232.451 56.1691 236.8 54.3049C237.611 53.9536 239.245 54.0077 238.881 52.265L238.894 52.2515ZM241.88 54.1428C244.095 55.0884 245.973 55.9124 247.878 56.6689C254.348 59.2356 260.833 61.7753 267.303 64.3554C269.789 65.3416 269.775 65.3686 271.342 63.0586C273.288 60.1947 275.233 57.3309 277.178 54.467C279.934 50.4143 282.636 46.3076 285.486 42.309C286.472 40.9311 285.662 40.4313 284.703 39.945C283.23 39.1885 281.677 38.5536 280.177 37.8376C273.855 34.7981 267.506 31.7721 261.224 28.6516C260.008 28.0572 259.455 28.3409 258.766 29.354C255.199 34.663 251.579 39.9315 247.972 45.2134C245.986 48.1178 244.014 51.0222 241.866 54.1563L241.88 54.1428ZM268.127 67.2058C267.641 66.8546 267.29 66.4763 266.857 66.3007C263.94 65.1255 260.995 63.9907 258.063 62.829C253.862 61.1674 249.688 59.3977 245.46 57.8307C242.474 56.723 239.529 54.7101 236.138 56.7635C235.571 57.1012 234.909 57.2633 234.288 57.5065C230.64 58.9654 227.007 60.4379 223.359 61.8698C220.995 62.8019 218.577 63.599 216.213 64.5446C214.416 65.2605 212.66 66.1251 210.891 66.9221C214.214 68.8539 217.483 70.2993 220.711 71.8123C226.79 74.6627 232.856 77.5671 238.935 80.4175C239.232 80.5526 239.718 80.539 240.029 80.3905C243.892 78.6343 247.756 76.8511 251.592 75.041C257.064 72.4608 262.521 69.8536 268.141 67.1923L268.127 67.2058Z" fill="black"/>
<path d="M143.904 154.946C141.594 158.377 139.487 161.524 137.339 164.672C133.799 169.859 130.206 175.02 126.748 180.261C126.18 181.126 125.897 182.342 125.897 183.395C125.843 195.999 125.829 208.589 125.897 221.193C125.897 222.801 125.248 223.625 123.938 224.314C119.845 226.488 115.806 228.744 111.713 230.919C105.998 233.945 100.284 236.944 94.5294 239.889C94.0566 240.132 93.219 240.119 92.7462 239.862C85.6406 236.093 78.562 232.243 71.4699 228.447C68.7817 227.015 66.0664 225.637 63.3511 224.273C62.1218 223.652 61.4869 222.882 61.5004 221.328C61.5815 208.116 61.649 194.891 61.5004 181.68C61.4734 179.356 60.4603 177.046 59.8118 174.75C58.6366 170.575 57.4208 166.415 56.1645 162.267C55.2729 159.349 54.2597 156.459 53.3817 153.541C53.1655 152.811 53.2061 152.001 53.125 151.217C57.029 149.596 60.771 147.948 64.5939 146.489C69.8218 144.503 75.1173 142.693 80.3722 140.748C82.7092 139.883 84.9787 138.843 87.3157 137.992C87.6534 137.87 88.5315 138.262 88.599 138.546C89.4771 142.112 90.2201 145.719 91.0711 149.299C91.7196 152.001 92.5301 154.675 93.1785 157.377C93.8404 160.119 94.3808 162.902 95.0562 166.036C95.7182 165.523 96.1504 165.32 96.3936 164.983C100.892 158.458 105.377 151.92 109.848 145.381C110.605 144.287 111.267 143.125 112.023 142.031C112.847 140.829 113.739 140.437 115.265 141.207C122.236 144.706 129.26 148.07 136.285 151.46C138.703 152.622 141.175 153.703 143.917 154.946H143.904ZM92.4761 237.404C92.5571 236.62 92.6382 236.174 92.6382 235.742C92.6382 223.368 92.6652 210.994 92.5976 198.62C92.5976 197.971 91.9897 197.08 91.4089 196.728C90.139 195.972 88.6936 195.513 87.3427 194.891C79.9264 191.46 72.4966 188.042 65.1073 184.557C63.8104 183.949 63.4862 184.449 63.4052 185.597C63.4052 185.759 63.4052 185.935 63.4052 186.097C63.4052 197.35 63.3782 208.589 63.4592 219.842C63.4592 220.774 64.0266 221.936 64.7155 222.557C65.6206 223.381 66.9175 223.787 68.0252 224.381C72.6857 226.88 77.3327 229.379 82.0068 231.865C85.411 233.675 88.8152 235.458 92.4896 237.404H92.4761ZM95.0022 237.377C99.298 235.08 103.27 232.973 107.255 230.825C112.158 228.191 117.021 225.462 121.993 222.922C123.249 222.287 123.749 221.598 123.749 220.261C123.722 208.846 123.749 197.431 123.722 186.029C123.722 185.422 123.533 184.814 123.411 184.125C122.655 184.462 122.141 184.679 121.641 184.908C117.481 186.786 113.293 188.65 109.146 190.555C105.39 192.284 101.635 194.013 97.9471 195.877C96.6097 196.553 94.7725 196.593 94.7996 199.065C94.9347 211.088 94.8671 223.125 94.8671 235.161C94.8671 235.769 94.9347 236.377 95.0022 237.39V237.377ZM93.5027 167.914C93.138 166.752 92.8543 166.077 92.7057 165.374C91.8411 161.403 91.0576 157.404 90.139 153.446C89.2745 149.718 88.2478 146.016 87.3292 142.301C86.8969 140.572 86.5727 140.437 84.9922 141.302C84.2087 141.734 83.3847 142.085 82.5471 142.396C78.8052 143.787 75.0632 145.125 71.3213 146.503C66.6608 148.232 61.9868 149.934 57.3532 151.73C56.5157 152.055 55.2189 152.244 55.6511 153.73C56.6508 157.188 57.6234 160.66 58.6771 164.105C60.1225 168.833 61.7166 173.507 63.054 178.275C63.4457 179.694 64.0671 179.896 65.1748 179.478C69.4166 177.87 73.6448 176.222 77.8731 174.574C82.2904 172.845 86.7213 171.129 91.1252 169.346C91.9897 168.995 92.7462 168.36 93.4892 167.901L93.5027 167.914ZM140.594 156.013C140.257 155.77 140.054 155.581 139.811 155.472C136.947 154.054 134.083 152.622 131.206 151.231C125.978 148.705 120.696 146.3 115.536 143.652C114.077 142.909 113.509 143.517 112.847 144.49C108.025 151.568 103.216 158.647 98.4064 165.739C97.6499 166.847 96.961 167.995 96.1369 169.292C99.3925 170.508 102.351 171.561 105.282 172.71C111.253 175.047 117.184 177.451 123.168 179.748C123.641 179.923 124.546 179.64 124.924 179.248C125.573 178.6 125.937 177.681 126.478 176.911C129.314 172.777 132.192 168.671 135.015 164.51C136.906 161.727 138.717 158.89 140.594 156.013ZM64.8236 182.058C66.0124 182.679 66.6743 183.058 67.3497 183.368C71.7131 185.395 76.0764 187.394 80.4262 189.407C84.5869 191.338 88.7476 193.284 92.9218 195.202C93.2866 195.364 93.8269 195.459 94.1511 195.31C97.5148 193.784 100.851 192.203 104.215 190.649C107.876 188.961 111.564 187.34 115.225 185.638C117.535 184.57 119.818 183.409 122.303 182.206C121.709 181.747 121.398 181.396 120.993 181.234C118.345 180.14 115.684 179.059 113.023 178.005C107.876 175.992 102.743 173.966 97.5689 172.007C95.8262 171.359 94.1376 170.265 92.1113 171.062C88.6666 172.426 85.1948 173.736 81.7501 175.087C77.9271 176.587 74.1041 178.1 70.3082 179.64C68.6061 180.329 66.931 181.112 64.8101 182.044L64.8236 182.058Z" fill="black"/>
<path d="M324.656 253.493C328.628 251.953 332.343 250.507 336.058 249.089C340.61 247.346 345.176 245.603 349.742 243.861C352.687 242.74 355.672 241.699 358.563 240.457C359.617 240.011 359.995 240.173 360.225 241.173C361.562 246.995 362.886 252.817 364.237 258.639C364.993 261.895 365.817 265.137 366.736 268.92C368.046 267.11 369.141 265.678 370.167 264.178C374.423 257.924 378.651 251.655 382.893 245.401C383.257 244.86 383.703 244.374 384.041 243.807C384.649 242.767 385.581 242.875 386.391 243.266C392.47 246.238 398.495 249.291 404.574 252.263C407.6 253.736 410.707 255.06 413.774 256.465C415.449 257.221 415.422 257.491 414.409 258.964C410.815 264.138 407.303 269.366 403.75 274.566C401.98 277.174 400.116 279.727 398.468 282.415C397.86 283.388 397.428 284.658 397.428 285.792C397.36 298.328 397.347 310.878 397.428 323.428C397.428 325.13 396.82 325.981 395.334 326.765C388.364 330.412 381.474 334.208 374.531 337.936C371.761 339.422 368.979 340.881 366.142 342.246C365.601 342.502 364.71 342.489 364.169 342.219C360.468 340.341 356.821 338.369 353.16 336.423C347.419 333.384 341.704 330.317 335.95 327.318C333.991 326.292 332.964 325.103 333.005 322.577C333.194 309.703 333.194 296.815 333.032 283.942C333.005 281.632 331.978 279.322 331.33 277.039C330.438 273.945 329.465 270.879 328.533 267.798C327.358 263.921 326.142 260.058 325.021 256.181C324.764 255.303 324.791 254.357 324.683 253.493H324.656ZM363.926 339.801C364.048 339.085 364.142 338.76 364.142 338.436C364.142 325.954 364.169 313.472 364.102 300.99C364.102 300.449 363.548 299.652 363.048 299.409C360.333 298.058 357.537 296.856 354.781 295.573C348.729 292.749 342.663 289.953 336.652 287.049C335.193 286.346 334.909 286.995 334.909 288.156C334.896 299.747 334.882 311.324 334.95 322.915C334.95 323.617 335.45 324.549 336.017 324.981C337.017 325.724 338.26 326.13 339.381 326.738C345.352 329.939 351.309 333.154 357.28 336.342C359.401 337.477 361.549 338.585 363.913 339.828L363.926 339.801ZM395.01 286.414C393.808 287.022 392.943 287.494 392.038 287.9C387.769 289.845 383.473 291.777 379.205 293.735C375.544 295.411 371.91 297.126 368.263 298.815C367.047 299.369 366.223 299.99 366.236 301.638C366.317 313.675 366.277 325.711 366.29 337.747C366.29 338.369 366.452 338.99 366.56 339.76C371.302 337.261 375.814 334.937 380.272 332.533C384.73 330.142 389.107 327.575 393.619 325.279C394.942 324.603 395.267 323.833 395.267 322.55C395.253 311.243 395.267 299.936 395.253 288.629C395.253 287.981 395.118 287.332 395.023 286.414H395.01ZM365.088 270.77C364.44 268.379 363.953 266.772 363.575 265.151C361.967 258.261 360.373 251.372 358.793 244.469C358.428 242.915 358.104 242.78 356.632 243.604C355.902 244.009 355.146 244.401 354.376 244.698C350.593 246.144 346.811 247.549 343.028 248.981C338.773 250.588 334.518 252.209 330.262 253.83C329.33 254.182 328.074 254.317 327.561 255.006C327.142 255.559 327.507 256.816 327.75 257.707C328.614 260.855 329.56 263.989 330.492 267.11C331.127 269.244 331.789 271.365 332.424 273.499C333.248 276.269 334.018 279.051 334.896 281.807C334.977 282.077 335.733 282.415 336.031 282.307C338.003 281.591 339.921 280.74 341.866 279.956C346.73 277.998 351.606 276.039 356.483 274.094C358.996 273.08 361.522 272.094 364.048 271.108C364.521 270.933 365.007 270.811 365.088 270.784V270.77ZM367.709 271.5C368.897 272.027 369.884 272.486 370.87 272.891C374.287 274.296 377.705 275.742 381.15 277.079C385.473 278.768 389.904 280.24 394.145 282.118C395.469 282.699 395.969 282.334 396.55 281.483C401.4 274.364 406.222 267.231 411.058 260.112C412.207 258.423 412.166 258.14 410.302 257.248C402.656 253.574 394.969 249.98 387.391 246.171C385.702 245.32 385.095 245.847 384.257 247.116C381.852 250.737 379.34 254.29 376.908 257.897C373.909 262.314 370.924 266.758 367.722 271.513L367.709 271.5ZM394.118 284.495C393.051 283.982 392.322 283.563 391.552 283.266C388.066 281.902 384.568 280.605 381.096 279.227C376.273 277.322 371.478 275.336 366.628 273.472C365.844 273.175 364.777 273.107 364.007 273.391C360.427 274.688 356.902 276.147 353.362 277.565C349.823 278.97 346.297 280.402 342.772 281.807C340.705 282.631 338.638 283.415 336.557 284.225C336.571 284.387 336.584 284.549 336.612 284.725C339.543 286.089 342.461 287.454 345.392 288.818C351.755 291.777 358.117 294.762 364.507 297.68C364.912 297.869 365.574 297.761 366.02 297.572C371.478 295.127 376.922 292.668 382.339 290.156C386.175 288.372 389.971 286.508 394.118 284.522V284.495Z" fill="black"/>
<path d="M335.543 82.2142C335.543 75.7975 335.57 69.3943 335.516 62.9776C335.516 61.7348 335.975 60.9918 337.083 60.573C341 59.0465 344.931 57.5335 348.835 55.9935C352.334 54.6156 355.833 53.2107 359.332 51.8058C361.479 50.9412 363.546 49.6984 365.775 49.2391C368.558 48.6582 369.639 46.5643 370.99 44.6055C373.178 41.4445 375.38 38.2834 377.528 35.0953C380.311 30.9886 383.094 26.8684 385.795 22.7212C386.916 20.9921 387.754 20.5598 389.389 21.3433C396.724 24.8826 404.046 28.449 411.381 31.9883C413.083 32.8123 414.785 33.6093 416.514 34.3388C417.717 34.8522 417.892 35.4736 417.122 36.6218C411.746 44.5245 406.356 52.4137 401.06 60.3704C400.493 61.2349 400.209 62.4507 400.209 63.5044C400.155 75.5408 400.128 87.5772 400.209 99.6136C400.223 102.194 399.655 103.761 396.994 104.977C392.05 107.233 387.376 110.123 382.594 112.744C378.149 115.176 373.732 117.661 369.234 119.958C368.477 120.336 367.153 120.215 366.37 119.809C358.21 115.541 350.105 111.15 341.986 106.8C340.244 105.868 338.501 104.896 336.758 103.963C335.732 103.41 335.516 102.531 335.516 101.451C335.543 95.0341 335.516 88.6309 335.516 82.2142H335.529H335.543ZM398.061 64.4095C397.345 64.5176 396.751 64.4636 396.278 64.6932C392.374 66.4899 388.47 68.3271 384.593 70.1778C379.959 72.3797 375.353 74.6627 370.665 76.7836C369.355 77.378 368.815 78.0535 368.828 79.4854C368.869 91.4677 368.855 103.45 368.855 115.432C368.855 115.986 368.909 116.527 368.95 117.31C369.706 117.081 370.314 116.999 370.814 116.729C373.394 115.351 375.947 113.919 378.528 112.528C384.647 109.232 390.753 105.895 396.913 102.694C397.967 102.14 398.183 101.505 398.183 100.478C398.156 89.0091 398.169 77.5266 398.169 66.0576C398.169 65.6118 398.115 65.166 398.075 64.4365L398.061 64.4095ZM337.988 64.3555C337.907 64.8283 337.826 65.0985 337.826 65.3686C337.826 77.297 337.799 89.2118 337.853 101.14C337.853 101.64 338.339 102.342 338.798 102.599C342.783 104.855 346.795 107.07 350.835 109.232C355.495 111.731 360.183 114.163 364.843 116.648C366.41 117.472 366.707 117.364 366.707 115.635C366.721 103.437 366.707 91.2246 366.721 79.0261C366.721 77.9319 366.302 77.3105 365.289 76.8512C356.765 72.9066 348.254 68.9215 339.73 64.9634C339.204 64.7202 338.623 64.5851 337.988 64.3825V64.3555ZM397.967 60.2083C398.453 59.7895 399.034 59.4653 399.372 58.979C401.452 55.98 403.478 52.954 405.532 49.9415C408.328 45.8213 411.124 41.6876 413.961 37.5809C414.691 36.5273 414.704 35.7437 413.448 35.1899C413.151 35.0548 412.772 35.0818 412.475 34.9332C404.924 31.2453 397.372 27.5304 389.821 23.8289C388.713 23.2886 387.903 23.4102 387.133 24.5719C383.62 29.8404 380.014 35.0548 376.447 40.2962C374.718 42.8359 372.962 45.3756 371.26 47.9422C370.692 48.8068 370.584 49.5093 371.895 49.9821C374.434 50.8872 376.906 51.9679 379.419 52.9675C383.701 54.6696 387.97 56.3718 392.252 58.0469C394.09 58.7628 395.94 59.4383 397.98 60.2083H397.967ZM396.427 62.4778C396.102 62.0995 395.9 61.6402 395.562 61.5051C392.968 60.4379 390.348 59.4383 387.741 58.4116C381.364 55.8989 374.988 53.3593 368.599 50.8601C368.22 50.7115 367.68 50.7115 367.302 50.8601C364.06 52.0895 360.831 53.3458 357.602 54.6156C351.834 56.8986 346.079 59.1951 340.338 61.5051C340.068 61.6132 339.663 61.9509 339.69 62.113C339.744 62.4102 340.014 62.7749 340.298 62.91C342.581 64.0178 344.891 65.0985 347.201 66.1657C353.253 68.9755 359.345 71.7178 365.356 74.6222C367.113 75.4733 368.558 75.5408 370.355 74.6492C374.799 72.4338 379.352 70.448 383.85 68.3541C387.943 66.4494 392.036 64.5311 396.427 62.4778Z" fill="black"/>
<path d="M281.461 145.787C280.678 147.029 280.029 148.11 279.327 149.15C274.301 156.553 269.236 163.929 264.251 171.359C263.778 172.075 263.575 173.101 263.575 173.979C263.535 186.3 263.467 198.62 263.629 210.926C263.656 213.385 262.832 214.574 260.739 215.627C254.498 218.775 248.365 222.139 242.191 225.408C238.787 227.218 235.383 229.055 231.951 230.825C231.56 231.027 230.884 231.041 230.492 230.838C224.211 227.475 217.97 224.016 211.688 220.653C208 218.68 204.272 216.803 200.543 214.911C199.422 214.344 199.233 213.412 199.233 212.277C199.26 205.415 199.247 198.552 199.247 191.69C199.247 185.786 199.301 179.883 199.22 173.979C199.193 172.183 199.773 171.318 201.57 170.778C204.272 169.967 206.839 168.738 209.473 167.698C213.89 165.942 218.294 164.172 222.711 162.429C224.873 161.578 227.007 160.552 229.25 159.984C232.762 159.106 233.843 155.986 235.572 153.541C239.408 148.124 243.056 142.558 246.771 137.06C247.73 135.641 248.702 134.223 249.648 132.791C250.485 131.548 251.364 131.278 252.836 132.007C260.549 135.803 268.331 139.478 276.098 143.193C277.787 144.003 279.475 144.827 281.421 145.773L281.461 145.787ZM230.047 228.177C230.155 227.556 230.276 227.177 230.276 226.799C230.29 214.317 230.303 201.835 230.263 189.353C230.263 188.839 229.776 188.096 229.317 187.867C225.94 186.218 222.495 184.678 219.091 183.084C213.796 180.599 208.514 178.059 203.205 175.614C201.124 174.655 201.043 174.749 201.043 177.032C201.043 187.826 201.138 198.633 200.962 209.427C200.922 212.02 201.827 213.317 204.042 214.398C208.271 216.478 212.364 218.856 216.538 221.085C220.969 223.435 225.413 225.759 230.074 228.204L230.047 228.177ZM261.171 174.925C258.564 176.046 256.119 177.019 253.728 178.127C247.77 180.883 241.786 183.611 235.909 186.543C234.518 187.232 232.384 187.286 232.411 189.906C232.519 202.051 232.451 214.209 232.465 226.353C232.465 226.934 232.6 227.515 232.694 228.258C234.613 227.204 236.301 226.259 237.99 225.34C245.258 221.409 252.498 217.437 259.82 213.614C260.968 213.007 261.346 212.399 261.346 211.183C261.319 199.714 261.333 188.231 261.319 176.762C261.319 176.181 261.225 175.587 261.171 174.939V174.925ZM233.978 159.768C234.491 160.146 234.856 160.525 235.288 160.714C238.679 162.078 242.069 163.402 245.474 164.726C249.945 166.482 254.389 168.306 258.901 169.927C260.077 170.346 261.441 171.778 262.765 169.778C267.223 163.051 271.789 156.404 276.301 149.718C276.909 148.813 277.462 147.867 278.043 146.935C277.098 146.381 276.179 145.76 275.193 145.273C267.777 141.653 260.347 138.086 252.958 134.426C251.931 133.926 251.431 134.142 250.877 134.952C249.499 136.952 248.094 138.924 246.716 140.923C243.029 146.3 239.368 151.69 235.693 157.066C235.112 157.931 234.572 158.823 233.978 159.768ZM259.806 173.169C259.806 172.993 259.806 172.831 259.806 172.656C258.456 172.075 257.118 171.453 255.74 170.913C252.201 169.549 248.621 168.265 245.095 166.86C240.948 165.212 236.855 163.416 232.694 161.808C231.87 161.497 230.722 161.511 229.885 161.822C226.305 163.145 222.779 164.618 219.24 166.05C216.484 167.158 213.755 168.306 210.999 169.386C208.203 170.494 205.38 171.561 202.151 172.791C207.23 175.168 211.85 177.343 216.484 179.518C220.631 181.477 224.792 183.409 228.925 185.408C230.56 186.205 231.978 186.232 233.694 185.354C238.827 182.76 244.069 180.383 249.283 177.951C252.782 176.317 256.308 174.749 259.82 173.142L259.806 173.169Z" fill="black"/>
<path d="M61.5571 304.516C61.5571 298.22 61.5976 291.925 61.5301 285.617C61.503 283.793 62.0029 282.969 63.9481 282.375C67.528 281.294 70.9322 279.605 74.4309 278.227C79.4292 276.269 84.3869 274.121 89.4932 272.486C93.3567 271.257 95.7208 268.744 97.8416 265.529C102.34 258.707 107.028 252.02 111.634 245.279C111.945 244.833 112.215 244.361 112.499 243.888C113.12 242.834 114.012 242.861 114.957 243.334C121.414 246.549 127.845 249.818 134.315 252.979C136.882 254.236 139.557 255.262 142.177 256.384C143.853 257.099 143.907 257.518 142.812 259.099C137.625 266.704 132.573 274.391 127.25 281.888C126.007 283.631 125.845 285.292 125.845 287.184C125.845 299.098 125.818 311.027 125.886 322.942C125.886 324.86 125.373 325.914 123.576 326.819C118.132 329.547 112.809 332.533 107.446 335.424C103.421 337.599 99.3546 339.706 95.383 341.989C93.8295 342.894 92.6272 342.354 91.3439 341.651C86.3051 338.923 81.2799 336.153 76.2276 333.438C71.9183 331.114 67.5955 328.831 63.2592 326.575C62.0569 325.954 61.4895 325.157 61.5165 323.698C61.5976 317.295 61.5571 310.878 61.5571 304.462V304.516ZM92.4111 339.774C92.5327 339.233 92.6272 338.963 92.6272 338.706C92.6272 326.049 92.6543 313.391 92.6002 300.747C92.6002 300.301 92.1004 299.652 91.6681 299.436C88.8448 298.058 85.9674 296.775 83.1171 295.451C77.1057 292.655 71.0808 289.899 65.0964 287.035C63.6509 286.346 63.3943 286.9 63.3943 288.129C63.3943 299.72 63.3673 311.297 63.4348 322.888C63.4348 323.59 63.9346 324.536 64.502 324.954C65.5422 325.724 66.839 326.143 67.9872 326.765C73.3772 329.655 78.7672 332.587 84.1572 335.478C86.8185 336.896 89.4932 338.274 92.3976 339.787L92.4111 339.774ZM95.0318 339.774C99.8544 337.22 104.353 334.87 108.811 332.465C113.255 330.074 117.632 327.521 122.157 325.265C123.454 324.617 123.738 323.901 123.738 322.712C123.738 311.351 123.738 299.99 123.724 288.629C123.724 287.967 123.535 287.292 123.414 286.508C122.252 287.062 121.374 287.494 120.469 287.9C116.2 289.858 111.931 291.79 107.676 293.749C104.056 295.411 100.435 297.086 96.8285 298.774C95.7072 299.301 94.8022 299.787 94.8157 301.409C94.8967 313.445 94.8697 325.481 94.8697 337.518C94.8697 338.166 94.9508 338.814 95.0183 339.774H95.0318ZM96.126 271.554C99.5572 272.945 102.705 274.229 105.879 275.499C111.567 277.782 117.267 280.038 122.954 282.334C123.941 282.726 124.548 282.375 125.062 281.605C129.844 274.472 134.613 267.326 139.435 260.22C140.84 258.153 140.867 258.153 138.598 257.072C130.79 253.371 122.981 249.67 115.214 245.887C114.255 245.414 113.931 245.549 113.377 246.36C110.324 250.885 107.203 255.37 104.123 259.882C101.53 263.665 98.9494 267.447 96.1395 271.554H96.126ZM122.59 284.495C121.604 283.996 120.901 283.55 120.131 283.266C116.646 281.915 113.12 280.645 109.648 279.268C104.772 277.336 99.922 275.309 95.0318 273.405C94.3158 273.121 93.3162 273.094 92.6002 273.351C89.0204 274.675 85.4811 276.147 81.9283 277.552C78.2809 278.997 74.6201 280.402 70.9727 281.848C69.0274 282.618 67.0822 283.428 65.0153 284.266C65.353 284.658 65.4071 284.779 65.5016 284.82C69.5408 286.684 73.6069 288.508 77.6325 290.399C82.6983 292.763 87.7371 295.181 92.8029 297.545C93.2351 297.748 93.8971 297.829 94.3158 297.64C97.8416 296.059 101.34 294.397 104.853 292.79C108.473 291.128 112.107 289.534 115.714 287.873C117.943 286.846 120.118 285.711 122.576 284.495H122.59Z" fill="black"/>
<path d="M169.146 21.0161H21.1172V132.454H169.146V21.0161Z" fill="white"/>
<path fill-rule="evenodd" clip-rule="evenodd" d="M165.638 24.3251H24.3914V129.112H165.638V24.3251ZM169.029 21V132.438H21V21H169.029Z" fill="#0070F3"/>
<path d="M85.9541 88.8573C85.9876 77.1292 88.9697 73.4948 94.476 69.9607C98.8095 67.1959 102.104 64.498 102.104 60.2727C102.104 56.0474 98.843 53.4164 94.7552 53.4164C90.6674 53.4164 86.9593 56.3261 86.8476 61.1311H70.8984C71.1106 46.5935 81.8551 40.1274 94.8892 40.1274C109.174 40.1274 119.539 46.9057 119.539 59.47C119.539 67.7422 115.138 72.759 108.482 76.6609C103.244 79.7713 100.719 82.7145 100.719 88.835V90.2509H85.9541V88.835V88.8573ZM84.6027 103.975C84.5357 99.0582 88.6235 95.0782 93.616 95.0782C98.6085 95.0782 102.562 99.0582 102.629 103.975C102.562 108.958 98.3628 112.971 93.616 112.971C88.6235 112.971 84.5357 108.958 84.6027 103.975Z" fill="#0070F3"/>
</svg>
