<svg width="464" height="352" viewBox="0 0 464 352" fill="none" xmlns="http://www.w3.org/2000/svg">
<path d="M239.655 162.803C235.505 162.803 231.633 162.803 227.761 162.803C222.942 162.803 223.522 162.439 223.477 167.037C223.438 171.114 223.282 171.069 227.388 171.024C230.144 170.996 232.899 171.052 235.655 171.007C236.804 170.985 237.251 171.36 237.206 172.57C237.122 174.86 237.184 177.162 237.184 179.654H261.4C261.199 180.365 261.149 180.852 260.932 181.255C257.791 187.119 254.622 192.971 251.482 198.834C251.253 199.266 251.203 199.786 250.979 200.223C250.076 201.993 248.921 202.962 246.623 202.928C238.082 202.782 229.541 202.878 221 203.001C213.653 203.107 206.312 203.326 198.971 203.617C197.33 203.684 196.449 203.102 195.707 201.73C192.94 196.617 190.089 191.549 187.267 186.464C186.095 184.352 184.924 182.241 183.602 179.867C184.533 179.771 185.169 179.654 185.811 179.654C192.22 179.643 198.636 179.648 205.046 179.643C206.593 179.643 207.368 178.838 207.372 177.229C207.372 175.762 207.394 174.294 207.372 172.827C207.35 171.556 207.902 170.99 209.202 171.007C212.632 171.046 216.063 170.979 219.494 171.035C221.078 171.063 221.686 170.43 221.681 168.84C221.636 162.125 221.703 155.405 221.631 148.691C221.614 147.067 222.11 146.54 223.745 146.574C228.526 146.669 233.307 146.619 238.087 146.602C238.952 146.602 239.677 146.669 239.677 147.806C239.672 152.706 239.677 157.606 239.677 162.803H239.655ZM187.233 182.028C188.433 184.224 189.504 186.195 190.586 188.155C192.6 191.789 194.681 195.39 196.622 199.064C197.492 200.71 198.524 201.455 200.521 201.399C212.471 201.058 224.426 200.862 236.38 200.643C239.75 200.582 243.125 200.576 246.494 200.582C247.565 200.582 248.263 200.386 248.843 199.215C250.656 195.547 252.709 192.002 254.65 188.396C255.738 186.363 256.781 184.308 257.964 182.034H187.228L187.233 182.028ZM234.796 173.258H232.659C226.925 173.258 221.19 173.258 215.455 173.258C213.938 173.258 212.415 173.191 210.903 173.314C210.446 173.348 209.693 173.874 209.659 174.233C209.52 175.723 209.598 177.229 209.598 178.825H234.796V173.258Z" fill="black"/>
<path d="M228.09 301.323C221.568 301.323 215.042 301.81 208.52 301.883C205.452 301.917 202.373 302.124 199.316 302.387C197.648 302.533 196.577 301.917 195.801 300.489C192.923 295.196 190.022 289.916 187.126 284.635C186.312 283.145 185.503 281.655 184.655 280.182C183.651 278.435 183.785 278.161 185.855 278.155C192.153 278.138 198.451 278.155 204.755 278.144C206.488 278.144 207.354 277.276 207.354 275.54C207.354 274.241 207.326 272.941 207.365 271.648C207.416 269.873 207.946 269.369 209.692 269.369C213.011 269.369 216.33 269.307 219.644 269.391C221.145 269.43 221.702 269.027 221.68 267.403C221.591 260.632 221.68 253.856 221.613 247.086C221.602 245.68 222.015 245.266 223.432 245.288C228.324 245.378 233.217 245.35 238.109 245.305C239.247 245.294 239.704 245.596 239.688 246.822C239.626 251.168 239.626 255.514 239.688 259.86C239.704 261.22 239.186 261.556 237.897 261.534C233.735 261.461 229.574 261.551 225.412 261.484C223.99 261.461 223.326 261.848 223.454 263.393C223.571 264.793 223.566 266.221 223.454 267.621C223.348 268.977 223.856 269.413 225.167 269.391C228.542 269.329 231.917 269.408 235.292 269.357C236.642 269.335 237.255 269.805 237.194 271.222C237.116 272.913 237.283 274.616 237.144 276.302C237.016 277.914 237.791 278.178 239.13 278.166C245.093 278.133 251.051 278.15 257.015 278.15C257.913 278.15 258.817 278.122 259.715 278.166C261.266 278.245 261.533 278.71 260.803 280.042C258.627 284.013 256.418 287.961 254.276 291.948C252.892 294.53 251.57 297.151 250.298 299.789C249.763 300.903 249.032 301.351 247.799 301.34C241.227 301.301 234.656 301.323 228.09 301.323ZM187.048 280.233C188.225 282.333 189.257 284.153 190.267 285.984C192.437 289.91 194.641 293.819 196.749 297.778C197.648 299.464 198.696 300.377 200.794 300.108C203.617 299.749 206.478 299.688 209.329 299.593C212.079 299.497 214.835 299.514 217.591 299.497C227.203 299.436 236.815 299.369 246.427 299.341C247.626 299.341 248.474 299.061 248.803 297.767C248.92 297.308 249.305 296.921 249.545 296.484C251.782 292.419 254.036 288.37 256.223 284.282C256.886 283.044 257.361 281.7 257.997 280.227H187.043L187.048 280.233ZM237.317 247.567C232.926 247.567 228.731 247.567 224.536 247.567C223.488 247.567 223.465 248.295 223.471 249.085C223.488 251.958 223.527 254.825 223.454 257.698C223.421 258.924 223.939 259.26 225.044 259.249C227.906 259.216 230.768 259.238 233.624 259.238C234.829 259.238 236.039 259.238 237.311 259.238V247.562L237.317 247.567ZM209.591 271.726C209.591 273.277 209.675 274.633 209.569 275.971C209.452 277.427 210.06 277.769 211.416 277.758C218.774 277.702 226.137 277.735 233.495 277.724C233.925 277.724 234.349 277.646 234.784 277.601V271.726H209.591Z" fill="black"/>
<path d="M353.98 160.585C357.227 160.585 360.251 160.585 363.274 160.585C363.782 160.585 364.345 160.445 364.775 160.63C365.294 160.854 365.701 161.352 366.153 161.733C365.707 162.086 365.266 162.73 364.808 162.747C361.829 162.842 358.85 162.87 355.872 162.775C354.421 162.73 353.835 163.127 353.958 164.662C354.086 166.286 354.031 167.932 353.969 169.568C353.93 170.665 354.337 171.057 355.436 171.04C358.811 170.99 362.181 171.063 365.556 171.007C366.783 170.984 367.28 171.365 367.213 172.648C367.124 174.333 367.274 176.036 367.168 177.721C367.068 179.228 367.648 179.676 369.098 179.665C375.899 179.614 382.704 179.637 389.505 179.648C390.208 179.648 390.911 179.749 391.798 179.816C390.899 181.613 390.152 183.204 389.326 184.755C386.939 189.235 384.523 193.699 382.113 198.167C381.516 199.276 380.797 200.329 380.339 201.494C379.871 202.681 379.073 202.855 377.957 202.86C370.934 202.872 363.905 202.888 356.881 202.995C347.571 203.14 338.26 203.364 328.949 203.594C327.588 203.628 326.846 203.202 326.138 201.892C323.103 196.252 319.867 190.725 316.71 185.153C315.767 183.484 314.852 181.798 313.781 179.861C314.652 179.777 315.338 179.653 316.024 179.648C322.601 179.631 329.178 179.592 335.755 179.67C337.362 179.693 337.975 179.25 337.83 177.587C337.691 176.019 337.909 174.423 337.769 172.855C337.63 171.287 338.277 170.956 339.694 170.99C343.175 171.074 346.667 170.979 350.148 171.035C351.336 171.057 351.743 170.62 351.699 169.461C351.637 167.77 351.615 166.073 351.704 164.387C351.777 163.077 351.23 162.747 350.025 162.78C347.61 162.853 345.189 162.836 342.773 162.78C342.042 162.763 340.854 163.2 340.899 161.8C340.938 160.529 341.998 160.59 342.901 160.59C345.261 160.585 347.626 160.529 349.986 160.607C351.275 160.652 351.76 160.294 351.721 158.905C351.621 155.354 351.682 151.798 351.693 148.242C351.693 147.525 351.543 146.691 352.708 146.713C353.757 146.736 354.003 147.301 353.992 148.253C353.958 152.252 353.98 156.256 353.98 160.585ZM388.171 181.977H317.709C317.848 182.515 317.87 182.918 318.049 183.237C320.838 188.266 323.745 193.239 326.411 198.335C327.577 200.57 328.944 201.5 331.577 201.416C343.415 201.024 355.263 200.861 367.112 200.637C370.259 200.576 373.411 200.503 376.551 200.609C377.912 200.654 378.671 200.2 379.274 199.036C381.617 194.527 384.015 190.058 386.386 185.562C386.961 184.475 387.485 183.366 388.177 181.972L388.171 181.977ZM364.965 178.847C364.965 177.481 364.875 176.299 364.987 175.134C365.132 173.622 364.535 173.219 363.073 173.23C356.005 173.297 348.932 173.258 341.864 173.264C341.323 173.264 340.787 173.342 340.207 173.381V178.841H364.965V178.847Z" fill="black"/>
<path d="M130.321 277.584C127.794 278.799 125.507 277.864 123.214 278.457C123.191 278.984 123.136 279.583 123.136 280.182C123.13 285.261 123.136 290.341 123.136 295.42C123.136 297.627 123.108 297.655 120.843 297.655C110.495 297.655 100.146 297.627 89.7981 297.688C88.2138 297.699 87.6504 297.319 87.6839 295.639C87.7899 290.391 87.6839 285.144 87.7452 279.891C87.762 278.642 87.4049 278.138 86.1274 278.228C85.0062 278.312 83.8793 278.284 82.758 278.222C82.3675 278.2 81.9882 277.942 81.5977 277.796C81.8096 277.466 81.9547 277.04 82.2503 276.828C84.4929 275.22 86.7522 273.647 89.0227 272.079C93.1564 269.223 97.2121 266.227 101.485 263.589C103.51 262.34 103.973 260.901 103.912 258.7C103.767 253.229 103.862 247.752 103.862 242.28C103.862 241.614 103.862 240.942 103.862 239.939C112.174 242.924 120.218 245.814 128.268 248.704C128.307 248.883 128.352 249.056 128.391 249.236C127.057 249.712 125.735 250.221 124.391 250.664C122.343 251.336 120.285 251.974 118.232 252.613C115.27 253.537 112.308 254.455 109.34 255.373C108.442 255.653 107.532 255.911 106.634 256.191C106.528 256.225 106.428 256.286 106.344 256.359C105.346 257.255 105.703 262.278 106.83 262.984C114.243 267.649 121.663 272.303 129.088 276.956C129.317 277.096 129.568 277.197 130.321 277.572V277.584ZM120.843 295.375V276.368C121.602 276.189 122.171 276.049 122.862 275.887C122.422 275.478 122.143 275.12 121.78 274.89C116.492 271.558 111.225 268.192 105.864 264.983C105.201 264.586 103.834 264.687 103.148 265.123C99.2929 267.576 95.5329 270.186 91.7618 272.773C90.4006 273.708 89.0897 274.716 87.7564 275.691C87.7397 275.842 87.7285 275.993 87.7118 276.144C89.9432 275.708 89.9767 276.968 89.9655 278.435C89.9209 283.402 89.9432 288.37 89.9543 293.331C89.9543 293.986 90.0157 294.642 90.0492 295.381H120.848L120.843 295.375ZM121.579 249.191C121.585 249.017 121.596 248.838 121.602 248.664C116.547 246.828 111.493 244.985 106.205 243.064C106.065 243.692 105.853 244.201 105.848 244.711C105.814 247.248 105.803 249.785 105.837 252.321C105.859 253.901 106.311 254.125 107.862 253.581C109.212 253.111 110.612 252.769 111.973 252.333C115.175 251.297 118.372 250.238 121.574 249.191H121.579Z" fill="black"/>
<path d="M249.271 104.858C248.529 104.987 247.899 105.194 247.268 105.194C231.135 105.211 215.002 105.2 198.869 105.222C197.513 105.222 196.849 104.931 197.262 103.363C198.802 97.5441 200.258 91.7087 201.798 85.8902C201.915 85.4422 202.439 85.0166 202.874 84.7534C208.715 81.2309 214.5 77.602 220.463 74.3091C222.36 73.2619 222.661 72.069 222.639 70.2098C222.561 64.1168 222.611 58.0239 222.611 51.9309C222.611 51.3205 222.611 50.7101 222.611 50.0325C223.074 49.9597 223.392 49.8644 223.71 49.8644C228.826 49.8588 233.941 49.8981 239.057 49.8364C240.485 49.8196 241.026 50.2117 240.987 51.7461C240.881 55.8062 240.881 59.8719 240.987 63.932C241.032 65.6289 240.384 66.0657 238.811 66.0321C234.767 65.9537 230.717 66.0601 226.672 65.9761C225.244 65.9481 224.525 66.3065 224.748 67.8521C224.809 68.2945 224.759 68.7537 224.759 69.2074C224.759 73.9227 224.859 74.0011 228.909 76.1123C232 77.7252 235.007 79.4892 238.053 81.1861C239.252 81.8581 240.424 82.5973 241.668 83.1853C243.687 84.1429 244.423 85.9238 244.92 87.9119C245.773 91.3055 246.655 94.688 247.525 98.0761C248.077 100.221 248.635 102.36 249.282 104.863L249.271 104.858ZM199.678 103.228C200.704 103.228 201.368 103.228 202.032 103.228C210.467 103.228 218.896 103.228 227.331 103.228C233.121 103.228 238.912 103.206 244.702 103.245C245.891 103.251 246.61 102.943 246.326 101.627C246.091 100.563 245.729 99.5266 245.45 98.4737C244.73 95.7857 244.128 93.064 243.28 90.4151C242.666 88.4999 243.023 86.0638 240.53 85.0334C239.274 84.5126 238.136 83.7005 236.954 83.0061C233.618 81.0573 230.298 79.0916 226.951 77.1596C224.776 75.9051 222.812 75.0651 220.212 76.846C215.783 79.8812 211.058 82.4853 206.372 85.1286C204.631 86.1086 203.337 87.139 202.963 89.2727C202.534 91.7256 201.731 94.1112 201.15 96.5361C200.643 98.6473 200.219 100.77 199.683 103.228H199.678ZM231.671 63.8088C233.523 63.8088 235.369 63.792 237.221 63.8144C238.153 63.8256 238.705 63.568 238.694 62.4984C238.666 59.4015 238.728 56.3102 238.627 53.2189C238.616 52.8101 237.874 52.0877 237.461 52.0765C233.651 51.9869 229.835 52.0317 226.025 52.0093C225.088 52.0093 224.731 52.4125 224.737 53.3365C224.759 56.3718 224.77 59.4127 224.737 62.4536C224.725 63.4672 225.105 63.8536 226.12 63.8256C227.967 63.7752 229.819 63.8088 231.671 63.8088Z" fill="black"/>
<path d="M354.919 50.4629C363.493 53.1622 371.66 56.3318 379.916 59.2327C379.883 59.4119 379.849 59.5911 379.816 59.7703C374.416 61.4336 369.01 63.0856 363.616 64.7601C361.763 65.3369 359.906 65.9193 358.109 66.6417C357.652 66.8265 357.351 67.5321 357.094 68.0586C356.96 68.3274 357.072 68.725 357.072 69.061C357.072 73.8155 357.083 73.7931 361.211 76.0332C364.346 77.7356 367.459 79.4941 370.566 81.2525C372.095 82.1149 373.729 82.8541 375.057 83.9686C375.95 84.719 376.63 85.9398 376.976 87.0822C377.969 90.3863 378.711 93.7688 379.609 97.1065C380.217 99.3634 380.943 101.587 381.579 103.832C381.796 104.611 381.567 105.182 380.625 105.199C380.29 105.199 379.95 105.21 379.615 105.21C363.582 105.21 347.555 105.21 331.522 105.21C329.201 105.21 329.123 104.941 329.826 102.634C330.59 100.119 331.092 97.5321 331.74 94.9785C332.509 91.9432 333.279 88.9135 334.116 85.895C334.239 85.4638 334.646 85.0046 335.042 84.7694C341.117 81.1461 347.187 77.506 353.329 74.0003C354.489 73.3395 354.84 72.6451 354.835 71.4074C354.79 65.0849 354.813 58.7623 354.818 52.4397C354.818 51.9413 354.868 51.4429 354.924 50.4629H354.919ZM378.678 103.16C378.605 102.208 378.655 101.407 378.466 100.674C377.528 97.0617 376.575 93.4496 375.537 89.8599C375.001 87.9951 374.879 85.9398 372.781 84.8086C367.917 82.1765 363.074 79.4997 358.344 76.6436C356.458 75.5067 355.013 75.4395 353.117 76.6156C348.492 79.4885 343.678 82.0589 339.053 84.9262C337.731 85.7438 335.94 86.1806 335.533 88.2079C334.931 91.204 334.049 94.1496 333.402 97.1401C332.978 99.1002 331.862 101.004 332.604 103.166H378.672L378.678 103.16ZM357.245 64.5193C362.31 62.9568 367.169 61.4616 372.017 59.9383C372.262 59.8599 372.419 59.5183 372.619 59.3055C372.307 59.0591 372.034 58.7119 371.677 58.5719C368.374 57.2951 365.077 56.007 361.736 54.8254C360.285 54.3158 358.751 54.047 357.239 53.6662V64.5193H357.245Z" fill="black"/>
<path d="M73.3867 104.532C74.6977 103.295 75.7465 102.264 76.8343 101.279C80.6333 97.8459 84.4379 94.4298 88.248 91.0137C92.8448 86.892 97.4136 82.7423 102.055 78.671C103.321 77.5622 103.924 76.4029 103.901 74.6445C103.801 67.3083 103.857 59.9721 103.857 52.6359C103.857 52.0255 103.857 51.4207 103.857 50.3398C112.297 53.3639 120.436 56.2816 128.581 59.1937C128.548 59.3785 128.514 59.5577 128.481 59.7425C124.074 61.1201 119.666 62.4978 115.259 63.8754C112.665 64.6874 110.071 65.4938 107.488 66.3227C106.367 66.6811 105.653 67.3419 105.809 68.6691C105.887 69.3355 105.932 70.0468 105.804 70.6964C105.028 74.5493 107.092 76.9685 109.681 79.4102C113.502 83.0111 117.022 86.9312 120.704 90.6889C124.157 94.2114 127.672 97.6723 131.119 101.2C132.073 102.175 132.877 103.3 133.897 104.532H73.3867ZM128.966 102.36C121.017 94.161 113.43 86.3376 105.664 78.3294C96.7721 86.3208 88.036 94.1778 78.9318 102.36H128.966ZM121.982 59.5409C121.334 59.0873 120.961 58.7009 120.509 58.5329C117.87 57.564 115.215 56.6568 112.565 55.7104C110.958 55.1336 109.385 54.4672 107.756 53.9631C107.092 53.7559 105.96 53.3639 105.921 54.6296C105.826 57.6144 105.904 60.6049 105.954 63.5898C105.954 63.8754 106.272 64.1554 106.429 64.413C111.505 62.8226 116.503 61.2545 121.976 59.5409H121.982Z" fill="black"/>
<path d="M117.499 159.594C116.367 159.594 115.145 159.56 113.929 159.599C111.318 159.683 108.713 159.807 106.108 159.913C106.013 162.545 105.918 165.183 105.829 167.815C105.812 168.263 105.69 168.784 105.863 169.153C106.281 170.066 106.632 171.253 107.391 171.74C114.431 176.254 121.549 180.633 128.645 185.063C129.203 185.41 129.728 185.802 130.207 186.53H123.178V205.806H87.7824V186.693H81.01C80.9598 186.558 80.9096 186.424 80.8594 186.284C81.9416 185.422 82.9737 184.498 84.1061 183.714C88.9818 180.325 93.8909 176.971 98.7889 173.611C100.278 172.586 101.785 171.578 103.252 170.52C103.52 170.324 103.826 169.948 103.832 169.657C103.871 166.398 103.86 163.139 103.86 159.633H92.5576C92.1058 158.02 92.5799 157.365 94.0304 157.382C96.5575 157.404 99.0901 157.398 101.617 157.382C102.331 157.376 103.04 157.27 103.91 157.197V146.792C105.533 146.517 105.812 147.419 105.818 148.561C105.829 150.874 105.89 153.187 105.807 155.5C105.751 157.006 106.342 157.466 107.787 157.421C110.482 157.331 113.182 157.432 115.882 157.382C117.304 157.354 118.063 157.762 117.505 159.611L117.499 159.594ZM122.877 183.91C122.42 183.635 121.957 183.372 121.505 183.092C117.165 180.387 112.646 177.929 108.546 174.899C105.589 172.709 103.229 172.457 100.647 175.089C100.351 175.392 99.9436 175.593 99.5866 175.84C95.6593 178.539 91.732 181.238 87.4923 184.15C89.7683 184.167 90.0082 185.36 89.9692 186.973C89.8855 190.579 89.9413 194.191 89.9413 197.804V203.566H120.841C120.841 197.86 120.886 192.282 120.813 186.71C120.791 185.153 120.93 183.994 122.877 183.91Z" fill="black"/>
<path d="M441.15 218.016H293.121V329.453H441.15V218.016Z" fill="white"/>
<path fill-rule="evenodd" clip-rule="evenodd" d="M437.638 221.325H296.391V326.112H437.638V221.325ZM441.029 218V329.438H293V218H441.029Z" fill="#0070F3"/>
<path d="M357.954 285.857C357.988 274.129 360.97 270.494 366.476 266.96C370.81 264.195 374.104 261.497 374.104 257.272C374.104 253.047 370.843 250.416 366.755 250.416C362.667 250.416 358.959 253.326 358.848 258.131H342.898C343.111 243.593 353.855 237.127 366.889 237.127C381.174 237.127 391.539 243.905 391.539 256.47C391.539 264.742 387.138 269.758 380.482 273.66C375.244 276.771 372.719 279.714 372.719 285.835V287.25H357.954V285.835V285.857ZM356.603 300.974C356.536 296.058 360.623 292.078 365.616 292.078C370.608 292.078 374.562 296.058 374.629 300.974C374.562 305.958 370.363 309.971 365.616 309.971C360.623 309.971 356.536 305.958 356.603 300.974Z" fill="#0070F3"/>
</svg>
