<svg width="60" height="42" viewBox="0 0 60 42" fill="none" xmlns="http://www.w3.org/2000/svg">
<path fill-rule="evenodd" clip-rule="evenodd" d="M29.8492 8.13497C29.5081 7.76325 29.1375 7.41135 28.7356 7.08127C27.0005 5.65679 24.9958 4.95705 22.7656 5.00204C22.4599 5.00815 22.1561 5.0703 21.8519 5.13253C21.6585 5.17209 21.4649 5.21169 21.2706 5.23695C19.0551 5.52684 17.3591 6.7514 15.9328 8.4058C14.5015 10.0652 13.6879 12.0045 13.2271 14.1887C12.8252 16.093 13.0066 17.9173 13.384 19.7317C13.7271 21.3911 14.477 22.9255 15.5358 24.26C17.0111 26.1143 18.8492 27.3989 21.1627 27.9087C21.746 28.0336 21.8049 28.1286 21.5206 28.6784C20.9618 29.753 21.3392 30.3978 22.5695 30.5277C22.7558 30.5477 23.0547 30.7177 23.0695 30.8426C23.1136 31.2675 23.1626 31.7473 23.0106 32.1271C22.692 32.9268 22.295 33.7066 21.8539 34.4463C21.2853 35.4009 21.0059 36.4056 21.1627 37.5152C21.1798 37.6367 21.282 37.7462 21.3839 37.8554C21.4287 37.9033 21.4734 37.9512 21.5108 38C21.5466 37.9492 21.5937 37.8969 21.641 37.8445L21.641 37.8445C21.7425 37.732 21.8443 37.6191 21.8343 37.5202C21.7215 36.3756 22.1872 35.4459 22.7214 34.4913L22.7553 34.4305C23.3624 33.3403 23.9825 32.2269 23.79 30.8726C23.7753 30.7576 23.9027 30.5727 24.0106 30.5027C24.8536 29.9529 25.0105 29.4331 24.4664 28.5434C24.187 28.0886 24.3144 27.9887 24.7507 27.9037C25.7507 27.7037 26.676 27.3481 27.5248 26.8485C28.0927 27.105 28.6989 27.3031 29.3465 27.4377C29.8714 27.5437 29.9244 27.6243 29.6685 28.0908C29.1656 29.0026 29.5053 29.5496 30.6125 29.6599C30.7802 29.6769 31.0493 29.821 31.0625 29.9271C31.1022 30.2875 31.1463 30.6947 31.0096 31.017C30.7228 31.6955 30.3655 32.3571 29.9685 32.9847C29.4568 33.7947 29.2053 34.6472 29.3465 35.5886C29.3618 35.6918 29.4538 35.7847 29.5455 35.8773C29.5858 35.918 29.626 35.9586 29.6597 36C29.6919 35.9569 29.7344 35.9125 29.7769 35.8681C29.8682 35.7726 29.9599 35.6768 29.9508 35.5929C29.8494 34.6217 30.2685 33.8329 30.7493 33.0229L30.7798 32.9713C31.3262 32.0463 31.8842 31.1016 31.711 29.9525C31.6978 29.855 31.8124 29.6981 31.9095 29.6387C32.6683 29.1722 32.8094 28.7311 32.3198 27.9763C32.0683 27.5903 32.183 27.5055 32.5756 27.4334C34.1725 27.1323 35.5577 26.4156 36.7223 25.3384C37.305 24.7994 37.8029 24.2257 38.2215 23.6138C38.6984 23.875 39.2185 24.0697 39.7863 24.1898C40.1363 24.2618 40.1716 24.3164 40.001 24.633C39.6657 25.2517 39.8922 25.6229 40.6304 25.6977C40.7421 25.7093 40.9215 25.8071 40.9303 25.879C40.9568 26.1237 40.9862 26.3999 40.8951 26.6186C40.7039 27.0791 40.4657 27.528 40.201 27.9539C39.8598 28.5035 39.6922 29.082 39.7863 29.7208C39.7965 29.7908 39.8579 29.8538 39.919 29.9167L39.919 29.9167C39.9459 29.9443 39.9727 29.9719 39.9951 30C40.0166 29.9707 40.0449 29.9406 40.0733 29.9104C40.1342 29.8456 40.1952 29.7806 40.1892 29.7237C40.1216 29.0647 40.401 28.5294 40.7215 27.9798L40.7419 27.9448C41.1061 27.3171 41.4782 26.6761 41.3627 25.8963C41.3538 25.8301 41.4303 25.7236 41.495 25.6834C42.0008 25.3668 42.095 25.0675 41.7685 24.5553C41.6009 24.2934 41.6773 24.2359 41.9391 24.1869C43.0037 23.9826 43.9272 23.4963 44.7036 22.7653C46.1858 21.3696 46.8446 19.6315 46.8857 17.4185L46.8887 17.4242C46.8744 17.3109 46.8644 17.1784 46.8535 17.0332V17.0331C46.8262 16.6695 46.7929 16.2265 46.671 15.807C46.2564 14.3882 45.5241 13.1393 44.3301 12.1983C43.289 11.3781 42.0861 10.9752 40.748 11.0011C40.5646 11.0047 40.3823 11.0404 40.1998 11.0763L40.1998 11.0763C40.0837 11.0991 39.9676 11.1218 39.851 11.1364C39.1886 11.2196 38.6035 11.4364 38.0773 11.7509C37.5516 11.0185 36.9187 10.3517 36.1621 9.76593C34.6004 8.55728 32.7962 7.96356 30.789 8.00173C30.5139 8.00691 30.2405 8.05965 29.9667 8.11245L29.8492 8.13497ZM38.322 12.1082C38.9155 13.0171 39.3564 14.018 39.6736 15.084C39.8564 15.7023 39.9063 16.3552 39.9473 16.8911C39.9637 17.105 39.9786 17.3004 40 17.4674L39.9956 17.4589C39.9533 19.6939 39.4758 21.6003 38.4639 23.2408C38.859 23.4456 39.2953 23.6057 39.7775 23.715C41.2656 24.0517 42.639 23.7697 43.8595 22.8776C45.1035 21.9653 45.8682 20.7538 46.2152 19.2602C46.4946 18.0545 46.4769 16.8573 46.1387 15.6861C45.7799 14.44 45.1035 13.3609 44.0419 12.5407C42.5773 11.4098 40.9274 11.1421 39.1952 11.7234C38.8845 11.8273 38.5937 11.9565 38.322 12.1082ZM24.2822 24.3418C24.9931 25.1842 25.7975 25.8879 26.7111 26.4265C25.0015 27.331 23.1362 27.5528 21.148 27.084C17.8052 26.2943 15.7857 23.9801 14.5309 20.8912C13.9725 19.5175 13.6686 18.0439 13.8347 16.4953L13.8349 16.4978V16.4928L13.8347 16.4953C13.6491 14.7569 14.0901 13.0833 14.7956 11.5247C15.8985 9.08054 17.6385 7.14126 20.1775 6.25658C23.0646 5.24695 25.8143 5.71177 28.2553 7.67606C28.4958 7.86966 28.7244 8.07158 28.9415 8.2814C27.19 8.62762 25.8133 9.60623 24.6395 10.8898C23.3514 12.2977 22.6191 13.9432 22.2044 15.7965C21.8427 17.4122 22.0059 18.9602 22.3456 20.4996C22.6544 21.9076 23.3293 23.2095 24.2822 24.3418ZM23.3421 29.7355C23.2229 29.7967 23.1001 29.8597 22.9861 29.9329H22.9812C22.8695 29.8597 22.7462 29.7965 22.6282 29.7359C22.3838 29.6106 22.1616 29.4967 22.1087 29.3282C21.9666 28.8733 22.6038 28.2086 23.0253 28.2236C23.4028 28.2336 24.0939 28.9583 23.9321 29.2882C23.8352 29.4824 23.5972 29.6046 23.3421 29.7355ZM22.7514 17.7515L22.7512 17.7536C22.5842 16.2786 22.9811 14.8586 23.6161 13.5361C24.6086 11.4623 26.1747 9.81682 28.4598 9.06619C31.0581 8.20953 33.5329 8.60393 35.7298 10.2706C37.3223 11.4792 38.3369 13.0696 38.8751 14.9059C39.3824 16.6319 39.4089 18.3961 38.9898 20.173C38.4692 22.3741 37.3223 24.1595 35.4563 25.5038C33.6255 26.8185 31.5654 27.2341 29.3332 26.7379C26.3247 26.0679 24.5072 24.1043 23.3779 21.4835C22.8752 20.3179 22.6017 19.0675 22.7512 17.7536L22.7514 17.7557V17.7515ZM30.9875 29.1552C31.0901 29.0931 31.2006 29.0396 31.3079 28.9877C31.5375 28.8766 31.7517 28.7729 31.8389 28.6082C31.9845 28.3283 31.3625 27.7133 31.0228 27.7048C30.6434 27.6921 30.0699 28.2562 30.1979 28.6421C30.2455 28.785 30.4455 28.8817 30.6654 28.9881C30.7716 29.0394 30.8825 29.0931 30.9831 29.1552H30.9875ZM41.0939 25.2416L41.0939 25.2416C41.247 25.1662 41.3898 25.0959 41.4479 24.9841C41.545 24.7941 41.1303 24.3769 40.9039 24.3711C40.651 24.3625 40.2686 24.7452 40.3539 25.0071C40.3856 25.1041 40.519 25.1697 40.6656 25.2419C40.7364 25.2767 40.8103 25.3131 40.8774 25.3553H40.8803C40.9487 25.3131 41.0224 25.2768 41.0939 25.2416Z" fill="black"/>
</svg>
