<svg width="464" height="352" viewBox="0 0 464 352" fill="none" xmlns="http://www.w3.org/2000/svg">
<path d="M408.928 172.3C408.928 179.271 408.699 186.255 409.036 193.212C409.185 196.494 407.821 197.886 405.159 199.196C400.634 201.439 396.311 204.113 391.867 206.531C389.152 208.004 386.315 209.274 383.572 210.719C379.803 212.705 376.116 214.853 372.32 216.771C371.59 217.136 370.334 217.082 369.604 216.704C360.729 211.989 351.908 207.153 343.06 202.371C340.398 200.925 337.751 199.48 335.035 198.129C333.536 197.386 333.023 196.319 333.036 194.671C333.09 184.431 333.063 174.205 333.063 163.965C333.063 159.237 333.131 154.522 333.036 149.794C333.009 148.2 333.59 147.309 335.022 146.755C342.411 143.891 349.814 141.027 357.176 138.109C361.486 136.407 365.741 134.583 370.05 132.881C370.617 132.652 371.414 132.652 371.982 132.881C377.858 135.151 383.721 137.488 389.57 139.811C395.487 142.162 401.39 144.526 407.321 146.849C408.51 147.309 408.969 148.052 408.955 149.362C408.901 157.008 408.928 164.654 408.928 172.3ZM362.593 163.357C362.526 164.249 362.445 164.749 362.445 165.235C362.445 179.608 362.445 193.995 362.418 208.369C362.418 209.517 362.742 210.246 363.823 210.746C365.309 211.435 366.727 212.273 368.172 213.043C369.415 213.718 369.942 213.448 369.969 212.057C370.01 210.098 369.969 208.125 369.969 206.153C369.969 193.739 369.969 181.324 369.956 168.923C369.956 168.234 369.915 167.167 369.496 166.924C367.335 165.654 365.038 164.6 362.566 163.357H362.593ZM350.773 203.668C350.827 202.627 350.881 201.898 350.881 201.182C350.881 189.375 350.868 177.568 350.854 165.775C350.854 163.587 350.949 161.385 350.827 159.196C350.787 158.602 350.192 157.859 349.652 157.535C348.274 156.738 346.788 156.13 345.343 155.455C343.843 154.739 343.276 155.09 343.276 156.724C343.303 164.532 343.343 172.354 343.343 180.162C343.343 186.066 343.316 191.969 343.249 197.859C343.235 199.048 343.546 199.899 344.64 200.452C346.599 201.452 348.531 202.479 350.773 203.654V203.668ZM372.482 213.759C374.346 212.786 375.791 211.827 377.372 211.246C379.385 210.49 379.695 209.152 379.682 207.207C379.601 193.495 379.641 179.797 379.641 166.086C379.641 165.316 379.56 164.546 379.506 163.506C377.831 164.249 376.426 165.019 374.927 165.519C372.684 166.262 372.239 167.721 372.252 169.949C372.36 183.715 372.306 197.481 372.306 211.246C372.306 211.949 372.401 212.664 372.482 213.772V213.759ZM389.53 158.764C387.693 159.683 386.193 160.709 384.545 161.182C382.775 161.682 382.357 162.614 382.37 164.303C382.424 178.23 382.397 192.158 382.397 206.086C382.397 206.734 382.465 207.369 382.519 208.396C384.423 207.41 385.977 206.464 387.625 205.775C389.341 205.059 389.759 203.924 389.759 202.128C389.678 188.538 389.719 174.948 389.705 161.358C389.705 160.601 389.611 159.858 389.53 158.778V158.764ZM353.421 159.183C353.313 160.169 353.245 160.493 353.245 160.831C353.245 175.11 353.259 189.389 353.205 203.668C353.205 204.964 353.961 205.451 354.826 205.951C355.785 206.504 356.771 206.991 357.757 207.504C359.392 208.355 360.027 207.977 360.013 206.14C359.986 203.668 359.932 201.195 359.946 198.723C359.959 187.308 360.013 175.907 360.013 164.492C360.013 163.735 359.986 162.587 359.54 162.317C357.703 161.182 355.717 160.318 353.448 159.196L353.421 159.183ZM398.716 154.603C396.527 155.657 394.69 156.387 393.042 157.4C392.488 157.738 392.15 158.805 392.137 159.561C392.096 161.115 392.461 162.668 392.448 164.235C392.353 176.636 392.218 189.024 392.096 201.425C392.096 202.479 392.313 203.168 393.555 202.492C394.569 201.938 395.541 201.195 396.622 200.912C398.432 200.439 398.77 199.345 398.756 197.683C398.702 184.877 398.716 172.07 398.702 159.278C398.702 157.94 398.702 156.603 398.702 154.63L398.716 154.603ZM340.682 198.305C340.763 197.535 340.912 196.886 340.912 196.238C340.912 182.702 340.925 169.152 340.912 155.617C340.912 154.766 340.844 153.496 340.331 153.144C338.98 152.253 337.359 151.78 335.522 150.997C335.522 152.131 335.522 152.739 335.522 153.347C335.522 166.045 335.657 178.744 335.427 191.442C335.373 194.549 336.305 196.386 339.047 197.494C339.547 197.697 340.02 197.967 340.696 198.291L340.682 198.305ZM406.524 150.916C405.186 151.618 404.241 152.415 403.174 152.618C400.945 153.023 401.12 154.522 401.12 156.13C401.147 169.504 401.12 182.877 401.134 196.251C401.134 196.738 401.201 197.224 401.282 198.196C402.701 197.521 403.836 196.967 404.997 196.467C406.159 195.954 406.551 195.116 406.551 193.82C406.51 180.216 406.524 166.626 406.524 153.023V150.929V150.916ZM346.869 144.742C347.396 145.228 347.666 145.62 348.031 145.782C353.137 148.173 358.257 150.537 363.377 152.901C368.024 155.036 372.725 157.089 377.331 159.305C379.898 160.534 384.477 159.615 386.22 157.265C386.261 157.197 386.207 157.062 386.18 156.832C385.207 156.481 384.14 156.17 383.154 155.711C378.844 153.725 374.562 151.686 370.266 149.659C365.511 147.417 360.77 145.147 356.001 142.945C355.123 142.54 354.002 142.067 353.191 142.297C351.124 142.864 349.179 143.81 346.869 144.728V144.742ZM396.392 152.82C396.338 152.658 396.271 152.483 396.217 152.32C392.218 150.686 388.219 149.078 384.221 147.417C378.182 144.904 372.09 142.5 366.146 139.757C362.877 138.258 360.243 138.987 357.487 140.905C357.784 141.122 357.933 141.297 358.135 141.392C361.337 142.878 364.566 144.35 367.767 145.836C374.346 148.903 380.925 151.969 387.476 155.076C388.949 155.779 390.273 156.184 391.826 155.184C393.272 154.266 394.866 153.59 396.392 152.807V152.82ZM337.156 148.551C337.778 149.024 338.156 149.43 338.629 149.646C344.37 152.334 350.125 154.995 355.866 157.656C359.783 159.467 363.742 161.169 367.592 163.114C369.604 164.127 371.469 164.924 373.616 163.627C374.616 163.019 375.629 162.466 376.994 161.682C372.212 159.561 367.902 157.724 363.647 155.752C357.933 153.104 352.286 150.281 346.531 147.727C345.032 147.066 343.505 145.674 341.506 146.768C340.263 147.457 338.858 147.863 337.143 148.538L337.156 148.551ZM366.443 137.069C367.132 137.488 367.646 137.88 368.226 138.123C372.563 139.946 376.926 141.703 381.262 143.54C386.585 145.782 391.894 148.065 397.203 150.348C399.891 151.51 403.268 150.645 404.673 148.362C403.525 147.957 402.377 147.606 401.269 147.147C397.824 145.728 394.42 144.215 390.948 142.851C384.559 140.338 378.142 137.893 371.739 135.448C371.414 135.326 370.982 135.245 370.685 135.353C369.334 135.853 368.01 136.421 366.443 137.069Z" fill="black"/>
<path d="M270.019 282.371C270.019 289.842 270.019 297.326 270.033 304.796C270.033 306.363 269.479 307.322 268.006 308.079C263.008 310.659 258.105 313.442 253.133 316.089C247.108 319.318 240.894 322.249 235.072 325.802C232.397 327.437 230.614 326.734 228.358 325.505C222.59 322.385 216.741 319.413 210.959 316.319C205.758 313.55 200.584 310.753 195.464 307.836C194.802 307.457 194.289 306.323 194.222 305.498C194.046 303.378 194.154 301.23 194.154 299.095C194.154 286.451 194.154 273.793 194.154 261.149C194.154 257.299 194.195 257.38 197.761 256.043C202.516 254.259 207.217 252.341 211.945 250.49C216.997 248.505 222.05 246.546 227.088 244.56C228.115 244.155 229.142 243.696 230.128 243.209C232.195 242.21 233.937 243.398 235.734 244.047C238.949 245.208 242.137 246.465 245.325 247.721C248.621 249.018 251.917 250.369 255.214 251.693C259.536 253.408 263.832 255.165 268.182 256.813C269.533 257.326 270.06 258.15 270.046 259.582C270.006 267.174 270.033 274.766 270.033 282.344L270.019 282.371ZM233.032 323.438C233.735 323.303 234.248 323.303 234.653 323.101C236.22 322.317 237.733 321.412 239.314 320.669C240.435 320.142 240.786 319.372 240.773 318.156C240.732 303.877 240.746 289.599 240.746 275.333C240.746 274.766 240.651 274.185 240.584 273.442C238.463 274.415 236.626 275.333 234.734 276.103C233.383 276.644 232.992 277.508 232.992 278.927C233.046 293.151 233.019 307.363 233.019 321.588V323.452L233.032 323.438ZM230.682 323.938V321.533C230.682 307.363 230.655 293.192 230.722 279.035C230.722 277.414 230.33 276.4 228.75 275.833C226.98 275.198 225.265 274.401 223.36 273.604C223.265 274.334 223.171 274.658 223.171 274.982C223.171 289.436 223.171 303.877 223.171 318.332C223.171 318.859 223.279 319.656 223.63 319.872C225.805 321.236 228.047 322.466 230.668 323.965L230.682 323.938ZM220.591 318.48C220.672 317.346 220.766 316.643 220.766 315.941C220.766 303.756 220.739 291.571 220.739 279.372C220.739 277.414 220.807 275.441 220.739 273.483C220.712 272.888 220.429 272.024 219.996 271.78C218.362 270.862 216.633 270.119 214.903 269.389C213.904 268.971 213.12 269.119 213.174 270.511C213.255 272.361 213.336 274.212 213.336 276.063C213.296 288.194 213.215 300.325 213.228 312.456C213.228 313.32 213.661 314.549 214.309 314.995C216.16 316.265 218.227 317.211 220.604 318.494L220.591 318.48ZM259.374 264.769C257.402 265.593 255.781 266.255 254.173 266.971C252.863 267.552 251.999 268.376 252.174 270.024C252.35 271.632 252.282 273.28 252.282 274.901C252.269 286.924 252.228 298.933 252.215 310.956C252.215 311.753 252.336 312.55 252.417 313.536C254.511 312.496 256.254 311.564 258.064 310.74C259.239 310.2 259.739 309.321 259.699 308.106C259.658 306.701 259.469 305.309 259.482 303.904C259.536 291.611 259.617 279.318 259.672 267.025C259.672 266.323 259.482 265.634 259.361 264.769H259.374ZM249.351 269.254C247.608 270.146 246.365 271.105 244.96 271.416C243.218 271.794 243.083 272.753 243.096 274.185C243.123 288.288 243.11 302.391 243.123 316.481C243.123 317.022 243.177 317.562 243.231 318.453C244.974 317.562 246.433 316.697 247.973 316.062C249.418 315.468 249.824 314.414 249.797 313.023C249.797 312.347 249.797 311.672 249.797 310.997C249.797 297.744 249.797 284.492 249.756 271.24C249.756 270.632 249.513 270.038 249.351 269.268V269.254ZM210.5 312.996C210.621 312.28 210.716 312.01 210.716 311.74C210.716 297.42 210.743 283.101 210.675 268.781C210.675 268.147 210 267.282 209.405 266.944C207.906 266.093 206.258 265.499 204.34 264.648C204.34 266.282 204.34 267.66 204.34 269.038C204.34 281.953 204.326 294.867 204.34 307.781C204.34 308.538 204.367 309.673 204.812 309.956C206.528 311.078 208.433 311.915 210.513 312.982L210.5 312.996ZM201.908 308.092C201.908 306.593 201.908 305.377 201.908 304.148C201.908 291.274 201.935 278.413 201.908 265.539C201.908 264.796 201.84 263.689 201.381 263.378C200.044 262.486 198.49 261.905 196.775 261.081C196.667 262 196.559 262.473 196.559 262.959C196.559 276.725 196.532 290.49 196.599 304.269C196.599 304.945 197.166 305.782 197.72 306.255C198.409 306.863 199.328 307.214 200.179 307.606C200.638 307.822 201.165 307.89 201.908 308.092ZM262.346 308.362C263.603 307.633 264.427 306.903 265.386 306.633C267.061 306.16 267.25 305.08 267.25 303.594C267.209 290.288 267.223 276.968 267.223 263.662C267.223 262.959 267.223 262.257 267.223 261.541C263.751 261.77 262.225 263.324 262.225 266.296C262.225 279.602 262.225 292.922 262.225 306.228C262.225 306.782 262.279 307.322 262.346 308.376V308.362ZM216.7 267.079V267.62C218.618 268.498 220.483 269.43 222.414 270.2C222.955 270.416 223.779 270.227 224.36 269.97C228.534 268.065 232.654 266.093 236.815 264.161C240.516 262.446 244.258 260.798 247.973 259.082C250.702 257.812 253.417 256.488 256.632 254.948C254.16 253.949 252.188 253.071 250.161 252.368C249.58 252.166 248.77 252.26 248.189 252.517C244.109 254.354 240.084 256.272 236.018 258.15C231.303 260.325 226.575 262.473 221.847 264.648C220.118 265.445 218.402 266.269 216.687 267.079H216.7ZM206.69 262.473C206.731 262.635 206.758 262.797 206.798 262.959C208.473 263.783 210.094 264.756 211.837 265.391C212.715 265.715 213.931 265.715 214.795 265.35C217.862 264.067 220.834 262.567 223.846 261.176C228.156 259.19 232.492 257.245 236.801 255.259C239.706 253.922 242.569 252.517 245.46 251.152C245.501 250.99 245.528 250.828 245.568 250.666C244.42 250.18 243.285 249.639 242.11 249.248C241.3 248.977 240.286 248.599 239.584 248.856C235.856 250.22 232.168 251.733 228.493 253.26C223.022 255.529 217.565 257.826 212.094 260.136C210.283 260.892 208.487 261.689 206.69 262.473ZM226.413 272.024C228.291 272.969 229.898 273.807 231.546 274.563C231.843 274.698 232.343 274.604 232.681 274.442C237.233 272.321 241.759 270.173 246.311 268.052C251.107 265.823 255.93 263.621 260.739 261.392C262.4 260.622 264.035 259.758 266.088 258.731C263.873 257.772 262.117 256.988 260.347 256.259C260.09 256.151 259.685 256.272 259.388 256.394C258.213 256.894 257.037 257.407 255.876 257.947C250.513 260.446 245.163 262.986 239.787 265.472C235.775 267.322 231.722 269.092 227.71 270.929C227.305 271.118 226.994 271.524 226.426 272.01L226.413 272.024ZM236.207 247.478C236.247 247.248 236.301 247.019 236.342 246.789C234.586 246.33 232.762 245.357 231.073 245.56C228.966 245.816 226.967 247.005 224.927 247.843C222.009 249.031 219.118 250.315 216.187 251.463C211.351 253.368 206.474 255.205 201.624 257.096C200.463 257.556 199.328 258.123 197.936 258.744C199.355 259.528 200.341 260.176 201.408 260.609C202.124 260.892 203.097 261.176 203.745 260.933C208.581 259.082 213.377 257.123 218.159 255.124C224.184 252.611 230.168 250.031 236.18 247.491L236.207 247.478Z" fill="black"/>
<path d="M194 174.568C194 167.368 194 160.181 194 152.981C194 149.699 194 149.672 197.499 148.28C202.038 146.47 206.577 144.7 211.129 142.944C215.304 141.323 219.491 139.77 223.652 138.121C226.057 137.176 228.394 136.055 230.812 135.136C231.42 134.906 232.271 134.987 232.905 135.231C238.579 137.446 244.212 139.743 249.886 141.985C255.911 144.376 261.949 146.713 267.988 149.091C269.339 149.618 269.906 150.563 269.893 152.063C269.852 167.179 269.838 182.309 269.906 197.425C269.906 199.303 268.731 199.924 267.488 200.613C262.53 203.383 257.573 206.152 252.561 208.827C248.373 211.069 244.091 213.136 239.876 215.338C237.674 216.486 235.58 217.864 233.351 218.945C232.581 219.323 231.338 219.485 230.636 219.121C224.706 216.027 218.87 212.771 212.994 209.597C207.36 206.571 201.727 203.572 196.054 200.613C194.595 199.857 193.987 198.857 194 197.182C194.068 189.658 194.027 182.12 194.027 174.582L194 174.568ZM265.799 150.941C264.678 150.428 264.003 150.077 263.3 149.793C258.343 147.888 253.358 146.024 248.4 144.079C243.024 141.971 237.661 139.797 232.284 137.676C231.96 137.554 231.514 137.541 231.203 137.662C229.798 138.203 228.434 138.837 227.029 139.378C224.044 140.54 221.031 141.674 218.032 142.809C215.803 143.66 213.561 144.471 211.345 145.349C209.09 146.24 206.861 147.213 204.618 148.132C202.443 149.023 200.268 149.874 197.823 150.86C198.526 151.347 198.944 151.711 199.431 151.941C204.996 154.562 210.575 157.155 216.141 159.749C220.356 161.708 224.53 163.734 228.785 165.612C229.988 166.139 231.622 166.868 232.649 166.463C237.309 164.626 241.835 162.437 246.401 160.344C251.358 158.061 256.316 155.751 261.247 153.413C262.692 152.725 264.084 151.873 265.786 150.941H265.799ZM240.578 165.598C238.066 166.787 235.891 167.706 233.838 168.854C233.311 169.151 232.919 170.178 232.919 170.867C232.865 185.2 232.878 199.533 232.878 213.866C232.878 214.446 232.96 215.027 233.041 216.041C235.053 215.014 236.688 214.001 238.458 213.339C240.335 212.636 240.646 211.407 240.633 209.583C240.551 196.817 240.578 184.065 240.578 171.299C240.578 169.57 240.578 167.827 240.578 165.585V165.598ZM242.97 210.745C244.861 209.84 246.495 209.07 248.116 208.273C249.886 207.408 250.724 206.247 250.67 204.031C250.48 195.548 250.575 187.064 250.575 178.594C250.575 173.366 250.602 168.152 250.588 162.924C250.588 161.168 250.372 161.087 248.792 161.843C247.495 162.464 246.212 163.153 244.847 163.586C243.483 164.018 242.902 164.68 242.915 166.179C242.97 179.607 242.956 193.021 242.956 206.449C242.956 207.787 242.956 209.137 242.956 210.745H242.97ZM230.406 216.054C230.447 215.189 230.514 214.487 230.514 213.785C230.514 200.411 230.406 187.051 230.595 173.677C230.65 170.313 230.177 167.935 226.516 167.233C226.462 167.233 226.421 167.179 226.367 167.152C222.977 165.382 222.99 165.382 223.004 169.205C223.004 182.849 223.031 196.507 222.977 210.151C222.977 211.488 223.341 212.38 224.517 212.974C226.408 213.947 228.299 214.946 230.406 216.054ZM211.075 205.747C211.21 205.125 211.318 204.855 211.318 204.599C211.318 190.144 211.332 175.703 211.318 161.249C211.318 160.83 211.224 160.168 210.954 160.033C208.86 158.993 206.712 158.061 204.429 157.034C204.28 157.736 204.159 158.047 204.159 158.371C204.159 172.488 204.159 186.591 204.159 200.708C204.159 201.194 204.172 201.951 204.456 202.113C206.577 203.369 208.752 204.504 211.062 205.747H211.075ZM220.437 210.705C220.518 209.759 220.612 209.097 220.612 208.449C220.612 205.639 220.585 202.829 220.585 200.033C220.585 188.807 220.585 177.567 220.64 166.341C220.64 165.018 220.302 164.099 218.978 163.626C218.1 163.315 217.289 162.843 216.425 162.505C215.79 162.262 215.114 162.1 214.304 161.87C214.25 162.654 214.182 163.14 214.182 163.64C214.182 177.729 214.182 191.833 214.142 205.922C214.142 207.017 214.48 207.706 215.452 208.178C217.033 208.948 218.586 209.772 220.437 210.732V210.705ZM252.98 205.436C254.763 204.504 256.114 203.639 257.572 203.086C258.95 202.572 259.545 201.694 259.518 200.343C259.491 198.668 259.302 196.98 259.302 195.304C259.275 184.457 259.288 173.623 259.302 162.775C259.302 161.938 259.369 161.1 259.477 160.262C259.842 157.358 259.545 157.101 256.87 158.115C256.762 158.155 256.64 158.142 256.546 158.196C252.953 159.911 252.925 158.966 252.939 163.099C252.98 175.96 252.966 188.834 252.98 201.694C252.98 202.802 252.98 203.923 252.98 205.436ZM201.606 200.654C201.687 199.87 201.768 199.425 201.768 198.992C201.768 185.051 201.768 171.124 201.754 157.182C201.754 156.629 201.565 155.791 201.173 155.561C199.782 154.737 198.269 154.102 196.648 153.319C196.526 153.954 196.405 154.332 196.405 154.697C196.405 168.638 196.391 182.566 196.418 196.507C196.418 197.074 196.594 197.912 196.972 198.168C198.35 199.06 199.863 199.749 201.592 200.667L201.606 200.654ZM262.084 200.654C263.976 199.573 265.597 198.925 266.799 197.817C267.339 197.317 267.002 195.899 267.056 194.886C267.069 194.494 267.056 194.102 267.056 193.71C267.056 181.012 267.056 168.327 267.056 155.629C267.056 154.94 266.948 154.265 266.867 153.413C265.799 153.873 265.016 154.319 264.178 154.548C262.206 155.102 262.017 156.48 262.03 158.25C262.098 170.948 262.084 183.633 262.084 196.331C262.084 197.56 262.084 198.776 262.084 200.654Z" fill="black"/>
<path d="M405.906 64.5495C405.906 72.1955 405.906 79.8415 405.906 87.4875C405.906 88.6087 405.73 89.3652 404.501 89.9731C399.611 92.3912 394.815 94.9984 390.006 97.5786C387.088 99.1456 384.238 100.807 381.333 102.388C377.321 104.576 373.296 106.751 369.243 108.858C367.676 109.669 366.312 108.683 365.015 107.994C359.557 105.09 354.14 102.104 348.696 99.1727C344.616 96.9707 340.523 94.7958 336.43 92.5938C334.796 91.7158 333.188 90.7701 331.526 89.9326C330.446 89.3922 330 88.6087 330 87.42C330.014 72.182 330.027 56.944 330 41.706C330 40.166 330.716 39.3149 332.04 38.8151C335.674 37.4372 339.308 36.0728 342.928 34.6679C346.575 33.2495 350.196 31.777 353.829 30.3316C356.693 29.1968 359.571 28.0486 362.448 26.9273C364.137 26.2654 365.785 25.4414 367.541 25.0496C368.446 24.847 369.581 25.3063 370.54 25.6845C374.133 27.0894 377.672 28.6024 381.252 30.0209C384.697 31.3853 388.155 32.6821 391.6 34.0195C395.261 35.4514 398.814 37.2076 402.583 38.2613C405.798 39.1528 406 41.0711 405.933 43.7999C405.784 50.7164 405.879 57.6329 405.879 64.5495H405.906ZM366.96 82.3136C366.96 75.235 366.919 68.1563 366.987 61.0777C367.001 59.4566 366.312 58.6326 364.934 58.0382C360.8 56.2145 356.666 54.3638 352.56 52.4726C346.494 49.6897 340.442 46.8664 334.377 44.0836C332.513 43.2325 332.472 43.273 332.472 45.4209C332.472 58.8487 332.499 72.2765 332.432 85.7178C332.432 87.3524 333.202 88.271 334.404 88.8924C340.105 91.8779 345.859 94.7417 351.546 97.7407C355.937 100.064 360.246 102.536 364.596 104.941C366.244 105.86 366.946 105.454 366.946 103.577C366.946 96.4979 366.946 89.4193 366.946 82.3406L366.96 82.3136ZM376.484 55.7552C374.768 56.4577 373.309 56.9575 371.931 57.6465C370.661 58.2814 369.216 58.6326 369.229 60.713C369.311 75.0999 369.27 89.5003 369.284 103.887C369.284 104.455 369.473 105.022 369.621 105.914C371.377 104.9 372.769 103.685 374.349 103.293C376.984 102.644 376.619 100.834 376.619 99.0105C376.619 85.4071 376.619 71.8037 376.619 58.2003C376.619 57.4843 376.538 56.7684 376.484 55.7687V55.7552ZM386.534 51.0136C384.792 51.8106 383.36 52.6617 381.82 53.121C379.564 53.7964 379.321 55.2554 379.334 57.3222C379.415 70.9256 379.375 84.5291 379.388 98.146C379.388 98.889 379.523 99.6184 379.618 100.645C381.536 99.4969 383.049 98.2675 384.765 97.6867C386.345 97.1598 386.71 96.3628 386.71 94.8903C386.683 80.9492 386.696 67.0081 386.683 53.067C386.683 52.4726 386.602 51.8917 386.534 51.0271V51.0136ZM395.68 46.7448C393.64 47.7039 391.924 48.3253 390.438 49.2845C389.749 49.7303 389.155 50.8245 389.128 51.662C389.047 53.6613 389.425 55.6742 389.425 57.687C389.466 68.3184 389.452 78.9364 389.425 89.5679C389.425 90.7296 389.128 91.8914 389.128 93.0666C389.128 93.7421 389.425 94.431 389.614 95.2416C391.249 94.323 392.478 93.4179 393.856 92.9181C395.423 92.3507 395.747 91.3916 395.747 89.8786C395.68 78.5176 395.693 67.1567 395.68 55.8092C395.68 53.0129 395.68 50.2031 395.68 46.7583V46.7448ZM398.192 90.1352C398.814 89.9866 399.232 89.9056 399.651 89.7705C402.893 88.7573 403.501 87.9468 403.501 84.6101C403.501 71.6281 403.501 58.6461 403.501 45.6641V43.165C402.15 43.7999 401.191 44.5159 400.124 44.705C398.125 45.0697 398.084 46.3531 398.098 47.9336C398.138 61.4154 398.111 74.9108 398.125 88.3926C398.125 88.9329 398.179 89.4733 398.206 90.1352H398.192ZM343.86 36.8293C344.427 37.3427 344.765 37.7749 345.197 38.0046C346.021 38.4504 346.899 38.7746 347.751 39.1799C351.209 40.8144 354.653 42.476 358.125 44.0836C363.178 46.4206 368.243 48.7576 373.336 51.0001C375.106 51.7836 376.835 53.3777 379.01 51.8647C379.55 51.4999 380.212 51.3243 380.779 50.9866C381.617 50.5003 382.414 49.9464 383.508 49.2439C379.294 47.3662 375.538 45.7452 371.823 44.0295C365.042 40.909 358.287 37.7344 351.506 34.6409C350.966 34.3977 350.142 34.4518 349.547 34.6409C347.764 35.2353 346.021 35.9783 343.846 36.8158L343.86 36.8293ZM373.89 54.0396C373.282 53.6343 373.12 53.4992 372.931 53.4047C368.297 51.3108 363.65 49.2439 359.03 47.1096C353.856 44.732 348.723 42.2599 343.549 39.8823C342.009 39.1799 340.483 38.1397 338.659 38.8016C337.268 39.3149 335.93 39.9634 334.161 40.7334C334.863 41.2197 335.268 41.5979 335.741 41.8276C341.645 44.5969 347.561 47.3257 353.465 50.0815C356.761 51.6215 360.017 53.2696 363.34 54.7556C366.068 55.9849 368.824 57.66 371.742 55.0392C372.228 54.607 372.971 54.4449 373.89 54.0261V54.0396ZM393.383 44.8941C393.289 44.732 393.194 44.5834 393.099 44.4213C390.681 43.4487 388.25 42.4895 385.845 41.4764C381.847 39.8013 377.875 38.0992 373.89 36.4241C370.364 34.9516 366.852 33.4251 363.272 32.0742C361.813 31.5203 360.179 30.98 358.666 31.1016C357.234 31.2096 355.869 32.1823 354.127 32.9388C356.099 33.9519 357.679 34.83 359.314 35.5865C367.041 39.1799 374.768 42.7597 382.536 46.272C384.562 47.1906 386.548 48.7441 389.02 47.1906C390.411 46.3125 391.924 45.6506 393.383 44.8941ZM401.664 40.5307C399.692 39.7742 397.733 39.0448 395.801 38.2613C392.465 36.9104 389.155 35.4919 385.805 34.1681C381.225 32.3579 376.592 30.7098 372.053 28.8186C369.297 27.6703 366.676 27.0219 363.502 29.5345C364.029 29.7777 364.488 29.9938 364.947 30.183C369.216 31.9796 373.485 33.7763 377.753 35.5595C383.535 37.9641 389.331 40.3281 395.112 42.7462C396.99 43.5297 400.475 42.4625 401.664 40.5307Z" fill="black"/>
<path d="M56.2691 282.216C56.2691 274.678 56.3097 267.153 56.2421 259.616C56.2421 258.116 56.6609 257.224 58.1198 256.671C63.1856 254.739 68.2244 252.726 73.2632 250.74C77.6265 249.011 81.9898 247.268 86.3667 245.539C88.4876 244.702 90.6084 243.864 92.7293 243.054C94.58 242.338 96.12 243.472 97.7005 244.067C102.726 245.972 107.711 247.971 112.709 249.93C116.978 251.605 121.26 253.307 125.529 254.982C127.177 255.63 128.825 256.265 130.459 256.927C131.54 257.36 132.08 258.089 132.08 259.345C132.053 274.745 132.04 290.159 132.08 305.559C132.08 307.585 130.392 307.937 129.189 308.585C121.192 312.935 113.128 317.163 105.09 321.459C101.645 323.296 98.2544 325.255 94.7962 327.065C94.3639 327.295 93.5669 327.146 93.0805 326.89C86.3667 323.404 79.6663 319.892 72.993 316.312C68.7242 314.029 64.6446 311.314 60.2272 309.396C56.7555 307.883 56.08 305.681 56.2151 302.263C56.4718 295.576 56.2826 288.889 56.2962 282.189L56.2691 282.216ZM95.0393 323.58C95.8498 323.35 96.4442 323.256 96.9576 322.999C99.3081 321.81 101.645 320.608 103.969 319.365C112.101 315.015 120.247 310.638 128.365 306.262C129.217 305.802 129.689 305.113 129.689 303.965C129.635 290.375 129.662 276.772 129.662 263.182C129.662 261.385 129.081 261.061 127.393 261.871C123.3 263.817 119.22 265.776 115.113 267.68C108.967 270.544 102.82 273.408 96.6333 276.191C95.4311 276.731 94.9988 277.393 95.0123 278.69C95.0528 290.997 95.0393 303.29 95.0393 315.596V323.566V323.58ZM82.6383 318.487C82.7328 317.325 82.8409 316.677 82.8409 316.028C82.8409 303.884 82.8139 291.74 82.8004 279.595C82.8004 277.69 82.8679 275.772 82.8679 273.867C82.8679 272.76 82.7058 271.882 81.2874 271.517C79.923 271.166 78.6667 270.328 77.3833 269.68C75.8163 268.883 75.33 269.112 75.3165 270.814C75.303 272.557 75.4111 274.3 75.4111 276.042C75.3841 288.133 75.33 300.223 75.33 312.3C75.33 313.178 75.4921 314.488 76.073 314.867C78.0183 316.191 80.1932 317.177 82.6653 318.501L82.6383 318.487ZM92.6753 323.891C92.6753 322.823 92.6753 322.27 92.6753 321.729C92.6753 307.302 92.6753 292.874 92.6888 278.433C92.6888 277.218 92.4186 276.488 91.1488 276.056C89.7033 275.556 88.3795 274.705 86.9611 274.083C85.9344 273.638 85.1914 273.84 85.2319 275.178C85.286 276.974 85.367 278.771 85.367 280.568C85.3265 292.915 85.2725 305.262 85.2455 317.623C85.2455 318.433 85.2455 319.662 85.7318 319.987C87.8121 321.364 90.0816 322.472 92.6618 323.891H92.6753ZM66.4818 264.681C66.4142 265.397 66.3332 265.884 66.3332 266.37C66.3332 280.365 66.3332 294.347 66.3197 308.342C66.3197 309.315 66.4818 310.031 67.5219 310.476C68.8188 311.03 70.0211 311.814 71.2909 312.462C72.2095 312.935 72.8039 312.759 72.7904 311.571C72.7633 310.112 72.7498 308.653 72.7498 307.194C72.7498 294.657 72.7498 282.135 72.8174 269.599C72.8174 268.126 72.4526 267.167 70.9802 266.64C69.5347 266.127 68.1569 265.411 66.4818 264.668V264.681ZM58.6737 261.02C58.6062 262.236 58.5521 262.885 58.5521 263.547C58.5521 276.853 58.5521 290.159 58.5521 303.465C58.5521 305.654 61.4295 308.058 63.9286 307.842C63.9286 306.181 63.9286 304.519 63.9286 302.844C63.9286 290.267 63.9421 277.69 63.9286 265.114C63.9286 264.533 63.8746 263.641 63.5233 263.425C62.1184 262.574 60.5919 261.939 58.6737 261.034V261.02ZM118.072 255.266C118.099 255.09 118.126 254.914 118.166 254.739C116.127 253.928 114.1 253.077 112.033 252.361C111.507 252.186 110.764 252.307 110.237 252.537C106.238 254.307 102.267 256.144 98.2949 257.954C92.1755 260.75 86.056 263.533 79.9365 266.356C79.4772 266.573 79.099 266.978 78.437 267.491C80.6255 268.504 82.4897 269.436 84.4349 270.206C84.9753 270.423 85.7993 270.233 86.3667 269.963C91.9323 267.424 97.4574 264.83 103.009 262.263C108.035 259.94 113.06 257.616 118.072 255.293V255.266ZM107.346 251.254C107.4 251.051 107.454 250.835 107.494 250.632C106.387 250.173 105.306 249.646 104.171 249.268C103.361 248.998 102.334 248.552 101.645 248.822C95.9849 251.051 90.3788 253.415 84.7456 255.752C81.2739 257.197 77.7886 258.643 74.3169 260.088C72.4121 260.885 70.5209 261.682 68.1433 262.682C70.1967 263.641 71.7907 264.249 73.2362 265.114C74.4519 265.843 75.5867 265.978 76.8025 265.411C83.0705 262.506 89.3251 259.561 95.5932 256.657C99.4972 254.847 103.428 253.064 107.332 251.267L107.346 251.254ZM88.1769 271.909C90.2302 272.949 91.8242 273.8 93.4723 274.543C93.81 274.705 94.3774 274.597 94.7556 274.435C96.9711 273.462 99.1595 272.449 101.348 271.422C107.738 268.423 114.114 265.397 120.49 262.398C122.867 261.277 125.245 260.183 127.622 259.075C127.622 258.9 127.622 258.737 127.622 258.562C125.826 257.792 124.029 257.008 122.205 256.279C121.989 256.184 121.638 256.292 121.395 256.4C117.329 258.265 113.263 260.156 109.197 262.02C103.861 264.465 98.5111 266.883 93.1886 269.342C91.6081 270.071 90.0951 270.922 88.1769 271.909ZM59.876 258.683C60.7946 259.237 61.2944 259.602 61.8483 259.832C63.5504 260.575 65.0904 261.588 67.1977 260.642C73.0876 257.994 79.0449 255.536 85.0023 253.023C89.4602 251.145 93.9316 249.322 98.7407 247.336C96.2146 246.134 94.3233 244.702 91.527 246.107C88.0823 247.836 84.3674 249.038 80.7605 250.443C76.4377 252.132 72.0879 253.766 67.7651 255.468C65.2525 256.454 62.7669 257.508 59.8895 258.683H59.876Z" fill="black"/>
<path d="M194 64.43C194 57.0677 194 49.7054 194 42.3431C194 39.5197 194.108 39.5602 196.702 38.6011C200.187 37.3043 203.578 35.7913 207.036 34.3999C210.454 33.022 213.885 31.6846 217.316 30.3472C220.356 29.1584 223.422 27.9967 226.462 26.8079C228.002 26.2135 229.488 25.376 231.082 25.0517C232.054 24.8491 233.243 25.2814 234.243 25.6596C238.43 27.2537 242.578 28.9558 246.752 30.5904C249.778 31.7792 252.844 32.8869 255.857 34.0757C259.315 35.44 262.746 36.872 266.177 38.2634C266.583 38.4255 267.001 38.5876 267.42 38.6957C268.987 39.1415 269.852 40.0736 269.852 41.7892C269.838 56.9596 269.838 72.1436 269.852 87.314C269.852 88.4623 269.501 89.2188 268.393 89.8132C262.408 93.0012 256.505 96.3379 250.521 99.5395C244.874 102.566 239.119 105.375 233.527 108.509C231.541 109.617 230.204 108.577 228.758 107.834C224.03 105.402 219.369 102.876 214.695 100.35C208.252 96.8648 201.862 93.2984 195.378 89.8942C194.149 89.2458 194 88.4488 194 87.3545C194 79.7085 194 72.0625 194 64.4165V64.43ZM230.379 105.889C230.447 105.092 230.528 104.646 230.528 104.2C230.528 89.5835 230.528 74.9669 230.568 60.3504C230.568 59.1751 230.014 58.5537 229.15 58.1484C225.651 56.5138 222.125 54.9738 218.626 53.3528C213.277 50.8807 207.941 48.368 202.592 45.8824C200.673 44.9908 198.728 44.1533 196.553 43.1941C196.486 44.1262 196.405 44.7341 196.405 45.3285C196.405 58.8239 196.432 72.3192 196.351 85.801C196.351 87.4626 197.107 88.2191 198.35 88.881C204.105 91.907 209.859 94.933 215.587 97.9725C220.437 100.553 225.273 103.16 230.366 105.875L230.379 105.889ZM197.931 40.6139C198.512 41.1138 198.823 41.519 199.228 41.7082C205.104 44.3964 211.008 47.0036 216.857 49.7189C221.463 51.8533 225.989 54.1498 230.609 56.2707C231.284 56.5814 232.27 56.4868 233.027 56.2572C234.283 55.8654 235.472 55.244 236.674 54.6902C242.551 51.9479 248.413 49.1785 254.29 46.4362C257.64 44.8692 261.004 43.3157 264.367 41.7622C264.854 41.5325 265.367 41.3434 265.867 41.1408C265.678 40.9111 265.475 40.668 265.286 40.4383C263.422 39.7224 261.557 39.0199 259.707 38.2769C256.275 36.899 252.858 35.4536 249.413 34.0892C244.982 32.3465 240.538 30.6444 236.093 28.9423C234.013 28.1453 232 27.0511 229.609 28.0237C223.895 30.3742 218.14 32.6437 212.385 34.9132C207.698 36.7774 202.997 38.6146 197.931 40.6004V40.6139ZM240.605 55.4872C238.701 56.3517 237.174 57.2568 235.526 57.7432C233.27 58.4186 232.838 59.8235 232.851 61.9984C232.946 75.818 232.892 89.6375 232.892 103.457V105.524C233.432 105.429 233.662 105.429 233.837 105.348C235.472 104.538 237.025 103.511 238.728 102.944C240.254 102.43 240.632 101.606 240.632 100.12C240.592 85.9631 240.605 71.8059 240.605 57.6486C240.605 57.0542 240.605 56.4463 240.605 55.4872ZM242.969 100.755C245.077 99.5395 246.711 98.2157 248.589 97.6213C250.494 97.0269 250.629 95.9327 250.629 94.3656C250.602 81.7214 250.602 69.0636 250.588 56.4193C250.588 55.0684 250.588 53.7175 250.615 52.3666C250.642 51.2454 250.129 50.9347 249.143 51.3535C248.13 51.7858 247.144 52.2315 246.144 52.7044C244.018 53.713 242.956 55.4466 242.956 57.9053C242.956 71.4006 242.956 84.8959 242.956 98.3778V100.742L242.969 100.755ZM253.006 95.3113C255.073 94.2035 256.829 93.393 258.41 92.3258C259.004 91.9205 259.45 90.9209 259.518 90.1509C259.626 88.6514 259.342 87.1249 259.342 85.6119C259.315 75.2101 259.315 64.8083 259.342 54.4065C259.342 52.5558 259.531 50.705 259.572 48.8543C259.599 47.0306 259.058 46.7199 257.464 47.5305C256.573 47.9763 255.681 48.4491 254.749 48.8273C253.506 49.3271 252.939 50.0566 252.952 51.5426C253.033 64.8083 253.006 78.0875 253.02 91.3532C253.02 92.5284 253.02 93.7037 253.02 95.2977L253.006 95.3113ZM266.947 43.3022C265.934 43.694 265.286 43.9911 264.61 44.2073C262.638 44.8287 262.017 46.058 262.03 48.1924C262.138 61.6202 262.084 75.048 262.098 88.4758C262.098 89.0026 262.206 89.5295 262.287 90.1509C263.016 89.9077 263.543 89.7456 264.043 89.5565C266.285 88.6919 267.204 87.3005 267.164 84.6663C266.988 71.6302 267.082 58.6077 267.082 45.5717C267.082 44.8827 267.001 44.1803 266.947 43.3157V43.3022Z" fill="black"/>
<path d="M55.0407 174.491C55.0407 166.845 55.0813 159.199 55.0002 151.553C54.9867 150.04 55.6351 149.351 56.9049 148.851C61.9707 146.879 67.0095 144.839 72.0888 142.88C77.0465 140.962 82.0313 139.084 86.989 137.18C88.1777 136.72 89.4746 136.41 90.4877 135.694C92.487 134.289 94.2027 135.343 95.9858 136.018C101.106 137.99 106.198 139.99 111.305 141.989C117.195 144.299 123.084 146.595 128.961 148.946C130.136 149.419 130.865 150.229 130.852 151.756C130.798 166.994 130.811 182.232 130.838 197.47C130.838 198.699 130.379 199.415 129.312 199.969C124.854 202.306 120.41 204.67 115.979 207.061C112.102 209.155 108.279 211.343 104.402 213.451C100.903 215.355 97.4178 217.328 93.7974 218.949C92.9058 219.354 91.3253 218.814 90.2986 218.26C84.3413 215.112 78.4649 211.816 72.5481 208.615C67.2121 205.737 61.8762 202.86 56.4862 200.104C55.3109 199.496 55.0407 198.753 55.0407 197.591C55.0677 189.891 55.0407 182.178 55.0407 174.478V174.491ZM93.8109 192.201C93.8109 199.456 93.8109 206.71 93.8109 213.964C93.8109 215.599 94.2837 215.936 95.6616 215.22C100.16 212.897 104.658 210.573 109.13 208.182C114.763 205.17 120.396 202.13 125.975 199.023C127.015 198.442 128.434 198.091 128.42 196.416C128.42 182.529 128.42 168.642 128.42 154.755C128.42 153.539 127.921 153.201 126.853 153.688C121.788 156.011 116.708 158.321 111.656 160.672C106.239 163.198 100.835 165.764 95.4184 168.277C94.3107 168.79 93.7434 169.385 93.7569 170.763C93.8379 177.895 93.7974 185.042 93.7974 192.188L93.8109 192.201ZM58.7827 150.797C59.5527 151.296 60.066 151.729 60.6469 151.999C65.7802 154.377 70.927 156.687 76.0469 159.078C80.6534 161.225 85.2193 163.495 89.8393 165.602C90.9876 166.129 92.352 166.521 93.5948 166.453C94.6755 166.386 95.7021 165.562 96.7423 165.076C102.24 162.522 107.738 159.956 113.25 157.416C116.762 155.795 120.302 154.228 123.8 152.593C124.746 152.148 125.611 151.513 126.759 150.824C125.219 150.175 124.084 149.662 122.909 149.203C118.64 147.541 114.358 145.906 110.089 144.231C106.469 142.813 102.916 141.219 99.2549 139.963C96.0669 138.868 92.9734 136.234 89.3125 138.801C88.8397 139.139 88.2183 139.274 87.6644 139.49C82.5986 141.435 77.5328 143.34 72.4806 145.312C68.0092 147.055 63.5783 148.865 58.7827 150.797ZM65.2263 156.97C65.1723 157.875 65.1183 158.375 65.1183 158.861C65.1183 172.397 65.1453 185.933 65.0777 199.469C65.0777 201.333 65.456 202.509 67.3607 203.103C68.4549 203.441 69.4141 204.184 70.4272 204.751C72.332 205.818 72.7507 205.589 72.7507 203.468C72.7507 189.986 72.7237 176.504 72.8048 163.022C72.8048 161.104 72.3995 159.848 70.5218 159.159C68.8062 158.537 67.1446 157.754 65.2399 156.943L65.2263 156.97ZM91.2713 215.882C91.3658 215.18 91.4469 214.91 91.4469 214.626C91.4469 199.793 91.4604 184.947 91.4063 170.114C91.4063 169.52 90.7985 168.696 90.2446 168.385C88.8937 167.629 87.4077 167.129 85.9893 166.467C84.1656 165.629 84.0035 165.683 84.017 167.669C84.0441 173.113 84.1521 178.571 84.1386 184.015C84.1386 192.674 84.0306 201.32 84.0441 209.979C84.0441 210.789 84.2737 211.992 84.8141 212.343C86.7863 213.626 88.9477 214.639 91.2713 215.869V215.882ZM75.1283 161.415C75.1283 164.846 75.1283 167.642 75.1283 170.439C75.1283 182.232 75.1013 194.025 75.1283 205.818C75.1283 206.44 75.412 207.358 75.8577 207.642C77.5193 208.682 79.316 209.506 81.3288 210.546C81.4369 209.601 81.572 208.952 81.572 208.317C81.572 203.711 81.572 199.104 81.572 194.498C81.572 185.123 81.599 175.734 81.572 166.359C81.572 165.643 81.4369 164.549 80.9776 164.265C79.2485 163.238 77.3707 162.482 75.1283 161.428V161.415ZM57.3237 153.201V155.592C57.3237 169.007 57.3237 182.421 57.3507 195.849C57.3507 196.578 57.4453 197.659 57.9181 197.983C59.2825 198.956 60.863 199.631 62.5111 200.496C62.6056 199.834 62.7137 199.456 62.7137 199.091C62.7137 185.055 62.7272 171.019 62.7002 156.984C62.7002 156.43 62.4841 155.606 62.0923 155.376C60.7144 154.606 59.2285 154.039 57.3372 153.188L57.3237 153.201Z" fill="black"/>
<path d="M129.808 64.5041C129.808 72.2042 129.808 79.9042 129.808 87.6043C129.808 88.5769 129.741 89.3064 128.606 89.8738C123.635 92.3594 118.745 95.0071 113.854 97.6413C109.437 100.019 105.033 102.45 100.629 104.869C98.7381 105.895 96.7929 106.841 95.0097 108.016C92.9158 109.381 91.0651 109.11 88.9848 107.935C82.7437 104.409 76.4487 101.005 70.1401 97.6008C65.466 95.0882 60.765 92.6431 56.0504 90.225C54.5915 89.482 54.0781 88.4418 54.0781 86.7802C54.1322 72.0556 54.1186 57.3174 54.1186 42.5928C54.1186 39.6614 54.2537 39.6344 57.023 38.6212C60.3597 37.3919 63.6288 35.9735 66.925 34.6631C70.5588 33.2041 74.1927 31.7722 77.8265 30.3268C80.812 29.138 83.7974 27.9627 86.7829 26.8009C88.3769 26.1795 89.9439 25.369 91.592 25.0448C92.5781 24.8557 93.7534 25.3015 94.7665 25.7067C100.927 28.1653 107.033 30.732 113.206 33.1636C118.204 35.1359 123.257 36.9461 128.268 38.8373C129.363 39.2561 129.835 39.9856 129.835 41.2419C129.781 48.996 129.808 56.7636 129.808 64.5176V64.5041ZM91.0111 106.03C91.0111 103.207 91.0111 100.924 91.0111 98.641C91.0111 86.1048 90.9841 73.5686 91.0381 61.0189C91.0381 59.668 90.6329 58.7359 89.4981 58.182C87.2557 57.0878 84.9862 56.0611 82.7167 55.0344C78.3534 53.0621 73.9765 51.1034 69.6132 49.1311C65.8983 47.456 62.2104 45.7133 58.482 44.0653C56.5502 43.2142 56.5232 43.2817 56.5232 45.4972C56.5232 58.8169 56.5637 72.1502 56.4827 85.4699C56.4827 87.2395 57.2392 88.1716 58.6171 88.8876C61.1567 90.198 63.7099 91.4813 66.236 92.8322C71.4504 95.615 76.6243 98.4519 81.8386 101.235C84.7025 102.761 87.5934 104.234 91.0246 106.017L91.0111 106.03ZM127.512 43.1196C124.81 44.376 122.527 45.4297 120.244 46.4833C115.435 48.7123 110.639 50.9683 105.817 53.1837C102.696 54.6157 99.5892 56.0611 96.4281 57.385C93.5913 58.5738 93.3481 58.8169 93.3481 61.8834C93.3481 75.7705 93.3481 89.6576 93.3481 103.531C93.3481 104.22 93.4832 104.909 93.5778 105.882C99.4136 102.775 104.966 99.8298 110.518 96.8713C114.949 94.5073 119.271 91.9541 123.797 89.8062C126.418 88.5634 127.687 87.253 127.62 84.0244C127.377 71.2721 127.512 58.5062 127.512 45.7404C127.512 45.0244 127.512 44.3084 127.512 43.1196ZM58.2658 40.661C58.8872 41.1744 59.2385 41.5796 59.6843 41.8093C60.5623 42.2686 61.5079 42.6333 62.413 43.0521C66.6278 44.9974 70.829 46.9426 75.0437 48.8879C79.9879 51.1709 84.9592 53.4134 89.8494 55.8044C91.3488 56.5339 92.6322 56.8987 94.0641 55.8855C94.5099 55.5748 94.9827 55.3046 95.4825 55.075C99.8594 53.1432 104.277 51.2655 108.64 49.2797C113.557 47.0372 118.447 44.7002 123.324 42.3766C124.202 41.9579 124.999 41.3905 126.188 40.688C123.716 39.7424 121.757 39.0265 119.825 38.2429C116.435 36.8785 113.084 35.4466 109.68 34.0957C105.884 32.5962 102.075 31.1643 98.2653 29.7189C95.1583 28.5436 92.2944 26.7469 88.6201 28.5841C84.4729 30.651 80.0285 32.0964 75.6922 33.785C72.7743 34.9333 69.8293 36.0275 66.8979 37.1757C64.1151 38.27 61.3594 39.4047 58.2658 40.6475V40.661Z" fill="black"/>
<path d="M441.15 218.016H293.121V329.453H441.15V218.016Z" fill="white"/>
<path fill-rule="evenodd" clip-rule="evenodd" d="M437.638 221.325H296.391V326.112H437.638V221.325ZM441.029 218V329.438H293V218H441.029Z" fill="#0070F3"/>
<path d="M357.954 285.857C357.988 274.129 360.97 270.494 366.476 266.96C370.81 264.195 374.104 261.497 374.104 257.272C374.104 253.047 370.843 250.416 366.755 250.416C362.667 250.416 358.959 253.326 358.848 258.131H342.898C343.111 243.593 353.855 237.127 366.889 237.127C381.174 237.127 391.539 243.905 391.539 256.47C391.539 264.742 387.138 269.758 380.482 273.66C375.244 276.771 372.719 279.714 372.719 285.835V287.25H357.954V285.835V285.857ZM356.603 300.974C356.536 296.058 360.623 292.078 365.616 292.078C370.608 292.078 374.562 296.058 374.629 300.974C374.562 305.958 370.363 309.971 365.616 309.971C360.623 309.971 356.536 305.958 356.603 300.974Z" fill="#0070F3"/>
</svg>
