<svg width="60" height="42" viewBox="0 0 60 42" fill="none" xmlns="http://www.w3.org/2000/svg">
<path d="M41.9939 14.1749C41.9081 18.7173 40.5357 22.2851 37.4477 25.15C35.8302 26.6503 33.9063 27.6486 31.6884 28.068C31.1431 28.1684 30.9838 28.2865 31.333 28.8241C32.0131 29.8755 31.817 30.4898 30.7632 31.1396C30.6284 31.2223 30.4691 31.4408 30.4875 31.5767C30.7326 33.207 29.9238 34.542 29.1518 35.8533C28.484 36.9816 27.9019 38.0803 28.0428 39.4329C28.0612 39.6042 27.7794 39.811 27.6385 40C27.4853 39.811 27.2341 39.6338 27.2034 39.427C27.0074 38.1157 27.3566 36.9284 28.0673 35.8002C28.6188 34.9259 29.115 34.0045 29.5133 33.0593C29.7032 32.6104 29.642 32.0434 29.5868 31.5413C29.5684 31.3936 29.1947 31.1928 28.9619 31.1691C27.424 31.0155 26.9522 30.2536 27.6507 28.9836C28.0061 28.3338 27.9325 28.2216 27.2034 28.0739C24.3115 27.4714 22.0139 25.9533 20.1697 23.7618C18.8463 22.1847 17.9089 20.3712 17.48 18.4101C17.0082 16.2659 16.7815 14.1099 17.2839 11.8594C17.8598 9.27802 18.8769 6.98613 20.666 5.02503C22.4489 3.06984 24.5689 1.62263 27.3382 1.28003C27.9632 1.20324 28.582 1.01422 29.2069 1.00241C31.9947 0.949247 34.5006 1.77621 36.6696 3.45969C39.1571 5.39126 40.6827 7.95487 41.5466 10.867C41.902 12.072 41.8958 13.3715 42 14.1867L41.9939 14.1749ZM18.0437 14.5825C17.8353 16.4136 18.2152 18.1561 18.9137 19.7806C20.4822 23.431 23.0065 26.166 27.1851 27.0993C30.2853 27.7904 33.1466 27.2115 35.6893 25.3803C38.281 23.5078 39.874 21.021 40.5969 17.9553C41.179 15.4803 41.1422 13.023 40.4376 10.6189C39.6902 8.0612 38.281 5.84609 36.0691 4.16261C33.0179 1.84119 29.5807 1.29185 25.9719 2.48505C22.7982 3.53057 20.6231 5.82246 19.2445 8.71095C18.3623 10.5539 17.8108 12.5327 18.0437 14.5884V14.5825ZM29.4827 30.4662C29.9299 30.1945 30.4875 30.0409 30.6652 29.7042C30.8673 29.3144 30.0035 28.4578 29.5317 28.446C29.0048 28.4283 28.2083 29.2139 28.3859 29.7515C28.484 30.0468 29.0477 30.2004 29.4765 30.4662H29.4827Z" fill="black"/>
</svg>
