<svg width="36" height="36" viewBox="0 0 36 36" fill="none" xmlns="http://www.w3.org/2000/svg">
<path fill-rule="evenodd" clip-rule="evenodd" d="M0 35.1107V35.9447C0.113565 35.9504 0.215044 35.9569 0.308654 35.9628C0.483404 35.9739 0.630729 35.9833 0.778052 35.9833C4.59325 35.9852 8.40905 35.9858 12.2251 35.9864C19.856 35.9876 27.4878 35.9888 35.1171 35.9999C35.8013 36.0054 36 35.8232 36 35.1107C35.9816 25.6568 35.9824 16.2069 35.9831 6.75433C35.9833 4.86385 35.9834 2.97327 35.9834 1.08254C35.9834 0.360845 35.6303 0 34.924 0H0.927035C0.309009 0 0 0.314819 0 0.944458V35.1107ZM18.6235 17.9944H35.0123V35.0278H18.6235V17.9944ZM1.00981 34.3706C1.36017 34.0225 1.68667 33.6971 2.00134 33.3835C2.34368 33.0423 2.67202 32.715 3.00184 32.3877C5.38491 29.997 7.77348 27.6062 10.1566 25.221L10.1588 25.2187C11.2982 24.0782 12.4377 22.9405 13.5771 21.8028C14.7166 20.665 15.8562 19.5271 16.9957 18.3866C17.5641 17.8177 17.4706 18 17.4706 18L17.0607 17.0763C14.9753 15.0221 12.8898 12.9679 10.8155 10.9027C10.239 10.3307 9.66308 9.75816 9.08756 9.18517L17.6082 0.944458L1.00981 1.11567V16.9975V18V34.3706ZM4.21316 4.32001C4.38706 4.49376 4.56096 4.66751 4.73484 4.84125L4.21316 4.32001ZM2.21126 34.6823C7.36802 29.5371 12.4934 24.4231 17.6082 19.3145V35.0002H1.8927L2.21126 34.6823Z" fill="black"/>
<path d="M1.00981 18H17.4706L17.0607 17.0763C14.9753 15.0221 12.8898 12.9679 10.8155 10.9027C10.239 10.3307 9.66308 9.75816 9.08756 9.18517L1.00981 16.9975V18Z" fill="black"/>
</svg>
