<svg width="60" height="42" viewBox="0 0 60 42" fill="none" xmlns="http://www.w3.org/2000/svg">
<path d="M29.6785 21.4632C29.6491 20.4643 29.0812 19.6075 28.7727 18.6919C28.4642 17.7713 27.955 16.9096 27.48 16.0576C27.0149 15.2252 26.4812 14.4369 26.0797 13.5654C27.1226 14.4712 27.8326 15.5925 28.3712 16.8361C28.9 18.0504 29.4386 19.2549 30.0457 20.4399C31.1082 18.0162 31.9113 15.5435 33.7376 13.6437C33.8208 13.6878 33.9041 13.7367 33.9873 13.7808C33.8845 13.9669 33.811 14.1774 33.6788 14.3341C32.4841 15.7198 31.7986 17.3747 31.1327 19.0395C30.8879 19.6515 30.6284 20.2636 30.413 20.8903C30.3493 21.0764 30.4032 21.3016 30.4032 21.5122C30.4864 21.522 30.5647 21.5268 30.648 21.5366C30.79 21.1988 30.9858 20.8707 31.0593 20.5182C31.3286 19.1717 32.1169 18.0994 32.9052 17.0516C34.2076 15.3134 35.8185 13.864 37.5959 12.6155C38.7515 11.8027 39.9462 11.0388 41.1507 10.2946C42.3258 9.56992 43.6478 9.21249 44.9992 9.02643C45.8365 8.90891 46.6444 9.1929 47.3348 9.68744C48.0154 10.1771 48.1917 11.2347 47.7804 12.1111C47.1438 13.4674 46.4583 14.8041 45.8659 16.1849C45.626 16.748 45.5182 17.3845 45.4546 18.0015C45.2489 20.0775 44.255 21.5171 42.2328 22.183C42.0859 22.2319 41.9782 22.3984 41.8019 22.5551C42.6343 22.9125 43.3247 23.2944 43.7507 24.073C44.2207 24.9396 44.1815 25.8454 43.9122 26.6827C43.4814 28.0243 42.9672 29.361 42.3209 30.6096C41.655 31.9022 40.6121 32.8815 39.1579 33.3026C38.4038 33.5229 37.6841 33.2928 37.0328 32.9696C34.7071 31.819 33.1304 29.9241 31.9602 27.662C31.4902 26.7513 31.0789 25.8063 30.7802 25.1844C30.648 27.6277 30.4962 30.3991 30.3444 33.1802C29.7226 33.1998 29.7471 32.857 29.7324 32.5681C29.61 30.1542 29.4924 27.7354 29.3749 25.3215C29.3651 25.1404 29.3602 24.9592 29.3504 24.827C28.9294 25.7867 28.5621 26.8051 28.0529 27.7452C27.0736 29.5569 25.8398 31.1923 24.1015 32.338C23.4161 32.7885 22.6082 33.1361 21.8051 33.3124C20.7426 33.5425 19.827 32.9843 19.0681 32.294C17.751 31.0943 16.9724 29.5569 16.5024 27.8481C16.3457 27.2654 16.0568 26.7072 15.9834 26.1147C15.7924 24.6116 16.0274 23.6421 17.7559 22.7411C17.8636 22.6873 17.9713 22.6383 18.1623 22.5453C17.9958 22.3935 17.8881 22.2319 17.7461 22.183C16.4436 21.7423 15.4595 20.954 14.9698 19.6417C14.7985 19.1766 14.632 18.6919 14.5781 18.2022C14.4312 16.7774 13.9367 15.5043 13.2659 14.2411C12.742 13.2618 12.0614 12.3119 12.0026 11.1123C11.9488 10.0547 12.7322 9.52096 13.4373 9.26145C14.5879 8.83547 15.719 9.09498 16.8696 9.45731C19.4598 10.2799 21.575 11.8712 23.6413 13.536C25.3648 14.9265 26.9365 16.4836 28.0382 18.4274C28.5132 19.2647 28.7923 20.2146 29.1693 21.1156C29.2378 21.2722 29.3456 21.4142 29.4337 21.566C29.512 21.5317 29.5953 21.4975 29.6736 21.4632H29.6785ZM28.9392 22.1879C28.8902 21.7423 28.9098 21.3946 28.807 21.0813C28.2684 19.3871 27.3821 17.8644 26.207 16.5521C23.984 14.0746 21.3743 12.0671 18.4267 10.5149C17.0753 9.80495 15.6406 9.36917 14.0738 9.53565C12.9183 9.65806 12.2426 10.6422 12.409 11.1759C12.649 11.9349 12.8742 12.7379 13.2904 13.4038C14.2648 14.9657 14.9013 16.6305 15.0678 18.447C15.293 20.8854 18.079 22.4229 20.0033 22.1193C20.8651 21.9822 21.717 21.7961 22.5837 21.708C24.2435 21.5415 25.9132 21.4387 27.5633 21.8304C27.9844 21.9283 28.3957 22.0459 28.9343 22.1879H28.9392ZM31.1425 22.1879C31.451 22.0899 31.7056 21.9969 31.97 21.9283C34.4818 21.282 37.0133 21.5073 39.481 22.0116C41.1556 22.3543 42.4433 21.8402 43.6625 20.905C44.7544 20.0726 44.8964 18.7604 45.1461 17.5167C45.2685 16.89 45.3616 16.2388 45.6113 15.661C46.096 14.5446 46.7423 13.4919 47.2026 12.3657C47.418 11.8369 47.8195 11.2837 47.4915 10.608C47.1389 9.89798 46.5661 9.6091 45.8218 9.52586C44.1326 9.3349 42.6049 9.88819 41.2192 10.7059C37.3952 12.9533 33.8502 15.5386 31.779 19.6417C31.3971 20.3958 31.0103 21.189 31.1425 22.183V22.1879ZM21.5212 32.8717C21.8835 32.8228 22.2752 32.8521 22.5984 32.715C23.8616 32.1813 24.8654 31.3 25.7663 30.2815C26.9365 28.9546 27.8815 27.4808 28.4985 25.8307C28.8069 25.0082 28.9343 24.1121 29.1007 23.2406C29.1791 22.8391 28.9392 22.6726 28.5474 22.7705C27.813 22.9517 27.0785 23.1329 26.349 23.3287C24.601 23.7988 22.897 23.3483 21.1784 23.1329C20.1893 23.0104 19.2541 22.5061 18.172 22.9713C17.0997 23.4315 16.1841 24.5675 16.3653 25.6937C16.6738 27.6326 17.2907 29.4736 18.505 31.0405C19.2541 32.01 20.0865 32.955 21.5212 32.8766V32.8717ZM31.1327 22.7656C31.1131 22.8391 31.0838 22.8929 31.0838 22.9517C31.074 23.0937 31.0691 23.2357 31.0691 23.3777C31.0593 24.5528 31.4069 25.6153 31.9112 26.6729C33.0178 28.9889 34.4818 30.9768 36.6999 32.3331C37.6645 32.9207 38.6878 33.0627 39.7454 32.5877C41.0332 32.01 41.7236 30.8691 42.3454 29.7038C42.9428 28.5923 43.3296 27.4025 43.5842 26.1539C43.7409 25.3852 43.6968 24.7144 43.2659 24.1023C42.4923 23.0007 41.2339 22.5845 39.9462 22.9419C39.7895 22.986 39.623 22.9811 39.4614 23.0055C38.6437 23.1426 37.8358 23.3434 37.0133 23.3973C36.0046 23.4658 34.9813 23.505 33.9775 23.3973C33.0325 23.2944 32.1071 22.9909 31.1229 22.7656H31.1327ZM31.9896 22.511C34.095 23.3581 38.3793 23.0447 39.3194 22.4914C38.9669 22.3788 38.6535 22.1976 38.3304 22.183C36.4502 22.0948 34.57 21.8304 32.6898 22.1634C32.4841 22.1976 32.2981 22.3543 31.9896 22.5061V22.511ZM20.6055 22.5698C22.7942 23.1965 26.6917 23.2259 27.9011 22.5306C27.294 21.7961 22.3046 21.7961 20.6055 22.5698ZM29.9576 29.9584C30.0408 29.9486 30.1192 29.9437 30.2024 29.9339V24.5528C29.6834 24.8319 29.6638 24.8319 29.7226 27.4172C29.7422 28.2642 29.5855 29.1554 29.9576 29.9535V29.9584ZM30.0359 23.1475C30.2563 22.7999 30.5158 22.5649 30.4913 22.3641C30.4717 22.1732 30.1388 21.8794 29.9625 21.8892C29.7813 21.899 29.4827 22.227 29.4827 22.418C29.4827 22.6236 29.7764 22.8244 30.0359 23.1475Z" fill="black"/>
<path d="M17.09 17.6833C16.1939 17.7029 15.7435 17.2573 15.67 16.4249C15.5819 15.4016 16.3898 14.9756 17.0753 14.8874C17.6824 14.8091 18.4707 15.6464 18.4805 16.2878C18.4952 17.1104 17.937 17.6686 17.09 17.6882V17.6833Z" fill="black"/>
<path d="M15.8659 13.7221C15.0433 13.7221 14.4998 13.1493 14.5096 12.3022C14.5194 11.4894 15.0678 10.9263 15.861 10.9214C16.5954 10.9165 17.3299 11.6216 17.325 12.3267C17.325 13.0366 16.6052 13.727 15.8659 13.727V13.7221Z" fill="black"/>
<path d="M18.7156 18.4666C19.5284 18.4666 20.1404 19.0688 20.1404 19.862C20.1404 20.6014 19.45 21.2918 18.7156 21.2869C17.9713 21.282 17.3642 20.6552 17.3593 19.8816C17.3495 19.0198 17.8783 18.4666 18.7156 18.4666ZM18.6078 19.0688C18.2406 19.1227 17.893 19.2891 17.9077 19.8473C17.9224 20.2635 18.3092 20.6846 18.7009 20.6895C19.0583 20.6944 19.592 20.1754 19.5773 19.8326C19.5626 19.4605 19.1073 19.059 18.6078 19.0688Z" fill="black"/>
<path d="M41.7628 15.6269C41.7628 14.7946 42.3062 14.3196 43.1876 14.2853C43.9514 14.256 44.5831 14.9366 44.5684 15.6857C44.5537 16.4348 43.8878 17.091 43.1337 17.0812C42.3895 17.0714 41.7628 16.4055 41.7677 15.622L41.7628 15.6269Z" fill="black"/>
<path d="M44.4851 10.6278C45.3812 10.5445 45.8806 11.3671 45.91 11.9596C45.9492 12.6647 45.1902 13.4383 44.4998 13.4383C43.7556 13.4383 43.1582 12.8018 43.124 12.0232C43.0995 11.3377 43.5401 10.5347 44.4802 10.6229L44.4851 10.6278Z" fill="black"/>
<path d="M43.2072 19.7004C43.2023 20.4887 42.6245 21.0616 41.8411 21.0665C41.0136 21.0665 40.3967 20.4887 40.3918 19.7053C40.3918 18.9219 41.0626 18.2462 41.8362 18.256C42.6147 18.2707 43.2121 18.8974 43.2072 19.7004ZM41.7824 20.4642C42.3601 20.474 42.6147 20.2341 42.6196 19.6808C42.6196 19.2646 42.223 18.8533 41.8215 18.8484C41.4641 18.8484 40.9598 19.294 40.9353 19.6318C40.9059 20.0676 41.2976 20.4544 41.7824 20.4642Z" fill="black"/>
<path d="M21.6925 29.3414C22.5249 29.3267 23.088 29.8506 23.1223 30.6585C23.1517 31.486 22.5249 32.1421 21.7121 32.1372C20.9679 32.1274 20.3705 31.5202 20.3509 30.7417C20.3265 29.9779 20.9287 29.3561 21.6974 29.3414H21.6925Z" fill="black"/>
<path d="M19.1905 29.7528C18.3287 29.7528 17.8636 29.2436 17.8734 28.323C17.8832 27.5543 18.5001 26.9276 19.2395 26.9374C19.9103 26.9423 20.6643 27.6718 20.6839 28.3279C20.7035 29.0869 20.0033 29.7577 19.1905 29.7528ZM18.4609 28.3916C18.4707 28.9351 18.7058 29.1652 19.2395 29.1554C19.7242 29.1505 20.0425 28.8225 20.0229 28.3573C20.0082 27.9754 19.5626 27.5396 19.2052 27.5494C18.7792 27.5592 18.456 27.9313 18.4609 28.3916Z" fill="black"/>
<path d="M19.734 23.5001C20.5321 23.4022 21.105 24.1807 21.105 24.8515C21.105 25.6496 20.5076 26.291 19.7389 26.3155C19.0191 26.3351 18.2994 25.5957 18.2945 24.8319C18.2896 24.1366 18.9751 23.5001 19.734 23.4952V23.5001ZM19.7536 24.0974C19.2248 24.0876 18.9359 24.3374 18.9065 24.8221C18.882 25.1991 19.3129 25.6839 19.685 25.7034C20.1208 25.723 20.488 25.3656 20.4978 24.9053C20.5125 24.3618 20.2775 24.1072 19.7536 24.1023V24.0974Z" fill="black"/>
<path d="M38.5801 32.2892C37.8065 32.2892 37.2777 31.6919 37.2336 30.884C37.1895 30.0663 37.9974 29.4591 38.6633 29.4787C39.4614 29.5081 40.049 30.1202 40.0245 30.933C40 31.7604 39.5153 32.2501 38.585 32.2892H38.5801Z" fill="black"/>
<path d="M41.0136 29.7529C40.2057 29.8802 39.5643 29.0576 39.5496 28.4162C39.5349 27.6671 40.2351 26.9375 40.9842 26.9375C41.7187 26.9375 42.3601 27.5838 42.365 28.333C42.3699 29.18 41.8362 29.7431 41.0185 29.7529H41.0136ZM41.7726 28.4162C41.7823 27.9706 41.3906 27.5153 40.9647 27.5495C40.5142 27.5838 40.2351 27.8874 40.1568 28.3134C40.0833 28.7149 40.4897 29.1409 40.901 29.1556C41.469 29.18 41.7628 28.9303 41.7726 28.4162Z" fill="black"/>
<path d="M41.8068 24.881C41.8802 25.8897 41.1947 26.2177 40.4554 26.301C39.765 26.3793 38.9669 25.5176 38.9816 24.8419C38.9963 24.1662 39.7552 23.5003 40.5044 23.5052C41.322 23.5101 41.8117 24.034 41.8019 24.881H41.8068ZM39.9266 24.1515C39.6034 24.6509 39.5398 25.1356 39.9658 25.5127C40.2546 25.7722 40.7002 25.8162 40.945 25.4833C41.1311 25.2287 41.2682 24.788 41.1752 24.5187C40.9695 23.9116 40.4015 24.1074 39.9266 24.1515Z" fill="black"/>
</svg>
