<svg width="60" height="42" viewBox="0 0 60 42" fill="none" xmlns="http://www.w3.org/2000/svg">
<path fill-rule="evenodd" clip-rule="evenodd" d="M16.0002 12.3713V20.0204L16.0098 20.0252C16.0098 20.7536 16.0109 21.4821 16.012 22.2105C16.0148 24.1527 16.0177 26.0942 16.0002 28.0332C15.9954 28.6267 16.2116 28.9809 16.7306 29.249C18.7487 30.2973 20.7525 31.3599 22.7562 32.4321C23.4367 32.7983 24.1158 33.1676 24.7949 33.537C26.2017 34.3021 27.609 35.0674 29.0317 35.8067C29.2815 35.9359 29.7236 35.8785 29.9975 35.7444C30.4433 35.5291 30.8739 35.2805 31.3047 35.0318C31.6401 34.8382 31.9755 34.6445 32.3184 34.4664C32.9645 34.1301 33.6151 33.8028 34.2656 33.4754C35.1243 33.0433 35.9828 32.6114 36.8304 32.1593C38.6129 31.2116 40.3763 30.2304 42.1396 29.2492L42.14 29.249L42.1606 29.2376C42.595 28.9979 43.0001 28.7743 43.0001 28.1193C42.9761 22.7631 42.9809 17.4021 42.9953 12.0458C43.0001 11.5145 42.7983 11.1795 42.3178 10.9928C41.446 10.6508 40.5741 10.3113 39.7026 9.9718C39.2266 9.78636 38.7506 9.60096 38.2748 9.41524L38.2694 9.40502L38.2605 9.40968C37.4662 9.09961 36.6722 8.78863 35.8789 8.47502C35.0326 8.14179 34.1888 7.8052 33.3454 7.46877C32.1776 7.00298 31.0107 6.5375 29.8389 6.0817C29.6131 5.99554 29.3104 5.96683 29.0941 6.0482C28.6321 6.22303 28.1785 6.41857 27.7249 6.61407C27.3341 6.78253 26.9433 6.95095 26.5474 7.10604C25.6734 7.45093 24.796 7.78413 23.9182 8.11747C23.3097 8.34855 22.701 8.57971 22.0931 8.81487C20.4738 9.43713 18.8592 10.0642 17.2447 10.7056C16.0002 11.1986 16.0002 11.2082 16.0002 12.3713V12.3713ZM37.2344 9.94327C36.6057 9.7035 35.9774 9.46204 35.3504 9.21694C35.2792 9.18915 35.208 9.16132 35.1368 9.13346L35.2165 9.29939L23.8477 14.7564C23.8571 14.7608 23.8664 14.7651 23.8758 14.7694C24.3508 14.9894 24.8244 15.2117 25.2979 15.434C25.5393 15.5473 25.7807 15.6606 26.0222 15.7736L37.2344 9.94327ZM27.168 16.3049C27.5683 16.4883 27.9698 16.6694 28.3734 16.8468L28.3926 16.8552C28.8183 17.0411 29.3879 17.2898 29.7476 17.1484C31.049 16.6374 32.3207 16.0497 33.593 15.4617C33.9415 15.3006 34.29 15.1396 34.6392 14.98C36.4027 14.1711 38.1662 13.3526 39.92 12.5245C40.2646 12.3609 40.6006 12.1715 40.967 11.9649C41.1473 11.8633 41.3349 11.7575 41.5346 11.6486H41.5394C41.3874 11.5792 41.2584 11.5183 41.1432 11.4638C40.956 11.3753 40.8051 11.3039 40.6504 11.2417C40.0201 11.0005 39.3885 10.761 38.7566 10.5215C38.6667 10.4874 38.5767 10.4533 38.4867 10.4192L27.168 16.3049ZM22.6728 14.2111L34.1006 8.72578C33.4641 8.47426 32.828 8.22112 32.1917 7.96796C32.1322 7.94429 32.0727 7.92062 32.0132 7.89695L20.7343 13.3109C21.3805 13.6114 22.0268 13.9114 22.6728 14.2111ZM19.5613 12.7647L30.7489 7.39461C30.372 7.24524 29.995 7.09629 29.6179 6.94808C29.5026 6.905 29.344 6.90022 29.2335 6.9433C28.9836 7.03903 28.7373 7.14314 28.4911 7.24725C28.2448 7.35136 27.9986 7.45547 27.7487 7.5512C26.8149 7.91319 25.8736 8.26777 24.9348 8.62146C24.8059 8.66999 24.6772 8.7185 24.5485 8.767C24.2552 8.87854 23.9613 8.98812 23.6675 9.09767C23.1669 9.28429 22.6665 9.47084 22.17 9.66689C21.6825 9.8588 21.1986 10.0613 20.715 10.2637C20.4025 10.3944 20.0901 10.5252 19.777 10.6529C19.315 10.8416 18.853 11.0251 18.3706 11.2168C18.0451 11.3461 17.7104 11.4791 17.36 11.6198C17.4394 11.6745 17.5085 11.7249 17.5715 11.7708C17.7069 11.8694 17.8138 11.9472 17.9319 12.0028C18.4747 12.2574 19.0179 12.5113 19.5613 12.7647ZM31.8272 17.185C32.0655 17.0758 32.3119 16.9628 32.5682 16.842V18.862C32.5682 19.7665 32.5678 20.6709 32.5675 21.5751C32.5659 25.1927 32.5644 28.8085 32.5874 32.4273C32.5923 33.0735 32.4817 33.5091 31.8138 33.758C31.3795 33.9198 30.968 34.1409 30.5194 34.382C30.3179 34.4903 30.1089 34.6026 29.887 34.7153C29.8774 34.5961 29.8678 34.4938 29.8593 34.4028C29.8422 34.2197 29.8293 34.0822 29.8293 33.9447C29.8293 33.0982 29.8292 32.2517 29.829 31.4052C29.8284 27.1731 29.8277 22.941 29.8437 18.7088C29.8437 18.4647 29.9831 18.1009 30.1705 17.9956C30.6914 17.7054 31.2343 17.4566 31.8272 17.185ZM33.9559 32.5835C33.7826 32.6658 33.6041 32.7506 33.4187 32.839H33.4139V31.3168C33.4139 30.5238 33.4141 29.7309 33.4142 28.9381C33.4149 24.9743 33.4155 21.0128 33.3995 17.0479C33.3947 16.5166 33.6013 16.282 34.0866 16.1288C34.4748 16.0063 34.8446 15.8256 35.2131 15.6455C35.3053 15.6005 35.3974 15.5554 35.4897 15.5114C36.0519 15.2433 36.1288 15.272 36.1288 15.8943C36.1317 17.0057 36.1294 18.1154 36.1271 19.2254C36.1255 19.9655 36.124 20.7058 36.124 21.4468C36.124 22.1969 36.1219 22.9473 36.1198 23.698C36.1135 25.9507 36.1072 28.2053 36.1576 30.46C36.1769 31.245 35.8789 31.6567 35.2495 31.963C34.8318 32.1676 34.4116 32.3671 33.9559 32.5835ZM28.9674 34.4135C28.9614 34.5102 28.9551 34.6115 28.95 34.7201C28.8206 34.6523 28.6934 34.5857 28.5682 34.5201C27.9681 34.2056 27.4115 33.9139 26.8549 33.6288C26.4369 33.4181 26.3072 33.1022 26.3072 32.6284C26.3216 29.0022 26.3198 25.3734 26.318 21.7459C26.3174 20.5371 26.3168 19.3284 26.3168 18.1201C26.3144 17.4428 26.312 17.1042 26.4609 17.0132C26.6098 16.9222 26.9102 17.079 27.5132 17.3925C27.5203 17.396 27.5267 17.4008 27.5329 17.4055C27.5437 17.4136 27.5539 17.4212 27.5661 17.4212C28.8683 17.6701 29.0365 18.5126 29.0172 19.7045C28.9679 23.1794 28.9754 26.6517 28.9829 30.1253C28.9857 31.3886 28.9884 32.6521 28.9884 33.916C28.9884 34.0766 28.9784 34.2373 28.9674 34.4135ZM22.1223 30.8667C22.1085 30.9205 22.0918 30.9855 22.0739 31.0679H22.0691C21.9112 30.9833 21.7551 30.9001 21.6006 30.8177C20.9508 30.4714 20.3288 30.1399 19.7194 29.7803C19.6185 29.7229 19.6136 29.4548 19.6136 29.2825V14.2812C19.6136 14.2075 19.6314 14.1358 19.6582 14.0281C19.6731 13.9679 19.6908 13.8966 19.7097 13.8073C19.8768 13.8821 20.0417 13.9555 20.2049 14.0281C20.8352 14.3086 21.439 14.5772 22.0306 14.87C22.1267 14.9178 22.1604 15.1524 22.1604 15.3008C22.1636 18.715 22.1625 22.1272 22.1614 25.5401C22.1609 27.2468 22.1604 28.9536 22.1604 30.661C22.1604 30.718 22.1453 30.7767 22.1223 30.8667ZM25.4308 32.54C25.4221 32.6272 25.4127 32.7211 25.4038 32.8246V32.8342C25.2565 32.7581 25.1145 32.6845 24.9765 32.6129C24.4977 32.3646 24.0671 32.1413 23.6307 31.9295C23.2848 31.762 23.1646 31.5179 23.1646 31.1301C23.179 26.1378 23.179 21.1408 23.179 16.1485V16.148C23.179 16.0355 23.1887 15.9249 23.2007 15.788C23.2076 15.7095 23.2153 15.6222 23.2223 15.5209C23.2941 15.5412 23.3628 15.56 23.4292 15.5781C23.6293 15.6327 23.8071 15.6812 23.9767 15.7459C24.116 15.8001 24.2513 15.8641 24.3867 15.9282C24.5503 16.0055 24.714 16.083 24.8849 16.1432C25.3558 16.3107 25.4759 16.6362 25.4759 17.1053C25.4567 21.0822 25.4567 25.0639 25.4567 29.0408V29.0432C25.4567 29.538 25.4591 30.034 25.4615 30.5306C25.4639 31.0284 25.4663 31.5268 25.4663 32.0252C25.4663 32.184 25.4502 32.3451 25.4308 32.54ZM37.5415 30.6541C37.3654 30.7511 37.1801 30.8533 36.9793 30.9578V29.6319C36.9777 28.113 36.9772 26.5935 36.9766 25.0738C36.9756 22.0345 36.9745 18.9944 36.9649 15.9565C36.961 14.7668 36.9666 14.7645 37.6538 14.4798C37.8126 14.414 38.0079 14.3331 38.2479 14.219C38.2667 14.2082 38.2886 14.205 38.311 14.2017C38.3285 14.1992 38.3463 14.1966 38.3632 14.1903C39.3146 13.8313 39.4203 13.9222 39.2906 14.9513C39.2521 15.2481 39.2281 15.5449 39.2281 15.8416L39.2281 15.8479C39.2233 19.6895 39.2185 23.5263 39.2281 27.3678C39.2281 27.6876 39.2476 28.0087 39.2671 28.3296C39.2838 28.6046 39.3006 28.8794 39.305 29.1533C39.3146 29.6319 39.1032 29.9431 38.6131 30.1249C38.2584 30.2591 37.9216 30.4446 37.5415 30.6541ZM18.7338 29.0171C18.7251 29.0883 18.7153 29.1689 18.7055 29.2634L18.7007 29.2681C18.5128 29.1687 18.3322 29.0769 18.1579 28.9883C17.7614 28.7869 17.3978 28.6021 17.0573 28.3826C16.9228 28.2917 16.8603 27.9949 16.8603 27.7939C16.8531 24.0895 16.854 20.3878 16.8549 16.6848C16.8552 15.4498 16.8555 14.2147 16.8555 12.9792C16.8555 12.8917 16.8753 12.802 16.9016 12.6833C16.9141 12.6268 16.928 12.5636 16.942 12.491C17.1067 12.5703 17.2682 12.6453 17.4264 12.7187C17.8224 12.9026 18.1981 13.077 18.5517 13.2856C18.6911 13.367 18.7583 13.6637 18.7583 13.86C18.7631 18.7971 18.7631 23.7294 18.7631 28.6665V28.6746C18.7631 28.7757 18.7506 28.8788 18.7338 29.0171ZM40.7949 28.9521C40.6122 29.0478 40.4194 29.1487 40.218 29.2634V27.7316C40.218 27.0885 40.2181 26.4454 40.2182 25.8024C40.2187 21.9471 40.2193 18.0944 40.1987 14.2381C40.1939 13.6111 40.2612 13.1228 40.9628 12.9266C41.1623 12.8721 41.3532 12.7832 41.5716 12.6816C41.6792 12.6315 41.7936 12.5783 41.919 12.5245C41.9276 12.6145 41.937 12.699 41.9461 12.7796C41.9673 12.9693 41.9862 13.1382 41.9862 13.3095V26.803C41.9862 26.8493 41.9868 26.8956 41.9873 26.9418C41.9884 27.0344 41.9894 27.1269 41.9862 27.2195C41.9803 27.3303 41.9877 27.4548 41.995 27.5791C42.0114 27.8577 42.0278 28.1357 41.8949 28.2582C41.5953 28.5331 41.2226 28.7283 40.7949 28.9521Z" fill="black"/>
</svg>
