<svg width="60" height="42" viewBox="0 0 60 42" fill="none" xmlns="http://www.w3.org/2000/svg">
<path d="M29.331 13.6503C29.331 12.8412 29.3435 12.284 29.3279 11.7299C29.309 11.1349 29.5536 10.8107 30.1337 10.5871C32.2219 9.77807 34.2851 8.89975 36.3701 8.07809C36.621 7.9805 36.9753 7.97105 37.223 8.06864C39.2673 8.87141 41.2803 9.76548 43.3466 10.5116C44.1744 10.8107 44.3813 11.3112 44.3781 12.0668C44.375 14.1477 44.3781 16.2254 44.3781 18.3063C44.3781 18.6526 44.3687 18.9989 44.3907 19.3452C44.4252 19.9087 44.5976 20.3022 45.2718 20.4124C45.8393 20.5037 46.4005 20.743 46.9179 21.0106C47.5418 21.3317 48.0153 21.7661 47.9996 22.6098C47.9557 24.9929 48.0028 27.3761 47.9714 29.7592C47.962 30.5494 47.7927 31.1349 46.7768 31.4403C45.1181 31.9408 43.5629 32.7877 41.9607 33.4803C41.4998 33.6786 41.0326 33.9903 40.5654 33.9997C40.0449 34.0091 39.4993 33.7888 39.0039 33.5747C37.0223 32.7216 35.072 31.8023 33.0842 30.9618C31.438 30.2629 29.748 29.6679 28.0956 28.9785C26.2269 28.1977 24.3801 27.3603 22.5207 26.5576C21.3606 26.057 20.1911 25.5816 19.031 25.0905C17.9304 24.6246 16.833 24.1461 15.7293 23.6896C14.9172 23.3528 14.0988 23.0222 13.2742 22.7263C12.3304 22.3863 12.0232 22.0463 12.0138 21.042C11.9918 18.788 12.0012 16.5371 12.0075 14.283C12.0106 12.6303 12.2458 12.284 13.8511 11.8653C15.6697 11.3899 17.3002 10.4644 19.031 9.78437C19.2693 9.68992 19.5953 9.62381 19.8148 9.70881C21.9846 10.5714 24.1418 11.4655 26.2959 12.3658C26.8069 12.5799 27.2835 12.8821 27.7915 13.1056C28.2148 13.2914 28.6663 13.4173 29.3341 13.6503H29.331ZM33.7677 26.4631H33.7646C33.7646 27.4611 33.752 28.4559 33.7708 29.4538C33.7834 30.0834 33.8931 30.5934 34.677 30.8044C35.4358 31.0058 36.1224 31.4686 36.8624 31.7645C37.5742 32.0479 38.3016 32.3029 39.0416 32.5012C39.7909 32.7058 40.117 32.476 40.1264 31.711C40.1547 29.7623 40.1296 27.8105 40.1421 25.8618C40.1421 25.4809 40.0606 25.2322 39.6655 25.059C37.9975 24.3255 36.3545 23.5322 34.6833 22.8081C34.1126 22.5594 33.799 22.805 33.7771 23.4724C33.7426 24.4672 33.7677 25.4652 33.7677 26.46V26.4631ZM30.1776 11.9975C30.0866 12.284 29.9926 12.4445 29.9926 12.6082C29.98 14.771 29.9612 16.9337 29.9957 19.0965C29.9988 19.3735 30.2309 19.7576 30.4723 19.8961C30.974 20.1858 31.554 20.3274 32.0933 20.5604C33.2158 21.042 34.3227 21.5615 35.4515 22.0306C36.0033 22.2572 36.298 22.0841 36.3043 21.4765C36.3325 19.3578 36.3262 17.236 36.3012 15.1173C36.2949 14.686 36.1318 14.3365 35.6208 14.1477C33.8241 13.4803 32.0557 12.7467 30.1776 11.9975ZM12.7976 13.6975C12.7976 15.8225 12.7976 17.8058 12.7976 19.7922C12.7976 20.9717 13.3651 21.7819 14.5002 22.2226C14.6601 22.2856 14.7981 22.3989 14.9548 22.465C15.9645 22.8868 16.9647 23.3307 17.99 23.7148C18.5512 23.9257 18.9087 23.6644 18.9149 23.0568C18.9337 21.0672 18.9557 19.0745 18.893 17.088C18.8805 16.6788 18.5951 16.1688 18.269 15.9106C17.8551 15.5801 17.2782 15.4478 16.7671 15.2464C15.5223 14.7584 14.2713 14.2767 12.7976 13.7069V13.6975ZM26.6909 19.6726C26.6 19.9119 26.5185 20.0283 26.5185 20.1448C26.5091 22.3107 26.5185 24.4735 26.4996 26.6394C26.4934 27.3257 26.8947 27.6216 27.456 27.8388C28.312 28.1694 29.1523 28.544 30.0145 28.8651C30.8392 29.1705 31.6826 29.4286 32.4916 29.7025C32.5982 29.5357 32.6828 29.4633 32.6828 29.3909C32.7016 27.14 32.7173 24.8922 32.7267 22.6413C32.7299 22.0652 32.3348 21.8322 31.877 21.637C30.9803 21.2561 30.1023 20.828 29.1962 20.4817C28.3841 20.17 27.5375 19.9434 26.694 19.6726H26.6909ZM19.8211 16.6378C19.774 17.025 19.7019 17.3556 19.7019 17.6924C19.6894 19.6002 19.6894 21.508 19.7019 23.4126C19.7082 24.4672 19.865 24.6309 20.8495 25.0118C22.0316 25.4683 23.2011 25.9563 24.3675 26.4568C25.1796 26.8063 25.49 26.6551 25.4994 25.7579C25.5245 23.7652 25.4994 21.7693 25.512 19.7765C25.5183 19.1154 25.2329 18.8006 24.6027 18.5676C23.0193 17.9884 21.4735 17.3084 19.8242 16.6347L19.8211 16.6378ZM36.7683 13.5967C37.2042 13.4551 37.6588 13.3292 38.0947 13.1592C39.236 12.7121 40.371 12.2556 41.4998 11.7834C41.7067 11.6953 41.876 11.5158 42.0642 11.3773C41.9011 11.1632 41.7851 10.8579 41.5688 10.7508C40.7284 10.3321 39.8631 9.96381 38.9977 9.59863C38.4584 9.37196 37.9191 9.09178 37.3516 8.99419C36.69 8.87771 36.0723 8.9753 35.4076 9.35937C34.3885 9.95122 33.2064 10.2597 32.109 10.7257C31.9209 10.8075 31.7014 11.0751 31.6983 11.264C31.692 11.4308 31.9334 11.6701 32.1216 11.7645C32.8333 12.1203 33.5545 12.4634 34.2976 12.753C35.094 13.0647 35.9155 13.3103 36.7715 13.5999L36.7683 13.5967ZM14.1459 13.156C14.682 13.4173 15.1618 13.6817 15.6634 13.8927C16.7075 14.3334 17.7454 14.7962 18.8209 15.1425C19.2379 15.2747 19.7897 15.2243 20.2099 15.0669C21.5456 14.5569 22.8531 13.9682 24.1606 13.3858C24.3581 13.2977 24.6184 13.0742 24.6278 12.9042C24.634 12.7405 24.3832 12.4886 24.1919 12.4036C22.8844 11.8401 21.5738 11.2829 20.2412 10.7886C19.6769 10.5808 19.0968 10.6312 18.5042 10.9397C17.7642 11.3238 16.9114 11.4844 16.1777 11.8747C15.4879 12.243 14.4563 12.1423 14.1521 13.156H14.1459ZM20.7837 16.0302C22.4016 16.7291 23.8502 17.4186 25.3521 17.9695C25.8287 18.1426 26.4432 17.9947 26.9825 17.9065C27.387 17.8404 27.7633 17.62 28.1615 17.5067C28.7196 17.3462 29.2526 17.1037 29.2996 16.4741C29.3561 15.6965 29.5818 14.7836 28.6537 14.3177C28.0486 14.0154 27.3964 13.7888 26.7442 13.6093C26.4307 13.5243 26.0387 13.5495 25.7315 13.666C24.3581 14.176 22.9942 14.7143 21.6491 15.2904C21.3355 15.4258 21.1035 15.7501 20.7868 16.0302H20.7837ZM37.9975 22.9781C39.2203 24.0453 40.4682 24.3539 41.8854 23.6865C42.2617 23.5102 42.6662 23.3937 43.0487 23.2268C44.0176 22.805 44.9833 22.3737 46.0431 21.9046C44.6196 20.7587 43.356 20.6265 41.8729 21.445C40.6971 22.0935 39.3645 22.4524 37.9975 22.9781ZM27.6535 19.0084C28.243 19.2004 28.7102 19.3547 29.2495 19.5309V18.1898C28.4875 17.9947 28.036 18.2811 27.6535 19.0084Z" fill="black"/>
</svg>
