<svg width="60" height="42" viewBox="0 0 60 42" fill="none" xmlns="http://www.w3.org/2000/svg">
<path d="M7.38082 31H54C53.3433 28.7888 51.6472 28.9948 50.8812 29.3742C51.5378 28.4637 50.8265 28.0193 50.3887 27.9109C50.6514 23.7488 47.7623 24.4425 46.2849 25.3096C46.8102 24.3991 46.1755 23.9547 45.7925 23.8463C46.843 18.7737 43.2755 18.9146 41.3604 19.6191C40.8351 18.4485 39.7188 18.8062 39.2264 19.1313C38.5698 15.7496 35.7792 16.2048 34.466 16.8552C28.8191 8.1406 23.3583 13.1157 21.3338 16.6925C13.1919 15.7821 14.1111 21.6243 15.5885 24.6592C14.4066 23.4886 13.345 24.3882 12.962 24.9844C6.52723 24.4641 6.56006 28.778 7.38082 31Z" fill="black" stroke="black" stroke-width="1.5"/>
</svg>
