<svg width="465" height="352" viewBox="0 0 465 352" fill="none" xmlns="http://www.w3.org/2000/svg">
<path d="M84.4806 296.612C82.7711 297.522 81.4008 298.392 79.922 298.99C78.3753 299.615 76.7337 300.091 75.092 300.404C73.2333 300.757 71.3203 301.083 69.4345 301.042C65.7985 300.974 62.1624 300.689 58.5264 300.431C57.6988 300.377 56.8576 300.145 56.0707 299.86C55.0532 299.493 54.3884 299.439 55.2974 297.767C58.1058 292.603 61.8775 288.24 65.7985 284C67.1959 282.491 69.2717 281.594 71.0354 280.439C71.6731 280.018 72.3379 279.637 73.2469 279.08C71.8087 278.441 70.5334 278.061 69.4616 277.367C66.1919 275.234 63.0579 272.882 60.5615 269.825C58.9606 267.854 57.3325 265.897 55.7316 263.926C55.0261 263.056 54.2799 262.214 53.7236 261.249C53.4523 260.787 53.3437 259.985 53.5608 259.536C53.7236 259.183 54.5105 259.088 55.0396 258.979C55.7858 258.816 56.5999 258.857 57.3189 258.626C62.5423 256.968 67.9149 256.696 73.2876 257.185C76.5708 257.484 79.9084 258.177 82.5269 260.583C83.0967 261.099 83.8429 261.425 84.6841 261.956C84.5755 260.977 84.4534 260.134 84.3856 259.278C84.0464 254.916 85.1047 250.77 86.9769 246.938C88.9035 242.969 91.3049 239.218 93.4892 235.372C94.0726 234.339 94.8188 234.217 95.3886 235.209C97.6544 239.069 99.8658 242.969 102.037 246.883C104.641 251.572 104.696 256.669 104.37 261.82C104.37 261.969 104.452 262.132 104.56 262.554C105.266 261.969 105.835 261.425 106.473 260.991C110.055 258.544 114.03 257.226 118.372 256.968C119.864 256.886 121.343 256.383 122.808 256.424C125.996 256.519 129.185 256.818 132.373 257.09C133.703 257.199 134.137 258.109 133.499 259.36C131.165 263.981 128.303 268.248 124.965 272.203C122.523 275.111 119.47 277.123 116.065 278.699C115.726 278.849 115.455 279.229 115.292 279.569C115.238 279.664 115.658 280.167 115.902 280.208C119.457 280.765 121.383 283.592 123.636 285.862C127.814 290.075 130.962 295.035 133.418 300.431C134.055 301.844 133.567 302.782 132.034 302.768C126.458 302.728 120.868 303.231 115.346 301.885C111.927 301.042 108.834 299.615 105.89 297.781C105.605 297.604 105.238 297.563 104.913 297.468C104.818 297.862 104.574 298.311 104.669 298.65C105.523 301.545 104.411 304.168 103.773 306.914C102.729 311.426 100.246 315.218 98.1292 319.186C97.4644 320.423 96.6639 321.592 95.7956 322.692C94.5882 324.201 93.2314 324.228 92.3224 322.543C90.2873 318.765 88.4422 314.891 86.5835 311.018C84.4263 306.52 83.7751 301.763 84.467 296.585L84.4806 296.612ZM94.344 236.962C94.0048 237.642 93.8284 238.131 93.5571 238.552C90.8572 242.82 88.4015 247.21 87.1669 252.17C85.6745 258.204 85.9458 263.749 91.3185 268.003C92.9872 269.322 94.7374 269.852 96.0941 269.077C100.3 266.699 102.756 263.097 102.674 258.232C102.634 255.541 102.037 252.795 101.263 250.2C99.9065 245.619 97.5187 241.501 94.344 236.949V236.962ZM131.41 259.4C129.687 259.169 128.289 258.87 126.878 258.802C121.506 258.544 116.282 259.061 111.154 260.977C106.677 262.635 104.045 265.611 103.041 270.178C102.593 272.203 102.484 274.364 104.465 275.465C106.283 276.47 108.427 277.177 110.489 277.395C114.993 277.87 118.521 275.573 121.723 272.665C125.766 268.982 128.561 264.402 131.41 259.387V259.4ZM93.8827 320.613C94.3168 320.246 94.7103 320.056 94.8866 319.743C96.2841 317.392 97.6408 315.027 98.9975 312.663C99.5402 311.698 100.219 310.773 100.544 309.741C101.209 307.661 101.548 305.473 102.254 303.407C103.176 300.716 102.688 298.066 101.82 295.647C100.788 292.766 98.2242 290.917 95.8092 289.151C95.3344 288.797 94.2761 288.784 93.7334 289.069C89.514 291.325 86.9769 294.764 86.6513 299.683C86.3393 304.59 88.1301 308.966 90.0296 313.288C91.1149 315.734 92.5124 318.044 93.8827 320.613ZM57.7531 297.985C60.86 298.27 63.4785 298.691 66.0834 298.718C68.4576 298.746 70.8319 298.433 73.1926 298.12C75.0378 297.876 76.91 297.59 78.6873 297.02C81.9435 295.987 84.1685 293.649 85.7559 290.7C88.103 286.297 86.5156 282.206 82.0792 281.186C77.1814 280.058 72.7856 281.377 68.9732 284.394C66.8974 286.038 65.1608 288.158 63.4649 290.224C61.5248 292.603 59.8017 295.158 57.7395 297.985H57.7531ZM130.663 300.54C129.863 298.909 129.28 297.672 128.656 296.462C126.58 292.453 123.473 289.273 120.515 285.916C117.273 282.219 109.363 280.113 104.682 283.211C103.515 283.986 103.013 284.72 102.946 285.93C102.661 291.393 106.419 296.055 110.774 298.052C114.152 299.602 117.788 300.39 121.519 300.526C124.477 300.635 127.448 300.553 130.663 300.553V300.54ZM57.2375 261.371C58.35 263.029 59.2726 264.714 60.5072 266.128C62.081 267.935 63.899 269.553 65.6628 271.184C66.3276 271.809 67.3316 272.121 67.8471 272.828C69.6651 275.342 72.5007 275.981 75.1463 276.416C78.5381 276.973 81.9842 276.647 84.9011 274.201C86.3393 272.991 86.8684 271.931 86.1358 270.205C85.9594 269.811 85.8916 269.362 85.8101 268.928C85.2946 266.223 83.7886 264.008 81.5093 262.73C78.6602 261.126 75.5397 259.876 72.2158 259.577C67.223 259.129 62.3252 259.808 57.2375 261.385V261.371ZM94.9002 286.582C99.7709 286.99 102.674 282.491 102.484 279.175C102.267 275.41 99.9337 271.714 95.1444 271.632C90.5858 271.551 87.4111 275.111 87.4111 279.284C87.4111 283.239 90.8165 286.582 94.9002 286.595V286.582ZM100.49 271.238C100.816 269.933 101.06 268.982 101.304 268.031C101.168 268.003 101.033 267.99 100.911 267.963C100.219 268.574 99.5266 269.186 98.7533 269.865C99.296 270.287 99.7166 270.613 100.503 271.238H100.49ZM85.0097 280.181V276.987C84.06 277.503 83.3409 277.897 82.3505 278.441C83.3273 279.08 83.9921 279.515 85.0097 280.181ZM107.151 279.474C107.07 279.189 106.989 278.903 106.907 278.618C106.12 278.794 105.333 278.958 104.56 279.202C104.506 279.216 104.655 279.882 104.709 280.235L107.151 279.474ZM88.1437 269.186C88.9035 269.729 88.2658 271.469 89.921 270.871C90.1924 270.776 90.5451 270.015 90.4502 269.879C89.9617 269.213 89.4597 268.275 88.1437 269.199V269.186ZM89.0527 289.069C89.2155 289.164 89.3783 289.259 89.5411 289.341C89.8668 288.892 90.1788 288.43 90.5044 287.982C90.0974 287.71 89.704 287.438 89.0527 286.99V289.069ZM100.137 289.518C100.3 289.49 100.463 289.463 100.626 289.436C100.544 288.77 100.476 288.104 100.381 287.438C100.381 287.397 100.178 287.384 99.9608 287.329C99.6894 287.656 99.391 288.023 99.0789 288.403C99.4724 288.824 99.798 289.178 100.124 289.531L100.137 289.518Z" fill="black"/>
<path d="M180.779 278.766C180.697 253.379 201.333 233.074 226.419 233.237C251.708 233.4 271.774 253.433 271.815 278.766C271.842 304.235 251.763 324.214 226.487 324.445C201.279 324.662 180.575 303.963 180.779 278.78V278.766ZM227.084 270.367C229.241 271.332 230.937 272.161 232.687 272.827C233.311 273.058 234.22 273.153 234.749 272.854C237.517 271.346 240.203 269.66 242.93 268.084C249.239 264.442 255.534 260.786 261.897 257.225C263.173 256.518 263.146 255.825 262.44 254.847C261.138 253.066 260.052 251.055 258.451 249.614C255.005 246.529 251.559 243.322 247.625 240.97C242.089 237.654 235.862 235.928 229.377 235.466C227.097 235.303 227.097 235.33 227.097 237.559C227.097 248.01 227.097 258.475 227.097 268.927V270.367H227.084ZM182.502 278.889C182.665 278.916 182.827 278.943 183.004 278.97C182.855 285.956 184.442 292.506 187.671 298.69C188.227 299.75 188.594 299.642 189.448 299.139C191.551 297.888 193.722 296.774 195.838 295.551C202.676 291.569 209.514 287.573 216.325 283.523C216.773 283.251 217.098 282.558 217.207 282.001C217.519 280.424 217.614 278.821 217.912 277.244C218.116 276.184 218.021 275.423 216.922 274.92C215.769 274.39 214.697 273.711 213.598 273.072C205.566 268.397 197.507 263.749 189.503 259.005C188.322 258.299 187.657 258.734 187.25 259.617C186.328 261.588 185.31 263.585 184.849 265.678C183.886 270.041 183.275 274.485 182.515 278.889H182.502ZM189.313 256.07C192.325 257.877 195.174 259.63 198.064 261.302C204.427 264.999 210.803 268.709 217.234 272.311C218.306 272.909 219.418 274.132 221.006 272.977C222.118 272.161 223.475 271.699 224.655 270.965C224.913 270.802 224.94 270.163 224.94 269.728C224.954 258.774 224.94 247.807 224.967 236.852C224.967 235.738 224.601 235.249 223.502 235.439C220.802 235.915 218.102 236.404 215.389 236.893C210.396 237.804 205.973 240.114 201.849 242.914C196.815 246.325 192.596 250.606 189.313 256.083V256.07ZM235.645 274.866C235.957 277.761 236.147 280.139 236.486 282.504C236.567 283.075 237.002 283.768 237.476 284.067C239.077 285.032 240.827 285.765 242.442 286.717C246.512 289.122 250.514 291.623 254.571 294.015C257.692 295.85 260.866 297.603 264.163 299.465C264.489 299.016 264.842 298.609 265.086 298.147C267.826 293.091 269.075 287.573 269.617 281.919C270.228 275.45 268.98 269.171 266.687 263.123C266.117 261.601 265.466 259.957 264.367 258.856C264 258.489 262.101 259.671 260.907 260.161C260.758 260.228 260.595 260.296 260.459 260.378C256.131 262.906 251.803 265.447 247.475 267.975C243.392 270.354 239.322 272.732 235.631 274.879L235.645 274.866ZM227.084 306.274C227.084 311.017 227.125 315.774 227.057 320.517C227.03 321.89 227.477 322.202 228.807 322.202C233.311 322.202 237.653 321.101 241.736 319.498C250.08 316.222 256.959 310.895 262.074 303.42C263.159 301.83 263.064 301.422 261.368 300.498C259.035 299.22 256.701 297.943 254.408 296.611C248.425 293.145 242.442 289.666 236.5 286.146C235.631 285.63 235.075 285.752 234.505 286.499C233.257 288.144 231.656 289.177 229.648 289.775C227.057 290.549 227.097 290.672 227.097 293.553C227.097 297.793 227.097 302.034 227.097 306.274H227.084ZM224.615 322.474C224.805 321.822 224.913 321.604 224.913 321.4C224.913 311.343 224.954 301.286 224.886 291.229C224.886 290.699 224.221 289.911 223.692 289.72C221.738 289.014 220.097 287.94 218.998 286.173C218.442 285.276 217.831 285.222 217.031 285.643C216.596 285.874 216.203 286.2 215.769 286.445C207.357 291.31 198.973 296.23 190.507 301.001C189.353 301.653 189.53 302.061 190.072 302.876C193.315 307.755 197.426 311.792 202.256 315.067C206.38 317.853 210.885 319.878 215.714 321.02C218.631 321.713 221.643 322.012 224.601 322.474H224.615ZM226.88 273.221C223 272.691 219.133 277.081 219.378 280.818C219.676 285.358 222.62 288.117 227.708 288.062C230.666 288.035 234.546 284.801 234.288 280.329C234.057 276.238 231.032 273.18 226.88 273.221Z" fill="black"/>
<path d="M404.87 193.609C405.074 195.43 404.626 195.893 402.971 195.036C399.999 193.501 397.082 191.829 394.206 190.103C390.095 187.643 386.052 185.074 381.982 182.56C380.001 181.337 378.048 180.1 376.012 178.999C375.538 178.741 374.642 178.85 374.154 179.149C373.177 179.747 372.349 180.576 371.359 181.391C371.712 181.731 372.064 182.071 372.431 182.397C374.995 184.639 376.379 187.548 377.125 190.81C377.817 193.854 377.423 196.817 376.284 199.698C375.307 202.144 374.425 204.659 373.218 206.983C371.956 209.402 370.518 211.78 368.835 213.914C366.99 216.251 363.639 215.286 362.54 212.473C361.563 209.945 360.193 207.567 359.175 205.053C358.334 203.014 357.48 200.907 357.127 198.76C356.706 196.151 356.489 193.419 356.801 190.823C357.018 188.988 358.117 187.194 359.121 185.564C360.071 184.028 361.387 182.723 362.499 181.378C361.455 180.372 360.478 179.312 359.352 178.442C358.958 178.143 358.036 178.048 357.642 178.306C353.721 180.875 349.909 183.566 345.988 186.134C343.315 187.888 340.521 189.464 337.807 191.163C335.284 192.739 332.801 194.398 330.277 195.988C329.802 196.287 329.233 196.436 328.608 196.694C328.215 195.322 328.296 194.656 329.531 193.922C333.167 191.761 336.627 189.328 340.168 187.018C345.296 183.674 350.438 180.358 355.567 177.029C357.792 175.588 358.158 174.664 357.127 172.367C356.95 171.973 355.919 171.783 355.309 171.823C353.857 171.932 352.433 172.367 350.981 172.421C346.667 172.584 343.044 170.872 340.181 167.787C337.59 164.987 335.134 162.038 332.882 158.953C331.607 157.2 330.874 155.052 329.87 153.095C329.585 152.552 329.151 152.049 328.988 151.478C328.744 150.663 328.568 149.793 328.649 148.977C328.676 148.773 329.789 148.529 330.399 148.542C334.293 148.583 338.228 148.366 342.067 148.869C345.676 149.344 349.299 150.336 352.704 151.627C356.394 153.027 358.782 156.194 360.709 159.51C361.428 160.747 361.251 162.5 361.482 164.009C364.548 163.655 364.942 163.261 364.942 160.693C364.942 150.119 364.942 139.545 364.955 128.958C364.955 128.183 365.104 127.395 365.349 126.661C365.444 126.362 366 125.982 366.298 126.023C366.583 126.063 366.95 126.553 367.031 126.906C367.167 127.436 367.099 128.034 367.099 128.591C367.099 139.341 367.126 150.078 367.072 160.828C367.072 162.351 367.574 162.894 369.025 163.152C370.409 163.397 371.725 164.022 373.394 164.593C373.503 163.846 373.638 162.976 373.76 162.092C373.652 162.092 373.543 162.079 373.435 162.065C373.692 161.304 373.91 160.516 374.208 159.768C375.809 155.759 378.617 152.905 382.376 150.826C386.419 148.583 390.706 147.333 395.292 146.816C397.706 146.545 400.067 145.865 402.482 145.552C403.201 145.457 404.124 145.851 404.734 146.3C404.979 146.477 404.707 147.469 404.531 148.053C403.907 150.092 403.283 152.13 402.523 154.128C401.926 155.678 401.193 157.2 400.406 158.668C399.118 161.059 397.842 163.479 396.336 165.735C395.699 166.686 394.423 167.189 393.582 168.032C390.814 170.818 387.463 172.381 383.569 172.326C381.643 172.299 379.703 171.606 377.803 171.103C377.057 170.899 376.623 170.818 376.569 171.783C376.501 173.019 376.392 174.256 376.297 175.493C376.162 177.232 377.776 177.382 378.739 177.953C382.918 180.44 387.219 182.723 391.384 185.224C394.966 187.371 398.412 189.736 401.926 191.978C402.849 192.563 403.839 193.038 404.87 193.609ZM400.936 150.554C400.827 150.445 400.718 150.35 400.61 150.241C397.666 152.171 394.722 154.101 391.764 156.017C388.101 158.396 384.411 160.733 380.761 163.139C379.269 164.131 377.858 165.245 376.23 166.441C377.03 167.42 377.451 168.453 378.183 168.752C381.263 170.043 384.573 170.627 387.667 169.146C391.438 167.338 394.301 164.24 396.404 160.72C398.29 157.567 399.457 153.965 400.936 150.567V150.554ZM366.99 179.556C371.725 180.576 374.507 175.833 374.696 172.449C374.886 168.833 370.87 164.688 367.397 164.824C362.472 165.028 359.677 168.521 359.474 172.584C359.27 176.798 362.527 179.611 366.99 179.556ZM367.302 182.533V212.025C368.89 209.538 370.504 207.513 371.562 205.229C372.743 202.674 373.435 199.902 374.303 197.197C375.836 192.468 374.669 188.214 371.522 184.612C370.586 183.539 369.256 182.125 367.302 182.533ZM357.303 168.657C357.398 168.358 357.48 168.059 357.575 167.76C349.366 162.745 341.172 157.73 332.964 152.715C332.964 153.802 333.194 154.482 333.506 155.147C335.27 158.98 337.875 162.255 340.805 165.218C343.56 167.991 346.816 170.165 350.913 170.043C353.057 169.975 355.187 169.146 357.317 168.67L357.303 168.657ZM335.406 151.288C339.53 153.938 343.641 156.629 347.793 159.238C350.696 161.059 353.654 162.785 356.625 164.498C357.303 164.892 358.131 165.014 358.877 165.259C358.796 164.498 358.728 163.737 358.646 162.976C358.633 162.813 358.646 162.622 358.579 162.473C357.33 159.157 356.191 155.759 352.378 154.4C350.628 153.775 348.905 153.068 347.182 152.348C343.424 150.744 339.489 150.798 335.392 151.301L335.406 151.288ZM364.155 210.516C364.345 210.489 364.521 210.462 364.711 210.421V183.212C361.794 184.558 360.274 186.76 359.596 189.383C358.579 193.31 358.701 197.333 360.112 201.166C361.278 204.346 362.784 207.404 364.155 210.516ZM376.514 163.302C383.705 158.613 390.543 154.169 397.381 149.711C397.327 149.535 397.272 149.358 397.218 149.168C396.716 149.14 396.173 149.004 395.699 149.113C393.623 149.602 391.574 150.296 389.485 150.69C385.984 151.342 383.122 153.055 380.49 155.365C378.224 157.363 377.03 159.85 376.528 163.288L376.514 163.302Z" fill="black"/>
<path d="M90.9402 181.378C87.2907 179.625 86.0967 177.478 84.9028 170.696C84.3737 170.914 83.9124 171.158 83.424 171.321C81.1718 172.082 79.0825 173.129 76.464 172.721C73.9812 172.327 71.5255 172.15 69.3276 170.832C68.3643 170.248 67.4146 169.622 66.5192 168.929C62.9374 166.143 59.7898 162.936 57.2121 159.171C56.2217 157.717 55.0277 156.399 54.0238 154.958C53.6846 154.469 53.3861 153.735 53.5218 153.232C53.6167 152.879 54.4443 152.62 54.987 152.512C57.5919 151.968 60.224 151.479 62.8425 150.976C63.2224 150.908 63.6158 150.799 64.0093 150.799C67.2247 150.799 70.4537 150.609 73.642 150.867C77.9971 151.207 81.9587 152.688 84.8485 156.195C85.9746 157.568 87.0871 159.022 87.874 160.612C88.471 161.821 88.5388 163.289 88.7966 164.444C90.9131 163.955 92.7718 163.221 94.6441 163.153C96.4893 163.085 98.3615 163.697 100.505 164.064C100.871 163.167 101.387 162.025 101.835 160.856C103.273 157.119 105.796 154.618 109.487 152.879C112.363 151.52 115.226 150.813 118.333 150.663C121.019 150.541 123.705 150.229 126.391 150.229C128.399 150.229 130.407 150.568 132.415 150.799C133.664 150.935 134.152 151.778 133.569 152.892C131.072 157.663 128.128 162.12 124.587 166.184C122.24 168.889 119.364 170.832 116.148 172.191C112.648 173.659 109.025 173.754 105.24 171.688C104.942 172.504 104.507 173.224 104.453 173.958C104.195 177.532 101.957 179.598 98.9449 181.542C99.5283 182.303 100.112 183.213 100.844 183.988C102.852 186.122 104.521 188.364 104.548 191.504C104.562 192.944 105.227 194.439 105.009 195.812C104.684 198.014 103.992 200.188 103.246 202.308C101.686 206.671 99.6911 210.83 96.7335 214.458C96.3536 214.92 96.2315 215.573 95.9194 216.103C94.929 217.788 93.4638 217.924 92.4462 216.293C91.198 214.295 90.0448 212.216 89.0273 210.096C87.657 207.255 86.1239 204.415 85.2556 201.411C83.8446 196.559 83.4647 191.531 86.0153 186.883C86.8972 185.279 88.0911 183.757 89.7463 182.71C90.2076 182.411 90.5197 181.881 90.9538 181.419L90.9402 181.378ZM123.692 152.512C118.943 152.172 114.249 152.96 109.989 154.836C106.271 156.48 103.463 159.511 103.042 163.955C102.92 165.178 102.879 166.605 103.395 167.652C104.562 170.057 107.085 170.506 109.419 170.846C114.466 171.58 118.482 169.323 121.982 166.007C125.591 162.582 128.277 158.437 130.706 154.115C131.398 152.892 130.801 152.566 129.783 152.525C127.762 152.471 125.727 152.512 123.705 152.512H123.692ZM93.7758 213.833C93.9793 213.996 94.1828 214.146 94.3863 214.309C94.617 213.86 94.8205 213.412 95.0783 212.977C96.3264 210.925 97.6425 208.913 98.8364 206.848C99.5283 205.652 100.193 204.388 100.6 203.083C101.265 200.922 101.631 198.679 102.269 196.505C103.612 191.952 101.319 186.883 97.9002 184.26C97.5611 184.001 96.9234 183.988 96.747 183.675C95.7431 181.881 94.427 182.262 93.0432 183.037C89.0408 185.279 86.9243 188.704 86.653 193.298C86.3409 198.326 88.2539 202.811 90.1669 207.255C91.1438 209.552 92.5683 211.659 93.7894 213.847L93.7758 213.833ZM57.2528 154.795C57.6733 155.583 57.8904 156.29 58.3381 156.793C60.7938 159.579 63.2631 162.351 65.8001 165.056C66.3835 165.681 67.3739 165.926 67.9709 166.537C69.9517 168.535 72.4617 169.582 75.0666 170.071C78.7297 170.764 82.1622 169.84 85.1742 167.448C86.5309 166.374 86.7073 165.246 86.151 163.765C85.9746 163.303 85.8932 162.8 85.7847 162.311C85.2284 159.769 83.8174 157.608 81.6602 156.399C79.3945 155.135 76.7896 154.36 74.2525 153.694C69.504 152.457 64.7554 152.987 60.034 154.075C59.125 154.279 58.2296 154.537 57.2392 154.781L57.2528 154.795ZM95.024 180.182C99.5147 180.196 102.649 176.758 102.513 172.653C102.391 169.052 99.9896 165.233 95.0511 165.192C90.479 165.151 87.4399 168.929 87.3856 172.585C87.3314 176.69 91.1302 180.468 95.024 180.182Z" fill="black"/>
<path d="M235.751 178.266C233.825 179.639 232.102 180.875 230.365 182.085C230.094 182.275 229.741 182.452 229.442 182.438C227.326 182.357 227.027 183.539 227.041 185.347C227.109 194.738 227.082 204.116 227.068 213.507C227.068 213.901 227.19 214.349 227.041 214.689C226.729 215.369 226.281 215.994 225.874 216.633C225.562 215.994 224.965 215.355 224.965 214.716C224.911 205.502 224.924 196.287 224.924 187.059C224.924 186.556 224.843 186.026 224.938 185.537C225.318 183.512 224.477 182.452 222.604 181.623C221.329 181.066 220.325 179.843 219.294 178.823C218.466 178.008 217.829 177.573 216.581 178.307C210.421 181.963 204.194 185.496 197.993 189.071C194.737 190.946 191.468 192.822 188.198 194.711C186.706 193.692 186.638 193.365 188.266 192.373C191.603 190.321 195.022 188.391 198.401 186.434C200.748 185.075 203.122 183.757 205.469 182.398C208.929 180.386 212.348 178.32 215.834 176.35C216.825 175.793 217.232 175.167 217.259 173.999C217.286 172.572 217.652 171.158 217.883 169.745C218.032 168.807 218.209 168.046 217.028 167.38C210.014 163.452 203.054 159.416 196.108 155.393C193.204 153.708 190.369 151.9 187.465 150.215C186.611 149.712 186.299 149.155 186.76 148.312C187.302 147.306 187.899 147.904 188.551 148.285C191.237 149.875 193.964 151.411 196.677 152.974C199.839 154.795 202.986 156.643 206.161 158.464C209.539 160.408 212.931 162.311 216.309 164.254C217.218 164.77 218.046 165.423 218.996 165.858C219.389 166.034 220.04 165.898 220.474 165.708C221.682 165.178 222.903 164.621 223.988 163.887C224.477 163.547 224.884 162.759 224.897 162.147C224.992 159.497 224.938 156.833 224.938 154.17C224.938 145.458 224.938 136.76 224.938 128.048C224.938 127.124 224.735 126.064 226.458 125.67C226.661 126.594 227.055 127.518 227.055 128.429C227.095 139.342 227.122 150.256 227.041 161.169C227.041 162.718 227.529 163.33 228.94 163.751C230.297 164.159 231.518 164.974 232.848 165.464C233.39 165.667 234.204 165.708 234.679 165.436C241.585 161.509 248.464 157.513 255.342 153.517C258.069 151.927 260.742 150.242 263.51 148.733C264.039 148.448 265.246 148.516 265.572 148.896C266.318 149.78 265.26 150.283 264.663 150.622C259.005 153.925 253.321 157.173 247.636 160.435C243.783 162.637 239.916 164.811 236.104 167.081C235.738 167.298 235.439 168.236 235.602 168.671C236.321 170.669 236.701 172.667 236.524 174.8C236.484 175.303 237.04 176.051 237.528 176.363C241.572 178.85 245.628 181.31 249.739 183.689C253.579 185.918 257.486 188.051 261.366 190.226C262.736 191.001 264.134 191.748 265.423 192.645C265.708 192.835 265.816 193.787 265.586 194.086C265.341 194.425 264.487 194.724 264.161 194.548C261.556 193.148 259.019 191.626 256.468 190.144C250.363 186.611 244.271 183.091 238.166 179.557C237.271 179.041 236.348 178.551 235.778 178.239L235.751 178.266ZM234.259 172.966C234.232 168.875 230.948 165.572 227.041 165.559C223.12 165.559 219.213 168.657 219.389 173.278C219.538 177.22 222.238 180.631 227.421 180.549C231.288 180.481 234.394 177.179 234.272 172.966H234.259Z" fill="black"/>
<path d="M411.927 65.6851C411.954 91.358 391.386 111.35 366.327 111.282C341.011 111.214 320.918 91.127 320.863 65.7803C320.809 40.4335 340.984 20.1834 366.314 20.1018C391.467 20.0203 411.954 40.352 411.94 65.6987L411.927 65.6851ZM370.94 58.4549C373.681 60.0993 375.634 62.0564 376.34 65.0056C376.557 65.9298 376.381 67.2073 376.937 67.7101C377.371 68.1043 378.66 67.4383 379.569 67.3976C382.947 67.2481 386.203 66.8539 389.5 68.743C393.665 71.135 396.637 74.5735 399.336 78.2837C400.992 80.5534 402.009 83.2715 403.352 85.7722C403.515 86.0712 403.827 86.4789 404.085 86.4925C404.37 86.4925 404.777 86.1664 404.926 85.881C407.07 81.6271 408.725 77.1557 409.322 72.4397C410.638 61.9613 409.091 52.0129 403.393 42.9071C400.178 37.7969 396.189 33.4751 391.182 30.0366C387.831 27.7262 384.29 25.9594 380.464 24.5867C375.675 22.8607 370.791 22.1676 365.73 22.4122C365.459 22.4258 365.188 22.6433 364.903 22.7792C365.622 23.5946 366.287 24.3013 366.897 25.0488C370.018 28.8135 372.799 32.8091 374.915 37.2261C375.716 38.9114 376.272 40.7733 376.584 42.6217C376.937 44.7554 377.29 47.0251 376.923 49.1044C376.625 50.7489 376.15 52.5837 374.78 53.9563C373.436 55.3154 372.283 56.8647 370.94 58.4549ZM363.858 58.4141C363.451 57.9656 363.234 57.5715 362.908 57.354C358.282 54.3776 355.962 49.9471 355.786 44.6467C355.691 41.779 356.681 38.8706 357.142 35.9758C357.78 31.9665 359.571 28.3786 361.185 24.7091C361.47 24.0703 361.565 23.35 361.796 22.4802C360.778 22.5345 360.141 22.453 359.557 22.6161C356.45 23.5131 353.33 24.3693 350.277 25.4294C343.928 27.6583 338.596 31.5724 334.2 36.5194C330.13 41.0859 326.874 46.264 325.205 52.339C324.12 56.2939 322.898 60.2081 323.061 64.3532C323.17 67.2209 323.143 70.1429 323.74 72.9154C324.554 76.7072 325.87 80.3903 327.077 84.087C327.349 84.9024 328.068 85.5684 328.556 86.2615C329.641 84.4811 330.51 82.959 331.473 81.5047C333.006 79.1943 334.404 76.7344 336.235 74.6822C338.406 72.2359 340.943 70.2516 343.873 68.5392C348.283 65.9569 352.475 66.6365 357.102 67.9684C357.834 63.864 359.069 60.0178 363.885 58.4141H363.858ZM372.256 75.5656C368.295 78.1478 364.658 77.5906 361.552 75.4161C360.561 77.4955 359.611 79.4661 358.675 81.4504C356.681 85.7179 352.896 87.7701 348.69 88.8166C345.067 89.7135 341.255 89.9174 337.524 90.2844C336.099 90.4203 334.634 90.162 333.196 90.1485C332.626 90.1485 332.07 90.3115 331.5 90.4067C331.704 90.9911 331.771 91.6706 332.111 92.1599C335.163 96.5633 339.247 99.8522 343.697 102.706C349.327 106.321 355.596 108.319 362.189 108.958C369.719 109.692 376.991 108.482 384.005 105.37C389.242 103.06 393.652 99.7027 397.763 95.8701C399.092 94.6334 400.083 93.0161 401.412 91.3308C395.51 91.1949 390.111 90.8008 384.833 89.0612C378.877 87.0905 374.603 83.6793 373.165 77.3052C373.043 76.7344 372.636 76.2315 372.27 75.5384L372.256 75.5656ZM402.606 88.6806C400.3 84.8481 398.292 80.9339 395.741 77.4139C392.96 73.5678 389.568 70.3332 384.521 69.3818C381.36 68.7838 378.673 69.5585 376.204 71.3796C375.594 71.8281 374.942 72.7387 374.956 73.4183C375.024 75.2938 375.078 77.3188 375.784 78.9905C377.805 83.7744 381.875 86.2207 386.719 87.4711C388.686 87.9739 390.708 88.504 392.716 88.6263C395.89 88.8166 399.092 88.6806 402.593 88.6806H402.606ZM330.89 87.308C331.663 87.4303 332.219 87.5934 332.762 87.5934C338.623 87.6478 344.511 87.9739 350.155 85.7994C352.787 84.7801 355.039 83.3395 356.369 80.7844C357.156 79.2759 357.902 77.7265 358.445 76.1364C359.191 73.9483 358.526 71.9233 356.993 70.9447C353.235 68.5528 349.545 68.4033 345.393 70.3467C340.088 72.8474 336.995 77.346 333.834 81.8309C332.694 83.4482 331.921 85.3373 330.89 87.308ZM363.682 25.375C363.139 26.4487 362.678 27.1826 362.393 27.998C361.796 29.7105 361.484 31.5452 360.724 33.1897C358.865 37.2669 358.228 41.5072 358.702 45.897C358.865 47.4328 359.476 48.9549 360.059 50.4091C361.294 53.4807 363.98 55.0708 366.789 56.3483C367.48 56.6609 368.742 56.4027 369.407 55.9406C370.587 55.0979 371.727 54.0379 372.487 52.8147C373.382 51.3877 374.508 49.6345 374.373 48.1259C374.088 45.0272 374.413 41.7518 372.555 38.8842C371.361 37.0359 370.682 34.8613 369.461 33.0402C367.725 30.4579 365.717 28.0524 363.654 25.3614L363.682 25.375ZM367.019 75.0356C371.713 75.2666 374.345 70.7273 374.644 67.4383C374.997 63.6193 370.927 59.7052 367.019 59.8683C362.8 60.045 359.516 62.9942 359.476 67.2752C359.435 70.8088 362.596 75.2938 367.019 75.0491V75.0356Z" fill="black"/>
<path d="M104.41 66.4174C106.486 66.1456 108.344 65.9145 110.189 65.6563C114.735 65.0311 118.208 67.2872 121.382 70.0461C125.276 73.4302 127.881 77.8472 130.364 82.305C131.327 84.0174 131.978 85.9065 132.752 87.7277C133.132 88.6111 132.453 89.6711 131.327 89.6304C127.868 89.5081 124.394 89.3178 120.948 89.046C119.117 88.8965 117.285 88.5975 115.481 88.2577C109.43 87.1025 104.396 84.4387 101.737 78.486C101.154 77.1677 100.774 75.7678 100.19 74.1097C96.4866 75.9173 92.7149 76.1891 89.3095 73.8515C88.0884 76.2979 86.9895 78.6355 85.7956 80.9187C84.5202 83.3514 82.2681 84.7241 79.9209 85.8657C75.7829 87.8772 71.2515 87.9451 66.7743 88.5159C63.3418 88.9508 60.1263 88.1218 56.8024 88.1218C56.1104 88.1218 55.4185 87.0889 54.7266 86.5181C54.9301 86.4909 55.1336 86.4637 55.3371 86.4365C55.9883 85.1454 56.5717 83.8271 57.2908 82.5904C58.2676 80.8915 59.1902 79.1383 60.3841 77.6026C62.3921 75.0339 64.3457 72.3294 66.7743 70.2092C71.1294 66.4174 76.0136 63.7264 82.1595 65.765C82.9736 66.0369 83.8555 66.0912 84.7509 66.2543C85.0358 65.1806 85.3614 63.9303 85.7142 62.6935C86.3925 60.2336 88.0342 58.5755 90.1914 57.3388C90.5712 57.1213 90.8697 56.7136 91.1953 56.401C90.8562 56.1156 90.5577 55.7623 90.1778 55.5448C88.102 54.3352 86.7317 52.5277 85.7277 50.3939C85.3071 49.4969 84.7645 48.6543 84.3846 47.7437C83.0278 44.5091 83.3806 41.2202 84.1132 37.904C84.4524 36.3547 84.5881 34.751 85.0222 33.2152C85.6463 30.9728 86.379 28.7575 87.2066 26.583C87.9256 24.7346 88.8346 22.9678 89.7029 21.201C89.9064 20.7797 90.3406 20.4671 90.5984 20.1953C93.3254 20.8069 94.2887 23.1445 95.7132 24.9385C97.4498 27.1266 98.9965 29.4506 100.597 31.7474C104.111 36.8032 105.265 42.4433 104.261 48.464C103.813 51.1414 102.198 53.3295 100.068 55.0012C98.698 56.0748 98.5759 56.7 99.9598 57.665C102.958 59.7715 104.613 62.5984 104.383 66.4038L104.41 66.4174ZM130.323 87.252C128.302 83.6776 126.633 80.212 124.476 77.0997C122.848 74.7621 120.691 72.7779 118.574 70.8208C115.155 67.6542 111.085 66.7708 106.648 68.2521C105.061 68.7822 103.067 69.4617 102.904 71.4052C102.633 74.4087 102.958 77.3851 104.98 79.9674C108.656 84.6562 113.893 85.9065 119.32 86.7899C120.433 86.9666 121.545 87.184 122.671 87.2112C125.018 87.2792 127.379 87.2248 130.323 87.2248V87.252ZM58.5797 85.8793C65.5261 85.8114 72.2283 86.6948 78.6049 83.8271C81.6169 82.468 83.9504 80.5925 85.0629 77.3987C85.4157 76.3794 85.7006 75.3329 86.1212 74.3408C86.9624 72.3294 86.3111 70.0733 84.466 69.0268C80.2601 66.6213 76.1493 66.961 71.957 69.2443C67.4526 71.7042 64.7663 75.8494 61.8494 79.7635C60.5605 81.5031 59.76 83.6097 58.5797 85.8657V85.8793ZM91.7787 24.0415C91.1818 24.6803 90.7476 24.9521 90.6119 25.3326C89.5266 28.1595 88.3462 30.9728 87.4643 33.8676C86.3247 37.6186 86.284 41.5056 86.6367 45.4061C86.9895 49.3203 91.1953 54.1993 95.0213 54.9332C95.6725 55.0555 96.4866 54.6342 97.1649 54.3488C97.5448 54.1857 97.789 53.7101 98.1418 53.4518C100.543 51.7394 101.927 49.3746 102.022 46.4934C102.09 44.4819 101.683 42.4298 101.344 40.4319C100.706 36.6401 98.8066 33.4191 96.5544 30.402C95.9167 29.5321 95.062 28.8254 94.4243 27.9556C93.5289 26.7596 92.742 25.4821 91.7787 24.0415ZM102.144 65.6427C102.293 61.0083 98.3724 58.195 94.7093 58.2358C90.8833 58.2765 86.9081 61.416 87.3422 66.064C87.7628 70.5897 90.6391 73.4302 94.9399 73.4302C99.1186 73.4302 102.022 69.8694 102.144 65.6291V65.6427Z" fill="black"/>
<path d="M180.778 65.6701C180.602 40.5137 201.333 19.9101 226.405 20.0732C251.708 20.2363 271.869 40.337 271.815 65.7381C271.76 91.112 251.803 111.104 226.392 111.281C201.251 111.457 180.643 90.9353 180.792 65.6566L180.778 65.6701ZM226.215 22.3701C202.649 21.7721 182.922 42.0902 182.868 65.4663C182.814 89.617 202.649 109.31 226.432 109.133C250.243 108.957 269.915 89.7393 269.685 65.0314C269.468 42.0494 250.365 21.8944 226.202 22.3701H226.215Z" fill="black"/>
<path d="M217.22 67.3559C217.125 62.5719 221.263 57.8016 227.002 57.8559C232.538 57.9103 236.689 62.8709 236.54 67.5189C236.35 73.3494 232.076 77.1548 226.867 77.2227C221.901 77.2907 217.085 73.0368 217.234 67.3559H217.22ZM234.261 67.4782C234.736 62.9525 230.381 59.8402 226.867 59.8538C223.054 59.8674 219.459 63.1563 219.364 67.3287C219.255 72.1398 223.583 75.089 226.867 75.0618C231.005 75.0346 234.247 71.7728 234.261 67.4918V67.4782Z" fill="black"/>
<path d="M441.15 218.016H293.121V329.453H441.15V218.016Z" fill="white"/>
<path fill-rule="evenodd" clip-rule="evenodd" d="M437.638 221.325H296.391V326.112H437.638V221.325ZM441.029 218V329.438H293V218H441.029Z" fill="#0070F3"/>
<path d="M357.954 285.857C357.988 274.129 360.97 270.494 366.476 266.96C370.81 264.195 374.104 261.497 374.104 257.272C374.104 253.047 370.843 250.416 366.755 250.416C362.667 250.416 358.959 253.326 358.848 258.131H342.898C343.111 243.593 353.855 237.127 366.889 237.127C381.174 237.127 391.539 243.905 391.539 256.47C391.539 264.742 387.138 269.758 380.482 273.66C375.244 276.771 372.719 279.714 372.719 285.835V287.25H357.954V285.835V285.857ZM356.603 300.974C356.536 296.058 360.623 292.078 365.616 292.078C370.608 292.078 374.562 296.058 374.629 300.974C374.562 305.958 370.363 309.971 365.616 309.971C360.623 309.971 356.536 305.958 356.603 300.974Z" fill="#0070F3"/>
</svg>
