<svg width="60" height="42" viewBox="0 0 60 42" fill="none" xmlns="http://www.w3.org/2000/svg">
<path fill-rule="evenodd" clip-rule="evenodd" d="M16.0001 12.6073V20.5396L16.01 20.5446C16.01 21.3001 16.0112 22.0555 16.0123 22.8109C16.0152 24.825 16.0182 26.8384 16.0001 28.8492C15.9951 29.4648 16.2193 29.8321 16.7575 30.1101C18.8504 31.1972 20.9283 32.2992 23.0063 33.4111C23.712 33.7909 24.4162 34.1738 25.1205 34.5569C26.5794 35.3503 28.0389 36.144 29.5142 36.9106C29.7733 37.0447 30.2318 36.9851 30.5158 36.8461C30.9781 36.6228 31.4247 36.365 31.8715 36.107C32.2192 35.9063 32.5671 35.7054 32.9226 35.5207C33.5927 35.172 34.2674 34.8325 34.942 34.493C35.8325 34.0449 36.7228 33.597 37.6017 33.1281C39.4502 32.1454 41.2788 31.1279 43.1074 30.1104L43.108 30.1101L43.1294 30.0983C43.5798 29.8497 44 29.6178 44 28.9386C43.9751 23.384 43.9801 17.8244 43.995 12.2698C44 11.7188 43.7907 11.3713 43.2924 11.1777C42.3883 10.8231 41.4842 10.4709 40.5804 10.1189C40.1636 9.95657 39.7469 9.79427 39.3304 9.63177L39.2629 9.50654L39.1564 9.5639C38.3088 9.2331 37.4616 8.90133 36.6151 8.56669C35.7374 8.22112 34.8623 7.87206 33.9876 7.52317C32.7767 7.04013 31.5665 6.55741 30.3513 6.08473C30.1171 5.99538 29.8032 5.9656 29.579 6.04998C29.0999 6.23129 28.6294 6.43408 28.159 6.63681C27.7537 6.81151 27.3485 6.98617 26.9379 7.14701C26.0315 7.50467 25.1216 7.8502 24.2113 8.19589C23.5803 8.43553 22.949 8.67525 22.3186 8.91912C20.6393 9.56443 18.965 10.2147 17.2907 10.8799C16.0001 11.3912 16.0001 11.4011 16.0001 12.6073V12.6073ZM38.1143 10.125C37.4771 9.88216 36.8402 9.6377 36.2045 9.38978L36.2095 9.40076L24.0209 15.0263C24.0697 15.0489 24.1185 15.0716 24.1673 15.0942C24.66 15.3223 25.1511 15.5528 25.6421 15.7834C25.9921 15.9477 26.342 16.1119 26.6924 16.2753L38.1143 10.125ZM27.8285 16.7993C28.1617 16.9511 28.4959 17.1011 28.8315 17.2486L28.8514 17.2573C29.2929 17.4501 29.8836 17.708 30.2567 17.5613C31.6062 17.0314 32.925 16.4219 34.2445 15.8121C34.6059 15.6451 34.9673 15.4781 35.3294 15.3126C37.1582 14.4737 38.987 13.6249 40.8058 12.7662C41.1632 12.5965 41.5116 12.4 41.8916 12.1858C42.0785 12.0804 42.2731 11.9707 42.4802 11.8578H42.4851C42.3275 11.7859 42.1938 11.7226 42.0743 11.6661C41.8802 11.5744 41.7236 11.5003 41.5633 11.4358C40.9096 11.1857 40.2547 10.9374 39.5994 10.689C39.5166 10.6576 39.4338 10.6262 39.3511 10.5949L27.8285 16.7993ZM22.8311 14.4741L34.9304 8.88974C34.2171 8.60819 33.5042 8.32453 32.7913 8.04084C32.7223 8.0134 32.6533 7.98596 32.5844 7.95852L20.6562 13.4638C21.3812 13.8011 22.1063 14.1377 22.8311 14.4741ZM19.4687 12.9106L31.302 7.44902C30.9088 7.2932 30.5156 7.13781 30.1221 6.9832C30.0025 6.93852 29.8381 6.93356 29.7235 6.97823C29.4644 7.07751 29.209 7.18548 28.9536 7.29344C28.6982 7.40141 28.4428 7.50937 28.1837 7.60865C27.2153 7.98404 26.2392 8.35175 25.2656 8.71854C25.132 8.76886 24.9985 8.81917 24.865 8.86949C24.5609 8.98515 24.2561 9.09879 23.9513 9.21239C23.4322 9.40593 22.9133 9.59939 22.3984 9.8027C21.8928 10.0017 21.391 10.2117 20.8895 10.4216C20.5654 10.5572 20.2415 10.6928 19.9168 10.8253C19.4377 11.0209 18.9586 11.2112 18.4582 11.41C18.1208 11.5441 17.7736 11.682 17.4103 11.828C17.4926 11.8847 17.5643 11.9369 17.6296 11.9845C17.77 12.0868 17.8808 12.1675 18.0033 12.2251C18.4915 12.4541 18.98 12.6825 19.4687 12.9106ZM32.4132 17.5992C32.6604 17.486 32.916 17.3689 33.1817 17.2436V19.2338L30.3512 20.7014C30.3527 20.1941 30.3544 19.6868 30.3563 19.1795C30.3563 18.9264 30.5008 18.5491 30.6952 18.4399C31.2354 18.139 31.7985 17.881 32.4132 17.5992ZM30.3483 21.8294C30.3464 22.6175 30.345 23.4056 30.3439 24.1937L33.1807 22.6662C33.1808 22.4948 33.1809 22.3234 33.1809 22.152C33.1812 21.5548 33.1814 20.9576 33.1816 20.3603L30.3483 21.8294ZM34.0518 19.9091C34.0537 20.671 34.0552 21.4329 34.0563 22.1948L36.8705 20.6794C36.8711 20.3579 36.8717 20.0365 36.8724 19.7151C36.8733 19.2918 36.8742 18.8686 36.8748 18.4453L34.0518 19.9091ZM37.7458 17.9937C37.7474 18.731 37.7487 19.4685 37.7497 20.206L40.085 18.9485C40.0858 18.2256 40.0867 17.5026 40.0876 16.7794L37.7458 17.9937ZM40.1142 15.6392L37.7429 16.8687C37.7424 16.6876 37.7418 16.5064 37.7413 16.3253C37.7372 15.0915 37.743 15.0891 38.4556 14.7939C38.6204 14.7256 38.8229 14.6417 39.0717 14.5234C39.0913 14.5122 39.114 14.5089 39.1372 14.5055C39.1553 14.5028 39.1738 14.5001 39.1913 14.4936C40.178 14.1213 40.2876 14.2156 40.1531 15.2829C40.1377 15.4016 40.1245 15.5204 40.1142 15.6392ZM41.1027 16.253C41.1055 16.9677 41.1077 17.6824 41.1094 18.3969L42.7629 17.5065L42.9486 17.8513V15.2959L41.1027 16.253ZM42.9486 14.1695L41.0978 15.1291C41.0969 14.9338 41.0959 14.7385 41.0949 14.5432C41.0899 13.893 41.1596 13.3866 41.8872 13.1831C42.0941 13.1266 42.2921 13.0345 42.5185 12.9291C42.6302 12.8771 42.7488 12.8219 42.8788 12.7662C42.8877 12.8595 42.8975 12.9471 42.9069 13.0307C42.9289 13.2275 42.9486 13.4026 42.9486 13.5802V14.1695ZM42.9486 18.5423L41.1117 19.5314C41.1132 20.3973 41.1141 21.2631 41.1146 22.1289L42.9486 21.1707V18.5423ZM42.9486 22.299L41.115 23.257C41.1153 24.3498 41.1152 25.4428 41.115 26.5359C41.115 26.5906 41.115 26.6452 41.115 26.6998L42.9486 25.6811V22.299ZM42.9486 26.8251L41.1148 27.8439C41.1148 28.0747 41.1148 28.3056 41.1148 28.5365V30.125C41.3237 30.0061 41.5236 29.9014 41.7131 29.8022C42.1566 29.57 42.5432 29.3677 42.8539 29.0825C42.9917 28.9556 42.9747 28.6673 42.9576 28.3784C42.95 28.2494 42.9424 28.1203 42.9486 28.0054C42.9519 27.9094 42.9508 27.8134 42.9497 27.7175C42.9491 27.6695 42.9486 27.6215 42.9486 27.5735V26.8251ZM40.0863 27.2713C40.084 26.1127 40.0829 24.9545 40.0826 23.7964L37.7532 25.0134C37.7533 25.2688 37.7533 25.5243 37.7534 25.7797C37.7538 26.7088 37.7541 27.6378 37.7546 28.5667L40.0863 27.2713ZM37.7555 29.7102L40.0919 28.4122C40.0986 28.66 40.1137 28.9083 40.1288 29.1567C40.1461 29.4418 40.1634 29.7268 40.168 30.0108C40.178 30.5072 39.9587 30.8298 39.4504 31.0185C39.0826 31.1576 38.7334 31.35 38.3392 31.5672C38.1566 31.6678 37.9644 31.7738 37.7562 31.8822V30.5072C37.7559 30.2415 37.7557 29.9759 37.7555 29.7102ZM36.8695 29.0584C36.8593 27.865 36.8594 26.6718 36.8619 25.479L34.0593 26.9433C34.0594 27.8912 34.0592 28.8392 34.059 29.7873C34.059 30.0648 34.0589 30.3423 34.0589 30.6199L36.8695 29.0584ZM34.0588 31.7639L36.8825 30.1951C36.8883 30.5854 36.8954 30.9757 36.9041 31.3659C36.924 32.18 36.6151 32.6069 35.9623 32.9246C35.5291 33.1368 35.0932 33.3438 34.6207 33.5682C34.441 33.6535 34.256 33.7414 34.0637 33.833H34.0588V32.2545C34.0588 32.0909 34.0588 31.9274 34.0588 31.7639ZM33.19 31.1026C33.1852 29.8689 33.1826 28.6354 33.1813 27.402L30.3409 28.886C30.3407 30.0394 30.3409 31.1927 30.3411 32.3461C30.3411 32.4591 30.3411 32.5722 30.3412 32.6853L33.19 31.1026ZM30.3413 33.8291L33.195 32.2437C33.197 32.6312 33.1992 33.0186 33.2017 33.4061C33.2067 34.0762 33.092 34.528 32.3994 34.7861C31.949 34.9539 31.5222 35.1832 31.057 35.4332C30.8481 35.5455 30.6313 35.6619 30.4012 35.7789C30.3912 35.6552 30.3813 35.5491 30.3725 35.4547C30.3547 35.2648 30.3414 35.1222 30.3414 34.9797C30.3414 34.5962 30.3414 34.2126 30.3413 33.8291ZM30.3411 27.7577L33.1804 26.2742C33.18 25.4502 33.1801 24.6262 33.1803 23.8022L30.3426 25.3302C30.3418 26.1393 30.3414 26.9485 30.3411 27.7577ZM34.0576 23.3298C34.0585 24.1582 34.0589 24.9867 34.0591 25.8151L36.8649 24.3492C36.867 23.5722 36.8692 22.7954 36.8692 22.0189C36.8692 21.9512 36.8692 21.8835 36.8693 21.8158L34.0576 23.3298ZM37.751 21.3411C37.7518 22.1891 37.7523 23.0373 37.7527 23.8854L40.0826 22.6681C40.0827 21.807 40.0832 20.946 40.0839 20.0848L37.751 21.3411ZM36.8756 17.3184L34.0486 18.7843C34.0472 18.3419 34.0456 17.8995 34.0438 17.4571C34.0388 16.9061 34.2531 16.6628 34.7564 16.504C35.159 16.3769 35.5424 16.1895 35.9245 16.0028C36.0202 15.956 36.1157 15.9093 36.2114 15.8636C36.7945 15.5857 36.8742 15.6154 36.8742 16.2608C36.8751 16.6135 36.8755 16.966 36.8756 17.3184ZM29.4476 35.4658C29.4413 35.5661 29.4348 35.6712 29.4295 35.7838C29.2953 35.7135 29.1634 35.6445 29.0336 35.5764C28.4112 35.2502 27.834 34.9477 27.2569 34.652C26.8233 34.4336 26.6888 34.106 26.6888 33.6146C26.7037 29.8541 26.7019 26.0909 26.7 22.329C26.6994 21.0754 26.6988 19.8221 26.6988 18.569C26.6963 17.8666 26.6938 17.5154 26.8482 17.4211C27.0027 17.3267 27.3141 17.4893 27.9395 17.8145C27.9468 17.8181 27.9535 17.8231 27.96 17.8279C27.9711 17.8363 27.9817 17.8442 27.9944 17.8442C29.3448 18.1024 29.5192 18.976 29.4992 20.212C29.4481 23.8156 29.4559 27.4166 29.4637 31.0188C29.4665 32.3289 29.4693 33.6392 29.4693 34.9499C29.4693 35.1165 29.459 35.2832 29.4476 35.4658ZM22.3489 31.7877C22.3346 31.8435 22.3173 31.9109 22.2987 31.9964H22.2937C22.13 31.9086 21.9681 31.8223 21.8078 31.7369C21.134 31.3778 20.489 31.034 19.857 30.6611C19.7523 30.6015 19.7474 30.3235 19.7474 30.1448V14.5879C19.7474 14.5115 19.7658 14.4371 19.7935 14.3255C19.809 14.2631 19.8274 14.189 19.847 14.0965C20.0202 14.1741 20.1913 14.2502 20.3605 14.3255C21.0142 14.6163 21.6403 14.8949 22.2538 15.1985C22.3535 15.2481 22.3884 15.4913 22.3884 15.6452C22.3917 19.186 22.3906 22.7245 22.3895 26.2638C22.3889 28.0337 22.3884 29.8038 22.3884 31.5744C22.3884 31.6334 22.3728 31.6944 22.3489 31.7877ZM25.7799 33.523C25.7709 33.6133 25.7612 33.7108 25.752 33.8181V33.828C25.5992 33.7492 25.4519 33.6728 25.3088 33.5986C24.8123 33.3411 24.3658 33.1095 23.9132 32.8899C23.5544 32.7161 23.4299 32.463 23.4299 32.0609C23.4448 26.8837 23.4448 21.7015 23.4448 16.5243V16.5238C23.4448 16.4072 23.4549 16.2925 23.4673 16.1506C23.4744 16.0691 23.4824 15.9786 23.4896 15.8736C23.5641 15.8946 23.6354 15.914 23.7042 15.9328C23.9118 15.9895 24.0961 16.0398 24.272 16.1069C24.4164 16.1631 24.5568 16.2295 24.6972 16.2959C24.8668 16.3761 25.0366 16.4564 25.2138 16.5189C25.7021 16.6926 25.8267 17.0302 25.8267 17.5166C25.8068 21.641 25.8068 25.7704 25.8068 29.8948V29.8966C25.8068 30.4098 25.8093 30.9241 25.8118 31.4392C25.8142 31.9554 25.8167 32.4723 25.8167 32.9891C25.8167 33.1538 25.8001 33.3208 25.7799 33.523ZM18.8349 29.8696C18.8259 29.9435 18.8157 30.027 18.8056 30.125L18.8006 30.1299C18.6058 30.0268 18.4185 29.9316 18.2377 29.8398C17.8265 29.6308 17.4494 29.4392 17.0964 29.2116C16.9568 29.1173 16.892 28.8095 16.892 28.601C16.8846 24.7595 16.8855 20.9207 16.8864 17.0805C16.8868 15.7998 16.8871 14.5189 16.8871 13.2377C16.8871 13.147 16.9076 13.0539 16.9348 12.9309C16.9478 12.8722 16.9623 12.8067 16.9768 12.7314C17.1475 12.8136 17.315 12.8914 17.4791 12.9676C17.8898 13.1582 18.2794 13.3391 18.6461 13.5554C18.7906 13.6398 18.8604 13.9476 18.8604 14.1511C18.8654 19.2709 18.8654 24.3858 18.8654 29.5056V29.5144C18.8654 29.6192 18.8523 29.7262 18.8349 29.8696Z" fill="black"/>
</svg>
