<svg width="60" height="42" viewBox="0 0 60 42" fill="none" xmlns="http://www.w3.org/2000/svg">
<path d="M29.9237 35.9407C26.9583 35.9407 23.9929 36.0098 21.0275 35.916C18.8097 35.8469 17.0903 34.6674 15.7397 33.0092C14.4539 31.4299 13.9854 29.5743 14.0003 27.5558C14.0302 22.9561 13.9904 18.3565 14.0203 13.7569C14.0302 12.1381 14.6034 10.6822 15.5354 9.33493C16.3527 8.15047 17.4392 7.28188 18.7101 6.70446C19.5473 6.32445 20.5292 6.08262 21.4512 6.07275C27.1726 6.01353 32.904 5.9395 38.6254 6.08262C41.7304 6.15665 43.9482 7.95307 45.2838 10.6773C45.7174 11.5607 45.9267 12.6317 45.9417 13.6187C46.0065 18.544 46.0314 23.4743 45.9417 28.4046C45.8919 31.3806 44.3967 33.6063 41.7902 35.0918C40.5592 35.7926 39.2235 36.0048 37.833 35.9999C35.1966 35.995 32.5651 35.9999 29.9287 35.9999C29.9287 35.9851 29.9287 35.9654 29.9287 35.9506L29.9237 35.9407ZM30.0134 6.8229C27.4617 6.8229 24.9099 6.84758 22.3632 6.81303C21.0126 6.79329 19.7417 7.02525 18.5705 7.68656C16.3278 8.94998 14.9273 10.8451 14.8775 13.4114C14.7828 18.4404 14.8576 23.4694 14.8426 28.5033C14.8426 29.7273 15.2613 30.8031 15.8842 31.8149C17.3495 34.1887 19.5673 35.2596 22.3084 35.2744C27.367 35.304 32.4305 35.2843 37.4891 35.2794C38.9893 35.2794 40.4196 34.9981 41.7154 34.1986C43.7189 32.9648 45.0247 31.1831 45.0745 28.8636C45.1891 23.6125 45.1293 18.3516 45.0944 13.0956C45.0845 11.7779 44.4764 10.623 43.689 9.60636C42.144 7.61747 40.0707 6.74887 37.539 6.8081C35.0321 6.86732 32.5202 6.8229 30.0134 6.8229Z" fill="black"/>
<path d="M24.9955 30.0136C25 31.6775 23.6528 32.9723 21.9915 32.9996C20.403 33.027 19.0467 31.632 19.0012 30.0455C18.9557 28.4727 20.2301 26.9819 21.9687 27.0002C23.7893 27.0138 24.9454 28.2447 25 30.0136H24.9955Z" fill="black"/>
<path d="M24.9955 21.0136C25 22.6775 23.6528 23.9723 21.9915 23.9996C20.403 24.027 19.0467 22.632 19.0012 21.0455C18.9557 19.4727 20.2301 17.9819 21.9687 18.0002C23.7893 18.0138 24.9454 19.2447 25 21.0136H24.9955Z" fill="black"/>
<path d="M32.9955 21.0136C33 22.6775 31.6528 23.9723 29.9915 23.9996C28.403 24.027 27.0467 22.632 27.0012 21.0455C26.9557 19.4727 28.2301 17.9819 29.9687 18.0002C31.7893 18.0138 32.9454 19.2447 33 21.0136H32.9955Z" fill="black"/>
<path d="M32.9955 12.0136C33 13.6775 31.6528 14.9723 29.9915 14.9996C28.403 15.027 27.0467 13.632 27.0012 12.0455C26.9557 10.4727 28.2301 8.98193 29.9687 9.00017C31.7893 9.01384 32.9454 10.2447 33 12.0136H32.9955Z" fill="black"/>
<path d="M40.9955 30.0136C41 31.6775 39.6528 32.9723 37.9915 32.9996C36.403 33.027 35.0467 31.632 35.0012 30.0455C34.9557 28.4727 36.2301 26.9819 37.9687 27.0002C39.7893 27.0138 40.9454 28.2447 41 30.0136H40.9955Z" fill="black"/>
</svg>
