<svg width="60" height="44" viewBox="0 0 60 44" fill="none" xmlns="http://www.w3.org/2000/svg">
<g clip-path="url(#clip0_8_146)">
<path d="M42.0189 0C40.8418 0.21763 39.6674 0.452375 38.4961 0.704206L20.479 5.3243L19.0738 5.598C12.7736 6.82504 6.39924 7.59649 0 7.90889V7.0205C6.34231 6.70882 12.66 5.94319 18.9041 4.72704L20.2839 4.45832L37.6701 0H38.3245L38.3944 0.272285L38.3358 0H42.0189Z" fill="black"/>
<path d="M63 19.6511L57.5584 18.4572L32.5184 13.7692L29.5356 13.3439C25.7018 12.7974 21.8341 12.5231 17.9615 12.5231C11.916 12.5231 5.89232 13.1916 0 14.5142V15.4239C5.89042 14.0864 11.9149 13.4104 17.9615 13.4104C21.7922 13.4104 25.6181 13.6817 29.4104 14.2224L32.374 14.6449L57.3816 19.3268L63 20.5595V19.6511Z" fill="black"/>
<path d="M63 32.398C53.7247 31.9309 44.4237 32.7571 35.3657 34.8575L35.4659 35.2897L35.3244 34.8692L18.9238 40.3857C12.705 41.9989 6.37876 43.1364 0 43.7912V44.6831C6.45922 44.0247 12.8652 42.8748 19.1619 41.2406L19.0504 40.8112L19.1918 41.2317L35.587 35.717C44.5726 33.6355 53.7993 32.8189 63 33.2865V32.398Z" fill="black"/>
</g>
<defs>
<clipPath id="clip0_8_146">
<rect width="60" height="44" fill="white"/>
</clipPath>
</defs>
</svg>
