<svg width="60" height="42" viewBox="0 0 60 42" fill="none" xmlns="http://www.w3.org/2000/svg">
<path d="M44.9907 20.6174C44.9907 23.1841 44.9837 25.7486 44.9976 28.3153C44.9976 28.6923 44.9139 28.9204 44.5508 29.1251C42.2401 30.4306 39.9479 31.771 37.6534 33.1021C35.4218 34.396 33.1971 35.7038 30.9491 36.972C30.7304 37.0954 30.3208 37.0954 30.0997 36.972C28.038 35.8248 25.9971 34.6403 23.9539 33.4628C21.4989 32.048 19.0462 30.6261 16.5864 29.2182C16.1885 28.9902 15.9977 28.7342 16 28.2316C16.0233 23.1004 16.0186 17.9668 16.0047 12.8356C16.0047 12.4168 16.1327 12.1678 16.4887 11.9653C19.486 10.2433 22.4739 8.50728 25.4665 6.77827C27.0583 5.85907 28.6523 4.94453 30.2557 4.04628C30.386 3.97182 30.6373 3.99276 30.7746 4.06955C34.4537 6.16392 38.1258 8.27225 41.7956 10.3806C42.6962 10.8995 43.5805 11.4487 44.4927 11.9467C44.8603 12.1468 45.0023 12.3749 45 12.7984C44.9814 15.4047 44.9907 18.011 44.9907 20.6174ZM16.8657 12.6727C16.8029 12.9497 16.754 13.0637 16.754 13.18C16.7493 15.4815 16.7354 17.7853 16.7703 20.0868C16.7749 20.3451 17.0123 20.6872 17.2403 20.8384C17.8035 21.2131 18.4318 21.4877 19.0206 21.8251C20.105 22.4464 21.1708 23.1004 22.2645 23.7077C22.8765 24.0498 22.9393 23.9986 22.9417 23.34C22.944 21.1386 22.937 18.9396 22.9487 16.7381C22.9487 16.3006 22.7834 16.04 22.3995 15.8283C21.208 15.172 20.0398 14.4762 18.86 13.799C18.2247 13.4337 17.5871 13.0777 16.868 12.6704L16.8657 12.6727ZM29.6529 27.9151C29.6995 27.7126 29.739 27.6149 29.739 27.5195C29.7437 25.1784 29.7577 22.8397 29.7228 20.4987C29.7204 20.2613 29.4761 19.9425 29.2573 19.8099C27.7005 18.8697 26.1251 17.9645 24.5474 17.0593C24.2774 16.9057 23.9772 16.8033 23.6468 16.6567C23.6142 16.8754 23.5909 16.9546 23.5909 17.0337C23.5863 19.3933 23.5746 21.7553 23.6026 24.115C23.6049 24.3337 23.8213 24.6316 24.0214 24.7526C25.5969 25.702 27.1909 26.6235 28.7849 27.5404C29.0433 27.6893 29.3365 27.7824 29.6506 27.9174L29.6529 27.9151ZM38.0374 23.9497C38.2515 23.9102 38.4237 23.9218 38.5493 23.8497C40.2574 22.8723 41.9562 21.8786 43.6666 20.8989C44.0273 20.6918 44.2064 20.4521 44.1995 20.0007C44.1715 17.8226 44.1855 15.6467 44.1832 13.4686C44.1832 13.2522 44.1832 13.0358 44.1832 12.696C43.8969 12.8287 43.7224 12.8961 43.5595 12.9869C41.9911 13.8665 40.4273 14.7531 38.8588 15.6351C38.3259 15.9353 37.9559 16.2681 38.0141 16.9964C38.0956 18.0273 38.0351 19.0699 38.0351 20.1077V23.9497H38.0374ZM31.3447 27.8802C31.5402 27.8266 31.7031 27.815 31.8311 27.7405C33.4251 26.8307 35.0052 25.8998 36.6086 25.0039C37.1927 24.6758 37.4859 24.2872 37.4254 23.5704C37.3486 22.6815 37.4067 21.7809 37.4067 20.885C37.4067 19.6447 37.4044 18.402 37.4067 17.1617C37.4067 16.808 37.309 16.5613 36.9157 16.787C35.1634 17.7876 33.4112 18.7906 31.6798 19.8308C31.4727 19.9565 31.2982 20.3148 31.2935 20.5685C31.2633 22.8281 31.2749 25.0854 31.2796 27.3449C31.2796 27.5009 31.3145 27.6568 31.3401 27.8802H31.3447ZM31.2679 12.1282C31.5099 12.3214 31.6612 12.4726 31.8381 12.5773C33.5089 13.5594 35.1751 14.553 36.8692 15.4932C37.1298 15.6374 37.5999 15.6607 37.8489 15.5211C39.557 14.5693 41.2301 13.5594 42.9172 12.5704C43.0871 12.4703 43.264 12.3795 43.4688 12.2678C43.1593 11.9886 43.0452 11.842 42.894 11.7559C41.2604 10.8111 39.6198 9.88491 37.9908 8.93546C37.5254 8.6632 37.1042 8.70043 36.676 8.98201C36.5574 9.0588 36.448 9.14723 36.3247 9.21704C34.6864 10.1618 33.0458 11.1043 31.2679 12.1282ZM30.5349 12.6704C30.2836 12.7775 30.0765 12.8449 29.8903 12.952C29.1805 13.3639 28.4848 13.799 27.7727 14.2063C26.8023 14.7601 25.8249 15.3047 24.8406 15.8376C24.4519 16.047 24.3821 16.2332 24.808 16.4682C25.0453 16.5985 25.2804 16.7358 25.5177 16.8708C27.0792 17.7621 28.6407 18.6603 30.2091 19.5399C30.3511 19.6191 30.6001 19.6609 30.728 19.5911C31.5146 19.1629 32.2779 18.6859 33.0574 18.2461C34.0092 17.7085 34.9796 17.2036 35.9267 16.659C36.1152 16.5496 36.3549 16.3309 36.3572 16.1587C36.3596 15.9958 36.1106 15.7794 35.9244 15.67C34.4397 14.8043 32.9457 13.9573 31.4494 13.1102C31.1562 12.945 30.8421 12.817 30.5349 12.6704ZM36.6016 8.23734C36.4433 8.13495 36.3945 8.10004 36.3409 8.06979C34.7632 7.14362 33.1505 6.26864 31.6193 5.27265C30.8258 4.75604 30.1672 4.6583 29.4319 5.27265C29.2666 5.40995 29.0549 5.49372 28.8664 5.60542C27.4003 6.4548 25.9366 7.30651 24.3938 8.20244C24.5962 8.37231 24.7289 8.52124 24.8918 8.61433C26.5742 9.58006 28.266 10.5272 29.9392 11.5069C30.3371 11.7396 30.6443 11.7629 31.0469 11.5208C32.6246 10.5784 34.2233 9.67082 35.8127 8.74697C36.0547 8.60502 36.2851 8.44212 36.6039 8.23501L36.6016 8.23734ZM16.8936 21.4737C16.8354 21.6855 16.7586 21.8391 16.7586 21.9927C16.7493 24.0102 16.7447 26.0255 16.7656 28.0431C16.7656 28.2502 16.8983 28.548 17.0635 28.6481C18.7599 29.6674 20.4727 30.6587 22.1854 31.65C22.6834 31.9386 22.9417 31.7873 22.9417 31.2172C22.9463 29.323 22.9277 27.4287 22.9533 25.5345C22.9603 25.0435 22.702 24.7712 22.3483 24.5687C20.5611 23.5425 18.7646 22.5349 16.8936 21.4761V21.4737ZM29.5971 35.9155C29.6646 35.6968 29.739 35.5665 29.739 35.4338C29.746 33.3604 29.753 31.2847 29.7274 29.2113C29.7274 29.0251 29.5412 28.7738 29.369 28.6714C28.2753 28.0105 27.163 27.3775 26.0553 26.7422C25.285 26.3024 24.5124 25.8696 23.7003 25.4111C23.6421 25.5996 23.5979 25.6741 23.5979 25.7486C23.5933 27.8429 23.5816 29.9373 23.6095 32.0317C23.6119 32.2318 23.8213 32.5041 24.0098 32.6181C25.8365 33.7165 27.6773 34.7869 29.5971 35.9132V35.9155ZM31.354 35.9225C33.2948 34.7939 35.0983 33.7188 36.932 32.6949C37.3276 32.4738 37.4137 32.2155 37.4114 31.8246C37.4021 29.9513 37.4114 28.0803 37.3974 26.207C37.3974 26.0069 37.3369 25.6997 37.2136 25.6392C37.0693 25.5717 36.8017 25.6904 36.6225 25.7905C35.0308 26.6794 33.4554 27.5963 31.8544 28.4712C31.4262 28.7063 31.2656 28.9832 31.2703 29.4696C31.2959 31.3615 31.2796 33.2557 31.2842 35.1476C31.2842 35.3617 31.3238 35.5758 31.3564 35.9225H31.354ZM44.1297 21.4598C42.2121 22.5465 40.3994 23.5728 38.5889 24.6036C38.2189 24.8131 38.0118 25.083 38.0234 25.574C38.0606 27.4683 38.0374 29.3625 38.0397 31.2567C38.0397 31.4476 38.0583 31.6384 38.07 31.8804C38.3492 31.7966 38.561 31.7734 38.7285 31.6756C40.3831 30.7099 42.012 29.6976 43.6945 28.7807C44.1366 28.5411 44.1925 28.2851 44.1902 27.8848C44.1832 25.9696 44.1902 24.0568 44.1855 22.1416C44.1855 21.9438 44.1552 21.7483 44.132 21.4598H44.1297Z" fill="black"/>
<path d="M36.6016 8.23734C36.4433 8.13495 36.3945 8.10004 36.3409 8.06979C34.7632 7.14362 33.1505 6.26864 31.6193 5.27265C30.8258 4.75604 30.1672 4.6583 29.4319 5.27265C29.2666 5.40995 29.0549 5.49372 28.8664 5.60542C27.4003 6.4548 25.9366 7.30651 24.3938 8.20244C24.5962 8.37231 24.7289 8.52124 24.8918 8.61433C26.5742 9.58006 28.266 10.5272 29.9392 11.5069C30.3371 11.7396 30.6443 11.7629 31.0469 11.5208C32.6246 10.5784 34.2233 9.67082 35.8127 8.74697C36.054 8.60546 36.2843 8.44354 36.6016 8.23734Z" fill="black"/>
<path d="M16.8657 12.6727C16.8029 12.9497 16.754 13.0637 16.754 13.18C16.7493 15.4815 16.7354 17.7853 16.7703 20.0868C16.7749 20.3451 17.0123 20.6872 17.2403 20.8384C17.8035 21.2131 18.4318 21.4877 19.0206 21.8251C20.105 22.4464 21.1708 23.1004 22.2645 23.7077C22.8765 24.0498 22.9393 23.9986 22.9417 23.34C22.944 21.1386 22.937 18.9396 22.9487 16.7381C22.9487 16.3006 22.7834 16.04 22.3995 15.8283C21.208 15.172 20.0398 14.4762 18.86 13.799C18.2247 13.4337 17.5871 13.0777 16.868 12.6704L16.8657 12.6727Z" fill="black"/>
<path d="M29.5971 35.9155C29.6646 35.6968 29.739 35.5665 29.739 35.4338C29.746 33.3604 29.753 31.2847 29.7274 29.2113C29.7274 29.0251 29.5412 28.7738 29.369 28.6714C28.2753 28.0105 27.163 27.3775 26.0553 26.7422C25.285 26.3024 24.5124 25.8696 23.7003 25.4111C23.6421 25.5996 23.5979 25.6741 23.5979 25.7486C23.5933 27.8429 23.5816 29.9373 23.6095 32.0317C23.6119 32.2318 23.8213 32.5041 24.0098 32.6181C25.8365 33.7165 27.6773 34.7869 29.5971 35.9132V35.9155Z" fill="black"/>
<path d="M31.3447 27.8802C31.5402 27.8266 31.7031 27.815 31.8311 27.7405C33.4251 26.8307 35.0052 25.8998 36.6086 25.0039C37.1927 24.6758 37.4859 24.2872 37.4254 23.5704C37.3486 22.6815 37.4067 21.7809 37.4067 20.885C37.4067 19.6447 37.4044 18.402 37.4067 17.1617C37.4067 16.808 37.309 16.5613 36.9157 16.787C35.1634 17.7876 33.4112 18.7906 31.6798 19.8308C31.4727 19.9565 31.2982 20.3148 31.2935 20.5685C31.2633 22.8281 31.2749 25.0854 31.2796 27.3449C31.2796 27.5009 31.3145 27.6568 31.3401 27.8802H31.3447Z" fill="black"/>
<path d="M44.1297 21.4598C42.2121 22.5465 40.3994 23.5728 38.5889 24.6036C38.2189 24.8131 38.0118 25.083 38.0234 25.574C38.0606 27.4683 38.0374 29.3625 38.0397 31.2567C38.0397 31.4476 38.0583 31.6384 38.07 31.8804C38.3492 31.7966 38.561 31.7734 38.7285 31.6756C40.3831 30.7099 42.012 29.6976 43.6945 28.7807C44.1366 28.5411 44.1925 28.2851 44.1902 27.8848C44.1832 25.9696 44.1902 24.0568 44.1855 22.1416C44.1855 21.9438 44.1552 21.7483 44.132 21.4598H44.1297Z" fill="black"/>
</svg>
