<svg width="60" height="42" viewBox="0 0 60 42" fill="none" xmlns="http://www.w3.org/2000/svg">
<path d="M24.0047 21.0109C24.0047 19.4045 24 17.7982 24.0047 16.1918C24.0095 15.325 24.3511 15.0047 25.2195 15C28.4175 15 31.6156 15 34.8137 15C35.6156 15 35.9952 15.3392 36 16.0411C36.0047 16.6393 35.497 17.0869 34.7758 17.0916C32.1091 17.0963 29.4472 17.0916 26.7805 17.0916C25.9929 17.0916 25.9739 17.1151 25.9692 17.8735C25.9692 20.4974 25.9786 23.126 25.9549 25.7499C25.9549 26.089 25.8363 26.5083 25.6133 26.7344C25.414 26.937 24.9537 27.0547 24.6785 26.9747C24.3084 26.8663 24 26.546 24 26.0655C24.0047 24.3791 24 22.6973 24 21.0109H24.0047Z" fill="black"/>
</svg>
