<svg width="60" height="42" viewBox="0 0 60 42" fill="none" xmlns="http://www.w3.org/2000/svg">
<path d="M44.9469 20.4418C44.9469 23.0057 44.9376 25.5696 44.9562 28.1312C44.9585 28.6147 44.7888 28.8727 44.3611 29.1191C42.2017 30.3557 40.0794 31.6528 37.9246 32.8964C35.5513 34.2655 33.1617 35.5998 30.7698 36.9364C30.635 37.0107 30.3909 37.0247 30.2631 36.9526C27.7828 35.5324 25.3119 34.0935 22.8387 32.664C20.7513 31.4575 18.6662 30.2511 16.5695 29.0656C16.1697 28.8402 16 28.5635 16 28.0986C16.0116 22.9917 16 17.8848 16.0256 12.7779C16.0256 12.5152 16.2162 12.1433 16.4347 12.0085C17.7852 11.1624 19.1613 10.3604 20.5397 9.56313C23.106 8.07778 25.6769 6.60173 28.2477 5.12335C28.6987 4.863 29.1729 4.63753 29.5913 4.33302C30.2282 3.87045 30.807 3.91694 31.4672 4.30513C33.8544 5.71145 36.2626 7.07825 38.6568 8.47062C40.1189 9.32138 41.5648 10.1954 43.0222 11.0531C43.1756 11.1438 43.35 11.2042 43.508 11.2879C44.4688 11.7962 44.9492 12.609 44.9492 13.7263C44.9492 15.9648 44.9492 18.2033 44.9492 20.4394L44.9469 20.4418ZM44.1101 12.571C42.197 13.6728 40.4188 14.6979 38.6382 15.7207C38.2686 15.9346 38.0176 16.181 38.0222 16.6714C38.0431 18.8472 38.0269 21.0229 38.0385 23.1986C38.0385 23.3846 38.0989 23.6961 38.1989 23.7286C38.3686 23.7821 38.6173 23.6961 38.7916 23.5984C40.2166 22.8081 41.6554 22.0433 43.0338 21.1809C43.5243 20.8764 44.2798 20.7718 44.2635 19.8723C44.2216 17.6965 44.2542 15.5208 44.2449 13.3451C44.2449 13.1196 44.1682 12.8941 44.1101 12.5687V12.571ZM31.337 27.8941C31.6415 27.729 31.8716 27.6082 32.0948 27.4803C33.4964 26.683 34.9121 25.902 36.2951 25.0722C36.8205 24.756 37.4737 24.591 37.4365 23.6682C37.3505 21.5552 37.4109 19.4376 37.4062 17.3223C37.4062 17.0922 37.3574 16.8644 37.3249 16.5785C37.039 16.6993 36.8274 16.7667 36.6392 16.876C35.1352 17.7384 33.6592 18.6449 32.1273 19.4538C31.4579 19.8072 31.2231 20.2302 31.2394 20.9741C31.2859 23.0266 31.251 25.0838 31.2556 27.1386C31.2556 27.3711 31.3044 27.6035 31.337 27.8964V27.8941ZM22.8782 23.9192C22.9084 23.624 22.927 23.524 22.927 23.4264C22.927 21.1112 22.9177 18.796 22.9409 16.4808C22.9456 16.0392 22.6736 15.8904 22.3807 15.7207C21.1348 15.0024 19.8889 14.2842 18.6429 13.5706C18.0665 13.2405 17.4853 12.922 16.8043 12.5408C16.8043 15.2209 16.7996 17.757 16.8182 20.2907C16.8182 20.4208 16.9856 20.5928 17.1204 20.6719C18.5035 21.4948 19.8912 22.3083 21.2859 23.108C21.7717 23.3869 22.2854 23.6193 22.8805 23.9215L22.8782 23.9192ZM29.847 32.2734C29.847 31.3181 29.8284 30.3627 29.854 29.4073C29.8679 28.9355 29.6634 28.6844 29.2659 28.4613C27.5969 27.5245 25.9488 26.5505 24.2868 25.5998C24.1241 25.5068 23.8824 25.3929 23.7545 25.4534C23.6383 25.5092 23.5755 25.7858 23.5755 25.9648C23.5639 27.8941 23.5546 29.8257 23.5848 31.7551C23.5895 31.9991 23.7708 32.3408 23.973 32.4664C25.7396 33.5449 27.5248 34.5933 29.3217 35.6254C29.7447 35.8694 29.847 35.5626 29.847 35.1976C29.847 34.2214 29.847 33.2474 29.847 32.2711V32.2734ZM24.3705 16.095C26.3974 17.2688 28.2966 18.3776 30.2119 19.4562C30.3793 19.5515 30.7047 19.5166 30.886 19.4167C32.0181 18.7914 33.1338 18.1312 34.2519 17.4804C35.019 17.0341 35.7814 16.5808 36.6066 16.095C36.3416 15.9113 36.1673 15.7742 35.979 15.6649C34.3379 14.7142 32.6852 13.7844 31.0627 12.8035C30.6699 12.5664 30.3863 12.5617 30.0097 12.7802C28.6313 13.5799 27.2366 14.3516 25.8558 15.1466C25.3816 15.4209 24.9307 15.7347 24.3705 16.0926V16.095ZM31.2533 35.8392C31.8461 35.5091 32.2738 35.272 32.7015 35.0326C33.9567 34.3283 35.2119 33.624 36.4625 32.9127C37.0692 32.5663 37.4922 32.1944 37.4411 31.332C37.3388 29.591 37.4109 27.8383 37.4086 26.0903C37.4086 25.8741 37.39 25.6579 37.3737 25.3302C37.1203 25.4417 36.9413 25.5022 36.781 25.5928C35.2003 26.4785 33.6243 27.3688 32.046 28.2544C31.523 28.5473 31.2138 28.8913 31.237 29.5863C31.2998 31.3715 31.2533 33.1614 31.251 34.9513C31.251 35.1884 31.251 35.4254 31.251 35.8392H31.2533ZM30.542 4.64915C30.37 4.72121 30.1933 4.77467 30.0376 4.86533C28.3221 5.85788 26.6136 6.86207 24.8935 7.84533C24.4728 8.08475 24.4472 8.22422 24.8912 8.48224C26.4091 9.3609 27.8898 10.3116 29.4309 11.1438C29.8888 11.3902 30.3421 11.9155 31.0581 11.4599C32.7061 10.4116 34.4007 9.43761 36.0999 8.47294C36.5625 8.21028 36.5346 8.08707 36.1161 7.84533C34.7517 7.05268 33.3988 6.23678 32.0343 5.44413C31.5532 5.16519 31.0511 4.91879 30.542 4.64915ZM31.1882 12.1387C33.2896 13.3381 35.1747 14.4236 37.0738 15.4836C37.2342 15.5743 37.5341 15.5533 37.7038 15.465C38.4127 15.0954 39.0985 14.6793 39.7912 14.2795C40.965 13.6008 42.1366 12.922 43.3104 12.2433C43.3662 12.1526 43.4197 12.062 43.4755 11.969C43.3058 11.9016 43.1291 11.8504 42.9687 11.7667C42.5968 11.5761 42.2272 11.3809 41.8646 11.1694C40.5443 10.4023 39.2356 9.61194 37.899 8.87043C37.6503 8.73329 37.2482 8.6775 36.9971 8.7821C36.4369 9.01687 35.9325 9.37717 35.4025 9.68168C34.6447 10.1187 33.88 10.5441 33.1245 10.9834C32.5178 11.3344 31.9204 11.6993 31.1859 12.134L31.1882 12.1387ZM38.0315 28.2823C38.0315 29.2376 38.0222 30.1907 38.0339 31.1461C38.0408 31.7992 38.164 31.8643 38.7103 31.5528C39.1403 31.3088 39.568 31.0624 39.998 30.8183C41.072 30.2116 42.1645 29.6305 43.2151 28.9866C43.6777 28.703 44.2821 28.5287 44.2635 27.743C44.2193 25.8555 44.2542 23.9657 44.2472 22.0759C44.2449 21.4297 44.0868 21.353 43.5266 21.6784C41.8716 22.6384 40.2026 23.5752 38.5662 24.5701C38.3105 24.7258 38.0757 25.1186 38.0548 25.4185C37.9897 26.3692 38.0315 27.3269 38.0315 28.28V28.2823Z" fill="black"/>
<path d="M31.1882 12.1387C33.2896 13.3381 35.1747 14.4236 37.0738 15.4836C37.2342 15.5743 37.5341 15.5533 37.7038 15.465C38.4127 15.0954 39.0985 14.6793 39.7912 14.2795C40.965 13.6008 42.1366 12.922 43.3104 12.2433C43.3662 12.1526 43.4197 12.062 43.4755 11.969C43.3058 11.9016 43.1291 11.8504 42.9687 11.7667C42.5968 11.5761 42.2272 11.3809 41.8646 11.1694C40.5443 10.4023 39.2356 9.61194 37.899 8.87043C37.6503 8.73329 37.2482 8.6775 36.9971 8.7821C36.4369 9.01687 35.9325 9.37717 35.4025 9.68168C34.6447 10.1187 33.88 10.5441 33.1245 10.9834C32.5178 11.3344 31.9204 11.6993 31.1859 12.134L31.1882 12.1387Z" fill="black"/>
<path d="M44.1101 12.571C42.197 13.6728 40.4188 14.6979 38.6382 15.7207C38.2686 15.9346 38.0176 16.181 38.0222 16.6714C38.0431 18.8472 38.0269 21.0229 38.0385 23.1986C38.0385 23.3846 38.0989 23.6961 38.1989 23.7286C38.3686 23.7821 38.6173 23.6961 38.7916 23.5984C40.2166 22.8081 41.6554 22.0433 43.0338 21.1809C43.5243 20.8764 44.2798 20.7718 44.2635 19.8723C44.2216 17.6965 44.2542 15.5208 44.2449 13.3451C44.2449 13.1196 44.1682 12.8941 44.1101 12.5687V12.571Z" fill="black"/>
<path d="M31.2533 35.8392C31.8461 35.5091 32.2738 35.272 32.7015 35.0326C33.9567 34.3283 35.2119 33.624 36.4625 32.9127C37.0692 32.5663 37.4922 32.1944 37.4411 31.332C37.3388 29.591 37.4109 27.8383 37.4086 26.0903C37.4086 25.8741 37.39 25.6579 37.3737 25.3302C37.1203 25.4417 36.9413 25.5022 36.781 25.5928C35.2003 26.4785 33.6243 27.3688 32.046 28.2544C31.523 28.5473 31.2138 28.8913 31.237 29.5863C31.2998 31.3715 31.2533 33.1614 31.251 34.9513V35.8392H31.2533Z" fill="black"/>
</svg>
