<svg width="60" height="42" viewBox="0 0 60 42" fill="none" xmlns="http://www.w3.org/2000/svg">
<path fill-rule="evenodd" clip-rule="evenodd" d="M23.938 13.2971H23.9476C23.7878 13.2971 23.6492 13.2983 23.5243 13.2995C23.3082 13.3014 23.133 13.303 22.9598 13.2971C22.0468 13.2678 21.1333 13.2398 20.2197 13.2118C18.1007 13.1468 15.9807 13.0817 13.8632 13.0009C13.3213 12.9823 13.0432 13.149 13 13.6952C13.0468 13.722 13.0932 13.7502 13.1396 13.7783C13.2451 13.8423 13.3504 13.9061 13.4604 13.9544C14.1462 14.2594 14.832 14.5649 15.5179 14.8705C17.8918 15.9281 20.2671 16.9862 22.6481 18.0277C23.2704 18.2988 23.5784 18.4271 23.731 18.6581C23.8805 18.8846 23.8805 19.2099 23.8805 19.8653C23.8769 20.7609 23.8774 21.6572 23.8778 22.5537C23.8786 24.0478 23.8793 25.5424 23.8613 27.0351C23.8517 27.5119 24.0388 27.7989 24.4368 27.9979C24.9183 28.2415 25.4011 28.4825 25.8841 28.7235C26.7045 29.133 27.5251 29.5427 28.3401 29.9651C30.45 31.0621 32.5504 32.1684 34.6459 33.2885C35.0967 33.5292 35.4995 33.6357 35.9838 33.3441C36.4961 33.0369 37.0336 32.763 37.5682 32.4907C37.6941 32.4265 37.8198 32.3624 37.9451 32.298C38.709 31.9054 39.4716 31.5108 40.2342 31.1161C42.0519 30.1755 43.8696 29.2349 45.7039 28.3219C46.5478 27.9053 46.8499 27.3684 46.8403 26.4427C46.7907 22.5616 46.809 18.6805 46.8273 14.7994C46.8285 14.5563 46.8296 14.3132 46.8308 14.0701C46.7426 13.3968 46.4869 13.1279 45.7134 12.8157C44.8636 12.4866 44.0064 12.1717 43.1492 11.8568C42.4634 11.6049 41.7776 11.353 41.0956 11.0938C40.4971 10.8676 39.9034 10.629 39.3099 10.3906C38.8715 10.2144 38.4331 10.0383 37.993 9.86722C37.6202 9.72267 37.2411 9.59039 36.8388 9.45C36.6355 9.37909 36.4264 9.30612 36.2092 9.22846L36.1996 9.23308C35.6146 8.88934 35.2644 8.96695 34.6315 9.20068C34.2487 9.34917 33.8661 9.49782 33.4835 9.64645C31.7908 10.304 30.099 10.9612 28.3977 11.603C27.6253 11.8939 26.8426 12.1631 26.0214 12.4454C25.5884 12.5943 25.1447 12.7469 24.6861 12.9083L24.6813 12.9175C24.6807 12.9156 24.68 12.9137 24.6794 12.9118L23.938 13.2971ZM45.0878 14.6892C45.393 14.5437 45.7091 14.3931 46.0443 14.2367V14.246C46.0531 14.3836 46.0626 14.5013 46.071 14.6064C46.0855 14.7875 46.0971 14.931 46.0971 15.0745C46.0971 16.0373 46.0965 17.0003 46.0959 17.9636C46.0941 20.8534 46.0923 23.7453 46.1067 26.6371C46.1115 27.1231 45.9244 27.3823 45.4833 27.6091C44.3579 28.1818 43.2406 28.7702 42.1229 29.3587C41.3166 29.7833 40.51 30.208 39.7001 30.627C38.8097 31.0859 37.9122 31.5312 36.9849 31.9913C36.5838 32.1903 36.1772 32.3921 35.7632 32.5989C35.755 32.5164 35.7459 32.4381 35.7372 32.3628C35.7156 32.1761 35.6961 32.008 35.6961 31.8398C35.6946 30.5837 35.695 29.3273 35.6953 28.0705C35.6961 25.2423 35.6968 22.4126 35.6769 19.5829C35.6721 19.0413 35.8927 18.7775 36.3387 18.5831C37.0057 18.2894 37.6731 17.9961 38.3405 17.7027C40.1346 16.9141 41.9291 16.1253 43.7186 15.3291C44.1699 15.1267 44.616 14.9141 45.0878 14.6892ZM34.8952 32.3165C34.8874 32.3993 34.8792 32.4867 34.8713 32.5804L34.8665 32.5757C32.7403 31.4802 30.7337 30.4447 28.7273 29.4093L28.7189 29.405C28.4489 29.267 28.1784 29.1296 27.9078 28.9922C26.9628 28.5123 26.0172 28.0321 25.0889 27.5212C24.8875 27.4101 24.6909 27.0814 24.6909 26.85C24.6757 25.2093 24.674 23.5667 24.6723 21.9235C24.6714 20.9845 24.6704 20.0453 24.6669 19.1061C24.6669 18.722 24.7772 18.5461 25.2088 18.56C28.2826 18.6618 31.3516 18.759 34.4253 18.8469C34.7802 18.8562 34.9336 19.0321 34.9336 19.3515V19.7542V31.7194C34.9336 31.9078 34.9159 32.0961 34.8952 32.3165ZM25.228 13.7229C25.2232 13.6674 25.2184 13.6072 25.2184 13.5517C25.538 13.4247 25.8575 13.2959 26.1773 13.167C26.7548 12.9343 27.3331 12.7013 27.9133 12.4778C28.496 12.2518 29.0802 12.034 29.6641 11.8162C30.1567 11.6326 30.6491 11.4489 31.1406 11.2605C31.584 11.0909 32.025 10.9153 32.4657 10.7398C33.2402 10.4313 34.0139 10.1231 34.7994 9.84871C35.1302 9.73299 35.5858 9.73299 35.9167 9.85333C36.8178 10.1844 37.7084 10.5445 38.5991 10.9045C39.1777 11.1384 39.7563 11.3723 40.3379 11.5984C41.2927 11.9682 42.2536 12.3261 43.2139 12.6838C43.7199 12.8723 44.2257 13.0607 44.7304 13.2508C44.9015 13.3157 45.0707 13.3881 45.2715 13.474C45.3857 13.523 45.5102 13.5762 45.6511 13.635C44.5002 14.158 43.4597 14.6302 42.4191 15.1023C41.6662 15.4425 40.9122 15.7827 40.1581 16.1229C39.404 16.4631 38.65 16.8034 37.8971 17.1436C37.6863 17.2383 37.4767 17.3361 37.2669 17.4341C36.7178 17.6904 36.1679 17.9471 35.5954 18.148C35.3364 18.236 34.9432 18.1063 34.6603 17.9767C32.9083 17.1867 31.1606 16.3843 29.4128 15.582C28.5392 15.1809 27.6655 14.7798 26.7912 14.3802C26.4212 14.2133 26.0436 14.0584 25.6657 13.9034C25.5197 13.8435 25.3737 13.7836 25.228 13.7229ZM15.3929 14.0284L15.4504 13.834C15.5361 13.8293 15.6213 13.822 15.7061 13.8148C15.8727 13.8004 16.038 13.7862 16.2033 13.7924C16.4943 13.8025 16.7853 13.8126 17.0762 13.8226C19.1771 13.8953 21.2752 13.9679 23.377 14.0655C23.5448 14.0701 23.8421 14.2784 23.8421 14.4034C23.8678 15.2229 23.8654 16.0425 23.8629 16.9402C23.8621 17.2188 23.8613 17.5049 23.8613 17.8009C20.9602 16.5094 18.1741 15.2689 15.3929 14.0284ZM24.675 15.0435C24.6757 14.789 24.6765 14.5298 24.6765 14.2645L24.6813 14.2599C27.4242 15.4911 30.0377 16.6622 32.6511 17.8332V17.9814C32.6065 17.9875 32.5616 17.9946 32.5165 18.0018C32.3919 18.0216 32.266 18.0415 32.1428 18.0415C31.7826 18.0374 31.4222 18.0337 31.0616 18.0301C29.8045 18.0173 28.5458 18.0045 27.29 17.9721C26.5563 17.9536 25.8226 17.8749 25.0937 17.7823C24.9403 17.7638 24.6957 17.5555 24.6957 17.4306C24.67 16.6514 24.6724 15.8723 24.675 15.0435Z" fill="black"/>
</svg>
