<svg width="60" height="42" viewBox="0 0 60 42" fill="none" xmlns="http://www.w3.org/2000/svg">
<path fill-rule="evenodd" clip-rule="evenodd" d="M21.2115 17.834H21.2213C21.0575 17.834 20.9154 17.8352 20.7874 17.8364C20.5659 17.8383 20.3864 17.8399 20.2088 17.834C19.273 17.8047 18.3367 17.7767 17.4002 17.7487C15.2282 17.6836 13.0553 17.6186 10.8847 17.5378C10.3293 17.5192 10.0442 17.6859 10 18.2321C10.048 18.2589 10.0956 18.287 10.1431 18.3152C10.2512 18.3792 10.3592 18.443 10.4719 18.4913C11.1748 18.7963 11.8778 19.1018 12.5808 19.4074C15.0141 20.465 17.4488 21.5231 19.8893 22.5645C20.5271 22.8357 20.8429 22.964 20.9992 23.195C21.1525 23.4215 21.1525 23.7467 21.1525 24.4021C21.1488 25.2978 21.1493 26.1941 21.1498 27.0906C21.1505 28.5847 21.1513 30.0793 21.1329 31.572C21.123 32.0488 21.3147 32.3358 21.7227 32.5348C22.2162 32.7784 22.7112 33.0194 23.2062 33.2604C24.0471 33.6699 24.8883 34.0795 25.7236 34.502C27.8863 35.599 30.0391 36.7053 32.1871 37.8254C32.6491 38.0661 33.062 38.1726 33.5584 37.881C34.0835 37.5738 34.6344 37.2999 35.1824 37.0275C35.3114 36.9634 35.4403 36.8993 35.5687 36.8349C36.3517 36.4423 37.1334 36.0477 37.915 35.653C39.7782 34.7124 41.6413 33.7718 43.5215 32.8588C44.3865 32.4422 44.6962 31.9053 44.6863 30.9796C44.6355 27.0985 44.6542 23.2174 44.673 19.3363C44.6742 19.0932 44.6754 18.8501 44.6765 18.607C44.5861 17.9336 44.324 17.6648 43.5313 17.3526C42.6602 17.0235 41.7815 16.7086 40.9029 16.3937C40.2 16.1418 39.497 15.8899 38.798 15.6307C38.1845 15.4044 37.576 15.1659 36.9677 14.9275C36.5182 14.7513 36.0689 14.5752 35.6179 14.4041C35.2358 14.2596 34.8471 14.1273 34.4347 13.9869C34.2264 13.916 34.0121 13.843 33.7894 13.7653L33.7796 13.77C33.18 13.4262 32.821 13.5038 32.1723 13.7376C31.78 13.8861 31.3877 14.0347 30.9956 14.1833C29.2606 14.8409 27.5265 15.4981 25.7826 16.1399C24.9909 16.4308 24.1887 16.7 23.3469 16.9823C22.9031 17.1312 22.4483 17.2838 21.9783 17.4452L21.9734 17.4544C21.9727 17.4525 21.972 17.4506 21.9714 17.4487L21.2115 17.834ZM42.89 19.2261C43.2029 19.0806 43.5268 18.93 43.8704 18.7736V18.7829C43.8795 18.9205 43.8891 19.0382 43.8978 19.1433C43.9127 19.3244 43.9245 19.4679 43.9245 19.6114C43.9245 20.5742 43.9239 21.5372 43.9233 22.5005C43.9214 25.3903 43.9196 28.2822 43.9343 31.174C43.9392 31.66 43.7475 31.9192 43.2953 32.146C42.1418 32.7187 40.9966 33.3071 39.851 33.8956C39.0245 34.3202 38.1978 34.7449 37.3677 35.1639C36.4549 35.6228 35.535 36.0681 34.5845 36.5282C34.1734 36.7272 33.7567 36.9289 33.3323 37.1358C33.3238 37.0532 33.3145 36.975 33.3056 36.8997C33.2835 36.713 33.2635 36.5448 33.2635 36.3766C33.262 35.1206 33.2623 33.8642 33.2627 32.6074C33.2635 29.7792 33.2643 26.9495 33.2438 24.1198C33.2389 23.5782 33.465 23.3144 33.9221 23.12C34.6058 22.8263 35.2899 22.533 35.974 22.2396C37.813 21.451 39.6524 20.6622 41.4866 19.866C41.9492 19.6636 42.4064 19.451 42.89 19.2261ZM32.4426 36.8534C32.4346 36.9362 32.4261 37.0236 32.4181 37.1172L32.4132 37.1126C30.2338 36.0171 28.1771 34.9816 26.1205 33.9462L26.1119 33.9419C25.8351 33.8039 25.5578 33.6665 25.2805 33.5291C24.3119 33.0492 23.3426 32.569 22.3911 32.0581C22.1847 31.947 21.9832 31.6183 21.9832 31.3869C21.9675 29.7462 21.9658 28.1036 21.9641 26.4604C21.9632 25.5214 21.9622 24.5822 21.9586 23.643C21.9586 23.2589 22.0716 23.083 22.514 23.0969C25.6646 23.1987 28.8103 23.2959 31.961 23.3838C32.3247 23.3931 32.482 23.569 32.482 23.8884V24.2911V36.2563C32.482 36.4447 32.4638 36.633 32.4426 36.8534ZM22.5337 18.2598C22.5288 18.2043 22.5239 18.1441 22.5239 18.0886C22.8514 17.9616 23.179 17.8328 23.5067 17.7039C24.0987 17.4712 24.6914 17.2381 25.2862 17.0147C25.8834 16.7887 26.4822 16.5709 27.0807 16.3531C27.5856 16.1695 28.0904 15.9858 28.5941 15.7974C29.0486 15.6278 29.5006 15.4522 29.9523 15.2766C30.7462 14.9682 31.5393 14.66 32.3443 14.3856C32.6835 14.2699 33.1504 14.2699 33.4896 14.3902C34.4133 14.7213 35.3261 15.0814 36.2391 15.4414C36.8321 15.6753 37.4252 15.9092 38.0214 16.1353C39 16.5051 39.9849 16.863 40.9692 17.2207C41.4879 17.4092 42.0064 17.5976 42.5237 17.7877C42.6991 17.8526 42.8725 17.925 43.0782 18.0109C43.1954 18.0598 43.323 18.1131 43.4674 18.1719C42.2877 18.6949 41.2211 19.1671 40.1546 19.6392C39.3829 19.9794 38.61 20.3196 37.8371 20.6598C37.0641 21 36.2912 21.3402 35.5196 21.6805C35.3035 21.7752 35.0886 21.873 34.8735 21.971C34.3107 22.2273 33.7471 22.484 33.1603 22.6849C32.8949 22.7728 32.4918 22.6432 32.2018 22.5136C30.406 21.7236 28.6146 20.9212 26.8232 20.1189C25.9276 19.7178 25.0321 19.3167 24.136 18.9171C23.7567 18.7502 23.3697 18.5953 22.9823 18.4403C22.8327 18.3804 22.683 18.3205 22.5337 18.2598ZM12.4527 18.5653L12.5117 18.3709C12.5995 18.3662 12.6868 18.3589 12.7737 18.3516C12.9446 18.3373 13.1139 18.3231 13.2833 18.3293C13.5817 18.3394 13.8799 18.3495 14.1781 18.3595C16.3315 18.4322 18.4821 18.5048 20.6364 18.6024C20.8085 18.607 21.1132 18.8153 21.1132 18.9403C21.1395 19.7598 21.1371 20.5794 21.1345 21.4771C21.1337 21.7557 21.1329 22.0418 21.1329 22.3377C18.1592 21.0463 15.3035 19.8058 12.4527 18.5653ZM21.9668 19.5804C21.9676 19.3259 21.9684 19.0667 21.9684 18.8014L21.9734 18.7968C24.7848 20.028 27.4636 21.1991 30.1424 22.3701V22.5183C30.0967 22.5244 30.0506 22.5315 30.0044 22.5387C29.8767 22.5585 29.7477 22.5784 29.6214 22.5784C29.2522 22.5743 28.8827 22.5706 28.5132 22.567C27.2246 22.5542 25.9344 22.5414 24.6472 22.509C23.8952 22.4905 23.1432 22.4118 22.3961 22.3192C22.2388 22.3007 21.9881 22.0924 21.9881 21.9674C21.9618 21.1883 21.9642 20.4092 21.9668 19.5804Z" fill="black"/>
<path d="M35.9668 9.46989C35.4008 10.2575 34.8293 11.0425 34.2181 11.8819C33.7879 12.4728 33.2609 12.9868 32.6592 13.4018V13.4018C32.5698 13.5618 32.3843 13.6572 32.1723 13.7376C32.821 13.5038 33.18 13.4262 33.7796 13.77C34.7135 12.4739 35.5638 11.2982 36.4092 10.1225C37.52 8.57655 38.6358 7.03518 39.7318 5.47993C40.1791 4.8458 40.4691 4.78563 41.285 5.16518C43.5165 6.19739 45.7579 7.2157 47.9943 8.23865C48.4858 8.46083 48.9724 8.69227 49.4639 8.90982C49.9013 9.10422 49.9505 9.34029 49.6752 9.71522C48.7364 10.9927 47.8222 12.2842 46.8883 13.5663C46.0184 14.7652 45.114 15.9501 44.2636 17.1675C44.0326 17.4961 43.8803 17.4868 43.5313 17.3526C44.324 17.6648 44.5861 17.9336 44.6765 18.607C44.6814 18.2506 44.7896 17.834 44.996 17.5378C46.9031 14.83 48.8397 12.1407 50.7762 9.45138C51.1203 8.97462 51.081 8.80336 50.5649 8.58118C49.6654 8.19699 48.7659 7.81744 47.8812 7.41011C45.6743 6.40105 43.4723 5.3781 41.2703 4.35515C40.1791 3.846 39.9924 3.85525 39.4763 4.57271C38.3015 6.20202 37.1416 7.84058 35.9668 9.46989Z" fill="black"/>
</svg>
