<svg width="60" height="42" viewBox="0 0 60 42" fill="none" xmlns="http://www.w3.org/2000/svg">
<path d="M45.4261 20.5321C45.4261 25.1359 45.4261 29.7398 45.4261 34.3389C45.4261 35.5064 44.7171 36.2201 43.559 36.2201C34.6633 36.2201 25.7723 36.206 16.8813 36.2438C15.8887 36.2438 14.9953 35.2842 15 34.3578C15.0284 25.1312 15.0142 15.9046 15.0189 6.68272C15.0189 5.60502 15.6476 5 16.7347 5C25.725 5 34.72 5 43.7103 5C44.8163 5 45.4261 5.60975 45.4261 6.72526C45.4261 11.3291 45.4261 15.933 45.4261 20.5321ZM44.7738 20.5368C44.7738 16.0511 44.7738 11.5654 44.7738 7.07976C44.7738 5.813 44.4996 5.54357 43.2234 5.54357C34.5262 5.54357 25.829 5.54357 17.1271 5.54357C16.9522 5.54357 16.7442 5.48685 16.6024 5.55776C16.3141 5.70901 15.9832 5.87917 15.813 6.13442C15.6476 6.38966 15.6003 6.76307 15.6003 7.08449C15.5909 16.0369 15.5909 24.9894 15.5909 33.9418C15.5909 34.0789 15.5814 34.2207 15.6003 34.3531C15.7232 35.1897 15.9832 35.4686 16.6827 35.4686C25.6966 35.4686 34.7105 35.4686 43.7197 35.478C44.2964 35.478 44.5942 35.2181 44.7029 34.6934C44.7549 34.4476 44.7596 34.1876 44.7596 33.9324C44.7596 29.4656 44.7596 24.9988 44.7596 20.5321L44.7738 20.5368Z" fill="black"/>
<path d="M26.8453 18.7549C28.4004 18.7549 29.9555 18.7549 31.5059 18.7549C32.4276 18.7549 32.9617 19.2701 32.9617 20.1965C32.9712 23.302 32.9665 26.4122 32.9617 29.5177C32.9617 30.066 32.7396 30.5623 32.2196 30.7277C31.9218 30.8222 31.4681 30.7277 31.2128 30.5386C31.0001 30.3827 30.8914 29.9714 30.8867 29.6736C30.8631 26.9794 30.8583 24.2852 30.8867 21.5956C30.8914 21.0237 30.7307 20.8583 30.1635 20.8677C27.4693 20.8961 24.775 20.8772 22.0808 20.8819C21.5703 20.8819 21.1449 20.7212 20.9416 20.2296C20.6297 19.4733 21.1685 18.7691 22.0666 18.7596C23.6595 18.7454 25.2524 18.7596 26.8453 18.7596V18.7549Z" fill="black"/>
</svg>
