<svg width="60" height="42" viewBox="0 0 60 42" fill="none" xmlns="http://www.w3.org/2000/svg">
<path d="M49.0153 24.0264C49.0153 25.0863 49.0121 26.1494 49.0153 27.2092C49.0186 28.3911 49.2825 28.7348 50.3996 29.0559C51.9641 29.5056 51.9963 29.5377 51.9963 31.1114C51.9995 33.411 52.0027 35.7106 51.9963 38.0102C51.9931 39.0283 51.6615 39.3302 50.7086 39.6931C48.9349 40.3675 47.2029 41.1608 45.426 41.8321C44.9688 42.0055 44.3411 42.073 43.9098 41.8963C40.8129 40.6341 37.7612 39.2723 34.6708 37.9877C32.5847 37.1205 30.4537 36.3722 28.3709 35.5018C25.7376 34.4066 23.143 33.2215 20.5129 32.1167C19.0321 31.4936 17.5094 30.9669 16.0125 30.376C14.9631 29.9617 13.9233 29.512 12.8835 29.0752C11.5636 28.5228 10.2567 27.9319 8.92071 27.4276C8.2125 27.1611 7.99682 26.705 8.00004 26.0113C8.01291 23.58 7.99359 21.1488 8.0129 18.7143C8.01934 17.7701 8.14167 17.7026 9.08167 17.3333C9.80598 17.0474 10.4723 16.5946 11.2095 16.3666C11.9853 16.1257 12.0755 15.6375 12.0562 14.963C12.024 13.8582 12.0723 12.7502 12.0401 11.6486C12.0208 11.0287 12.2847 10.6305 12.8159 10.3928C13.3728 10.1423 13.9394 9.91104 14.5124 9.69907C15.2399 9.4325 15.5425 9.05994 15.5522 8.25059C15.5683 6.8792 15.565 5.50781 15.5522 4.13963C15.5457 3.42984 15.6616 2.91597 16.4954 2.63334C17.9376 2.14838 19.325 1.49962 20.7318 0.911879C21.366 0.645308 21.9776 0.301648 22.6311 0.0993109C23.0045 -0.0163101 23.4906 -0.0452149 23.848 0.0896763C25.4253 0.693475 26.9738 1.36794 28.5318 2.02312C29.7648 2.54342 30.9945 3.07334 32.2306 3.59364C33.8788 4.28736 35.5303 4.96824 37.1753 5.66197C39.4126 6.60621 41.637 7.5922 43.8904 8.4979C44.75 8.84155 44.9463 9.42929 44.9367 10.2483C44.9141 12.2363 44.9302 14.2276 44.9302 16.2188C44.9302 16.4854 44.9302 16.7487 44.9399 17.0153C44.9624 17.4842 45.0912 17.799 45.6417 17.9692C46.5559 18.2518 47.4122 18.7079 48.3071 19.058C48.8447 19.2667 49.0282 19.6393 49.025 20.182C49.0121 21.4635 49.0218 22.7482 49.0218 24.0296H49.025L49.0153 24.0264ZM23.3941 24.7137C23.3232 25.0189 23.217 25.2629 23.217 25.5038C23.2041 27.5786 23.217 29.6533 23.2009 31.7281C23.1977 32.2323 23.3522 32.5182 23.8447 32.7205C25.4897 33.3949 27.109 34.1272 28.7443 34.8177C29.1724 34.9976 29.4976 34.7663 29.5008 34.2396C29.5201 32.1649 29.5265 30.0901 29.4976 28.0154C29.4879 27.4051 29.1467 26.978 28.535 26.7435C26.8418 26.0948 25.1614 25.4139 23.3973 24.7137H23.3941ZM40.6906 30.4466C40.755 29.9777 40.8194 29.7272 40.8226 29.4735C40.8322 27.5786 40.7839 25.6805 40.8483 23.7856C40.8805 22.8991 40.3977 22.5202 39.7248 22.2375C38.3245 21.6466 36.9145 21.0845 35.5142 20.5C34.8221 20.2109 34.4583 20.4358 34.4486 21.2258C34.4325 23.1207 34.4293 25.0189 34.4486 26.9138C34.4583 27.7681 34.8382 28.192 35.688 28.5228C36.4477 28.8183 37.1785 29.178 37.9382 29.4703C38.7849 29.7979 39.6508 30.0805 40.6906 30.4498V30.4466ZM37.9897 30.8417C37.9253 31.2046 37.8706 31.3748 37.8674 31.545C37.8577 33.4463 37.8545 35.3477 37.8577 37.249C37.8577 38.5208 37.906 38.5497 39.1486 39.0604C40.3848 39.571 41.5952 40.1459 42.8442 40.6277C43.2144 40.769 43.6651 40.6983 44.1963 40.7337C44.1963 38.357 44.1866 36.1538 44.2027 33.9506C44.2059 33.4528 43.8872 33.2472 43.5299 33.0706C42.4772 32.5535 41.431 32.0139 40.3494 31.5643C39.6412 31.2688 38.8718 31.1082 37.9929 30.8449L37.9897 30.8417ZM26.1497 24.5853C26.1497 22.1508 26.1175 19.9925 26.1658 17.8375C26.1851 17.0282 25.773 16.6428 25.1259 16.373C23.7192 15.7884 22.306 15.2135 20.896 14.6354C20.1846 14.3432 19.8143 14.5616 19.8079 15.3549C19.7886 17.253 19.7886 19.1543 19.8079 21.0524C19.8176 21.9099 20.2167 22.3371 21.0698 22.6583C21.8328 22.9441 22.5603 23.3199 23.3232 23.6121C24.1731 23.9365 25.0455 24.2095 26.1529 24.5885L26.1497 24.5853ZM33.7597 27.5047C33.7597 24.9964 33.7597 22.7064 33.7597 20.4165C33.7597 20.0632 33.6278 19.8834 33.2865 19.7356C31.5675 19.0001 29.871 18.2068 28.152 17.4746C27.6723 17.269 27.4244 17.5163 27.418 18.2036C27.3987 20.1467 27.3987 22.093 27.4148 24.0361C27.4212 25.0381 27.624 25.234 28.6381 25.613C29.8549 26.0691 31.046 26.5894 32.2596 27.0583C32.662 27.2156 33.0902 27.3056 33.763 27.5015L33.7597 27.5047ZM29.5523 16.9575C29.5523 14.3785 29.562 12.0468 29.533 9.71512C29.533 9.53527 29.2722 9.28476 29.0759 9.19483C27.3761 8.4176 25.6668 7.65965 23.951 6.92096C23.4906 6.72183 23.2395 6.91454 23.2331 7.50549C23.2138 9.58345 23.2363 11.6614 23.217 13.7394C23.2106 14.4299 23.6001 14.7575 24.1666 14.9855C25.4994 15.5219 26.8289 16.0711 28.1681 16.5946C28.5254 16.7327 28.9149 16.7937 29.5523 16.9607V16.9575ZM36.5025 20.0504C36.5862 19.8448 36.7053 19.6842 36.7085 19.5204C36.7246 17.269 36.7407 15.0176 36.7085 12.7662C36.7085 12.5446 36.4413 12.2235 36.2224 12.1239C34.5903 11.4013 32.9421 10.7108 31.2874 10.0363C30.7691 9.82432 30.4537 10.0427 30.4472 10.6529C30.4215 12.641 30.415 14.629 30.4537 16.6138C30.4665 17.2369 30.7241 17.7122 31.4452 17.9756C33.1223 18.5858 34.7512 19.3213 36.5057 20.0504H36.5025ZM36.7632 37.917C36.7632 35.383 36.76 33.1027 36.7632 30.8192C36.7632 30.1672 36.3544 29.9167 35.8232 29.7111C34.4969 29.1908 33.1803 28.6416 31.8604 28.1021C30.9913 27.7488 30.6211 28.0186 30.6082 29.0816C30.5889 30.8417 30.6532 32.6049 30.5824 34.3649C30.5438 35.2995 31.046 35.7234 31.7607 36.0446C32.7039 36.4653 33.6535 36.87 34.616 37.2426C35.2438 37.4834 35.9005 37.6504 36.76 37.9202L36.7632 37.917ZM16.8044 3.93407C16.6982 4.30342 16.5501 4.58605 16.5469 4.86868C16.5244 6.77 16.5308 8.67133 16.5405 10.5727C16.5405 10.8328 16.6081 11.0962 16.6757 11.3499C16.7787 11.7449 16.9815 11.9794 17.4322 12.14C18.6651 12.5832 19.853 13.1549 21.0634 13.6719C21.2662 13.7586 21.4754 13.8422 21.6879 13.8775C22.203 13.961 22.5571 13.8197 22.5538 13.203C22.5474 11.1251 22.5667 9.0471 22.5313 6.96913C22.5281 6.73146 22.3092 6.41993 22.1 6.28504C21.704 6.03131 21.2436 5.88036 20.8058 5.69087C19.5311 5.13204 18.2595 4.57321 16.8012 3.93729L16.8044 3.93407ZM21.8778 31.8855C21.968 31.7313 22.0452 31.6606 22.0484 31.5868C22.0742 29.2551 22.0935 26.9234 22.1064 24.5917C22.1064 24.1999 21.9068 23.9783 21.5108 23.8337C20.6224 23.5094 19.7628 23.1079 18.884 22.7642C18.282 22.5266 17.6704 22.2953 17.0491 22.1219C16.2475 21.8971 16.019 22.0159 16.0061 22.761C15.9707 24.7844 15.99 26.811 15.9996 28.8376C15.9996 29.2583 16.1703 29.5216 16.6338 29.7015C18.4011 30.3888 20.1395 31.1532 21.8778 31.8855ZM18.8679 21.7847C18.9516 21.5823 19.0707 21.425 19.0739 21.2676C19.0932 19.0194 19.0932 16.7744 19.1093 14.5262C19.1126 14.0638 18.7907 13.961 18.4623 13.8165C16.8012 13.0938 15.1466 12.3616 13.3116 11.5522C13.2119 14.1858 13.2119 16.6427 13.3116 19.0997C13.3213 19.3149 13.6207 19.6136 13.8525 19.7131C15.5007 20.4197 17.1682 21.0845 18.8743 21.7815L18.8679 21.7847ZM9.30057 18.8813C9.14283 19.241 9.04948 19.3599 9.04626 19.4787C9.03339 21.6402 9.02694 23.8048 9.02373 25.9663C9.02373 26.4159 9.23618 26.6279 9.68043 26.8046C11.3962 27.4919 13.0831 28.253 14.9502 29.0624C14.9502 26.4513 14.9631 23.9911 14.9277 21.5277C14.9277 21.319 14.6283 21.0171 14.3997 20.9207C13.331 20.4743 12.2332 20.0921 11.1548 19.6682C10.556 19.4337 9.97015 19.1671 9.29735 18.8813H9.30057ZM31.6126 8.94754C31.9119 9.17557 32.1824 9.48067 32.5236 9.62841C33.9658 10.2547 35.4241 10.8521 36.892 11.4173C37.1431 11.5137 37.494 11.4398 37.774 11.3563C38.1024 11.26 38.405 11.0673 38.7237 10.9259C40.1401 10.2997 41.5566 9.6798 43.0663 9.01498C41.3763 8.29877 39.8729 7.65965 38.3664 7.02373C37.6388 6.71541 36.9016 6.72504 36.1773 7.02694C34.6643 7.65643 33.1545 8.29878 31.6126 8.95075V8.94754ZM35.5689 6.13409C35.556 6.03774 35.5399 5.93817 35.5271 5.84182C35.2341 5.77117 34.9219 5.74547 34.6514 5.62343C33.5408 5.12241 32.4528 4.57963 31.3389 4.08182C30.4923 3.70284 29.5716 3.6932 28.7475 4.01758C27.2731 4.5989 25.8535 5.31832 24.334 6.01526C24.7622 6.27862 25.1066 6.54519 25.4929 6.7122C26.8546 7.29673 28.2292 7.8652 29.6135 8.39834C29.8581 8.49469 30.209 8.4722 30.4601 8.37585C31.3969 8.01936 32.3176 7.62111 33.2382 7.21322C34.0237 6.86636 34.7963 6.49059 35.5721 6.12767L35.5689 6.13409ZM17.297 3.144C19.0546 3.8859 20.6545 4.55714 22.248 5.23802C22.6697 5.41788 23.0593 5.46927 23.5099 5.28299C24.8749 4.72094 26.2591 4.21349 27.6272 3.65466C27.9524 3.51977 28.2324 3.27247 28.6059 3.02517C27.0832 2.34429 25.7151 1.67947 24.3018 1.12706C23.5164 0.818734 22.6826 0.854066 21.8617 1.2202C20.4292 1.85933 18.9709 2.44385 17.297 3.144ZM47.2641 19.5204C46.4207 19.1639 45.9314 18.9712 45.4517 18.7496C44.766 18.4349 44.0836 18.4413 43.3947 18.7304C41.9267 19.3502 40.4556 19.9636 38.9458 20.5996C39.052 20.7891 39.0971 21.0203 39.2227 21.0749C39.9373 21.3832 40.6681 21.6626 41.4052 21.9164C41.5437 21.9645 41.7433 21.8585 41.9042 21.7943C42.7541 21.4731 43.6136 21.1648 44.4506 20.8083C45.3101 20.4454 46.1471 20.0343 47.2641 19.5172V19.5204ZM50.4768 30.0291C49.9682 29.7914 49.7718 29.724 49.6012 29.6148C48.7192 29.0367 47.8951 29.0014 46.9036 29.5088C45.5966 30.1768 44.1769 30.6329 42.8024 31.1821C42.812 31.2528 42.8056 31.3395 42.8345 31.4165C43.1082 32.1938 43.9967 31.9144 44.4956 32.3447C44.6019 32.4379 45.0172 32.1874 45.2843 32.0782C45.764 31.8855 46.2308 31.6671 46.7136 31.4808C47.8693 31.0279 49.0282 30.5879 50.4801 30.0323L50.4768 30.0291ZM11.9403 17.0571C11.4156 17.2209 11.0035 17.3012 10.6365 17.481C10.4498 17.5741 10.2792 17.8279 10.2406 18.0366C10.218 18.149 10.4659 18.3739 10.6333 18.4445C11.0196 18.6083 11.4317 18.7111 11.9371 18.8749V17.0538L11.9403 17.0571ZM15.0854 11.5683C15.2206 11.5201 15.3558 11.4719 15.4878 11.4237C15.4524 11.109 15.4202 10.7943 15.3848 10.4827C15.0854 10.5213 14.786 10.5566 14.1518 10.6369C14.6218 11.1058 14.8536 11.337 15.0854 11.5683Z" fill="black"/>
</svg>
