<svg width="60" height="42" viewBox="0 0 60 42" fill="none" xmlns="http://www.w3.org/2000/svg">
<path d="M22.9149 6.92349C22.9523 6.25266 22.9835 5.88202 22.9897 5.51138C23.0271 3.87872 23.1705 3.77458 24.7694 3.25078C26.0036 2.84644 27.1848 2.28589 28.3879 1.79885C29.0455 1.53235 29.6969 1.24748 30.3701 1.03C30.5883 0.959544 30.8906 1.02387 31.1213 1.1127C33.035 1.83867 34.9549 2.54932 36.8436 3.33655C38.695 4.1054 40.5089 4.96001 42.3416 5.77175C42.9961 6.05969 43.6381 6.39663 44.3176 6.5988C45.1622 6.84998 45.2869 7.42891 45.2807 8.15794C45.2682 10.391 45.2838 12.6271 45.2713 14.8601C45.2682 15.3931 45.3212 15.871 45.8604 16.1466C46.0411 16.2385 46.2282 16.3304 46.4214 16.3978C47.0479 16.6184 47.6899 16.8113 48.3101 17.0503C48.84 17.2555 48.6997 17.7548 48.7029 18.1499C48.7184 20.2145 48.7122 22.2821 48.7122 24.3467C48.7122 24.8521 48.7184 25.3575 48.7153 25.8629C48.7153 26.2918 48.893 26.5705 49.3262 26.7114C49.8841 26.8922 50.4233 27.1311 50.9843 27.2996C51.6575 27.5017 51.9723 27.9888 51.9817 28.6075C52.0097 31.0519 52.0004 33.4963 51.9879 35.9407C51.9848 36.6391 51.5983 37.1384 50.9874 37.4478C50.4638 37.7112 49.9308 37.99 49.3667 38.1309C47.9642 38.4801 46.6832 39.1049 45.3991 39.7298C44.7415 40.0514 44.0402 40.0882 43.4044 39.8278C40.8393 38.7772 38.3054 37.6591 35.7496 36.5901C34.7492 36.1704 33.7207 35.8212 32.7077 35.4292C31.4485 34.9421 30.1925 34.449 28.9396 33.9527C27.1817 33.2574 25.4239 32.5621 23.6723 31.8514C22.1887 31.248 20.7238 30.6078 19.2371 30.0135C17.4512 29.2967 15.6529 28.6045 13.8576 27.9061C11.8006 27.1066 9.72482 26.3439 7.69581 25.477C7.36544 25.3361 7.05065 24.748 7.0413 24.3589C6.98208 21.789 6.99455 19.2159 7.02883 16.6459C7.03195 16.3733 7.25635 15.9874 7.49322 15.8556C8.30046 15.4115 9.13575 14.9888 10.0084 14.6916C10.9528 14.37 11.2832 14.0913 11.2925 13.1417C11.305 11.8766 11.3019 10.6115 11.2863 9.34645C11.2801 8.78283 11.439 8.44588 12.0499 8.21921C13.8233 7.56063 15.5594 6.80403 17.3079 6.08726C17.9219 5.83608 18.4798 5.33985 19.2122 5.59715C19.9228 5.84833 20.6116 6.15465 21.3191 6.41501C21.7804 6.58349 22.2541 6.7152 22.9087 6.92043L22.9149 6.92349ZM7.98567 17.084C7.98567 18.0243 7.98567 18.9402 7.98567 19.8592C7.98567 21.2039 7.98567 22.5486 7.98878 23.8964C7.98878 24.4661 8.03554 24.944 8.82408 25.0573C9.47236 25.1492 10.1362 25.3912 10.7066 25.7159C11.7974 26.3408 12.9382 26.7696 14.1693 27.0147C14.2316 26.8646 14.3189 26.7482 14.3189 26.6318C14.3376 24.4049 14.3563 22.1749 14.3345 19.948C14.3345 19.7152 14.1132 19.3629 13.9044 19.2741C12.0593 18.4899 10.1923 17.7548 8.33163 17.0074C8.30046 16.9951 8.25059 17.0227 7.98255 17.087L7.98567 17.084ZM30.7005 7.88839C30.7005 10.4339 30.6943 12.9089 30.7161 15.3839C30.7161 15.5401 30.8906 15.7454 31.0402 15.8434C31.3519 16.0486 31.6948 16.2202 32.0407 16.3611C33.4308 16.9247 34.8271 17.4852 36.2327 18.0121C36.4634 18.0979 36.7564 18.0243 37.0743 18.0243C37.0743 16.2355 37.0743 14.5538 37.0743 12.8721C37.0743 12.1982 37.068 11.5243 37.0649 10.8535C37.0649 10.4921 36.987 10.2286 36.5382 10.1337C36.1392 10.0479 35.7777 9.80592 35.3881 9.65889C33.9045 9.0922 32.4179 8.53777 30.7036 7.89145L30.7005 7.88839ZM28.8679 32.9786V31.4991C28.8679 29.7715 28.8679 28.0439 28.8679 26.3163C28.8679 25.1033 28.8055 25.0236 27.6773 24.5672C26.2747 24.0005 24.8784 23.4247 23.4759 22.858C22.8806 22.616 22.5346 22.7906 22.5284 23.3971C22.5066 25.5046 22.5191 27.612 22.5222 29.7194C22.5222 30.2279 22.7123 30.5434 23.2577 30.7456C25.0561 31.4134 26.8233 32.1577 28.871 32.9786H28.8679ZM15.0108 19.6968C15.0108 22.1933 15.0046 24.4937 15.0139 26.7941C15.0139 27.4006 15.5001 27.6089 15.977 27.805C16.7905 28.1389 17.5821 28.5309 18.4174 28.7944C19.3431 29.0823 20.1503 29.8542 21.2568 29.5387C21.3066 29.4162 21.3939 29.3059 21.3939 29.1926C21.4095 27.0514 21.4064 24.9103 21.422 22.7661C21.4282 22.0891 20.9763 21.8226 20.4371 21.6113C19.5457 21.2621 18.6668 20.8823 17.766 20.5606C16.9152 20.2574 16.0425 20.0185 15.0139 19.6968H15.0108ZM19.128 12.5903C19.128 14.9306 19.1249 17.28 19.128 19.6264C19.128 20.1318 19.474 20.2972 19.9197 20.4626C21.7118 21.1334 23.4821 21.8563 25.4083 22.6221C25.455 22.178 25.5298 21.7798 25.533 21.3816C25.5517 19.5712 25.5579 17.764 25.5485 15.9537C25.5423 14.808 25.2743 14.5262 24.1834 14.1832C23.3512 13.9228 22.572 13.4878 21.7305 13.2765C20.8952 13.0682 20.2407 12.2289 19.1249 12.5903H19.128ZM43.9716 35.0371C43.9716 34.1089 43.9405 33.1808 43.981 32.2527C44.0121 31.5083 43.6413 31.0825 42.993 30.8252C41.9333 30.4056 40.8736 29.9951 39.8108 29.5816C39.3464 29.4009 38.8945 29.1681 38.4145 29.0701C37.6696 28.92 37.5667 29.0027 37.5574 29.7286C37.5355 31.7105 37.5605 33.6924 37.5418 35.6742C37.5355 36.3205 37.8597 36.685 38.4145 36.924C39.2685 37.2916 40.1131 37.6836 40.9827 38.0175C41.6808 38.2871 42.3946 38.5536 43.127 38.6914C43.7877 38.817 43.9529 38.624 43.9685 37.944C43.9903 36.973 43.9747 36.005 43.9747 35.034L43.9716 35.0371ZM32.8386 25.4157C32.8854 25.3391 32.9633 25.2687 32.9664 25.2013C32.9944 22.8519 33.0287 20.4994 33.0163 18.1499C33.0163 17.9325 32.7638 17.6292 32.5456 17.5128C31.9566 17.2004 31.327 16.9614 30.7099 16.7041C29.6689 16.2722 28.6372 15.8219 27.5807 15.439C27.0041 15.2308 26.6519 15.4758 26.6488 16.0609C26.6301 18.1622 26.6394 20.2604 26.6488 22.3618C26.6488 22.763 26.7952 23.0724 27.2285 23.2378C29.1047 23.9515 30.9717 24.6867 32.8417 25.4157H32.8386ZM29.6533 15.1603C29.7686 14.9122 29.8652 14.8019 29.8652 14.6886C29.8839 12.4984 29.8964 10.3083 29.9026 8.11812C29.9026 7.70153 29.7312 7.44729 29.298 7.26963C28.0513 6.76115 26.8358 6.16996 25.5953 5.6431C25.0436 5.40724 24.4546 5.25101 23.7876 5.0274V12.9058C25.7605 13.6655 27.7022 14.4098 29.6502 15.1603H29.6533ZM30.2735 25.7619C30.2579 25.8017 30.1707 25.9089 30.1707 26.0192C30.152 28.3349 30.1426 30.6537 30.127 32.9694C30.127 33.3646 30.3109 33.53 30.6849 33.6862C32.3056 34.3571 33.9014 35.0861 35.5097 35.7814C36.0551 36.0173 36.3948 35.8029 36.4011 35.1596C36.4229 33.0522 36.4229 30.9447 36.3886 28.8373C36.3855 28.5463 36.2234 28.1634 35.999 27.9857C35.6499 27.71 35.2011 27.5415 34.771 27.3823C33.2874 26.8309 31.7945 26.304 30.2735 25.7588V25.7619ZM12.1528 17.3811C14.2005 18.202 16.1796 18.9954 18.1431 19.7826C18.1992 19.7366 18.2585 19.7121 18.2585 19.6876C18.2896 17.2555 18.3239 14.8234 18.3208 12.3912C18.3208 12.2227 18.0621 11.9899 17.8689 11.898C16.6565 11.3191 15.4409 10.7524 14.2036 10.2256C13.5802 9.96214 12.9132 9.79673 12.1496 9.54861V17.378L12.1528 17.3811ZM34.397 18.2633C34.3315 18.4134 34.2411 18.5267 34.2411 18.637C34.2224 20.9098 34.2193 23.1857 34.2037 25.4586C34.2037 25.8476 34.3752 26.0682 34.7367 26.2183C36.0146 26.7451 37.2769 27.3057 38.5578 27.8264C39.1189 28.0562 39.7079 28.2216 40.512 28.4911C40.512 27.7223 40.512 27.1464 40.512 26.5705C40.512 24.8429 40.5183 23.1153 40.5027 21.3907C40.4996 21.0324 40.5245 20.6893 40.0134 20.4963C38.134 19.7918 36.2826 19.0199 34.4001 18.2633H34.397ZM31.8475 7.08278C32.2869 7.37378 32.5893 7.63721 32.9415 7.79343C34.2069 8.35705 35.4847 8.89616 36.7657 9.41996C37.2956 9.63744 37.8036 9.58231 38.3615 9.32807C39.5801 8.77057 40.858 8.33561 42.0922 7.81181C42.4818 7.6464 42.8184 7.35234 43.2485 7.07053C41.6372 6.39051 40.2128 5.77481 38.776 5.18669C37.9563 4.85281 37.0867 4.83749 36.2826 5.15912C34.852 5.7258 33.4557 6.37826 31.8475 7.08278ZM36.4073 4.18504C34.6058 3.44988 33.1409 2.85257 31.6792 2.25526C30.9686 1.96426 30.2424 1.98263 29.5473 2.24913C28.0014 2.84338 26.4742 3.47745 24.6852 4.20035C25.3304 4.54036 25.7729 4.81911 26.2498 5.01515C27.3344 5.46237 28.4627 5.81464 29.5162 6.31699C30.1208 6.60493 30.6008 6.65088 31.2023 6.35988C31.8818 6.03212 32.6173 5.82382 33.3186 5.53282C34.2723 5.13461 35.2105 4.70884 36.4104 4.18504H36.4073ZM13.0629 8.70012C13.5896 9.04932 13.9075 9.34032 14.2846 9.49348C15.6373 10.0479 17.0087 10.5625 18.3769 11.0741C18.5546 11.1415 18.7977 11.1843 18.9597 11.1169C20.1161 10.6391 21.2474 10.0969 22.4162 9.6497C22.9461 9.44753 22.9928 9.11058 22.9803 8.66949C22.9679 8.26515 22.8868 7.98028 22.4162 7.81487C21.6744 7.5545 20.9887 7.14098 20.247 6.86836C19.4148 6.56511 18.5701 6.40582 17.6788 6.80097C16.2357 7.4381 14.7584 8.00479 13.0629 8.69399V8.70012ZM46.6333 17.3106C46.0754 17.0411 45.5705 16.744 45.0251 16.554C44.7757 16.4683 44.4391 16.5479 44.1649 16.6275C43.8968 16.7072 43.6631 16.8971 43.4013 17.0104C41.9115 17.6445 40.4154 18.2663 38.7043 18.9862C39.203 19.2067 39.4804 19.2956 39.7204 19.4395C40.5183 19.9174 41.2632 19.9817 42.1203 19.4855C42.7623 19.1118 43.5758 19.026 44.2397 18.6768C45.05 18.251 46.1471 18.2633 46.6365 17.3106H46.6333ZM50.1054 28.099C49.5101 27.7407 49.1922 27.4895 48.8306 27.3486C48.0265 27.0361 47.2193 27.2046 46.4339 27.468C46.0848 27.5875 45.7575 27.759 45.4209 27.9091C44.3706 28.3717 43.3233 28.8342 42.2044 29.3243C43.4169 30.28 44.5108 30.3903 45.8199 29.7317C47.0728 29.1007 48.4535 28.7147 50.1085 28.099H50.1054ZM22.8993 12.673C22.9398 12.0573 22.9897 11.7326 22.9741 11.411C22.9429 10.7065 22.6655 10.5013 22.0079 10.7616C21.4563 10.9822 20.9513 11.3161 20.2719 11.6775C21.1913 12.0267 21.9425 12.3085 22.8962 12.67L22.8993 12.673ZM8.97991 16.1466C9.57209 16.4346 9.99597 16.6827 10.451 16.8389C10.6505 16.9063 11.0993 16.8328 11.1274 16.7378C11.2271 16.3978 11.3019 15.972 11.1679 15.6749C11.09 15.5003 10.5601 15.3839 10.2952 15.4574C9.86507 15.5738 9.48794 15.8679 8.97991 16.1466Z" fill="black"/>
</svg>
