<svg width="54" height="44" viewBox="0 0 54 44" fill="none" xmlns="http://www.w3.org/2000/svg">
<rect width="17.3319" height="20.9989" transform="matrix(1 0 0 -1 1 42.998)" stroke="black"/>
<rect width="12.998" height="16.7991" transform="matrix(1 0 0 -1 3.42188 40.7736)" stroke="black"/>
<rect width="17.3319" height="20.9989" transform="matrix(1 0 0 -1 18.3281 42.998)" fill="black" stroke="black"/>
<rect width="17.3319" height="20.9989" transform="matrix(1 0 0 -1 35.6641 42.998)" stroke="black"/>
<rect width="12.998" height="16.7991" transform="matrix(1 0 0 -1 38.0859 40.7736)" stroke="black"/>
<path d="M18 21.9989V22.4989H17.5V21.9989H18ZM18 0.99999H17.5V0.49999H18V0.99999ZM18 21.4989H35.3319V22.4989H18V21.4989ZM35.3319 1.49999H18V0.49999H35.3319V1.49999ZM18.5 0.99999V21.9989H17.5V0.99999H18.5Z" fill="black"/>
<rect width="12.998" height="16.7991" transform="matrix(1 0 0 -1 20.4219 19.7744)" stroke="black"/>
<rect width="17.3319" height="20.9989" transform="matrix(1 0 0 -1 35.6641 21.9989)" stroke="black"/>
<rect width="12.998" height="16.7991" transform="matrix(1 0 0 -1 38.0859 19.7744)" stroke="black"/>
</svg>
