<svg width="36" height="45" viewBox="0 0 36 45" fill="none" xmlns="http://www.w3.org/2000/svg">
<path fill-rule="evenodd" clip-rule="evenodd" d="M4 0C1.79086 0 0 1.79086 0 4V41C0 43.2091 1.79086 45 4 45H32C34.2091 45 36 43.2091 36 41V4C36 1.79086 34.2091 0 32 0H4ZM26.3231 22.3657L26.3218 22.3633L26.2698 22.2741C25.3075 20.5716 24.116 19.0566 22.9627 17.5901L22.9471 17.5703L22.9351 17.555C22.1206 16.5197 21.2778 15.4485 20.5479 14.3443L19.941 13.4389L19.9024 13.3813C19.3711 12.5903 18.8676 11.8407 18.3898 11.0746C18.2835 10.9043 18.0948 10.8002 17.8916 10.8002C17.6889 10.8002 17.5003 10.9049 17.3952 11.0746C17.1981 11.3909 17.0033 11.7098 16.808 12.0294C16.7763 12.0812 16.7447 12.133 16.713 12.1848C15.775 13.7207 14.8049 15.3073 13.6958 16.6568C13.4745 16.9257 12.0839 18.7345 11.8222 19.0749L11.7976 19.1068L11.7738 19.1383C11.4325 19.5893 11.0799 20.0553 10.7551 20.5438L10.7447 20.5598C10.0937 21.559 9.35879 22.6872 8.94922 23.7663C8.64493 24.5567 8.50301 25.4524 8.56024 26.2272C8.70217 28.1037 9.51516 29.3911 10.9811 30.0544C11.3625 30.2224 12.415 30.6273 13.7922 30.5698C14.7523 30.5215 15.4526 30.063 15.9987 29.5234L15.9812 29.5953C15.8352 30.1758 15.577 30.728 15.327 31.2618L15.2009 31.5345C15.0776 31.7928 14.9433 32.0298 14.809 32.2656L14.7272 32.4118C14.6869 32.4791 14.6442 32.5455 14.6013 32.6122L14.5882 32.6327L14.587 32.6345C14.443 32.8584 14.2796 33.1127 14.1776 33.4115C14.1186 33.5858 14.1473 33.7768 14.2553 33.9275C14.3639 34.0777 14.538 34.1668 14.7249 34.1697L15.3568 34.1772C15.4527 34.1783 15.5484 34.1794 15.6439 34.1805C16.5038 34.1904 17.3516 34.2002 18.19 34.2002C19.4282 34.2002 20.4474 34.1806 21.4 34.1369C21.6021 34.1277 21.7837 34.0167 21.8824 33.8424C21.9811 33.6687 21.9811 33.4576 21.8836 33.2833C21.7716 33.0843 21.6569 32.8871 21.5406 32.6873L21.4981 32.6142L21.4977 32.6136C20.9465 31.6692 20.3825 30.703 20.0613 29.5246C20.3633 29.8076 20.7003 30.0619 21.0893 30.2494C21.6681 30.5313 22.4781 30.6043 23.464 30.476C25.8084 30.1804 27.2527 28.7066 27.4268 26.4361C27.575 24.5817 26.9103 23.4052 26.3231 22.3657Z" fill="black"/>
</svg>
