<svg width="60" height="42" viewBox="0 0 60 42" fill="none" xmlns="http://www.w3.org/2000/svg">
<path d="M29.9349 35.9805C21.8902 36.2022 14.9354 29.5476 15.0005 20.9824C15.0655 12.3617 21.6723 5.92886 30.1658 6.00059C38.3796 6.06906 44.9246 12.4139 44.9994 20.9726C45.0775 29.753 37.7322 36.3718 29.9381 35.9838L29.9349 35.9805ZM44.1243 21.1454C44.4073 13.2258 37.9209 6.76354 30.0129 6.7831C21.9878 6.80267 15.8722 13.1736 15.8527 20.9791C15.8332 28.9053 22.0561 35.198 29.9349 35.2893C37.6867 35.3806 44.2967 28.9836 44.1243 21.1487V21.1454Z" fill="black"/>
<path d="M34.1967 30.5545C32.9784 30.5947 32.1027 30.5861 32.21 31.7687C32.2585 32.3025 31.3378 32.5293 30.7009 32.3111C29.6279 31.9409 28.9322 32.2078 28.2365 33C28.2365 32.3657 28.1811 31.7285 28.2469 31.1028C28.3888 29.7968 27.9492 29.5011 26.4609 29.9604C25.9383 30.1211 25.5541 30.1584 25.6718 29.5012C25.7721 28.9529 25.8102 28.3932 25.7964 27.8393C25.7894 27.5924 25.6545 27.2997 25.4606 27.1131C25.0938 26.7572 24.6265 26.473 24.2354 26.1343C24.1073 26.0253 24.0761 25.8358 24 25.6866C24.1558 25.6435 24.3531 25.5258 24.4673 25.566C25.8206 26.0339 26.5301 25.0666 27.2674 24.5385C27.7381 24.2026 27.6654 23.3444 27.7623 23C27.9423 23.3014 28.2261 23.8439 28.5861 24.3462C28.7938 24.6332 29.0776 24.6849 29.3753 24.3347C29.5622 24.1165 29.8841 23.9702 30.1679 23.8238C30.5867 23.6056 31.0297 23.4191 31.4624 23.2181C31.182 23.9615 32.1165 23.6688 32.3727 23.9529C32.7119 24.3289 33.1757 24.6762 32.6876 25.2187C32.6357 25.2761 32.8503 25.5976 33.0234 25.6837C33.4076 25.876 33.8298 26.0454 34.2625 26.1315C34.6882 26.2147 35.1485 26.1831 36 26.2176C35.4254 26.5362 35.1866 26.7687 34.9132 26.8002C33.6014 26.9466 33.3556 28.1005 32.4107 28.5855C32.338 28.6229 32.4107 29.0161 32.5457 29.1481C33.0061 29.593 33.5287 29.9948 34.2002 30.5631L34.1967 30.5545Z" fill="black"/>
<path d="M28.5517 21C28.5948 20.1892 28.6345 19.3818 28.6841 18.571C28.747 17.512 28.1611 17.0752 27.1514 17.4392C27.0025 17.4922 26.8966 17.6709 26.7509 17.7106C26.5059 17.7801 26.2411 17.7834 25.9862 17.8165C26.0557 17.5848 26.1583 17.3598 26.1848 17.1249C26.2709 16.377 26.5092 15.586 26.3404 14.8944C26.208 14.3484 25.5757 13.9116 25.1388 13.4516C24.8508 13.1504 24.5164 12.8956 24 12.4455C25.1884 12.3959 26.059 12.8691 27.0025 12.0054C27.7374 11.3303 28.2472 10.8207 28.1181 10C28.3597 10.3442 28.6543 10.7711 28.9589 11.1913C29.2899 11.648 29.4124 11.5223 29.7468 11.0887C30.389 10.2548 31.2993 10.0629 32.1832 10.5129C32.5605 10.7049 32.9677 11.1682 33.0406 11.5686C33.2988 12.9618 33.4775 13.2034 34.8314 13.3324C35.0996 13.3589 35.3644 13.392 36 13.4681C35.4273 13.7957 35.1261 13.938 34.8612 14.1267C34.0568 14.6992 33.2458 15.265 32.491 15.9004C32.4016 15.9765 32.5804 16.5193 32.7625 16.741C33.1928 17.2638 33.7026 17.7238 34.3581 18.3956C33.7721 18.4287 33.4643 18.4519 33.1597 18.4651C32.6301 18.4883 32.4314 18.6868 32.4281 19.2825C32.4215 20.3315 32.2262 20.4904 31.157 20.3381C30.2102 20.2025 29.3462 20.1363 28.5517 21Z" fill="black"/>
</svg>
