<svg width="464" height="352" viewBox="0 0 465 352" fill="none" xmlns="http://www.w3.org/2000/svg">
<path d="M306.146 217.016H158.117V328.454H306.146V217.016Z" fill="white"/>
<path fill-rule="evenodd" clip-rule="evenodd" d="M302.638 220.325H161.391V325.112H302.638V220.325ZM306.029 217V328.438H158V217H306.029Z" fill="#0070F3"/>
<path d="M222.954 284.857C222.988 273.129 225.97 269.495 231.476 265.96C235.81 263.196 239.104 260.498 239.104 256.272C239.104 252.047 235.843 249.416 231.755 249.416C227.667 249.416 223.959 252.326 223.848 257.131H207.898C208.111 242.593 218.855 236.127 231.889 236.127C246.174 236.127 256.539 242.905 256.539 255.47C256.539 263.742 252.138 268.759 245.482 272.661C240.244 275.771 237.719 278.714 237.719 284.835V286.251H222.954V284.835V284.857ZM221.603 299.974C221.536 295.058 225.623 291.078 230.616 291.078C235.608 291.078 239.562 295.058 239.629 299.974C239.562 304.958 235.363 308.971 230.616 308.971C225.623 308.971 221.536 304.958 221.603 299.974Z" fill="#0070F3"/>
<path d="M86.3194 27.6049C87.1071 26.3839 88.8929 26.3839 89.6806 27.6049L107.3 54.9157C107.726 55.5759 107.726 56.4241 107.3 57.0843L89.6806 84.3951C88.8929 85.6161 87.1071 85.6161 86.3194 84.3951L68.6995 57.0843C68.2736 56.4241 68.2736 55.5759 68.6995 54.9157L86.3194 27.6049Z" fill="black"/>
<path fill-rule="evenodd" clip-rule="evenodd" d="M52 107H124C125.105 107 126 107.895 126 109V201C126 202.105 125.105 203 124 203H52C50.8954 203 50 202.105 50 201V109C50 107.895 50.8954 107 52 107ZM48 109C48 106.791 49.7909 105 52 105H124C126.209 105 128 106.791 128 109V201C128 203.209 126.209 205 124 205H52C49.7909 205 48 203.209 48 201V109ZM89.6806 126.605C88.8929 125.384 87.1071 125.384 86.3194 126.605L68.6995 153.916C68.2736 154.576 68.2736 155.424 68.6995 156.084L86.3194 183.395C87.1071 184.616 88.8929 184.616 89.6806 183.395L107.3 156.084C107.726 155.424 107.726 154.576 107.3 153.916L89.6806 126.605Z" fill="black"/>
<path fill-rule="evenodd" clip-rule="evenodd" d="M52 223C49.7909 223 48 224.791 48 227V319C48 321.209 49.7909 323 52 323H124C126.209 323 128 321.209 128 319V227C128 224.791 126.209 223 124 223H52ZM89.6806 244.605C88.8929 243.384 87.1071 243.384 86.3194 244.605L68.6995 271.916C68.2736 272.576 68.2736 273.424 68.6995 274.084L86.3194 301.395C87.1071 302.616 88.8929 302.616 89.6806 301.395L107.3 274.084C107.726 273.424 107.726 272.576 107.3 271.916L89.6806 244.605Z" fill="black"/>
<path d="M234 78C233.737 78 233.474 77.932 233.238 77.7958C232.982 77.6481 226.902 74.1155 220.734 68.7926C217.078 65.638 214.16 62.509 212.061 59.4928C209.344 55.5899 207.978 51.8357 208 48.3345C208.026 44.2604 209.484 40.429 212.107 37.546C214.774 34.6144 218.333 33 222.128 33C226.993 33 231.44 35.7265 234 40.0457C236.56 35.7266 241.007 33 245.872 33C249.458 33 252.879 34.4567 255.506 37.1017C258.389 40.0044 260.026 44.1057 260 48.3538C259.978 51.8489 258.586 55.5974 255.863 59.495C253.757 62.5096 250.843 65.6371 247.202 68.7909C241.057 74.1132 235.02 77.6457 234.766 77.7935C234.529 77.9311 234.264 78 234 78Z" fill="black"/>
<path fill-rule="evenodd" clip-rule="evenodd" d="M198 107H270C271.105 107 272 107.895 272 109V201C272 202.105 271.105 203 270 203H198C196.895 203 196 202.105 196 201V109C196 107.895 196.895 107 198 107ZM194 109C194 106.791 195.791 105 198 105H270C272.209 105 274 106.791 274 109V201C274 203.209 272.209 205 270 205H198C195.791 205 194 203.209 194 201V109ZM233.238 176.796C233.474 176.932 233.737 177 234 177C234.264 177 234.529 176.931 234.766 176.794C235.02 176.646 241.057 173.113 247.202 167.791C250.843 164.637 253.757 161.51 255.863 158.495C258.586 154.597 259.978 150.849 260 147.354C260.026 143.106 258.389 139.004 255.506 136.102C252.879 133.457 249.458 132 245.872 132C241.007 132 236.56 134.727 234 139.046C231.44 134.727 226.993 132 222.128 132C218.333 132 214.774 133.614 212.107 136.546C209.484 139.429 208.026 143.26 208 147.335C207.978 150.836 209.344 154.59 212.061 158.493C214.16 161.509 217.078 164.638 220.734 167.793C226.902 173.115 232.982 176.648 233.238 176.796Z" fill="black"/>
<path d="M395.498 55.6958C396.803 58.007 398.283 60.6224 397.953 64.7463C397.567 69.7919 394.357 73.067 389.147 73.7241C386.956 74.0091 385.156 73.8468 383.87 73.2204C383.006 72.8037 382.257 72.2387 381.586 71.6097C382.299 74.229 383.553 76.3766 384.778 78.4756C385.069 78.9755 385.356 79.4663 385.635 79.9623C385.852 80.3497 385.852 80.8188 385.632 81.2049C385.413 81.5922 385.009 81.8389 384.56 81.8594C382.444 81.9565 380.179 82 377.427 82C375.357 82 373.261 81.9732 371.131 81.9489L369.727 81.9322C369.312 81.9259 368.925 81.7277 368.683 81.3941C368.443 81.0591 368.38 80.6347 368.511 80.2474C368.738 79.5814 369.103 79.0151 369.423 78.5165C369.528 78.3529 369.633 78.1906 369.732 78.0257L369.914 77.701C370.212 77.1768 370.511 76.6502 370.785 76.0762L371.065 75.4703C371.62 74.284 372.194 73.0568 372.519 71.7669C372.532 71.7133 372.545 71.6608 372.558 71.6072C371.344 72.8062 369.788 73.8251 367.654 73.9324C364.594 74.0603 362.255 73.1603 361.407 72.7871C358.15 71.3131 356.343 68.4522 356.028 64.2823C355.9 62.5604 356.216 60.57 356.892 58.8136C357.807 56.4027 359.453 53.8818 360.905 51.6524C361.644 50.5415 362.447 49.4831 363.222 48.4591C363.623 47.9376 366.93 43.6347 367.44 43.0147C369.905 40.0157 372.06 36.4901 374.145 33.0769C374.65 32.2511 375.152 31.4266 375.661 30.6098C375.894 30.2327 376.314 30 376.764 30C377.216 30 377.635 30.2314 377.871 30.6098C378.959 32.3534 380.106 34.0587 381.318 35.8637L382.667 37.8758C384.297 40.3417 386.18 42.7335 387.999 45.0447C390.572 48.3172 393.234 51.6971 395.382 55.4976L395.498 55.6958Z" fill="black"/>
<path fill-rule="evenodd" clip-rule="evenodd" d="M341 107H413C414.105 107 415 107.895 415 109V201C415 202.105 414.105 203 413 203H341C339.895 203 339 202.105 339 201V109C339 107.895 339.895 107 341 107ZM337 109C337 106.791 338.791 105 341 105H413C415.209 105 417 106.791 417 109V201C417 203.209 415.209 205 413 205H341C338.791 205 337 203.209 337 201V109ZM395.501 154.701L395.498 154.696L395.382 154.498C393.244 150.714 390.596 147.348 388.033 144.089L387.999 144.045L387.972 144.011C386.162 141.71 384.289 139.33 382.667 136.876L381.318 134.864L381.232 134.736C380.052 132.978 378.933 131.312 377.871 129.61C377.635 129.231 377.216 129 376.764 129C376.314 129 375.894 129.233 375.661 129.61C375.223 130.313 374.79 131.022 374.356 131.732C374.285 131.847 374.215 131.962 374.145 132.077C372.06 135.49 369.905 139.016 367.44 142.015C366.948 142.613 363.855 146.636 363.275 147.389L363.222 147.459L363.169 147.529C362.41 148.531 361.627 149.567 360.905 150.652L360.882 150.688C359.435 152.909 357.802 155.415 356.892 157.814C356.216 159.57 355.9 161.56 356.028 163.282C356.343 167.452 358.15 170.313 361.407 171.787C362.255 172.16 364.594 173.06 367.654 172.932C369.788 172.825 371.344 171.806 372.558 170.607C372.551 170.634 372.545 170.661 372.538 170.687C372.532 170.714 372.525 170.74 372.519 170.767C372.194 172.057 371.62 173.284 371.065 174.47L370.785 175.076C370.511 175.65 370.212 176.177 369.914 176.701L369.732 177.026C369.642 177.175 369.548 177.323 369.452 177.472L369.423 177.517L369.42 177.521C369.101 178.018 368.737 178.583 368.511 179.247C368.38 179.635 368.443 180.059 368.683 180.394C368.925 180.728 369.312 180.926 369.727 180.932L371.131 180.949C371.344 180.951 371.557 180.954 371.77 180.956C373.68 180.978 375.564 181 377.427 181C380.179 181 382.444 180.957 384.56 180.859C385.009 180.839 385.413 180.592 385.632 180.205C385.852 179.819 385.852 179.35 385.635 178.962C385.386 178.52 385.131 178.082 384.873 177.638C384.842 177.584 384.81 177.53 384.778 177.476L384.778 177.474C383.553 175.376 382.299 173.228 381.586 170.61C382.257 171.239 383.006 171.804 383.87 172.22C385.156 172.847 386.956 173.009 389.147 172.724C394.357 172.067 397.567 168.792 397.953 163.746C398.283 159.626 396.806 157.011 395.501 154.701Z" fill="black"/>
<path fill-rule="evenodd" clip-rule="evenodd" d="M341 223C338.791 223 337 224.791 337 227V319C337 321.209 338.791 323 341 323H413C415.209 323 417 321.209 417 319V227C417 224.791 415.209 223 413 223H341ZM395.501 272.701L395.498 272.696L395.382 272.498C393.244 268.714 390.596 265.348 388.033 262.089L387.999 262.045L387.972 262.011C386.162 259.71 384.289 257.33 382.667 254.876L381.318 252.864L381.232 252.736C380.052 250.978 378.933 249.312 377.871 247.61C377.635 247.231 377.216 247 376.764 247C376.314 247 375.894 247.233 375.661 247.61C375.223 248.313 374.79 249.022 374.356 249.732C374.285 249.847 374.215 249.962 374.145 250.077C372.06 253.49 369.905 257.016 367.44 260.015C366.948 260.613 363.855 264.636 363.275 265.389L363.222 265.459L363.169 265.529C362.41 266.531 361.627 267.567 360.905 268.652L360.882 268.688C359.435 270.909 357.802 273.415 356.892 275.814C356.216 277.57 355.9 279.56 356.028 281.282C356.343 285.452 358.15 288.313 361.407 289.787C362.255 290.16 364.594 291.06 367.654 290.932C369.788 290.825 371.344 289.806 372.558 288.607C372.551 288.634 372.545 288.661 372.538 288.687C372.532 288.714 372.525 288.74 372.519 288.767C372.194 290.057 371.62 291.284 371.065 292.47L370.785 293.076C370.511 293.65 370.212 294.177 369.914 294.701L369.732 295.026C369.642 295.175 369.548 295.323 369.452 295.472L369.423 295.517L369.42 295.521C369.101 296.018 368.737 296.583 368.511 297.247C368.38 297.635 368.443 298.059 368.683 298.394C368.925 298.728 369.312 298.926 369.727 298.932L371.131 298.949C371.344 298.951 371.557 298.954 371.77 298.956C373.68 298.978 375.564 299 377.427 299C380.179 299 382.444 298.957 384.56 298.859C385.009 298.839 385.413 298.592 385.632 298.205C385.852 297.819 385.852 297.35 385.635 296.962C385.386 296.52 385.131 296.082 384.873 295.638C384.842 295.584 384.81 295.53 384.778 295.476L384.778 295.474C383.553 293.376 382.299 291.228 381.586 288.61C382.257 289.239 383.006 289.804 383.87 290.22C385.156 290.847 386.956 291.009 389.147 290.724C394.357 290.067 397.567 286.792 397.953 281.746C398.283 277.626 396.806 275.011 395.501 272.701Z" fill="black"/>
</svg>
