<svg width="60" height="42" viewBox="0 0 60 42" fill="none" xmlns="http://www.w3.org/2000/svg">
<path d="M34.2148 27.7824C33.4901 27.4071 32.8824 27.1252 32.3162 26.7802C32.225 26.7264 32.2612 26.3892 32.3037 26.2025C32.557 25.0435 32.9383 23.897 33.0715 22.7289C33.3331 20.4147 32.8069 18.2128 31.7244 16.1614C31.4834 15.7043 31.4274 15.4368 31.9368 15.185C32.2707 15.0194 32.5715 14.7871 32.8774 14.576C33.2265 14.3311 33.4743 14.486 33.6285 14.7911C34.3738 16.2436 34.9574 17.7503 35.2338 19.372C35.5292 21.1259 35.5108 22.8777 35.1482 24.6094C34.9293 25.645 34.5553 26.6421 34.2131 27.7865L34.2148 27.7824Z" fill="black"/>
<path fill-rule="evenodd" clip-rule="evenodd" d="M26.386 18.5812C26.6339 18.4297 26.8765 18.2802 27.1156 18.1328C27.8996 17.6497 28.6453 17.1901 29.4093 16.7626C29.5101 16.7061 29.8905 16.9182 29.9784 17.0898C30.7941 18.6443 31.2375 20.3097 31.1151 22.0594C31.0613 22.8428 30.8901 23.6175 30.7191 24.3915C30.6525 24.6928 30.586 24.994 30.5264 25.2956C30.4528 25.6644 30.2426 25.7643 29.8932 25.5798L29.1571 25.1938C27.6843 24.4214 26.2114 23.649 24.7309 22.8943C24.2683 22.6588 23.7971 22.4434 23.3249 22.2275L23.3249 22.2275L23.3249 22.2275L23.3248 22.2275L23.3248 22.2275C23.035 22.095 22.7448 21.9623 22.4561 21.8247C21.8742 21.5493 21.8517 21.3917 22.3736 21.0451C22.8615 20.722 25.79 18.9338 26.386 18.5812ZM26.7615 22.2446C27.5203 22.2446 28.1355 21.6294 28.1355 20.8705C28.1355 20.1116 27.5203 19.4964 26.7615 19.4964C26.0026 19.4964 25.3874 20.1116 25.3874 20.8705C25.3874 21.6294 26.0026 22.2446 26.7615 22.2446Z" fill="black"/>
</svg>
