<svg width="60" height="42" viewBox="0 0 60 42" fill="none" xmlns="http://www.w3.org/2000/svg">
<path fill-rule="evenodd" clip-rule="evenodd" d="M43.225 7.01081H30.0466V7.0144C28.8364 7.0144 27.626 7.016 26.4154 7.0176C23.187 7.02187 19.9576 7.02614 16.7303 7.00005C15.8353 6.99288 15 7.71018 15 8.64985C15.0298 16.8881 15.0261 25.1263 15 33.3645C14.9963 34.2648 15.8801 35 16.7228 35C25.5681 34.9821 34.417 34.9785 43.2623 35C44.1311 35 45 34.1823 45 33.3251C44.9766 26.875 44.9784 20.4271 44.9803 13.978C44.9808 12.2188 44.9814 10.4595 44.9814 8.70006C44.9814 7.61693 44.3512 7.01081 43.225 7.01081ZM16.6781 7.60618H29.9981H43.225C44.0864 7.60618 44.3474 7.85723 44.3474 8.6893C44.3474 10.3311 44.3471 11.973 44.3468 13.6148C44.3456 20.1825 44.3444 26.7502 44.3623 33.3179C44.3661 33.9348 43.9149 34.3903 43.2697 34.3903C36.167 34.3731 29.0618 34.3742 21.9581 34.3754C20.1818 34.3757 18.4056 34.3759 16.6296 34.3759C16.0218 34.3759 15.6526 34.0316 15.6526 33.4614V8.56378C15.6526 7.90027 15.9696 7.60618 16.6781 7.60618ZM29.9601 21.1038C29.9642 21.0375 29.9686 20.9678 29.9726 20.8935L29.9761 20.89H30.5233L37.8842 20.89C38.5091 20.89 38.9892 20.4878 38.9998 19.9504C39.0104 19.4094 38.5656 19.0107 37.923 19.0107C36.9474 19.0096 35.9721 19.0104 34.997 19.0111C33.0473 19.0127 31.0987 19.0143 29.15 19.0001C28.3451 18.993 28.0203 19.5304 28.0168 20.0714C27.9921 23.0184 27.9991 25.9654 28.0097 28.9124C28.0132 29.4961 28.4122 29.9481 28.8923 29.9944C29.5207 30.0549 29.9408 29.6242 29.9408 28.891L29.9408 21.5591C29.9408 21.4142 29.9498 21.2694 29.9601 21.1038Z" fill="black"/>
</svg>
