<svg width="60" height="42" viewBox="0 0 60 42" fill="none" xmlns="http://www.w3.org/2000/svg">
<path d="M29.5482 6.0112C34.0874 6.0112 38.6266 6.0112 43.1658 6.0112C44.3295 6.0112 44.9807 6.63896 44.9807 7.76078C44.9807 16.2635 44.9692 24.7625 45 33.2653C45 34.1531 44.1022 35 43.2044 35C34.0643 34.9777 24.9203 34.9814 15.7802 35C14.9094 35 13.9962 34.2385 14 33.3061C14.027 24.7737 14.0308 16.2412 14 7.70877C14 6.73554 14.8632 5.99263 15.788 6.00006C20.3734 6.0372 24.9627 6.01491 29.5482 6.01491V6.0112ZM29.4981 6.62782C24.9088 6.62782 20.3233 6.62782 15.734 6.62782C15.0019 6.62782 14.6743 6.93242 14.6743 7.61962C14.6743 16.2152 14.6743 24.8108 14.6743 33.4064C14.6743 33.9971 15.0558 34.3537 15.6839 34.3537C24.8587 34.3537 34.0373 34.3462 43.2121 34.3685C43.8787 34.3685 44.3449 33.8968 44.3411 33.2578C44.318 24.7551 44.3257 16.2524 44.3257 7.74963C44.3257 6.88784 44.0559 6.62782 43.1658 6.62782C38.6112 6.62782 34.0527 6.62782 29.4981 6.62782Z" fill="black"/>
</svg>
