<svg width="464" height="352" viewBox="0 0 464 352" fill="none" xmlns="http://www.w3.org/2000/svg">
<path d="M240.08 242.548C240.08 245.925 240.08 249.289 240.08 252.666C240.08 255.314 240.256 255.476 242.769 256.26C244.092 256.665 245.349 257.259 246.632 257.786C247.794 258.259 248.253 259.056 248.24 260.366C248.172 267.053 248.253 273.753 248.199 280.44C248.159 285.182 248.51 283.993 251.779 285.519C253.238 286.195 254.818 286.641 256.223 287.411C256.764 287.708 257.277 288.586 257.291 289.207C257.358 296.907 257.331 304.607 257.345 312.321C257.345 313.375 256.885 313.928 255.953 314.307C249.969 316.725 243.957 319.075 238.041 321.655C235.987 322.547 234.461 321.588 232.799 320.926C230.192 319.886 227.679 318.602 225.072 317.562C222.06 316.36 218.966 315.374 215.967 314.172C212.901 312.929 209.929 311.47 206.876 310.2C200.864 307.701 194.799 305.296 188.788 302.797C183.425 300.555 178.143 298.164 172.766 295.962C167.363 293.746 161.851 291.774 156.488 289.464C154.192 288.478 153.759 288.762 153.786 285.601C153.84 278.576 153.813 271.551 153.786 264.513C153.786 262.987 154.029 262.001 155.84 261.487C158.487 260.744 161.014 259.529 163.58 258.461C164.728 257.989 165.35 257.246 165.296 255.8C165.161 252.153 165.255 248.492 165.255 244.845C165.255 241.967 165.363 241.846 167.971 240.846C170.767 239.779 173.536 238.671 176.305 237.55C177.184 237.199 177.697 236.658 177.67 235.537C177.589 231.43 177.67 227.324 177.616 223.231C177.602 221.907 177.913 221.042 179.277 220.515C182.925 219.11 186.518 217.584 190.138 216.111C192.584 215.112 195.002 214.058 197.487 213.153C198.109 212.923 198.973 212.923 199.581 213.167C205.309 215.395 211.036 217.638 216.724 219.988C220.047 221.353 223.262 222.96 226.572 224.352C229.935 225.77 233.366 227.054 236.757 228.404C237.581 228.729 238.513 228.958 239.162 229.499C239.662 229.931 240.04 230.782 240.053 231.457C240.134 235.172 240.094 238.874 240.094 242.589L240.08 242.548ZM206.16 270.714C206.16 267.512 206.16 264.311 206.16 261.123C206.16 260.164 205.984 259.529 204.89 259.11C200.054 257.219 195.312 255.098 190.476 253.22C187.991 252.247 187.936 252.396 187.936 255.165C187.936 261.001 187.991 266.837 187.909 272.673C187.882 274.213 188.504 274.983 189.855 275.523C194.758 277.482 199.635 279.495 204.512 281.521C205.66 281.994 206.187 281.845 206.173 280.494C206.146 277.239 206.173 273.983 206.173 270.727L206.16 270.714ZM234.988 319.656C235.123 318.927 235.339 318.265 235.339 317.603C235.366 311.537 235.325 305.458 235.379 299.393C235.393 297.894 234.852 297.029 233.448 296.462C229.138 294.732 224.883 292.882 220.574 291.126C219.588 290.72 218.534 290.504 217.21 290.112C217.21 291.099 217.21 291.693 217.21 292.301C217.21 298.312 217.291 304.337 217.156 310.349C217.115 312.118 217.885 312.848 219.317 313.415C224.451 315.441 229.571 317.508 234.988 319.683V319.656ZM197.636 253.261V250.978C197.636 245.25 197.636 239.522 197.636 233.781C197.636 230.89 197.636 230.89 194.988 229.809C190.598 228.013 186.207 226.202 181.817 224.406C179.629 223.514 179.602 223.528 179.588 225.919C179.588 231.876 179.683 237.834 179.521 243.777C179.466 245.547 180.209 246.304 181.614 246.857C185.302 248.33 188.99 249.816 192.692 251.288C194.232 251.896 195.772 252.491 197.649 253.234L197.636 253.261ZM193.84 302.77C193.921 301.933 194.015 301.352 194.015 300.771C194.015 294.476 193.975 288.181 194.056 281.886C194.069 280.562 193.516 279.994 192.435 279.562C188.072 277.792 183.735 275.982 179.385 274.213C178.386 273.807 177.346 273.51 176.346 273.172C176.197 273.483 176.116 273.591 176.116 273.686C176.089 280.656 176.062 287.627 176.116 294.597C176.116 294.989 176.589 295.57 176.981 295.746C178.994 296.637 181.061 297.421 183.1 298.272C186.599 299.731 190.098 301.203 193.867 302.797L193.84 302.77ZM226.112 290.477C226.247 289.964 226.328 289.802 226.328 289.64C226.328 282.791 226.355 275.928 226.301 269.079C226.301 268.593 225.761 267.864 225.288 267.661C221.074 265.837 216.832 264.095 212.59 262.338C211.307 261.812 210.023 261.325 208.443 260.704C208.443 261.731 208.443 262.338 208.443 262.946C208.443 269.066 208.51 275.199 208.389 281.318C208.362 282.939 209.037 283.588 210.361 284.101C213.954 285.506 217.521 286.978 221.087 288.437C222.722 289.099 224.343 289.775 226.112 290.491V290.477ZM199.959 231.876C199.959 232.943 199.959 233.538 199.959 234.146C199.959 239.482 200.081 244.831 199.919 250.154C199.838 252.99 200.067 254.855 203.458 255.881C208.281 257.327 212.847 259.664 217.656 261.677C217.75 261.123 217.872 260.758 217.872 260.38C217.872 253.693 217.872 247.006 217.899 240.319C217.899 239.171 217.197 238.806 216.318 238.455C212.806 237.037 209.294 235.591 205.782 234.173C203.971 233.443 202.148 232.727 199.973 231.863L199.959 231.876ZM197.014 304.027C202.864 306.418 208.713 308.809 214.657 311.227C214.765 310.659 214.873 310.335 214.873 310.011C214.873 303.27 214.927 296.529 214.819 289.788C214.819 289.207 214.022 288.37 213.387 288.1C209.74 286.519 206.038 285.074 202.35 283.601C200.635 282.926 198.906 282.304 197.001 281.602V304.04L197.014 304.027ZM173.739 294.3V292.341C173.739 286.046 173.685 279.751 173.779 273.47C173.793 271.984 173.09 271.443 171.902 270.971C167.133 269.079 162.364 267.175 157.609 265.216C156.083 264.594 155.813 264.662 155.799 266.242C155.772 272.754 155.772 279.278 155.84 285.79C155.84 286.33 156.38 287.154 156.866 287.37C161.068 289.194 165.323 290.923 169.565 292.652C170.861 293.179 172.158 293.679 173.725 294.287L173.739 294.3ZM185.1 273.902C185.208 273.254 185.356 272.781 185.356 272.308C185.356 265.851 185.356 259.394 185.356 252.936C185.356 251.734 184.708 251.221 183.681 250.815C180.088 249.397 176.535 247.898 172.955 246.439C171.24 245.736 169.497 245.088 167.768 244.412C167.592 244.764 167.444 244.899 167.444 245.047C167.417 252.004 167.403 258.975 167.444 265.932C167.444 266.351 168.011 266.931 168.457 267.134C170.551 268.107 172.685 268.998 174.833 269.863C178.17 271.214 181.52 272.511 185.059 273.902H185.1ZM215.792 221.839C214.765 221.366 214.089 221.029 213.387 220.745C209.51 219.151 205.579 217.692 201.783 215.949C199.649 214.963 197.825 214.639 195.636 215.855C193.583 216.99 191.233 217.597 189.044 218.502C186.572 219.516 184.141 220.596 181.358 221.785C186.086 223.771 190.409 225.689 194.812 227.391C196.501 228.053 198.163 229.174 200.229 228.283C205.268 226.121 210.348 224.082 215.792 221.839ZM201.959 230.039C202.418 230.458 202.512 230.593 202.648 230.66C207.551 232.714 212.414 234.862 217.372 236.753C218.426 237.158 219.925 236.874 221.074 236.469C224.045 235.415 226.95 234.132 229.854 232.93C231.799 232.119 233.731 231.268 235.893 230.35C234.852 229.85 234.177 229.472 233.475 229.174C230.205 227.824 226.936 226.486 223.654 225.149C221.168 224.136 218.993 222.771 215.913 224.379C211.577 226.648 206.822 228.121 201.959 230.066V230.039ZM229.017 292.368C230.435 293.003 231.381 293.436 232.326 293.854C234.555 294.854 236.663 295.705 239.175 294.273C241.202 293.111 243.566 292.544 245.754 291.652C248.199 290.653 250.604 289.572 253.441 288.356C251.968 287.708 250.86 287.357 249.888 286.776C247.51 285.357 245.2 285.182 242.836 286.776C242.512 286.992 242.134 287.114 241.769 287.262C237.703 288.897 233.623 290.531 229.003 292.382L229.017 292.368ZM244.471 259.042C242.769 258.286 241.593 257.597 240.323 257.246C239.364 256.975 238.608 256.138 237.271 256.746C233.123 258.583 228.828 260.096 224.613 261.798C223.546 262.23 222.573 262.892 221.29 263.595C223.329 264.486 224.937 265.229 226.599 265.878C227.044 266.053 227.666 266.04 228.112 265.878C232.353 264.23 236.568 262.541 240.783 260.825C241.931 260.366 243.012 259.758 244.484 259.056L244.471 259.042ZM177.44 246.087V239.009C174.59 240.225 172.01 241.319 169.038 242.589C172.118 243.872 174.644 244.926 177.44 246.101V246.087ZM158.19 262.595C158.177 262.798 158.15 263 158.136 263.203C160.392 264.095 162.648 264.986 165.12 265.959V259.758C162.675 260.758 160.433 261.677 158.19 262.595Z" fill="black"/>
<path d="M126.853 297.805C126.853 301.628 126.785 305.451 126.893 309.274C126.934 310.692 126.204 311.246 125.11 311.692C120.909 313.38 116.735 315.096 112.533 316.771C110.75 317.487 108.967 318.257 107.13 318.743C106.171 319 104.968 318.959 104.036 318.608C100.727 317.365 97.498 315.92 94.2154 314.569C88.7984 312.34 83.3543 310.179 77.9508 307.923C73.1552 305.923 68.4001 303.816 63.6045 301.83C59.6329 300.182 55.6208 298.642 51.6357 297.035C49.5824 296.211 47.5291 295.346 45.4757 294.509C44.395 294.076 43.8817 293.441 43.8952 292.144C43.9628 284.661 43.9898 277.19 43.8952 269.706C43.8682 268.072 44.6517 267.41 45.9215 266.924C48.7043 265.843 51.5412 264.857 54.2564 263.627C54.8508 263.357 55.3642 262.223 55.3777 261.48C55.4857 257.711 55.4317 253.942 55.4317 250.173C55.4317 247.484 56.0801 246.809 58.6063 245.958C61.4296 245.012 64.1989 243.918 66.9142 242.716C67.387 242.5 67.6706 241.392 67.6842 240.703C67.7517 236.88 67.7787 233.057 67.6977 229.234C67.6571 227.397 68.157 226.33 70.1022 225.627C75.2356 223.777 80.2608 221.629 85.3266 219.575C85.7319 219.413 86.0966 219.17 86.4613 218.94C88.3526 217.779 89.9466 218.684 91.7028 219.481C94.9313 220.94 98.2815 222.142 101.578 223.439C103.685 224.276 105.806 225.06 107.9 225.911C109.062 226.384 109.791 227.113 109.777 228.559C109.723 235.853 109.777 243.148 109.696 250.456C109.683 251.875 110.358 252.469 111.453 252.929C113.182 253.644 114.911 254.374 116.653 255.049C117.91 255.536 118.193 256.441 118.193 257.711C118.153 264.965 118.193 272.219 118.153 279.473C118.153 280.649 118.302 281.419 119.639 281.837C121.584 282.445 123.435 283.364 125.34 284.107C126.474 284.539 126.92 285.228 126.893 286.498C126.799 290.267 126.866 294.036 126.866 297.805H126.853ZM63.9422 288.646C63.9422 285.444 63.9287 282.243 63.9422 279.041C63.9422 277.974 63.618 277.298 62.5508 276.88C60.3894 276.042 58.282 275.056 56.1342 274.164C53.3649 273.016 50.5956 271.868 47.8128 270.774C46.3268 270.193 45.7729 270.544 45.7729 272.07C45.7459 278.366 45.7594 284.661 45.7729 290.956C45.7729 292.171 46.1106 292.996 47.5696 293.32C49.0691 293.644 50.4605 294.427 51.8924 295.022C55.3101 296.44 58.7008 297.886 62.1321 299.264C63.4559 299.79 63.9287 299.412 63.9422 297.926C63.9422 294.833 63.9422 291.739 63.9422 288.659V288.646ZM87.3394 258.71C87.3394 251.132 87.3529 244.013 87.2989 236.894C87.2989 236.515 86.745 235.975 86.3398 235.799C82.8545 234.313 79.3287 232.881 75.8164 231.45C73.8036 230.626 71.7773 229.815 69.5349 228.896C69.4943 229.801 69.4403 230.396 69.4403 231.004C69.4403 237.231 69.4808 243.472 69.3998 249.7C69.3863 251.172 70.0212 251.699 71.2505 252.172C74.8438 253.563 78.3831 255.103 81.9494 256.562C83.6245 257.251 85.3131 257.9 87.3394 258.71ZM104.712 316.514C104.874 316.163 104.968 316.069 104.968 315.96C104.995 309.098 105.036 302.249 104.968 295.4C104.968 294.9 104.279 294.184 103.739 293.928C100.983 292.671 98.187 291.51 95.3906 290.348C92.7564 289.267 90.0952 288.227 87.3664 287.146C87.2584 287.524 87.1098 287.795 87.1098 288.051C87.1098 294.914 87.0692 301.763 87.1503 308.625C87.1503 309.139 87.8257 309.854 88.3661 310.111C90.0412 310.922 91.8108 311.57 93.5399 312.273C96.7685 313.596 99.9971 314.934 103.239 316.244C103.685 316.42 104.198 316.42 104.712 316.514ZM66.4549 278.555C66.3738 279.5 66.2657 280.135 66.2522 280.784C66.2522 286.673 66.2928 292.577 66.2117 298.467C66.1847 300.223 66.3873 301.303 68.4406 302.033C73.1687 303.694 77.7347 305.842 82.3817 307.747C82.868 307.95 83.4354 307.95 84.1784 308.071C84.1784 300.736 84.1784 293.617 84.1378 286.511C84.1378 286.16 83.6785 285.647 83.3138 285.485C79.815 284.012 76.2757 282.594 72.7635 281.162C70.7371 280.338 68.7243 279.5 66.4549 278.555ZM57.1878 249.7V252.186C57.1878 258.143 57.2554 264.114 57.1473 270.071C57.1203 271.76 57.7417 272.503 59.2412 273.084C63.9422 274.907 68.6028 276.853 73.2498 278.784C74.9249 279.487 75.2356 279.365 75.2356 277.528C75.2491 271.287 75.2085 265.046 75.2626 258.805C75.2761 257.224 74.4656 256.576 73.1417 256.076C70.1563 254.928 67.2113 253.671 64.2394 252.469C62.0105 251.578 59.7545 250.713 57.1743 249.7H57.1878ZM78.167 257.765C78.0994 258.71 78.0184 259.305 78.0184 259.899C78.0184 265.343 78.0184 270.787 78.0184 276.245C78.0184 278.865 79.2387 280.671 81.6792 281.662C81.7873 281.702 81.8819 281.77 81.9764 281.81C86.0426 283.526 90.0952 285.241 94.1749 286.944C94.6071 287.119 95.1205 287.119 95.6878 287.2C95.7959 286.768 95.931 286.457 95.931 286.147C95.931 279.514 95.9715 272.894 95.877 266.275C95.877 265.681 95.2285 264.816 94.6747 264.573C91.5271 263.182 88.3256 261.939 85.1375 260.629C82.895 259.71 80.6526 258.791 78.1805 257.778L78.167 257.765ZM71.4531 227.208C72.8715 227.91 73.8982 228.491 74.9789 228.937C79.1531 230.68 83.3273 232.395 87.515 234.07C88.0419 234.286 88.7714 234.327 89.2982 234.138C90.7436 233.624 92.1215 232.922 93.5535 232.341C97.0928 230.909 100.632 229.504 104.171 228.072C104.482 227.937 104.739 227.64 105.009 227.41C104.725 227.154 104.482 226.789 104.144 226.654C99.9296 224.871 95.7284 223.047 91.4596 221.372C90.1357 220.859 88.9064 219.927 87.1773 220.683C82.1791 222.885 77.0863 224.884 71.4531 227.208ZM122.692 285.269C121.449 284.674 120.774 284.404 120.152 284.039C117.545 282.553 115.046 282.418 112.223 283.81C108.521 285.62 104.577 286.971 100.767 288.565C100.281 288.767 99.9026 289.267 99.3217 289.767C101.443 290.659 103.253 291.456 105.09 292.158C105.563 292.347 106.211 292.361 106.697 292.199C108.116 291.739 109.494 291.185 110.872 290.631C113.884 289.416 116.91 288.2 119.909 286.917C120.787 286.538 121.571 285.944 122.692 285.282V285.269ZM113.519 256.549C113.587 256.387 113.655 256.225 113.722 256.076C112.668 255.549 111.615 255.049 110.575 254.496C108.899 253.617 107.278 253.347 105.509 254.374C104.36 255.036 103.104 255.509 101.861 255.995C98.3085 257.413 94.7557 258.791 91.1894 260.183L91.0949 260.683C92.1891 261.182 93.2563 261.79 94.391 262.169C95.5257 262.547 96.7956 263.06 97.8763 262.857C99.5108 262.547 101.037 261.642 102.618 261.007C106.252 259.521 109.872 258.035 113.506 256.562L113.519 256.549ZM59.5789 247.863C59.768 248.092 59.8626 248.322 60.0247 248.403C62.2266 249.403 64.415 250.402 66.671 251.294C66.8601 251.375 67.6571 250.659 67.7112 250.267C67.8598 249.052 67.8057 247.809 67.7652 246.579C67.7247 245.026 67.2384 244.702 65.7659 245.283C63.7261 246.093 61.7268 246.971 59.5924 247.863H59.5789ZM55.4317 268.477C55.4317 267.856 55.4317 267.248 55.4317 266.626C55.4317 265.627 54.9454 265.303 54.0403 265.654C52.3517 266.316 50.6631 266.991 49.0015 267.707C48.7449 267.815 48.4882 268.18 48.4612 268.437C48.4612 268.666 48.7313 269.017 48.9745 269.126C50.1228 269.639 51.2845 270.112 52.4598 270.544C55.4317 271.652 55.4317 271.638 55.4317 268.464V268.477Z" fill="black"/>
<path d="M313.102 129.322C316.398 127.998 319.749 126.742 323.018 125.27C323.68 124.972 324.342 123.865 324.369 123.108C324.504 119.407 324.436 115.692 324.436 111.977C324.436 108.965 324.814 108.6 327.638 107.573C331.285 106.249 334.865 104.736 338.458 103.291C340.512 102.467 342.551 101.575 344.618 100.792C345.078 100.616 345.74 100.657 346.212 100.846C350.481 102.521 354.709 104.277 358.965 105.979C364.665 108.262 370.38 110.478 376.067 112.788C380.322 114.517 384.51 116.394 388.751 118.123C394.006 120.271 399.302 122.338 404.584 124.419C407.488 125.553 407.488 125.526 407.488 128.579C407.488 135.442 407.488 142.304 407.488 149.153C407.488 151.125 408.069 151.747 409.96 152.368C411.689 152.936 413.405 153.584 414.985 154.476C415.647 154.854 416.309 155.921 416.323 156.678C416.417 164.094 416.377 171.524 416.39 178.94C416.39 180.48 415.634 181.263 414.161 181.817C410.068 183.33 406.056 185.032 402.017 186.694C399.977 187.532 397.964 188.45 395.925 189.261C395.573 189.396 395.047 189.301 394.668 189.153C389.886 187.248 385.091 185.37 380.335 183.371C375.081 181.169 369.88 178.818 364.625 176.63C359.937 174.685 355.182 172.888 350.495 170.97C345.618 168.971 340.782 166.89 335.905 164.877C330.637 162.716 325.328 160.636 320.073 158.461C317.925 157.569 315.818 156.556 313.724 155.529C313.373 155.367 312.981 154.854 312.981 154.489C312.954 146.276 312.981 138.076 312.981 129.863C312.981 129.701 313.062 129.538 313.116 129.295L313.102 129.322ZM367.286 139.197C367.286 142.399 367.3 145.6 367.286 148.802C367.286 149.869 367.651 150.518 368.745 150.882C370.271 151.382 371.744 152.058 373.243 152.679C376.742 154.124 380.227 155.61 383.74 157.042C384.942 157.529 385.685 157.285 385.671 155.772C385.644 149.423 385.712 143.074 385.59 136.725C385.59 136.009 384.699 135.253 384.118 134.618C383.848 134.32 383.307 134.293 382.902 134.118C378.296 132.227 373.676 130.322 369.069 128.444C367.799 127.931 367.232 128.255 367.272 129.755C367.367 132.902 367.3 136.05 367.3 139.197H367.286ZM332.974 150.072C332.974 146.87 333.055 143.669 332.906 140.467C332.879 139.778 332.217 138.846 331.596 138.508C330.15 137.711 328.543 137.238 327.016 136.603C323.653 135.199 320.316 133.74 316.925 132.375C315.223 131.686 314.683 132.065 314.669 133.713C314.669 140.008 314.669 146.289 314.669 152.584C314.669 153.733 315.129 154.368 316.263 154.8C319.762 156.151 323.207 157.623 326.679 159.055C328.165 159.663 329.61 160.352 331.123 160.852C332.177 161.189 333.068 161.176 333.014 159.514C332.893 156.38 332.974 153.233 332.974 150.085V150.072ZM343.754 140.913C343.929 140.548 344.064 140.399 344.064 140.251C344.078 133.28 344.105 126.323 344.064 119.353C344.064 119.002 343.632 118.475 343.281 118.326C339.688 116.746 336.081 115.206 332.46 113.693C330.488 112.869 328.475 112.153 326.408 111.356C326.287 111.788 326.179 111.991 326.165 112.193C326.152 119.042 326.111 125.905 326.206 132.753C326.206 133.334 327.03 134.172 327.665 134.456C331.272 136.009 334.933 137.428 338.58 138.886C340.309 139.575 342.038 140.251 343.767 140.926L343.754 140.913ZM393.979 186.735C394.128 186.289 394.223 186.14 394.223 185.978C394.236 179.075 394.263 172.172 394.223 165.269C394.223 164.837 393.682 164.215 393.236 163.999C391.696 163.256 390.102 162.635 388.508 161.986C384.591 160.392 380.66 158.812 376.634 157.191C376.499 157.758 376.364 158.069 376.364 158.393C376.364 165.08 376.323 171.753 376.418 178.427C376.418 179.021 377.174 179.886 377.782 180.169C381.295 181.723 384.874 183.168 388.441 184.614C390.264 185.357 392.115 186.019 393.979 186.735ZM335.594 140.264C335.432 140.913 335.257 141.332 335.257 141.75C335.243 148.316 335.203 154.894 335.297 161.46C335.297 162.068 336.04 162.932 336.648 163.202C339.553 164.513 342.524 165.688 345.483 166.863C347.928 167.849 350.4 168.781 352.859 169.74C352.994 169.43 353.115 169.268 353.115 169.119C353.129 162.216 353.169 155.3 353.102 148.397C353.102 147.924 352.507 147.235 352.021 147.005C349.806 145.979 347.55 145.06 345.28 144.141C342.119 142.858 338.931 141.602 335.594 140.264ZM356.357 148.667C356.195 149.315 355.993 149.775 355.993 150.247C355.966 156.772 355.979 163.297 355.993 169.808C355.993 170.794 356.384 171.375 357.452 171.74C359.708 172.496 361.883 173.469 364.084 174.374C366.786 175.495 369.474 176.698 372.19 177.778C373.581 178.332 374 177.981 374 176.481C374 170.078 374.04 163.662 373.973 157.258C373.973 156.651 373.405 155.745 372.865 155.516C367.502 153.219 362.085 151.031 356.371 148.68L356.357 148.667ZM347.361 119.515C347.144 120.015 347.063 120.123 347.063 120.217C347.036 127.066 346.996 133.915 347.063 140.764C347.063 141.291 347.725 142.034 348.252 142.277C351.224 143.615 354.237 144.871 357.263 146.087C359.708 147.073 362.166 147.991 364.611 148.937C364.8 148.545 364.936 148.397 364.936 148.248C364.949 141.291 364.976 134.32 364.936 127.363C364.936 126.958 364.463 126.337 364.057 126.161C359.735 124.365 355.385 122.635 351.035 120.893C349.833 120.406 348.603 119.974 347.347 119.488L347.361 119.515ZM383.159 117.894C381.794 117.164 380.781 116.516 379.687 116.057C376.729 114.841 373.716 113.747 370.758 112.517C368.124 111.423 365.76 110.18 362.666 111.923C359.478 113.72 355.831 114.679 352.399 116.07C351.292 116.516 350.278 117.205 349.036 117.88C353.169 119.569 357.006 120.879 360.599 122.689C364.355 124.581 367.732 124.702 371.528 122.716C375.081 120.852 378.931 119.609 383.145 117.88L383.159 117.894ZM403.273 126.431C402.72 126.026 402.355 125.607 401.895 125.418C397.1 123.432 392.304 121.46 387.482 119.528C387.009 119.339 386.347 119.164 385.928 119.339C380.889 121.339 375.878 123.392 370.879 125.459C370.474 125.621 370.177 126.053 369.677 126.499C375.027 128.687 380.119 130.808 385.253 132.808C386.009 133.105 387.076 133.051 387.833 132.753C392.926 130.741 397.964 128.633 403.273 126.445V126.431ZM361.923 109.451C360.977 108.992 360.248 108.6 359.491 108.289C355.344 106.601 351.211 104.858 346.996 103.291C346.01 102.926 344.686 102.913 343.673 103.237C341.363 103.98 339.147 105.006 336.905 105.939C334.122 107.087 331.353 108.249 328.34 109.518C328.908 109.951 329.245 110.315 329.678 110.491C333.973 112.261 338.296 113.963 342.578 115.773C344.51 116.583 346.307 116.705 348.171 115.638C349.076 115.125 350.116 114.827 351.089 114.436C354.466 113.085 357.843 111.747 361.207 110.369C361.464 110.261 361.599 109.883 361.923 109.437V109.451ZM388.117 159.649C390.643 160.676 392.71 161.568 394.83 162.351C395.263 162.513 395.871 162.446 396.303 162.27C401.193 160.284 406.07 158.258 410.933 156.218C411.244 156.097 411.446 155.718 411.689 155.462C411.433 155.219 411.217 154.881 410.906 154.746C409.271 154.043 407.623 153.368 405.962 152.76C405.61 152.625 405.124 152.679 404.759 152.814C401.706 154.003 398.653 155.205 395.627 156.448C393.236 157.434 390.872 158.474 388.117 159.663V159.649ZM316.925 130.254C319.276 131.2 321.127 131.916 322.95 132.672C323.977 133.105 324.45 132.753 324.45 131.7C324.45 130.525 324.463 129.349 324.423 128.174C324.382 127.309 323.99 126.985 323.099 127.35C321.572 127.985 320.005 128.525 318.492 129.174C318.006 129.376 317.614 129.782 316.939 130.254H316.925Z" fill="black"/>
<path d="M264.073 169.882C264.073 173.529 263.978 177.19 264.113 180.837C264.181 182.391 263.438 183.093 262.249 183.593C257.359 185.633 252.455 187.659 247.551 189.672C246.282 190.186 245.012 190.726 243.701 191.104C243.161 191.266 242.459 191.172 241.932 190.956C236.839 188.875 231.773 186.714 226.68 184.62C220.912 182.256 215.117 179.946 209.362 177.568C202.581 174.772 195.826 171.895 189.045 169.085C186.856 168.18 184.587 167.437 182.439 166.451C181.818 166.167 181.075 165.275 181.075 164.64C180.98 156.711 180.98 148.795 181.048 140.865C181.048 140.392 181.629 139.717 182.101 139.487C184.992 138.15 187.91 136.826 190.896 135.678C192.003 135.259 192.192 134.651 192.192 133.665C192.179 129.68 192.246 125.681 192.165 121.696C192.125 119.94 192.908 119.17 194.489 118.576C197.988 117.265 201.405 115.725 204.877 114.293C207.525 113.199 210.186 112.118 212.861 111.078C213.226 110.93 213.766 111.011 214.158 111.173C217.994 112.78 221.79 114.509 225.654 116.022C228.828 117.265 232.111 118.197 235.299 119.386C238.136 120.44 240.905 121.669 243.701 122.817C246.552 123.993 249.389 125.181 252.239 126.33C255.116 127.464 254.954 127.316 254.968 129.896C254.995 136.866 254.968 143.837 254.968 150.807C254.968 153.171 255.224 153.401 257.399 154.144C259.223 154.766 260.979 155.63 262.803 156.306C263.843 156.684 264.086 157.373 264.086 158.386C264.059 162.209 264.086 166.032 264.086 169.855L264.073 169.882ZM221.331 169.031C221.331 165.883 221.331 162.736 221.331 159.588C221.331 158.386 220.899 157.656 219.656 157.251C218.143 156.765 216.724 155.968 215.238 155.333C211.915 153.928 208.606 152.51 205.255 151.186C203.553 150.51 203.04 150.943 203.04 152.78C203.04 158.913 203.053 165.032 203.026 171.165C203.026 172.435 203.351 173.3 204.702 173.664C205.647 173.921 206.539 174.367 207.444 174.745C211.375 176.38 215.279 178.068 219.237 179.649C220.709 180.243 221.29 179.77 221.317 178.122C221.344 175.083 221.317 172.043 221.317 169.017L221.331 169.031ZM183.142 142.162C182.912 142.594 182.817 142.689 182.804 142.783C182.777 149.74 182.75 156.711 182.804 163.668C182.804 164.127 183.466 164.762 183.966 165.005C185.654 165.789 187.41 166.424 189.139 167.14C192.854 168.666 196.583 170.193 200.352 171.733C200.527 171.341 200.676 171.138 200.689 170.936C200.703 163.979 200.73 157.008 200.662 150.051C200.662 149.632 200.068 149.024 199.609 148.835C196.029 147.336 192.422 145.917 188.815 144.472C186.938 143.715 185.06 142.945 183.128 142.162H183.142ZM232.854 159.548C232.948 158.98 233.056 158.602 233.056 158.237C233.056 151.604 233.056 144.972 233.083 138.339C233.083 137.272 232.489 136.88 231.706 136.542C226.68 134.462 221.669 132.381 216.643 130.315C215.725 129.936 215.117 130.071 215.117 131.26C215.117 137.893 215.117 144.526 215.117 151.159C215.117 151.996 215.414 152.483 216.373 152.834C219.359 153.928 222.249 155.252 225.194 156.454C227.694 157.481 230.206 158.48 232.84 159.548H232.854ZM223.871 159.034C223.871 160.129 223.871 160.79 223.871 161.452C223.871 167.126 223.925 172.786 223.844 178.46C223.816 180.432 223.952 181.756 226.316 182.553C231.017 184.147 235.529 186.295 240.135 188.173C241.256 188.632 241.945 188.375 241.945 186.957C241.918 180.554 241.945 174.164 241.932 167.761C241.932 166.802 241.608 166.18 240.554 165.775C237.568 164.64 234.678 163.276 231.719 162.06C229.274 161.061 226.788 160.156 223.898 159.034H223.871ZM212.185 151.267C212.185 143.891 212.199 136.866 212.145 129.842C212.145 129.437 211.659 128.856 211.253 128.68C208.322 127.356 205.363 126.1 202.392 124.871C199.825 123.817 197.231 122.831 194.57 121.777C194.462 122.155 194.313 122.426 194.313 122.682C194.3 129.545 194.259 136.407 194.34 143.256C194.34 143.81 195.124 144.607 195.718 144.85C200.5 146.876 205.336 148.795 210.159 150.726C210.713 150.943 211.307 151.037 212.185 151.253V151.267ZM230.112 120.116C229.693 119.764 229.585 119.616 229.436 119.548C225.032 117.711 220.642 115.806 216.198 114.077C214.725 113.496 213.28 112.699 211.442 113.739C209.403 114.901 207.025 115.469 204.823 116.36C202.148 117.454 199.501 118.63 196.475 119.926C197.231 120.413 197.663 120.804 198.177 121.007C202.716 122.858 207.255 124.709 211.834 126.465C212.618 126.762 213.671 126.91 214.428 126.627C218.724 125.033 222.965 123.317 227.221 121.588C228.18 121.196 229.058 120.642 230.125 120.089L230.112 120.116ZM217.454 127.91C217.508 128.113 217.562 128.315 217.616 128.504C222.101 130.369 226.586 132.206 231.071 134.084C232.651 134.746 234.205 135.34 235.907 134.651C237.028 134.192 238.109 133.597 239.23 133.138C243.094 131.557 246.984 130.004 251.131 128.315C250.361 127.829 249.848 127.397 249.253 127.167C244.485 125.235 239.703 123.331 234.907 121.466C234.421 121.277 233.745 121.237 233.259 121.426C229.72 122.79 226.194 124.236 222.668 125.668C220.912 126.384 219.183 127.154 217.454 127.897V127.91ZM236.285 161.304C236.312 161.452 236.326 161.614 236.353 161.763C237.433 162.209 238.582 162.533 239.581 163.127C241.594 164.316 243.58 164.64 245.701 163.492C246.228 163.209 246.781 162.965 247.335 162.749C251.361 161.115 255.4 159.48 259.439 157.846C259.48 157.683 259.52 157.521 259.574 157.359C258.872 156.967 258.21 156.4 257.453 156.211C255.522 155.725 253.846 153.901 251.55 155.036C250.28 155.671 248.916 156.076 247.605 156.616C243.836 158.17 240.054 159.75 236.285 161.317V161.304ZM192.03 143.499V137.312C189.518 138.393 187.275 139.366 185.033 140.338C185.087 140.487 185.127 140.649 185.181 140.797C187.397 141.676 189.599 142.54 192.044 143.513L192.03 143.499Z" fill="black"/>
<path d="M102.333 123.929C102.333 127.184 102.333 130.454 102.333 133.709C102.333 136.681 102.36 136.587 105.196 137.519C106.912 138.086 108.587 138.842 110.168 139.734C110.762 140.058 111.356 140.977 111.37 141.639C111.451 149.231 111.411 156.809 111.438 164.401C111.438 165.684 110.668 166.333 109.654 166.752C105.332 168.562 100.995 170.345 96.6589 172.101C94.7137 172.885 92.7549 173.709 90.7421 174.235C89.9046 174.452 88.8374 174.033 87.9458 173.695C84.1363 172.223 80.3403 170.683 76.5579 169.116C74.3154 168.184 72.127 167.116 69.8846 166.171C65.5618 164.347 61.2119 162.577 56.8756 160.767C54.5926 159.822 52.2961 158.89 50.0807 157.822C49.5809 157.579 49.0675 156.769 49.0675 156.215C49 148.407 49.0405 140.585 49 132.777C49 131.94 49.2297 131.494 50.0537 131.17C53.0121 129.967 55.903 128.616 58.8884 127.455C60.0502 126.995 60.55 126.414 60.5365 125.158C60.4825 121.511 60.5095 117.85 60.5095 114.202C60.5095 111.041 60.5095 111.055 63.4004 109.88C68.4526 107.799 73.5319 105.814 78.5167 103.571C81.3805 102.288 83.7175 103.422 86.2032 104.476C90.9853 106.502 95.7809 108.515 100.617 110.434C101.873 110.933 102.414 111.595 102.373 112.973C102.292 116.621 102.346 120.281 102.346 123.929H102.333ZM62.3196 113.635C62.2926 114.324 62.2386 114.81 62.2386 115.31C62.2386 121.592 62.2926 127.887 62.1981 134.168C62.1711 135.695 62.9681 136.235 64.1028 136.681C68.9389 138.599 73.7886 140.491 78.5977 142.449C80.3674 143.165 80.6105 143.071 80.6105 141.139C80.6105 135.641 80.6105 130.129 80.6105 124.631C80.6105 120.835 80.6105 120.822 77.2468 119.241C76.747 119.012 76.1526 119.025 75.6393 118.809C71.6812 117.134 67.7502 115.405 63.7921 113.743C63.3868 113.568 62.86 113.662 62.3061 113.622L62.3196 113.635ZM88.8914 171.817C89.067 171.439 89.1616 171.331 89.1616 171.237C89.1751 164.266 89.2156 157.295 89.1616 150.338C89.1616 149.906 88.6077 149.285 88.1619 149.096C82.7179 146.786 77.2603 144.543 71.6137 142.206C71.4921 142.828 71.33 143.3 71.33 143.787C71.3165 150.311 71.33 156.823 71.3165 163.347C71.3165 164.455 71.8028 165.05 72.843 165.441C76.3418 166.792 79.8 168.238 83.2718 169.629C85.1495 170.385 87.0407 171.101 88.9049 171.831L88.8914 171.817ZM68.6823 163.131C68.8039 162.861 68.9389 162.712 68.9389 162.564C68.966 155.701 68.993 148.852 68.9389 141.99C68.9389 141.517 68.4256 140.815 67.9663 140.626C62.5088 138.329 57.0107 136.114 51.31 133.804C51.1884 134.668 51.0263 135.303 51.0263 135.952C50.9993 142.247 51.0263 148.542 50.9858 154.837C50.9858 155.891 51.364 156.471 52.3637 156.836C54.0793 157.458 55.7409 158.201 57.4295 158.903C60.6986 160.254 63.9542 161.632 67.2368 162.956C67.6691 163.131 68.2095 163.077 68.6688 163.118L68.6823 163.131ZM98.2395 111.798L98.0774 111.339C97.7532 111.271 97.4154 111.258 97.1182 111.136C93.0926 109.461 89.0805 107.745 85.0414 106.097C83.3663 105.422 81.7047 104.422 79.7865 105.219C74.7612 107.3 69.7495 109.393 64.346 111.649C65.7104 112.352 66.7775 113 67.9123 113.46C72.1135 115.162 76.3418 116.823 80.5565 118.471C81.0293 118.66 81.6642 118.877 82.0695 118.714C84.1228 117.904 86.1086 116.945 88.1349 116.107C90.3774 115.189 92.6874 114.392 94.9298 113.46C96.0646 112.987 97.1318 112.352 98.226 111.784L98.2395 111.798ZM83.7175 144.786C84.5281 145.205 84.8928 145.475 85.2981 145.597C87.7972 146.353 89.9046 148.312 93.0116 146.705C97.1588 144.57 101.644 143.071 105.98 141.288C106.304 141.152 106.547 140.828 106.818 140.599C106.507 140.342 106.223 140.045 105.872 139.842C102.603 137.91 99.5093 137.883 96.0105 139.734C92.2281 141.733 88.0539 143.03 83.704 144.786H83.7175ZM60.3474 128.887C57.8753 130.21 55.3086 130.467 53.2418 132.412C55.8084 133.439 58.0104 134.331 60.3474 135.263V128.873V128.887Z" fill="black"/>
<path d="M414.944 71.1158C414.944 74.3714 414.904 77.6405 414.944 80.8961C414.998 84.8272 414.796 84.0437 411.716 85.4081C406.907 87.5424 401.962 89.3526 397.14 91.4735C394.897 92.4596 392.817 92.3651 390.669 91.46C385.347 89.2175 380.024 86.9616 374.702 84.7191C370.136 82.7874 365.556 80.8421 360.99 78.9238C355.128 76.4652 349.278 73.9931 343.402 71.5481C340.7 70.4268 337.998 69.3191 335.283 68.2249C334.148 67.7656 333.5 66.9821 333.5 65.7258C333.5 58.3095 333.5 50.8931 333.5 43.4633C333.5 42.1259 334.108 41.2479 335.472 40.721C340.227 38.8433 344.928 36.8575 349.643 34.9123C351.061 34.3179 352.453 33.6424 353.885 33.1021C354.304 32.94 354.911 32.9805 355.33 33.1561C360.693 35.3445 366.043 37.56 371.379 39.8024C374.594 41.1533 377.782 42.5852 380.997 43.9496C384.455 45.4221 387.94 46.827 391.412 48.2859C396.032 50.2312 400.652 52.19 405.272 54.1352C407.96 55.27 410.608 56.5533 413.391 57.4449C414.809 57.9042 414.904 58.7552 414.904 59.8224C414.931 63.5914 414.904 67.3603 414.904 71.1158H414.944ZM372.473 81.477C372.567 80.6124 372.702 79.9775 372.702 79.3291C372.716 73.5338 372.702 67.7521 372.702 61.9568C372.702 59.2551 372.095 58.5931 369.568 57.6475C365.799 56.2426 362.112 54.6486 358.37 53.1626C357.275 52.7303 356.141 52.3791 355.141 52.0279C354.884 52.3521 354.817 52.3926 354.817 52.4331C354.803 59.3902 354.763 66.3607 354.817 73.3177C354.817 73.804 355.384 74.52 355.857 74.7226C359.275 76.2356 362.733 77.681 366.205 79.0995C368.191 79.91 370.203 80.6124 372.446 81.45L372.473 81.477ZM392.56 90.0416C392.709 89.5012 392.817 89.2851 392.817 89.0689C392.831 82.22 392.858 75.371 392.803 68.5221C392.803 68.0358 392.331 67.3063 391.898 67.1172C387.387 65.1989 382.848 63.3482 378.295 61.511C377.309 61.1193 376.269 60.8356 375.202 60.4844C375.066 61.0112 374.972 61.2274 374.972 61.4435C374.972 68.1844 374.931 74.9252 374.999 81.6526C374.999 82.2065 375.58 82.9359 376.093 83.2466C376.823 83.6789 377.768 83.7465 378.579 84.0842C383.199 86.0295 387.805 88.0152 392.56 90.0551V90.0416ZM352.615 73.1961C352.615 72.291 352.615 71.6426 352.615 70.9942C352.615 65.0368 352.561 59.0659 352.642 53.1086C352.669 51.2849 352.507 49.9205 350.264 49.7179C349.535 49.6503 348.859 49.083 348.144 48.7993C344.064 47.1242 339.984 45.4761 335.756 43.7605C335.675 44.463 335.58 44.9088 335.58 45.341C335.58 51.9198 335.58 58.4986 335.553 65.0773C335.553 66.2391 336.215 66.5903 337.12 66.9416C339.444 67.8466 341.74 68.7923 344.05 69.7244C346.806 70.8321 349.562 71.9533 352.615 73.1826V73.1961ZM410.946 58.8093C410.216 58.323 409.771 57.9042 409.244 57.6881C405.583 56.1616 401.881 54.7026 398.221 53.1491C396.046 52.2305 393.952 51.2714 391.52 52.3251C387.886 53.9056 384.212 55.3781 380.565 56.9316C379.443 57.4044 378.349 57.9582 376.85 58.6742C378.187 59.2551 379.025 59.6333 379.876 59.9845C383.334 61.4165 386.846 62.7133 390.237 64.2938C392.601 65.3881 394.816 65.9014 397.194 64.5235C397.721 64.2128 398.288 63.9831 398.855 63.74C402.773 62.1324 406.691 60.5249 410.946 58.7958V58.8093ZM390.575 50.2852C389.751 49.7854 389.291 49.4342 388.791 49.2316C384.117 47.3403 379.443 45.4356 374.756 43.6119C374.121 43.3688 373.256 43.3282 372.621 43.5579C369.096 44.8547 365.583 46.2326 362.098 47.651C360.301 48.3805 358.559 49.2586 356.532 50.1907C357.708 50.731 358.518 51.1228 359.342 51.4605C362.963 52.9465 366.624 54.3244 370.19 55.9319C372.486 56.9721 374.567 57.2423 376.89 56.013C378.673 55.0674 380.686 54.527 382.564 53.7435C385.158 52.6628 387.738 51.5145 390.588 50.2852H390.575ZM370.568 42.0854C370.528 41.9098 370.487 41.7477 370.46 41.5721C366.137 39.7484 361.814 37.9112 357.505 36.0875C355.668 35.304 353.925 34.8447 351.966 35.9524C350.197 36.9521 348.238 37.587 346.347 38.357C343.605 39.4782 340.862 40.5859 337.755 41.8288C338.35 42.3151 338.647 42.6933 339.039 42.8554C342.875 44.4359 346.779 45.8679 350.548 47.597C352.926 48.6912 355.006 48.7588 357.397 47.597C360.058 46.2866 362.936 45.4221 365.705 44.2873C367.366 43.6119 368.961 42.8149 370.595 42.0719L370.568 42.0854Z" fill="black"/>
<path d="M252.195 62.487C252.195 66.2559 252.182 70.0249 252.195 73.7938C252.195 74.6719 252.019 75.2123 251.087 75.577C247.508 77.0089 243.982 78.5489 240.429 80.0484C237.673 81.2101 234.931 82.4124 232.135 83.4661C231.459 83.7228 230.513 83.7228 229.838 83.4661C225.556 81.8451 221.301 80.1835 217.072 78.4273C214.019 77.1575 211.074 75.631 208.021 74.3342C203.239 72.3079 198.43 70.3491 193.608 68.4309C191.027 67.4042 191 67.4582 191.014 64.743C191.014 57.7319 191.068 50.7073 191 43.6963C190.987 41.9807 191.392 40.9675 193.148 40.3326C196.89 38.9952 200.565 37.4147 204.252 35.9017C205.995 35.1858 207.792 34.5509 209.413 33.6187C211.385 32.484 213.128 33.1189 214.924 33.8619C220.341 36.1044 225.758 38.3333 231.148 40.6298C235.741 42.5886 240.28 44.6554 244.846 46.6277C246.859 47.4923 248.926 48.2623 250.979 49.0728C251.965 49.4645 252.209 50.194 252.209 51.1937C252.168 54.9626 252.195 58.7316 252.195 62.5005V62.487ZM229.838 81.3182V78.7651C229.838 73.5372 229.703 68.3228 229.892 63.1084C230 60.15 229.622 58.2993 226.191 57.2726C221.436 55.8677 216.964 53.5307 212.29 51.5719C212.169 52.0582 212.033 52.3284 212.033 52.5851C212.033 59.38 211.993 66.1749 212.074 72.9698C212.074 73.5372 212.776 74.3477 213.344 74.6044C216.816 76.1444 220.341 77.5763 223.867 79.0082C225.691 79.7512 227.528 80.4266 229.838 81.3182ZM209.467 72.6186C209.615 72.1863 209.751 71.9837 209.751 71.781C209.764 64.9186 209.791 58.0696 209.723 51.2072C209.723 50.7614 209.197 50.0859 208.764 49.8968C204.077 47.9516 199.335 46.1144 194.634 44.1826C192.973 43.5072 192.743 43.6017 192.743 45.4389C192.743 51.734 192.797 58.0291 192.702 64.3107C192.675 65.7561 193.405 66.3505 194.472 66.7963C198.255 68.3498 202.05 69.8628 205.86 71.3623C207.022 71.8216 208.238 72.1863 209.467 72.6051V72.6186ZM247.805 50.221C247.156 49.7347 246.792 49.343 246.332 49.1538C241.55 47.1545 236.755 45.1552 231.932 43.2235C231.365 42.9938 230.554 42.9803 229.987 43.21C225.61 44.9256 221.26 46.6952 216.924 48.5054C216.019 48.8837 215.208 49.4645 214.033 50.1265C215.424 50.7209 216.329 51.1126 217.248 51.4909C220.693 52.8958 224.205 54.1926 227.582 55.7461C229.73 56.7323 231.743 57.2321 233.877 55.9082C234.242 55.6786 234.634 55.4624 235.039 55.3003C239.173 53.6387 243.306 52.0042 247.778 50.221H247.805ZM228.46 41.751C227.393 41.2377 226.745 40.9135 226.083 40.6298C222.584 39.1438 219.126 37.5768 215.573 36.2259C213.573 35.4695 211.642 34.2942 209.264 35.8207C207.4 37.023 205.09 37.5228 202.996 38.3738C200.375 39.441 197.768 40.5487 194.837 41.778C195.742 42.2644 196.296 42.6291 196.904 42.8858C200.47 44.3852 204.023 45.9252 207.63 47.2896C209.386 47.9651 211.115 49.1673 213.222 48.0596C214.83 47.2221 216.559 46.6412 218.234 45.9523C221.503 44.6014 224.786 43.2505 228.46 41.7375V41.751Z" fill="black"/>
<path d="M102.016 53.4974C102.016 56.8071 102.016 60.1302 102.016 63.4399C102.016 66.4793 101.665 66.8306 98.8011 67.9383C93.9109 69.8295 88.9802 71.6802 84.2251 73.8957C81.0371 75.3816 78.5109 74.1658 75.7686 73.0041C72.1618 71.4776 68.5009 70.1132 64.8671 68.6407C63.5297 68.1004 62.1653 67.56 60.9765 66.7765C60.4632 66.4388 60.1255 65.4932 60.1255 64.8178C60.0579 58.9279 60.0849 53.0246 60.0849 47.1348C60.0849 45.6758 60.2335 44.1899 60.0444 42.7579C59.7607 40.7586 60.8685 40.0292 62.4355 39.3942C66.7313 37.6651 71 35.8685 75.2823 34.1123C76.7683 33.5044 78.2407 32.8155 79.7942 32.3697C80.5778 32.14 81.5774 32.14 82.3339 32.4372C86.3325 34.0313 90.2906 35.7739 94.2621 37.449C96.3425 38.3271 98.4228 39.2186 100.544 39.9751C101.692 40.3804 102.07 41.0423 102.057 42.2041C102.016 45.973 102.043 49.7285 102.043 53.4974H102.016ZM62.0842 43.0957C61.9627 43.3523 61.8681 43.4469 61.8681 43.5414C61.8411 50.4444 61.8006 57.3609 61.8681 64.2639C61.8681 64.7367 62.4895 65.4392 62.9758 65.6418C68.4064 67.9248 73.8504 70.1267 79.5241 72.4232C79.7132 71.7478 79.9969 71.1939 79.9969 70.6265C80.0239 64.2234 80.0509 57.8202 79.9699 51.4171C79.9699 50.7821 79.4025 49.823 78.8621 49.5934C73.7693 47.4049 68.6225 45.3246 63.4757 43.2578C63.0434 43.0821 62.5165 43.1362 62.0978 43.0821L62.0842 43.0957ZM97.896 41.272C97.0314 40.7586 96.5046 40.3534 95.9102 40.1102C91.1686 38.1514 86.427 36.2062 81.672 34.2879C81.2937 34.1393 80.7669 34.0583 80.4157 34.1934C76.8358 35.6253 73.256 37.0842 69.7032 38.5837C67.812 39.3807 65.9613 40.2453 63.7323 41.245C68.0686 43.0281 71.9457 44.6221 75.8092 46.2297C78.4569 47.3239 80.9155 48.6342 84.009 47.1348C88.4128 45.0139 93.0193 43.3253 97.869 41.299L97.896 41.272Z" fill="black"/>
<path d="M441.15 218.016H293.121V329.453H441.15V218.016Z" fill="white"/>
<path fill-rule="evenodd" clip-rule="evenodd" d="M437.638 221.325H296.391V326.112H437.638V221.325ZM441.029 218V329.438H293V218H441.029Z" fill="#0070F3"/>
<path d="M357.954 285.857C357.988 274.129 360.97 270.494 366.476 266.96C370.81 264.195 374.104 261.497 374.104 257.272C374.104 253.047 370.843 250.416 366.755 250.416C362.667 250.416 358.959 253.326 358.848 258.131H342.898C343.111 243.593 353.855 237.127 366.889 237.127C381.174 237.127 391.539 243.905 391.539 256.47C391.539 264.742 387.138 269.758 380.482 273.66C375.244 276.771 372.719 279.714 372.719 285.835V287.25H357.954V285.835V285.857ZM356.603 300.974C356.536 296.058 360.623 292.078 365.616 292.078C370.608 292.078 374.562 296.058 374.629 300.974C374.562 305.958 370.363 309.971 365.616 309.971C360.623 309.971 356.536 305.958 356.603 300.974Z" fill="#0070F3"/>
</svg>
